<svg width="586.1468098958333" height="293.6747265625" xmlns="http://www.w3.org/2000/svg">
<style>text {font-family: Arial; font-size: 14px ;}</style>
<desc>Trial design autogenerated by td.py V2.0 (Jan-2022), author: Rainer Strotmann</desc><title>ms0039</title><rect x="260.40869140625" y="10" width="151.29069010416666" height="196.98893229166663" style="stroke:black;  stroke-width:0; fill:#eee;" />
<text x="122.11083984375" y="25.0322265625">S</text>
<text x="161.84130859375" y="25.0322265625">Treatment A</text>
<text x="298.0769856770833" y="25.0322265625">Treatment B</text>
<text x="458.14843749999994" y="25.0322265625">Treatment C</text>
<rect x="116.8369140625" y="33.931857638888886" width="18.525390625" height="20.04296875" style="stroke:black;  stroke-width:1.4; fill:none;" />
<text x="126.099609375" y="48.964084201388886"></text>
<line x1="135.3623046875" y1="43.953342013888886" x2="153.8876953125" y2="43.953342013888886" style="stroke:black; stroke-width:1.4; " />
<rect x="153.8876953125" y="33.931857638888886" width="18.525390625" height="20.04296875" style="stroke:black;  stroke-width:0; fill:lightgray;" />
<rect x="153.8876953125" y="33.931857638888886" width="18.525390625" height="20.04296875" style="stroke:black;  stroke-width:1.4; fill:none;" />
<text x="159.458984375" y="48.964084201388886">1</text>
<rect x="172.4130859375" y="33.931857638888886" width="18.525390625" height="20.04296875" style="stroke:black;  stroke-width:1.4; fill:none;" />
<text x="178.35693359375" y="48.964084201388886">2</text>
<rect x="190.9384765625" y="33.931857638888886" width="18.525390625" height="20.04296875" style="stroke:black;  stroke-width:1.4; fill:none;" />
<text x="196.919921875" y="48.964084201388886">3</text>
<line x1="209.4638671875" y1="33.931857638888886" x2="215.63899739583334" y2="33.931857638888886" style="stroke:black; stroke-width:1.4; stroke-dasharray: 4.199999999999999 4.199999999999999" />
<line x1="209.4638671875" y1="53.974826388888886" x2="215.63899739583334" y2="53.974826388888886" style="stroke:black; stroke-width:1.4; stroke-dasharray: 4.199999999999999 4.199999999999999" />
<text x="212.55143229166666" y="48.964084201388886"></text>
<line x1="215.63899739583334" y1="33.931857638888886" x2="221.81412760416669" y2="33.931857638888886" style="stroke:black; stroke-width:1.4; stroke-dasharray: 4.199999999999999 4.199999999999999" />
<line x1="215.63899739583334" y1="53.974826388888886" x2="221.81412760416669" y2="53.974826388888886" style="stroke:black; stroke-width:1.4; stroke-dasharray: 4.199999999999999 4.199999999999999" />
<text x="218.7265625" y="48.964084201388886"></text>
<line x1="221.81412760416669" y1="33.931857638888886" x2="227.98925781250003" y2="33.931857638888886" style="stroke:black; stroke-width:1.4; stroke-dasharray: 4.199999999999999 4.199999999999999" />
<line x1="221.81412760416669" y1="53.974826388888886" x2="227.98925781250003" y2="53.974826388888886" style="stroke:black; stroke-width:1.4; stroke-dasharray: 4.199999999999999 4.199999999999999" />
<text x="224.90169270833334" y="48.964084201388886"></text>
<rect x="227.98925781250003" y="33.931857638888886" width="18.525390625" height="20.04296875" style="stroke:black;  stroke-width:1.4; fill:none;" />
<text x="234.00830078125003" y="48.964084201388886">7</text>
<line x1="246.5146484375" y1="43.953342013888886" x2="265.0400390625" y2="43.953342013888886" style="stroke:black; stroke-width:1.4; " />
<rect x="265.0400390625" y="33.931857638888886" width="18.525390625" height="20.04296875" style="stroke:black;  stroke-width:0; fill:lightgray;" />
<rect x="265.0400390625" y="33.931857638888886" width="18.525390625" height="20.04296875" style="stroke:black;  stroke-width:1.4; fill:none;" />
<text x="270.611328125" y="48.964084201388886">1</text>
<line x1="283.5654296875" y1="33.931857638888886" x2="289.7405598958333" y2="33.931857638888886" style="stroke:black; stroke-width:1.4; stroke-dasharray: 4.199999999999999 4.199999999999999" />
<line x1="283.5654296875" y1="53.974826388888886" x2="289.7405598958333" y2="53.974826388888886" style="stroke:black; stroke-width:1.4; stroke-dasharray: 4.199999999999999 4.199999999999999" />
<text x="286.6529947916667" y="48.964084201388886"></text>
<line x1="289.7405598958333" y1="33.931857638888886" x2="295.91569010416663" y2="33.931857638888886" style="stroke:black; stroke-width:1.4; stroke-dasharray: 4.199999999999999 4.199999999999999" />
<line x1="289.7405598958333" y1="53.974826388888886" x2="295.91569010416663" y2="53.974826388888886" style="stroke:black; stroke-width:1.4; stroke-dasharray: 4.199999999999999 4.199999999999999" />
<text x="292.828125" y="48.964084201388886"></text>
<line x1="295.91569010416663" y1="33.931857638888886" x2="302.09082031249994" y2="33.931857638888886" style="stroke:black; stroke-width:1.4; stroke-dasharray: 4.199999999999999 4.199999999999999" />
<line x1="295.91569010416663" y1="53.974826388888886" x2="302.09082031249994" y2="53.974826388888886" style="stroke:black; stroke-width:1.4; stroke-dasharray: 4.199999999999999 4.199999999999999" />
<text x="299.0032552083333" y="48.964084201388886"></text>
<rect x="302.09082031249994" y="33.931857638888886" width="18.525390625" height="20.04296875" style="stroke:black;  stroke-width:1.4; fill:none;" />
<text x="308.03124999999994" y="48.964084201388886">5</text>
<rect x="320.61621093749994" y="33.931857638888886" width="18.525390625" height="20.04296875" style="stroke:black;  stroke-width:1.4; fill:none;" />
<text x="326.57031249999994" y="48.964084201388886">6</text>
<rect x="339.14160156249994" y="33.931857638888886" width="18.525390625" height="20.04296875" style="stroke:black;  stroke-width:1.4; fill:none;" />
<text x="345.16064453124994" y="48.964084201388886">7</text>
<rect x="357.66699218749994" y="33.931857638888886" width="18.525390625" height="20.04296875" style="stroke:black;  stroke-width:0; fill:lightgray;" />
<rect x="357.66699218749994" y="33.931857638888886" width="18.525390625" height="20.04296875" style="stroke:black;  stroke-width:1.4; fill:none;" />
<text x="363.62792968749994" y="48.964084201388886">8</text>
<line x1="376.19238281249994" y1="33.931857638888886" x2="382.36751302083326" y2="33.931857638888886" style="stroke:black; stroke-width:1.4; stroke-dasharray: 4.199999999999999 4.199999999999999" />
<line x1="376.19238281249994" y1="53.974826388888886" x2="382.36751302083326" y2="53.974826388888886" style="stroke:black; stroke-width:1.4; stroke-dasharray: 4.199999999999999 4.199999999999999" />
<text x="379.27994791666663" y="48.964084201388886"></text>
<line x1="382.36751302083326" y1="33.931857638888886" x2="388.5426432291666" y2="33.931857638888886" style="stroke:black; stroke-width:1.4; stroke-dasharray: 4.199999999999999 4.199999999999999" />
<line x1="382.36751302083326" y1="53.974826388888886" x2="388.5426432291666" y2="53.974826388888886" style="stroke:black; stroke-width:1.4; stroke-dasharray: 4.199999999999999 4.199999999999999" />
<text x="385.45507812499994" y="48.964084201388886"></text>
<rect x="388.5426432291666" y="33.931857638888886" width="18.525390625" height="20.04296875" style="stroke:black;  stroke-width:1.4; fill:none;" />
<text x="390.2208658854166" y="48.964084201388886">11</text>
<line x1="407.06803385416663" y1="43.953342013888886" x2="425.59342447916663" y2="43.953342013888886" style="stroke:black; stroke-width:1.4; " />
<rect x="425.59342447916663" y="33.931857638888886" width="18.525390625" height="20.04296875" style="stroke:black;  stroke-width:0; fill:lightgray;" />
<rect x="425.59342447916663" y="33.931857638888886" width="18.525390625" height="20.04296875" style="stroke:black;  stroke-width:1.4; fill:none;" />
<text x="431.16471354166663" y="48.964084201388886">1</text>
<line x1="444.11881510416663" y1="33.931857638888886" x2="450.29394531249994" y2="33.931857638888886" style="stroke:black; stroke-width:1.4; stroke-dasharray: 4.199999999999999 4.199999999999999" />
<line x1="444.11881510416663" y1="53.974826388888886" x2="450.29394531249994" y2="53.974826388888886" style="stroke:black; stroke-width:1.4; stroke-dasharray: 4.199999999999999 4.199999999999999" />
<text x="447.2063802083333" y="48.964084201388886"></text>
<line x1="450.29394531249994" y1="33.931857638888886" x2="456.46907552083326" y2="33.931857638888886" style="stroke:black; stroke-width:1.4; stroke-dasharray: 4.199999999999999 4.199999999999999" />
<line x1="450.29394531249994" y1="53.974826388888886" x2="456.46907552083326" y2="53.974826388888886" style="stroke:black; stroke-width:1.4; stroke-dasharray: 4.199999999999999 4.199999999999999" />
<text x="453.38151041666663" y="48.964084201388886"></text>
<line x1="456.46907552083326" y1="33.931857638888886" x2="462.6442057291666" y2="33.931857638888886" style="stroke:black; stroke-width:1.4; stroke-dasharray: 4.199999999999999 4.199999999999999" />
<line x1="456.46907552083326" y1="53.974826388888886" x2="462.6442057291666" y2="53.974826388888886" style="stroke:black; stroke-width:1.4; stroke-dasharray: 4.199999999999999 4.199999999999999" />
<text x="459.55664062499994" y="48.964084201388886"></text>
<rect x="462.6442057291666" y="33.931857638888886" width="18.525390625" height="20.04296875" style="stroke:black;  stroke-width:1.4; fill:none;" />
<text x="468.5846354166666" y="48.964084201388886">5</text>
<rect x="481.1695963541666" y="33.931857638888886" width="18.525390625" height="20.04296875" style="stroke:black;  stroke-width:1.4; fill:none;" />
<text x="487.1236979166666" y="48.964084201388886">6</text>
<rect x="499.6949869791666" y="33.931857638888886" width="18.525390625" height="20.04296875" style="stroke:black;  stroke-width:1.4; fill:none;" />
<text x="505.7140299479166" y="48.964084201388886">7</text>
<rect x="518.2203776041665" y="33.931857638888886" width="18.525390625" height="20.04296875" style="stroke:black;  stroke-width:0; fill:lightgray;" />
<rect x="518.2203776041665" y="33.931857638888886" width="18.525390625" height="20.04296875" style="stroke:black;  stroke-width:1.4; fill:none;" />
<text x="524.1813151041665" y="48.964084201388886">8</text>
<line x1="536.7457682291665" y1="33.931857638888886" x2="542.9208984374999" y2="33.931857638888886" style="stroke:black; stroke-width:1.4; stroke-dasharray: 4.199999999999999 4.199999999999999" />
<line x1="536.7457682291665" y1="53.974826388888886" x2="542.9208984374999" y2="53.974826388888886" style="stroke:black; stroke-width:1.4; stroke-dasharray: 4.199999999999999 4.199999999999999" />
<text x="539.8333333333331" y="48.964084201388886"></text>
<line x1="542.9208984374999" y1="33.931857638888886" x2="549.0960286458333" y2="33.931857638888886" style="stroke:black; stroke-width:1.4; stroke-dasharray: 4.199999999999999 4.199999999999999" />
<line x1="542.9208984374999" y1="53.974826388888886" x2="549.0960286458333" y2="53.974826388888886" style="stroke:black; stroke-width:1.4; stroke-dasharray: 4.199999999999999 4.199999999999999" />
<text x="546.0084635416665" y="48.964084201388886"></text>
<rect x="549.0960286458333" y="33.931857638888886" width="18.525390625" height="20.04296875" style="stroke:black;  stroke-width:1.4; fill:none;" />
<text x="550.7742513020833" y="48.964084201388886">11</text>
<text x="5" y="84.67335069444444">hospitalization</text>
<rect x="153.8876953125" y="75.54327256944444" width="55.576171875" height="8.0171875" style="stroke:black;  stroke-width:1.4; fill:none;" />
<rect x="302.09082031249994" y="75.54327256944444" width="55.576171875" height="8.0171875" style="stroke:black;  stroke-width:1.4; fill:none;" />
<rect x="462.6442057291666" y="75.54327256944444" width="55.57617187499994" height="8.0171875" style="stroke:black;  stroke-width:1.4; fill:none;" />
<text x="5" y="112.49409722222222">tepotinib</text>
<path d="M162.7896171875, 107.37261284722223 L162.7896171875, 101.35972222222223 L163.5111640625, 101.35972222222223 L163.5111640625, 107.37261284722223 L165.405224609375, 107.37261284722223 L163.150390625, 113.38550347222223 L160.895556640625, 107.37261284722223 L162.7896171875, 107.37261284722223 Z" style="stroke: black; fill: black; stroke-width:1.4; " /><path d="M310.99274218749997, 107.37261284722223 L310.99274218749997, 101.35972222222223 L311.7142890624999, 101.35972222222223 L311.7142890624999, 107.37261284722223 L313.60834960937495, 107.37261284722223 L311.35351562499994, 113.38550347222223 L309.09868164062493, 107.37261284722223 L310.99274218749997, 107.37261284722223 Z" style="stroke: black; fill: black; stroke-width:1.4; " /><path d="M471.5461276041666, 107.37261284722223 L471.5461276041666, 101.35972222222223 L472.26767447916654, 101.35972222222223 L472.26767447916654, 107.37261284722223 L474.1617350260416, 107.37261284722223 L471.9069010416666, 113.38550347222223 L469.65206705729156, 107.37261284722223 L471.5461276041666, 107.37261284722223 Z" style="stroke: black; fill: black; stroke-width:1.4; " /><text x="5" y="140.31484375">omeprazole</text>
<path d="M273.9419609375, 135.193359375 L273.9419609375, 129.18046875 L274.6635078125, 129.18046875 L274.6635078125, 135.193359375 L276.557568359375, 135.193359375 L274.302734375, 141.20625 L272.047900390625, 135.193359375 L273.9419609375, 135.193359375 Z" style="stroke: black; fill: black; stroke-width:1.4; " /><circle cx="286.6529947916667" cy="135.193359375" r="0.6680989583333333" style="stroke:black;  stroke-width:1.2; fill:black;"/>
<circle cx="292.828125" cy="135.193359375" r="0.6680989583333333" style="stroke:black;  stroke-width:1.2; fill:black;"/>
<circle cx="299.0032552083333" cy="135.193359375" r="0.6680989583333333" style="stroke:black;  stroke-width:1.2; fill:black;"/>
<path d="M310.99274218749997, 135.193359375 L310.99274218749997, 129.18046875 L311.7142890624999, 129.18046875 L311.7142890624999, 135.193359375 L313.60834960937495, 135.193359375 L311.35351562499994, 141.20625 L309.09868164062493, 135.193359375 L310.99274218749997, 135.193359375 Z" style="stroke: black; fill: black; stroke-width:1.4; " /><path d="M434.49534635416666, 135.193359375 L434.49534635416666, 129.18046875 L435.2168932291666, 129.18046875 L435.2168932291666, 135.193359375 L437.11095377604164, 135.193359375 L434.85611979166663, 141.20625 L432.6012858072916, 135.193359375 L434.49534635416666, 135.193359375 Z" style="stroke: black; fill: black; stroke-width:1.4; " /><circle cx="447.2063802083333" cy="135.193359375" r="0.6680989583333333" style="stroke:black;  stroke-width:1.2; fill:black;"/>
<circle cx="453.38151041666663" cy="135.193359375" r="0.6680989583333333" style="stroke:black;  stroke-width:1.2; fill:black;"/>
<circle cx="459.55664062499994" cy="135.193359375" r="0.6680989583333333" style="stroke:black;  stroke-width:1.2; fill:black;"/>
<path d="M471.5461276041666, 135.193359375 L471.5461276041666, 129.18046875 L472.26767447916654, 129.18046875 L472.26767447916654, 135.193359375 L474.1617350260416, 135.193359375 L471.9069010416666, 141.20625 L469.65206705729156, 135.193359375 L471.5461276041666, 135.193359375 Z" style="stroke: black; fill: black; stroke-width:1.4; " /><text x="5" y="167.15668402777777">food</text>
<circle cx="163.150390625" cy="163.01410590277777" r="4.63134765625" style="stroke:black;  stroke-width:1.2; fill:black;"/>
<circle cx="311.35351562499994" cy="163.01410590277777" r="4.63134765625" style="stroke:black;  stroke-width:1.4; fill:none;"/>
<circle cx="471.9069010416666" cy="163.01410590277777" r="4.63134765625" style="stroke:black;  stroke-width:1.2; fill:black;"/>
<text x="5" y="196.02196180555555">PK sampling</text>
<path d="M156.66650390625, 194.59290907118054 L156.66650390625, 187.07679578993054 L169.63427734375, 187.07679578993054 L169.63427734375, 194.59290907118054 L156.66650390625, 194.59290907118054 Z" style="stroke: black; fill: none; stroke-width:1.4; " /><path d="M178.16826171875, 190.83485243055554 L181.67578125, 183.81981336805555 L185.18330078125, 190.83485243055554 L181.67578125, 197.84989149305554 L178.16826171875, 190.83485243055554 Z" style="stroke: black; fill: none; stroke-width:1.4; " /><path d="M196.69365234375, 190.83485243055554 L200.201171875, 183.81981336805555 L203.70869140625, 190.83485243055554 L200.201171875, 197.84989149305554 L196.69365234375, 190.83485243055554 Z" style="stroke: black; fill: none; stroke-width:1.4; " /><circle cx="212.55143229166666" cy="190.83485243055554" r="0.6680989583333333" style="stroke:black;  stroke-width:1.2; fill:black;"/>
<circle cx="218.7265625" cy="190.83485243055554" r="0.6680989583333333" style="stroke:black;  stroke-width:1.2; fill:black;"/>
<circle cx="224.90169270833334" cy="190.83485243055554" r="0.6680989583333333" style="stroke:black;  stroke-width:1.2; fill:black;"/>
<path d="M233.74443359375002, 190.83485243055554 L237.25195312500003, 183.81981336805555 L240.75947265625004, 190.83485243055554 L237.25195312500003, 197.84989149305554 L233.74443359375002, 190.83485243055554 Z" style="stroke: black; fill: none; stroke-width:1.4; " /><path d="M304.86962890624994, 194.59290907118054 L304.86962890624994, 187.07679578993054 L317.83740234374994, 187.07679578993054 L317.83740234374994, 194.59290907118054 L304.86962890624994, 194.59290907118054 Z" style="stroke: black; fill: none; stroke-width:1.4; " /><path d="M326.37138671874993, 190.83485243055554 L329.87890624999994, 183.81981336805555 L333.38642578124995, 190.83485243055554 L329.87890624999994, 197.84989149305554 L326.37138671874993, 190.83485243055554 Z" style="stroke: black; fill: none; stroke-width:1.4; " /><path d="M344.89677734374993, 190.83485243055554 L348.40429687499994, 183.81981336805555 L351.91181640624995, 190.83485243055554 L348.40429687499994, 197.84989149305554 L344.89677734374993, 190.83485243055554 Z" style="stroke: black; fill: none; stroke-width:1.4; " /><path d="M363.42216796874993, 190.83485243055554 L366.92968749999994, 183.81981336805555 L370.43720703124995, 190.83485243055554 L366.92968749999994, 197.84989149305554 L363.42216796874993, 190.83485243055554 Z" style="stroke: black; fill: none; stroke-width:1.4; " /><circle cx="379.27994791666663" cy="190.83485243055554" r="0.6680989583333333" style="stroke:black;  stroke-width:1.2; fill:black;"/>
<circle cx="385.45507812499994" cy="190.83485243055554" r="0.6680989583333333" style="stroke:black;  stroke-width:1.2; fill:black;"/>
<path d="M394.29781901041656, 190.83485243055554 L397.8053385416666, 183.81981336805555 L401.3128580729166, 190.83485243055554 L397.8053385416666, 197.84989149305554 L394.29781901041656, 190.83485243055554 Z" style="stroke: black; fill: none; stroke-width:1.4; " /><path d="M465.4230143229166, 194.59290907118054 L465.4230143229166, 187.07679578993054 L478.3907877604166, 187.07679578993054 L478.3907877604166, 194.59290907118054 L465.4230143229166, 194.59290907118054 Z" style="stroke: black; fill: none; stroke-width:1.4; " /><path d="M486.92477213541656, 190.83485243055554 L490.4322916666666, 183.81981336805555 L493.9398111979166, 190.83485243055554 L490.4322916666666, 197.84989149305554 L486.92477213541656, 190.83485243055554 Z" style="stroke: black; fill: none; stroke-width:1.4; " /><path d="M505.45016276041656, 190.83485243055554 L508.9576822916666, 183.81981336805555 L512.4652018229166, 190.83485243055554 L508.9576822916666, 197.84989149305554 L505.45016276041656, 190.83485243055554 Z" style="stroke: black; fill: none; stroke-width:1.4; " /><path d="M523.9755533854166, 190.83485243055554 L527.4830729166665, 183.81981336805555 L530.9905924479165, 190.83485243055554 L527.4830729166665, 197.84989149305554 L523.9755533854166, 190.83485243055554 Z" style="stroke: black; fill: none; stroke-width:1.4; " /><circle cx="539.8333333333331" cy="190.83485243055554" r="0.6680989583333333" style="stroke:black;  stroke-width:1.2; fill:black;"/>
<circle cx="546.0084635416665" cy="190.83485243055554" r="0.6680989583333333" style="stroke:black;  stroke-width:1.2; fill:black;"/>
<path d="M554.8512044270833, 190.83485243055554 L558.3587239583333, 183.81981336805555 L561.8662434895832, 190.83485243055554 L558.3587239583333, 197.84989149305554 L554.8512044270833, 190.83485243055554 Z" style="stroke: black; fill: none; stroke-width:1.4; " /><path d="M153.8876953125, 208.63411458333331 A6.680989583333333, 6.680989583333333, 0, 0 0 160.56868489583334, 215.31510416666666 L193.52018229166666, 215.31510416666666 A6.680989583333333, 6.680989583333333 0, 0 1 200.201171875, 221.99609374999997 A6.680989583333333, 6.680989583333333, 0, 0 1 206.88216145833334, 215.31510416666666 L239.83365885416669, 215.31510416666666 A6.680989583333333, 6.680989583333333 0, 0 0 246.51464843750003, 208.63411458333331 " style="stroke: black; stroke-width:1.4; fill:none" /><path d="M150.38017578125, 243.68424479166666 L153.8876953125, 236.66920572916666 L157.39521484375, 243.68424479166666 L153.8876953125, 250.69928385416665 L150.38017578125, 243.68424479166666 Z" style="stroke: black; fill: none; stroke-width:1.4; " /><path d="M157.79033203125, 243.68424479166666 L161.2978515625, 236.66920572916666 L164.80537109375, 243.68424479166666 L161.2978515625, 250.69928385416665 L157.79033203125, 243.68424479166666 Z" style="stroke: black; fill: none; stroke-width:1.4; " /><path d="M165.20048828125, 243.68424479166666 L168.7080078125, 236.66920572916666 L172.21552734375, 243.68424479166666 L168.7080078125, 250.69928385416665 L165.20048828125, 243.68424479166666 Z" style="stroke: black; fill: none; stroke-width:1.4; " /><path d="M180.02080078125, 243.68424479166666 L183.5283203125, 236.66920572916666 L187.03583984375, 243.68424479166666 L183.5283203125, 250.69928385416665 L180.02080078125, 243.68424479166666 Z" style="stroke: black; fill: none; stroke-width:1.4; " /><path d="M194.84111328125, 243.68424479166666 L198.3486328125, 236.66920572916666 L201.85615234375, 243.68424479166666 L198.3486328125, 250.69928385416665 L194.84111328125, 243.68424479166666 Z" style="stroke: black; fill: none; stroke-width:1.4; " /><path d="M209.66142578125, 243.68424479166666 L213.1689453125, 236.66920572916666 L216.67646484375, 243.68424479166666 L213.1689453125, 250.69928385416665 L209.66142578125, 243.68424479166666 Z" style="stroke: black; fill: none; stroke-width:1.4; " /><path d="M239.30205078125, 243.68424479166666 L242.8095703125, 236.66920572916666 L246.31708984375, 243.68424479166666 L242.8095703125, 250.69928385416665 L239.30205078125, 243.68424479166666 Z" style="stroke: black; fill: none; stroke-width:1.4; " /><path d="M268.94267578125, 243.68424479166666 L272.4501953125, 236.66920572916666 L275.95771484375, 243.68424479166666 L272.4501953125, 250.69928385416665 L268.94267578125, 243.68424479166666 Z" style="stroke: black; fill: none; stroke-width:1.4; " /><path d="M308.42021484375, 243.68424479166666 L311.927734375, 236.66920572916666 L315.43525390625, 243.68424479166666 L311.927734375, 250.69928385416665 L308.42021484375, 243.68424479166666 Z" style="stroke: black; fill: none; stroke-width:1.4; " /><path d="M328.68330078125, 243.68424479166666 L332.1908203125, 236.66920572916666 L335.69833984375003, 243.68424479166666 L332.1908203125, 250.69928385416665 L328.68330078125, 243.68424479166666 Z" style="stroke: black; fill: none; stroke-width:1.4; " /><path d="M348.94638671875, 243.68424479166666 L352.45390625, 236.66920572916666 L355.96142578125, 243.68424479166666 L352.45390625, 250.69928385416665 L348.94638671875, 243.68424479166666 Z" style="stroke: black; fill: none; stroke-width:1.4; " /><path d="M369.20947265625, 243.68424479166666 L372.7169921875, 236.66920572916666 L376.22451171875, 243.68424479166666 L372.7169921875, 250.69928385416665 L369.20947265625, 243.68424479166666 Z" style="stroke: black; fill: none; stroke-width:1.4; " /><path d="M389.47255859374997, 243.68424479166666 L392.980078125, 236.66920572916666 L396.48759765625, 243.68424479166666 L392.980078125, 250.69928385416665 L389.47255859374997, 243.68424479166666 Z" style="stroke: black; fill: none; stroke-width:1.4; " /><path d="M409.73564453125, 243.68424479166666 L413.2431640625, 236.66920572916666 L416.75068359375, 243.68424479166666 L413.2431640625, 250.69928385416665 L409.73564453125, 243.68424479166666 Z" style="stroke: black; fill: none; stroke-width:1.4; " /><line x1="153.8876953125" y1="261.48350694444446" x2="302.0908203125" y2="261.48350694444446" style="stroke:black; stroke-width:1.4; " />
<line x1="153.8876953125" y1="258.14301215277777" x2="153.8876953125" y2="264.82400173611114" style="stroke:black; stroke-width:1.4; " />
<text x="150.6201171875" y="282.6232638888889">0</text>
<line x1="183.5283203125" y1="258.14301215277777" x2="183.5283203125" y2="264.82400173611114" style="stroke:black; stroke-width:1.4; " />
<text x="180.20947265625" y="282.6232638888889">2</text>
<line x1="213.1689453125" y1="258.14301215277777" x2="213.1689453125" y2="264.82400173611114" style="stroke:black; stroke-width:1.4; " />
<text x="209.703125" y="282.6232638888889">4</text>
<line x1="242.8095703125" y1="258.14301215277777" x2="242.8095703125" y2="264.82400173611114" style="stroke:black; stroke-width:1.4; " />
<text x="239.5009765625" y="282.6232638888889">6</text>
<line x1="272.4501953125" y1="258.14301215277777" x2="272.4501953125" y2="264.82400173611114" style="stroke:black; stroke-width:1.4; " />
<text x="269.1484375" y="282.6232638888889">8</text>
<text x="269.1484375" y="282.6232638888889">8</text>
<line x1="311.927734375" y1="261.48350694444446" x2="413.2431640625" y2="261.48350694444446" style="stroke:black; stroke-width:1.4; " />
<line x1="311.927734375" y1="258.14301215277777" x2="311.927734375" y2="264.82400173611114" style="stroke:black; stroke-width:1.4; " />
<text x="304.68505859375" y="282.6232638888889">24</text>
<line x1="332.1908203125" y1="258.14301215277777" x2="332.1908203125" y2="264.82400173611114" style="stroke:black; stroke-width:1.4; " />
<text x="324.801171875" y="282.6232638888889">48</text>
<line x1="352.45390625" y1="258.14301215277777" x2="352.45390625" y2="264.82400173611114" style="stroke:black; stroke-width:1.4; " />
<text x="345.36845703125" y="282.6232638888889">72</text>
<line x1="372.7169921875" y1="258.14301215277777" x2="372.7169921875" y2="264.82400173611114" style="stroke:black; stroke-width:1.4; " />
<text x="365.54267578125" y="282.6232638888889">96</text>
<line x1="392.980078125" y1="258.14301215277777" x2="392.980078125" y2="264.82400173611114" style="stroke:black; stroke-width:1.4; " />
<line x1="413.2431640625" y1="258.14301215277777" x2="413.2431640625" y2="264.82400173611114" style="stroke:black; stroke-width:1.4; " />
<text x="402.66455078125" y="282.6232638888889">144 h</text>
</svg>