<svg width="746.7001953125" height="289.78583767361107" xmlns="http://www.w3.org/2000/svg">
<style>text {font-family: Arial; font-size: 14px ;}</style>
<desc>Trial design autogenerated by td.py V2.0 (Dec-2021), author: Rainer Strotmann</desc><title>ms0039</title><rect x="116.8369140625" y="10" width="18.525390625" height="20.04296875" style="stroke:black;  stroke-width:0; fill:cornsilk;" />
<text x="122.11083984375" y="25.0322265625">S</text>
<rect x="153.8876953125" y="10" width="129.677734375" height="20.04296875" style="stroke:black;  stroke-width:0; fill:cornsilk;" />
<text x="180.36669921875" y="25.0322265625">Treatment A</text>
<rect x="302.0908203125" y="10" width="203.779296875" height="20.04296875" style="stroke:black;  stroke-width:0; fill:cornsilk;" />
<text x="366.00341796875" y="25.0322265625">Treatment B</text>
<rect x="524.3955078125" y="10" width="203.779296875" height="20.04296875" style="stroke:black;  stroke-width:0; fill:cornsilk;" />
<text x="587.826171875" y="25.0322265625">Treatment C</text>
<rect x="116.8369140625" y="33.931857638888886" width="18.525390625" height="20.04296875" style="stroke:black;  stroke-width:0; fill:cornsilk;" />
<rect x="116.8369140625" y="33.931857638888886" width="18.525390625" height="20.04296875" style="stroke:black;  stroke-width:1.4; fill:none;" />
<text x="126.099609375" y="48.964084201388886"></text>
<line x1="135.3623046875" y1="43.953342013888886" x2="153.8876953125" y2="43.953342013888886" style="stroke:black; stroke-width:1.4; " />
<rect x="153.8876953125" y="33.931857638888886" width="129.677734375" height="20.04296875" style="stroke:black;  stroke-width:0; fill:cornsilk;" />
<rect x="153.8876953125" y="33.931857638888886" width="18.525390625" height="20.04296875" style="stroke:black;  stroke-width:0; fill:lightgray;" />
<rect x="153.8876953125" y="33.931857638888886" width="18.525390625" height="20.04296875" style="stroke:black;  stroke-width:1.4; fill:none;" />
<text x="159.458984375" y="48.964084201388886">1</text>
<rect x="172.4130859375" y="33.931857638888886" width="18.525390625" height="20.04296875" style="stroke:black;  stroke-width:1.4; fill:none;" />
<text x="178.35693359375" y="48.964084201388886">2</text>
<rect x="190.9384765625" y="33.931857638888886" width="18.525390625" height="20.04296875" style="stroke:black;  stroke-width:1.4; fill:none;" />
<text x="196.919921875" y="48.964084201388886">3</text>
<rect x="209.4638671875" y="33.931857638888886" width="18.525390625" height="20.04296875" style="stroke:black;  stroke-width:1.4; fill:none;" />
<text x="218.7265625" y="48.964084201388886"></text>
<rect x="227.9892578125" y="33.931857638888886" width="18.525390625" height="20.04296875" style="stroke:black;  stroke-width:1.4; fill:none;" />
<text x="237.251953125" y="48.964084201388886"></text>
<rect x="246.5146484375" y="33.931857638888886" width="18.525390625" height="20.04296875" style="stroke:black;  stroke-width:1.4; fill:none;" />
<text x="255.77734375" y="48.964084201388886"></text>
<rect x="265.0400390625" y="33.931857638888886" width="18.525390625" height="20.04296875" style="stroke:black;  stroke-width:1.4; fill:none;" />
<text x="271.05908203125" y="48.964084201388886">7</text>
<line x1="283.5654296875" y1="43.953342013888886" x2="302.0908203125" y2="43.953342013888886" style="stroke:black; stroke-width:1.4; " />
<rect x="302.0908203125" y="33.931857638888886" width="203.779296875" height="20.04296875" style="stroke:black;  stroke-width:0; fill:cornsilk;" />
<rect x="302.0908203125" y="33.931857638888886" width="18.525390625" height="20.04296875" style="stroke:black;  stroke-width:0; fill:lightgray;" />
<rect x="302.0908203125" y="33.931857638888886" width="18.525390625" height="20.04296875" style="stroke:black;  stroke-width:1.4; fill:none;" />
<text x="307.662109375" y="48.964084201388886">1</text>
<rect x="320.6162109375" y="33.931857638888886" width="18.525390625" height="20.04296875" style="stroke:black;  stroke-width:1.4; fill:none;" />
<text x="329.87890625" y="48.964084201388886"></text>
<rect x="339.1416015625" y="33.931857638888886" width="18.525390625" height="20.04296875" style="stroke:black;  stroke-width:1.4; fill:none;" />
<text x="348.404296875" y="48.964084201388886"></text>
<rect x="357.6669921875" y="33.931857638888886" width="18.525390625" height="20.04296875" style="stroke:black;  stroke-width:1.4; fill:none;" />
<text x="366.9296875" y="48.964084201388886"></text>
<rect x="376.1923828125" y="33.931857638888886" width="18.525390625" height="20.04296875" style="stroke:black;  stroke-width:1.4; fill:none;" />
<text x="382.1328125" y="48.964084201388886">5</text>
<rect x="394.7177734375" y="33.931857638888886" width="18.525390625" height="20.04296875" style="stroke:black;  stroke-width:1.4; fill:none;" />
<text x="400.671875" y="48.964084201388886">6</text>
<rect x="413.2431640625" y="33.931857638888886" width="18.525390625" height="20.04296875" style="stroke:black;  stroke-width:1.4; fill:none;" />
<text x="419.26220703125" y="48.964084201388886">7</text>
<rect x="431.7685546875" y="33.931857638888886" width="18.525390625" height="20.04296875" style="stroke:black;  stroke-width:0; fill:lightgray;" />
<rect x="431.7685546875" y="33.931857638888886" width="18.525390625" height="20.04296875" style="stroke:black;  stroke-width:1.4; fill:none;" />
<text x="437.7294921875" y="48.964084201388886">8</text>
<rect x="450.2939453125" y="33.931857638888886" width="18.525390625" height="20.04296875" style="stroke:black;  stroke-width:1.4; fill:none;" />
<text x="459.556640625" y="48.964084201388886"></text>
<rect x="468.8193359375" y="33.931857638888886" width="18.525390625" height="20.04296875" style="stroke:black;  stroke-width:1.4; fill:none;" />
<text x="478.08203125" y="48.964084201388886"></text>
<rect x="487.3447265625" y="33.931857638888886" width="18.525390625" height="20.04296875" style="stroke:black;  stroke-width:1.4; fill:none;" />
<text x="489.02294921875" y="48.964084201388886">11</text>
<line x1="505.8701171875" y1="43.953342013888886" x2="524.3955078125" y2="43.953342013888886" style="stroke:black; stroke-width:1.4; " />
<rect x="524.3955078125" y="33.931857638888886" width="203.779296875" height="20.04296875" style="stroke:black;  stroke-width:0; fill:cornsilk;" />
<rect x="524.3955078125" y="33.931857638888886" width="18.525390625" height="20.04296875" style="stroke:black;  stroke-width:0; fill:lightgray;" />
<rect x="524.3955078125" y="33.931857638888886" width="18.525390625" height="20.04296875" style="stroke:black;  stroke-width:1.4; fill:none;" />
<text x="529.966796875" y="48.964084201388886">1</text>
<rect x="542.9208984375" y="33.931857638888886" width="18.525390625" height="20.04296875" style="stroke:black;  stroke-width:1.4; fill:none;" />
<text x="552.18359375" y="48.964084201388886"></text>
<rect x="561.4462890625" y="33.931857638888886" width="18.525390625" height="20.04296875" style="stroke:black;  stroke-width:1.4; fill:none;" />
<text x="570.708984375" y="48.964084201388886"></text>
<rect x="579.9716796875" y="33.931857638888886" width="18.525390625" height="20.04296875" style="stroke:black;  stroke-width:1.4; fill:none;" />
<text x="589.234375" y="48.964084201388886"></text>
<rect x="598.4970703125" y="33.931857638888886" width="18.525390625" height="20.04296875" style="stroke:black;  stroke-width:1.4; fill:none;" />
<text x="604.4375" y="48.964084201388886">5</text>
<rect x="617.0224609375" y="33.931857638888886" width="18.525390625" height="20.04296875" style="stroke:black;  stroke-width:1.4; fill:none;" />
<text x="622.9765625" y="48.964084201388886">6</text>
<rect x="635.5478515625" y="33.931857638888886" width="18.525390625" height="20.04296875" style="stroke:black;  stroke-width:1.4; fill:none;" />
<text x="641.56689453125" y="48.964084201388886">7</text>
<rect x="654.0732421875" y="33.931857638888886" width="18.525390625" height="20.04296875" style="stroke:black;  stroke-width:0; fill:lightgray;" />
<rect x="654.0732421875" y="33.931857638888886" width="18.525390625" height="20.04296875" style="stroke:black;  stroke-width:1.4; fill:none;" />
<text x="660.0341796875" y="48.964084201388886">8</text>
<rect x="672.5986328125" y="33.931857638888886" width="18.525390625" height="20.04296875" style="stroke:black;  stroke-width:1.4; fill:none;" />
<text x="681.861328125" y="48.964084201388886"></text>
<rect x="691.1240234375" y="33.931857638888886" width="18.525390625" height="20.04296875" style="stroke:black;  stroke-width:1.4; fill:none;" />
<text x="700.38671875" y="48.964084201388886"></text>
<rect x="709.6494140625" y="33.931857638888886" width="18.525390625" height="20.04296875" style="stroke:black;  stroke-width:1.4; fill:none;" />
<text x="711.32763671875" y="48.964084201388886">11</text>
<rect x="116.8369140625" y="69.53038194444444" width="18.525390625" height="20.04296875" style="stroke:black;  stroke-width:0; fill:cornsilk;" />
<text x="5" y="84.67335069444444">hospitalization</text>
<rect x="153.8876953125" y="69.53038194444444" width="129.677734375" height="20.04296875" style="stroke:black;  stroke-width:0; fill:cornsilk;" />
<rect x="153.8876953125" y="75.54327256944444" width="55.576171875" height="8.0171875" style="stroke:black;  stroke-width:1.4; fill:none;" />
<rect x="302.0908203125" y="69.53038194444444" width="203.779296875" height="20.04296875" style="stroke:black;  stroke-width:0; fill:cornsilk;" />
<rect x="376.1923828125" y="75.54327256944444" width="55.576171875" height="8.0171875" style="stroke:black;  stroke-width:1.4; fill:none;" />
<rect x="524.3955078125" y="69.53038194444444" width="203.779296875" height="20.04296875" style="stroke:black;  stroke-width:0; fill:cornsilk;" />
<rect x="598.4970703125" y="75.54327256944444" width="55.576171875" height="8.0171875" style="stroke:black;  stroke-width:1.4; fill:none;" />
<rect x="116.8369140625" y="97.35112847222223" width="18.525390625" height="20.04296875" style="stroke:black;  stroke-width:0; fill:cornsilk;" />
<text x="5" y="112.49409722222222">tepotinib</text>
<rect x="153.8876953125" y="97.35112847222223" width="129.677734375" height="20.04296875" style="stroke:black;  stroke-width:0; fill:cornsilk;" />
<path d="M162.7896171875, 107.37261284722223 L162.7896171875, 101.35972222222223 L163.5111640625, 101.35972222222223 L163.5111640625, 107.37261284722223 L165.405224609375, 107.37261284722223 L163.150390625, 113.38550347222223 L160.895556640625, 107.37261284722223 L162.7896171875, 107.37261284722223 Z" style="stroke: black; fill: black; stroke-width:1.4; " /><rect x="302.0908203125" y="97.35112847222223" width="203.779296875" height="20.04296875" style="stroke:black;  stroke-width:0; fill:cornsilk;" />
<path d="M385.0943046875, 107.37261284722223 L385.0943046875, 101.35972222222223 L385.8158515625, 101.35972222222223 L385.8158515625, 107.37261284722223 L387.709912109375, 107.37261284722223 L385.455078125, 113.38550347222223 L383.200244140625, 107.37261284722223 L385.0943046875, 107.37261284722223 Z" style="stroke: black; fill: black; stroke-width:1.4; " /><rect x="524.3955078125" y="97.35112847222223" width="203.779296875" height="20.04296875" style="stroke:black;  stroke-width:0; fill:cornsilk;" />
<path d="M607.3989921875, 107.37261284722223 L607.3989921875, 101.35972222222223 L608.1205390625, 101.35972222222223 L608.1205390625, 107.37261284722223 L610.014599609375, 107.37261284722223 L607.759765625, 113.38550347222223 L605.504931640625, 107.37261284722223 L607.3989921875, 107.37261284722223 Z" style="stroke: black; fill: black; stroke-width:1.4; " /><rect x="116.8369140625" y="125.171875" width="18.525390625" height="20.04296875" style="stroke:black;  stroke-width:0; fill:cornsilk;" />
<text x="5" y="140.31484375">omeprazole</text>
<rect x="153.8876953125" y="125.171875" width="129.677734375" height="20.04296875" style="stroke:black;  stroke-width:0; fill:cornsilk;" />
<rect x="302.0908203125" y="125.171875" width="203.779296875" height="20.04296875" style="stroke:black;  stroke-width:0; fill:cornsilk;" />
<path d="M310.9927421875, 135.193359375 L310.9927421875, 129.18046875 L311.7142890625, 129.18046875 L311.7142890625, 135.193359375 L313.608349609375, 135.193359375 L311.353515625, 141.20625 L309.098681640625, 135.193359375 L310.9927421875, 135.193359375 Z" style="stroke: black; fill: black; stroke-width:1.4; " /><path d="M329.5181328125, 135.193359375 L329.5181328125, 129.18046875 L330.2396796875, 129.18046875 L330.2396796875, 135.193359375 L332.133740234375, 135.193359375 L329.87890625, 141.20625 L327.624072265625, 135.193359375 L329.5181328125, 135.193359375 Z" style="stroke: black; fill: black; stroke-width:1.4; " /><path d="M348.0435234375, 135.193359375 L348.0435234375, 129.18046875 L348.7650703125, 129.18046875 L348.7650703125, 135.193359375 L350.659130859375, 135.193359375 L348.404296875, 141.20625 L346.149462890625, 135.193359375 L348.0435234375, 135.193359375 Z" style="stroke: black; fill: black; stroke-width:1.4; " /><path d="M366.5689140625, 135.193359375 L366.5689140625, 129.18046875 L367.2904609375, 129.18046875 L367.2904609375, 135.193359375 L369.184521484375, 135.193359375 L366.9296875, 141.20625 L364.674853515625, 135.193359375 L366.5689140625, 135.193359375 Z" style="stroke: black; fill: black; stroke-width:1.4; " /><path d="M385.0943046875, 135.193359375 L385.0943046875, 129.18046875 L385.8158515625, 129.18046875 L385.8158515625, 135.193359375 L387.709912109375, 135.193359375 L385.455078125, 141.20625 L383.200244140625, 135.193359375 L385.0943046875, 135.193359375 Z" style="stroke: black; fill: black; stroke-width:1.4; " /><rect x="524.3955078125" y="125.171875" width="203.779296875" height="20.04296875" style="stroke:black;  stroke-width:0; fill:cornsilk;" />
<path d="M533.2974296875, 135.193359375 L533.2974296875, 129.18046875 L534.0189765625, 129.18046875 L534.0189765625, 135.193359375 L535.913037109375, 135.193359375 L533.658203125, 141.20625 L531.403369140625, 135.193359375 L533.2974296875, 135.193359375 Z" style="stroke: black; fill: black; stroke-width:1.4; " /><path d="M551.8228203125, 135.193359375 L551.8228203125, 129.18046875 L552.5443671875, 129.18046875 L552.5443671875, 135.193359375 L554.438427734375, 135.193359375 L552.18359375, 141.20625 L549.928759765625, 135.193359375 L551.8228203125, 135.193359375 Z" style="stroke: black; fill: black; stroke-width:1.4; " /><path d="M570.3482109375, 135.193359375 L570.3482109375, 129.18046875 L571.0697578125, 129.18046875 L571.0697578125, 135.193359375 L572.963818359375, 135.193359375 L570.708984375, 141.20625 L568.454150390625, 135.193359375 L570.3482109375, 135.193359375 Z" style="stroke: black; fill: black; stroke-width:1.4; " /><path d="M588.8736015625, 135.193359375 L588.8736015625, 129.18046875 L589.5951484375, 129.18046875 L589.5951484375, 135.193359375 L591.489208984375, 135.193359375 L589.234375, 141.20625 L586.979541015625, 135.193359375 L588.8736015625, 135.193359375 Z" style="stroke: black; fill: black; stroke-width:1.4; " /><path d="M607.3989921875, 135.193359375 L607.3989921875, 129.18046875 L608.1205390625, 129.18046875 L608.1205390625, 135.193359375 L610.014599609375, 135.193359375 L607.759765625, 141.20625 L605.504931640625, 135.193359375 L607.3989921875, 135.193359375 Z" style="stroke: black; fill: black; stroke-width:1.4; " /><rect x="116.8369140625" y="152.99262152777777" width="18.525390625" height="20.04296875" style="stroke:black;  stroke-width:0; fill:cornsilk;" />
<text x="5" y="167.15668402777777">food</text>
<rect x="153.8876953125" y="152.99262152777777" width="129.677734375" height="20.04296875" style="stroke:black;  stroke-width:0; fill:cornsilk;" />
<circle cx="163.150390625" cy="163.01410590277777" r="4.63134765625" style="stroke:black;  stroke-width:1.2; fill:black;"/>
<rect x="302.0908203125" y="152.99262152777777" width="203.779296875" height="20.04296875" style="stroke:black;  stroke-width:0; fill:cornsilk;" />
<circle cx="385.455078125" cy="163.01410590277777" r="4.63134765625" style="stroke:black;  stroke-width:1.2; fill:none;"/>
<rect x="524.3955078125" y="152.99262152777777" width="203.779296875" height="20.04296875" style="stroke:black;  stroke-width:0; fill:cornsilk;" />
<circle cx="607.759765625" cy="163.01410590277777" r="4.63134765625" style="stroke:black;  stroke-width:1.2; fill:black;"/>
<rect x="116.8369140625" y="180.81336805555554" width="18.525390625" height="20.04296875" style="stroke:black;  stroke-width:0; fill:cornsilk;" />
<text x="5" y="196.02196180555555">PK sampling</text>
<rect x="153.8876953125" y="180.81336805555554" width="129.677734375" height="20.04296875" style="stroke:black;  stroke-width:0; fill:cornsilk;" />
<path d="M156.66650390625, 194.59290907118054 L156.66650390625, 187.07679578993054 L169.63427734375, 187.07679578993054 L169.63427734375, 194.59290907118054 L156.66650390625, 194.59290907118054 Z" style="stroke: black; fill: none; stroke-width:1.4; " /><path d="M178.16826171875, 190.83485243055554 L181.67578125, 183.81981336805555 L185.18330078125, 190.83485243055554 L181.67578125, 197.84989149305554 L178.16826171875, 190.83485243055554 Z" style="stroke: black; fill: none; stroke-width:1.4; " /><path d="M196.69365234375, 190.83485243055554 L200.201171875, 183.81981336805555 L203.70869140625, 190.83485243055554 L200.201171875, 197.84989149305554 L196.69365234375, 190.83485243055554 Z" style="stroke: black; fill: none; stroke-width:1.4; " /><path d="M215.21904296875, 190.83485243055554 L218.7265625, 183.81981336805555 L222.23408203125, 190.83485243055554 L218.7265625, 197.84989149305554 L215.21904296875, 190.83485243055554 Z" style="stroke: black; fill: none; stroke-width:1.4; " /><path d="M233.74443359375, 190.83485243055554 L237.251953125, 183.81981336805555 L240.75947265625, 190.83485243055554 L237.251953125, 197.84989149305554 L233.74443359375, 190.83485243055554 Z" style="stroke: black; fill: none; stroke-width:1.4; " /><path d="M252.26982421875, 190.83485243055554 L255.77734375, 183.81981336805555 L259.28486328125, 190.83485243055554 L255.77734375, 197.84989149305554 L252.26982421875, 190.83485243055554 Z" style="stroke: black; fill: none; stroke-width:1.4; " /><path d="M270.79521484375, 190.83485243055554 L274.302734375, 183.81981336805555 L277.81025390625, 190.83485243055554 L274.302734375, 197.84989149305554 L270.79521484375, 190.83485243055554 Z" style="stroke: black; fill: none; stroke-width:1.4; " /><rect x="302.0908203125" y="180.81336805555554" width="203.779296875" height="20.04296875" style="stroke:black;  stroke-width:0; fill:cornsilk;" />
<path d="M378.97119140625, 194.59290907118054 L378.97119140625, 187.07679578993054 L391.93896484375, 187.07679578993054 L391.93896484375, 194.59290907118054 L378.97119140625, 194.59290907118054 Z" style="stroke: black; fill: none; stroke-width:1.4; " /><path d="M400.47294921875, 190.83485243055554 L403.98046875, 183.81981336805555 L407.48798828125, 190.83485243055554 L403.98046875, 197.84989149305554 L400.47294921875, 190.83485243055554 Z" style="stroke: black; fill: none; stroke-width:1.4; " /><path d="M418.99833984375, 190.83485243055554 L422.505859375, 183.81981336805555 L426.01337890625, 190.83485243055554 L422.505859375, 197.84989149305554 L418.99833984375, 190.83485243055554 Z" style="stroke: black; fill: none; stroke-width:1.4; " /><path d="M437.52373046875, 190.83485243055554 L441.03125, 183.81981336805555 L444.53876953125, 190.83485243055554 L441.03125, 197.84989149305554 L437.52373046875, 190.83485243055554 Z" style="stroke: black; fill: none; stroke-width:1.4; " /><path d="M456.04912109375, 190.83485243055554 L459.556640625, 183.81981336805555 L463.06416015625, 190.83485243055554 L459.556640625, 197.84989149305554 L456.04912109375, 190.83485243055554 Z" style="stroke: black; fill: none; stroke-width:1.4; " /><path d="M474.57451171875, 190.83485243055554 L478.08203125, 183.81981336805555 L481.58955078125, 190.83485243055554 L478.08203125, 197.84989149305554 L474.57451171875, 190.83485243055554 Z" style="stroke: black; fill: none; stroke-width:1.4; " /><path d="M493.09990234375, 190.83485243055554 L496.607421875, 183.81981336805555 L500.11494140625, 190.83485243055554 L496.607421875, 197.84989149305554 L493.09990234375, 190.83485243055554 Z" style="stroke: black; fill: none; stroke-width:1.4; " /><rect x="524.3955078125" y="180.81336805555554" width="203.779296875" height="20.04296875" style="stroke:black;  stroke-width:0; fill:cornsilk;" />
<path d="M601.27587890625, 194.59290907118054 L601.27587890625, 187.07679578993054 L614.24365234375, 187.07679578993054 L614.24365234375, 194.59290907118054 L601.27587890625, 194.59290907118054 Z" style="stroke: black; fill: none; stroke-width:1.4; " /><path d="M622.77763671875, 190.83485243055554 L626.28515625, 183.81981336805555 L629.79267578125, 190.83485243055554 L626.28515625, 197.84989149305554 L622.77763671875, 190.83485243055554 Z" style="stroke: black; fill: none; stroke-width:1.4; " /><path d="M641.30302734375, 190.83485243055554 L644.810546875, 183.81981336805555 L648.31806640625, 190.83485243055554 L644.810546875, 197.84989149305554 L641.30302734375, 190.83485243055554 Z" style="stroke: black; fill: none; stroke-width:1.4; " /><path d="M659.82841796875, 190.83485243055554 L663.3359375, 183.81981336805555 L666.84345703125, 190.83485243055554 L663.3359375, 197.84989149305554 L659.82841796875, 190.83485243055554 Z" style="stroke: black; fill: none; stroke-width:1.4; " /><path d="M678.35380859375, 190.83485243055554 L681.861328125, 183.81981336805555 L685.36884765625, 190.83485243055554 L681.861328125, 197.84989149305554 L678.35380859375, 190.83485243055554 Z" style="stroke: black; fill: none; stroke-width:1.4; " /><path d="M696.87919921875, 190.83485243055554 L700.38671875, 183.81981336805555 L703.89423828125, 190.83485243055554 L700.38671875, 197.84989149305554 L696.87919921875, 190.83485243055554 Z" style="stroke: black; fill: none; stroke-width:1.4; " /><path d="M715.40458984375, 190.83485243055554 L718.912109375, 183.81981336805555 L722.41962890625, 190.83485243055554 L718.912109375, 197.84989149305554 L715.40458984375, 190.83485243055554 Z" style="stroke: black; fill: none; stroke-width:1.4; " /><rect x="153.8876953125" y="208.63411458333331" width="129.677734375" height="13.361979166666666" style="stroke:black;  stroke-width:0; fill:cornsilk;" />
<path d="M153.8876953125, 208.63411458333331 A6.680989583333333, 6.680989583333333, 0, 0 0 160.56868489583334, 215.31510416666666 L212.04557291666666, 215.31510416666666 A6.680989583333333, 6.680989583333333 0, 0 1 218.7265625, 221.99609374999997 A6.680989583333333, 6.680989583333333, 0, 0 1 225.40755208333334, 215.31510416666666 L276.8844401041667, 215.31510416666666 A6.680989583333333, 6.680989583333333 0, 0 0 283.5654296875, 208.63411458333331 " style="stroke: black; stroke-width:1.4; fill:none" /><rect x="153.8876953125" y="229.77387152777777" width="129.677734375" height="52.234188368055555" style="stroke:black;  stroke-width:0; fill:cornsilk;" />
<path d="M150.38017578125, 239.79535590277777 L153.8876953125, 232.78031684027778 L157.39521484375, 239.79535590277777 L153.8876953125, 246.81039496527777 L150.38017578125, 239.79535590277777 Z" style="stroke: black; fill: none; stroke-width:1.4; " /><path d="M157.79033203125, 239.79535590277777 L161.2978515625, 232.78031684027778 L164.80537109375, 239.79535590277777 L161.2978515625, 246.81039496527777 L157.79033203125, 239.79535590277777 Z" style="stroke: black; fill: none; stroke-width:1.4; " /><path d="M165.20048828125, 239.79535590277777 L168.7080078125, 232.78031684027778 L172.21552734375, 239.79535590277777 L168.7080078125, 246.81039496527777 L165.20048828125, 239.79535590277777 Z" style="stroke: black; fill: none; stroke-width:1.4; " /><path d="M180.02080078125, 239.79535590277777 L183.5283203125, 232.78031684027778 L187.03583984375, 239.79535590277777 L183.5283203125, 246.81039496527777 L180.02080078125, 239.79535590277777 Z" style="stroke: black; fill: none; stroke-width:1.4; " /><path d="M194.84111328125, 239.79535590277777 L198.3486328125, 232.78031684027778 L201.85615234375, 239.79535590277777 L198.3486328125, 246.81039496527777 L194.84111328125, 239.79535590277777 Z" style="stroke: black; fill: none; stroke-width:1.4; " /><path d="M209.66142578125, 239.79535590277777 L213.1689453125, 232.78031684027778 L216.67646484375, 239.79535590277777 L213.1689453125, 246.81039496527777 L209.66142578125, 239.79535590277777 Z" style="stroke: black; fill: none; stroke-width:1.4; " /><path d="M239.30205078125, 239.79535590277777 L242.8095703125, 232.78031684027778 L246.31708984375, 239.79535590277777 L242.8095703125, 246.81039496527777 L239.30205078125, 239.79535590277777 Z" style="stroke: black; fill: none; stroke-width:1.4; " /><path d="M268.94267578125, 239.79535590277777 L272.4501953125, 232.78031684027778 L275.95771484375, 239.79535590277777 L272.4501953125, 246.81039496527777 L268.94267578125, 239.79535590277777 Z" style="stroke: black; fill: none; stroke-width:1.4; " /><path d="M308.42021484375, 239.79535590277777 L311.927734375, 232.78031684027778 L315.43525390625, 239.79535590277777 L311.927734375, 246.81039496527777 L308.42021484375, 239.79535590277777 Z" style="stroke: black; fill: none; stroke-width:1.4; " /><path d="M328.68330078125, 239.79535590277777 L332.1908203125, 232.78031684027778 L335.69833984375003, 239.79535590277777 L332.1908203125, 246.81039496527777 L328.68330078125, 239.79535590277777 Z" style="stroke: black; fill: none; stroke-width:1.4; " /><path d="M348.94638671875, 239.79535590277777 L352.45390625, 232.78031684027778 L355.96142578125, 239.79535590277777 L352.45390625, 246.81039496527777 L348.94638671875, 239.79535590277777 Z" style="stroke: black; fill: none; stroke-width:1.4; " /><path d="M369.20947265625, 239.79535590277777 L372.7169921875, 232.78031684027778 L376.22451171875, 239.79535590277777 L372.7169921875, 246.81039496527777 L369.20947265625, 239.79535590277777 Z" style="stroke: black; fill: none; stroke-width:1.4; " /><path d="M389.47255859374997, 239.79535590277777 L392.980078125, 232.78031684027778 L396.48759765625, 239.79535590277777 L392.980078125, 246.81039496527777 L389.47255859374997, 239.79535590277777 Z" style="stroke: black; fill: none; stroke-width:1.4; " /><path d="M409.73564453125, 239.79535590277777 L413.2431640625, 232.78031684027778 L416.75068359375, 239.79535590277777 L413.2431640625, 246.81039496527777 L409.73564453125, 239.79535590277777 Z" style="stroke: black; fill: none; stroke-width:1.4; " /><line x1="153.8876953125" y1="257.59461805555554" x2="302.0908203125" y2="257.59461805555554" style="stroke:black; stroke-width:1.4; " />
<line x1="153.8876953125" y1="254.25412326388889" x2="153.8876953125" y2="260.93511284722223" style="stroke:black; stroke-width:1.4; " />
<text x="150.6201171875" y="278.734375">0</text>
<line x1="183.5283203125" y1="254.25412326388889" x2="183.5283203125" y2="260.93511284722223" style="stroke:black; stroke-width:1.4; " />
<text x="180.20947265625" y="278.734375">2</text>
<line x1="213.1689453125" y1="254.25412326388889" x2="213.1689453125" y2="260.93511284722223" style="stroke:black; stroke-width:1.4; " />
<text x="209.703125" y="278.734375">4</text>
<line x1="242.8095703125" y1="254.25412326388889" x2="242.8095703125" y2="260.93511284722223" style="stroke:black; stroke-width:1.4; " />
<text x="239.5009765625" y="278.734375">6</text>
<line x1="272.4501953125" y1="254.25412326388889" x2="272.4501953125" y2="260.93511284722223" style="stroke:black; stroke-width:1.4; " />
<text x="269.1484375" y="278.734375">8</text>
<line x1="311.927734375" y1="257.59461805555554" x2="413.2431640625" y2="257.59461805555554" style="stroke:black; stroke-width:1.4; " />
<line x1="311.927734375" y1="254.25412326388889" x2="311.927734375" y2="260.93511284722223" style="stroke:black; stroke-width:1.4; " />
<text x="304.68505859375" y="278.734375">24</text>
<line x1="332.1908203125" y1="254.25412326388889" x2="332.1908203125" y2="260.93511284722223" style="stroke:black; stroke-width:1.4; " />
<text x="324.801171875" y="278.734375">48</text>
<line x1="352.45390625" y1="254.25412326388889" x2="352.45390625" y2="260.93511284722223" style="stroke:black; stroke-width:1.4; " />
<text x="345.36845703125" y="278.734375">72</text>
<line x1="372.7169921875" y1="254.25412326388889" x2="372.7169921875" y2="260.93511284722223" style="stroke:black; stroke-width:1.4; " />
<text x="365.54267578125" y="278.734375">96</text>
<line x1="392.980078125" y1="254.25412326388889" x2="392.980078125" y2="260.93511284722223" style="stroke:black; stroke-width:1.4; " />
<text x="382.398046875" y="278.734375">120</text>
<line x1="413.2431640625" y1="254.25412326388889" x2="413.2431640625" y2="260.93511284722223" style="stroke:black; stroke-width:1.4; " />
</svg>