<svg width="682.0299479166667" height="208.63411458333331" xmlns="http://www.w3.org/2000/svg">
<style>text {font-family: Arial; font-size: 14px ;}</style>
<desc>Trial design autogenerated by td.py V2.0 (Dec-2021), author: Rainer Strotmann</desc><title>ms0051</title><text x="211.81884765625" y="25.0322265625">S</text>
<text x="268.7496744791667" y="25.0322265625">Period 1</text>
<text x="468.525390625" y="25.0322265625">Period 2</text>
<text x="644.1041666666667" y="25.0322265625">F/U</text>
<rect x="206.544921875" y="33.931857638888886" width="18.525390625" height="20.04296875" style="stroke:black;  stroke-width:1.4; fill:none;" />
<text x="215.8076171875" y="48.964084201388886"></text>
<line x1="225.0703125" y1="43.953342013888886" x2="243.595703125" y2="43.953342013888886" style="stroke:black; stroke-width:1.4; " />
<rect x="243.595703125" y="33.931857638888886" width="18.525390625" height="20.04296875" style="stroke:black;  stroke-width:1.4; fill:none;" />
<text x="248.1416015625" y="48.964084201388886">-1</text>
<rect x="262.12109375" y="33.931857638888886" width="18.525390625" height="20.04296875" style="stroke:black;  stroke-width:0; fill:lightgray;" />
<rect x="262.12109375" y="33.931857638888886" width="18.525390625" height="20.04296875" style="stroke:black;  stroke-width:1.4; fill:none;" />
<text x="267.6923828125" y="48.964084201388886">1</text>
<line x1="280.646484375" y1="33.931857638888886" x2="286.8216145833333" y2="33.931857638888886" style="stroke:black; stroke-width:1.4; stroke-dasharray: 4.199999999999999 4.199999999999999" />
<line x1="280.646484375" y1="53.974826388888886" x2="286.8216145833333" y2="53.974826388888886" style="stroke:black; stroke-width:1.4; stroke-dasharray: 4.199999999999999 4.199999999999999" />
<line x1="286.8216145833333" y1="33.931857638888886" x2="292.99674479166663" y2="33.931857638888886" style="stroke:black; stroke-width:1.4; stroke-dasharray: 4.199999999999999 4.199999999999999" />
<line x1="286.8216145833333" y1="53.974826388888886" x2="292.99674479166663" y2="53.974826388888886" style="stroke:black; stroke-width:1.4; stroke-dasharray: 4.199999999999999 4.199999999999999" />
<rect x="292.99674479166663" y="33.931857638888886" width="18.525390625" height="20.04296875" style="stroke:black;  stroke-width:1.4; fill:none;" />
<text x="298.79361979166663" y="48.964084201388886">4</text>
<line x1="311.52213541666663" y1="33.931857638888886" x2="317.69726562499994" y2="33.931857638888886" style="stroke:black; stroke-width:1.4; stroke-dasharray: 4.199999999999999 4.199999999999999" />
<line x1="311.52213541666663" y1="53.974826388888886" x2="317.69726562499994" y2="53.974826388888886" style="stroke:black; stroke-width:1.4; stroke-dasharray: 4.199999999999999 4.199999999999999" />
<line x1="317.69726562499994" y1="33.931857638888886" x2="323.87239583333326" y2="33.931857638888886" style="stroke:black; stroke-width:1.4; stroke-dasharray: 4.199999999999999 4.199999999999999" />
<line x1="317.69726562499994" y1="53.974826388888886" x2="323.87239583333326" y2="53.974826388888886" style="stroke:black; stroke-width:1.4; stroke-dasharray: 4.199999999999999 4.199999999999999" />
<rect x="323.87239583333326" y="33.931857638888886" width="18.525390625" height="20.04296875" style="stroke:black;  stroke-width:1.4; fill:none;" />
<text x="329.89143880208326" y="48.964084201388886">7</text>
<line x1="342.3977864583333" y1="43.953342013888886" x2="360.9231770833333" y2="43.953342013888886" style="stroke:black; stroke-width:1.4; " />
<rect x="360.9231770833333" y="33.931857638888886" width="18.525390625" height="20.04296875" style="stroke:black;  stroke-width:0; fill:lightgray;" />
<rect x="360.9231770833333" y="33.931857638888886" width="18.525390625" height="20.04296875" style="stroke:black;  stroke-width:1.4; fill:none;" />
<text x="366.8841145833333" y="48.964084201388886">8</text>
<rect x="379.4485677083333" y="33.931857638888886" width="18.525390625" height="20.04296875" style="stroke:black;  stroke-width:1.4; fill:none;" />
<text x="385.4163411458333" y="48.964084201388886">9</text>
<rect x="397.9739583333333" y="33.931857638888886" width="18.525390625" height="20.04296875" style="stroke:black;  stroke-width:1.4; fill:none;" />
<text x="398.7019856770833" y="48.964084201388886">10</text>
<rect x="416.4993489583333" y="33.931857638888886" width="18.525390625" height="20.04296875" style="stroke:black;  stroke-width:1.4; fill:none;" />
<text x="418.1775716145833" y="48.964084201388886">11</text>
<rect x="435.0247395833333" y="33.931857638888886" width="18.525390625" height="20.04296875" style="stroke:black;  stroke-width:1.4; fill:none;" />
<text x="435.7869466145833" y="48.964084201388886">12</text>
<line x1="453.5501302083333" y1="33.931857638888886" x2="459.72526041666663" y2="33.931857638888886" style="stroke:black; stroke-width:1.4; stroke-dasharray: 4.199999999999999 4.199999999999999" />
<line x1="453.5501302083333" y1="53.974826388888886" x2="459.72526041666663" y2="53.974826388888886" style="stroke:black; stroke-width:1.4; stroke-dasharray: 4.199999999999999 4.199999999999999" />
<text x="456.6376953125" y="48.964084201388886"></text>
<line x1="459.72526041666663" y1="33.931857638888886" x2="465.90039062499994" y2="33.931857638888886" style="stroke:black; stroke-width:1.4; stroke-dasharray: 4.199999999999999 4.199999999999999" />
<line x1="459.72526041666663" y1="53.974826388888886" x2="465.90039062499994" y2="53.974826388888886" style="stroke:black; stroke-width:1.4; stroke-dasharray: 4.199999999999999 4.199999999999999" />
<text x="462.8128255208333" y="48.964084201388886"></text>
<rect x="465.90039062499994" y="33.931857638888886" width="6.175130208333333" height="20.04296875" style="stroke:black;  stroke-width:0; fill:lightgray;" />
<line x1="465.90039062499994" y1="33.931857638888886" x2="472.07552083333326" y2="33.931857638888886" style="stroke:black; stroke-width:1.4; stroke-dasharray: 4.199999999999999 4.199999999999999" />
<line x1="465.90039062499994" y1="53.974826388888886" x2="472.07552083333326" y2="53.974826388888886" style="stroke:black; stroke-width:1.4; stroke-dasharray: 4.199999999999999 4.199999999999999" />
<line x1="472.07552083333326" y1="33.931857638888886" x2="478.2506510416666" y2="33.931857638888886" style="stroke:black; stroke-width:1.4; stroke-dasharray: 4.199999999999999 4.199999999999999" />
<line x1="472.07552083333326" y1="53.974826388888886" x2="478.2506510416666" y2="53.974826388888886" style="stroke:black; stroke-width:1.4; stroke-dasharray: 4.199999999999999 4.199999999999999" />
<text x="475.16308593749994" y="48.964084201388886"></text>
<line x1="478.2506510416666" y1="33.931857638888886" x2="484.4257812499999" y2="33.931857638888886" style="stroke:black; stroke-width:1.4; stroke-dasharray: 4.199999999999999 4.199999999999999" />
<line x1="478.2506510416666" y1="53.974826388888886" x2="484.4257812499999" y2="53.974826388888886" style="stroke:black; stroke-width:1.4; stroke-dasharray: 4.199999999999999 4.199999999999999" />
<text x="481.33821614583326" y="48.964084201388886"></text>
<line x1="484.4257812499999" y1="33.931857638888886" x2="490.6009114583332" y2="33.931857638888886" style="stroke:black; stroke-width:1.4; stroke-dasharray: 4.199999999999999 4.199999999999999" />
<line x1="484.4257812499999" y1="53.974826388888886" x2="490.6009114583332" y2="53.974826388888886" style="stroke:black; stroke-width:1.4; stroke-dasharray: 4.199999999999999 4.199999999999999" />
<text x="487.5133463541666" y="48.964084201388886"></text>
<line x1="490.6009114583332" y1="33.931857638888886" x2="496.7760416666665" y2="33.931857638888886" style="stroke:black; stroke-width:1.4; stroke-dasharray: 4.199999999999999 4.199999999999999" />
<line x1="490.6009114583332" y1="53.974826388888886" x2="496.7760416666665" y2="53.974826388888886" style="stroke:black; stroke-width:1.4; stroke-dasharray: 4.199999999999999 4.199999999999999" />
<text x="493.6884765624999" y="48.964084201388886"></text>
<line x1="496.7760416666665" y1="33.931857638888886" x2="502.95117187499983" y2="33.931857638888886" style="stroke:black; stroke-width:1.4; stroke-dasharray: 4.199999999999999 4.199999999999999" />
<line x1="496.7760416666665" y1="53.974826388888886" x2="502.95117187499983" y2="53.974826388888886" style="stroke:black; stroke-width:1.4; stroke-dasharray: 4.199999999999999 4.199999999999999" />
<text x="499.8636067708332" y="48.964084201388886"></text>
<line x1="502.95117187499983" y1="33.931857638888886" x2="509.12630208333314" y2="33.931857638888886" style="stroke:black; stroke-width:1.4; stroke-dasharray: 4.199999999999999 4.199999999999999" />
<line x1="502.95117187499983" y1="53.974826388888886" x2="509.12630208333314" y2="53.974826388888886" style="stroke:black; stroke-width:1.4; stroke-dasharray: 4.199999999999999 4.199999999999999" />
<text x="506.0387369791665" y="48.964084201388886"></text>
<rect x="509.12630208333314" y="33.931857638888886" width="6.175130208333333" height="20.04296875" style="stroke:black;  stroke-width:0; fill:lightgray;" />
<line x1="509.12630208333314" y1="33.931857638888886" x2="515.3014322916665" y2="33.931857638888886" style="stroke:black; stroke-width:1.4; stroke-dasharray: 4.199999999999999 4.199999999999999" />
<line x1="509.12630208333314" y1="53.974826388888886" x2="515.3014322916665" y2="53.974826388888886" style="stroke:black; stroke-width:1.4; stroke-dasharray: 4.199999999999999 4.199999999999999" />
<line x1="515.3014322916665" y1="33.931857638888886" x2="521.4765624999999" y2="33.931857638888886" style="stroke:black; stroke-width:1.4; stroke-dasharray: 4.199999999999999 4.199999999999999" />
<line x1="515.3014322916665" y1="53.974826388888886" x2="521.4765624999999" y2="53.974826388888886" style="stroke:black; stroke-width:1.4; stroke-dasharray: 4.199999999999999 4.199999999999999" />
<text x="518.3889973958331" y="48.964084201388886"></text>
<line x1="521.4765624999999" y1="33.931857638888886" x2="527.6516927083333" y2="33.931857638888886" style="stroke:black; stroke-width:1.4; stroke-dasharray: 4.199999999999999 4.199999999999999" />
<line x1="521.4765624999999" y1="53.974826388888886" x2="527.6516927083333" y2="53.974826388888886" style="stroke:black; stroke-width:1.4; stroke-dasharray: 4.199999999999999 4.199999999999999" />
<text x="524.5641276041665" y="48.964084201388886"></text>
<rect x="527.6516927083333" y="33.931857638888886" width="18.525390625" height="20.04296875" style="stroke:black;  stroke-width:1.4; fill:none;" />
<text x="529.6136067708333" y="48.964084201388886">25</text>
<rect x="546.1770833333333" y="33.931857638888886" width="18.525390625" height="20.04296875" style="stroke:black;  stroke-width:1.4; fill:none;" />
<text x="548.1800130208333" y="48.964084201388886">26</text>
<line x1="564.7024739583333" y1="33.931857638888886" x2="570.8776041666666" y2="33.931857638888886" style="stroke:black; stroke-width:1.4; stroke-dasharray: 4.199999999999999 4.199999999999999" />
<line x1="564.7024739583333" y1="53.974826388888886" x2="570.8776041666666" y2="53.974826388888886" style="stroke:black; stroke-width:1.4; stroke-dasharray: 4.199999999999999 4.199999999999999" />
<line x1="570.8776041666666" y1="33.931857638888886" x2="577.052734375" y2="33.931857638888886" style="stroke:black; stroke-width:1.4; stroke-dasharray: 4.199999999999999 4.199999999999999" />
<line x1="570.8776041666666" y1="53.974826388888886" x2="577.052734375" y2="53.974826388888886" style="stroke:black; stroke-width:1.4; stroke-dasharray: 4.199999999999999 4.199999999999999" />
<rect x="577.052734375" y="33.931857638888886" width="18.525390625" height="20.04296875" style="stroke:black;  stroke-width:0; fill:lightgray;" />
<rect x="577.052734375" y="33.931857638888886" width="18.525390625" height="20.04296875" style="stroke:black;  stroke-width:1.4; fill:none;" />
<text x="579.0419921875" y="48.964084201388886">29</text>
<line x1="595.578125" y1="33.931857638888886" x2="601.7532552083334" y2="33.931857638888886" style="stroke:black; stroke-width:1.4; stroke-dasharray: 4.199999999999999 4.199999999999999" />
<line x1="595.578125" y1="53.974826388888886" x2="601.7532552083334" y2="53.974826388888886" style="stroke:black; stroke-width:1.4; stroke-dasharray: 4.199999999999999 4.199999999999999" />
<line x1="601.7532552083334" y1="33.931857638888886" x2="607.9283854166667" y2="33.931857638888886" style="stroke:black; stroke-width:1.4; stroke-dasharray: 4.199999999999999 4.199999999999999" />
<line x1="601.7532552083334" y1="53.974826388888886" x2="607.9283854166667" y2="53.974826388888886" style="stroke:black; stroke-width:1.4; stroke-dasharray: 4.199999999999999 4.199999999999999" />
<rect x="607.9283854166667" y="33.931857638888886" width="18.525390625" height="20.04296875" style="stroke:black;  stroke-width:1.4; fill:none;" />
<text x="610.0680338541667" y="48.964084201388886">32</text>
<line x1="626.4537760416667" y1="43.953342013888886" x2="644.9791666666667" y2="43.953342013888886" style="stroke:black; stroke-width:1.4; " />
<rect x="644.9791666666667" y="33.931857638888886" width="18.525390625" height="20.04296875" style="stroke:black;  stroke-width:1.4; fill:none;" />
<text x="647.0572916666667" y="48.964084201388886">39</text>
<text x="5" y="84.67335069444444">hospitalization</text>
<rect x="243.595703125" y="75.54327256944444" width="67.92643229166663" height="8.0171875" style="stroke:black;  stroke-width:1.4; fill:none;" />
<rect x="527.6516927083333" y="75.54327256944444" width="67.92643229166674" height="8.0171875" style="stroke:black;  stroke-width:1.4; fill:none;" />
<text x="5" y="112.49409722222222">tepotinib</text>
<path d="M271.023015625, 107.37261284722223 L271.023015625, 101.35972222222223 L271.7445625, 101.35972222222223 L271.7445625, 107.37261284722223 L273.638623046875, 107.37261284722223 L271.3837890625, 113.38550347222223 L269.128955078125, 107.37261284722223 L271.023015625, 107.37261284722223 Z" style="stroke: black; fill: black; stroke-width:1.4; " /><path d="M555.0790052083332, 107.37261284722223 L555.0790052083332, 101.35972222222223 L555.8005520833333, 101.35972222222223 L555.8005520833333, 107.37261284722223 L557.6946126302082, 107.37261284722223 L555.4397786458333, 113.38550347222223 L553.1849446614583, 107.37261284722223 L555.0790052083332, 107.37261284722223 Z" style="stroke: black; fill: black; stroke-width:1.4; " /><text x="5" y="140.31484375">carbamazepine BID</text>
<path d="M369.82509895833334, 135.193359375 L369.82509895833334, 129.18046875 L370.5466458333333, 129.18046875 L370.5466458333333, 135.193359375 L372.4407063802083, 135.193359375 L370.1858723958333, 141.20625 L367.9310384114583, 135.193359375 L369.82509895833334, 135.193359375 Z" style="stroke: black; fill: black; stroke-width:1.4; " /><path d="M388.35048958333334, 135.193359375 L388.35048958333334, 129.18046875 L389.0720364583333, 129.18046875 L389.0720364583333, 135.193359375 L390.9660970052083, 135.193359375 L388.7112630208333, 141.20625 L386.4564290364583, 135.193359375 L388.35048958333334, 135.193359375 Z" style="stroke: black; fill: black; stroke-width:1.4; " /><path d="M406.87588020833334, 135.193359375 L406.87588020833334, 129.18046875 L407.5974270833333, 129.18046875 L407.5974270833333, 135.193359375 L409.4914876302083, 135.193359375 L407.2366536458333, 141.20625 L404.9818196614583, 135.193359375 L406.87588020833334, 135.193359375 Z" style="stroke: black; fill: black; stroke-width:1.4; " /><path d="M425.40127083333334, 135.193359375 L425.40127083333334, 129.18046875 L426.1228177083333, 129.18046875 L426.1228177083333, 135.193359375 L428.0168782552083, 135.193359375 L425.7620442708333, 141.20625 L423.5072102864583, 135.193359375 L425.40127083333334, 135.193359375 Z" style="stroke: black; fill: black; stroke-width:1.4; " /><path d="M443.92666145833334, 135.193359375 L443.92666145833334, 129.18046875 L444.6482083333333, 129.18046875 L444.6482083333333, 135.193359375 L446.5422688802083, 135.193359375 L444.2874348958333, 141.20625 L442.0326009114583, 135.193359375 L443.92666145833334, 135.193359375 Z" style="stroke: black; fill: black; stroke-width:1.4; " /><path d="M456.276921875, 135.193359375 L456.276921875, 129.18046875 L456.99846875, 129.18046875 L456.99846875, 135.193359375 L458.892529296875, 135.193359375 L456.6376953125, 141.20625 L454.382861328125, 135.193359375 L456.276921875, 135.193359375 Z" style="stroke: black; fill: black; stroke-width:1.4; " /><path d="M462.45205208333334, 135.193359375 L462.45205208333334, 129.18046875 L463.1735989583333, 129.18046875 L463.1735989583333, 135.193359375 L465.0676595052083, 135.193359375 L462.8128255208333, 141.20625 L460.5579915364583, 135.193359375 L462.45205208333334, 135.193359375 Z" style="stroke: black; fill: black; stroke-width:1.4; " /><path d="M468.62718229166666, 135.193359375 L468.62718229166666, 129.18046875 L469.3487291666666, 129.18046875 L469.3487291666666, 135.193359375 L471.24278971354164, 135.193359375 L468.98795572916663, 141.20625 L466.7331217447916, 135.193359375 L468.62718229166666, 135.193359375 Z" style="stroke: black; fill: black; stroke-width:1.4; " /><path d="M474.80231249999997, 135.193359375 L474.80231249999997, 129.18046875 L475.5238593749999, 129.18046875 L475.5238593749999, 135.193359375 L477.41791992187495, 135.193359375 L475.16308593749994, 141.20625 L472.90825195312493, 135.193359375 L474.80231249999997, 135.193359375 Z" style="stroke: black; fill: black; stroke-width:1.4; " /><path d="M480.9774427083333, 135.193359375 L480.9774427083333, 129.18046875 L481.69898958333323, 129.18046875 L481.69898958333323, 135.193359375 L483.59305013020827, 135.193359375 L481.33821614583326, 141.20625 L479.08338216145825, 135.193359375 L480.9774427083333, 135.193359375 Z" style="stroke: black; fill: black; stroke-width:1.4; " /><path d="M487.1525729166666, 135.193359375 L487.1525729166666, 129.18046875 L487.87411979166654, 129.18046875 L487.87411979166654, 135.193359375 L489.7681803385416, 135.193359375 L487.5133463541666, 141.20625 L485.25851236979156, 135.193359375 L487.1525729166666, 135.193359375 Z" style="stroke: black; fill: black; stroke-width:1.4; " /><path d="M493.3277031249999, 135.193359375 L493.3277031249999, 129.18046875 L494.04924999999986, 129.18046875 L494.04924999999986, 135.193359375 L495.9433105468749, 135.193359375 L493.6884765624999, 141.20625 L491.4336425781249, 135.193359375 L493.3277031249999, 135.193359375 Z" style="stroke: black; fill: black; stroke-width:1.4; " /><path d="M499.50283333333323, 135.193359375 L499.50283333333323, 129.18046875 L500.2243802083332, 129.18046875 L500.2243802083332, 135.193359375 L502.1184407552082, 135.193359375 L499.8636067708332, 141.20625 L497.6087727864582, 135.193359375 L499.50283333333323, 135.193359375 Z" style="stroke: black; fill: black; stroke-width:1.4; " /><path d="M505.67796354166654, 135.193359375 L505.67796354166654, 129.18046875 L506.3995104166665, 129.18046875 L506.3995104166665, 135.193359375 L508.2935709635415, 135.193359375 L506.0387369791665, 141.20625 L503.7839029947915, 135.193359375 L505.67796354166654, 135.193359375 Z" style="stroke: black; fill: black; stroke-width:1.4; " /><path d="M511.8530937499998, 135.193359375 L511.8530937499998, 129.18046875 L512.5746406249998, 129.18046875 L512.5746406249998, 135.193359375 L514.4687011718747, 135.193359375 L512.2138671874998, 141.20625 L509.95903320312476, 135.193359375 L511.8530937499998, 135.193359375 Z" style="stroke: black; fill: black; stroke-width:1.4; " /><path d="M518.0282239583331, 135.193359375 L518.0282239583331, 129.18046875 L518.7497708333332, 129.18046875 L518.7497708333332, 135.193359375 L520.6438313802081, 135.193359375 L518.3889973958331, 141.20625 L516.1341634114582, 135.193359375 L518.0282239583331, 135.193359375 Z" style="stroke: black; fill: black; stroke-width:1.4; " /><path d="M524.2033541666665, 135.193359375 L524.2033541666665, 129.18046875 L524.9249010416665, 129.18046875 L524.9249010416665, 135.193359375 L526.8189615885415, 135.193359375 L524.5641276041665, 141.20625 L522.3092936197916, 135.193359375 L524.2033541666665, 135.193359375 Z" style="stroke: black; fill: black; stroke-width:1.4; " /><path d="M536.5536145833332, 135.193359375 L536.5536145833332, 129.18046875 L537.2751614583333, 129.18046875 L537.2751614583333, 135.193359375 L539.1692220052082, 135.193359375 L536.9143880208333, 141.20625 L534.6595540364583, 135.193359375 L536.5536145833332, 135.193359375 Z" style="stroke: black; fill: black; stroke-width:1.4; " /><path d="M555.0790052083332, 135.193359375 L555.0790052083332, 129.18046875 L555.8005520833333, 129.18046875 L555.8005520833333, 135.193359375 L557.6946126302082, 135.193359375 L555.4397786458333, 141.20625 L553.1849446614583, 135.193359375 L555.0790052083332, 135.193359375 Z" style="stroke: black; fill: black; stroke-width:1.4; " /><path d="M567.4292656249999, 135.193359375 L567.4292656249999, 129.18046875 L568.1508124999999, 129.18046875 L568.1508124999999, 135.193359375 L570.0448730468748, 135.193359375 L567.7900390624999, 141.20625 L565.5352050781249, 135.193359375 L567.4292656249999, 135.193359375 Z" style="stroke: black; fill: black; stroke-width:1.4; " /><path d="M573.6043958333332, 135.193359375 L573.6043958333332, 129.18046875 L574.3259427083333, 129.18046875 L574.3259427083333, 135.193359375 L576.2200032552082, 135.193359375 L573.9651692708333, 141.20625 L571.7103352864583, 135.193359375 L573.6043958333332, 135.193359375 Z" style="stroke: black; fill: black; stroke-width:1.4; " /><path d="M585.95465625, 135.193359375 L585.95465625, 129.18046875 L586.676203125, 129.18046875 L586.676203125, 135.193359375 L588.570263671875, 135.193359375 L586.3154296875, 141.20625 L584.060595703125, 135.193359375 L585.95465625, 135.193359375 Z" style="stroke: black; fill: black; stroke-width:1.4; " /><path d="M598.3049166666666, 135.193359375 L598.3049166666666, 129.18046875 L599.0264635416667, 129.18046875 L599.0264635416667, 135.193359375 L600.9205240885416, 135.193359375 L598.6656901041666, 141.20625 L596.4108561197917, 135.193359375 L598.3049166666666, 135.193359375 Z" style="stroke: black; fill: black; stroke-width:1.4; " /><path d="M604.480046875, 135.193359375 L604.480046875, 129.18046875 L605.20159375, 129.18046875 L605.20159375, 135.193359375 L607.095654296875, 135.193359375 L604.8408203125, 141.20625 L602.585986328125, 135.193359375 L604.480046875, 135.193359375 Z" style="stroke: black; fill: black; stroke-width:1.4; " /><path d="M616.8303072916667, 135.193359375 L616.8303072916667, 129.18046875 L617.5518541666668, 129.18046875 L617.5518541666668, 135.193359375 L619.4459147135417, 135.193359375 L617.1910807291667, 141.20625 L614.9362467447918, 135.193359375 L616.8303072916667, 135.193359375 Z" style="stroke: black; fill: black; stroke-width:1.4; " /><text x="5" y="168.20121527777778">PK sampling carbamazepine</text>
<path d="M533.4068684895833, 163.01410590277777 L536.9143880208333, 155.99906684027778 L540.4219075520832, 163.01410590277777 L536.9143880208333, 170.02914496527777 L533.4068684895833, 163.01410590277777 Z" style="stroke: black; fill: none; stroke-width:1.4; " /><path d="M548.9558919270833, 166.77216254340277 L548.9558919270833, 159.25604926215277 L561.9236653645833, 159.25604926215277 L561.9236653645833, 166.77216254340277 L548.9558919270833, 166.77216254340277 Z" style="stroke: black; fill: none; stroke-width:1.4; " /><text x="5" y="196.02196180555555">PK sampling tepotinib</text>
<path d="M264.89990234375, 194.59290907118054 L264.89990234375, 187.07679578993054 L277.86767578125, 187.07679578993054 L277.86767578125, 194.59290907118054 L264.89990234375, 194.59290907118054 Z" style="stroke: black; fill: none; stroke-width:1.4; " /><path d="M281.57275390625, 194.59290907118054 L281.57275390625, 187.07679578993054 L285.89534505208337, 187.07679578993054 L285.89534505208337, 194.59290907118054 L281.57275390625, 194.59290907118054 Z" style="stroke: black; fill: none; stroke-width:1.4; " /><path d="M287.7478841145833, 194.59290907118054 L287.7478841145833, 187.07679578993054 L292.0704752604167, 187.07679578993054 L292.0704752604167, 194.59290907118054 L287.7478841145833, 194.59290907118054 Z" style="stroke: black; fill: none; stroke-width:1.4; " /><path d="M298.7519205729166, 190.83485243055554 L302.25944010416663, 183.81981336805555 L305.76695963541664, 190.83485243055554 L302.25944010416663, 197.84989149305554 L298.7519205729166, 190.83485243055554 Z" style="stroke: black; fill: none; stroke-width:1.4; " /><path d="M311.1021809895833, 190.83485243055554 L314.6097005208333, 183.81981336805555 L318.1172200520833, 190.83485243055554 L314.6097005208333, 197.84989149305554 L311.1021809895833, 190.83485243055554 Z" style="stroke: black; fill: none; stroke-width:1.4; " /><path d="M317.2773111979166, 190.83485243055554 L320.78483072916663, 183.81981336805555 L324.29235026041664, 190.83485243055554 L320.78483072916663, 197.84989149305554 L317.2773111979166, 190.83485243055554 Z" style="stroke: black; fill: none; stroke-width:1.4; " /><path d="M329.62757161458325, 190.83485243055554 L333.13509114583326, 183.81981336805555 L336.64261067708327, 190.83485243055554 L333.13509114583326, 197.84989149305554 L329.62757161458325, 190.83485243055554 Z" style="stroke: black; fill: none; stroke-width:1.4; " /><path d="M548.9558919270833, 194.59290907118054 L548.9558919270833, 187.07679578993054 L561.9236653645833, 187.07679578993054 L561.9236653645833, 194.59290907118054 L548.9558919270833, 194.59290907118054 Z" style="stroke: black; fill: none; stroke-width:1.4; " /><path d="M565.6287434895833, 194.59290907118054 L565.6287434895833, 187.07679578993054 L569.9513346354165, 187.07679578993054 L569.9513346354165, 194.59290907118054 L565.6287434895833, 194.59290907118054 Z" style="stroke: black; fill: none; stroke-width:1.4; " /><path d="M571.8038736979166, 194.59290907118054 L571.8038736979166, 187.07679578993054 L576.1264648437499, 187.07679578993054 L576.1264648437499, 194.59290907118054 L571.8038736979166, 194.59290907118054 Z" style="stroke: black; fill: none; stroke-width:1.4; " /><path d="M582.80791015625, 190.83485243055554 L586.3154296875, 183.81981336805555 L589.82294921875, 190.83485243055554 L586.3154296875, 197.84989149305554 L582.80791015625, 190.83485243055554 Z" style="stroke: black; fill: none; stroke-width:1.4; " /><path d="M595.1581705729167, 190.83485243055554 L598.6656901041666, 183.81981336805555 L602.1732096354166, 190.83485243055554 L598.6656901041666, 197.84989149305554 L595.1581705729167, 190.83485243055554 Z" style="stroke: black; fill: none; stroke-width:1.4; " /><path d="M601.33330078125, 190.83485243055554 L604.8408203125, 183.81981336805555 L608.34833984375, 190.83485243055554 L604.8408203125, 197.84989149305554 L601.33330078125, 190.83485243055554 Z" style="stroke: black; fill: none; stroke-width:1.4; " /><path d="M613.6835611979168, 190.83485243055554 L617.1910807291667, 183.81981336805555 L620.6986002604167, 190.83485243055554 L617.1910807291667, 197.84989149305554 L613.6835611979168, 190.83485243055554 Z" style="stroke: black; fill: none; stroke-width:1.4; " /></svg>