<svg width="780.83203125" height="400.47029947916656" xmlns="http://www.w3.org/2000/svg">
<style>text {font-family: Arial; font-size: 14px ;}</style>
<desc>Trial design autogenerated by td.py V2.0 (Jan-2022), author: Rainer Strotmann</desc><title>ms0051</title><text x="211.81884765625" y="25.0322265625">S</text>
<text x="293.4501953125" y="25.0322265625">Period 1</text>
<text x="542.626953125" y="25.0322265625">Period 2</text>
<text x="742.90625" y="25.0322265625">F/U</text>
<rect x="206.544921875" y="33.931857638888886" width="18.525390625" height="20.04296875" style="stroke:black;  stroke-width:1.4; fill:none;" />
<text x="215.8076171875" y="48.964084201388886"></text>
<line x1="225.0703125" y1="43.953342013888886" x2="243.595703125" y2="43.953342013888886" style="stroke:black; stroke-width:1.4; " />
<rect x="243.595703125" y="33.931857638888886" width="18.525390625" height="20.04296875" style="stroke:black;  stroke-width:1.4; fill:none;" />
<text x="248.1416015625" y="48.964084201388886">-1</text>
<rect x="262.12109375" y="33.931857638888886" width="18.525390625" height="20.04296875" style="stroke:black;  stroke-width:0; fill:lightgray;" />
<rect x="262.12109375" y="33.931857638888886" width="18.525390625" height="20.04296875" style="stroke:black;  stroke-width:1.4; fill:none;" />
<text x="267.6923828125" y="48.964084201388886">1</text>
<rect x="280.646484375" y="33.931857638888886" width="18.525390625" height="20.04296875" style="stroke:black;  stroke-width:1.4; fill:none;" />
<text x="286.59033203125" y="48.964084201388886">2</text>
<rect x="299.171875" y="33.931857638888886" width="18.525390625" height="20.04296875" style="stroke:black;  stroke-width:1.4; fill:none;" />
<text x="305.1533203125" y="48.964084201388886">3</text>
<rect x="317.697265625" y="33.931857638888886" width="18.525390625" height="20.04296875" style="stroke:black;  stroke-width:1.4; fill:none;" />
<text x="323.494140625" y="48.964084201388886">4</text>
<rect x="336.22265625" y="33.931857638888886" width="18.525390625" height="20.04296875" style="stroke:black;  stroke-width:1.4; fill:none;" />
<text x="342.1630859375" y="48.964084201388886">5</text>
<rect x="354.748046875" y="33.931857638888886" width="18.525390625" height="20.04296875" style="stroke:black;  stroke-width:1.4; fill:none;" />
<text x="360.7021484375" y="48.964084201388886">6</text>
<rect x="373.2734375" y="33.931857638888886" width="18.525390625" height="20.04296875" style="stroke:black;  stroke-width:1.4; fill:none;" />
<text x="379.29248046875" y="48.964084201388886">7</text>
<line x1="391.798828125" y1="43.953342013888886" x2="410.32421875" y2="43.953342013888886" style="stroke:black; stroke-width:1.4; " />
<rect x="410.32421875" y="33.931857638888886" width="18.525390625" height="20.04296875" style="stroke:black;  stroke-width:0; fill:lightgray;" />
<rect x="410.32421875" y="33.931857638888886" width="18.525390625" height="20.04296875" style="stroke:black;  stroke-width:1.4; fill:none;" />
<text x="416.28515625" y="48.964084201388886">8</text>
<rect x="428.849609375" y="33.931857638888886" width="18.525390625" height="20.04296875" style="stroke:black;  stroke-width:1.4; fill:none;" />
<text x="434.8173828125" y="48.964084201388886">9</text>
<rect x="447.375" y="33.931857638888886" width="18.525390625" height="20.04296875" style="stroke:black;  stroke-width:1.4; fill:none;" />
<text x="448.10302734375" y="48.964084201388886">10</text>
<rect x="465.900390625" y="33.931857638888886" width="18.525390625" height="20.04296875" style="stroke:black;  stroke-width:1.4; fill:none;" />
<text x="467.57861328125" y="48.964084201388886">11</text>
<rect x="484.42578125" y="33.931857638888886" width="18.525390625" height="20.04296875" style="stroke:black;  stroke-width:1.4; fill:none;" />
<text x="485.18798828125" y="48.964084201388886">12</text>
<line x1="502.951171875" y1="33.931857638888886" x2="509.1263020833333" y2="33.931857638888886" style="stroke:black; stroke-width:1.4; stroke-dasharray: 4.199999999999999 4.199999999999999" />
<line x1="502.951171875" y1="53.974826388888886" x2="509.1263020833333" y2="53.974826388888886" style="stroke:black; stroke-width:1.4; stroke-dasharray: 4.199999999999999 4.199999999999999" />
<text x="506.0387369791667" y="48.964084201388886"></text>
<line x1="509.1263020833333" y1="33.931857638888886" x2="515.3014322916666" y2="33.931857638888886" style="stroke:black; stroke-width:1.4; stroke-dasharray: 4.199999999999999 4.199999999999999" />
<line x1="509.1263020833333" y1="53.974826388888886" x2="515.3014322916666" y2="53.974826388888886" style="stroke:black; stroke-width:1.4; stroke-dasharray: 4.199999999999999 4.199999999999999" />
<text x="512.2138671875" y="48.964084201388886"></text>
<rect x="515.3014322916666" y="33.931857638888886" width="6.175130208333333" height="20.04296875" style="stroke:black;  stroke-width:0; fill:lightgray;" />
<line x1="515.3014322916666" y1="33.931857638888886" x2="521.4765625" y2="33.931857638888886" style="stroke:black; stroke-width:1.4; stroke-dasharray: 4.199999999999999 4.199999999999999" />
<line x1="515.3014322916666" y1="53.974826388888886" x2="521.4765625" y2="53.974826388888886" style="stroke:black; stroke-width:1.4; stroke-dasharray: 4.199999999999999 4.199999999999999" />
<line x1="521.4765625" y1="33.931857638888886" x2="527.6516927083334" y2="33.931857638888886" style="stroke:black; stroke-width:1.4; stroke-dasharray: 4.199999999999999 4.199999999999999" />
<line x1="521.4765625" y1="53.974826388888886" x2="527.6516927083334" y2="53.974826388888886" style="stroke:black; stroke-width:1.4; stroke-dasharray: 4.199999999999999 4.199999999999999" />
<text x="524.5641276041666" y="48.964084201388886"></text>
<line x1="527.6516927083334" y1="33.931857638888886" x2="533.8268229166667" y2="33.931857638888886" style="stroke:black; stroke-width:1.4; stroke-dasharray: 4.199999999999999 4.199999999999999" />
<line x1="527.6516927083334" y1="53.974826388888886" x2="533.8268229166667" y2="53.974826388888886" style="stroke:black; stroke-width:1.4; stroke-dasharray: 4.199999999999999 4.199999999999999" />
<text x="530.7392578125" y="48.964084201388886"></text>
<line x1="533.8268229166667" y1="33.931857638888886" x2="540.0019531250001" y2="33.931857638888886" style="stroke:black; stroke-width:1.4; stroke-dasharray: 4.199999999999999 4.199999999999999" />
<line x1="533.8268229166667" y1="53.974826388888886" x2="540.0019531250001" y2="53.974826388888886" style="stroke:black; stroke-width:1.4; stroke-dasharray: 4.199999999999999 4.199999999999999" />
<text x="536.9143880208334" y="48.964084201388886"></text>
<line x1="540.0019531250001" y1="33.931857638888886" x2="546.1770833333335" y2="33.931857638888886" style="stroke:black; stroke-width:1.4; stroke-dasharray: 4.199999999999999 4.199999999999999" />
<line x1="540.0019531250001" y1="53.974826388888886" x2="546.1770833333335" y2="53.974826388888886" style="stroke:black; stroke-width:1.4; stroke-dasharray: 4.199999999999999 4.199999999999999" />
<text x="543.0895182291667" y="48.964084201388886"></text>
<line x1="546.1770833333335" y1="33.931857638888886" x2="552.3522135416669" y2="33.931857638888886" style="stroke:black; stroke-width:1.4; stroke-dasharray: 4.199999999999999 4.199999999999999" />
<line x1="546.1770833333335" y1="53.974826388888886" x2="552.3522135416669" y2="53.974826388888886" style="stroke:black; stroke-width:1.4; stroke-dasharray: 4.199999999999999 4.199999999999999" />
<text x="549.2646484375001" y="48.964084201388886"></text>
<line x1="552.3522135416669" y1="33.931857638888886" x2="558.5273437500002" y2="33.931857638888886" style="stroke:black; stroke-width:1.4; stroke-dasharray: 4.199999999999999 4.199999999999999" />
<line x1="552.3522135416669" y1="53.974826388888886" x2="558.5273437500002" y2="53.974826388888886" style="stroke:black; stroke-width:1.4; stroke-dasharray: 4.199999999999999 4.199999999999999" />
<text x="555.4397786458335" y="48.964084201388886"></text>
<rect x="558.5273437500002" y="33.931857638888886" width="6.175130208333333" height="20.04296875" style="stroke:black;  stroke-width:0; fill:lightgray;" />
<line x1="558.5273437500002" y1="33.931857638888886" x2="564.7024739583336" y2="33.931857638888886" style="stroke:black; stroke-width:1.4; stroke-dasharray: 4.199999999999999 4.199999999999999" />
<line x1="558.5273437500002" y1="53.974826388888886" x2="564.7024739583336" y2="53.974826388888886" style="stroke:black; stroke-width:1.4; stroke-dasharray: 4.199999999999999 4.199999999999999" />
<line x1="564.7024739583336" y1="33.931857638888886" x2="570.877604166667" y2="33.931857638888886" style="stroke:black; stroke-width:1.4; stroke-dasharray: 4.199999999999999 4.199999999999999" />
<line x1="564.7024739583336" y1="53.974826388888886" x2="570.877604166667" y2="53.974826388888886" style="stroke:black; stroke-width:1.4; stroke-dasharray: 4.199999999999999 4.199999999999999" />
<text x="567.7900390625002" y="48.964084201388886"></text>
<line x1="570.877604166667" y1="33.931857638888886" x2="577.0527343750003" y2="33.931857638888886" style="stroke:black; stroke-width:1.4; stroke-dasharray: 4.199999999999999 4.199999999999999" />
<line x1="570.877604166667" y1="53.974826388888886" x2="577.0527343750003" y2="53.974826388888886" style="stroke:black; stroke-width:1.4; stroke-dasharray: 4.199999999999999 4.199999999999999" />
<text x="573.9651692708336" y="48.964084201388886"></text>
<rect x="577.0527343750003" y="33.931857638888886" width="18.525390625" height="20.04296875" style="stroke:black;  stroke-width:1.4; fill:none;" />
<text x="579.0146484375003" y="48.964084201388886">25</text>
<rect x="595.5781250000003" y="33.931857638888886" width="18.525390625" height="20.04296875" style="stroke:black;  stroke-width:1.4; fill:none;" />
<text x="597.5810546875003" y="48.964084201388886">26</text>
<rect x="614.1035156250003" y="33.931857638888886" width="18.525390625" height="20.04296875" style="stroke:black;  stroke-width:1.4; fill:none;" />
<text x="616.1030273437503" y="48.964084201388886">27</text>
<rect x="632.6289062500003" y="33.931857638888886" width="18.525390625" height="20.04296875" style="stroke:black;  stroke-width:1.4; fill:none;" />
<text x="634.6181640625003" y="48.964084201388886">28</text>
<rect x="651.1542968750003" y="33.931857638888886" width="18.525390625" height="20.04296875" style="stroke:black;  stroke-width:0; fill:lightgray;" />
<rect x="651.1542968750003" y="33.931857638888886" width="18.525390625" height="20.04296875" style="stroke:black;  stroke-width:1.4; fill:none;" />
<text x="653.1435546875003" y="48.964084201388886">29</text>
<rect x="669.6796875000003" y="33.931857638888886" width="18.525390625" height="20.04296875" style="stroke:black;  stroke-width:1.4; fill:none;" />
<text x="671.7851562500003" y="48.964084201388886">30</text>
<rect x="688.2050781250003" y="33.931857638888886" width="18.525390625" height="20.04296875" style="stroke:black;  stroke-width:1.4; fill:none;" />
<text x="691.2607421875003" y="48.964084201388886">31</text>
<rect x="706.7304687500003" y="33.931857638888886" width="18.525390625" height="20.04296875" style="stroke:black;  stroke-width:1.4; fill:none;" />
<text x="708.8701171875003" y="48.964084201388886">32</text>
<line x1="725.255859375" y1="43.953342013888886" x2="743.78125" y2="43.953342013888886" style="stroke:black; stroke-width:1.4; " />
<rect x="743.78125" y="33.931857638888886" width="18.525390625" height="20.04296875" style="stroke:black;  stroke-width:1.4; fill:none;" />
<text x="745.859375" y="48.964084201388886">39</text>
<text x="5" y="84.67335069444444">hospitalization</text>
<rect x="243.595703125" y="75.54327256944444" width="92.626953125" height="8.0171875" style="stroke:black;  stroke-width:1.4; fill:none;" />
<rect x="577.0527343750003" y="75.54327256944444" width="92.626953125" height="8.0171875" style="stroke:black;  stroke-width:1.4; fill:none;" />
<text x="5" y="112.49409722222222">tepotinib</text>
<path d="M271.023015625, 107.37261284722223 L271.023015625, 101.35972222222223 L271.7445625, 101.35972222222223 L271.7445625, 107.37261284722223 L273.638623046875, 107.37261284722223 L271.3837890625, 113.38550347222223 L269.128955078125, 107.37261284722223 L271.023015625, 107.37261284722223 Z" style="stroke: black; fill: black; stroke-width:1.4; " /><path d="M604.4800468750003, 107.37261284722223 L604.4800468750003, 101.35972222222223 L605.2015937500004, 101.35972222222223 L605.2015937500004, 107.37261284722223 L607.0956542968753, 107.37261284722223 L604.8408203125003, 113.38550347222223 L602.5859863281254, 107.37261284722223 L604.4800468750003, 107.37261284722223 Z" style="stroke: black; fill: black; stroke-width:1.4; " /><text x="5" y="140.31484375">carbamazepine BID</text>
<path d="M419.226140625, 135.193359375 L419.226140625, 129.18046875 L419.9476875, 129.18046875 L419.9476875, 135.193359375 L421.841748046875, 135.193359375 L419.5869140625, 141.20625 L417.332080078125, 135.193359375 L419.226140625, 135.193359375 Z" style="stroke: black; fill: black; stroke-width:1.4; " /><path d="M437.75153125, 135.193359375 L437.75153125, 129.18046875 L438.473078125, 129.18046875 L438.473078125, 135.193359375 L440.367138671875, 135.193359375 L438.1123046875, 141.20625 L435.857470703125, 135.193359375 L437.75153125, 135.193359375 Z" style="stroke: black; fill: black; stroke-width:1.4; " /><path d="M456.276921875, 135.193359375 L456.276921875, 129.18046875 L456.99846875, 129.18046875 L456.99846875, 135.193359375 L458.892529296875, 135.193359375 L456.6376953125, 141.20625 L454.382861328125, 135.193359375 L456.276921875, 135.193359375 Z" style="stroke: black; fill: black; stroke-width:1.4; " /><path d="M474.8023125, 135.193359375 L474.8023125, 129.18046875 L475.523859375, 129.18046875 L475.523859375, 135.193359375 L477.417919921875, 135.193359375 L475.1630859375, 141.20625 L472.908251953125, 135.193359375 L474.8023125, 135.193359375 Z" style="stroke: black; fill: black; stroke-width:1.4; " /><path d="M493.327703125, 135.193359375 L493.327703125, 129.18046875 L494.04925, 129.18046875 L494.04925, 135.193359375 L495.943310546875, 135.193359375 L493.6884765625, 141.20625 L491.433642578125, 135.193359375 L493.327703125, 135.193359375 Z" style="stroke: black; fill: black; stroke-width:1.4; " /><path d="M505.6779635416667, 135.193359375 L505.6779635416667, 129.18046875 L506.39951041666666, 129.18046875 L506.39951041666666, 135.193359375 L508.2935709635417, 135.193359375 L506.0387369791667, 141.20625 L503.7839029947917, 135.193359375 L505.6779635416667, 135.193359375 Z" style="stroke: black; fill: black; stroke-width:1.4; " /><path d="M511.85309375, 135.193359375 L511.85309375, 129.18046875 L512.574640625, 129.18046875 L512.574640625, 135.193359375 L514.468701171875, 135.193359375 L512.2138671875, 141.20625 L509.959033203125, 135.193359375 L511.85309375, 135.193359375 Z" style="stroke: black; fill: black; stroke-width:1.4; " /><path d="M518.0282239583332, 135.193359375 L518.0282239583332, 129.18046875 L518.7497708333333, 129.18046875 L518.7497708333333, 135.193359375 L520.6438313802082, 135.193359375 L518.3889973958333, 141.20625 L516.1341634114583, 135.193359375 L518.0282239583332, 135.193359375 Z" style="stroke: black; fill: black; stroke-width:1.4; " /><path d="M524.2033541666666, 135.193359375 L524.2033541666666, 129.18046875 L524.9249010416667, 129.18046875 L524.9249010416667, 135.193359375 L526.8189615885416, 135.193359375 L524.5641276041666, 141.20625 L522.3092936197917, 135.193359375 L524.2033541666666, 135.193359375 Z" style="stroke: black; fill: black; stroke-width:1.4; " /><path d="M530.378484375, 135.193359375 L530.378484375, 129.18046875 L531.10003125, 129.18046875 L531.10003125, 135.193359375 L532.994091796875, 135.193359375 L530.7392578125, 141.20625 L528.484423828125, 135.193359375 L530.378484375, 135.193359375 Z" style="stroke: black; fill: black; stroke-width:1.4; " /><path d="M536.5536145833333, 135.193359375 L536.5536145833333, 129.18046875 L537.2751614583334, 129.18046875 L537.2751614583334, 135.193359375 L539.1692220052083, 135.193359375 L536.9143880208334, 141.20625 L534.6595540364584, 135.193359375 L536.5536145833333, 135.193359375 Z" style="stroke: black; fill: black; stroke-width:1.4; " /><path d="M542.7287447916667, 135.193359375 L542.7287447916667, 129.18046875 L543.4502916666668, 129.18046875 L543.4502916666668, 135.193359375 L545.3443522135417, 135.193359375 L543.0895182291667, 141.20625 L540.8346842447918, 135.193359375 L542.7287447916667, 135.193359375 Z" style="stroke: black; fill: black; stroke-width:1.4; " /><path d="M548.9038750000001, 135.193359375 L548.9038750000001, 129.18046875 L549.6254218750001, 129.18046875 L549.6254218750001, 135.193359375 L551.5194824218751, 135.193359375 L549.2646484375001, 141.20625 L547.0098144531252, 135.193359375 L548.9038750000001, 135.193359375 Z" style="stroke: black; fill: black; stroke-width:1.4; " /><path d="M555.0790052083335, 135.193359375 L555.0790052083335, 129.18046875 L555.8005520833335, 129.18046875 L555.8005520833335, 135.193359375 L557.6946126302084, 135.193359375 L555.4397786458335, 141.20625 L553.1849446614585, 135.193359375 L555.0790052083335, 135.193359375 Z" style="stroke: black; fill: black; stroke-width:1.4; " /><path d="M561.2541354166668, 135.193359375 L561.2541354166668, 129.18046875 L561.9756822916669, 129.18046875 L561.9756822916669, 135.193359375 L563.8697428385418, 135.193359375 L561.6149088541669, 141.20625 L559.3600748697919, 135.193359375 L561.2541354166668, 135.193359375 Z" style="stroke: black; fill: black; stroke-width:1.4; " /><path d="M567.4292656250002, 135.193359375 L567.4292656250002, 129.18046875 L568.1508125000003, 129.18046875 L568.1508125000003, 135.193359375 L570.0448730468752, 135.193359375 L567.7900390625002, 141.20625 L565.5352050781253, 135.193359375 L567.4292656250002, 135.193359375 Z" style="stroke: black; fill: black; stroke-width:1.4; " /><path d="M573.6043958333336, 135.193359375 L573.6043958333336, 129.18046875 L574.3259427083336, 129.18046875 L574.3259427083336, 135.193359375 L576.2200032552086, 135.193359375 L573.9651692708336, 141.20625 L571.7103352864586, 135.193359375 L573.6043958333336, 135.193359375 Z" style="stroke: black; fill: black; stroke-width:1.4; " /><path d="M585.9546562500003, 135.193359375 L585.9546562500003, 129.18046875 L586.6762031250004, 129.18046875 L586.6762031250004, 135.193359375 L588.5702636718753, 135.193359375 L586.3154296875003, 141.20625 L584.0605957031254, 135.193359375 L585.9546562500003, 135.193359375 Z" style="stroke: black; fill: black; stroke-width:1.4; " /><path d="M604.4800468750003, 135.193359375 L604.4800468750003, 129.18046875 L605.2015937500004, 129.18046875 L605.2015937500004, 135.193359375 L607.0956542968753, 135.193359375 L604.8408203125003, 141.20625 L602.5859863281254, 135.193359375 L604.4800468750003, 135.193359375 Z" style="stroke: black; fill: black; stroke-width:1.4; " /><path d="M623.0054375000003, 135.193359375 L623.0054375000003, 129.18046875 L623.7269843750004, 129.18046875 L623.7269843750004, 135.193359375 L625.6210449218753, 135.193359375 L623.3662109375003, 141.20625 L621.1113769531254, 135.193359375 L623.0054375000003, 135.193359375 Z" style="stroke: black; fill: black; stroke-width:1.4; " /><path d="M641.5308281250003, 135.193359375 L641.5308281250003, 129.18046875 L642.2523750000004, 129.18046875 L642.2523750000004, 135.193359375 L644.1464355468753, 135.193359375 L641.8916015625003, 141.20625 L639.6367675781254, 135.193359375 L641.5308281250003, 135.193359375 Z" style="stroke: black; fill: black; stroke-width:1.4; " /><path d="M660.0562187500003, 135.193359375 L660.0562187500003, 129.18046875 L660.7777656250004, 129.18046875 L660.7777656250004, 135.193359375 L662.6718261718753, 135.193359375 L660.4169921875003, 141.20625 L658.1621582031254, 135.193359375 L660.0562187500003, 135.193359375 Z" style="stroke: black; fill: black; stroke-width:1.4; " /><path d="M678.5816093750003, 135.193359375 L678.5816093750003, 129.18046875 L679.3031562500004, 129.18046875 L679.3031562500004, 135.193359375 L681.1972167968753, 135.193359375 L678.9423828125003, 141.20625 L676.6875488281254, 135.193359375 L678.5816093750003, 135.193359375 Z" style="stroke: black; fill: black; stroke-width:1.4; " /><path d="M697.1070000000003, 135.193359375 L697.1070000000003, 129.18046875 L697.8285468750004, 129.18046875 L697.8285468750004, 135.193359375 L699.7226074218753, 135.193359375 L697.4677734375003, 141.20625 L695.2129394531254, 135.193359375 L697.1070000000003, 135.193359375 Z" style="stroke: black; fill: black; stroke-width:1.4; " /><path d="M715.6323906250003, 135.193359375 L715.6323906250003, 129.18046875 L716.3539375000004, 129.18046875 L716.3539375000004, 135.193359375 L718.2479980468753, 135.193359375 L715.9931640625003, 141.20625 L713.7383300781254, 135.193359375 L715.6323906250003, 135.193359375 Z" style="stroke: black; fill: black; stroke-width:1.4; " /><line x1="410.32421875" y1="165.01840277777777" x2="428.849609375" y2="165.01840277777777" style="stroke:black; stroke-width:1.4; " />
<text x="410.32421875" y="183.05707465277777">100</text>
<line x1="428.849609375" y1="165.01840277777777" x2="447.375" y2="165.01840277777777" style="stroke:black; stroke-width:1.4; " />
<line x1="428.849609375" y1="165.01840277777777" x2="428.849609375" y2="165.01840277777777" style="stroke:black; stroke-width:1.4; " />
<line x1="447.375" y1="159.00551215277775" x2="465.900390625" y2="159.00551215277775" style="stroke:black; stroke-width:1.4; " />
<line x1="447.375" y1="165.01840277777777" x2="447.375" y2="159.00551215277775" style="stroke:black; stroke-width:1.4; " />
<text x="447.375" y="183.05707465277777">200</text>
<line x1="465.900390625" y1="159.00551215277775" x2="484.42578125" y2="159.00551215277775" style="stroke:black; stroke-width:1.4; " />
<line x1="465.900390625" y1="159.00551215277775" x2="465.900390625" y2="159.00551215277775" style="stroke:black; stroke-width:1.4; " />
<line x1="484.42578125" y1="152.99262152777777" x2="502.951171875" y2="152.99262152777777" style="stroke:black; stroke-width:1.4; " />
<line x1="484.42578125" y1="159.00551215277775" x2="484.42578125" y2="152.99262152777777" style="stroke:black; stroke-width:1.4; " />
<text x="484.42578125" y="183.05707465277777">300</text>
<line x1="502.951171875" y1="152.99262152777777" x2="509.1263020833333" y2="152.99262152777777" style="stroke:black; stroke-width:1.4; " />
<line x1="502.951171875" y1="152.99262152777777" x2="502.951171875" y2="152.99262152777777" style="stroke:black; stroke-width:1.4; " />
<line x1="509.1263020833333" y1="152.99262152777777" x2="515.3014322916666" y2="152.99262152777777" style="stroke:black; stroke-width:1.4; " />
<line x1="509.1263020833333" y1="152.99262152777777" x2="509.1263020833333" y2="152.99262152777777" style="stroke:black; stroke-width:1.4; " />
<line x1="515.3014322916666" y1="152.99262152777777" x2="521.4765625" y2="152.99262152777777" style="stroke:black; stroke-width:1.4; " />
<line x1="515.3014322916666" y1="152.99262152777777" x2="515.3014322916666" y2="152.99262152777777" style="stroke:black; stroke-width:1.4; " />
<line x1="521.4765625" y1="152.99262152777777" x2="527.6516927083334" y2="152.99262152777777" style="stroke:black; stroke-width:1.4; " />
<line x1="521.4765625" y1="152.99262152777777" x2="521.4765625" y2="152.99262152777777" style="stroke:black; stroke-width:1.4; " />
<line x1="527.6516927083334" y1="152.99262152777777" x2="533.8268229166667" y2="152.99262152777777" style="stroke:black; stroke-width:1.4; " />
<line x1="527.6516927083334" y1="152.99262152777777" x2="527.6516927083334" y2="152.99262152777777" style="stroke:black; stroke-width:1.4; " />
<line x1="533.8268229166667" y1="152.99262152777777" x2="540.0019531250001" y2="152.99262152777777" style="stroke:black; stroke-width:1.4; " />
<line x1="533.8268229166667" y1="152.99262152777777" x2="533.8268229166667" y2="152.99262152777777" style="stroke:black; stroke-width:1.4; " />
<line x1="540.0019531250001" y1="152.99262152777777" x2="546.1770833333335" y2="152.99262152777777" style="stroke:black; stroke-width:1.4; " />
<line x1="540.0019531250001" y1="152.99262152777777" x2="540.0019531250001" y2="152.99262152777777" style="stroke:black; stroke-width:1.4; " />
<line x1="546.1770833333335" y1="152.99262152777777" x2="552.3522135416669" y2="152.99262152777777" style="stroke:black; stroke-width:1.4; " />
<line x1="546.1770833333335" y1="152.99262152777777" x2="546.1770833333335" y2="152.99262152777777" style="stroke:black; stroke-width:1.4; " />
<line x1="552.3522135416669" y1="152.99262152777777" x2="558.5273437500002" y2="152.99262152777777" style="stroke:black; stroke-width:1.4; " />
<line x1="552.3522135416669" y1="152.99262152777777" x2="552.3522135416669" y2="152.99262152777777" style="stroke:black; stroke-width:1.4; " />
<line x1="558.5273437500002" y1="152.99262152777777" x2="564.7024739583336" y2="152.99262152777777" style="stroke:black; stroke-width:1.4; " />
<line x1="558.5273437500002" y1="152.99262152777777" x2="558.5273437500002" y2="152.99262152777777" style="stroke:black; stroke-width:1.4; " />
<line x1="564.7024739583336" y1="152.99262152777777" x2="570.877604166667" y2="152.99262152777777" style="stroke:black; stroke-width:1.4; " />
<line x1="564.7024739583336" y1="152.99262152777777" x2="564.7024739583336" y2="152.99262152777777" style="stroke:black; stroke-width:1.4; " />
<line x1="570.877604166667" y1="152.99262152777777" x2="577.0527343750003" y2="152.99262152777777" style="stroke:black; stroke-width:1.4; " />
<line x1="570.877604166667" y1="152.99262152777777" x2="570.877604166667" y2="152.99262152777777" style="stroke:black; stroke-width:1.4; " />
<line x1="577.0527343750003" y1="152.99262152777777" x2="595.5781250000003" y2="152.99262152777777" style="stroke:black; stroke-width:1.4; " />
<line x1="577.0527343750003" y1="152.99262152777777" x2="577.0527343750003" y2="152.99262152777777" style="stroke:black; stroke-width:1.4; " />
<line x1="595.5781250000003" y1="152.99262152777777" x2="614.1035156250003" y2="152.99262152777777" style="stroke:black; stroke-width:1.4; " />
<line x1="595.5781250000003" y1="152.99262152777777" x2="595.5781250000003" y2="152.99262152777777" style="stroke:black; stroke-width:1.4; " />
<line x1="614.1035156250003" y1="152.99262152777777" x2="632.6289062500003" y2="152.99262152777777" style="stroke:black; stroke-width:1.4; " />
<line x1="614.1035156250003" y1="152.99262152777777" x2="614.1035156250003" y2="152.99262152777777" style="stroke:black; stroke-width:1.4; " />
<line x1="632.6289062500003" y1="152.99262152777777" x2="651.1542968750003" y2="152.99262152777777" style="stroke:black; stroke-width:1.4; " />
<line x1="632.6289062500003" y1="152.99262152777777" x2="632.6289062500003" y2="152.99262152777777" style="stroke:black; stroke-width:1.4; " />
<line x1="651.1542968750003" y1="152.99262152777777" x2="669.6796875000003" y2="152.99262152777777" style="stroke:black; stroke-width:1.4; " />
<line x1="651.1542968750003" y1="152.99262152777777" x2="651.1542968750003" y2="152.99262152777777" style="stroke:black; stroke-width:1.4; " />
<line x1="669.6796875000003" y1="152.99262152777777" x2="688.2050781250003" y2="152.99262152777777" style="stroke:black; stroke-width:1.4; " />
<line x1="669.6796875000003" y1="152.99262152777777" x2="669.6796875000003" y2="152.99262152777777" style="stroke:black; stroke-width:1.4; " />
<line x1="688.2050781250003" y1="152.99262152777777" x2="706.7304687500003" y2="152.99262152777777" style="stroke:black; stroke-width:1.4; " />
<line x1="688.2050781250003" y1="152.99262152777777" x2="688.2050781250003" y2="152.99262152777777" style="stroke:black; stroke-width:1.4; " />
<line x1="706.7304687500003" y1="152.99262152777777" x2="725.2558593750003" y2="152.99262152777777" style="stroke:black; stroke-width:1.4; " />
<line x1="706.7304687500003" y1="152.99262152777777" x2="706.7304687500003" y2="152.99262152777777" style="stroke:black; stroke-width:1.4; " />
<text x="419.5869140625" y="205.86707899305554"></text>
<text x="438.1123046875" y="205.86707899305554"></text>
<text x="456.6376953125" y="205.86707899305554"></text>
<text x="475.1630859375" y="205.86707899305554"></text>
<text x="493.6884765625" y="205.86707899305554"></text>
<text x="506.0387369791667" y="205.86707899305554"></text>
<text x="512.2138671875" y="205.86707899305554"></text>
<text x="518.3889973958333" y="205.86707899305554"></text>
<text x="524.5641276041666" y="205.86707899305554"></text>
<text x="530.7392578125" y="205.86707899305554"></text>
<text x="536.9143880208334" y="205.86707899305554"></text>
<text x="543.0895182291667" y="205.86707899305554"></text>
<text x="549.2646484375001" y="205.86707899305554"></text>
<text x="555.4397786458335" y="205.86707899305554"></text>
<text x="561.6149088541669" y="205.86707899305554"></text>
<text x="567.7900390625002" y="205.86707899305554"></text>
<text x="573.9651692708336" y="205.86707899305554"></text>
<text x="578.4370117187503" y="205.86707899305554"> (1)</text>
<text x="604.8408203125003" y="205.86707899305554"></text>
<text x="623.3662109375003" y="205.86707899305554"></text>
<text x="641.8916015625003" y="205.86707899305554"></text>
<text x="660.4169921875003" y="205.86707899305554"></text>
<text x="678.9423828125003" y="205.86707899305554"></text>
<text x="697.4677734375003" y="205.86707899305554"></text>
<text x="715.9931640625003" y="205.86707899305554"></text>
<text x="5" y="226.08641493055555">PK sampling carbamazepine</text>
<path d="M582.8079101562504, 220.89930555555554 L586.3154296875003, 213.88426649305555 L589.8229492187503, 220.89930555555554 L586.3154296875003, 227.91434461805554 L582.8079101562504, 220.89930555555554 Z" style="stroke: black; fill: none; stroke-width:1.4; " /><path d="M598.3569335937503, 224.65736219618054 L598.3569335937503, 217.14124891493054 L611.3247070312503, 217.14124891493054 L611.3247070312503, 224.65736219618054 L598.3569335937503, 224.65736219618054 Z" style="stroke: black; fill: none; stroke-width:1.4; " /><text x="5" y="253.90716145833332">PK sampling tepotinib</text>
<path d="M264.89990234375, 252.47810872395831 L264.89990234375, 244.96199544270831 L277.86767578125, 244.96199544270831 L277.86767578125, 252.47810872395831 L264.89990234375, 252.47810872395831 Z" style="stroke: black; fill: none; stroke-width:1.4; " /><path d="M283.42529296875, 252.47810872395831 L283.42529296875, 244.96199544270831 L296.39306640625, 244.96199544270831 L296.39306640625, 252.47810872395831 L283.42529296875, 252.47810872395831 Z" style="stroke: black; fill: none; stroke-width:1.4; " /><path d="M301.95068359375, 252.47810872395831 L301.95068359375, 244.96199544270831 L314.91845703125, 244.96199544270831 L314.91845703125, 252.47810872395831 L301.95068359375, 252.47810872395831 Z" style="stroke: black; fill: none; stroke-width:1.4; " /><path d="M323.45244140625, 248.72005208333331 L326.9599609375, 241.70501302083332 L330.46748046875, 248.72005208333331 L326.9599609375, 255.7350911458333 L323.45244140625, 248.72005208333331 Z" style="stroke: black; fill: none; stroke-width:1.4; " /><path d="M341.97783203125, 248.72005208333331 L345.4853515625, 241.70501302083332 L348.99287109375, 248.72005208333331 L345.4853515625, 255.7350911458333 L341.97783203125, 248.72005208333331 Z" style="stroke: black; fill: none; stroke-width:1.4; " /><path d="M360.50322265625, 248.72005208333331 L364.0107421875, 241.70501302083332 L367.51826171875, 248.72005208333331 L364.0107421875, 255.7350911458333 L360.50322265625, 248.72005208333331 Z" style="stroke: black; fill: none; stroke-width:1.4; " /><path d="M379.02861328125, 248.72005208333331 L382.5361328125, 241.70501302083332 L386.04365234375, 248.72005208333331 L382.5361328125, 255.7350911458333 L379.02861328125, 248.72005208333331 Z" style="stroke: black; fill: none; stroke-width:1.4; " /><path d="M598.3569335937503, 252.47810872395831 L598.3569335937503, 244.96199544270831 L611.3247070312503, 244.96199544270831 L611.3247070312503, 252.47810872395831 L598.3569335937503, 252.47810872395831 Z" style="stroke: black; fill: none; stroke-width:1.4; " /><path d="M616.8823242187503, 252.47810872395831 L616.8823242187503, 244.96199544270831 L629.8500976562503, 244.96199544270831 L629.8500976562503, 252.47810872395831 L616.8823242187503, 252.47810872395831 Z" style="stroke: black; fill: none; stroke-width:1.4; " /><path d="M635.4077148437503, 252.47810872395831 L635.4077148437503, 244.96199544270831 L648.3754882812503, 244.96199544270831 L648.3754882812503, 252.47810872395831 L635.4077148437503, 252.47810872395831 Z" style="stroke: black; fill: none; stroke-width:1.4; " /><path d="M656.9094726562504, 248.72005208333331 L660.4169921875003, 241.70501302083332 L663.9245117187503, 248.72005208333331 L660.4169921875003, 255.7350911458333 L656.9094726562504, 248.72005208333331 Z" style="stroke: black; fill: none; stroke-width:1.4; " /><path d="M675.4348632812504, 248.72005208333331 L678.9423828125003, 241.70501302083332 L682.4499023437503, 248.72005208333331 L678.9423828125003, 255.7350911458333 L675.4348632812504, 248.72005208333331 Z" style="stroke: black; fill: none; stroke-width:1.4; " /><path d="M693.9602539062504, 248.72005208333331 L697.4677734375003, 241.70501302083332 L700.9752929687503, 248.72005208333331 L697.4677734375003, 255.7350911458333 L693.9602539062504, 248.72005208333331 Z" style="stroke: black; fill: none; stroke-width:1.4; " /><path d="M712.4856445312504, 248.72005208333331 L715.9931640625003, 241.70501302083332 L719.5006835937503, 248.72005208333331 L715.9931640625003, 255.7350911458333 L712.4856445312504, 248.72005208333331 Z" style="stroke: black; fill: none; stroke-width:1.4; " /><path d="M262.12109375, 266.5193142361111 A6.680989583333333, 6.680989583333333, 0, 0 0 268.8020833333333, 273.2003038194444 L320.2789713541667, 273.2003038194444 A6.680989583333333, 6.680989583333333 0, 0 1 326.9599609375, 279.88129340277777 A6.680989583333333, 6.680989583333333, 0, 0 1 333.6409505208333, 273.2003038194444 L385.1178385416667, 273.2003038194444 A6.680989583333333, 6.680989583333333 0, 0 0 391.798828125, 266.5193142361111 " style="stroke: black; stroke-width:1.4; fill:none" /><path d="M240.08818359375, 301.5694444444444 L243.595703125, 294.5544053819444 L247.10322265625, 301.5694444444444 L243.595703125, 308.5844835069444 L240.08818359375, 301.5694444444444 Z" style="stroke: black; fill: none; stroke-width:1.4; " /><path d="M250.38006727430553, 301.5694444444444 L253.88758680555554, 294.5544053819444 L257.39510633680555, 301.5694444444444 L253.88758680555554, 308.5844835069444 L250.38006727430553, 301.5694444444444 Z" style="stroke: black; fill: none; stroke-width:1.4; " /><path d="M255.5260091145833, 301.5694444444444 L259.0335286458333, 294.5544053819444 L262.5410481770833, 301.5694444444444 L259.0335286458333, 308.5844835069444 L255.5260091145833, 301.5694444444444 Z" style="stroke: black; fill: none; stroke-width:1.4; " /><path d="M260.6719509548611, 301.5694444444444 L264.1794704861111, 294.5544053819444 L267.6869900173611, 301.5694444444444 L264.1794704861111, 308.5844835069444 L260.6719509548611, 301.5694444444444 Z" style="stroke: black; fill: none; stroke-width:1.4; " /><path d="M270.9638346354167, 301.5694444444444 L274.4713541666667, 294.5544053819444 L277.9788736979167, 301.5694444444444 L274.4713541666667, 308.5844835069444 L270.9638346354167, 301.5694444444444 Z" style="stroke: black; fill: none; stroke-width:1.4; " /><path d="M281.2557183159722, 301.5694444444444 L284.76323784722223, 294.5544053819444 L288.27075737847224, 301.5694444444444 L284.76323784722223, 308.5844835069444 L281.2557183159722, 301.5694444444444 Z" style="stroke: black; fill: none; stroke-width:1.4; " /><path d="M301.8394856770833, 301.5694444444444 L305.3470052083333, 294.5544053819444 L308.8545247395833, 301.5694444444444 L305.3470052083333, 308.5844835069444 L301.8394856770833, 301.5694444444444 Z" style="stroke: black; fill: none; stroke-width:1.4; " /><path d="M322.42325303819445, 301.5694444444444 L325.93077256944446, 294.5544053819444 L329.43829210069447, 301.5694444444444 L325.93077256944446, 308.5844835069444 L322.42325303819445, 301.5694444444444 Z" style="stroke: black; fill: none; stroke-width:1.4; " /><path d="M363.5907877604167, 301.5694444444444 L367.0983072916667, 294.5544053819444 L370.6058268229167, 301.5694444444444 L367.0983072916667, 308.5844835069444 L363.5907877604167, 301.5694444444444 Z" style="stroke: black; fill: none; stroke-width:1.4; " /><path d="M404.7583224826389, 301.5694444444444 L408.2658420138889, 294.5544053819444 L411.7733615451389, 301.5694444444444 L408.2658420138889, 308.5844835069444 L404.7583224826389, 301.5694444444444 Z" style="stroke: black; fill: none; stroke-width:1.4; " /><path d="M435.17900390625, 301.5694444444444 L438.6865234375, 294.5544053819444 L442.19404296875, 301.5694444444444 L438.6865234375, 308.5844835069444 L435.17900390625, 301.5694444444444 Z" style="stroke: black; fill: none; stroke-width:1.4; " /><path d="M443.02358398437497, 301.5694444444444 L446.531103515625, 294.5544053819444 L450.038623046875, 301.5694444444444 L446.531103515625, 308.5844835069444 L443.02358398437497, 301.5694444444444 Z" style="stroke: black; fill: none; stroke-width:1.4; " /><path d="M453.48302408854164, 301.5694444444444 L456.99054361979165, 294.5544053819444 L460.49806315104166, 301.5694444444444 L456.99054361979165, 308.5844835069444 L453.48302408854164, 301.5694444444444 Z" style="stroke: black; fill: none; stroke-width:1.4; " /><path d="M466.55732421875, 301.5694444444444 L470.06484375, 294.5544053819444 L473.57236328125003, 301.5694444444444 L470.06484375, 308.5844835069444 L466.55732421875, 301.5694444444444 Z" style="stroke: black; fill: none; stroke-width:1.4; " /><path d="M482.24648437499997, 301.5694444444444 L485.75400390625, 294.5544053819444 L489.2615234375, 301.5694444444444 L485.75400390625, 308.5844835069444 L482.24648437499997, 301.5694444444444 Z" style="stroke: black; fill: none; stroke-width:1.4; " /><path d="M497.93564453125, 301.5694444444444 L501.4431640625, 294.5544053819444 L504.95068359375, 301.5694444444444 L501.4431640625, 308.5844835069444 L497.93564453125, 301.5694444444444 Z" style="stroke: black; fill: none; stroke-width:1.4; " /><path d="M529.31396484375, 301.5694444444444 L532.821484375, 294.5544053819444 L536.3290039062499, 301.5694444444444 L532.821484375, 308.5844835069444 L529.31396484375, 301.5694444444444 Z" style="stroke: black; fill: none; stroke-width:1.4; " /><path d="M560.69228515625, 301.5694444444444 L564.1998046875, 294.5544053819444 L567.7073242187499, 301.5694444444444 L564.1998046875, 308.5844835069444 L560.69228515625, 301.5694444444444 Z" style="stroke: black; fill: none; stroke-width:1.4; " /><path d="M592.07060546875, 301.5694444444444 L595.578125, 294.5544053819444 L599.08564453125, 301.5694444444444 L595.578125, 308.5844835069444 L592.07060546875, 301.5694444444444 Z" style="stroke: black; fill: none; stroke-width:1.4; " /><line x1="243.595703125" y1="319.3687065972222" x2="428.849609375" y2="319.3687065972222" style="stroke:black; stroke-width:1.4; " />
<line x1="243.595703125" y1="316.0282118055555" x2="243.595703125" y2="322.70920138888886" style="stroke:black; stroke-width:1.4; " />
<text x="240.328125" y="340.50846354166663">0</text>
<line x1="264.1794704861111" y1="316.0282118055555" x2="264.1794704861111" y2="322.70920138888886" style="stroke:black; stroke-width:1.4; " />
<text x="260.8606228298611" y="340.50846354166663">2</text>
<line x1="284.76323784722223" y1="316.0282118055555" x2="284.76323784722223" y2="322.70920138888886" style="stroke:black; stroke-width:1.4; " />
<text x="281.29741753472223" y="340.50846354166663">4</text>
<line x1="305.3470052083333" y1="316.0282118055555" x2="305.3470052083333" y2="322.70920138888886" style="stroke:black; stroke-width:1.4; " />
<text x="302.0384114583333" y="340.50846354166663">6</text>
<line x1="325.93077256944446" y1="316.0282118055555" x2="325.93077256944446" y2="322.70920138888886" style="stroke:black; stroke-width:1.4; " />
<text x="322.62901475694446" y="340.50846354166663">8</text>
<line x1="346.51453993055554" y1="316.0282118055555" x2="346.51453993055554" y2="322.70920138888886" style="stroke:black; stroke-width:1.4; " />
<text x="339.82557508680554" y="340.50846354166663">10</text>
<line x1="367.0983072916667" y1="316.0282118055555" x2="367.0983072916667" y2="322.70920138888886" style="stroke:black; stroke-width:1.4; " />
<text x="360.4435221354167" y="340.50846354166663">12</text>
<line x1="387.68207465277777" y1="316.0282118055555" x2="387.68207465277777" y2="322.70920138888886" style="stroke:black; stroke-width:1.4; " />
<text x="380.99652777777777" y="340.50846354166663">14</text>
<line x1="408.2658420138889" y1="316.0282118055555" x2="408.2658420138889" y2="322.70920138888886" style="stroke:black; stroke-width:1.4; " />
<text x="401.5632052951389" y="340.50846354166663">16</text>
<text x="401.5632052951389" y="340.50846354166663">16</text>
<line x1="438.6865234375" y1="319.3687065972222" x2="595.578125" y2="319.3687065972222" style="stroke:black; stroke-width:1.4; " />
<line x1="438.6865234375" y1="316.0282118055555" x2="438.6865234375" y2="322.70920138888886" style="stroke:black; stroke-width:1.4; " />
<text x="431.44384765625" y="340.50846354166663">24</text>
<line x1="470.06484375" y1="316.0282118055555" x2="470.06484375" y2="322.70920138888886" style="stroke:black; stroke-width:1.4; " />
<text x="462.6751953125" y="340.50846354166663">48</text>
<line x1="501.4431640625" y1="316.0282118055555" x2="501.4431640625" y2="322.70920138888886" style="stroke:black; stroke-width:1.4; " />
<text x="494.35771484375" y="340.50846354166663">72</text>
<line x1="532.821484375" y1="316.0282118055555" x2="532.821484375" y2="322.70920138888886" style="stroke:black; stroke-width:1.4; " />
<text x="525.64716796875" y="340.50846354166663">96</text>
<line x1="564.1998046875" y1="316.0282118055555" x2="564.1998046875" y2="322.70920138888886" style="stroke:black; stroke-width:1.4; " />
<text x="553.6177734375" y="340.50846354166663">120</text>
<line x1="595.578125" y1="316.0282118055555" x2="595.578125" y2="322.70920138888886" style="stroke:black; stroke-width:1.4; " />
<text x="584.99951171875" y="340.50846354166663">144 h</text>
<text x="206.544921875" y="382.6710373263888" class="footnote">(1)	predose</text>
</svg>