<svg width="596.0179036458334" height="321.4954730902777" xmlns="http://www.w3.org/2000/svg">
<style>text {font-family: Arial; font-size: 14px ;}</style>
<desc>Trial design autogenerated by td.py V2.0 (Jan-2022), author: Rainer Strotmann</desc><title>ms0053</title><text x="169.03271484375" y="25.0322265625">S</text>
<text x="238.31380208333331" y="25.0322265625">Period 1</text>
<text x="416.4765625" y="25.0322265625">Period 2</text>
<text x="558.0921223958333" y="25.0322265625">F/U</text>
<rect x="163.7587890625" y="33.931857638888886" width="18.525390625" height="20.04296875" style="stroke:black;  stroke-width:1.4; fill:none;" />
<text x="173.021484375" y="48.964084201388886"></text>
<line x1="182.2841796875" y1="43.953342013888886" x2="200.8095703125" y2="43.953342013888886" style="stroke:black; stroke-width:1.4; " />
<rect x="200.8095703125" y="33.931857638888886" width="18.525390625" height="20.04296875" style="stroke:black;  stroke-width:1.4; fill:none;" />
<text x="205.35546875" y="48.964084201388886">-1</text>
<rect x="219.3349609375" y="33.931857638888886" width="18.525390625" height="20.04296875" style="stroke:black;  stroke-width:0; fill:lightgray;" />
<rect x="219.3349609375" y="33.931857638888886" width="18.525390625" height="20.04296875" style="stroke:black;  stroke-width:1.4; fill:none;" />
<text x="224.90625" y="48.964084201388886">1</text>
<rect x="237.8603515625" y="33.931857638888886" width="18.525390625" height="20.04296875" style="stroke:black;  stroke-width:1.4; fill:none;" />
<text x="243.80419921875" y="48.964084201388886">2</text>
<rect x="256.3857421875" y="33.931857638888886" width="18.525390625" height="20.04296875" style="stroke:black;  stroke-width:1.4; fill:none;" />
<text x="262.3671875" y="48.964084201388886">3</text>
<rect x="274.9111328125" y="33.931857638888886" width="18.525390625" height="20.04296875" style="stroke:black;  stroke-width:1.4; fill:none;" />
<text x="280.7080078125" y="48.964084201388886">4</text>
<line x1="293.4365234375" y1="33.931857638888886" x2="299.6116536458333" y2="33.931857638888886" style="stroke:black; stroke-width:1.4; stroke-dasharray: 4.199999999999999 4.199999999999999" />
<line x1="293.4365234375" y1="53.974826388888886" x2="299.6116536458333" y2="53.974826388888886" style="stroke:black; stroke-width:1.4; stroke-dasharray: 4.199999999999999 4.199999999999999" />
<text x="296.5240885416667" y="48.964084201388886"></text>
<line x1="299.6116536458333" y1="33.931857638888886" x2="305.78678385416663" y2="33.931857638888886" style="stroke:black; stroke-width:1.4; stroke-dasharray: 4.199999999999999 4.199999999999999" />
<line x1="299.6116536458333" y1="53.974826388888886" x2="305.78678385416663" y2="53.974826388888886" style="stroke:black; stroke-width:1.4; stroke-dasharray: 4.199999999999999 4.199999999999999" />
<text x="302.69921875" y="48.964084201388886"></text>
<rect x="305.78678385416663" y="33.931857638888886" width="18.525390625" height="20.04296875" style="stroke:black;  stroke-width:1.4; fill:none;" />
<text x="311.80582682291663" y="48.964084201388886">7</text>
<line x1="324.31217447916663" y1="43.953342013888886" x2="342.83756510416663" y2="43.953342013888886" style="stroke:black; stroke-width:1.4; " />
<rect x="342.83756510416663" y="33.931857638888886" width="18.525390625" height="20.04296875" style="stroke:black;  stroke-width:0; fill:lightgray;" />
<rect x="342.83756510416663" y="33.931857638888886" width="18.525390625" height="20.04296875" style="stroke:black;  stroke-width:1.4; fill:none;" />
<text x="348.79850260416663" y="48.964084201388886">8</text>
<rect x="361.36295572916663" y="33.931857638888886" width="18.525390625" height="20.04296875" style="stroke:black;  stroke-width:1.4; fill:none;" />
<text x="367.33072916666663" y="48.964084201388886">9</text>
<rect x="379.88834635416663" y="33.931857638888886" width="18.525390625" height="20.04296875" style="stroke:black;  stroke-width:1.4; fill:none;" />
<text x="380.61637369791663" y="48.964084201388886">10</text>
<rect x="398.41373697916663" y="33.931857638888886" width="18.525390625" height="20.04296875" style="stroke:black;  stroke-width:1.4; fill:none;" />
<text x="400.09195963541663" y="48.964084201388886">11</text>
<rect x="416.93912760416663" y="33.931857638888886" width="18.525390625" height="20.04296875" style="stroke:black;  stroke-width:1.4; fill:none;" />
<text x="417.70133463541663" y="48.964084201388886">12</text>
<rect x="435.46451822916663" y="33.931857638888886" width="18.525390625" height="20.04296875" style="stroke:black;  stroke-width:1.4; fill:none;" />
<text x="436.17545572916663" y="48.964084201388886">13</text>
<rect x="453.98990885416663" y="33.931857638888886" width="18.525390625" height="20.04296875" style="stroke:black;  stroke-width:1.4; fill:none;" />
<text x="454.72135416666663" y="48.964084201388886">14</text>
<rect x="472.51529947916663" y="33.931857638888886" width="18.525390625" height="20.04296875" style="stroke:black;  stroke-width:0; fill:lightgray;" />
<rect x="472.51529947916663" y="33.931857638888886" width="18.525390625" height="20.04296875" style="stroke:black;  stroke-width:1.4; fill:none;" />
<text x="473.18863932291663" y="48.964084201388886">15</text>
<line x1="491.04069010416663" y1="33.931857638888886" x2="497.21582031249994" y2="33.931857638888886" style="stroke:black; stroke-width:1.4; stroke-dasharray: 4.199999999999999 4.199999999999999" />
<line x1="491.04069010416663" y1="53.974826388888886" x2="497.21582031249994" y2="53.974826388888886" style="stroke:black; stroke-width:1.4; stroke-dasharray: 4.199999999999999 4.199999999999999" />
<text x="494.1282552083333" y="48.964084201388886"></text>
<line x1="497.21582031249994" y1="33.931857638888886" x2="503.39095052083326" y2="33.931857638888886" style="stroke:black; stroke-width:1.4; stroke-dasharray: 4.199999999999999 4.199999999999999" />
<line x1="497.21582031249994" y1="53.974826388888886" x2="503.39095052083326" y2="53.974826388888886" style="stroke:black; stroke-width:1.4; stroke-dasharray: 4.199999999999999 4.199999999999999" />
<text x="500.30338541666663" y="48.964084201388886"></text>
<rect x="503.39095052083326" y="33.931857638888886" width="18.525390625" height="20.04296875" style="stroke:black;  stroke-width:1.4; fill:none;" />
<text x="504.09163411458326" y="48.964084201388886">18</text>
<rect x="521.9163411458333" y="33.931857638888886" width="18.525390625" height="20.04296875" style="stroke:black;  stroke-width:1.4; fill:none;" />
<text x="522.6170247395833" y="48.964084201388886">19</text>
<line x1="540.4417317708333" y1="43.953342013888886" x2="558.9671223958333" y2="43.953342013888886" style="stroke:black; stroke-width:1.4; " />
<rect x="558.9671223958333" y="33.931857638888886" width="18.525390625" height="20.04296875" style="stroke:black;  stroke-width:1.4; fill:none;" />
<text x="560.9837239583333" y="48.964084201388886">20</text>
<text x="5" y="84.67335069444444">hospitalization</text>
<rect x="200.8095703125" y="75.54327256944444" width="92.626953125" height="8.0171875" style="stroke:black;  stroke-width:1.4; fill:none;" />
<rect x="398.41373697916663" y="75.54327256944444" width="92.626953125" height="8.0171875" style="stroke:black;  stroke-width:1.4; fill:none;" />
<text x="5" y="112.62808159722223">fecal sampling</text>
<rect x="219.3349609375" y="103.36401909722223" width="74.1015625" height="8.0171875" style="stroke:black;  stroke-width:1.4; fill:none;" />
<rect x="416.93912760416663" y="103.36401909722223" width="74.1015625" height="8.0171875" style="stroke:black;  stroke-width:1.4; fill:none;" />
<text x="5" y="140.31484375">tepotinib</text>
<path d="M228.2368828125, 135.193359375 L228.2368828125, 129.18046875 L228.9584296875, 129.18046875 L228.9584296875, 135.193359375 L230.852490234375, 135.193359375 L228.59765625, 141.20625 L226.342822265625, 135.193359375 L228.2368828125, 135.193359375 Z" style="stroke: black; fill: black; stroke-width:1.4; " /><path d="M425.84104947916666, 135.193359375 L425.84104947916666, 129.18046875 L426.5625963541666, 129.18046875 L426.5625963541666, 135.193359375 L428.45665690104164, 135.193359375 L426.20182291666663, 141.20625 L423.9469889322916, 135.193359375 L425.84104947916666, 135.193359375 Z" style="stroke: black; fill: black; stroke-width:1.4; " /><text x="5" y="167.08832465277777">itraconazole</text>
<path d="M351.73948697916666, 163.01410590277777 L351.73948697916666, 157.00121527777776 L352.4610338541666, 157.00121527777776 L352.4610338541666, 163.01410590277777 L354.35509440104164, 163.01410590277777 L352.10026041666663, 169.02699652777778 L349.8454264322916, 163.01410590277777 L351.73948697916666, 163.01410590277777 Z" style="stroke: black; fill: black; stroke-width:1.4; " /><path d="M370.26487760416666, 163.01410590277777 L370.26487760416666, 157.00121527777776 L370.9864244791666, 157.00121527777776 L370.9864244791666, 163.01410590277777 L372.88048502604164, 163.01410590277777 L370.62565104166663, 169.02699652777778 L368.3708170572916, 163.01410590277777 L370.26487760416666, 163.01410590277777 Z" style="stroke: black; fill: black; stroke-width:1.4; " /><path d="M388.79026822916666, 163.01410590277777 L388.79026822916666, 157.00121527777776 L389.5118151041666, 157.00121527777776 L389.5118151041666, 163.01410590277777 L391.40587565104164, 163.01410590277777 L389.15104166666663, 169.02699652777778 L386.8962076822916, 163.01410590277777 L388.79026822916666, 163.01410590277777 Z" style="stroke: black; fill: black; stroke-width:1.4; " /><path d="M407.31565885416666, 163.01410590277777 L407.31565885416666, 157.00121527777776 L408.0372057291666, 157.00121527777776 L408.0372057291666, 163.01410590277777 L409.93126627604164, 163.01410590277777 L407.67643229166663, 169.02699652777778 L405.4215983072916, 163.01410590277777 L407.31565885416666, 163.01410590277777 Z" style="stroke: black; fill: black; stroke-width:1.4; " /><path d="M425.84104947916666, 163.01410590277777 L425.84104947916666, 157.00121527777776 L426.5625963541666, 157.00121527777776 L426.5625963541666, 163.01410590277777 L428.45665690104164, 163.01410590277777 L426.20182291666663, 169.02699652777778 L423.9469889322916, 163.01410590277777 L425.84104947916666, 163.01410590277777 Z" style="stroke: black; fill: black; stroke-width:1.4; " /><path d="M444.36644010416666, 163.01410590277777 L444.36644010416666, 157.00121527777776 L445.0879869791666, 157.00121527777776 L445.0879869791666, 163.01410590277777 L446.98204752604164, 163.01410590277777 L444.72721354166663, 169.02699652777778 L442.4723795572916, 163.01410590277777 L444.36644010416666, 163.01410590277777 Z" style="stroke: black; fill: black; stroke-width:1.4; " /><path d="M462.89183072916666, 163.01410590277777 L462.89183072916666, 157.00121527777776 L463.6133776041666, 157.00121527777776 L463.6133776041666, 163.01410590277777 L465.50743815104164, 163.01410590277777 L463.25260416666663, 169.02699652777778 L460.9977701822916, 163.01410590277777 L462.89183072916666, 163.01410590277777 Z" style="stroke: black; fill: black; stroke-width:1.4; " /><path d="M481.41722135416666, 163.01410590277777 L481.41722135416666, 157.00121527777776 L482.1387682291666, 157.00121527777776 L482.1387682291666, 163.01410590277777 L484.03282877604164, 163.01410590277777 L481.77799479166663, 169.02699652777778 L479.5231608072916, 163.01410590277777 L481.41722135416666, 163.01410590277777 Z" style="stroke: black; fill: black; stroke-width:1.4; " /><circle cx="494.1282552083333" cy="163.01410590277777" r="0.6680989583333333" style="stroke:black;  stroke-width:1.2; fill:black;"/>
<circle cx="500.30338541666663" cy="163.01410590277777" r="0.6680989583333333" style="stroke:black;  stroke-width:1.2; fill:black;"/>
<path d="M512.2928723958332, 163.01410590277777 L512.2928723958332, 157.00121527777776 L513.0144192708333, 157.00121527777776 L513.0144192708333, 163.01410590277777 L514.9084798177082, 163.01410590277777 L512.6536458333333, 169.02699652777778 L510.39881184895825, 163.01410590277777 L512.2928723958332, 163.01410590277777 Z" style="stroke: black; fill: black; stroke-width:1.4; " /><text x="5" y="194.90907118055554">laxative</text>
<path d="M262.14091796875, 190.83485243055554 L265.6484375, 183.81981336805555 L269.15595703125, 190.83485243055554 L265.6484375, 197.84989149305554 L262.14091796875, 190.83485243055554 Z" style="stroke: black; fill: none; stroke-width:1.4; " /><path d="M459.7450846354166, 190.83485243055554 L463.25260416666663, 183.81981336805555 L466.76012369791664, 190.83485243055554 L463.25260416666663, 197.84989149305554 L459.7450846354166, 190.83485243055554 Z" style="stroke: black; fill: none; stroke-width:1.4; " /><text x="5" y="223.84270833333332">PK sampling tepotinib</text>
<path d="M222.11376953125, 222.41365559895831 L222.11376953125, 214.89754231770831 L235.08154296875, 214.89754231770831 L235.08154296875, 222.41365559895831 L222.11376953125, 222.41365559895831 Z" style="stroke: black; fill: none; stroke-width:1.4; " /><path d="M240.63916015625, 222.41365559895831 L240.63916015625, 214.89754231770831 L253.60693359375, 214.89754231770831 L253.60693359375, 222.41365559895831 L240.63916015625, 222.41365559895831 Z" style="stroke: black; fill: none; stroke-width:1.4; " /><path d="M259.16455078125, 222.41365559895831 L259.16455078125, 214.89754231770831 L272.13232421875, 214.89754231770831 L272.13232421875, 222.41365559895831 L259.16455078125, 222.41365559895831 Z" style="stroke: black; fill: none; stroke-width:1.4; " /><path d="M280.66630859375, 218.65559895833331 L284.173828125, 211.64055989583332 L287.68134765625, 218.65559895833331 L284.173828125, 225.6706380208333 L280.66630859375, 218.65559895833331 Z" style="stroke: black; fill: none; stroke-width:1.4; " /><circle cx="296.5240885416667" cy="218.65559895833331" r="0.6680989583333333" style="stroke:black;  stroke-width:1.2; fill:black;"/>
<circle cx="302.69921875" cy="218.65559895833331" r="0.6680989583333333" style="stroke:black;  stroke-width:1.2; fill:black;"/>
<path d="M311.5419596354166, 218.65559895833331 L315.04947916666663, 211.64055989583332 L318.55699869791664, 218.65559895833331 L315.04947916666663, 225.6706380208333 L311.5419596354166, 218.65559895833331 Z" style="stroke: black; fill: none; stroke-width:1.4; " /><path d="M419.71793619791663, 222.41365559895831 L419.71793619791663, 214.89754231770831 L432.68570963541663, 214.89754231770831 L432.68570963541663, 222.41365559895831 L419.71793619791663, 222.41365559895831 Z" style="stroke: black; fill: none; stroke-width:1.4; " /><path d="M441.2196940104166, 218.65559895833331 L444.72721354166663, 211.64055989583332 L448.23473307291664, 218.65559895833331 L444.72721354166663, 225.6706380208333 L441.2196940104166, 218.65559895833331 Z" style="stroke: black; fill: none; stroke-width:1.4; " /><path d="M459.7450846354166, 218.65559895833331 L463.25260416666663, 211.64055989583332 L466.76012369791664, 218.65559895833331 L463.25260416666663, 225.6706380208333 L459.7450846354166, 218.65559895833331 Z" style="stroke: black; fill: none; stroke-width:1.4; " /><path d="M478.2704752604166, 218.65559895833331 L481.77799479166663, 211.64055989583332 L485.28551432291664, 218.65559895833331 L481.77799479166663, 225.6706380208333 L478.2704752604166, 218.65559895833331 Z" style="stroke: black; fill: none; stroke-width:1.4; " /><circle cx="494.1282552083333" cy="218.65559895833331" r="0.6680989583333333" style="stroke:black;  stroke-width:1.2; fill:black;"/>
<circle cx="500.30338541666663" cy="218.65559895833331" r="0.6680989583333333" style="stroke:black;  stroke-width:1.2; fill:black;"/>
<path d="M509.14612630208325, 218.65559895833331 L512.6536458333333, 211.64055989583332 L516.1611653645832, 218.65559895833331 L512.6536458333333, 225.6706380208333 L509.14612630208325, 218.65559895833331 Z" style="stroke: black; fill: none; stroke-width:1.4; " /><path d="M527.6715169270833, 218.65559895833331 L531.1790364583333, 211.64055989583332 L534.6865559895832, 218.65559895833331 L531.1790364583333, 225.6706380208333 L527.6715169270833, 218.65559895833331 Z" style="stroke: black; fill: none; stroke-width:1.4; " /><path d="M219.3349609375, 236.4548611111111 A6.680989583333333, 6.680989583333333, 0, 0 0 226.01595052083334, 243.13585069444443 L265.142578125, 243.13585069444443 A6.680989583333333, 6.680989583333333 0, 0 1 271.8235677083333, 249.81684027777774 A6.680989583333333, 6.680989583333333, 0, 0 1 278.50455729166663, 243.13585069444443 L317.6311848958333, 243.13585069444443 A6.680989583333333, 6.680989583333333 0, 0 0 324.31217447916663, 236.4548611111111 " style="stroke: black; stroke-width:1.4; fill:none" /><path d="M197.30205078125, 271.5049913194444 L200.8095703125, 264.4899522569444 L204.31708984375, 271.5049913194444 L200.8095703125, 278.5200303819444 L197.30205078125, 271.5049913194444 Z" style="stroke: black; fill: none; stroke-width:1.4; " /><path d="M207.59393446180553, 271.5049913194444 L211.10145399305554, 264.4899522569444 L214.60897352430555, 271.5049913194444 L211.10145399305554, 278.5200303819444 L207.59393446180553, 271.5049913194444 Z" style="stroke: black; fill: none; stroke-width:1.4; " /><path d="M212.73987630208333, 271.5049913194444 L216.24739583333334, 264.4899522569444 L219.75491536458335, 271.5049913194444 L216.24739583333334, 278.5200303819444 L212.73987630208333, 271.5049913194444 Z" style="stroke: black; fill: none; stroke-width:1.4; " /><path d="M217.8858181423611, 271.5049913194444 L221.39333767361111, 264.4899522569444 L224.90085720486113, 271.5049913194444 L221.39333767361111, 278.5200303819444 L217.8858181423611, 271.5049913194444 Z" style="stroke: black; fill: none; stroke-width:1.4; " /><path d="M228.17770182291665, 271.5049913194444 L231.68522135416666, 264.4899522569444 L235.19274088541667, 271.5049913194444 L231.68522135416666, 278.5200303819444 L228.17770182291665, 271.5049913194444 Z" style="stroke: black; fill: none; stroke-width:1.4; " /><path d="M238.46958550347222, 271.5049913194444 L241.97710503472223, 264.4899522569444 L245.48462456597224, 271.5049913194444 L241.97710503472223, 278.5200303819444 L238.46958550347222, 271.5049913194444 Z" style="stroke: black; fill: none; stroke-width:1.4; " /><path d="M259.0533528645833, 271.5049913194444 L262.5608723958333, 264.4899522569444 L266.0683919270833, 271.5049913194444 L262.5608723958333, 278.5200303819444 L259.0533528645833, 271.5049913194444 Z" style="stroke: black; fill: none; stroke-width:1.4; " /><path d="M279.63712022569445, 271.5049913194444 L283.14463975694446, 264.4899522569444 L286.65215928819447, 271.5049913194444 L283.14463975694446, 278.5200303819444 L279.63712022569445, 271.5049913194444 Z" style="stroke: black; fill: none; stroke-width:1.4; " /><path d="M320.8046549479167, 271.5049913194444 L324.3121744791667, 264.4899522569444 L327.8196940104167, 271.5049913194444 L324.3121744791667, 278.5200303819444 L320.8046549479167, 271.5049913194444 Z" style="stroke: black; fill: none; stroke-width:1.4; " /><path d="M361.9721896701389, 271.5049913194444 L365.4797092013889, 264.4899522569444 L368.9872287326389, 271.5049913194444 L365.4797092013889, 278.5200303819444 L361.9721896701389, 271.5049913194444 Z" style="stroke: black; fill: none; stroke-width:1.4; " /><path d="M392.39287109375, 271.5049913194444 L395.900390625, 264.4899522569444 L399.40791015625, 271.5049913194444 L395.900390625, 278.5200303819444 L392.39287109375, 271.5049913194444 Z" style="stroke: black; fill: none; stroke-width:1.4; " /><path d="M400.23745117187497, 271.5049913194444 L403.744970703125, 264.4899522569444 L407.252490234375, 271.5049913194444 L403.744970703125, 278.5200303819444 L400.23745117187497, 271.5049913194444 Z" style="stroke: black; fill: none; stroke-width:1.4; " /><path d="M410.69689127604164, 271.5049913194444 L414.20441080729165, 264.4899522569444 L417.71193033854166, 271.5049913194444 L414.20441080729165, 278.5200303819444 L410.69689127604164, 271.5049913194444 Z" style="stroke: black; fill: none; stroke-width:1.4; " /><path d="M423.77119140625, 271.5049913194444 L427.2787109375, 264.4899522569444 L430.78623046875003, 271.5049913194444 L427.2787109375, 278.5200303819444 L423.77119140625, 271.5049913194444 Z" style="stroke: black; fill: none; stroke-width:1.4; " /><path d="M439.46035156249997, 271.5049913194444 L442.96787109375, 264.4899522569444 L446.475390625, 271.5049913194444 L442.96787109375, 278.5200303819444 L439.46035156249997, 271.5049913194444 Z" style="stroke: black; fill: none; stroke-width:1.4; " /><path d="M455.14951171875, 271.5049913194444 L458.65703125, 264.4899522569444 L462.16455078125, 271.5049913194444 L458.65703125, 278.5200303819444 L455.14951171875, 271.5049913194444 Z" style="stroke: black; fill: none; stroke-width:1.4; " /><path d="M486.52783203125, 271.5049913194444 L490.0353515625, 264.4899522569444 L493.54287109375, 271.5049913194444 L490.0353515625, 278.5200303819444 L486.52783203125, 271.5049913194444 Z" style="stroke: black; fill: none; stroke-width:1.4; " /><path d="M517.90615234375, 271.5049913194444 L521.413671875, 264.4899522569444 L524.9211914062499, 271.5049913194444 L521.413671875, 278.5200303819444 L517.90615234375, 271.5049913194444 Z" style="stroke: black; fill: none; stroke-width:1.4; " /><path d="M549.28447265625, 271.5049913194444 L552.7919921875, 264.4899522569444 L556.29951171875, 271.5049913194444 L552.7919921875, 278.5200303819444 L549.28447265625, 271.5049913194444 Z" style="stroke: black; fill: none; stroke-width:1.4; " /><line x1="200.8095703125" y1="289.3042534722222" x2="386.0634765625" y2="289.3042534722222" style="stroke:black; stroke-width:1.4; " />
<line x1="200.8095703125" y1="285.9637586805555" x2="200.8095703125" y2="292.64474826388886" style="stroke:black; stroke-width:1.4; " />
<text x="197.5419921875" y="310.44401041666663">0</text>
<line x1="221.39333767361111" y1="285.9637586805555" x2="221.39333767361111" y2="292.64474826388886" style="stroke:black; stroke-width:1.4; " />
<text x="218.07449001736111" y="310.44401041666663">2</text>
<line x1="241.97710503472223" y1="285.9637586805555" x2="241.97710503472223" y2="292.64474826388886" style="stroke:black; stroke-width:1.4; " />
<text x="238.51128472222223" y="310.44401041666663">4</text>
<line x1="262.5608723958333" y1="285.9637586805555" x2="262.5608723958333" y2="292.64474826388886" style="stroke:black; stroke-width:1.4; " />
<text x="259.2522786458333" y="310.44401041666663">6</text>
<line x1="283.14463975694446" y1="285.9637586805555" x2="283.14463975694446" y2="292.64474826388886" style="stroke:black; stroke-width:1.4; " />
<text x="279.84288194444446" y="310.44401041666663">8</text>
<line x1="303.72840711805554" y1="285.9637586805555" x2="303.72840711805554" y2="292.64474826388886" style="stroke:black; stroke-width:1.4; " />
<text x="297.03944227430554" y="310.44401041666663">10</text>
<line x1="324.3121744791667" y1="285.9637586805555" x2="324.3121744791667" y2="292.64474826388886" style="stroke:black; stroke-width:1.4; " />
<text x="317.6573893229167" y="310.44401041666663">12</text>
<line x1="344.89594184027777" y1="285.9637586805555" x2="344.89594184027777" y2="292.64474826388886" style="stroke:black; stroke-width:1.4; " />
<text x="338.21039496527777" y="310.44401041666663">14</text>
<line x1="365.4797092013889" y1="285.9637586805555" x2="365.4797092013889" y2="292.64474826388886" style="stroke:black; stroke-width:1.4; " />
<text x="358.7770724826389" y="310.44401041666663">16</text>
<text x="358.7770724826389" y="310.44401041666663">16</text>
<line x1="395.900390625" y1="289.3042534722222" x2="552.7919921875" y2="289.3042534722222" style="stroke:black; stroke-width:1.4; " />
<line x1="395.900390625" y1="285.9637586805555" x2="395.900390625" y2="292.64474826388886" style="stroke:black; stroke-width:1.4; " />
<text x="388.65771484375" y="310.44401041666663">24</text>
<line x1="427.2787109375" y1="285.9637586805555" x2="427.2787109375" y2="292.64474826388886" style="stroke:black; stroke-width:1.4; " />
<text x="419.8890625" y="310.44401041666663">48</text>
<line x1="458.65703125" y1="285.9637586805555" x2="458.65703125" y2="292.64474826388886" style="stroke:black; stroke-width:1.4; " />
<text x="451.57158203125" y="310.44401041666663">72</text>
<line x1="490.0353515625" y1="285.9637586805555" x2="490.0353515625" y2="292.64474826388886" style="stroke:black; stroke-width:1.4; " />
<text x="482.86103515625" y="310.44401041666663">96</text>
<line x1="521.413671875" y1="285.9637586805555" x2="521.413671875" y2="292.64474826388886" style="stroke:black; stroke-width:1.4; " />
<text x="510.831640625" y="310.44401041666663">120</text>
<line x1="552.7919921875" y1="285.9637586805555" x2="552.7919921875" y2="292.64474826388886" style="stroke:black; stroke-width:1.4; " />
<text x="542.21337890625" y="310.44401041666663">144 h</text>
</svg>