<svg width="546.6168619791667" height="236.4548611111111" xmlns="http://www.w3.org/2000/svg">
<style>text {font-family: Arial; font-size: 14px ;}</style>
<desc>Trial design autogenerated by td.py V2.0 (Dec-2021), author: Rainer Strotmann</desc><title>ms0053</title><text x="171.17578125" y="25.0322265625">1</text>
<text x="225.96354166666666" y="25.0322265625">Period 1</text>
<text x="379.42578125" y="25.0322265625">Period 2</text>
<text x="508.69108072916663" y="25.0322265625">F/U</text>
<rect x="163.7587890625" y="33.931857638888886" width="18.525390625" height="20.04296875" style="stroke:black;  stroke-width:1.4; fill:none;" />
<text x="173.021484375" y="48.964084201388886"></text>
<line x1="182.2841796875" y1="43.953342013888886" x2="200.8095703125" y2="43.953342013888886" style="stroke:black; stroke-width:1.4; " />
<rect x="200.8095703125" y="33.931857638888886" width="18.525390625" height="20.04296875" style="stroke:black;  stroke-width:1.4; fill:none;" />
<text x="205.35546875" y="48.964084201388886">-1</text>
<rect x="219.3349609375" y="33.931857638888886" width="18.525390625" height="20.04296875" style="stroke:black;  stroke-width:0; fill:lightgray;" />
<rect x="219.3349609375" y="33.931857638888886" width="18.525390625" height="20.04296875" style="stroke:black;  stroke-width:1.4; fill:none;" />
<text x="224.90625" y="48.964084201388886">1</text>
<line x1="237.8603515625" y1="33.931857638888886" x2="244.03548177083334" y2="33.931857638888886" style="stroke:black; stroke-width:1.4; stroke-dasharray: 4.199999999999999 4.199999999999999" />
<line x1="237.8603515625" y1="53.974826388888886" x2="244.03548177083334" y2="53.974826388888886" style="stroke:black; stroke-width:1.4; stroke-dasharray: 4.199999999999999 4.199999999999999" />
<text x="240.94791666666666" y="48.964084201388886"></text>
<line x1="244.03548177083334" y1="33.931857638888886" x2="250.21061197916669" y2="33.931857638888886" style="stroke:black; stroke-width:1.4; stroke-dasharray: 4.199999999999999 4.199999999999999" />
<line x1="244.03548177083334" y1="53.974826388888886" x2="250.21061197916669" y2="53.974826388888886" style="stroke:black; stroke-width:1.4; stroke-dasharray: 4.199999999999999 4.199999999999999" />
<text x="247.123046875" y="48.964084201388886"></text>
<rect x="250.21061197916669" y="33.931857638888886" width="18.525390625" height="20.04296875" style="stroke:black;  stroke-width:1.4; fill:none;" />
<text x="256.0074869791667" y="48.964084201388886">4</text>
<line x1="268.7360026041667" y1="33.931857638888886" x2="274.9111328125" y2="33.931857638888886" style="stroke:black; stroke-width:1.4; stroke-dasharray: 4.199999999999999 4.199999999999999" />
<line x1="268.7360026041667" y1="53.974826388888886" x2="274.9111328125" y2="53.974826388888886" style="stroke:black; stroke-width:1.4; stroke-dasharray: 4.199999999999999 4.199999999999999" />
<text x="271.82356770833337" y="48.964084201388886"></text>
<line x1="274.9111328125" y1="33.931857638888886" x2="281.0862630208333" y2="33.931857638888886" style="stroke:black; stroke-width:1.4; stroke-dasharray: 4.199999999999999 4.199999999999999" />
<line x1="274.9111328125" y1="53.974826388888886" x2="281.0862630208333" y2="53.974826388888886" style="stroke:black; stroke-width:1.4; stroke-dasharray: 4.199999999999999 4.199999999999999" />
<text x="277.9986979166667" y="48.964084201388886"></text>
<rect x="281.0862630208333" y="33.931857638888886" width="18.525390625" height="20.04296875" style="stroke:black;  stroke-width:1.4; fill:none;" />
<text x="287.1053059895833" y="48.964084201388886">7</text>
<line x1="299.6116536458333" y1="43.953342013888886" x2="318.1370442708333" y2="43.953342013888886" style="stroke:black; stroke-width:1.4; " />
<rect x="318.1370442708333" y="33.931857638888886" width="18.525390625" height="20.04296875" style="stroke:black;  stroke-width:0; fill:lightgray;" />
<rect x="318.1370442708333" y="33.931857638888886" width="18.525390625" height="20.04296875" style="stroke:black;  stroke-width:1.4; fill:none;" />
<text x="324.0979817708333" y="48.964084201388886">8</text>
<line x1="336.6624348958333" y1="33.931857638888886" x2="342.83756510416663" y2="33.931857638888886" style="stroke:black; stroke-width:1.4; stroke-dasharray: 4.199999999999999 4.199999999999999" />
<line x1="336.6624348958333" y1="53.974826388888886" x2="342.83756510416663" y2="53.974826388888886" style="stroke:black; stroke-width:1.4; stroke-dasharray: 4.199999999999999 4.199999999999999" />
<text x="339.75" y="48.964084201388886"></text>
<line x1="342.83756510416663" y1="33.931857638888886" x2="349.01269531249994" y2="33.931857638888886" style="stroke:black; stroke-width:1.4; stroke-dasharray: 4.199999999999999 4.199999999999999" />
<line x1="342.83756510416663" y1="53.974826388888886" x2="349.01269531249994" y2="53.974826388888886" style="stroke:black; stroke-width:1.4; stroke-dasharray: 4.199999999999999 4.199999999999999" />
<text x="345.9251302083333" y="48.964084201388886"></text>
<rect x="349.01269531249994" y="33.931857638888886" width="18.525390625" height="20.04296875" style="stroke:black;  stroke-width:1.4; fill:none;" />
<text x="350.69091796874994" y="48.964084201388886">11</text>
<rect x="367.53808593749994" y="33.931857638888886" width="18.525390625" height="20.04296875" style="stroke:black;  stroke-width:1.4; fill:none;" />
<text x="368.30029296874994" y="48.964084201388886">12</text>
<rect x="386.06347656249994" y="33.931857638888886" width="18.525390625" height="20.04296875" style="stroke:black;  stroke-width:1.4; fill:none;" />
<text x="386.77441406249994" y="48.964084201388886">13</text>
<rect x="404.58886718749994" y="33.931857638888886" width="18.525390625" height="20.04296875" style="stroke:black;  stroke-width:1.4; fill:none;" />
<text x="405.32031249999994" y="48.964084201388886">14</text>
<rect x="423.11425781249994" y="33.931857638888886" width="18.525390625" height="20.04296875" style="stroke:black;  stroke-width:0; fill:lightgray;" />
<rect x="423.11425781249994" y="33.931857638888886" width="18.525390625" height="20.04296875" style="stroke:black;  stroke-width:1.4; fill:none;" />
<text x="423.78759765624994" y="48.964084201388886">15</text>
<line x1="441.63964843749994" y1="33.931857638888886" x2="447.81477864583326" y2="33.931857638888886" style="stroke:black; stroke-width:1.4; stroke-dasharray: 4.199999999999999 4.199999999999999" />
<line x1="441.63964843749994" y1="53.974826388888886" x2="447.81477864583326" y2="53.974826388888886" style="stroke:black; stroke-width:1.4; stroke-dasharray: 4.199999999999999 4.199999999999999" />
<text x="444.72721354166663" y="48.964084201388886"></text>
<line x1="447.81477864583326" y1="33.931857638888886" x2="453.9899088541666" y2="33.931857638888886" style="stroke:black; stroke-width:1.4; stroke-dasharray: 4.199999999999999 4.199999999999999" />
<line x1="447.81477864583326" y1="53.974826388888886" x2="453.9899088541666" y2="53.974826388888886" style="stroke:black; stroke-width:1.4; stroke-dasharray: 4.199999999999999 4.199999999999999" />
<text x="450.90234374999994" y="48.964084201388886"></text>
<rect x="453.9899088541666" y="33.931857638888886" width="18.525390625" height="20.04296875" style="stroke:black;  stroke-width:1.4; fill:none;" />
<text x="454.6905924479166" y="48.964084201388886">18</text>
<rect x="472.5152994791666" y="33.931857638888886" width="18.525390625" height="20.04296875" style="stroke:black;  stroke-width:1.4; fill:none;" />
<text x="473.2159830729166" y="48.964084201388886">19</text>
<line x1="491.04069010416663" y1="43.953342013888886" x2="509.56608072916663" y2="43.953342013888886" style="stroke:black; stroke-width:1.4; " />
<rect x="509.56608072916663" y="33.931857638888886" width="18.525390625" height="20.04296875" style="stroke:black;  stroke-width:1.4; fill:none;" />
<text x="511.58268229166663" y="48.964084201388886">20</text>
<text x="5" y="84.67335069444444">hospitalization</text>
<rect x="200.8095703125" y="75.54327256944444" width="67.92643229166669" height="8.0171875" style="stroke:black;  stroke-width:1.4; fill:none;" />
<rect x="349.01269531249994" y="75.54327256944444" width="92.626953125" height="8.0171875" style="stroke:black;  stroke-width:1.4; fill:none;" />
<text x="5" y="112.62808159722223">fecal sampling</text>
<rect x="219.3349609375" y="103.36401909722223" width="49.401041666666686" height="8.0171875" style="stroke:black;  stroke-width:1.4; fill:none;" />
<rect x="367.53808593749994" y="103.36401909722223" width="74.1015625" height="8.0171875" style="stroke:black;  stroke-width:1.4; fill:none;" />
<text x="5" y="140.31484375">tepotinib</text>
<path d="M228.2368828125, 135.193359375 L228.2368828125, 129.18046875 L228.9584296875, 129.18046875 L228.9584296875, 135.193359375 L230.852490234375, 135.193359375 L228.59765625, 141.20625 L226.342822265625, 135.193359375 L228.2368828125, 135.193359375 Z" style="stroke: black; fill: black; stroke-width:1.4; " /><path d="M376.44000781249997, 135.193359375 L376.44000781249997, 129.18046875 L377.1615546874999, 129.18046875 L377.1615546874999, 135.193359375 L379.05561523437495, 135.193359375 L376.80078124999994, 141.20625 L374.54594726562493, 135.193359375 L376.44000781249997, 135.193359375 Z" style="stroke: black; fill: black; stroke-width:1.4; " /><text x="5" y="167.08832465277777">itraconazole</text>
<path d="M327.03896614583334, 163.01410590277777 L327.03896614583334, 157.00121527777776 L327.7605130208333, 157.00121527777776 L327.7605130208333, 163.01410590277777 L329.6545735677083, 163.01410590277777 L327.3997395833333, 169.02699652777778 L325.1449055989583, 163.01410590277777 L327.03896614583334, 163.01410590277777 Z" style="stroke: black; fill: black; stroke-width:1.4; " /><circle cx="339.75" cy="163.01410590277777" r="0.6680989583333333" style="stroke:black;  stroke-width:1.2; fill:black;"/>
<circle cx="345.9251302083333" cy="163.01410590277777" r="0.6680989583333333" style="stroke:black;  stroke-width:1.2; fill:black;"/>
<path d="M357.91461718749997, 163.01410590277777 L357.91461718749997, 157.00121527777776 L358.6361640624999, 157.00121527777776 L358.6361640624999, 163.01410590277777 L360.53022460937495, 163.01410590277777 L358.27539062499994, 169.02699652777778 L356.02055664062493, 163.01410590277777 L357.91461718749997, 163.01410590277777 Z" style="stroke: black; fill: black; stroke-width:1.4; " /><path d="M376.44000781249997, 163.01410590277777 L376.44000781249997, 157.00121527777776 L377.1615546874999, 157.00121527777776 L377.1615546874999, 163.01410590277777 L379.05561523437495, 163.01410590277777 L376.80078124999994, 169.02699652777778 L374.54594726562493, 163.01410590277777 L376.44000781249997, 163.01410590277777 Z" style="stroke: black; fill: black; stroke-width:1.4; " /><path d="M394.96539843749997, 163.01410590277777 L394.96539843749997, 157.00121527777776 L395.6869453124999, 157.00121527777776 L395.6869453124999, 163.01410590277777 L397.58100585937495, 163.01410590277777 L395.32617187499994, 169.02699652777778 L393.07133789062493, 163.01410590277777 L394.96539843749997, 163.01410590277777 Z" style="stroke: black; fill: black; stroke-width:1.4; " /><path d="M413.49078906249997, 163.01410590277777 L413.49078906249997, 157.00121527777776 L414.2123359374999, 157.00121527777776 L414.2123359374999, 163.01410590277777 L416.10639648437495, 163.01410590277777 L413.85156249999994, 169.02699652777778 L411.59672851562493, 163.01410590277777 L413.49078906249997, 163.01410590277777 Z" style="stroke: black; fill: black; stroke-width:1.4; " /><path d="M432.01617968749997, 163.01410590277777 L432.01617968749997, 157.00121527777776 L432.7377265624999, 157.00121527777776 L432.7377265624999, 163.01410590277777 L434.63178710937495, 163.01410590277777 L432.37695312499994, 169.02699652777778 L430.12211914062493, 163.01410590277777 L432.01617968749997, 163.01410590277777 Z" style="stroke: black; fill: black; stroke-width:1.4; " /><circle cx="444.72721354166663" cy="163.01410590277777" r="0.6680989583333333" style="stroke:black;  stroke-width:1.2; fill:black;"/>
<circle cx="450.90234374999994" cy="163.01410590277777" r="0.6680989583333333" style="stroke:black;  stroke-width:1.2; fill:black;"/>
<path d="M462.8918307291666, 163.01410590277777 L462.8918307291666, 157.00121527777776 L463.61337760416654, 157.00121527777776 L463.61337760416654, 163.01410590277777 L465.5074381510416, 163.01410590277777 L463.2526041666666, 169.02699652777778 L460.99777018229156, 163.01410590277777 L462.8918307291666, 163.01410590277777 Z" style="stroke: black; fill: black; stroke-width:1.4; " /><text x="5" y="194.90907118055554">laxative</text>
<circle cx="247.123046875" cy="190.83485243055554" r="0.6680989583333333" style="stroke:black;  stroke-width:1.2; fill:black;"/>
<path d="M410.34404296874993, 190.83485243055554 L413.85156249999994, 183.81981336805555 L417.35908203124995, 190.83485243055554 L413.85156249999994, 197.84989149305554 L410.34404296874993, 190.83485243055554 Z" style="stroke: black; fill: none; stroke-width:1.4; " /><text x="5" y="223.84270833333332">PK sampling tepotinib</text>
<path d="M222.11376953125, 222.41365559895831 L222.11376953125, 214.89754231770831 L235.08154296875, 214.89754231770831 L235.08154296875, 222.41365559895831 L222.11376953125, 222.41365559895831 Z" style="stroke: black; fill: none; stroke-width:1.4; " /><circle cx="240.94791666666666" cy="218.65559895833331" r="0.6680989583333333" style="stroke:black;  stroke-width:1.2; fill:black;"/>
<circle cx="247.123046875" cy="218.65559895833331" r="0.6680989583333333" style="stroke:black;  stroke-width:1.2; fill:black;"/>
<path d="M255.96578776041667, 218.65559895833331 L259.4733072916667, 211.64055989583332 L262.9808268229167, 218.65559895833331 L259.4733072916667, 225.6706380208333 L255.96578776041667, 218.65559895833331 Z" style="stroke: black; fill: none; stroke-width:1.4; " /><circle cx="271.82356770833337" cy="218.65559895833331" r="0.6680989583333333" style="stroke:black;  stroke-width:1.2; fill:black;"/>
<circle cx="277.9986979166667" cy="218.65559895833331" r="0.6680989583333333" style="stroke:black;  stroke-width:1.2; fill:black;"/>
<path d="M286.8414388020833, 218.65559895833331 L290.3489583333333, 211.64055989583332 L293.8564778645833, 218.65559895833331 L290.3489583333333, 225.6706380208333 L286.8414388020833, 218.65559895833331 Z" style="stroke: black; fill: none; stroke-width:1.4; " /><path d="M370.31689453124994, 222.41365559895831 L370.31689453124994, 214.89754231770831 L383.28466796874994, 214.89754231770831 L383.28466796874994, 222.41365559895831 L370.31689453124994, 222.41365559895831 Z" style="stroke: black; fill: none; stroke-width:1.4; " /><path d="M391.81865234374993, 218.65559895833331 L395.32617187499994, 211.64055989583332 L398.83369140624995, 218.65559895833331 L395.32617187499994, 225.6706380208333 L391.81865234374993, 218.65559895833331 Z" style="stroke: black; fill: none; stroke-width:1.4; " /><path d="M410.34404296874993, 218.65559895833331 L413.85156249999994, 211.64055989583332 L417.35908203124995, 218.65559895833331 L413.85156249999994, 225.6706380208333 L410.34404296874993, 218.65559895833331 Z" style="stroke: black; fill: none; stroke-width:1.4; " /><path d="M428.86943359374993, 218.65559895833331 L432.37695312499994, 211.64055989583332 L435.88447265624995, 218.65559895833331 L432.37695312499994, 225.6706380208333 L428.86943359374993, 218.65559895833331 Z" style="stroke: black; fill: none; stroke-width:1.4; " /><circle cx="444.72721354166663" cy="218.65559895833331" r="0.6680989583333333" style="stroke:black;  stroke-width:1.2; fill:black;"/>
<circle cx="450.90234374999994" cy="218.65559895833331" r="0.6680989583333333" style="stroke:black;  stroke-width:1.2; fill:black;"/>
<path d="M459.74508463541656, 218.65559895833331 L463.2526041666666, 211.64055989583332 L466.7601236979166, 218.65559895833331 L463.2526041666666, 225.6706380208333 L459.74508463541656, 218.65559895833331 Z" style="stroke: black; fill: none; stroke-width:1.4; " /><path d="M478.27047526041656, 218.65559895833331 L481.7779947916666, 211.64055989583332 L485.2855143229166, 218.65559895833331 L481.7779947916666, 225.6706380208333 L478.27047526041656, 218.65559895833331 Z" style="stroke: black; fill: none; stroke-width:1.4; " /></svg>