<svg width="586.1468098958333" height="208.63411458333331" xmlns="http://www.w3.org/2000/svg">
<style>text {font-family: Arial; font-size: 14px ;}</style>
<desc>Trial design autogenerated by td.py V2.0 (Dec-2021), author: Rainer Strotmann</desc><title>ms0039</title><rect x="420.96207682291663" y="10" width="151.29069010416666" height="194.74522569444443" style="stroke:black;  stroke-width:0; fill:#eee;" />
<path d="M262.9140625, 10.0 A5.0107421875, 5.0107421875 0 0,0 257.9033203125, 15.0107421875L257.9033203125, 199.73448350694443 A5.0107421875, 5.0107421875 0 0,0 262.9140625 204.74522569444443" style="stroke: black; stroke-width:1.4; fill:none" /><path d="M409.19401041666663, 10.0 A5.0107421875, 5.0107421875 0 0,1 414.20475260416663, 15.0107421875L414.20475260416663, 199.73448350694443 A5.0107421875, 5.0107421875 0 0,1 409.19401041666663 204.74522569444443" style="stroke: black; stroke-width:1.4; fill:none" /><text x="122.11083984375" y="25.0322265625">S</text>
<text x="161.84130859375" y="25.0322265625">Treatment A</text>
<text x="298.0769856770833" y="25.0322265625">Treatment B</text>
<text x="458.14843749999994" y="25.0322265625">Treatment C</text>
<rect x="116.8369140625" y="33.931857638888886" width="18.525390625" height="20.04296875" style="stroke:black;  stroke-width:1.4; fill:none;" />
<text x="126.099609375" y="48.964084201388886"></text>
<line x1="135.3623046875" y1="43.953342013888886" x2="153.8876953125" y2="43.953342013888886" style="stroke:black; stroke-width:1.4; " />
<rect x="153.8876953125" y="33.931857638888886" width="18.525390625" height="20.04296875" style="stroke:black;  stroke-width:0; fill:lightgray;" />
<rect x="153.8876953125" y="33.931857638888886" width="18.525390625" height="20.04296875" style="stroke:black;  stroke-width:1.4; fill:none;" />
<text x="159.458984375" y="48.964084201388886">1</text>
<rect x="172.4130859375" y="33.931857638888886" width="18.525390625" height="20.04296875" style="stroke:black;  stroke-width:1.4; fill:none;" />
<text x="178.35693359375" y="48.964084201388886">2</text>
<rect x="190.9384765625" y="33.931857638888886" width="18.525390625" height="20.04296875" style="stroke:black;  stroke-width:1.4; fill:none;" />
<text x="196.919921875" y="48.964084201388886">3</text>
<line x1="209.4638671875" y1="33.931857638888886" x2="215.63899739583334" y2="33.931857638888886" style="stroke:black; stroke-width:1.4; stroke-dasharray: 4.199999999999999 4.199999999999999" />
<line x1="209.4638671875" y1="53.974826388888886" x2="215.63899739583334" y2="53.974826388888886" style="stroke:black; stroke-width:1.4; stroke-dasharray: 4.199999999999999 4.199999999999999" />
<text x="212.55143229166666" y="48.964084201388886"></text>
<line x1="215.63899739583334" y1="33.931857638888886" x2="221.81412760416669" y2="33.931857638888886" style="stroke:black; stroke-width:1.4; stroke-dasharray: 4.199999999999999 4.199999999999999" />
<line x1="215.63899739583334" y1="53.974826388888886" x2="221.81412760416669" y2="53.974826388888886" style="stroke:black; stroke-width:1.4; stroke-dasharray: 4.199999999999999 4.199999999999999" />
<text x="218.7265625" y="48.964084201388886"></text>
<line x1="221.81412760416669" y1="33.931857638888886" x2="227.98925781250003" y2="33.931857638888886" style="stroke:black; stroke-width:1.4; stroke-dasharray: 4.199999999999999 4.199999999999999" />
<line x1="221.81412760416669" y1="53.974826388888886" x2="227.98925781250003" y2="53.974826388888886" style="stroke:black; stroke-width:1.4; stroke-dasharray: 4.199999999999999 4.199999999999999" />
<text x="224.90169270833334" y="48.964084201388886"></text>
<rect x="227.98925781250003" y="33.931857638888886" width="18.525390625" height="20.04296875" style="stroke:black;  stroke-width:1.4; fill:none;" />
<text x="234.00830078125003" y="48.964084201388886">7</text>
<line x1="246.5146484375" y1="43.953342013888886" x2="265.0400390625" y2="43.953342013888886" style="stroke:black; stroke-width:1.4; " />
<rect x="265.0400390625" y="33.931857638888886" width="18.525390625" height="20.04296875" style="stroke:black;  stroke-width:0; fill:lightgray;" />
<rect x="265.0400390625" y="33.931857638888886" width="18.525390625" height="20.04296875" style="stroke:black;  stroke-width:1.4; fill:none;" />
<text x="270.611328125" y="48.964084201388886">1</text>
<line x1="283.5654296875" y1="33.931857638888886" x2="289.7405598958333" y2="33.931857638888886" style="stroke:black; stroke-width:1.4; stroke-dasharray: 4.199999999999999 4.199999999999999" />
<line x1="283.5654296875" y1="53.974826388888886" x2="289.7405598958333" y2="53.974826388888886" style="stroke:black; stroke-width:1.4; stroke-dasharray: 4.199999999999999 4.199999999999999" />
<text x="286.6529947916667" y="48.964084201388886"></text>
<line x1="289.7405598958333" y1="33.931857638888886" x2="295.91569010416663" y2="33.931857638888886" style="stroke:black; stroke-width:1.4; stroke-dasharray: 4.199999999999999 4.199999999999999" />
<line x1="289.7405598958333" y1="53.974826388888886" x2="295.91569010416663" y2="53.974826388888886" style="stroke:black; stroke-width:1.4; stroke-dasharray: 4.199999999999999 4.199999999999999" />
<text x="292.828125" y="48.964084201388886"></text>
<line x1="295.91569010416663" y1="33.931857638888886" x2="302.09082031249994" y2="33.931857638888886" style="stroke:black; stroke-width:1.4; stroke-dasharray: 4.199999999999999 4.199999999999999" />
<line x1="295.91569010416663" y1="53.974826388888886" x2="302.09082031249994" y2="53.974826388888886" style="stroke:black; stroke-width:1.4; stroke-dasharray: 4.199999999999999 4.199999999999999" />
<text x="299.0032552083333" y="48.964084201388886"></text>
<rect x="302.09082031249994" y="33.931857638888886" width="18.525390625" height="20.04296875" style="stroke:black;  stroke-width:1.4; fill:none;" />
<text x="308.03124999999994" y="48.964084201388886">5</text>
<rect x="320.61621093749994" y="33.931857638888886" width="18.525390625" height="20.04296875" style="stroke:black;  stroke-width:1.4; fill:none;" />
<text x="326.57031249999994" y="48.964084201388886">6</text>
<rect x="339.14160156249994" y="33.931857638888886" width="18.525390625" height="20.04296875" style="stroke:black;  stroke-width:1.4; fill:none;" />
<text x="345.16064453124994" y="48.964084201388886">7</text>
<rect x="357.66699218749994" y="33.931857638888886" width="18.525390625" height="20.04296875" style="stroke:black;  stroke-width:0; fill:lightgray;" />
<rect x="357.66699218749994" y="33.931857638888886" width="18.525390625" height="20.04296875" style="stroke:black;  stroke-width:1.4; fill:none;" />
<text x="363.62792968749994" y="48.964084201388886">8</text>
<line x1="376.19238281249994" y1="33.931857638888886" x2="382.36751302083326" y2="33.931857638888886" style="stroke:black; stroke-width:1.4; stroke-dasharray: 4.199999999999999 4.199999999999999" />
<line x1="376.19238281249994" y1="53.974826388888886" x2="382.36751302083326" y2="53.974826388888886" style="stroke:black; stroke-width:1.4; stroke-dasharray: 4.199999999999999 4.199999999999999" />
<text x="379.27994791666663" y="48.964084201388886"></text>
<line x1="382.36751302083326" y1="33.931857638888886" x2="388.5426432291666" y2="33.931857638888886" style="stroke:black; stroke-width:1.4; stroke-dasharray: 4.199999999999999 4.199999999999999" />
<line x1="382.36751302083326" y1="53.974826388888886" x2="388.5426432291666" y2="53.974826388888886" style="stroke:black; stroke-width:1.4; stroke-dasharray: 4.199999999999999 4.199999999999999" />
<text x="385.45507812499994" y="48.964084201388886"></text>
<rect x="388.5426432291666" y="33.931857638888886" width="18.525390625" height="20.04296875" style="stroke:black;  stroke-width:1.4; fill:none;" />
<text x="390.2208658854166" y="48.964084201388886">11</text>
<line x1="407.06803385416663" y1="43.953342013888886" x2="425.59342447916663" y2="43.953342013888886" style="stroke:black; stroke-width:1.4; " />
<rect x="425.59342447916663" y="33.931857638888886" width="18.525390625" height="20.04296875" style="stroke:black;  stroke-width:0; fill:lightgray;" />
<rect x="425.59342447916663" y="33.931857638888886" width="18.525390625" height="20.04296875" style="stroke:black;  stroke-width:1.4; fill:none;" />
<text x="431.16471354166663" y="48.964084201388886">1</text>
<line x1="444.11881510416663" y1="33.931857638888886" x2="450.29394531249994" y2="33.931857638888886" style="stroke:black; stroke-width:1.4; stroke-dasharray: 4.199999999999999 4.199999999999999" />
<line x1="444.11881510416663" y1="53.974826388888886" x2="450.29394531249994" y2="53.974826388888886" style="stroke:black; stroke-width:1.4; stroke-dasharray: 4.199999999999999 4.199999999999999" />
<text x="447.2063802083333" y="48.964084201388886"></text>
<line x1="450.29394531249994" y1="33.931857638888886" x2="456.46907552083326" y2="33.931857638888886" style="stroke:black; stroke-width:1.4; stroke-dasharray: 4.199999999999999 4.199999999999999" />
<line x1="450.29394531249994" y1="53.974826388888886" x2="456.46907552083326" y2="53.974826388888886" style="stroke:black; stroke-width:1.4; stroke-dasharray: 4.199999999999999 4.199999999999999" />
<text x="453.38151041666663" y="48.964084201388886"></text>
<line x1="456.46907552083326" y1="33.931857638888886" x2="462.6442057291666" y2="33.931857638888886" style="stroke:black; stroke-width:1.4; stroke-dasharray: 4.199999999999999 4.199999999999999" />
<line x1="456.46907552083326" y1="53.974826388888886" x2="462.6442057291666" y2="53.974826388888886" style="stroke:black; stroke-width:1.4; stroke-dasharray: 4.199999999999999 4.199999999999999" />
<text x="459.55664062499994" y="48.964084201388886"></text>
<rect x="462.6442057291666" y="33.931857638888886" width="18.525390625" height="20.04296875" style="stroke:black;  stroke-width:1.4; fill:none;" />
<text x="468.5846354166666" y="48.964084201388886">5</text>
<rect x="481.1695963541666" y="33.931857638888886" width="18.525390625" height="20.04296875" style="stroke:black;  stroke-width:1.4; fill:none;" />
<text x="487.1236979166666" y="48.964084201388886">6</text>
<rect x="499.6949869791666" y="33.931857638888886" width="18.525390625" height="20.04296875" style="stroke:black;  stroke-width:1.4; fill:none;" />
<text x="505.7140299479166" y="48.964084201388886">7</text>
<rect x="518.2203776041665" y="33.931857638888886" width="18.525390625" height="20.04296875" style="stroke:black;  stroke-width:0; fill:lightgray;" />
<rect x="518.2203776041665" y="33.931857638888886" width="18.525390625" height="20.04296875" style="stroke:black;  stroke-width:1.4; fill:none;" />
<text x="524.1813151041665" y="48.964084201388886">8</text>
<line x1="536.7457682291665" y1="33.931857638888886" x2="542.9208984374999" y2="33.931857638888886" style="stroke:black; stroke-width:1.4; stroke-dasharray: 4.199999999999999 4.199999999999999" />
<line x1="536.7457682291665" y1="53.974826388888886" x2="542.9208984374999" y2="53.974826388888886" style="stroke:black; stroke-width:1.4; stroke-dasharray: 4.199999999999999 4.199999999999999" />
<text x="539.8333333333331" y="48.964084201388886"></text>
<line x1="542.9208984374999" y1="33.931857638888886" x2="549.0960286458333" y2="33.931857638888886" style="stroke:black; stroke-width:1.4; stroke-dasharray: 4.199999999999999 4.199999999999999" />
<line x1="542.9208984374999" y1="53.974826388888886" x2="549.0960286458333" y2="53.974826388888886" style="stroke:black; stroke-width:1.4; stroke-dasharray: 4.199999999999999 4.199999999999999" />
<text x="546.0084635416665" y="48.964084201388886"></text>
<rect x="549.0960286458333" y="33.931857638888886" width="18.525390625" height="20.04296875" style="stroke:black;  stroke-width:1.4; fill:none;" />
<text x="550.7742513020833" y="48.964084201388886">11</text>
<text x="5" y="84.67335069444444">hospitalization</text>
<rect x="153.8876953125" y="75.54327256944444" width="55.576171875" height="8.0171875" style="stroke:black;  stroke-width:1.4; fill:none;" />
<rect x="302.09082031249994" y="75.54327256944444" width="55.576171875" height="8.0171875" style="stroke:black;  stroke-width:1.4; fill:none;" />
<rect x="462.6442057291666" y="75.54327256944444" width="55.57617187499994" height="8.0171875" style="stroke:black;  stroke-width:1.4; fill:none;" />
<text x="5" y="112.49409722222222">tepotinib</text>
<path d="M162.7896171875, 107.37261284722223 L162.7896171875, 101.35972222222223 L163.5111640625, 101.35972222222223 L163.5111640625, 107.37261284722223 L165.405224609375, 107.37261284722223 L163.150390625, 113.38550347222223 L160.895556640625, 107.37261284722223 L162.7896171875, 107.37261284722223 Z" style="stroke: black; fill: black; stroke-width:1.4; " /><path d="M310.99274218749997, 107.37261284722223 L310.99274218749997, 101.35972222222223 L311.7142890624999, 101.35972222222223 L311.7142890624999, 107.37261284722223 L313.60834960937495, 107.37261284722223 L311.35351562499994, 113.38550347222223 L309.09868164062493, 107.37261284722223 L310.99274218749997, 107.37261284722223 Z" style="stroke: black; fill: black; stroke-width:1.4; " /><path d="M471.5461276041666, 107.37261284722223 L471.5461276041666, 101.35972222222223 L472.26767447916654, 101.35972222222223 L472.26767447916654, 107.37261284722223 L474.1617350260416, 107.37261284722223 L471.9069010416666, 113.38550347222223 L469.65206705729156, 107.37261284722223 L471.5461276041666, 107.37261284722223 Z" style="stroke: black; fill: black; stroke-width:1.4; " /><text x="5" y="140.31484375">omeprazole</text>
<path d="M273.9419609375, 135.193359375 L273.9419609375, 129.18046875 L274.6635078125, 129.18046875 L274.6635078125, 135.193359375 L276.557568359375, 135.193359375 L274.302734375, 141.20625 L272.047900390625, 135.193359375 L273.9419609375, 135.193359375 Z" style="stroke: black; fill: black; stroke-width:1.4; " /><path d="M286.2922213541667, 135.193359375 L286.2922213541667, 129.18046875 L287.01376822916666, 129.18046875 L287.01376822916666, 135.193359375 L288.9078287760417, 135.193359375 L286.6529947916667, 141.20625 L284.3981608072917, 135.193359375 L286.2922213541667, 135.193359375 Z" style="stroke: black; fill: black; stroke-width:1.4; " /><path d="M292.4673515625, 135.193359375 L292.4673515625, 129.18046875 L293.1888984375, 129.18046875 L293.1888984375, 135.193359375 L295.082958984375, 135.193359375 L292.828125, 141.20625 L290.573291015625, 135.193359375 L292.4673515625, 135.193359375 Z" style="stroke: black; fill: black; stroke-width:1.4; " /><path d="M298.64248177083334, 135.193359375 L298.64248177083334, 129.18046875 L299.3640286458333, 129.18046875 L299.3640286458333, 135.193359375 L301.2580891927083, 135.193359375 L299.0032552083333, 141.20625 L296.7484212239583, 135.193359375 L298.64248177083334, 135.193359375 Z" style="stroke: black; fill: black; stroke-width:1.4; " /><path d="M310.99274218749997, 135.193359375 L310.99274218749997, 129.18046875 L311.7142890624999, 129.18046875 L311.7142890624999, 135.193359375 L313.60834960937495, 135.193359375 L311.35351562499994, 141.20625 L309.09868164062493, 135.193359375 L310.99274218749997, 135.193359375 Z" style="stroke: black; fill: black; stroke-width:1.4; " /><path d="M434.49534635416666, 135.193359375 L434.49534635416666, 129.18046875 L435.2168932291666, 129.18046875 L435.2168932291666, 135.193359375 L437.11095377604164, 135.193359375 L434.85611979166663, 141.20625 L432.6012858072916, 135.193359375 L434.49534635416666, 135.193359375 Z" style="stroke: black; fill: black; stroke-width:1.4; " /><path d="M446.84560677083334, 135.193359375 L446.84560677083334, 129.18046875 L447.5671536458333, 129.18046875 L447.5671536458333, 135.193359375 L449.4612141927083, 135.193359375 L447.2063802083333, 141.20625 L444.9515462239583, 135.193359375 L446.84560677083334, 135.193359375 Z" style="stroke: black; fill: black; stroke-width:1.4; " /><path d="M453.02073697916666, 135.193359375 L453.02073697916666, 129.18046875 L453.7422838541666, 129.18046875 L453.7422838541666, 135.193359375 L455.63634440104164, 135.193359375 L453.38151041666663, 141.20625 L451.1266764322916, 135.193359375 L453.02073697916666, 135.193359375 Z" style="stroke: black; fill: black; stroke-width:1.4; " /><path d="M459.19586718749997, 135.193359375 L459.19586718749997, 129.18046875 L459.9174140624999, 129.18046875 L459.9174140624999, 135.193359375 L461.81147460937495, 135.193359375 L459.55664062499994, 141.20625 L457.30180664062493, 135.193359375 L459.19586718749997, 135.193359375 Z" style="stroke: black; fill: black; stroke-width:1.4; " /><path d="M471.5461276041666, 135.193359375 L471.5461276041666, 129.18046875 L472.26767447916654, 129.18046875 L472.26767447916654, 135.193359375 L474.1617350260416, 135.193359375 L471.9069010416666, 141.20625 L469.65206705729156, 135.193359375 L471.5461276041666, 135.193359375 Z" style="stroke: black; fill: black; stroke-width:1.4; " /><text x="5" y="167.15668402777777">food</text>
<circle cx="163.150390625" cy="163.01410590277777" r="4.63134765625" style="stroke:black;  stroke-width:1.2; fill:black;"/>
<circle cx="311.35351562499994" cy="163.01410590277777" r="4.63134765625" style="stroke:black;  stroke-width:1.4; fill:none;"/>
<circle cx="471.9069010416666" cy="163.01410590277777" r="4.63134765625" style="stroke:black;  stroke-width:1.2; fill:black;"/>
<text x="5" y="196.02196180555555">PK sampling</text>
<path d="M156.66650390625, 194.59290907118054 L156.66650390625, 187.07679578993054 L169.63427734375, 187.07679578993054 L169.63427734375, 194.59290907118054 L156.66650390625, 194.59290907118054 Z" style="stroke: black; fill: none; stroke-width:1.4; " /><path d="M178.16826171875, 190.83485243055554 L181.67578125, 183.81981336805555 L185.18330078125, 190.83485243055554 L181.67578125, 197.84989149305554 L178.16826171875, 190.83485243055554 Z" style="stroke: black; fill: none; stroke-width:1.4; " /><path d="M196.69365234375, 190.83485243055554 L200.201171875, 183.81981336805555 L203.70869140625, 190.83485243055554 L200.201171875, 197.84989149305554 L196.69365234375, 190.83485243055554 Z" style="stroke: black; fill: none; stroke-width:1.4; " /><path d="M209.04391276041665, 190.83485243055554 L212.55143229166666, 183.81981336805555 L216.05895182291667, 190.83485243055554 L212.55143229166666, 197.84989149305554 L209.04391276041665, 190.83485243055554 Z" style="stroke: black; fill: none; stroke-width:1.4; " /><path d="M215.21904296875, 190.83485243055554 L218.7265625, 183.81981336805555 L222.23408203125, 190.83485243055554 L218.7265625, 197.84989149305554 L215.21904296875, 190.83485243055554 Z" style="stroke: black; fill: none; stroke-width:1.4; " /><path d="M221.39417317708333, 190.83485243055554 L224.90169270833334, 183.81981336805555 L228.40921223958335, 190.83485243055554 L224.90169270833334, 197.84989149305554 L221.39417317708333, 190.83485243055554 Z" style="stroke: black; fill: none; stroke-width:1.4; " /><path d="M233.74443359375002, 190.83485243055554 L237.25195312500003, 183.81981336805555 L240.75947265625004, 190.83485243055554 L237.25195312500003, 197.84989149305554 L233.74443359375002, 190.83485243055554 Z" style="stroke: black; fill: none; stroke-width:1.4; " /><path d="M304.86962890624994, 194.59290907118054 L304.86962890624994, 187.07679578993054 L317.83740234374994, 187.07679578993054 L317.83740234374994, 194.59290907118054 L304.86962890624994, 194.59290907118054 Z" style="stroke: black; fill: none; stroke-width:1.4; " /><path d="M326.37138671874993, 190.83485243055554 L329.87890624999994, 183.81981336805555 L333.38642578124995, 190.83485243055554 L329.87890624999994, 197.84989149305554 L326.37138671874993, 190.83485243055554 Z" style="stroke: black; fill: none; stroke-width:1.4; " /><path d="M344.89677734374993, 190.83485243055554 L348.40429687499994, 183.81981336805555 L351.91181640624995, 190.83485243055554 L348.40429687499994, 197.84989149305554 L344.89677734374993, 190.83485243055554 Z" style="stroke: black; fill: none; stroke-width:1.4; " /><path d="M363.42216796874993, 190.83485243055554 L366.92968749999994, 183.81981336805555 L370.43720703124995, 190.83485243055554 L366.92968749999994, 197.84989149305554 L363.42216796874993, 190.83485243055554 Z" style="stroke: black; fill: none; stroke-width:1.4; " /><path d="M375.7724283854166, 190.83485243055554 L379.27994791666663, 183.81981336805555 L382.78746744791664, 190.83485243055554 L379.27994791666663, 197.84989149305554 L375.7724283854166, 190.83485243055554 Z" style="stroke: black; fill: none; stroke-width:1.4; " /><path d="M381.94755859374993, 190.83485243055554 L385.45507812499994, 183.81981336805555 L388.96259765624995, 190.83485243055554 L385.45507812499994, 197.84989149305554 L381.94755859374993, 190.83485243055554 Z" style="stroke: black; fill: none; stroke-width:1.4; " /><path d="M394.29781901041656, 190.83485243055554 L397.8053385416666, 183.81981336805555 L401.3128580729166, 190.83485243055554 L397.8053385416666, 197.84989149305554 L394.29781901041656, 190.83485243055554 Z" style="stroke: black; fill: none; stroke-width:1.4; " /><path d="M465.4230143229166, 194.59290907118054 L465.4230143229166, 187.07679578993054 L478.3907877604166, 187.07679578993054 L478.3907877604166, 194.59290907118054 L465.4230143229166, 194.59290907118054 Z" style="stroke: black; fill: none; stroke-width:1.4; " /><path d="M486.92477213541656, 190.83485243055554 L490.4322916666666, 183.81981336805555 L493.9398111979166, 190.83485243055554 L490.4322916666666, 197.84989149305554 L486.92477213541656, 190.83485243055554 Z" style="stroke: black; fill: none; stroke-width:1.4; " /><path d="M505.45016276041656, 190.83485243055554 L508.9576822916666, 183.81981336805555 L512.4652018229166, 190.83485243055554 L508.9576822916666, 197.84989149305554 L505.45016276041656, 190.83485243055554 Z" style="stroke: black; fill: none; stroke-width:1.4; " /><path d="M523.9755533854166, 190.83485243055554 L527.4830729166665, 183.81981336805555 L530.9905924479165, 190.83485243055554 L527.4830729166665, 197.84989149305554 L523.9755533854166, 190.83485243055554 Z" style="stroke: black; fill: none; stroke-width:1.4; " /><path d="M536.3258138020832, 190.83485243055554 L539.8333333333331, 183.81981336805555 L543.3408528645831, 190.83485243055554 L539.8333333333331, 197.84989149305554 L536.3258138020832, 190.83485243055554 Z" style="stroke: black; fill: none; stroke-width:1.4; " /><path d="M542.5009440104166, 190.83485243055554 L546.0084635416665, 183.81981336805555 L549.5159830729165, 190.83485243055554 L546.0084635416665, 197.84989149305554 L542.5009440104166, 190.83485243055554 Z" style="stroke: black; fill: none; stroke-width:1.4; " /><path d="M554.8512044270833, 190.83485243055554 L558.3587239583333, 183.81981336805555 L561.8662434895832, 190.83485243055554 L558.3587239583333, 197.84989149305554 L554.8512044270833, 190.83485243055554 Z" style="stroke: black; fill: none; stroke-width:1.4; " /></svg>