<svg width="524.3955078125" height="180.81336805555554" xmlns="http://www.w3.org/2000/svg">
<style>text {font-family: Arial; font-size: 14px ;}</style>
<desc>Trial design autogenerated by td.py V2.0 (Jan-2022), author: Rainer Strotmann</desc><title>ms0044</title><text x="122.11083984375" y="25.0322265625">S</text>
<text x="213.0048828125" y="25.0322265625">Period 1</text>
<text x="397.3427734375" y="25.0322265625">Period 2</text>
<rect x="116.8369140625" y="33.931857638888886" width="18.525390625" height="20.04296875" style="stroke:black;  stroke-width:1.4; fill:none;" />
<text x="126.099609375" y="48.964084201388886"></text>
<line x1="135.3623046875" y1="43.953342013888886" x2="153.8876953125" y2="43.953342013888886" style="stroke:black; stroke-width:1.4; " />
<rect x="153.8876953125" y="33.931857638888886" width="18.525390625" height="20.04296875" style="stroke:black;  stroke-width:1.4; fill:none;" />
<text x="158.43359375" y="48.964084201388886">-1</text>
<rect x="172.4130859375" y="33.931857638888886" width="18.525390625" height="20.04296875" style="stroke:black;  stroke-width:0; fill:lightgray;" />
<rect x="172.4130859375" y="33.931857638888886" width="18.525390625" height="20.04296875" style="stroke:black;  stroke-width:1.4; fill:none;" />
<text x="177.984375" y="48.964084201388886">1</text>
<rect x="190.9384765625" y="33.931857638888886" width="18.525390625" height="20.04296875" style="stroke:black;  stroke-width:1.4; fill:none;" />
<text x="196.88232421875" y="48.964084201388886">2</text>
<rect x="209.4638671875" y="33.931857638888886" width="18.525390625" height="20.04296875" style="stroke:black;  stroke-width:1.4; fill:none;" />
<text x="215.4453125" y="48.964084201388886">3</text>
<rect x="227.9892578125" y="33.931857638888886" width="18.525390625" height="20.04296875" style="stroke:black;  stroke-width:1.4; fill:none;" />
<text x="233.7861328125" y="48.964084201388886">4</text>
<rect x="246.5146484375" y="33.931857638888886" width="18.525390625" height="20.04296875" style="stroke:black;  stroke-width:1.4; fill:none;" />
<text x="255.77734375" y="48.964084201388886"></text>
<rect x="265.0400390625" y="33.931857638888886" width="18.525390625" height="20.04296875" style="stroke:black;  stroke-width:1.4; fill:none;" />
<text x="274.302734375" y="48.964084201388886"></text>
<rect x="283.5654296875" y="33.931857638888886" width="18.525390625" height="20.04296875" style="stroke:black;  stroke-width:1.4; fill:none;" />
<text x="292.828125" y="48.964084201388886"></text>
<rect x="302.0908203125" y="33.931857638888886" width="18.525390625" height="20.04296875" style="stroke:black;  stroke-width:0; fill:lightgray;" />
<rect x="302.0908203125" y="33.931857638888886" width="18.525390625" height="20.04296875" style="stroke:black;  stroke-width:1.4; fill:none;" />
<text x="308.0517578125" y="48.964084201388886">8</text>
<line x1="320.6162109375" y1="43.953342013888886" x2="339.1416015625" y2="43.953342013888886" style="stroke:black; stroke-width:1.4; " />
<rect x="339.1416015625" y="33.931857638888886" width="18.525390625" height="20.04296875" style="stroke:black;  stroke-width:1.4; fill:none;" />
<text x="343.6875" y="48.964084201388886">-1</text>
<rect x="357.6669921875" y="33.931857638888886" width="18.525390625" height="20.04296875" style="stroke:black;  stroke-width:0; fill:lightgray;" />
<rect x="357.6669921875" y="33.931857638888886" width="18.525390625" height="20.04296875" style="stroke:black;  stroke-width:1.4; fill:none;" />
<text x="363.23828125" y="48.964084201388886">1</text>
<rect x="376.1923828125" y="33.931857638888886" width="18.525390625" height="20.04296875" style="stroke:black;  stroke-width:1.4; fill:none;" />
<text x="382.13623046875" y="48.964084201388886">2</text>
<rect x="394.7177734375" y="33.931857638888886" width="18.525390625" height="20.04296875" style="stroke:black;  stroke-width:1.4; fill:none;" />
<text x="400.69921875" y="48.964084201388886">3</text>
<rect x="413.2431640625" y="33.931857638888886" width="18.525390625" height="20.04296875" style="stroke:black;  stroke-width:1.4; fill:none;" />
<text x="419.0400390625" y="48.964084201388886">4</text>
<rect x="431.7685546875" y="33.931857638888886" width="18.525390625" height="20.04296875" style="stroke:black;  stroke-width:1.4; fill:none;" />
<text x="441.03125" y="48.964084201388886"></text>
<rect x="450.2939453125" y="33.931857638888886" width="18.525390625" height="20.04296875" style="stroke:black;  stroke-width:1.4; fill:none;" />
<text x="459.556640625" y="48.964084201388886"></text>
<rect x="468.8193359375" y="33.931857638888886" width="18.525390625" height="20.04296875" style="stroke:black;  stroke-width:1.4; fill:none;" />
<text x="478.08203125" y="48.964084201388886"></text>
<rect x="487.3447265625" y="33.931857638888886" width="18.525390625" height="20.04296875" style="stroke:black;  stroke-width:0; fill:lightgray;" />
<rect x="487.3447265625" y="33.931857638888886" width="18.525390625" height="20.04296875" style="stroke:black;  stroke-width:1.4; fill:none;" />
<text x="493.3056640625" y="48.964084201388886">8</text>
<text x="5" y="84.67335069444444">hospitalization</text>
<rect x="153.8876953125" y="75.54327256944444" width="92.626953125" height="8.0171875" style="stroke:black;  stroke-width:1.4; fill:none;" />
<rect x="339.1416015625" y="75.54327256944444" width="92.626953125" height="8.0171875" style="stroke:black;  stroke-width:1.4; fill:none;" />
<text x="5" y="112.49409722222222">tepotinib</text>
<path d="M181.3150078125, 107.37261284722223 L181.3150078125, 101.35972222222223 L182.0365546875, 101.35972222222223 L182.0365546875, 107.37261284722223 L183.930615234375, 107.37261284722223 L181.67578125, 113.38550347222223 L179.420947265625, 107.37261284722223 L181.3150078125, 107.37261284722223 Z" style="stroke: black; fill: black; stroke-width:1.4; " /><path d="M366.5689140625, 107.37261284722223 L366.5689140625, 101.35972222222223 L367.2904609375, 101.35972222222223 L367.2904609375, 107.37261284722223 L369.184521484375, 107.37261284722223 L366.9296875, 113.38550347222223 L364.674853515625, 107.37261284722223 L366.5689140625, 107.37261284722223 Z" style="stroke: black; fill: black; stroke-width:1.4; " /><text x="5" y="139.338671875">ECG</text>
<path d="M159.64287109375, 135.193359375 L163.150390625, 128.1783203125 L166.65791015625, 135.193359375 L163.150390625, 142.2083984375 L159.64287109375, 135.193359375 Z" style="stroke: black; fill: none; stroke-width:1.4; " /><path d="M178.16826171875, 135.193359375 L181.67578125, 128.1783203125 L185.18330078125, 135.193359375 L181.67578125, 142.2083984375 L178.16826171875, 135.193359375 Z" style="stroke: black; fill: none; stroke-width:1.4; " /><path d="M196.69365234375, 135.193359375 L200.201171875, 128.1783203125 L203.70869140625, 135.193359375 L200.201171875, 142.2083984375 L196.69365234375, 135.193359375 Z" style="stroke: black; fill: none; stroke-width:1.4; " /><path d="M233.74443359375, 135.193359375 L237.251953125, 128.1783203125 L240.75947265625, 135.193359375 L237.251953125, 142.2083984375 L233.74443359375, 135.193359375 Z" style="stroke: black; fill: none; stroke-width:1.4; " /><path d="M344.89677734375, 135.193359375 L348.404296875, 128.1783203125 L351.91181640625, 135.193359375 L348.404296875, 142.2083984375 L344.89677734375, 135.193359375 Z" style="stroke: black; fill: none; stroke-width:1.4; " /><path d="M363.42216796875, 135.193359375 L366.9296875, 128.1783203125 L370.43720703125, 135.193359375 L366.9296875, 142.2083984375 L363.42216796875, 135.193359375 Z" style="stroke: black; fill: none; stroke-width:1.4; " /><path d="M381.94755859375, 135.193359375 L385.455078125, 128.1783203125 L388.96259765625, 135.193359375 L385.455078125, 142.2083984375 L381.94755859375, 135.193359375 Z" style="stroke: black; fill: none; stroke-width:1.4; " /><path d="M418.99833984375, 135.193359375 L422.505859375, 128.1783203125 L426.01337890625, 135.193359375 L422.505859375, 142.2083984375 L418.99833984375, 135.193359375 Z" style="stroke: black; fill: none; stroke-width:1.4; " /><text x="5" y="168.20121527777778">PK sampling</text>
<path d="M175.19189453125, 166.77216254340277 L175.19189453125, 159.25604926215277 L188.15966796875, 159.25604926215277 L188.15966796875, 166.77216254340277 L175.19189453125, 166.77216254340277 Z" style="stroke: black; fill: none; stroke-width:1.4; " /><path d="M196.69365234375, 163.01410590277777 L200.201171875, 155.99906684027778 L203.70869140625, 163.01410590277777 L200.201171875, 170.02914496527777 L196.69365234375, 163.01410590277777 Z" style="stroke: black; fill: none; stroke-width:1.4; " /><path d="M215.21904296875, 163.01410590277777 L218.7265625, 155.99906684027778 L222.23408203125, 163.01410590277777 L218.7265625, 170.02914496527777 L215.21904296875, 163.01410590277777 Z" style="stroke: black; fill: none; stroke-width:1.4; " /><path d="M233.74443359375, 163.01410590277777 L237.251953125, 155.99906684027778 L240.75947265625, 163.01410590277777 L237.251953125, 170.02914496527777 L233.74443359375, 163.01410590277777 Z" style="stroke: black; fill: none; stroke-width:1.4; " /><path d="M252.26982421875, 163.01410590277777 L255.77734375, 155.99906684027778 L259.28486328125, 163.01410590277777 L255.77734375, 170.02914496527777 L252.26982421875, 163.01410590277777 Z" style="stroke: black; fill: none; stroke-width:1.4; " /><path d="M270.79521484375, 163.01410590277777 L274.302734375, 155.99906684027778 L277.81025390625, 163.01410590277777 L274.302734375, 170.02914496527777 L270.79521484375, 163.01410590277777 Z" style="stroke: black; fill: none; stroke-width:1.4; " /><path d="M289.32060546875, 163.01410590277777 L292.828125, 155.99906684027778 L296.33564453125, 163.01410590277777 L292.828125, 170.02914496527777 L289.32060546875, 163.01410590277777 Z" style="stroke: black; fill: none; stroke-width:1.4; " /><path d="M307.84599609375, 163.01410590277777 L311.353515625, 155.99906684027778 L314.86103515625, 163.01410590277777 L311.353515625, 170.02914496527777 L307.84599609375, 163.01410590277777 Z" style="stroke: black; fill: none; stroke-width:1.4; " /><path d="M360.44580078125, 166.77216254340277 L360.44580078125, 159.25604926215277 L373.41357421875, 159.25604926215277 L373.41357421875, 166.77216254340277 L360.44580078125, 166.77216254340277 Z" style="stroke: black; fill: none; stroke-width:1.4; " /><path d="M381.94755859375, 163.01410590277777 L385.455078125, 155.99906684027778 L388.96259765625, 163.01410590277777 L385.455078125, 170.02914496527777 L381.94755859375, 163.01410590277777 Z" style="stroke: black; fill: none; stroke-width:1.4; " /><path d="M400.47294921875, 163.01410590277777 L403.98046875, 155.99906684027778 L407.48798828125, 163.01410590277777 L403.98046875, 170.02914496527777 L400.47294921875, 163.01410590277777 Z" style="stroke: black; fill: none; stroke-width:1.4; " /><path d="M418.99833984375, 163.01410590277777 L422.505859375, 155.99906684027778 L426.01337890625, 163.01410590277777 L422.505859375, 170.02914496527777 L418.99833984375, 163.01410590277777 Z" style="stroke: black; fill: none; stroke-width:1.4; " /><path d="M437.52373046875, 163.01410590277777 L441.03125, 155.99906684027778 L444.53876953125, 163.01410590277777 L441.03125, 170.02914496527777 L437.52373046875, 163.01410590277777 Z" style="stroke: black; fill: none; stroke-width:1.4; " /><path d="M456.04912109375, 163.01410590277777 L459.556640625, 155.99906684027778 L463.06416015625, 163.01410590277777 L459.556640625, 170.02914496527777 L456.04912109375, 163.01410590277777 Z" style="stroke: black; fill: none; stroke-width:1.4; " /><path d="M474.57451171875, 163.01410590277777 L478.08203125, 155.99906684027778 L481.58955078125, 163.01410590277777 L478.08203125, 170.02914496527777 L474.57451171875, 163.01410590277777 Z" style="stroke: black; fill: none; stroke-width:1.4; " /><path d="M493.09990234375, 163.01410590277777 L496.607421875, 155.99906684027778 L500.11494140625, 163.01410590277777 L496.607421875, 170.02914496527777 L493.09990234375, 163.01410590277777 Z" style="stroke: black; fill: none; stroke-width:1.4; " /></svg>