<svg width="894.5979817708333" height="236.4548611111111" xmlns="http://www.w3.org/2000/svg">
<style>text {font-family: Arial; font-size: 14px ;}</style>
<desc>Trial design autogenerated by td.py version 2.1 (Jan-2022), author: Rainer Strotmann</desc><title>ms0022</title><path d="M682.517578125, 10.0 A5.0107421875, 5.0107421875 0 0,0 677.5068359375, 15.0107421875L677.5068359375, 227.5552300347222 A5.0107421875, 5.0107421875 0 0,0 682.517578125 232.5659722222222" style="stroke: black; stroke-width:1.4; fill:none" /><path d="M841.1477864583333, 10.0 A5.0107421875, 5.0107421875 0 0,1 846.1585286458333, 15.0107421875L846.1585286458333, 227.5552300347222 A5.0107421875, 5.0107421875 0 0,1 841.1477864583333 232.5659722222222" style="stroke: black; stroke-width:1.4; fill:none" /><path d="M509.61393229166663, 10.0 A5.0107421875, 5.0107421875 0 0,0 504.60319010416663, 15.0107421875L504.60319010416663, 227.5552300347222 A5.0107421875, 5.0107421875 0 0,0 509.61393229166663 232.5659722222222" style="stroke: black; stroke-width:1.4; fill:none" /><path d="M668.244140625, 10.0 A5.0107421875, 5.0107421875 0 0,1 673.2548828125, 15.0107421875L673.2548828125, 227.5552300347222 A5.0107421875, 5.0107421875 0 0,1 668.244140625 232.5659722222222" style="stroke: black; stroke-width:1.4; fill:none" /><text x="134.15576171875" y="25.0322265625">S</text>
<text x="221.41422526041666" y="25.0322265625">Cycle 1</text>
<text x="393.40185546875" y="25.0322265625">Cycle 2</text>
<text x="532.3069661458333" y="25.0322265625">Cycles 3, 5, 7, etc.</text>
<text x="705.2106119791666" y="25.0322265625">Cycles 4, 6, 8, etc.</text>
<text x="853.1140950520833" y="25.0322265625">EOT</text>
<rect x="128.8818359375" y="33.931857638888886" width="18.525390625" height="20.04296875" style="stroke:black;  stroke-width:1.4; fill:none;" />
<text x="138.14453125" y="48.964084201388886"></text>
<line x1="147.4072265625" y1="43.953342013888886" x2="165.9326171875" y2="43.953342013888886" style="stroke:black; stroke-width:1.4; " />
<rect x="165.9326171875" y="33.931857638888886" width="18.525390625" height="20.04296875" style="stroke:black;  stroke-width:0; fill:lightgray;" />
<rect x="165.9326171875" y="33.931857638888886" width="18.525390625" height="20.04296875" style="stroke:black;  stroke-width:1.4; fill:none;" />
<text x="171.50390625" y="48.964084201388886">1</text>
<line x1="184.4580078125" y1="33.931857638888886" x2="190.63313802083334" y2="33.931857638888886" style="stroke:black; stroke-width:1.4; stroke-dasharray: 4.199999999999999 4.199999999999999" />
<line x1="184.4580078125" y1="53.974826388888886" x2="190.63313802083334" y2="53.974826388888886" style="stroke:black; stroke-width:1.4; stroke-dasharray: 4.199999999999999 4.199999999999999" />
<text x="187.54557291666666" y="48.964084201388886"></text>
<line x1="190.63313802083334" y1="33.931857638888886" x2="196.80826822916669" y2="33.931857638888886" style="stroke:black; stroke-width:1.4; stroke-dasharray: 4.199999999999999 4.199999999999999" />
<line x1="190.63313802083334" y1="53.974826388888886" x2="196.80826822916669" y2="53.974826388888886" style="stroke:black; stroke-width:1.4; stroke-dasharray: 4.199999999999999 4.199999999999999" />
<text x="193.720703125" y="48.964084201388886"></text>
<line x1="196.80826822916669" y1="33.931857638888886" x2="202.98339843750003" y2="33.931857638888886" style="stroke:black; stroke-width:1.4; stroke-dasharray: 4.199999999999999 4.199999999999999" />
<line x1="196.80826822916669" y1="53.974826388888886" x2="202.98339843750003" y2="53.974826388888886" style="stroke:black; stroke-width:1.4; stroke-dasharray: 4.199999999999999 4.199999999999999" />
<text x="199.89583333333334" y="48.964084201388886"></text>
<line x1="202.98339843750003" y1="33.931857638888886" x2="209.15852864583337" y2="33.931857638888886" style="stroke:black; stroke-width:1.4; stroke-dasharray: 4.199999999999999 4.199999999999999" />
<line x1="202.98339843750003" y1="53.974826388888886" x2="209.15852864583337" y2="53.974826388888886" style="stroke:black; stroke-width:1.4; stroke-dasharray: 4.199999999999999 4.199999999999999" />
<text x="206.07096354166669" y="48.964084201388886"></text>
<line x1="209.15852864583337" y1="33.931857638888886" x2="215.3336588541667" y2="33.931857638888886" style="stroke:black; stroke-width:1.4; stroke-dasharray: 4.199999999999999 4.199999999999999" />
<line x1="209.15852864583337" y1="53.974826388888886" x2="215.3336588541667" y2="53.974826388888886" style="stroke:black; stroke-width:1.4; stroke-dasharray: 4.199999999999999 4.199999999999999" />
<text x="212.24609375000003" y="48.964084201388886"></text>
<line x1="215.3336588541667" y1="33.931857638888886" x2="221.50878906250006" y2="33.931857638888886" style="stroke:black; stroke-width:1.4; stroke-dasharray: 4.199999999999999 4.199999999999999" />
<line x1="215.3336588541667" y1="53.974826388888886" x2="221.50878906250006" y2="53.974826388888886" style="stroke:black; stroke-width:1.4; stroke-dasharray: 4.199999999999999 4.199999999999999" />
<text x="218.42122395833337" y="48.964084201388886"></text>
<rect x="221.50878906250006" y="33.931857638888886" width="6.175130208333333" height="20.04296875" style="stroke:black;  stroke-width:0; fill:lightgray;" />
<line x1="221.50878906250006" y1="33.931857638888886" x2="227.6839192708334" y2="33.931857638888886" style="stroke:black; stroke-width:1.4; stroke-dasharray: 4.199999999999999 4.199999999999999" />
<line x1="221.50878906250006" y1="53.974826388888886" x2="227.6839192708334" y2="53.974826388888886" style="stroke:black; stroke-width:1.4; stroke-dasharray: 4.199999999999999 4.199999999999999" />
<text x="224.5963541666667" y="48.964084201388886"></text>
<line x1="227.6839192708334" y1="33.931857638888886" x2="233.85904947916674" y2="33.931857638888886" style="stroke:black; stroke-width:1.4; stroke-dasharray: 4.199999999999999 4.199999999999999" />
<line x1="227.6839192708334" y1="53.974826388888886" x2="233.85904947916674" y2="53.974826388888886" style="stroke:black; stroke-width:1.4; stroke-dasharray: 4.199999999999999 4.199999999999999" />
<text x="230.77148437500006" y="48.964084201388886"></text>
<line x1="233.85904947916674" y1="33.931857638888886" x2="240.03417968750009" y2="33.931857638888886" style="stroke:black; stroke-width:1.4; stroke-dasharray: 4.199999999999999 4.199999999999999" />
<line x1="233.85904947916674" y1="53.974826388888886" x2="240.03417968750009" y2="53.974826388888886" style="stroke:black; stroke-width:1.4; stroke-dasharray: 4.199999999999999 4.199999999999999" />
<text x="236.9466145833334" y="48.964084201388886"></text>
<line x1="240.03417968750009" y1="33.931857638888886" x2="246.20930989583343" y2="33.931857638888886" style="stroke:black; stroke-width:1.4; stroke-dasharray: 4.199999999999999 4.199999999999999" />
<line x1="240.03417968750009" y1="53.974826388888886" x2="246.20930989583343" y2="53.974826388888886" style="stroke:black; stroke-width:1.4; stroke-dasharray: 4.199999999999999 4.199999999999999" />
<text x="243.12174479166674" y="48.964084201388886"></text>
<line x1="246.20930989583343" y1="33.931857638888886" x2="252.38444010416677" y2="33.931857638888886" style="stroke:black; stroke-width:1.4; stroke-dasharray: 4.199999999999999 4.199999999999999" />
<line x1="246.20930989583343" y1="53.974826388888886" x2="252.38444010416677" y2="53.974826388888886" style="stroke:black; stroke-width:1.4; stroke-dasharray: 4.199999999999999 4.199999999999999" />
<text x="249.29687500000009" y="48.964084201388886"></text>
<line x1="252.38444010416677" y1="33.931857638888886" x2="258.5595703125001" y2="33.931857638888886" style="stroke:black; stroke-width:1.4; stroke-dasharray: 4.199999999999999 4.199999999999999" />
<line x1="252.38444010416677" y1="53.974826388888886" x2="258.5595703125001" y2="53.974826388888886" style="stroke:black; stroke-width:1.4; stroke-dasharray: 4.199999999999999 4.199999999999999" />
<text x="255.47200520833343" y="48.964084201388886"></text>
<line x1="258.5595703125001" y1="33.931857638888886" x2="264.7347005208334" y2="33.931857638888886" style="stroke:black; stroke-width:1.4; stroke-dasharray: 4.199999999999999 4.199999999999999" />
<line x1="258.5595703125001" y1="53.974826388888886" x2="264.7347005208334" y2="53.974826388888886" style="stroke:black; stroke-width:1.4; stroke-dasharray: 4.199999999999999 4.199999999999999" />
<text x="261.6471354166668" y="48.964084201388886"></text>
<rect x="264.7347005208334" y="33.931857638888886" width="6.175130208333333" height="20.04296875" style="stroke:black;  stroke-width:0; fill:lightgray;" />
<line x1="264.7347005208334" y1="33.931857638888886" x2="270.90983072916674" y2="33.931857638888886" style="stroke:black; stroke-width:1.4; stroke-dasharray: 4.199999999999999 4.199999999999999" />
<line x1="264.7347005208334" y1="53.974826388888886" x2="270.90983072916674" y2="53.974826388888886" style="stroke:black; stroke-width:1.4; stroke-dasharray: 4.199999999999999 4.199999999999999" />
<text x="267.8222656250001" y="48.964084201388886"></text>
<line x1="270.90983072916674" y1="33.931857638888886" x2="277.08496093750006" y2="33.931857638888886" style="stroke:black; stroke-width:1.4; stroke-dasharray: 4.199999999999999 4.199999999999999" />
<line x1="270.90983072916674" y1="53.974826388888886" x2="277.08496093750006" y2="53.974826388888886" style="stroke:black; stroke-width:1.4; stroke-dasharray: 4.199999999999999 4.199999999999999" />
<text x="273.9973958333334" y="48.964084201388886"></text>
<line x1="277.08496093750006" y1="33.931857638888886" x2="283.26009114583337" y2="33.931857638888886" style="stroke:black; stroke-width:1.4; stroke-dasharray: 4.199999999999999 4.199999999999999" />
<line x1="277.08496093750006" y1="53.974826388888886" x2="283.26009114583337" y2="53.974826388888886" style="stroke:black; stroke-width:1.4; stroke-dasharray: 4.199999999999999 4.199999999999999" />
<text x="280.17252604166674" y="48.964084201388886"></text>
<line x1="283.26009114583337" y1="33.931857638888886" x2="289.4352213541667" y2="33.931857638888886" style="stroke:black; stroke-width:1.4; stroke-dasharray: 4.199999999999999 4.199999999999999" />
<line x1="283.26009114583337" y1="53.974826388888886" x2="289.4352213541667" y2="53.974826388888886" style="stroke:black; stroke-width:1.4; stroke-dasharray: 4.199999999999999 4.199999999999999" />
<text x="286.34765625000006" y="48.964084201388886"></text>
<line x1="289.4352213541667" y1="33.931857638888886" x2="295.6103515625" y2="33.931857638888886" style="stroke:black; stroke-width:1.4; stroke-dasharray: 4.199999999999999 4.199999999999999" />
<line x1="289.4352213541667" y1="53.974826388888886" x2="295.6103515625" y2="53.974826388888886" style="stroke:black; stroke-width:1.4; stroke-dasharray: 4.199999999999999 4.199999999999999" />
<text x="292.52278645833337" y="48.964084201388886"></text>
<line x1="295.6103515625" y1="33.931857638888886" x2="301.7854817708333" y2="33.931857638888886" style="stroke:black; stroke-width:1.4; stroke-dasharray: 4.199999999999999 4.199999999999999" />
<line x1="295.6103515625" y1="53.974826388888886" x2="301.7854817708333" y2="53.974826388888886" style="stroke:black; stroke-width:1.4; stroke-dasharray: 4.199999999999999 4.199999999999999" />
<text x="298.6979166666667" y="48.964084201388886"></text>
<rect x="301.7854817708333" y="33.931857638888886" width="18.525390625" height="20.04296875" style="stroke:black;  stroke-width:1.4; fill:none;" />
<text x="304.7522786458333" y="48.964084201388886">21</text>
<line x1="320.3108723958333" y1="43.953342013888886" x2="338.8362630208333" y2="43.953342013888886" style="stroke:black; stroke-width:1.4; " />
<rect x="338.8362630208333" y="33.931857638888886" width="18.525390625" height="20.04296875" style="stroke:black;  stroke-width:0; fill:lightgray;" />
<rect x="338.8362630208333" y="33.931857638888886" width="18.525390625" height="20.04296875" style="stroke:black;  stroke-width:1.4; fill:none;" />
<text x="344.4075520833333" y="48.964084201388886">1</text>
<line x1="357.3616536458333" y1="33.931857638888886" x2="363.53678385416663" y2="33.931857638888886" style="stroke:black; stroke-width:1.4; stroke-dasharray: 4.199999999999999 4.199999999999999" />
<line x1="357.3616536458333" y1="53.974826388888886" x2="363.53678385416663" y2="53.974826388888886" style="stroke:black; stroke-width:1.4; stroke-dasharray: 4.199999999999999 4.199999999999999" />
<text x="360.44921875" y="48.964084201388886"></text>
<line x1="363.53678385416663" y1="33.931857638888886" x2="369.71191406249994" y2="33.931857638888886" style="stroke:black; stroke-width:1.4; stroke-dasharray: 4.199999999999999 4.199999999999999" />
<line x1="363.53678385416663" y1="53.974826388888886" x2="369.71191406249994" y2="53.974826388888886" style="stroke:black; stroke-width:1.4; stroke-dasharray: 4.199999999999999 4.199999999999999" />
<text x="366.6243489583333" y="48.964084201388886"></text>
<line x1="369.71191406249994" y1="33.931857638888886" x2="375.88704427083326" y2="33.931857638888886" style="stroke:black; stroke-width:1.4; stroke-dasharray: 4.199999999999999 4.199999999999999" />
<line x1="369.71191406249994" y1="53.974826388888886" x2="375.88704427083326" y2="53.974826388888886" style="stroke:black; stroke-width:1.4; stroke-dasharray: 4.199999999999999 4.199999999999999" />
<text x="372.79947916666663" y="48.964084201388886"></text>
<line x1="375.88704427083326" y1="33.931857638888886" x2="382.0621744791666" y2="33.931857638888886" style="stroke:black; stroke-width:1.4; stroke-dasharray: 4.199999999999999 4.199999999999999" />
<line x1="375.88704427083326" y1="53.974826388888886" x2="382.0621744791666" y2="53.974826388888886" style="stroke:black; stroke-width:1.4; stroke-dasharray: 4.199999999999999 4.199999999999999" />
<text x="378.97460937499994" y="48.964084201388886"></text>
<line x1="382.0621744791666" y1="33.931857638888886" x2="388.2373046874999" y2="33.931857638888886" style="stroke:black; stroke-width:1.4; stroke-dasharray: 4.199999999999999 4.199999999999999" />
<line x1="382.0621744791666" y1="53.974826388888886" x2="388.2373046874999" y2="53.974826388888886" style="stroke:black; stroke-width:1.4; stroke-dasharray: 4.199999999999999 4.199999999999999" />
<text x="385.14973958333326" y="48.964084201388886"></text>
<line x1="388.2373046874999" y1="33.931857638888886" x2="394.4124348958332" y2="33.931857638888886" style="stroke:black; stroke-width:1.4; stroke-dasharray: 4.199999999999999 4.199999999999999" />
<line x1="388.2373046874999" y1="53.974826388888886" x2="394.4124348958332" y2="53.974826388888886" style="stroke:black; stroke-width:1.4; stroke-dasharray: 4.199999999999999 4.199999999999999" />
<text x="391.3248697916666" y="48.964084201388886"></text>
<rect x="394.4124348958332" y="33.931857638888886" width="6.175130208333333" height="20.04296875" style="stroke:black;  stroke-width:0; fill:lightgray;" />
<line x1="394.4124348958332" y1="33.931857638888886" x2="400.5875651041665" y2="33.931857638888886" style="stroke:black; stroke-width:1.4; stroke-dasharray: 4.199999999999999 4.199999999999999" />
<line x1="394.4124348958332" y1="53.974826388888886" x2="400.5875651041665" y2="53.974826388888886" style="stroke:black; stroke-width:1.4; stroke-dasharray: 4.199999999999999 4.199999999999999" />
<text x="397.4999999999999" y="48.964084201388886"></text>
<line x1="400.5875651041665" y1="33.931857638888886" x2="406.76269531249983" y2="33.931857638888886" style="stroke:black; stroke-width:1.4; stroke-dasharray: 4.199999999999999 4.199999999999999" />
<line x1="400.5875651041665" y1="53.974826388888886" x2="406.76269531249983" y2="53.974826388888886" style="stroke:black; stroke-width:1.4; stroke-dasharray: 4.199999999999999 4.199999999999999" />
<text x="403.6751302083332" y="48.964084201388886"></text>
<line x1="406.76269531249983" y1="33.931857638888886" x2="412.93782552083314" y2="33.931857638888886" style="stroke:black; stroke-width:1.4; stroke-dasharray: 4.199999999999999 4.199999999999999" />
<line x1="406.76269531249983" y1="53.974826388888886" x2="412.93782552083314" y2="53.974826388888886" style="stroke:black; stroke-width:1.4; stroke-dasharray: 4.199999999999999 4.199999999999999" />
<text x="409.8502604166665" y="48.964084201388886"></text>
<line x1="412.93782552083314" y1="33.931857638888886" x2="419.11295572916646" y2="33.931857638888886" style="stroke:black; stroke-width:1.4; stroke-dasharray: 4.199999999999999 4.199999999999999" />
<line x1="412.93782552083314" y1="53.974826388888886" x2="419.11295572916646" y2="53.974826388888886" style="stroke:black; stroke-width:1.4; stroke-dasharray: 4.199999999999999 4.199999999999999" />
<text x="416.02539062499983" y="48.964084201388886"></text>
<line x1="419.11295572916646" y1="33.931857638888886" x2="425.2880859374998" y2="33.931857638888886" style="stroke:black; stroke-width:1.4; stroke-dasharray: 4.199999999999999 4.199999999999999" />
<line x1="419.11295572916646" y1="53.974826388888886" x2="425.2880859374998" y2="53.974826388888886" style="stroke:black; stroke-width:1.4; stroke-dasharray: 4.199999999999999 4.199999999999999" />
<text x="422.20052083333314" y="48.964084201388886"></text>
<line x1="425.2880859374998" y1="33.931857638888886" x2="431.4632161458331" y2="33.931857638888886" style="stroke:black; stroke-width:1.4; stroke-dasharray: 4.199999999999999 4.199999999999999" />
<line x1="425.2880859374998" y1="53.974826388888886" x2="431.4632161458331" y2="53.974826388888886" style="stroke:black; stroke-width:1.4; stroke-dasharray: 4.199999999999999 4.199999999999999" />
<text x="428.37565104166646" y="48.964084201388886"></text>
<line x1="431.4632161458331" y1="33.931857638888886" x2="437.6383463541664" y2="33.931857638888886" style="stroke:black; stroke-width:1.4; stroke-dasharray: 4.199999999999999 4.199999999999999" />
<line x1="431.4632161458331" y1="53.974826388888886" x2="437.6383463541664" y2="53.974826388888886" style="stroke:black; stroke-width:1.4; stroke-dasharray: 4.199999999999999 4.199999999999999" />
<text x="434.5507812499998" y="48.964084201388886"></text>
<rect x="437.6383463541664" y="33.931857638888886" width="6.175130208333333" height="20.04296875" style="stroke:black;  stroke-width:0; fill:lightgray;" />
<line x1="437.6383463541664" y1="33.931857638888886" x2="443.8134765624997" y2="33.931857638888886" style="stroke:black; stroke-width:1.4; stroke-dasharray: 4.199999999999999 4.199999999999999" />
<line x1="437.6383463541664" y1="53.974826388888886" x2="443.8134765624997" y2="53.974826388888886" style="stroke:black; stroke-width:1.4; stroke-dasharray: 4.199999999999999 4.199999999999999" />
<text x="440.7259114583331" y="48.964084201388886"></text>
<line x1="443.8134765624997" y1="33.931857638888886" x2="449.98860677083303" y2="33.931857638888886" style="stroke:black; stroke-width:1.4; stroke-dasharray: 4.199999999999999 4.199999999999999" />
<line x1="443.8134765624997" y1="53.974826388888886" x2="449.98860677083303" y2="53.974826388888886" style="stroke:black; stroke-width:1.4; stroke-dasharray: 4.199999999999999 4.199999999999999" />
<text x="446.9010416666664" y="48.964084201388886"></text>
<line x1="449.98860677083303" y1="33.931857638888886" x2="456.16373697916634" y2="33.931857638888886" style="stroke:black; stroke-width:1.4; stroke-dasharray: 4.199999999999999 4.199999999999999" />
<line x1="449.98860677083303" y1="53.974826388888886" x2="456.16373697916634" y2="53.974826388888886" style="stroke:black; stroke-width:1.4; stroke-dasharray: 4.199999999999999 4.199999999999999" />
<text x="453.0761718749997" y="48.964084201388886"></text>
<line x1="456.16373697916634" y1="33.931857638888886" x2="462.33886718749966" y2="33.931857638888886" style="stroke:black; stroke-width:1.4; stroke-dasharray: 4.199999999999999 4.199999999999999" />
<line x1="456.16373697916634" y1="53.974826388888886" x2="462.33886718749966" y2="53.974826388888886" style="stroke:black; stroke-width:1.4; stroke-dasharray: 4.199999999999999 4.199999999999999" />
<text x="459.25130208333303" y="48.964084201388886"></text>
<line x1="462.33886718749966" y1="33.931857638888886" x2="468.513997395833" y2="33.931857638888886" style="stroke:black; stroke-width:1.4; stroke-dasharray: 4.199999999999999 4.199999999999999" />
<line x1="462.33886718749966" y1="53.974826388888886" x2="468.513997395833" y2="53.974826388888886" style="stroke:black; stroke-width:1.4; stroke-dasharray: 4.199999999999999 4.199999999999999" />
<text x="465.42643229166634" y="48.964084201388886"></text>
<line x1="468.513997395833" y1="33.931857638888886" x2="474.6891276041663" y2="33.931857638888886" style="stroke:black; stroke-width:1.4; stroke-dasharray: 4.199999999999999 4.199999999999999" />
<line x1="468.513997395833" y1="53.974826388888886" x2="474.6891276041663" y2="53.974826388888886" style="stroke:black; stroke-width:1.4; stroke-dasharray: 4.199999999999999 4.199999999999999" />
<text x="471.60156249999966" y="48.964084201388886"></text>
<rect x="474.6891276041663" y="33.931857638888886" width="18.525390625" height="20.04296875" style="stroke:black;  stroke-width:1.4; fill:none;" />
<text x="477.6559244791663" y="48.964084201388886">21</text>
<line x1="493.21451822916663" y1="43.953342013888886" x2="511.73990885416663" y2="43.953342013888886" style="stroke:black; stroke-width:1.4; " />
<rect x="511.73990885416663" y="33.931857638888886" width="18.525390625" height="20.04296875" style="stroke:black;  stroke-width:0; fill:lightgray;" />
<rect x="511.73990885416663" y="33.931857638888886" width="18.525390625" height="20.04296875" style="stroke:black;  stroke-width:1.4; fill:none;" />
<text x="517.3111979166666" y="48.964084201388886">1</text>
<line x1="530.2652994791666" y1="33.931857638888886" x2="536.4404296875" y2="33.931857638888886" style="stroke:black; stroke-width:1.4; stroke-dasharray: 4.199999999999999 4.199999999999999" />
<line x1="530.2652994791666" y1="53.974826388888886" x2="536.4404296875" y2="53.974826388888886" style="stroke:black; stroke-width:1.4; stroke-dasharray: 4.199999999999999 4.199999999999999" />
<text x="533.3528645833333" y="48.964084201388886"></text>
<line x1="536.4404296875" y1="33.931857638888886" x2="542.6155598958334" y2="33.931857638888886" style="stroke:black; stroke-width:1.4; stroke-dasharray: 4.199999999999999 4.199999999999999" />
<line x1="536.4404296875" y1="53.974826388888886" x2="542.6155598958334" y2="53.974826388888886" style="stroke:black; stroke-width:1.4; stroke-dasharray: 4.199999999999999 4.199999999999999" />
<text x="539.5279947916666" y="48.964084201388886"></text>
<line x1="542.6155598958334" y1="33.931857638888886" x2="548.7906901041667" y2="33.931857638888886" style="stroke:black; stroke-width:1.4; stroke-dasharray: 4.199999999999999 4.199999999999999" />
<line x1="542.6155598958334" y1="53.974826388888886" x2="548.7906901041667" y2="53.974826388888886" style="stroke:black; stroke-width:1.4; stroke-dasharray: 4.199999999999999 4.199999999999999" />
<text x="545.703125" y="48.964084201388886"></text>
<line x1="548.7906901041667" y1="33.931857638888886" x2="554.9658203125001" y2="33.931857638888886" style="stroke:black; stroke-width:1.4; stroke-dasharray: 4.199999999999999 4.199999999999999" />
<line x1="548.7906901041667" y1="53.974826388888886" x2="554.9658203125001" y2="53.974826388888886" style="stroke:black; stroke-width:1.4; stroke-dasharray: 4.199999999999999 4.199999999999999" />
<text x="551.8782552083334" y="48.964084201388886"></text>
<line x1="554.9658203125001" y1="33.931857638888886" x2="561.1409505208335" y2="33.931857638888886" style="stroke:black; stroke-width:1.4; stroke-dasharray: 4.199999999999999 4.199999999999999" />
<line x1="554.9658203125001" y1="53.974826388888886" x2="561.1409505208335" y2="53.974826388888886" style="stroke:black; stroke-width:1.4; stroke-dasharray: 4.199999999999999 4.199999999999999" />
<text x="558.0533854166667" y="48.964084201388886"></text>
<line x1="561.1409505208335" y1="33.931857638888886" x2="567.3160807291669" y2="33.931857638888886" style="stroke:black; stroke-width:1.4; stroke-dasharray: 4.199999999999999 4.199999999999999" />
<line x1="561.1409505208335" y1="53.974826388888886" x2="567.3160807291669" y2="53.974826388888886" style="stroke:black; stroke-width:1.4; stroke-dasharray: 4.199999999999999 4.199999999999999" />
<text x="564.2285156250001" y="48.964084201388886"></text>
<rect x="567.3160807291669" y="33.931857638888886" width="6.175130208333333" height="20.04296875" style="stroke:black;  stroke-width:0; fill:lightgray;" />
<line x1="567.3160807291669" y1="33.931857638888886" x2="573.4912109375002" y2="33.931857638888886" style="stroke:black; stroke-width:1.4; stroke-dasharray: 4.199999999999999 4.199999999999999" />
<line x1="567.3160807291669" y1="53.974826388888886" x2="573.4912109375002" y2="53.974826388888886" style="stroke:black; stroke-width:1.4; stroke-dasharray: 4.199999999999999 4.199999999999999" />
<text x="570.4036458333335" y="48.964084201388886"></text>
<line x1="573.4912109375002" y1="33.931857638888886" x2="579.6663411458336" y2="33.931857638888886" style="stroke:black; stroke-width:1.4; stroke-dasharray: 4.199999999999999 4.199999999999999" />
<line x1="573.4912109375002" y1="53.974826388888886" x2="579.6663411458336" y2="53.974826388888886" style="stroke:black; stroke-width:1.4; stroke-dasharray: 4.199999999999999 4.199999999999999" />
<text x="576.5787760416669" y="48.964084201388886"></text>
<line x1="579.6663411458336" y1="33.931857638888886" x2="585.841471354167" y2="33.931857638888886" style="stroke:black; stroke-width:1.4; stroke-dasharray: 4.199999999999999 4.199999999999999" />
<line x1="579.6663411458336" y1="53.974826388888886" x2="585.841471354167" y2="53.974826388888886" style="stroke:black; stroke-width:1.4; stroke-dasharray: 4.199999999999999 4.199999999999999" />
<text x="582.7539062500002" y="48.964084201388886"></text>
<line x1="585.841471354167" y1="33.931857638888886" x2="592.0166015625003" y2="33.931857638888886" style="stroke:black; stroke-width:1.4; stroke-dasharray: 4.199999999999999 4.199999999999999" />
<line x1="585.841471354167" y1="53.974826388888886" x2="592.0166015625003" y2="53.974826388888886" style="stroke:black; stroke-width:1.4; stroke-dasharray: 4.199999999999999 4.199999999999999" />
<text x="588.9290364583336" y="48.964084201388886"></text>
<line x1="592.0166015625003" y1="33.931857638888886" x2="598.1917317708337" y2="33.931857638888886" style="stroke:black; stroke-width:1.4; stroke-dasharray: 4.199999999999999 4.199999999999999" />
<line x1="592.0166015625003" y1="53.974826388888886" x2="598.1917317708337" y2="53.974826388888886" style="stroke:black; stroke-width:1.4; stroke-dasharray: 4.199999999999999 4.199999999999999" />
<text x="595.104166666667" y="48.964084201388886"></text>
<line x1="598.1917317708337" y1="33.931857638888886" x2="604.3668619791671" y2="33.931857638888886" style="stroke:black; stroke-width:1.4; stroke-dasharray: 4.199999999999999 4.199999999999999" />
<line x1="598.1917317708337" y1="53.974826388888886" x2="604.3668619791671" y2="53.974826388888886" style="stroke:black; stroke-width:1.4; stroke-dasharray: 4.199999999999999 4.199999999999999" />
<text x="601.2792968750003" y="48.964084201388886"></text>
<line x1="604.3668619791671" y1="33.931857638888886" x2="610.5419921875005" y2="33.931857638888886" style="stroke:black; stroke-width:1.4; stroke-dasharray: 4.199999999999999 4.199999999999999" />
<line x1="604.3668619791671" y1="53.974826388888886" x2="610.5419921875005" y2="53.974826388888886" style="stroke:black; stroke-width:1.4; stroke-dasharray: 4.199999999999999 4.199999999999999" />
<text x="607.4544270833337" y="48.964084201388886"></text>
<rect x="610.5419921875005" y="33.931857638888886" width="6.175130208333333" height="20.04296875" style="stroke:black;  stroke-width:0; fill:lightgray;" />
<line x1="610.5419921875005" y1="33.931857638888886" x2="616.7171223958338" y2="33.931857638888886" style="stroke:black; stroke-width:1.4; stroke-dasharray: 4.199999999999999 4.199999999999999" />
<line x1="610.5419921875005" y1="53.974826388888886" x2="616.7171223958338" y2="53.974826388888886" style="stroke:black; stroke-width:1.4; stroke-dasharray: 4.199999999999999 4.199999999999999" />
<text x="613.6295572916671" y="48.964084201388886"></text>
<line x1="616.7171223958338" y1="33.931857638888886" x2="622.8922526041672" y2="33.931857638888886" style="stroke:black; stroke-width:1.4; stroke-dasharray: 4.199999999999999 4.199999999999999" />
<line x1="616.7171223958338" y1="53.974826388888886" x2="622.8922526041672" y2="53.974826388888886" style="stroke:black; stroke-width:1.4; stroke-dasharray: 4.199999999999999 4.199999999999999" />
<text x="619.8046875000005" y="48.964084201388886"></text>
<line x1="622.8922526041672" y1="33.931857638888886" x2="629.0673828125006" y2="33.931857638888886" style="stroke:black; stroke-width:1.4; stroke-dasharray: 4.199999999999999 4.199999999999999" />
<line x1="622.8922526041672" y1="53.974826388888886" x2="629.0673828125006" y2="53.974826388888886" style="stroke:black; stroke-width:1.4; stroke-dasharray: 4.199999999999999 4.199999999999999" />
<text x="625.9798177083338" y="48.964084201388886"></text>
<line x1="629.0673828125006" y1="33.931857638888886" x2="635.2425130208339" y2="33.931857638888886" style="stroke:black; stroke-width:1.4; stroke-dasharray: 4.199999999999999 4.199999999999999" />
<line x1="629.0673828125006" y1="53.974826388888886" x2="635.2425130208339" y2="53.974826388888886" style="stroke:black; stroke-width:1.4; stroke-dasharray: 4.199999999999999 4.199999999999999" />
<text x="632.1549479166672" y="48.964084201388886"></text>
<line x1="635.2425130208339" y1="33.931857638888886" x2="641.4176432291673" y2="33.931857638888886" style="stroke:black; stroke-width:1.4; stroke-dasharray: 4.199999999999999 4.199999999999999" />
<line x1="635.2425130208339" y1="53.974826388888886" x2="641.4176432291673" y2="53.974826388888886" style="stroke:black; stroke-width:1.4; stroke-dasharray: 4.199999999999999 4.199999999999999" />
<text x="638.3300781250006" y="48.964084201388886"></text>
<line x1="641.4176432291673" y1="33.931857638888886" x2="647.5927734375007" y2="33.931857638888886" style="stroke:black; stroke-width:1.4; stroke-dasharray: 4.199999999999999 4.199999999999999" />
<line x1="641.4176432291673" y1="53.974826388888886" x2="647.5927734375007" y2="53.974826388888886" style="stroke:black; stroke-width:1.4; stroke-dasharray: 4.199999999999999 4.199999999999999" />
<text x="644.5052083333339" y="48.964084201388886"></text>
<rect x="647.5927734375007" y="33.931857638888886" width="18.525390625" height="20.04296875" style="stroke:black;  stroke-width:1.4; fill:none;" />
<text x="650.5595703125007" y="48.964084201388886">21</text>
<line x1="666.1181640625" y1="43.953342013888886" x2="684.6435546875" y2="43.953342013888886" style="stroke:black; stroke-width:1.4; " />
<rect x="684.6435546875" y="33.931857638888886" width="18.525390625" height="20.04296875" style="stroke:black;  stroke-width:0; fill:lightgray;" />
<rect x="684.6435546875" y="33.931857638888886" width="18.525390625" height="20.04296875" style="stroke:black;  stroke-width:1.4; fill:none;" />
<text x="690.21484375" y="48.964084201388886">1</text>
<line x1="703.1689453125" y1="33.931857638888886" x2="709.3440755208334" y2="33.931857638888886" style="stroke:black; stroke-width:1.4; stroke-dasharray: 4.199999999999999 4.199999999999999" />
<line x1="703.1689453125" y1="53.974826388888886" x2="709.3440755208334" y2="53.974826388888886" style="stroke:black; stroke-width:1.4; stroke-dasharray: 4.199999999999999 4.199999999999999" />
<text x="706.2565104166666" y="48.964084201388886"></text>
<line x1="709.3440755208334" y1="33.931857638888886" x2="715.5192057291667" y2="33.931857638888886" style="stroke:black; stroke-width:1.4; stroke-dasharray: 4.199999999999999 4.199999999999999" />
<line x1="709.3440755208334" y1="53.974826388888886" x2="715.5192057291667" y2="53.974826388888886" style="stroke:black; stroke-width:1.4; stroke-dasharray: 4.199999999999999 4.199999999999999" />
<text x="712.431640625" y="48.964084201388886"></text>
<line x1="715.5192057291667" y1="33.931857638888886" x2="721.6943359375001" y2="33.931857638888886" style="stroke:black; stroke-width:1.4; stroke-dasharray: 4.199999999999999 4.199999999999999" />
<line x1="715.5192057291667" y1="53.974826388888886" x2="721.6943359375001" y2="53.974826388888886" style="stroke:black; stroke-width:1.4; stroke-dasharray: 4.199999999999999 4.199999999999999" />
<text x="718.6067708333334" y="48.964084201388886"></text>
<line x1="721.6943359375001" y1="33.931857638888886" x2="727.8694661458335" y2="33.931857638888886" style="stroke:black; stroke-width:1.4; stroke-dasharray: 4.199999999999999 4.199999999999999" />
<line x1="721.6943359375001" y1="53.974826388888886" x2="727.8694661458335" y2="53.974826388888886" style="stroke:black; stroke-width:1.4; stroke-dasharray: 4.199999999999999 4.199999999999999" />
<text x="724.7819010416667" y="48.964084201388886"></text>
<line x1="727.8694661458335" y1="33.931857638888886" x2="734.0445963541669" y2="33.931857638888886" style="stroke:black; stroke-width:1.4; stroke-dasharray: 4.199999999999999 4.199999999999999" />
<line x1="727.8694661458335" y1="53.974826388888886" x2="734.0445963541669" y2="53.974826388888886" style="stroke:black; stroke-width:1.4; stroke-dasharray: 4.199999999999999 4.199999999999999" />
<text x="730.9570312500001" y="48.964084201388886"></text>
<line x1="734.0445963541669" y1="33.931857638888886" x2="740.2197265625002" y2="33.931857638888886" style="stroke:black; stroke-width:1.4; stroke-dasharray: 4.199999999999999 4.199999999999999" />
<line x1="734.0445963541669" y1="53.974826388888886" x2="740.2197265625002" y2="53.974826388888886" style="stroke:black; stroke-width:1.4; stroke-dasharray: 4.199999999999999 4.199999999999999" />
<text x="737.1321614583335" y="48.964084201388886"></text>
<rect x="740.2197265625002" y="33.931857638888886" width="6.175130208333333" height="20.04296875" style="stroke:black;  stroke-width:0; fill:lightgray;" />
<line x1="740.2197265625002" y1="33.931857638888886" x2="746.3948567708336" y2="33.931857638888886" style="stroke:black; stroke-width:1.4; stroke-dasharray: 4.199999999999999 4.199999999999999" />
<line x1="740.2197265625002" y1="53.974826388888886" x2="746.3948567708336" y2="53.974826388888886" style="stroke:black; stroke-width:1.4; stroke-dasharray: 4.199999999999999 4.199999999999999" />
<text x="743.3072916666669" y="48.964084201388886"></text>
<line x1="746.3948567708336" y1="33.931857638888886" x2="752.569986979167" y2="33.931857638888886" style="stroke:black; stroke-width:1.4; stroke-dasharray: 4.199999999999999 4.199999999999999" />
<line x1="746.3948567708336" y1="53.974826388888886" x2="752.569986979167" y2="53.974826388888886" style="stroke:black; stroke-width:1.4; stroke-dasharray: 4.199999999999999 4.199999999999999" />
<text x="749.4824218750002" y="48.964084201388886"></text>
<line x1="752.569986979167" y1="33.931857638888886" x2="758.7451171875003" y2="33.931857638888886" style="stroke:black; stroke-width:1.4; stroke-dasharray: 4.199999999999999 4.199999999999999" />
<line x1="752.569986979167" y1="53.974826388888886" x2="758.7451171875003" y2="53.974826388888886" style="stroke:black; stroke-width:1.4; stroke-dasharray: 4.199999999999999 4.199999999999999" />
<text x="755.6575520833336" y="48.964084201388886"></text>
<line x1="758.7451171875003" y1="33.931857638888886" x2="764.9202473958337" y2="33.931857638888886" style="stroke:black; stroke-width:1.4; stroke-dasharray: 4.199999999999999 4.199999999999999" />
<line x1="758.7451171875003" y1="53.974826388888886" x2="764.9202473958337" y2="53.974826388888886" style="stroke:black; stroke-width:1.4; stroke-dasharray: 4.199999999999999 4.199999999999999" />
<text x="761.832682291667" y="48.964084201388886"></text>
<line x1="764.9202473958337" y1="33.931857638888886" x2="771.0953776041671" y2="33.931857638888886" style="stroke:black; stroke-width:1.4; stroke-dasharray: 4.199999999999999 4.199999999999999" />
<line x1="764.9202473958337" y1="53.974826388888886" x2="771.0953776041671" y2="53.974826388888886" style="stroke:black; stroke-width:1.4; stroke-dasharray: 4.199999999999999 4.199999999999999" />
<text x="768.0078125000003" y="48.964084201388886"></text>
<line x1="771.0953776041671" y1="33.931857638888886" x2="777.2705078125005" y2="33.931857638888886" style="stroke:black; stroke-width:1.4; stroke-dasharray: 4.199999999999999 4.199999999999999" />
<line x1="771.0953776041671" y1="53.974826388888886" x2="777.2705078125005" y2="53.974826388888886" style="stroke:black; stroke-width:1.4; stroke-dasharray: 4.199999999999999 4.199999999999999" />
<text x="774.1829427083337" y="48.964084201388886"></text>
<line x1="777.2705078125005" y1="33.931857638888886" x2="783.4456380208338" y2="33.931857638888886" style="stroke:black; stroke-width:1.4; stroke-dasharray: 4.199999999999999 4.199999999999999" />
<line x1="777.2705078125005" y1="53.974826388888886" x2="783.4456380208338" y2="53.974826388888886" style="stroke:black; stroke-width:1.4; stroke-dasharray: 4.199999999999999 4.199999999999999" />
<text x="780.3580729166671" y="48.964084201388886"></text>
<rect x="783.4456380208338" y="33.931857638888886" width="6.175130208333333" height="20.04296875" style="stroke:black;  stroke-width:0; fill:lightgray;" />
<line x1="783.4456380208338" y1="33.931857638888886" x2="789.6207682291672" y2="33.931857638888886" style="stroke:black; stroke-width:1.4; stroke-dasharray: 4.199999999999999 4.199999999999999" />
<line x1="783.4456380208338" y1="53.974826388888886" x2="789.6207682291672" y2="53.974826388888886" style="stroke:black; stroke-width:1.4; stroke-dasharray: 4.199999999999999 4.199999999999999" />
<text x="786.5332031250005" y="48.964084201388886"></text>
<line x1="789.6207682291672" y1="33.931857638888886" x2="795.7958984375006" y2="33.931857638888886" style="stroke:black; stroke-width:1.4; stroke-dasharray: 4.199999999999999 4.199999999999999" />
<line x1="789.6207682291672" y1="53.974826388888886" x2="795.7958984375006" y2="53.974826388888886" style="stroke:black; stroke-width:1.4; stroke-dasharray: 4.199999999999999 4.199999999999999" />
<text x="792.7083333333338" y="48.964084201388886"></text>
<line x1="795.7958984375006" y1="33.931857638888886" x2="801.9710286458339" y2="33.931857638888886" style="stroke:black; stroke-width:1.4; stroke-dasharray: 4.199999999999999 4.199999999999999" />
<line x1="795.7958984375006" y1="53.974826388888886" x2="801.9710286458339" y2="53.974826388888886" style="stroke:black; stroke-width:1.4; stroke-dasharray: 4.199999999999999 4.199999999999999" />
<text x="798.8834635416672" y="48.964084201388886"></text>
<line x1="801.9710286458339" y1="33.931857638888886" x2="808.1461588541673" y2="33.931857638888886" style="stroke:black; stroke-width:1.4; stroke-dasharray: 4.199999999999999 4.199999999999999" />
<line x1="801.9710286458339" y1="53.974826388888886" x2="808.1461588541673" y2="53.974826388888886" style="stroke:black; stroke-width:1.4; stroke-dasharray: 4.199999999999999 4.199999999999999" />
<text x="805.0585937500006" y="48.964084201388886"></text>
<line x1="808.1461588541673" y1="33.931857638888886" x2="814.3212890625007" y2="33.931857638888886" style="stroke:black; stroke-width:1.4; stroke-dasharray: 4.199999999999999 4.199999999999999" />
<line x1="808.1461588541673" y1="53.974826388888886" x2="814.3212890625007" y2="53.974826388888886" style="stroke:black; stroke-width:1.4; stroke-dasharray: 4.199999999999999 4.199999999999999" />
<text x="811.2337239583339" y="48.964084201388886"></text>
<line x1="814.3212890625007" y1="33.931857638888886" x2="820.496419270834" y2="33.931857638888886" style="stroke:black; stroke-width:1.4; stroke-dasharray: 4.199999999999999 4.199999999999999" />
<line x1="814.3212890625007" y1="53.974826388888886" x2="820.496419270834" y2="53.974826388888886" style="stroke:black; stroke-width:1.4; stroke-dasharray: 4.199999999999999 4.199999999999999" />
<text x="817.4088541666673" y="48.964084201388886"></text>
<rect x="820.496419270834" y="33.931857638888886" width="18.525390625" height="20.04296875" style="stroke:black;  stroke-width:1.4; fill:none;" />
<text x="823.463216145834" y="48.964084201388886">21</text>
<line x1="839.0218098958333" y1="43.953342013888886" x2="857.5472005208333" y2="43.953342013888886" style="stroke:black; stroke-width:1.4; " />
<rect x="857.5472005208333" y="33.931857638888886" width="18.525390625" height="20.04296875" style="stroke:black;  stroke-width:1.4; fill:none;" />
<text x="866.8098958333333" y="48.964084201388886"></text>
<text x="5" y="84.67335069444444">tepotinib</text>
<path d="M174.8345390625, 79.55186631944444 L174.8345390625, 73.53897569444445 L175.5560859375, 73.53897569444445 L175.5560859375, 79.55186631944444 L177.450146484375, 79.55186631944444 L175.1953125, 85.56475694444444 L172.940478515625, 79.55186631944444 L174.8345390625, 79.55186631944444 Z" style="stroke: black; fill: black; stroke-width:1.4; " /><circle cx="187.54557291666666" cy="79.55186631944444" r="0.6680989583333333" style="stroke:black;  stroke-width:1.2; fill:black;"/>
<circle cx="193.720703125" cy="79.55186631944444" r="0.6680989583333333" style="stroke:black;  stroke-width:1.2; fill:black;"/>
<circle cx="199.89583333333334" cy="79.55186631944444" r="0.6680989583333333" style="stroke:black;  stroke-width:1.2; fill:black;"/>
<circle cx="206.07096354166669" cy="79.55186631944444" r="0.6680989583333333" style="stroke:black;  stroke-width:1.2; fill:black;"/>
<circle cx="212.24609375000003" cy="79.55186631944444" r="0.6680989583333333" style="stroke:black;  stroke-width:1.2; fill:black;"/>
<circle cx="218.42122395833337" cy="79.55186631944444" r="0.6680989583333333" style="stroke:black;  stroke-width:1.2; fill:black;"/>
<circle cx="224.5963541666667" cy="79.55186631944444" r="0.6680989583333333" style="stroke:black;  stroke-width:1.2; fill:black;"/>
<circle cx="230.77148437500006" cy="79.55186631944444" r="0.6680989583333333" style="stroke:black;  stroke-width:1.2; fill:black;"/>
<circle cx="236.9466145833334" cy="79.55186631944444" r="0.6680989583333333" style="stroke:black;  stroke-width:1.2; fill:black;"/>
<circle cx="243.12174479166674" cy="79.55186631944444" r="0.6680989583333333" style="stroke:black;  stroke-width:1.2; fill:black;"/>
<circle cx="249.29687500000009" cy="79.55186631944444" r="0.6680989583333333" style="stroke:black;  stroke-width:1.2; fill:black;"/>
<circle cx="255.47200520833343" cy="79.55186631944444" r="0.6680989583333333" style="stroke:black;  stroke-width:1.2; fill:black;"/>
<circle cx="261.6471354166668" cy="79.55186631944444" r="0.6680989583333333" style="stroke:black;  stroke-width:1.2; fill:black;"/>
<circle cx="267.8222656250001" cy="79.55186631944444" r="0.6680989583333333" style="stroke:black;  stroke-width:1.2; fill:black;"/>
<circle cx="273.9973958333334" cy="79.55186631944444" r="0.6680989583333333" style="stroke:black;  stroke-width:1.2; fill:black;"/>
<circle cx="280.17252604166674" cy="79.55186631944444" r="0.6680989583333333" style="stroke:black;  stroke-width:1.2; fill:black;"/>
<circle cx="286.34765625000006" cy="79.55186631944444" r="0.6680989583333333" style="stroke:black;  stroke-width:1.2; fill:black;"/>
<circle cx="292.52278645833337" cy="79.55186631944444" r="0.6680989583333333" style="stroke:black;  stroke-width:1.2; fill:black;"/>
<circle cx="298.6979166666667" cy="79.55186631944444" r="0.6680989583333333" style="stroke:black;  stroke-width:1.2; fill:black;"/>
<path d="M310.68740364583334, 79.55186631944444 L310.68740364583334, 73.53897569444445 L311.4089505208333, 73.53897569444445 L311.4089505208333, 79.55186631944444 L313.3030110677083, 79.55186631944444 L311.0481770833333, 85.56475694444444 L308.7933430989583, 79.55186631944444 L310.68740364583334, 79.55186631944444 Z" style="stroke: black; fill: black; stroke-width:1.4; " /><path d="M347.73818489583334, 79.55186631944444 L347.73818489583334, 73.53897569444445 L348.4597317708333, 73.53897569444445 L348.4597317708333, 79.55186631944444 L350.3537923177083, 79.55186631944444 L348.0989583333333, 85.56475694444444 L345.8441243489583, 79.55186631944444 L347.73818489583334, 79.55186631944444 Z" style="stroke: black; fill: black; stroke-width:1.4; " /><circle cx="360.44921875" cy="79.55186631944444" r="0.6680989583333333" style="stroke:black;  stroke-width:1.2; fill:black;"/>
<circle cx="366.6243489583333" cy="79.55186631944444" r="0.6680989583333333" style="stroke:black;  stroke-width:1.2; fill:black;"/>
<circle cx="372.79947916666663" cy="79.55186631944444" r="0.6680989583333333" style="stroke:black;  stroke-width:1.2; fill:black;"/>
<circle cx="378.97460937499994" cy="79.55186631944444" r="0.6680989583333333" style="stroke:black;  stroke-width:1.2; fill:black;"/>
<circle cx="385.14973958333326" cy="79.55186631944444" r="0.6680989583333333" style="stroke:black;  stroke-width:1.2; fill:black;"/>
<circle cx="391.3248697916666" cy="79.55186631944444" r="0.6680989583333333" style="stroke:black;  stroke-width:1.2; fill:black;"/>
<circle cx="397.4999999999999" cy="79.55186631944444" r="0.6680989583333333" style="stroke:black;  stroke-width:1.2; fill:black;"/>
<circle cx="403.6751302083332" cy="79.55186631944444" r="0.6680989583333333" style="stroke:black;  stroke-width:1.2; fill:black;"/>
<circle cx="409.8502604166665" cy="79.55186631944444" r="0.6680989583333333" style="stroke:black;  stroke-width:1.2; fill:black;"/>
<circle cx="416.02539062499983" cy="79.55186631944444" r="0.6680989583333333" style="stroke:black;  stroke-width:1.2; fill:black;"/>
<circle cx="422.20052083333314" cy="79.55186631944444" r="0.6680989583333333" style="stroke:black;  stroke-width:1.2; fill:black;"/>
<circle cx="428.37565104166646" cy="79.55186631944444" r="0.6680989583333333" style="stroke:black;  stroke-width:1.2; fill:black;"/>
<circle cx="434.5507812499998" cy="79.55186631944444" r="0.6680989583333333" style="stroke:black;  stroke-width:1.2; fill:black;"/>
<circle cx="440.7259114583331" cy="79.55186631944444" r="0.6680989583333333" style="stroke:black;  stroke-width:1.2; fill:black;"/>
<circle cx="446.9010416666664" cy="79.55186631944444" r="0.6680989583333333" style="stroke:black;  stroke-width:1.2; fill:black;"/>
<circle cx="453.0761718749997" cy="79.55186631944444" r="0.6680989583333333" style="stroke:black;  stroke-width:1.2; fill:black;"/>
<circle cx="459.25130208333303" cy="79.55186631944444" r="0.6680989583333333" style="stroke:black;  stroke-width:1.2; fill:black;"/>
<circle cx="465.42643229166634" cy="79.55186631944444" r="0.6680989583333333" style="stroke:black;  stroke-width:1.2; fill:black;"/>
<circle cx="471.60156249999966" cy="79.55186631944444" r="0.6680989583333333" style="stroke:black;  stroke-width:1.2; fill:black;"/>
<path d="M483.5910494791663, 79.55186631944444 L483.5910494791663, 73.53897569444445 L484.31259635416626, 73.53897569444445 L484.31259635416626, 79.55186631944444 L486.2066569010413, 79.55186631944444 L483.9518229166663, 85.56475694444444 L481.6969889322913, 79.55186631944444 L483.5910494791663, 79.55186631944444 Z" style="stroke: black; fill: black; stroke-width:1.4; " /><path d="M520.6418307291666, 79.55186631944444 L520.6418307291666, 73.53897569444445 L521.3633776041667, 73.53897569444445 L521.3633776041667, 79.55186631944444 L523.2574381510416, 79.55186631944444 L521.0026041666666, 85.56475694444444 L518.7477701822917, 79.55186631944444 L520.6418307291666, 79.55186631944444 Z" style="stroke: black; fill: black; stroke-width:1.4; " /><circle cx="533.3528645833333" cy="79.55186631944444" r="0.6680989583333333" style="stroke:black;  stroke-width:1.2; fill:black;"/>
<circle cx="539.5279947916666" cy="79.55186631944444" r="0.6680989583333333" style="stroke:black;  stroke-width:1.2; fill:black;"/>
<circle cx="545.703125" cy="79.55186631944444" r="0.6680989583333333" style="stroke:black;  stroke-width:1.2; fill:black;"/>
<circle cx="551.8782552083334" cy="79.55186631944444" r="0.6680989583333333" style="stroke:black;  stroke-width:1.2; fill:black;"/>
<circle cx="558.0533854166667" cy="79.55186631944444" r="0.6680989583333333" style="stroke:black;  stroke-width:1.2; fill:black;"/>
<circle cx="564.2285156250001" cy="79.55186631944444" r="0.6680989583333333" style="stroke:black;  stroke-width:1.2; fill:black;"/>
<circle cx="570.4036458333335" cy="79.55186631944444" r="0.6680989583333333" style="stroke:black;  stroke-width:1.2; fill:black;"/>
<circle cx="576.5787760416669" cy="79.55186631944444" r="0.6680989583333333" style="stroke:black;  stroke-width:1.2; fill:black;"/>
<circle cx="582.7539062500002" cy="79.55186631944444" r="0.6680989583333333" style="stroke:black;  stroke-width:1.2; fill:black;"/>
<circle cx="588.9290364583336" cy="79.55186631944444" r="0.6680989583333333" style="stroke:black;  stroke-width:1.2; fill:black;"/>
<circle cx="595.104166666667" cy="79.55186631944444" r="0.6680989583333333" style="stroke:black;  stroke-width:1.2; fill:black;"/>
<circle cx="601.2792968750003" cy="79.55186631944444" r="0.6680989583333333" style="stroke:black;  stroke-width:1.2; fill:black;"/>
<circle cx="607.4544270833337" cy="79.55186631944444" r="0.6680989583333333" style="stroke:black;  stroke-width:1.2; fill:black;"/>
<circle cx="613.6295572916671" cy="79.55186631944444" r="0.6680989583333333" style="stroke:black;  stroke-width:1.2; fill:black;"/>
<circle cx="619.8046875000005" cy="79.55186631944444" r="0.6680989583333333" style="stroke:black;  stroke-width:1.2; fill:black;"/>
<circle cx="625.9798177083338" cy="79.55186631944444" r="0.6680989583333333" style="stroke:black;  stroke-width:1.2; fill:black;"/>
<circle cx="632.1549479166672" cy="79.55186631944444" r="0.6680989583333333" style="stroke:black;  stroke-width:1.2; fill:black;"/>
<circle cx="638.3300781250006" cy="79.55186631944444" r="0.6680989583333333" style="stroke:black;  stroke-width:1.2; fill:black;"/>
<circle cx="644.5052083333339" cy="79.55186631944444" r="0.6680989583333333" style="stroke:black;  stroke-width:1.2; fill:black;"/>
<path d="M656.4946953125007, 79.55186631944444 L656.4946953125007, 73.53897569444445 L657.2162421875007, 73.53897569444445 L657.2162421875007, 79.55186631944444 L659.1103027343756, 79.55186631944444 L656.8554687500007, 85.56475694444444 L654.6006347656257, 79.55186631944444 L656.4946953125007, 79.55186631944444 Z" style="stroke: black; fill: black; stroke-width:1.4; " /><path d="M693.5454765625, 79.55186631944444 L693.5454765625, 73.53897569444445 L694.2670234375, 73.53897569444445 L694.2670234375, 79.55186631944444 L696.161083984375, 79.55186631944444 L693.90625, 85.56475694444444 L691.651416015625, 79.55186631944444 L693.5454765625, 79.55186631944444 Z" style="stroke: black; fill: black; stroke-width:1.4; " /><circle cx="706.2565104166666" cy="79.55186631944444" r="0.6680989583333333" style="stroke:black;  stroke-width:1.2; fill:black;"/>
<circle cx="712.431640625" cy="79.55186631944444" r="0.6680989583333333" style="stroke:black;  stroke-width:1.2; fill:black;"/>
<circle cx="718.6067708333334" cy="79.55186631944444" r="0.6680989583333333" style="stroke:black;  stroke-width:1.2; fill:black;"/>
<circle cx="724.7819010416667" cy="79.55186631944444" r="0.6680989583333333" style="stroke:black;  stroke-width:1.2; fill:black;"/>
<circle cx="730.9570312500001" cy="79.55186631944444" r="0.6680989583333333" style="stroke:black;  stroke-width:1.2; fill:black;"/>
<circle cx="737.1321614583335" cy="79.55186631944444" r="0.6680989583333333" style="stroke:black;  stroke-width:1.2; fill:black;"/>
<circle cx="743.3072916666669" cy="79.55186631944444" r="0.6680989583333333" style="stroke:black;  stroke-width:1.2; fill:black;"/>
<circle cx="749.4824218750002" cy="79.55186631944444" r="0.6680989583333333" style="stroke:black;  stroke-width:1.2; fill:black;"/>
<circle cx="755.6575520833336" cy="79.55186631944444" r="0.6680989583333333" style="stroke:black;  stroke-width:1.2; fill:black;"/>
<circle cx="761.832682291667" cy="79.55186631944444" r="0.6680989583333333" style="stroke:black;  stroke-width:1.2; fill:black;"/>
<circle cx="768.0078125000003" cy="79.55186631944444" r="0.6680989583333333" style="stroke:black;  stroke-width:1.2; fill:black;"/>
<circle cx="774.1829427083337" cy="79.55186631944444" r="0.6680989583333333" style="stroke:black;  stroke-width:1.2; fill:black;"/>
<circle cx="780.3580729166671" cy="79.55186631944444" r="0.6680989583333333" style="stroke:black;  stroke-width:1.2; fill:black;"/>
<circle cx="786.5332031250005" cy="79.55186631944444" r="0.6680989583333333" style="stroke:black;  stroke-width:1.2; fill:black;"/>
<circle cx="792.7083333333338" cy="79.55186631944444" r="0.6680989583333333" style="stroke:black;  stroke-width:1.2; fill:black;"/>
<circle cx="798.8834635416672" cy="79.55186631944444" r="0.6680989583333333" style="stroke:black;  stroke-width:1.2; fill:black;"/>
<circle cx="805.0585937500006" cy="79.55186631944444" r="0.6680989583333333" style="stroke:black;  stroke-width:1.2; fill:black;"/>
<circle cx="811.2337239583339" cy="79.55186631944444" r="0.6680989583333333" style="stroke:black;  stroke-width:1.2; fill:black;"/>
<circle cx="817.4088541666673" cy="79.55186631944444" r="0.6680989583333333" style="stroke:black;  stroke-width:1.2; fill:black;"/>
<path d="M829.398341145834, 79.55186631944444 L829.398341145834, 73.53897569444445 L830.1198880208341, 73.53897569444445 L830.1198880208341, 79.55186631944444 L832.013948567709, 79.55186631944444 L829.759114583334, 85.56475694444444 L827.5042805989591, 79.55186631944444 L829.398341145834, 79.55186631944444 Z" style="stroke: black; fill: black; stroke-width:1.4; " /><text x="5" y="111.51792534722223">RECIST</text>
<path d="M134.63701171875, 107.37261284722223 L138.14453125, 100.35757378472223 L141.65205078125, 107.37261284722223 L138.14453125, 114.38765190972222 L134.63701171875, 107.37261284722223 Z" style="stroke: black; fill: none; stroke-width:1.4; " /><path d="M517.4950846354167, 107.37261284722223 L521.0026041666666, 100.35757378472223 L524.5101236979166, 107.37261284722223 L521.0026041666666, 114.38765190972222 L517.4950846354167, 107.37261284722223 Z" style="stroke: black; fill: none; stroke-width:1.4; " /><path d="M863.3023763020833, 107.37261284722223 L866.8098958333333, 100.35757378472223 L870.3174153645832, 107.37261284722223 L866.8098958333333, 114.38765190972222 L863.3023763020833, 107.37261284722223 Z" style="stroke: black; fill: none; stroke-width:1.4; " /><text x="5" y="140.448828125">digital ECG</text>
<path d="M168.71142578125, 138.951416015625 L168.71142578125, 131.435302734375 L181.67919921875, 131.435302734375 L181.67919921875, 138.951416015625 L168.71142578125, 138.951416015625 Z" style="stroke: black; fill: none; stroke-width:1.4; " /><path d="M341.6150716145833, 138.951416015625 L341.6150716145833, 131.435302734375 L354.5828450520833, 131.435302734375 L354.5828450520833, 138.951416015625 L341.6150716145833, 138.951416015625 Z" style="stroke: black; fill: none; stroke-width:1.4; " /><path d="M517.4950846354167, 135.193359375 L521.0026041666666, 128.1783203125 L524.5101236979166, 135.193359375 L521.0026041666666, 142.2083984375 L517.4950846354167, 135.193359375 Z" style="stroke: black; fill: none; stroke-width:1.4; " /><path d="M690.39873046875, 135.193359375 L693.90625, 128.1783203125 L697.41376953125, 135.193359375 L693.90625, 142.2083984375 L690.39873046875, 135.193359375 Z" style="stroke: black; fill: none; stroke-width:1.4; " /><path d="M863.3023763020833, 135.193359375 L866.8098958333333, 128.1783203125 L870.3174153645832, 135.193359375 L866.8098958333333, 142.2083984375 L863.3023763020833, 135.193359375 Z" style="stroke: black; fill: none; stroke-width:1.4; " /><text x="5" y="168.26957465277778">safety lab</text>
<path d="M171.68779296875, 163.01410590277777 L175.1953125, 155.99906684027778 L178.70283203125, 163.01410590277777 L175.1953125, 170.02914496527777 L171.68779296875, 163.01410590277777 Z" style="stroke: black; fill: none; stroke-width:1.4; " /><path d="M344.5914388020833, 163.01410590277777 L348.0989583333333, 155.99906684027778 L351.6064778645833, 163.01410590277777 L348.0989583333333, 170.02914496527777 L344.5914388020833, 163.01410590277777 Z" style="stroke: black; fill: none; stroke-width:1.4; " /><path d="M517.4950846354167, 163.01410590277777 L521.0026041666666, 155.99906684027778 L524.5101236979166, 163.01410590277777 L521.0026041666666, 170.02914496527777 L517.4950846354167, 163.01410590277777 Z" style="stroke: black; fill: none; stroke-width:1.4; " /><path d="M690.39873046875, 163.01410590277777 L693.90625, 155.99906684027778 L697.41376953125, 163.01410590277777 L693.90625, 170.02914496527777 L690.39873046875, 163.01410590277777 Z" style="stroke: black; fill: none; stroke-width:1.4; " /><text x="5" y="196.02196180555555">ctDNA sampling</text>
<path d="M517.4950846354167, 190.83485243055554 L521.0026041666666, 183.81981336805555 L524.5101236979166, 190.83485243055554 L521.0026041666666, 197.84989149305554 L517.4950846354167, 190.83485243055554 Z" style="stroke: black; fill: none; stroke-width:1.4; " /><path d="M863.3023763020833, 190.83485243055554 L866.8098958333333, 183.81981336805555 L870.3174153645832, 190.83485243055554 L866.8098958333333, 197.84989149305554 L863.3023763020833, 190.83485243055554 Z" style="stroke: black; fill: none; stroke-width:1.4; " /><text x="5" y="223.84270833333332">PK sampling</text>
<path d="M168.71142578125, 222.41365559895831 L168.71142578125, 214.89754231770831 L181.67919921875, 214.89754231770831 L181.67919921875, 222.41365559895831 L168.71142578125, 222.41365559895831 Z" style="stroke: black; fill: none; stroke-width:1.4; " /><path d="M341.6150716145833, 222.41365559895831 L341.6150716145833, 214.89754231770831 L354.5828450520833, 214.89754231770831 L354.5828450520833, 222.41365559895831 L341.6150716145833, 222.41365559895831 Z" style="stroke: black; fill: none; stroke-width:1.4; " /></svg>