<svg width="586.1468098958333" height="228.67708333333331" xmlns="http://www.w3.org/2000/svg">
<style>text {font-family: Arial; font-size: 14px ;}</style>
<desc>Trial design autogenerated by td.py version 2.1 (Jan-2022), author: Rainer Strotmann</desc><title>ms0039</title><rect x="260.40869140625" y="10" width="151.29069010416666" height="214.78819444444443" style="stroke:black;  stroke-width:0; fill:#eee;" />
<text x="122.11083984375" y="25.0322265625">S</text>
<text x="161.84130859375" y="25.0322265625">Treatment A</text>
<text x="298.0769856770833" y="25.0322265625">Treatment B</text>
<text x="458.14843749999994" y="25.0322265625">Treatment C</text>
<rect x="116.8369140625" y="33.931857638888886" width="18.525390625" height="20.04296875" style="stroke:black;  stroke-width:1.4; fill:none;" />
<text x="126.099609375" y="48.964084201388886"></text>
<line x1="135.3623046875" y1="43.953342013888886" x2="153.8876953125" y2="43.953342013888886" style="stroke:black; stroke-width:1.4; " />
<rect x="153.8876953125" y="33.931857638888886" width="18.525390625" height="20.04296875" style="stroke:black;  stroke-width:0; fill:lightgray;" />
<rect x="153.8876953125" y="33.931857638888886" width="18.525390625" height="20.04296875" style="stroke:black;  stroke-width:1.4; fill:none;" />
<text x="159.458984375" y="48.964084201388886">1</text>
<rect x="172.4130859375" y="33.931857638888886" width="18.525390625" height="20.04296875" style="stroke:black;  stroke-width:1.4; fill:none;" />
<text x="178.35693359375" y="48.964084201388886">2</text>
<rect x="190.9384765625" y="33.931857638888886" width="18.525390625" height="20.04296875" style="stroke:black;  stroke-width:1.4; fill:none;" />
<text x="196.919921875" y="48.964084201388886">3</text>
<line x1="209.4638671875" y1="33.931857638888886" x2="215.63899739583334" y2="33.931857638888886" style="stroke:black; stroke-width:1.4; stroke-dasharray: 4.199999999999999 4.199999999999999" />
<line x1="209.4638671875" y1="53.974826388888886" x2="215.63899739583334" y2="53.974826388888886" style="stroke:black; stroke-width:1.4; stroke-dasharray: 4.199999999999999 4.199999999999999" />
<text x="212.55143229166666" y="48.964084201388886"></text>
<line x1="215.63899739583334" y1="33.931857638888886" x2="221.81412760416669" y2="33.931857638888886" style="stroke:black; stroke-width:1.4; stroke-dasharray: 4.199999999999999 4.199999999999999" />
<line x1="215.63899739583334" y1="53.974826388888886" x2="221.81412760416669" y2="53.974826388888886" style="stroke:black; stroke-width:1.4; stroke-dasharray: 4.199999999999999 4.199999999999999" />
<text x="218.7265625" y="48.964084201388886"></text>
<line x1="221.81412760416669" y1="33.931857638888886" x2="227.98925781250003" y2="33.931857638888886" style="stroke:black; stroke-width:1.4; stroke-dasharray: 4.199999999999999 4.199999999999999" />
<line x1="221.81412760416669" y1="53.974826388888886" x2="227.98925781250003" y2="53.974826388888886" style="stroke:black; stroke-width:1.4; stroke-dasharray: 4.199999999999999 4.199999999999999" />
<text x="224.90169270833334" y="48.964084201388886"></text>
<rect x="227.98925781250003" y="33.931857638888886" width="18.525390625" height="20.04296875" style="stroke:black;  stroke-width:1.4; fill:none;" />
<text x="234.00830078125003" y="48.964084201388886">7</text>
<line x1="246.5146484375" y1="43.953342013888886" x2="265.0400390625" y2="43.953342013888886" style="stroke:black; stroke-width:1.4; " />
<rect x="265.0400390625" y="33.931857638888886" width="18.525390625" height="20.04296875" style="stroke:black;  stroke-width:0; fill:lightgray;" />
<rect x="265.0400390625" y="33.931857638888886" width="18.525390625" height="20.04296875" style="stroke:black;  stroke-width:1.4; fill:none;" />
<text x="270.611328125" y="48.964084201388886">1</text>
<line x1="283.5654296875" y1="33.931857638888886" x2="289.7405598958333" y2="33.931857638888886" style="stroke:black; stroke-width:1.4; stroke-dasharray: 4.199999999999999 4.199999999999999" />
<line x1="283.5654296875" y1="53.974826388888886" x2="289.7405598958333" y2="53.974826388888886" style="stroke:black; stroke-width:1.4; stroke-dasharray: 4.199999999999999 4.199999999999999" />
<text x="286.6529947916667" y="48.964084201388886"></text>
<line x1="289.7405598958333" y1="33.931857638888886" x2="295.91569010416663" y2="33.931857638888886" style="stroke:black; stroke-width:1.4; stroke-dasharray: 4.199999999999999 4.199999999999999" />
<line x1="289.7405598958333" y1="53.974826388888886" x2="295.91569010416663" y2="53.974826388888886" style="stroke:black; stroke-width:1.4; stroke-dasharray: 4.199999999999999 4.199999999999999" />
<text x="292.828125" y="48.964084201388886"></text>
<line x1="295.91569010416663" y1="33.931857638888886" x2="302.09082031249994" y2="33.931857638888886" style="stroke:black; stroke-width:1.4; stroke-dasharray: 4.199999999999999 4.199999999999999" />
<line x1="295.91569010416663" y1="53.974826388888886" x2="302.09082031249994" y2="53.974826388888886" style="stroke:black; stroke-width:1.4; stroke-dasharray: 4.199999999999999 4.199999999999999" />
<text x="299.0032552083333" y="48.964084201388886"></text>
<rect x="302.09082031249994" y="33.931857638888886" width="18.525390625" height="20.04296875" style="stroke:black;  stroke-width:1.4; fill:none;" />
<text x="308.03124999999994" y="48.964084201388886">5</text>
<rect x="320.61621093749994" y="33.931857638888886" width="18.525390625" height="20.04296875" style="stroke:black;  stroke-width:1.4; fill:none;" />
<text x="326.57031249999994" y="48.964084201388886">6</text>
<rect x="339.14160156249994" y="33.931857638888886" width="18.525390625" height="20.04296875" style="stroke:black;  stroke-width:1.4; fill:none;" />
<text x="345.16064453124994" y="48.964084201388886">7</text>
<rect x="357.66699218749994" y="33.931857638888886" width="18.525390625" height="20.04296875" style="stroke:black;  stroke-width:0; fill:lightgray;" />
<rect x="357.66699218749994" y="33.931857638888886" width="18.525390625" height="20.04296875" style="stroke:black;  stroke-width:1.4; fill:none;" />
<text x="363.62792968749994" y="48.964084201388886">8</text>
<line x1="376.19238281249994" y1="33.931857638888886" x2="382.36751302083326" y2="33.931857638888886" style="stroke:black; stroke-width:1.4; stroke-dasharray: 4.199999999999999 4.199999999999999" />
<line x1="376.19238281249994" y1="53.974826388888886" x2="382.36751302083326" y2="53.974826388888886" style="stroke:black; stroke-width:1.4; stroke-dasharray: 4.199999999999999 4.199999999999999" />
<text x="379.27994791666663" y="48.964084201388886"></text>
<line x1="382.36751302083326" y1="33.931857638888886" x2="388.5426432291666" y2="33.931857638888886" style="stroke:black; stroke-width:1.4; stroke-dasharray: 4.199999999999999 4.199999999999999" />
<line x1="382.36751302083326" y1="53.974826388888886" x2="388.5426432291666" y2="53.974826388888886" style="stroke:black; stroke-width:1.4; stroke-dasharray: 4.199999999999999 4.199999999999999" />
<text x="385.45507812499994" y="48.964084201388886"></text>
<rect x="388.5426432291666" y="33.931857638888886" width="18.525390625" height="20.04296875" style="stroke:black;  stroke-width:1.4; fill:none;" />
<text x="390.2208658854166" y="48.964084201388886">11</text>
<line x1="407.06803385416663" y1="43.953342013888886" x2="425.59342447916663" y2="43.953342013888886" style="stroke:black; stroke-width:1.4; " />
<rect x="425.59342447916663" y="33.931857638888886" width="18.525390625" height="20.04296875" style="stroke:black;  stroke-width:0; fill:lightgray;" />
<rect x="425.59342447916663" y="33.931857638888886" width="18.525390625" height="20.04296875" style="stroke:black;  stroke-width:1.4; fill:none;" />
<text x="431.16471354166663" y="48.964084201388886">1</text>
<line x1="444.11881510416663" y1="33.931857638888886" x2="450.29394531249994" y2="33.931857638888886" style="stroke:black; stroke-width:1.4; stroke-dasharray: 4.199999999999999 4.199999999999999" />
<line x1="444.11881510416663" y1="53.974826388888886" x2="450.29394531249994" y2="53.974826388888886" style="stroke:black; stroke-width:1.4; stroke-dasharray: 4.199999999999999 4.199999999999999" />
<text x="447.2063802083333" y="48.964084201388886"></text>
<line x1="450.29394531249994" y1="33.931857638888886" x2="456.46907552083326" y2="33.931857638888886" style="stroke:black; stroke-width:1.4; stroke-dasharray: 4.199999999999999 4.199999999999999" />
<line x1="450.29394531249994" y1="53.974826388888886" x2="456.46907552083326" y2="53.974826388888886" style="stroke:black; stroke-width:1.4; stroke-dasharray: 4.199999999999999 4.199999999999999" />
<text x="453.38151041666663" y="48.964084201388886"></text>
<line x1="456.46907552083326" y1="33.931857638888886" x2="462.6442057291666" y2="33.931857638888886" style="stroke:black; stroke-width:1.4; stroke-dasharray: 4.199999999999999 4.199999999999999" />
<line x1="456.46907552083326" y1="53.974826388888886" x2="462.6442057291666" y2="53.974826388888886" style="stroke:black; stroke-width:1.4; stroke-dasharray: 4.199999999999999 4.199999999999999" />
<text x="459.55664062499994" y="48.964084201388886"></text>
<rect x="462.6442057291666" y="33.931857638888886" width="18.525390625" height="20.04296875" style="stroke:black;  stroke-width:1.4; fill:none;" />
<text x="468.5846354166666" y="48.964084201388886">5</text>
<rect x="481.1695963541666" y="33.931857638888886" width="18.525390625" height="20.04296875" style="stroke:black;  stroke-width:1.4; fill:none;" />
<text x="487.1236979166666" y="48.964084201388886">6</text>
<rect x="499.6949869791666" y="33.931857638888886" width="18.525390625" height="20.04296875" style="stroke:black;  stroke-width:1.4; fill:none;" />
<text x="505.7140299479166" y="48.964084201388886">7</text>
<rect x="518.2203776041665" y="33.931857638888886" width="18.525390625" height="20.04296875" style="stroke:black;  stroke-width:0; fill:lightgray;" />
<rect x="518.2203776041665" y="33.931857638888886" width="18.525390625" height="20.04296875" style="stroke:black;  stroke-width:1.4; fill:none;" />
<text x="524.1813151041665" y="48.964084201388886">8</text>
<line x1="536.7457682291665" y1="33.931857638888886" x2="542.9208984374999" y2="33.931857638888886" style="stroke:black; stroke-width:1.4; stroke-dasharray: 4.199999999999999 4.199999999999999" />
<line x1="536.7457682291665" y1="53.974826388888886" x2="542.9208984374999" y2="53.974826388888886" style="stroke:black; stroke-width:1.4; stroke-dasharray: 4.199999999999999 4.199999999999999" />
<text x="539.8333333333331" y="48.964084201388886"></text>
<line x1="542.9208984374999" y1="33.931857638888886" x2="549.0960286458333" y2="33.931857638888886" style="stroke:black; stroke-width:1.4; stroke-dasharray: 4.199999999999999 4.199999999999999" />
<line x1="542.9208984374999" y1="53.974826388888886" x2="549.0960286458333" y2="53.974826388888886" style="stroke:black; stroke-width:1.4; stroke-dasharray: 4.199999999999999 4.199999999999999" />
<text x="546.0084635416665" y="48.964084201388886"></text>
<rect x="549.0960286458333" y="33.931857638888886" width="18.525390625" height="20.04296875" style="stroke:black;  stroke-width:1.4; fill:none;" />
<text x="550.7742513020833" y="48.964084201388886">11</text>
<text x="274.302734375" y="84.56260850694444"></text>
<text x="286.6529947916667" y="84.56260850694444"></text>
<text x="292.828125" y="84.56260850694444"></text>
<text x="299.0032552083333" y="84.56260850694444"></text>
<text x="303.19140624999994" y="84.56260850694444">V2</text>
<text x="329.87890624999994" y="84.56260850694444"></text>
<text x="348.40429687499994" y="84.56260850694444"></text>
<text x="366.92968749999994" y="84.56260850694444"></text>
<text x="379.27994791666663" y="84.56260850694444"></text>
<text x="385.45507812499994" y="84.56260850694444"></text>
<text x="397.8053385416666" y="84.56260850694444"></text>
<text x="5" y="104.71631944444444">hospitalization</text>
<rect x="153.8876953125" y="95.58624131944444" width="55.576171875" height="8.0171875" style="stroke:black;  stroke-width:1.4; fill:none;" />
<rect x="302.09082031249994" y="95.58624131944444" width="55.576171875" height="8.0171875" style="stroke:black;  stroke-width:1.4; fill:none;" />
<rect x="462.6442057291666" y="95.58624131944444" width="55.57617187499994" height="8.0171875" style="stroke:black;  stroke-width:1.4; fill:none;" />
<text x="5" y="132.53706597222222">tepotinib</text>
<path d="M162.7896171875, 127.41558159722223 L162.7896171875, 121.40269097222223 L163.5111640625, 121.40269097222223 L163.5111640625, 127.41558159722223 L165.405224609375, 127.41558159722223 L163.150390625, 133.42847222222224 L160.895556640625, 127.41558159722223 L162.7896171875, 127.41558159722223 Z" style="stroke: black; fill: black; stroke-width:1.4; " /><path d="M310.99274218749997, 127.41558159722223 L310.99274218749997, 121.40269097222223 L311.7142890624999, 121.40269097222223 L311.7142890624999, 127.41558159722223 L313.60834960937495, 127.41558159722223 L311.35351562499994, 133.42847222222224 L309.09868164062493, 127.41558159722223 L310.99274218749997, 127.41558159722223 Z" style="stroke: black; fill: black; stroke-width:1.4; " /><path d="M471.5461276041666, 127.41558159722223 L471.5461276041666, 121.40269097222223 L472.26767447916654, 121.40269097222223 L472.26767447916654, 127.41558159722223 L474.1617350260416, 127.41558159722223 L471.9069010416666, 133.42847222222224 L469.65206705729156, 127.41558159722223 L471.5461276041666, 127.41558159722223 Z" style="stroke: black; fill: black; stroke-width:1.4; " /><text x="5" y="160.3578125">omeprazole</text>
<path d="M273.9419609375, 155.236328125 L273.9419609375, 149.2234375 L274.6635078125, 149.2234375 L274.6635078125, 155.236328125 L276.557568359375, 155.236328125 L274.302734375, 161.24921875 L272.047900390625, 155.236328125 L273.9419609375, 155.236328125 Z" style="stroke: black; fill: black; stroke-width:1.4; " /><path d="M286.2922213541667, 155.236328125 L286.2922213541667, 149.2234375 L287.01376822916666, 149.2234375 L287.01376822916666, 155.236328125 L288.9078287760417, 155.236328125 L286.6529947916667, 161.24921875 L284.3981608072917, 155.236328125 L286.2922213541667, 155.236328125 Z" style="stroke: black; fill: black; stroke-width:1.4; " /><path d="M292.4673515625, 155.236328125 L292.4673515625, 149.2234375 L293.1888984375, 149.2234375 L293.1888984375, 155.236328125 L295.082958984375, 155.236328125 L292.828125, 161.24921875 L290.573291015625, 155.236328125 L292.4673515625, 155.236328125 Z" style="stroke: black; fill: black; stroke-width:1.4; " /><path d="M298.64248177083334, 155.236328125 L298.64248177083334, 149.2234375 L299.3640286458333, 149.2234375 L299.3640286458333, 155.236328125 L301.2580891927083, 155.236328125 L299.0032552083333, 161.24921875 L296.7484212239583, 155.236328125 L298.64248177083334, 155.236328125 Z" style="stroke: black; fill: black; stroke-width:1.4; " /><path d="M310.99274218749997, 155.236328125 L310.99274218749997, 149.2234375 L311.7142890624999, 149.2234375 L311.7142890624999, 155.236328125 L313.60834960937495, 155.236328125 L311.35351562499994, 161.24921875 L309.09868164062493, 155.236328125 L310.99274218749997, 155.236328125 Z" style="stroke: black; fill: black; stroke-width:1.4; " /><path d="M434.49534635416666, 155.236328125 L434.49534635416666, 149.2234375 L435.2168932291666, 149.2234375 L435.2168932291666, 155.236328125 L437.11095377604164, 155.236328125 L434.85611979166663, 161.24921875 L432.6012858072916, 155.236328125 L434.49534635416666, 155.236328125 Z" style="stroke: black; fill: black; stroke-width:1.4; " /><path d="M446.84560677083334, 155.236328125 L446.84560677083334, 149.2234375 L447.5671536458333, 149.2234375 L447.5671536458333, 155.236328125 L449.4612141927083, 155.236328125 L447.2063802083333, 161.24921875 L444.9515462239583, 155.236328125 L446.84560677083334, 155.236328125 Z" style="stroke: black; fill: black; stroke-width:1.4; " /><path d="M453.02073697916666, 155.236328125 L453.02073697916666, 149.2234375 L453.7422838541666, 149.2234375 L453.7422838541666, 155.236328125 L455.63634440104164, 155.236328125 L453.38151041666663, 161.24921875 L451.1266764322916, 155.236328125 L453.02073697916666, 155.236328125 Z" style="stroke: black; fill: black; stroke-width:1.4; " /><path d="M459.19586718749997, 155.236328125 L459.19586718749997, 149.2234375 L459.9174140624999, 149.2234375 L459.9174140624999, 155.236328125 L461.81147460937495, 155.236328125 L459.55664062499994, 161.24921875 L457.30180664062493, 155.236328125 L459.19586718749997, 155.236328125 Z" style="stroke: black; fill: black; stroke-width:1.4; " /><path d="M471.5461276041666, 155.236328125 L471.5461276041666, 149.2234375 L472.26767447916654, 149.2234375 L472.26767447916654, 155.236328125 L474.1617350260416, 155.236328125 L471.9069010416666, 161.24921875 L469.65206705729156, 155.236328125 L471.5461276041666, 155.236328125 Z" style="stroke: black; fill: black; stroke-width:1.4; " /><text x="5" y="187.19965277777777">food</text>
<circle cx="163.150390625" cy="183.05707465277777" r="4.63134765625" style="stroke:black;  stroke-width:1.2; fill:black;"/>
<circle cx="311.35351562499994" cy="183.05707465277777" r="4.63134765625" style="stroke:black;  stroke-width:1.4; fill:none;"/>
<circle cx="471.9069010416666" cy="183.05707465277777" r="4.63134765625" style="stroke:black;  stroke-width:1.2; fill:black;"/>
<text x="5" y="216.06493055555555">PK sampling</text>
<path d="M156.66650390625, 214.63587782118054 L156.66650390625, 207.11976453993054 L169.63427734375, 207.11976453993054 L169.63427734375, 214.63587782118054 L156.66650390625, 214.63587782118054 Z" style="stroke: black; fill: none; stroke-width:1.4; " /><path d="M178.16826171875, 210.87782118055554 L181.67578125, 203.86278211805555 L185.18330078125, 210.87782118055554 L181.67578125, 217.89286024305554 L178.16826171875, 210.87782118055554 Z" style="stroke: black; fill: none; stroke-width:1.4; " /><path d="M196.69365234375, 210.87782118055554 L200.201171875, 203.86278211805555 L203.70869140625, 210.87782118055554 L200.201171875, 217.89286024305554 L196.69365234375, 210.87782118055554 Z" style="stroke: black; fill: none; stroke-width:1.4; " /><path d="M209.04391276041665, 210.87782118055554 L212.55143229166666, 203.86278211805555 L216.05895182291667, 210.87782118055554 L212.55143229166666, 217.89286024305554 L209.04391276041665, 210.87782118055554 Z" style="stroke: black; fill: none; stroke-width:1.4; " /><path d="M215.21904296875, 210.87782118055554 L218.7265625, 203.86278211805555 L222.23408203125, 210.87782118055554 L218.7265625, 217.89286024305554 L215.21904296875, 210.87782118055554 Z" style="stroke: black; fill: none; stroke-width:1.4; " /><path d="M221.39417317708333, 210.87782118055554 L224.90169270833334, 203.86278211805555 L228.40921223958335, 210.87782118055554 L224.90169270833334, 217.89286024305554 L221.39417317708333, 210.87782118055554 Z" style="stroke: black; fill: none; stroke-width:1.4; " /><path d="M233.74443359375002, 210.87782118055554 L237.25195312500003, 203.86278211805555 L240.75947265625004, 210.87782118055554 L237.25195312500003, 217.89286024305554 L233.74443359375002, 210.87782118055554 Z" style="stroke: black; fill: none; stroke-width:1.4; " /><path d="M304.86962890624994, 214.63587782118054 L304.86962890624994, 207.11976453993054 L317.83740234374994, 207.11976453993054 L317.83740234374994, 214.63587782118054 L304.86962890624994, 214.63587782118054 Z" style="stroke: black; fill: none; stroke-width:1.4; " /><path d="M326.37138671874993, 210.87782118055554 L329.87890624999994, 203.86278211805555 L333.38642578124995, 210.87782118055554 L329.87890624999994, 217.89286024305554 L326.37138671874993, 210.87782118055554 Z" style="stroke: black; fill: none; stroke-width:1.4; " /><path d="M344.89677734374993, 210.87782118055554 L348.40429687499994, 203.86278211805555 L351.91181640624995, 210.87782118055554 L348.40429687499994, 217.89286024305554 L344.89677734374993, 210.87782118055554 Z" style="stroke: black; fill: none; stroke-width:1.4; " /><path d="M363.42216796874993, 210.87782118055554 L366.92968749999994, 203.86278211805555 L370.43720703124995, 210.87782118055554 L366.92968749999994, 217.89286024305554 L363.42216796874993, 210.87782118055554 Z" style="stroke: black; fill: none; stroke-width:1.4; " /><path d="M375.7724283854166, 210.87782118055554 L379.27994791666663, 203.86278211805555 L382.78746744791664, 210.87782118055554 L379.27994791666663, 217.89286024305554 L375.7724283854166, 210.87782118055554 Z" style="stroke: black; fill: none; stroke-width:1.4; " /><path d="M381.94755859374993, 210.87782118055554 L385.45507812499994, 203.86278211805555 L388.96259765624995, 210.87782118055554 L385.45507812499994, 217.89286024305554 L381.94755859374993, 210.87782118055554 Z" style="stroke: black; fill: none; stroke-width:1.4; " /><path d="M394.29781901041656, 210.87782118055554 L397.8053385416666, 203.86278211805555 L401.3128580729166, 210.87782118055554 L397.8053385416666, 217.89286024305554 L394.29781901041656, 210.87782118055554 Z" style="stroke: black; fill: none; stroke-width:1.4; " /><path d="M465.4230143229166, 214.63587782118054 L465.4230143229166, 207.11976453993054 L478.3907877604166, 207.11976453993054 L478.3907877604166, 214.63587782118054 L465.4230143229166, 214.63587782118054 Z" style="stroke: black; fill: none; stroke-width:1.4; " /><path d="M486.92477213541656, 210.87782118055554 L490.4322916666666, 203.86278211805555 L493.9398111979166, 210.87782118055554 L490.4322916666666, 217.89286024305554 L486.92477213541656, 210.87782118055554 Z" style="stroke: black; fill: none; stroke-width:1.4; " /><path d="M505.45016276041656, 210.87782118055554 L508.9576822916666, 203.86278211805555 L512.4652018229166, 210.87782118055554 L508.9576822916666, 217.89286024305554 L505.45016276041656, 210.87782118055554 Z" style="stroke: black; fill: none; stroke-width:1.4; " /><path d="M523.9755533854166, 210.87782118055554 L527.4830729166665, 203.86278211805555 L530.9905924479165, 210.87782118055554 L527.4830729166665, 217.89286024305554 L523.9755533854166, 210.87782118055554 Z" style="stroke: black; fill: none; stroke-width:1.4; " /><path d="M536.3258138020832, 210.87782118055554 L539.8333333333331, 203.86278211805555 L543.3408528645831, 210.87782118055554 L539.8333333333331, 217.89286024305554 L536.3258138020832, 210.87782118055554 Z" style="stroke: black; fill: none; stroke-width:1.4; " /><path d="M542.5009440104166, 210.87782118055554 L546.0084635416665, 203.86278211805555 L549.5159830729165, 210.87782118055554 L546.0084635416665, 217.89286024305554 L542.5009440104166, 210.87782118055554 Z" style="stroke: black; fill: none; stroke-width:1.4; " /><path d="M554.8512044270833, 210.87782118055554 L558.3587239583333, 203.86278211805555 L561.8662434895832, 210.87782118055554 L558.3587239583333, 217.89286024305554 L554.8512044270833, 210.87782118055554 Z" style="stroke: black; fill: none; stroke-width:1.4; " /></svg>