<svg width="425.59342447916663" height="265.8539800347222" xmlns="http://www.w3.org/2000/svg">
<style>text {font-family: Arial; font-size: 14px ;}</style>
<desc>Trial design autogenerated by td.py V2.0 (Dec-2021), author: Rainer Strotmann</desc><title>ms0044</title><text x="122.11083984375" y="25.0322265625">S</text>
<text x="188.30436197916666" y="25.0322265625">Period 1</text>
<text x="323.2412109375" y="25.0322265625">Period 2</text>
<rect x="116.8369140625" y="33.931857638888886" width="18.525390625" height="20.04296875" style="stroke:black;  stroke-width:1.4; fill:none;" />
<text x="126.099609375" y="48.964084201388886"></text>
<line x1="135.3623046875" y1="43.953342013888886" x2="153.8876953125" y2="43.953342013888886" style="stroke:black; stroke-width:1.4; " />
<rect x="153.8876953125" y="33.931857638888886" width="18.525390625" height="20.04296875" style="stroke:black;  stroke-width:1.4; fill:none;" />
<text x="158.43359375" y="48.964084201388886">-1</text>
<rect x="172.4130859375" y="33.931857638888886" width="18.525390625" height="20.04296875" style="stroke:black;  stroke-width:0; fill:lightgray;" />
<rect x="172.4130859375" y="33.931857638888886" width="18.525390625" height="20.04296875" style="stroke:black;  stroke-width:1.4; fill:none;" />
<text x="177.984375" y="48.964084201388886">1</text>
<rect x="190.9384765625" y="33.931857638888886" width="18.525390625" height="20.04296875" style="stroke:black;  stroke-width:1.4; fill:none;" />
<text x="196.88232421875" y="48.964084201388886">2</text>
<line x1="209.4638671875" y1="33.931857638888886" x2="215.63899739583334" y2="33.931857638888886" style="stroke:black; stroke-width:1.4; stroke-dasharray: 4.199999999999999 4.199999999999999" />
<line x1="209.4638671875" y1="53.974826388888886" x2="215.63899739583334" y2="53.974826388888886" style="stroke:black; stroke-width:1.4; stroke-dasharray: 4.199999999999999 4.199999999999999" />
<rect x="215.63899739583334" y="33.931857638888886" width="18.525390625" height="20.04296875" style="stroke:black;  stroke-width:1.4; fill:none;" />
<text x="221.43587239583334" y="48.964084201388886">4</text>
<line x1="234.16438802083334" y1="33.931857638888886" x2="240.33951822916669" y2="33.931857638888886" style="stroke:black; stroke-width:1.4; stroke-dasharray: 4.199999999999999 4.199999999999999" />
<line x1="234.16438802083334" y1="53.974826388888886" x2="240.33951822916669" y2="53.974826388888886" style="stroke:black; stroke-width:1.4; stroke-dasharray: 4.199999999999999 4.199999999999999" />
<text x="237.251953125" y="48.964084201388886"></text>
<line x1="240.33951822916669" y1="33.931857638888886" x2="246.51464843750003" y2="33.931857638888886" style="stroke:black; stroke-width:1.4; stroke-dasharray: 4.199999999999999 4.199999999999999" />
<line x1="240.33951822916669" y1="53.974826388888886" x2="246.51464843750003" y2="53.974826388888886" style="stroke:black; stroke-width:1.4; stroke-dasharray: 4.199999999999999 4.199999999999999" />
<text x="243.42708333333334" y="48.964084201388886"></text>
<line x1="246.51464843750003" y1="33.931857638888886" x2="252.68977864583337" y2="33.931857638888886" style="stroke:black; stroke-width:1.4; stroke-dasharray: 4.199999999999999 4.199999999999999" />
<line x1="246.51464843750003" y1="53.974826388888886" x2="252.68977864583337" y2="53.974826388888886" style="stroke:black; stroke-width:1.4; stroke-dasharray: 4.199999999999999 4.199999999999999" />
<text x="249.60221354166669" y="48.964084201388886"></text>
<rect x="252.68977864583337" y="33.931857638888886" width="18.525390625" height="20.04296875" style="stroke:black;  stroke-width:0; fill:lightgray;" />
<rect x="252.68977864583337" y="33.931857638888886" width="18.525390625" height="20.04296875" style="stroke:black;  stroke-width:1.4; fill:none;" />
<text x="258.65071614583337" y="48.964084201388886">8</text>
<line x1="271.2151692708333" y1="43.953342013888886" x2="289.7405598958333" y2="43.953342013888886" style="stroke:black; stroke-width:1.4; " />
<rect x="289.7405598958333" y="33.931857638888886" width="18.525390625" height="20.04296875" style="stroke:black;  stroke-width:1.4; fill:none;" />
<text x="294.2864583333333" y="48.964084201388886">-1</text>
<rect x="308.2659505208333" y="33.931857638888886" width="18.525390625" height="20.04296875" style="stroke:black;  stroke-width:0; fill:lightgray;" />
<rect x="308.2659505208333" y="33.931857638888886" width="18.525390625" height="20.04296875" style="stroke:black;  stroke-width:1.4; fill:none;" />
<text x="313.8372395833333" y="48.964084201388886">1</text>
<rect x="326.7913411458333" y="33.931857638888886" width="18.525390625" height="20.04296875" style="stroke:black;  stroke-width:1.4; fill:none;" />
<text x="332.7351888020833" y="48.964084201388886">2</text>
<line x1="345.3167317708333" y1="33.931857638888886" x2="351.49186197916663" y2="33.931857638888886" style="stroke:black; stroke-width:1.4; stroke-dasharray: 4.199999999999999 4.199999999999999" />
<line x1="345.3167317708333" y1="53.974826388888886" x2="351.49186197916663" y2="53.974826388888886" style="stroke:black; stroke-width:1.4; stroke-dasharray: 4.199999999999999 4.199999999999999" />
<rect x="351.49186197916663" y="33.931857638888886" width="18.525390625" height="20.04296875" style="stroke:black;  stroke-width:1.4; fill:none;" />
<text x="357.28873697916663" y="48.964084201388886">4</text>
<line x1="370.01725260416663" y1="33.931857638888886" x2="376.19238281249994" y2="33.931857638888886" style="stroke:black; stroke-width:1.4; stroke-dasharray: 4.199999999999999 4.199999999999999" />
<line x1="370.01725260416663" y1="53.974826388888886" x2="376.19238281249994" y2="53.974826388888886" style="stroke:black; stroke-width:1.4; stroke-dasharray: 4.199999999999999 4.199999999999999" />
<text x="373.1048177083333" y="48.964084201388886"></text>
<line x1="376.19238281249994" y1="33.931857638888886" x2="382.36751302083326" y2="33.931857638888886" style="stroke:black; stroke-width:1.4; stroke-dasharray: 4.199999999999999 4.199999999999999" />
<line x1="376.19238281249994" y1="53.974826388888886" x2="382.36751302083326" y2="53.974826388888886" style="stroke:black; stroke-width:1.4; stroke-dasharray: 4.199999999999999 4.199999999999999" />
<text x="379.27994791666663" y="48.964084201388886"></text>
<line x1="382.36751302083326" y1="33.931857638888886" x2="388.5426432291666" y2="33.931857638888886" style="stroke:black; stroke-width:1.4; stroke-dasharray: 4.199999999999999 4.199999999999999" />
<line x1="382.36751302083326" y1="53.974826388888886" x2="388.5426432291666" y2="53.974826388888886" style="stroke:black; stroke-width:1.4; stroke-dasharray: 4.199999999999999 4.199999999999999" />
<text x="385.45507812499994" y="48.964084201388886"></text>
<rect x="388.5426432291666" y="33.931857638888886" width="18.525390625" height="20.04296875" style="stroke:black;  stroke-width:0; fill:lightgray;" />
<rect x="388.5426432291666" y="33.931857638888886" width="18.525390625" height="20.04296875" style="stroke:black;  stroke-width:1.4; fill:none;" />
<text x="394.5035807291666" y="48.964084201388886">8</text>
<text x="5" y="84.67335069444444">hospitalization</text>
<rect x="153.8876953125" y="75.54327256944444" width="80.27669270833334" height="8.0171875" style="stroke:black;  stroke-width:1.4; fill:none;" />
<rect x="289.7405598958333" y="75.54327256944444" width="80.27669270833331" height="8.0171875" style="stroke:black;  stroke-width:1.4; fill:none;" />
<text x="5" y="112.49409722222222">tepotinib</text>
<path d="M181.3150078125, 107.37261284722223 L181.3150078125, 101.35972222222223 L182.0365546875, 101.35972222222223 L182.0365546875, 107.37261284722223 L183.930615234375, 107.37261284722223 L181.67578125, 113.38550347222223 L179.420947265625, 107.37261284722223 L181.3150078125, 107.37261284722223 Z" style="stroke: black; fill: black; stroke-width:1.4; " /><path d="M317.16787239583334, 107.37261284722223 L317.16787239583334, 101.35972222222223 L317.8894192708333, 101.35972222222223 L317.8894192708333, 107.37261284722223 L319.7834798177083, 107.37261284722223 L317.5286458333333, 113.38550347222223 L315.2738118489583, 107.37261284722223 L317.16787239583334, 107.37261284722223 Z" style="stroke: black; fill: black; stroke-width:1.4; " /><text x="5" y="139.338671875">ECG</text>
<path d="M159.64287109375, 135.193359375 L163.150390625, 128.1783203125 L166.65791015625, 135.193359375 L163.150390625, 142.2083984375 L159.64287109375, 135.193359375 Z" style="stroke: black; fill: none; stroke-width:1.4; " /><path d="M178.16826171875, 135.193359375 L181.67578125, 128.1783203125 L185.18330078125, 135.193359375 L181.67578125, 142.2083984375 L178.16826171875, 135.193359375 Z" style="stroke: black; fill: none; stroke-width:1.4; " /><path d="M196.69365234375, 135.193359375 L200.201171875, 128.1783203125 L203.70869140625, 135.193359375 L200.201171875, 142.2083984375 L196.69365234375, 135.193359375 Z" style="stroke: black; fill: none; stroke-width:1.4; " /><path d="M221.39417317708333, 135.193359375 L224.90169270833334, 128.1783203125 L228.40921223958335, 135.193359375 L224.90169270833334, 142.2083984375 L221.39417317708333, 135.193359375 Z" style="stroke: black; fill: none; stroke-width:1.4; " /><path d="M295.4957356770833, 135.193359375 L299.0032552083333, 128.1783203125 L302.5107747395833, 135.193359375 L299.0032552083333, 142.2083984375 L295.4957356770833, 135.193359375 Z" style="stroke: black; fill: none; stroke-width:1.4; " /><path d="M314.0211263020833, 135.193359375 L317.5286458333333, 128.1783203125 L321.0361653645833, 135.193359375 L317.5286458333333, 142.2083984375 L314.0211263020833, 135.193359375 Z" style="stroke: black; fill: none; stroke-width:1.4; " /><path d="M332.5465169270833, 135.193359375 L336.0540364583333, 128.1783203125 L339.5615559895833, 135.193359375 L336.0540364583333, 142.2083984375 L332.5465169270833, 135.193359375 Z" style="stroke: black; fill: none; stroke-width:1.4; " /><path d="M357.2470377604166, 135.193359375 L360.75455729166663, 128.1783203125 L364.26207682291664, 135.193359375 L360.75455729166663, 142.2083984375 L357.2470377604166, 135.193359375 Z" style="stroke: black; fill: none; stroke-width:1.4; " /><text x="5" y="168.20121527777778">PK sampling</text>
<path d="M175.19189453125, 166.77216254340277 L175.19189453125, 159.25604926215277 L188.15966796875, 159.25604926215277 L188.15966796875, 166.77216254340277 L175.19189453125, 166.77216254340277 Z" style="stroke: black; fill: none; stroke-width:1.4; " /><path d="M196.69365234375, 163.01410590277777 L200.201171875, 155.99906684027778 L203.70869140625, 163.01410590277777 L200.201171875, 170.02914496527777 L196.69365234375, 163.01410590277777 Z" style="stroke: black; fill: none; stroke-width:1.4; " /><path d="M209.04391276041665, 163.01410590277777 L212.55143229166666, 155.99906684027778 L216.05895182291667, 163.01410590277777 L212.55143229166666, 170.02914496527777 L209.04391276041665, 163.01410590277777 Z" style="stroke: black; fill: none; stroke-width:1.4; " /><path d="M221.39417317708333, 163.01410590277777 L224.90169270833334, 155.99906684027778 L228.40921223958335, 163.01410590277777 L224.90169270833334, 170.02914496527777 L221.39417317708333, 163.01410590277777 Z" style="stroke: black; fill: none; stroke-width:1.4; " /><path d="M233.74443359375, 163.01410590277777 L237.251953125, 155.99906684027778 L240.75947265625, 163.01410590277777 L237.251953125, 170.02914496527777 L233.74443359375, 163.01410590277777 Z" style="stroke: black; fill: none; stroke-width:1.4; " /><path d="M239.91956380208333, 163.01410590277777 L243.42708333333334, 155.99906684027778 L246.93460286458335, 163.01410590277777 L243.42708333333334, 170.02914496527777 L239.91956380208333, 163.01410590277777 Z" style="stroke: black; fill: none; stroke-width:1.4; " /><path d="M246.09469401041667, 163.01410590277777 L249.60221354166669, 155.99906684027778 L253.1097330729167, 163.01410590277777 L249.60221354166669, 170.02914496527777 L246.09469401041667, 163.01410590277777 Z" style="stroke: black; fill: none; stroke-width:1.4; " /><path d="M258.44495442708336, 163.01410590277777 L261.95247395833337, 155.99906684027778 L265.4599934895834, 163.01410590277777 L261.95247395833337, 170.02914496527777 L258.44495442708336, 163.01410590277777 Z" style="stroke: black; fill: none; stroke-width:1.4; " /><path d="M311.0447591145833, 166.77216254340277 L311.0447591145833, 159.25604926215277 L324.0125325520833, 159.25604926215277 L324.0125325520833, 166.77216254340277 L311.0447591145833, 166.77216254340277 Z" style="stroke: black; fill: none; stroke-width:1.4; " /><path d="M332.5465169270833, 163.01410590277777 L336.0540364583333, 155.99906684027778 L339.5615559895833, 163.01410590277777 L336.0540364583333, 170.02914496527777 L332.5465169270833, 163.01410590277777 Z" style="stroke: black; fill: none; stroke-width:1.4; " /><path d="M344.89677734375, 163.01410590277777 L348.404296875, 155.99906684027778 L351.91181640625, 163.01410590277777 L348.404296875, 170.02914496527777 L344.89677734375, 163.01410590277777 Z" style="stroke: black; fill: none; stroke-width:1.4; " /><path d="M357.2470377604166, 163.01410590277777 L360.75455729166663, 155.99906684027778 L364.26207682291664, 163.01410590277777 L360.75455729166663, 170.02914496527777 L357.2470377604166, 163.01410590277777 Z" style="stroke: black; fill: none; stroke-width:1.4; " /><path d="M369.5972981770833, 163.01410590277777 L373.1048177083333, 155.99906684027778 L376.6123372395833, 163.01410590277777 L373.1048177083333, 170.02914496527777 L369.5972981770833, 163.01410590277777 Z" style="stroke: black; fill: none; stroke-width:1.4; " /><path d="M375.7724283854166, 163.01410590277777 L379.27994791666663, 155.99906684027778 L382.78746744791664, 163.01410590277777 L379.27994791666663, 170.02914496527777 L375.7724283854166, 163.01410590277777 Z" style="stroke: black; fill: none; stroke-width:1.4; " /><path d="M381.94755859374993, 163.01410590277777 L385.45507812499994, 155.99906684027778 L388.96259765624995, 163.01410590277777 L385.45507812499994, 170.02914496527777 L381.94755859374993, 163.01410590277777 Z" style="stroke: black; fill: none; stroke-width:1.4; " /><path d="M394.29781901041656, 163.01410590277777 L397.8053385416666, 155.99906684027778 L401.3128580729166, 163.01410590277777 L397.8053385416666, 170.02914496527777 L394.29781901041656, 163.01410590277777 Z" style="stroke: black; fill: none; stroke-width:1.4; " /><path d="M172.4130859375, 180.81336805555554 A6.680989583333333, 6.680989583333333, 0, 0 0 179.09407552083334, 187.49435763888889 L215.13313802083334, 187.49435763888889 A6.680989583333333, 6.680989583333333 0, 0 1 221.81412760416669, 194.1753472222222 A6.680989583333333, 6.680989583333333, 0, 0 1 228.49511718750003, 187.49435763888889 L264.53417968750006, 187.49435763888889 A6.680989583333333, 6.680989583333333 0, 0 0 271.21516927083337, 180.81336805555554 " style="stroke: black; stroke-width:1.4; fill:none" /><path d="M150.38017578125, 215.86349826388889 L153.8876953125, 208.8484592013889 L157.39521484375, 215.86349826388889 L153.8876953125, 222.87853732638888 L150.38017578125, 215.86349826388889 Z" style="stroke: black; fill: none; stroke-width:1.4; " /><path d="M153.7559136284722, 215.86349826388889 L157.2634331597222, 208.8484592013889 L160.77095269097222, 215.86349826388889 L157.2634331597222, 222.87853732638888 L153.7559136284722, 215.86349826388889 Z" style="stroke: black; fill: none; stroke-width:1.4; " /><path d="M157.13165147569444, 215.86349826388889 L160.63917100694445, 208.8484592013889 L164.14669053819446, 215.86349826388889 L160.63917100694445, 222.87853732638888 L157.13165147569444, 215.86349826388889 Z" style="stroke: black; fill: none; stroke-width:1.4; " /><path d="M163.88312717013886, 215.86349826388889 L167.39064670138887, 208.8484592013889 L170.89816623263889, 215.86349826388889 L167.39064670138887, 222.87853732638888 L163.88312717013886, 215.86349826388889 Z" style="stroke: black; fill: none; stroke-width:1.4; " /><path d="M177.38607855902777, 215.86349826388889 L180.89359809027778, 208.8484592013889 L184.4011176215278, 215.86349826388889 L180.89359809027778, 222.87853732638888 L177.38607855902777, 215.86349826388889 Z" style="stroke: black; fill: none; stroke-width:1.4; " /><path d="M204.39198133680554, 215.86349826388889 L207.89950086805555, 208.8484592013889 L211.40702039930557, 215.86349826388889 L207.89950086805555, 222.87853732638888 L204.39198133680554, 215.86349826388889 Z" style="stroke: black; fill: none; stroke-width:1.4; " /><path d="M231.3978841145833, 215.86349826388889 L234.9054036458333, 208.8484592013889 L238.41292317708331, 215.86349826388889 L234.9054036458333, 222.87853732638888 L231.3978841145833, 215.86349826388889 Z" style="stroke: black; fill: none; stroke-width:1.4; " /><path d="M258.4037868923611, 215.86349826388889 L261.9113064236111, 208.8484592013889 L265.4188259548611, 215.86349826388889 L261.9113064236111, 222.87853732638888 L258.4037868923611, 215.86349826388889 Z" style="stroke: black; fill: none; stroke-width:1.4; " /><path d="M295.24660373263885, 215.86349826388889 L298.75412326388886, 208.8484592013889 L302.26164279513887, 215.86349826388889 L298.75412326388886, 222.87853732638888 L295.24660373263885, 215.86349826388889 Z" style="stroke: black; fill: none; stroke-width:1.4; " /><path d="M313.29892216435184, 215.86349826388889 L316.80644169560185, 208.8484592013889 L320.31396122685186, 215.86349826388889 L316.80644169560185, 222.87853732638888 L313.29892216435184, 215.86349826388889 Z" style="stroke: black; fill: none; stroke-width:1.4; " /><path d="M331.35124059606477, 215.86349826388889 L334.8587601273148, 208.8484592013889 L338.3662796585648, 215.86349826388889 L334.8587601273148, 222.87853732638888 L331.35124059606477, 215.86349826388889 Z" style="stroke: black; fill: none; stroke-width:1.4; " /><path d="M349.4035590277777, 215.86349826388889 L352.9110785590277, 208.8484592013889 L356.4185980902777, 215.86349826388889 L352.9110785590277, 222.87853732638888 L349.4035590277777, 215.86349826388889 Z" style="stroke: black; fill: none; stroke-width:1.4; " /><path d="M367.4558774594907, 215.86349826388889 L370.9633969907407, 208.8484592013889 L374.4709165219907, 215.86349826388889 L370.9633969907407, 222.87853732638888 L367.4558774594907, 215.86349826388889 Z" style="stroke: black; fill: none; stroke-width:1.4; " /><path d="M385.5081958912037, 215.86349826388889 L389.0157154224537, 208.8484592013889 L392.5232349537037, 215.86349826388889 L389.0157154224537, 222.87853732638888 L385.5081958912037, 215.86349826388889 Z" style="stroke: black; fill: none; stroke-width:1.4; " /><path d="M403.5605143229166, 215.86349826388889 L407.06803385416663, 208.8484592013889 L410.57555338541664, 215.86349826388889 L407.06803385416663, 222.87853732638888 L403.5605143229166, 215.86349826388889 Z" style="stroke: black; fill: none; stroke-width:1.4; " /><line x1="153.8876953125" y1="233.66276041666666" x2="288.91720920138886" y2="233.66276041666666" style="stroke:black; stroke-width:1.4; " />
<line x1="153.8876953125" y1="230.322265625" x2="153.8876953125" y2="237.00325520833331" style="stroke:black; stroke-width:1.4; " />
<text x="150.6201171875" y="254.8025173611111">0</text>
<line x1="180.89359809027778" y1="230.322265625" x2="180.89359809027778" y2="237.00325520833331" style="stroke:black; stroke-width:1.4; " />
<text x="177.57475043402778" y="254.8025173611111">2</text>
<line x1="207.89950086805555" y1="230.322265625" x2="207.89950086805555" y2="237.00325520833331" style="stroke:black; stroke-width:1.4; " />
<text x="204.43368055555555" y="254.8025173611111">4</text>
<line x1="234.9054036458333" y1="230.322265625" x2="234.9054036458333" y2="237.00325520833331" style="stroke:black; stroke-width:1.4; " />
<text x="231.5968098958333" y="254.8025173611111">6</text>
<line x1="261.9113064236111" y1="230.322265625" x2="261.9113064236111" y2="237.00325520833331" style="stroke:black; stroke-width:1.4; " />
<text x="258.6095486111111" y="254.8025173611111">8</text>
<text x="258.6095486111111" y="254.8025173611111">8</text>
<line x1="298.75412326388886" y1="233.66276041666666" x2="407.06803385416663" y2="233.66276041666666" style="stroke:black; stroke-width:1.4; " />
<line x1="298.75412326388886" y1="230.322265625" x2="298.75412326388886" y2="237.00325520833331" style="stroke:black; stroke-width:1.4; " />
<text x="291.51144748263886" y="254.8025173611111">24</text>
<line x1="316.80644169560185" y1="230.322265625" x2="316.80644169560185" y2="237.00325520833331" style="stroke:black; stroke-width:1.4; " />
<text x="309.41679325810185" y="254.8025173611111">48</text>
<line x1="334.8587601273148" y1="230.322265625" x2="334.8587601273148" y2="237.00325520833331" style="stroke:black; stroke-width:1.4; " />
<text x="327.7733109085648" y="254.8025173611111">72</text>
<line x1="352.9110785590277" y1="230.322265625" x2="352.9110785590277" y2="237.00325520833331" style="stroke:black; stroke-width:1.4; " />
<text x="345.7367621527777" y="254.8025173611111">96</text>
<line x1="370.9633969907407" y1="230.322265625" x2="370.9633969907407" y2="237.00325520833331" style="stroke:black; stroke-width:1.4; " />
<line x1="389.0157154224537" y1="230.322265625" x2="389.0157154224537" y2="237.00325520833331" style="stroke:black; stroke-width:1.4; " />
<line x1="407.06803385416663" y1="230.322265625" x2="407.06803385416663" y2="237.00325520833331" style="stroke:black; stroke-width:1.4; " />
<text x="396.45865885416663" y="254.8025173611111">168 h</text>
</svg>