<svg width="645.4189453125" height="317.60658420138884" xmlns="http://www.w3.org/2000/svg">
<style>text {font-family: Arial; font-size: 14px ;}</style>
<desc>Trial design autogenerated by td.py V2.0 (Dec-2021), author: Rainer Strotmann</desc><title>ms0053</title><rect x="163.7587890625" y="10" width="18.525390625" height="20.04296875" style="stroke:black;  stroke-width:0; fill:cornsilk;" />
<text x="171.17578125" y="25.0322265625">1</text>
<rect x="200.8095703125" y="10" width="148.203125" height="20.04296875" style="stroke:black;  stroke-width:0; fill:cornsilk;" />
<text x="250.6640625" y="25.0322265625">Period 1</text>
<rect x="367.5380859375" y="10" width="222.3046875" height="20.04296875" style="stroke:black;  stroke-width:0; fill:cornsilk;" />
<text x="453.52734375" y="25.0322265625">Period 2</text>
<rect x="608.3681640625" y="10" width="18.525390625" height="20.04296875" style="stroke:black;  stroke-width:0; fill:cornsilk;" />
<text x="607.4931640625" y="25.0322265625">F/U</text>
<rect x="163.7587890625" y="33.931857638888886" width="18.525390625" height="20.04296875" style="stroke:black;  stroke-width:0; fill:cornsilk;" />
<rect x="163.7587890625" y="33.931857638888886" width="18.525390625" height="20.04296875" style="stroke:black;  stroke-width:1.4; fill:none;" />
<text x="173.021484375" y="48.964084201388886"></text>
<line x1="182.2841796875" y1="43.953342013888886" x2="200.8095703125" y2="43.953342013888886" style="stroke:black; stroke-width:1.4; " />
<rect x="200.8095703125" y="33.931857638888886" width="148.203125" height="20.04296875" style="stroke:black;  stroke-width:0; fill:cornsilk;" />
<rect x="200.8095703125" y="33.931857638888886" width="18.525390625" height="20.04296875" style="stroke:black;  stroke-width:1.4; fill:none;" />
<text x="205.35546875" y="48.964084201388886">-1</text>
<rect x="219.3349609375" y="33.931857638888886" width="18.525390625" height="20.04296875" style="stroke:black;  stroke-width:0; fill:lightgray;" />
<rect x="219.3349609375" y="33.931857638888886" width="18.525390625" height="20.04296875" style="stroke:black;  stroke-width:1.4; fill:none;" />
<text x="224.90625" y="48.964084201388886">1</text>
<rect x="237.8603515625" y="33.931857638888886" width="18.525390625" height="20.04296875" style="stroke:black;  stroke-width:1.4; fill:none;" />
<text x="247.123046875" y="48.964084201388886"></text>
<rect x="256.3857421875" y="33.931857638888886" width="18.525390625" height="20.04296875" style="stroke:black;  stroke-width:1.4; fill:none;" />
<text x="265.6484375" y="48.964084201388886"></text>
<rect x="274.9111328125" y="33.931857638888886" width="18.525390625" height="20.04296875" style="stroke:black;  stroke-width:1.4; fill:none;" />
<text x="280.7080078125" y="48.964084201388886">4</text>
<rect x="293.4365234375" y="33.931857638888886" width="18.525390625" height="20.04296875" style="stroke:black;  stroke-width:1.4; fill:none;" />
<text x="302.69921875" y="48.964084201388886"></text>
<rect x="311.9619140625" y="33.931857638888886" width="18.525390625" height="20.04296875" style="stroke:black;  stroke-width:1.4; fill:none;" />
<text x="321.224609375" y="48.964084201388886"></text>
<rect x="330.4873046875" y="33.931857638888886" width="18.525390625" height="20.04296875" style="stroke:black;  stroke-width:1.4; fill:none;" />
<text x="336.50634765625" y="48.964084201388886">7</text>
<line x1="349.0126953125" y1="43.953342013888886" x2="367.5380859375" y2="43.953342013888886" style="stroke:black; stroke-width:1.4; " />
<rect x="367.5380859375" y="33.931857638888886" width="222.3046875" height="20.04296875" style="stroke:black;  stroke-width:0; fill:cornsilk;" />
<rect x="367.5380859375" y="33.931857638888886" width="18.525390625" height="20.04296875" style="stroke:black;  stroke-width:0; fill:lightgray;" />
<rect x="367.5380859375" y="33.931857638888886" width="18.525390625" height="20.04296875" style="stroke:black;  stroke-width:1.4; fill:none;" />
<text x="373.4990234375" y="48.964084201388886">8</text>
<rect x="386.0634765625" y="33.931857638888886" width="18.525390625" height="20.04296875" style="stroke:black;  stroke-width:1.4; fill:none;" />
<text x="395.326171875" y="48.964084201388886"></text>
<rect x="404.5888671875" y="33.931857638888886" width="18.525390625" height="20.04296875" style="stroke:black;  stroke-width:1.4; fill:none;" />
<text x="413.8515625" y="48.964084201388886"></text>
<rect x="423.1142578125" y="33.931857638888886" width="18.525390625" height="20.04296875" style="stroke:black;  stroke-width:1.4; fill:none;" />
<text x="424.79248046875" y="48.964084201388886">11</text>
<rect x="441.6396484375" y="33.931857638888886" width="18.525390625" height="20.04296875" style="stroke:black;  stroke-width:1.4; fill:none;" />
<text x="442.40185546875" y="48.964084201388886">12</text>
<rect x="460.1650390625" y="33.931857638888886" width="18.525390625" height="20.04296875" style="stroke:black;  stroke-width:1.4; fill:none;" />
<text x="460.8759765625" y="48.964084201388886">13</text>
<rect x="478.6904296875" y="33.931857638888886" width="18.525390625" height="20.04296875" style="stroke:black;  stroke-width:1.4; fill:none;" />
<text x="479.421875" y="48.964084201388886">14</text>
<rect x="497.2158203125" y="33.931857638888886" width="18.525390625" height="20.04296875" style="stroke:black;  stroke-width:0; fill:lightgray;" />
<rect x="497.2158203125" y="33.931857638888886" width="18.525390625" height="20.04296875" style="stroke:black;  stroke-width:1.4; fill:none;" />
<text x="497.88916015625" y="48.964084201388886">15</text>
<rect x="515.7412109375" y="33.931857638888886" width="18.525390625" height="20.04296875" style="stroke:black;  stroke-width:1.4; fill:none;" />
<text x="525.00390625" y="48.964084201388886"></text>
<rect x="534.2666015625" y="33.931857638888886" width="18.525390625" height="20.04296875" style="stroke:black;  stroke-width:1.4; fill:none;" />
<text x="543.529296875" y="48.964084201388886"></text>
<rect x="552.7919921875" y="33.931857638888886" width="18.525390625" height="20.04296875" style="stroke:black;  stroke-width:1.4; fill:none;" />
<text x="553.49267578125" y="48.964084201388886">18</text>
<rect x="571.3173828125" y="33.931857638888886" width="18.525390625" height="20.04296875" style="stroke:black;  stroke-width:1.4; fill:none;" />
<text x="572.01806640625" y="48.964084201388886">19</text>
<line x1="589.8427734375" y1="43.953342013888886" x2="608.3681640625" y2="43.953342013888886" style="stroke:black; stroke-width:1.4; " />
<rect x="608.3681640625" y="33.931857638888886" width="18.525390625" height="20.04296875" style="stroke:black;  stroke-width:0; fill:cornsilk;" />
<rect x="608.3681640625" y="33.931857638888886" width="18.525390625" height="20.04296875" style="stroke:black;  stroke-width:1.4; fill:none;" />
<text x="610.384765625" y="48.964084201388886">20</text>
<rect x="163.7587890625" y="69.53038194444444" width="18.525390625" height="20.04296875" style="stroke:black;  stroke-width:0; fill:cornsilk;" />
<text x="5" y="84.67335069444444">hospitalization</text>
<rect x="200.8095703125" y="69.53038194444444" width="148.203125" height="20.04296875" style="stroke:black;  stroke-width:0; fill:cornsilk;" />
<rect x="200.8095703125" y="75.54327256944444" width="92.626953125" height="8.0171875" style="stroke:black;  stroke-width:1.4; fill:none;" />
<rect x="367.5380859375" y="69.53038194444444" width="222.3046875" height="20.04296875" style="stroke:black;  stroke-width:0; fill:cornsilk;" />
<rect x="423.1142578125" y="75.54327256944444" width="92.626953125" height="8.0171875" style="stroke:black;  stroke-width:1.4; fill:none;" />
<rect x="608.3681640625" y="69.53038194444444" width="18.525390625" height="20.04296875" style="stroke:black;  stroke-width:0; fill:cornsilk;" />
<rect x="163.7587890625" y="97.35112847222223" width="18.525390625" height="20.04296875" style="stroke:black;  stroke-width:0; fill:cornsilk;" />
<text x="5" y="112.62808159722223">fecal sampling</text>
<rect x="200.8095703125" y="97.35112847222223" width="148.203125" height="20.04296875" style="stroke:black;  stroke-width:0; fill:cornsilk;" />
<rect x="219.3349609375" y="103.36401909722223" width="74.1015625" height="8.0171875" style="stroke:black;  stroke-width:1.4; fill:none;" />
<rect x="367.5380859375" y="97.35112847222223" width="222.3046875" height="20.04296875" style="stroke:black;  stroke-width:0; fill:cornsilk;" />
<rect x="441.6396484375" y="103.36401909722223" width="74.1015625" height="8.0171875" style="stroke:black;  stroke-width:1.4; fill:none;" />
<rect x="608.3681640625" y="97.35112847222223" width="18.525390625" height="20.04296875" style="stroke:black;  stroke-width:0; fill:cornsilk;" />
<rect x="163.7587890625" y="125.171875" width="18.525390625" height="20.04296875" style="stroke:black;  stroke-width:0; fill:cornsilk;" />
<text x="5" y="140.31484375">tepotinib</text>
<rect x="200.8095703125" y="125.171875" width="148.203125" height="20.04296875" style="stroke:black;  stroke-width:0; fill:cornsilk;" />
<path d="M228.2368828125, 135.193359375 L228.2368828125, 129.18046875 L228.9584296875, 129.18046875 L228.9584296875, 135.193359375 L230.852490234375, 135.193359375 L228.59765625, 141.20625 L226.342822265625, 135.193359375 L228.2368828125, 135.193359375 Z" style="stroke: black; fill: black; stroke-width:1.4; " /><rect x="367.5380859375" y="125.171875" width="222.3046875" height="20.04296875" style="stroke:black;  stroke-width:0; fill:cornsilk;" />
<path d="M450.5415703125, 135.193359375 L450.5415703125, 129.18046875 L451.2631171875, 129.18046875 L451.2631171875, 135.193359375 L453.157177734375, 135.193359375 L450.90234375, 141.20625 L448.647509765625, 135.193359375 L450.5415703125, 135.193359375 Z" style="stroke: black; fill: black; stroke-width:1.4; " /><rect x="608.3681640625" y="125.171875" width="18.525390625" height="20.04296875" style="stroke:black;  stroke-width:0; fill:cornsilk;" />
<rect x="163.7587890625" y="152.99262152777777" width="18.525390625" height="20.04296875" style="stroke:black;  stroke-width:0; fill:cornsilk;" />
<text x="5" y="167.08832465277777">itraconazole</text>
<rect x="200.8095703125" y="152.99262152777777" width="148.203125" height="20.04296875" style="stroke:black;  stroke-width:0; fill:cornsilk;" />
<rect x="367.5380859375" y="152.99262152777777" width="222.3046875" height="20.04296875" style="stroke:black;  stroke-width:0; fill:cornsilk;" />
<path d="M376.4400078125, 163.01410590277777 L376.4400078125, 157.00121527777776 L377.1615546875, 157.00121527777776 L377.1615546875, 163.01410590277777 L379.055615234375, 163.01410590277777 L376.80078125, 169.02699652777778 L374.545947265625, 163.01410590277777 L376.4400078125, 163.01410590277777 Z" style="stroke: black; fill: black; stroke-width:1.4; " /><path d="M394.9653984375, 163.01410590277777 L394.9653984375, 157.00121527777776 L395.6869453125, 157.00121527777776 L395.6869453125, 163.01410590277777 L397.581005859375, 163.01410590277777 L395.326171875, 169.02699652777778 L393.071337890625, 163.01410590277777 L394.9653984375, 163.01410590277777 Z" style="stroke: black; fill: black; stroke-width:1.4; " /><path d="M413.4907890625, 163.01410590277777 L413.4907890625, 157.00121527777776 L414.2123359375, 157.00121527777776 L414.2123359375, 163.01410590277777 L416.106396484375, 163.01410590277777 L413.8515625, 169.02699652777778 L411.596728515625, 163.01410590277777 L413.4907890625, 163.01410590277777 Z" style="stroke: black; fill: black; stroke-width:1.4; " /><path d="M432.0161796875, 163.01410590277777 L432.0161796875, 157.00121527777776 L432.7377265625, 157.00121527777776 L432.7377265625, 163.01410590277777 L434.631787109375, 163.01410590277777 L432.376953125, 169.02699652777778 L430.122119140625, 163.01410590277777 L432.0161796875, 163.01410590277777 Z" style="stroke: black; fill: black; stroke-width:1.4; " /><path d="M450.5415703125, 163.01410590277777 L450.5415703125, 157.00121527777776 L451.2631171875, 157.00121527777776 L451.2631171875, 163.01410590277777 L453.157177734375, 163.01410590277777 L450.90234375, 169.02699652777778 L448.647509765625, 163.01410590277777 L450.5415703125, 163.01410590277777 Z" style="stroke: black; fill: black; stroke-width:1.4; " /><path d="M469.0669609375, 163.01410590277777 L469.0669609375, 157.00121527777776 L469.7885078125, 157.00121527777776 L469.7885078125, 163.01410590277777 L471.682568359375, 163.01410590277777 L469.427734375, 169.02699652777778 L467.172900390625, 163.01410590277777 L469.0669609375, 163.01410590277777 Z" style="stroke: black; fill: black; stroke-width:1.4; " /><path d="M487.5923515625, 163.01410590277777 L487.5923515625, 157.00121527777776 L488.3138984375, 157.00121527777776 L488.3138984375, 163.01410590277777 L490.207958984375, 163.01410590277777 L487.953125, 169.02699652777778 L485.698291015625, 163.01410590277777 L487.5923515625, 163.01410590277777 Z" style="stroke: black; fill: black; stroke-width:1.4; " /><path d="M506.1177421875, 163.01410590277777 L506.1177421875, 157.00121527777776 L506.8392890625, 157.00121527777776 L506.8392890625, 163.01410590277777 L508.733349609375, 163.01410590277777 L506.478515625, 169.02699652777778 L504.223681640625, 163.01410590277777 L506.1177421875, 163.01410590277777 Z" style="stroke: black; fill: black; stroke-width:1.4; " /><path d="M524.6431328125, 163.01410590277777 L524.6431328125, 157.00121527777776 L525.3646796875, 157.00121527777776 L525.3646796875, 163.01410590277777 L527.258740234375, 163.01410590277777 L525.00390625, 169.02699652777778 L522.749072265625, 163.01410590277777 L524.6431328125, 163.01410590277777 Z" style="stroke: black; fill: black; stroke-width:1.4; " /><path d="M543.1685234375, 163.01410590277777 L543.1685234375, 157.00121527777776 L543.8900703125, 157.00121527777776 L543.8900703125, 163.01410590277777 L545.784130859375, 163.01410590277777 L543.529296875, 169.02699652777778 L541.274462890625, 163.01410590277777 L543.1685234375, 163.01410590277777 Z" style="stroke: black; fill: black; stroke-width:1.4; " /><path d="M561.6939140625, 163.01410590277777 L561.6939140625, 157.00121527777776 L562.4154609375, 157.00121527777776 L562.4154609375, 163.01410590277777 L564.309521484375, 163.01410590277777 L562.0546875, 169.02699652777778 L559.799853515625, 163.01410590277777 L561.6939140625, 163.01410590277777 Z" style="stroke: black; fill: black; stroke-width:1.4; " /><rect x="608.3681640625" y="152.99262152777777" width="18.525390625" height="20.04296875" style="stroke:black;  stroke-width:0; fill:cornsilk;" />
<rect x="163.7587890625" y="180.81336805555554" width="18.525390625" height="20.04296875" style="stroke:black;  stroke-width:0; fill:cornsilk;" />
<text x="5" y="194.90907118055554">laxative</text>
<rect x="200.8095703125" y="180.81336805555554" width="148.203125" height="20.04296875" style="stroke:black;  stroke-width:0; fill:cornsilk;" />
<path d="M262.14091796875, 190.83485243055554 L265.6484375, 183.81981336805555 L269.15595703125, 190.83485243055554 L265.6484375, 197.84989149305554 L262.14091796875, 190.83485243055554 Z" style="stroke: black; fill: none; stroke-width:1.4; " /><rect x="367.5380859375" y="180.81336805555554" width="222.3046875" height="20.04296875" style="stroke:black;  stroke-width:0; fill:cornsilk;" />
<path d="M484.44560546875, 190.83485243055554 L487.953125, 183.81981336805555 L491.46064453125, 190.83485243055554 L487.953125, 197.84989149305554 L484.44560546875, 190.83485243055554 Z" style="stroke: black; fill: none; stroke-width:1.4; " /><rect x="608.3681640625" y="180.81336805555554" width="18.525390625" height="20.04296875" style="stroke:black;  stroke-width:0; fill:cornsilk;" />
<rect x="163.7587890625" y="208.63411458333331" width="18.525390625" height="20.04296875" style="stroke:black;  stroke-width:0; fill:cornsilk;" />
<text x="5" y="223.84270833333332">PK sampling tepotinib</text>
<rect x="200.8095703125" y="208.63411458333331" width="148.203125" height="20.04296875" style="stroke:black;  stroke-width:0; fill:cornsilk;" />
<path d="M222.11376953125, 222.41365559895831 L222.11376953125, 214.89754231770831 L235.08154296875, 214.89754231770831 L235.08154296875, 222.41365559895831 L222.11376953125, 222.41365559895831 Z" style="stroke: black; fill: none; stroke-width:1.4; " /><path d="M240.63916015625, 222.41365559895831 L240.63916015625, 214.89754231770831 L253.60693359375, 214.89754231770831 L253.60693359375, 222.41365559895831 L240.63916015625, 222.41365559895831 Z" style="stroke: black; fill: none; stroke-width:1.4; " /><path d="M259.16455078125, 222.41365559895831 L259.16455078125, 214.89754231770831 L272.13232421875, 214.89754231770831 L272.13232421875, 222.41365559895831 L259.16455078125, 222.41365559895831 Z" style="stroke: black; fill: none; stroke-width:1.4; " /><path d="M280.66630859375, 218.65559895833331 L284.173828125, 211.64055989583332 L287.68134765625, 218.65559895833331 L284.173828125, 225.6706380208333 L280.66630859375, 218.65559895833331 Z" style="stroke: black; fill: none; stroke-width:1.4; " /><path d="M299.19169921875, 218.65559895833331 L302.69921875, 211.64055989583332 L306.20673828125, 218.65559895833331 L302.69921875, 225.6706380208333 L299.19169921875, 218.65559895833331 Z" style="stroke: black; fill: none; stroke-width:1.4; " /><path d="M317.71708984375, 218.65559895833331 L321.224609375, 211.64055989583332 L324.73212890625, 218.65559895833331 L321.224609375, 225.6706380208333 L317.71708984375, 218.65559895833331 Z" style="stroke: black; fill: none; stroke-width:1.4; " /><path d="M336.24248046875, 218.65559895833331 L339.75, 211.64055989583332 L343.25751953125, 218.65559895833331 L339.75, 225.6706380208333 L336.24248046875, 218.65559895833331 Z" style="stroke: black; fill: none; stroke-width:1.4; " /><rect x="367.5380859375" y="208.63411458333331" width="222.3046875" height="20.04296875" style="stroke:black;  stroke-width:0; fill:cornsilk;" />
<path d="M444.41845703125, 222.41365559895831 L444.41845703125, 214.89754231770831 L457.38623046875, 214.89754231770831 L457.38623046875, 222.41365559895831 L444.41845703125, 222.41365559895831 Z" style="stroke: black; fill: none; stroke-width:1.4; " /><path d="M465.92021484375, 218.65559895833331 L469.427734375, 211.64055989583332 L472.93525390625, 218.65559895833331 L469.427734375, 225.6706380208333 L465.92021484375, 218.65559895833331 Z" style="stroke: black; fill: none; stroke-width:1.4; " /><path d="M484.44560546875, 218.65559895833331 L487.953125, 211.64055989583332 L491.46064453125, 218.65559895833331 L487.953125, 225.6706380208333 L484.44560546875, 218.65559895833331 Z" style="stroke: black; fill: none; stroke-width:1.4; " /><path d="M502.97099609375, 218.65559895833331 L506.478515625, 211.64055989583332 L509.98603515625, 218.65559895833331 L506.478515625, 225.6706380208333 L502.97099609375, 218.65559895833331 Z" style="stroke: black; fill: none; stroke-width:1.4; " /><path d="M521.49638671875, 218.65559895833331 L525.00390625, 211.64055989583332 L528.51142578125, 218.65559895833331 L525.00390625, 225.6706380208333 L521.49638671875, 218.65559895833331 Z" style="stroke: black; fill: none; stroke-width:1.4; " /><path d="M540.02177734375, 218.65559895833331 L543.529296875, 211.64055989583332 L547.03681640625, 218.65559895833331 L543.529296875, 225.6706380208333 L540.02177734375, 218.65559895833331 Z" style="stroke: black; fill: none; stroke-width:1.4; " /><path d="M558.54716796875, 218.65559895833331 L562.0546875, 211.64055989583332 L565.56220703125, 218.65559895833331 L562.0546875, 225.6706380208333 L558.54716796875, 218.65559895833331 Z" style="stroke: black; fill: none; stroke-width:1.4; " /><path d="M577.07255859375, 218.65559895833331 L580.580078125, 211.64055989583332 L584.08759765625, 218.65559895833331 L580.580078125, 225.6706380208333 L577.07255859375, 218.65559895833331 Z" style="stroke: black; fill: none; stroke-width:1.4; " /><rect x="608.3681640625" y="208.63411458333331" width="18.525390625" height="20.04296875" style="stroke:black;  stroke-width:0; fill:cornsilk;" />
<rect x="200.8095703125" y="236.4548611111111" width="148.203125" height="13.361979166666666" style="stroke:black;  stroke-width:0; fill:cornsilk;" />
<path d="M219.3349609375, 236.4548611111111 A6.680989583333333, 6.680989583333333, 0, 0 0 226.01595052083334, 243.13585069444443 L277.4928385416667, 243.13585069444443 A6.680989583333333, 6.680989583333333 0, 0 1 284.173828125, 249.81684027777774 A6.680989583333333, 6.680989583333333, 0, 0 1 290.8548177083333, 243.13585069444443 L342.3317057291667, 243.13585069444443 A6.680989583333333, 6.680989583333333 0, 0 0 349.0126953125, 236.4548611111111 " style="stroke: black; stroke-width:1.4; fill:none" /><rect x="200.8095703125" y="257.59461805555554" width="148.203125" height="52.234188368055555" style="stroke:black;  stroke-width:0; fill:cornsilk;" />
<path d="M197.30205078125, 267.61610243055554 L200.8095703125, 260.6010633680555 L204.31708984375, 267.61610243055554 L200.8095703125, 274.63114149305557 L197.30205078125, 267.61610243055554 Z" style="stroke: black; fill: none; stroke-width:1.4; " /><path d="M207.59393446180553, 267.61610243055554 L211.10145399305554, 260.6010633680555 L214.60897352430555, 267.61610243055554 L211.10145399305554, 274.63114149305557 L207.59393446180553, 267.61610243055554 Z" style="stroke: black; fill: none; stroke-width:1.4; " /><path d="M212.73987630208333, 267.61610243055554 L216.24739583333334, 260.6010633680555 L219.75491536458335, 267.61610243055554 L216.24739583333334, 274.63114149305557 L212.73987630208333, 267.61610243055554 Z" style="stroke: black; fill: none; stroke-width:1.4; " /><path d="M217.8858181423611, 267.61610243055554 L221.39333767361111, 260.6010633680555 L224.90085720486113, 267.61610243055554 L221.39333767361111, 274.63114149305557 L217.8858181423611, 267.61610243055554 Z" style="stroke: black; fill: none; stroke-width:1.4; " /><path d="M228.17770182291665, 267.61610243055554 L231.68522135416666, 260.6010633680555 L235.19274088541667, 267.61610243055554 L231.68522135416666, 274.63114149305557 L228.17770182291665, 267.61610243055554 Z" style="stroke: black; fill: none; stroke-width:1.4; " /><path d="M238.46958550347222, 267.61610243055554 L241.97710503472223, 260.6010633680555 L245.48462456597224, 267.61610243055554 L241.97710503472223, 274.63114149305557 L238.46958550347222, 267.61610243055554 Z" style="stroke: black; fill: none; stroke-width:1.4; " /><path d="M259.0533528645833, 267.61610243055554 L262.5608723958333, 260.6010633680555 L266.0683919270833, 267.61610243055554 L262.5608723958333, 274.63114149305557 L259.0533528645833, 267.61610243055554 Z" style="stroke: black; fill: none; stroke-width:1.4; " /><path d="M279.63712022569445, 267.61610243055554 L283.14463975694446, 260.6010633680555 L286.65215928819447, 267.61610243055554 L283.14463975694446, 274.63114149305557 L279.63712022569445, 267.61610243055554 Z" style="stroke: black; fill: none; stroke-width:1.4; " /><path d="M320.8046549479167, 267.61610243055554 L324.3121744791667, 260.6010633680555 L327.8196940104167, 267.61610243055554 L324.3121744791667, 274.63114149305557 L320.8046549479167, 267.61610243055554 Z" style="stroke: black; fill: none; stroke-width:1.4; " /><path d="M361.9721896701389, 267.61610243055554 L365.4797092013889, 260.6010633680555 L368.9872287326389, 267.61610243055554 L365.4797092013889, 274.63114149305557 L361.9721896701389, 267.61610243055554 Z" style="stroke: black; fill: none; stroke-width:1.4; " /><path d="M392.39287109375, 267.61610243055554 L395.900390625, 260.6010633680555 L399.40791015625, 267.61610243055554 L395.900390625, 274.63114149305557 L392.39287109375, 267.61610243055554 Z" style="stroke: black; fill: none; stroke-width:1.4; " /><path d="M400.23745117187497, 267.61610243055554 L403.744970703125, 260.6010633680555 L407.252490234375, 267.61610243055554 L403.744970703125, 274.63114149305557 L400.23745117187497, 267.61610243055554 Z" style="stroke: black; fill: none; stroke-width:1.4; " /><path d="M410.69689127604164, 267.61610243055554 L414.20441080729165, 260.6010633680555 L417.71193033854166, 267.61610243055554 L414.20441080729165, 274.63114149305557 L410.69689127604164, 267.61610243055554 Z" style="stroke: black; fill: none; stroke-width:1.4; " /><path d="M423.77119140625, 267.61610243055554 L427.2787109375, 260.6010633680555 L430.78623046875003, 267.61610243055554 L427.2787109375, 274.63114149305557 L423.77119140625, 267.61610243055554 Z" style="stroke: black; fill: none; stroke-width:1.4; " /><path d="M439.46035156249997, 267.61610243055554 L442.96787109375, 260.6010633680555 L446.475390625, 267.61610243055554 L442.96787109375, 274.63114149305557 L439.46035156249997, 267.61610243055554 Z" style="stroke: black; fill: none; stroke-width:1.4; " /><path d="M455.14951171875, 267.61610243055554 L458.65703125, 260.6010633680555 L462.16455078125, 267.61610243055554 L458.65703125, 274.63114149305557 L455.14951171875, 267.61610243055554 Z" style="stroke: black; fill: none; stroke-width:1.4; " /><path d="M486.52783203125, 267.61610243055554 L490.0353515625, 260.6010633680555 L493.54287109375, 267.61610243055554 L490.0353515625, 274.63114149305557 L486.52783203125, 267.61610243055554 Z" style="stroke: black; fill: none; stroke-width:1.4; " /><path d="M517.90615234375, 267.61610243055554 L521.413671875, 260.6010633680555 L524.9211914062499, 267.61610243055554 L521.413671875, 274.63114149305557 L517.90615234375, 267.61610243055554 Z" style="stroke: black; fill: none; stroke-width:1.4; " /><path d="M549.28447265625, 267.61610243055554 L552.7919921875, 260.6010633680555 L556.29951171875, 267.61610243055554 L552.7919921875, 274.63114149305557 L549.28447265625, 267.61610243055554 Z" style="stroke: black; fill: none; stroke-width:1.4; " /><line x1="200.8095703125" y1="285.4153645833333" x2="386.0634765625" y2="285.4153645833333" style="stroke:black; stroke-width:1.4; " />
<line x1="200.8095703125" y1="282.07486979166663" x2="200.8095703125" y2="288.755859375" style="stroke:black; stroke-width:1.4; " />
<text x="197.5419921875" y="306.55512152777777">0</text>
<line x1="221.39333767361111" y1="282.07486979166663" x2="221.39333767361111" y2="288.755859375" style="stroke:black; stroke-width:1.4; " />
<text x="218.07449001736111" y="306.55512152777777">2</text>
<line x1="241.97710503472223" y1="282.07486979166663" x2="241.97710503472223" y2="288.755859375" style="stroke:black; stroke-width:1.4; " />
<text x="238.51128472222223" y="306.55512152777777">4</text>
<line x1="262.5608723958333" y1="282.07486979166663" x2="262.5608723958333" y2="288.755859375" style="stroke:black; stroke-width:1.4; " />
<text x="259.2522786458333" y="306.55512152777777">6</text>
<line x1="283.14463975694446" y1="282.07486979166663" x2="283.14463975694446" y2="288.755859375" style="stroke:black; stroke-width:1.4; " />
<text x="279.84288194444446" y="306.55512152777777">8</text>
<line x1="303.72840711805554" y1="282.07486979166663" x2="303.72840711805554" y2="288.755859375" style="stroke:black; stroke-width:1.4; " />
<text x="297.03944227430554" y="306.55512152777777">10</text>
<line x1="324.3121744791667" y1="282.07486979166663" x2="324.3121744791667" y2="288.755859375" style="stroke:black; stroke-width:1.4; " />
<text x="317.6573893229167" y="306.55512152777777">12</text>
<line x1="344.89594184027777" y1="282.07486979166663" x2="344.89594184027777" y2="288.755859375" style="stroke:black; stroke-width:1.4; " />
<text x="338.21039496527777" y="306.55512152777777">14</text>
<line x1="365.4797092013889" y1="282.07486979166663" x2="365.4797092013889" y2="288.755859375" style="stroke:black; stroke-width:1.4; " />
<text x="358.7770724826389" y="306.55512152777777">16</text>
<line x1="395.900390625" y1="285.4153645833333" x2="552.7919921875" y2="285.4153645833333" style="stroke:black; stroke-width:1.4; " />
<line x1="395.900390625" y1="282.07486979166663" x2="395.900390625" y2="288.755859375" style="stroke:black; stroke-width:1.4; " />
<text x="388.65771484375" y="306.55512152777777">24</text>
<line x1="427.2787109375" y1="282.07486979166663" x2="427.2787109375" y2="288.755859375" style="stroke:black; stroke-width:1.4; " />
<text x="419.8890625" y="306.55512152777777">48</text>
<line x1="458.65703125" y1="282.07486979166663" x2="458.65703125" y2="288.755859375" style="stroke:black; stroke-width:1.4; " />
<text x="451.57158203125" y="306.55512152777777">72</text>
<line x1="490.0353515625" y1="282.07486979166663" x2="490.0353515625" y2="288.755859375" style="stroke:black; stroke-width:1.4; " />
<text x="482.86103515625" y="306.55512152777777">96</text>
<line x1="521.413671875" y1="282.07486979166663" x2="521.413671875" y2="288.755859375" style="stroke:black; stroke-width:1.4; " />
<text x="510.831640625" y="306.55512152777777">120</text>
<line x1="552.7919921875" y1="282.07486979166663" x2="552.7919921875" y2="288.755859375" style="stroke:black; stroke-width:1.4; " />
<text x="542.21337890625" y="306.55512152777777">144</text>
</svg>