<svg width="524.3955078125" height="265.8539800347222" xmlns="http://www.w3.org/2000/svg">
<style>text {font-family: Arial; font-size: 14px ;}</style>
<desc>Trial design autogenerated by td.py V2.0 (Dec-2021), author: Rainer Strotmann</desc><title>ms0044</title><text x="122.11083984375" y="25.0322265625">S</text>
<text x="213.0048828125" y="25.0322265625">Period 1</text>
<text x="397.3427734375" y="25.0322265625">Period 2</text>
<rect x="116.8369140625" y="33.931857638888886" width="18.525390625" height="20.04296875" style="stroke:black;  stroke-width:1.4; fill:none;" />
<text x="126.099609375" y="48.964084201388886"></text>
<line x1="135.3623046875" y1="43.953342013888886" x2="153.8876953125" y2="43.953342013888886" style="stroke:black; stroke-width:1.4; " />
<rect x="153.8876953125" y="33.931857638888886" width="18.525390625" height="20.04296875" style="stroke:black;  stroke-width:1.4; fill:none;" />
<text x="158.43359375" y="48.964084201388886">-1</text>
<rect x="172.4130859375" y="33.931857638888886" width="18.525390625" height="20.04296875" style="stroke:black;  stroke-width:0; fill:lightgray;" />
<rect x="172.4130859375" y="33.931857638888886" width="18.525390625" height="20.04296875" style="stroke:black;  stroke-width:1.4; fill:none;" />
<text x="177.984375" y="48.964084201388886">1</text>
<rect x="190.9384765625" y="33.931857638888886" width="18.525390625" height="20.04296875" style="stroke:black;  stroke-width:1.4; fill:none;" />
<text x="196.88232421875" y="48.964084201388886">2</text>
<rect x="209.4638671875" y="33.931857638888886" width="18.525390625" height="20.04296875" style="stroke:black;  stroke-width:1.4; fill:none;" />
<text x="215.4453125" y="48.964084201388886">3</text>
<rect x="227.9892578125" y="33.931857638888886" width="18.525390625" height="20.04296875" style="stroke:black;  stroke-width:1.4; fill:none;" />
<text x="233.7861328125" y="48.964084201388886">4</text>
<rect x="246.5146484375" y="33.931857638888886" width="18.525390625" height="20.04296875" style="stroke:black;  stroke-width:1.4; fill:none;" />
<text x="255.77734375" y="48.964084201388886"></text>
<rect x="265.0400390625" y="33.931857638888886" width="18.525390625" height="20.04296875" style="stroke:black;  stroke-width:1.4; fill:none;" />
<text x="274.302734375" y="48.964084201388886"></text>
<rect x="283.5654296875" y="33.931857638888886" width="18.525390625" height="20.04296875" style="stroke:black;  stroke-width:1.4; fill:none;" />
<text x="292.828125" y="48.964084201388886"></text>
<rect x="302.0908203125" y="33.931857638888886" width="18.525390625" height="20.04296875" style="stroke:black;  stroke-width:0; fill:lightgray;" />
<rect x="302.0908203125" y="33.931857638888886" width="18.525390625" height="20.04296875" style="stroke:black;  stroke-width:1.4; fill:none;" />
<text x="308.0517578125" y="48.964084201388886">8</text>
<line x1="320.6162109375" y1="43.953342013888886" x2="339.1416015625" y2="43.953342013888886" style="stroke:black; stroke-width:1.4; " />
<rect x="339.1416015625" y="33.931857638888886" width="18.525390625" height="20.04296875" style="stroke:black;  stroke-width:1.4; fill:none;" />
<text x="343.6875" y="48.964084201388886">-1</text>
<rect x="357.6669921875" y="33.931857638888886" width="18.525390625" height="20.04296875" style="stroke:black;  stroke-width:0; fill:lightgray;" />
<rect x="357.6669921875" y="33.931857638888886" width="18.525390625" height="20.04296875" style="stroke:black;  stroke-width:1.4; fill:none;" />
<text x="363.23828125" y="48.964084201388886">1</text>
<rect x="376.1923828125" y="33.931857638888886" width="18.525390625" height="20.04296875" style="stroke:black;  stroke-width:1.4; fill:none;" />
<text x="382.13623046875" y="48.964084201388886">2</text>
<rect x="394.7177734375" y="33.931857638888886" width="18.525390625" height="20.04296875" style="stroke:black;  stroke-width:1.4; fill:none;" />
<text x="400.69921875" y="48.964084201388886">3</text>
<rect x="413.2431640625" y="33.931857638888886" width="18.525390625" height="20.04296875" style="stroke:black;  stroke-width:1.4; fill:none;" />
<text x="419.0400390625" y="48.964084201388886">4</text>
<rect x="431.7685546875" y="33.931857638888886" width="18.525390625" height="20.04296875" style="stroke:black;  stroke-width:1.4; fill:none;" />
<text x="441.03125" y="48.964084201388886"></text>
<rect x="450.2939453125" y="33.931857638888886" width="18.525390625" height="20.04296875" style="stroke:black;  stroke-width:1.4; fill:none;" />
<text x="459.556640625" y="48.964084201388886"></text>
<rect x="468.8193359375" y="33.931857638888886" width="18.525390625" height="20.04296875" style="stroke:black;  stroke-width:1.4; fill:none;" />
<text x="478.08203125" y="48.964084201388886"></text>
<rect x="487.3447265625" y="33.931857638888886" width="18.525390625" height="20.04296875" style="stroke:black;  stroke-width:0; fill:lightgray;" />
<rect x="487.3447265625" y="33.931857638888886" width="18.525390625" height="20.04296875" style="stroke:black;  stroke-width:1.4; fill:none;" />
<text x="493.3056640625" y="48.964084201388886">8</text>
<text x="5" y="84.67335069444444">hospitalization</text>
<rect x="153.8876953125" y="75.54327256944444" width="92.626953125" height="8.0171875" style="stroke:black;  stroke-width:1.4; fill:none;" />
<rect x="339.1416015625" y="75.54327256944444" width="92.626953125" height="8.0171875" style="stroke:black;  stroke-width:1.4; fill:none;" />
<text x="5" y="112.49409722222222">tepotinib</text>
<path d="M181.3150078125, 107.37261284722223 L181.3150078125, 101.35972222222223 L182.0365546875, 101.35972222222223 L182.0365546875, 107.37261284722223 L183.930615234375, 107.37261284722223 L181.67578125, 113.38550347222223 L179.420947265625, 107.37261284722223 L181.3150078125, 107.37261284722223 Z" style="stroke: black; fill: black; stroke-width:1.4; " /><path d="M366.5689140625, 107.37261284722223 L366.5689140625, 101.35972222222223 L367.2904609375, 101.35972222222223 L367.2904609375, 107.37261284722223 L369.184521484375, 107.37261284722223 L366.9296875, 113.38550347222223 L364.674853515625, 107.37261284722223 L366.5689140625, 107.37261284722223 Z" style="stroke: black; fill: black; stroke-width:1.4; " /><text x="5" y="139.338671875">ECG</text>
<path d="M159.64287109375, 135.193359375 L163.150390625, 128.1783203125 L166.65791015625, 135.193359375 L163.150390625, 142.2083984375 L159.64287109375, 135.193359375 Z" style="stroke: black; fill: none; stroke-width:1.4; " /><path d="M178.16826171875, 135.193359375 L181.67578125, 128.1783203125 L185.18330078125, 135.193359375 L181.67578125, 142.2083984375 L178.16826171875, 135.193359375 Z" style="stroke: black; fill: none; stroke-width:1.4; " /><path d="M196.69365234375, 135.193359375 L200.201171875, 128.1783203125 L203.70869140625, 135.193359375 L200.201171875, 142.2083984375 L196.69365234375, 135.193359375 Z" style="stroke: black; fill: none; stroke-width:1.4; " /><path d="M233.74443359375, 135.193359375 L237.251953125, 128.1783203125 L240.75947265625, 135.193359375 L237.251953125, 142.2083984375 L233.74443359375, 135.193359375 Z" style="stroke: black; fill: none; stroke-width:1.4; " /><path d="M344.89677734375, 135.193359375 L348.404296875, 128.1783203125 L351.91181640625, 135.193359375 L348.404296875, 142.2083984375 L344.89677734375, 135.193359375 Z" style="stroke: black; fill: none; stroke-width:1.4; " /><path d="M363.42216796875, 135.193359375 L366.9296875, 128.1783203125 L370.43720703125, 135.193359375 L366.9296875, 142.2083984375 L363.42216796875, 135.193359375 Z" style="stroke: black; fill: none; stroke-width:1.4; " /><path d="M381.94755859375, 135.193359375 L385.455078125, 128.1783203125 L388.96259765625, 135.193359375 L385.455078125, 142.2083984375 L381.94755859375, 135.193359375 Z" style="stroke: black; fill: none; stroke-width:1.4; " /><path d="M418.99833984375, 135.193359375 L422.505859375, 128.1783203125 L426.01337890625, 135.193359375 L422.505859375, 142.2083984375 L418.99833984375, 135.193359375 Z" style="stroke: black; fill: none; stroke-width:1.4; " /><text x="5" y="168.20121527777778">PK sampling</text>
<path d="M175.19189453125, 166.77216254340277 L175.19189453125, 159.25604926215277 L188.15966796875, 159.25604926215277 L188.15966796875, 166.77216254340277 L175.19189453125, 166.77216254340277 Z" style="stroke: black; fill: none; stroke-width:1.4; " /><path d="M196.69365234375, 163.01410590277777 L200.201171875, 155.99906684027778 L203.70869140625, 163.01410590277777 L200.201171875, 170.02914496527777 L196.69365234375, 163.01410590277777 Z" style="stroke: black; fill: none; stroke-width:1.4; " /><path d="M215.21904296875, 163.01410590277777 L218.7265625, 155.99906684027778 L222.23408203125, 163.01410590277777 L218.7265625, 170.02914496527777 L215.21904296875, 163.01410590277777 Z" style="stroke: black; fill: none; stroke-width:1.4; " /><path d="M233.74443359375, 163.01410590277777 L237.251953125, 155.99906684027778 L240.75947265625, 163.01410590277777 L237.251953125, 170.02914496527777 L233.74443359375, 163.01410590277777 Z" style="stroke: black; fill: none; stroke-width:1.4; " /><path d="M252.26982421875, 163.01410590277777 L255.77734375, 155.99906684027778 L259.28486328125, 163.01410590277777 L255.77734375, 170.02914496527777 L252.26982421875, 163.01410590277777 Z" style="stroke: black; fill: none; stroke-width:1.4; " /><path d="M270.79521484375, 163.01410590277777 L274.302734375, 155.99906684027778 L277.81025390625, 163.01410590277777 L274.302734375, 170.02914496527777 L270.79521484375, 163.01410590277777 Z" style="stroke: black; fill: none; stroke-width:1.4; " /><path d="M289.32060546875, 163.01410590277777 L292.828125, 155.99906684027778 L296.33564453125, 163.01410590277777 L292.828125, 170.02914496527777 L289.32060546875, 163.01410590277777 Z" style="stroke: black; fill: none; stroke-width:1.4; " /><path d="M307.84599609375, 163.01410590277777 L311.353515625, 155.99906684027778 L314.86103515625, 163.01410590277777 L311.353515625, 170.02914496527777 L307.84599609375, 163.01410590277777 Z" style="stroke: black; fill: none; stroke-width:1.4; " /><path d="M360.44580078125, 166.77216254340277 L360.44580078125, 159.25604926215277 L373.41357421875, 159.25604926215277 L373.41357421875, 166.77216254340277 L360.44580078125, 166.77216254340277 Z" style="stroke: black; fill: none; stroke-width:1.4; " /><path d="M381.94755859375, 163.01410590277777 L385.455078125, 155.99906684027778 L388.96259765625, 163.01410590277777 L385.455078125, 170.02914496527777 L381.94755859375, 163.01410590277777 Z" style="stroke: black; fill: none; stroke-width:1.4; " /><path d="M400.47294921875, 163.01410590277777 L403.98046875, 155.99906684027778 L407.48798828125, 163.01410590277777 L403.98046875, 170.02914496527777 L400.47294921875, 163.01410590277777 Z" style="stroke: black; fill: none; stroke-width:1.4; " /><path d="M418.99833984375, 163.01410590277777 L422.505859375, 155.99906684027778 L426.01337890625, 163.01410590277777 L422.505859375, 170.02914496527777 L418.99833984375, 163.01410590277777 Z" style="stroke: black; fill: none; stroke-width:1.4; " /><path d="M437.52373046875, 163.01410590277777 L441.03125, 155.99906684027778 L444.53876953125, 163.01410590277777 L441.03125, 170.02914496527777 L437.52373046875, 163.01410590277777 Z" style="stroke: black; fill: none; stroke-width:1.4; " /><path d="M456.04912109375, 163.01410590277777 L459.556640625, 155.99906684027778 L463.06416015625, 163.01410590277777 L459.556640625, 170.02914496527777 L456.04912109375, 163.01410590277777 Z" style="stroke: black; fill: none; stroke-width:1.4; " /><path d="M474.57451171875, 163.01410590277777 L478.08203125, 155.99906684027778 L481.58955078125, 163.01410590277777 L478.08203125, 170.02914496527777 L474.57451171875, 163.01410590277777 Z" style="stroke: black; fill: none; stroke-width:1.4; " /><path d="M493.09990234375, 163.01410590277777 L496.607421875, 155.99906684027778 L500.11494140625, 163.01410590277777 L496.607421875, 170.02914496527777 L493.09990234375, 163.01410590277777 Z" style="stroke: black; fill: none; stroke-width:1.4; " /><path d="M172.4130859375, 180.81336805555554 A6.680989583333333, 6.680989583333333, 0, 0 0 179.09407552083334, 187.49435763888889 L239.83365885416666, 187.49435763888889 A6.680989583333333, 6.680989583333333 0, 0 1 246.5146484375, 194.1753472222222 A6.680989583333333, 6.680989583333333, 0, 0 1 253.19563802083334, 187.49435763888889 L313.9352213541667, 187.49435763888889 A6.680989583333333, 6.680989583333333 0, 0 0 320.6162109375, 180.81336805555554 " style="stroke: black; stroke-width:1.4; fill:none" /><path d="M150.38017578125, 215.86349826388889 L153.8876953125, 208.8484592013889 L157.39521484375, 215.86349826388889 L153.8876953125, 222.87853732638888 L150.38017578125, 215.86349826388889 Z" style="stroke: black; fill: none; stroke-width:1.4; " /><path d="M154.08525390625, 215.86349826388889 L157.5927734375, 208.8484592013889 L161.10029296875, 215.86349826388889 L157.5927734375, 222.87853732638888 L154.08525390625, 215.86349826388889 Z" style="stroke: black; fill: none; stroke-width:1.4; " /><path d="M157.79033203125, 215.86349826388889 L161.2978515625, 208.8484592013889 L164.80537109375, 215.86349826388889 L161.2978515625, 222.87853732638888 L157.79033203125, 215.86349826388889 Z" style="stroke: black; fill: none; stroke-width:1.4; " /><path d="M165.20048828125, 215.86349826388889 L168.7080078125, 208.8484592013889 L172.21552734375, 215.86349826388889 L168.7080078125, 222.87853732638888 L165.20048828125, 215.86349826388889 Z" style="stroke: black; fill: none; stroke-width:1.4; " /><path d="M180.02080078125, 215.86349826388889 L183.5283203125, 208.8484592013889 L187.03583984375, 215.86349826388889 L183.5283203125, 222.87853732638888 L180.02080078125, 215.86349826388889 Z" style="stroke: black; fill: none; stroke-width:1.4; " /><path d="M209.66142578125, 215.86349826388889 L213.1689453125, 208.8484592013889 L216.67646484375, 215.86349826388889 L213.1689453125, 222.87853732638888 L209.66142578125, 215.86349826388889 Z" style="stroke: black; fill: none; stroke-width:1.4; " /><path d="M239.30205078125, 215.86349826388889 L242.8095703125, 208.8484592013889 L246.31708984375, 215.86349826388889 L242.8095703125, 222.87853732638888 L239.30205078125, 215.86349826388889 Z" style="stroke: black; fill: none; stroke-width:1.4; " /><path d="M268.94267578125, 215.86349826388889 L272.4501953125, 208.8484592013889 L275.95771484375, 215.86349826388889 L272.4501953125, 222.87853732638888 L268.94267578125, 215.86349826388889 Z" style="stroke: black; fill: none; stroke-width:1.4; " /><path d="M308.42021484375, 215.86349826388889 L311.927734375, 208.8484592013889 L315.43525390625, 215.86349826388889 L311.927734375, 222.87853732638888 L308.42021484375, 215.86349826388889 Z" style="stroke: black; fill: none; stroke-width:1.4; " /><path d="M328.3936848958333, 215.86349826388889 L331.9012044270833, 208.8484592013889 L335.4087239583333, 215.86349826388889 L331.9012044270833, 222.87853732638888 L328.3936848958333, 215.86349826388889 Z" style="stroke: black; fill: none; stroke-width:1.4; " /><path d="M348.3671549479167, 215.86349826388889 L351.8746744791667, 208.8484592013889 L355.3821940104167, 215.86349826388889 L351.8746744791667, 222.87853732638888 L348.3671549479167, 215.86349826388889 Z" style="stroke: black; fill: none; stroke-width:1.4; " /><path d="M368.340625, 215.86349826388889 L371.84814453125, 208.8484592013889 L375.3556640625, 215.86349826388889 L371.84814453125, 222.87853732638888 L368.340625, 215.86349826388889 Z" style="stroke: black; fill: none; stroke-width:1.4; " /><path d="M388.3140950520833, 215.86349826388889 L391.8216145833333, 208.8484592013889 L395.3291341145833, 215.86349826388889 L391.8216145833333, 222.87853732638888 L388.3140950520833, 215.86349826388889 Z" style="stroke: black; fill: none; stroke-width:1.4; " /><path d="M408.2875651041667, 215.86349826388889 L411.7950846354167, 208.8484592013889 L415.3026041666667, 215.86349826388889 L411.7950846354167, 222.87853732638888 L408.2875651041667, 215.86349826388889 Z" style="stroke: black; fill: none; stroke-width:1.4; " /><path d="M428.26103515625, 215.86349826388889 L431.7685546875, 208.8484592013889 L435.27607421875, 215.86349826388889 L431.7685546875, 222.87853732638888 L428.26103515625, 215.86349826388889 Z" style="stroke: black; fill: none; stroke-width:1.4; " /><line x1="153.8876953125" y1="233.66276041666666" x2="302.0908203125" y2="233.66276041666666" style="stroke:black; stroke-width:1.4; " />
<line x1="153.8876953125" y1="230.322265625" x2="153.8876953125" y2="237.00325520833331" style="stroke:black; stroke-width:1.4; " />
<text x="150.6201171875" y="254.8025173611111">0</text>
<line x1="183.5283203125" y1="230.322265625" x2="183.5283203125" y2="237.00325520833331" style="stroke:black; stroke-width:1.4; " />
<text x="180.20947265625" y="254.8025173611111">2</text>
<line x1="213.1689453125" y1="230.322265625" x2="213.1689453125" y2="237.00325520833331" style="stroke:black; stroke-width:1.4; " />
<text x="209.703125" y="254.8025173611111">4</text>
<line x1="242.8095703125" y1="230.322265625" x2="242.8095703125" y2="237.00325520833331" style="stroke:black; stroke-width:1.4; " />
<text x="239.5009765625" y="254.8025173611111">6</text>
<line x1="272.4501953125" y1="230.322265625" x2="272.4501953125" y2="237.00325520833331" style="stroke:black; stroke-width:1.4; " />
<text x="269.1484375" y="254.8025173611111">8</text>
<line x1="311.927734375" y1="233.66276041666666" x2="431.7685546875" y2="233.66276041666666" style="stroke:black; stroke-width:1.4; " />
<line x1="311.927734375" y1="230.322265625" x2="311.927734375" y2="237.00325520833331" style="stroke:black; stroke-width:1.4; " />
<text x="304.68505859375" y="254.8025173611111">24</text>
<line x1="331.9012044270833" y1="230.322265625" x2="331.9012044270833" y2="237.00325520833331" style="stroke:black; stroke-width:1.4; " />
<text x="324.5115559895833" y="254.8025173611111">48</text>
<line x1="351.8746744791667" y1="230.322265625" x2="351.8746744791667" y2="237.00325520833331" style="stroke:black; stroke-width:1.4; " />
<text x="344.7892252604167" y="254.8025173611111">72</text>
<line x1="371.84814453125" y1="230.322265625" x2="371.84814453125" y2="237.00325520833331" style="stroke:black; stroke-width:1.4; " />
<text x="364.673828125" y="254.8025173611111">96</text>
<line x1="391.8216145833333" y1="230.322265625" x2="391.8216145833333" y2="237.00325520833331" style="stroke:black; stroke-width:1.4; " />
<text x="381.2395833333333" y="254.8025173611111">120</text>
<line x1="411.7950846354167" y1="230.322265625" x2="411.7950846354167" y2="237.00325520833331" style="stroke:black; stroke-width:1.4; " />
<line x1="431.7685546875" y1="230.322265625" x2="431.7685546875" y2="237.00325520833331" style="stroke:black; stroke-width:1.4; " />
<text x="421.1591796875" y="254.8025173611111">168</text>
</svg>