<svg width="450.2939453125" height="180.81336805555554" xmlns="http://www.w3.org/2000/svg">
<style>text {font-family: Arial; font-size: 14px ;}</style>
<desc>Trial design autogenerated by td.py version 2.1 (Jan-2022), author: Rainer Strotmann</desc><title>ms0044</title><text x="122.11083984375" y="25.0322265625">S</text>
<text x="194.4794921875" y="25.0322265625">Period 1</text>
<text x="341.7666015625" y="25.0322265625">Period 2</text>
<rect x="116.8369140625" y="33.931857638888886" width="18.525390625" height="20.04296875" style="stroke:black;  stroke-width:1.4; fill:none;" />
<text x="126.099609375" y="48.964084201388886"></text>
<line x1="135.3623046875" y1="43.953342013888886" x2="153.8876953125" y2="43.953342013888886" style="stroke:black; stroke-width:1.4; " />
<rect x="153.8876953125" y="33.931857638888886" width="18.525390625" height="20.04296875" style="stroke:black;  stroke-width:1.4; fill:none;" />
<text x="158.43359375" y="48.964084201388886">-1</text>
<rect x="172.4130859375" y="33.931857638888886" width="18.525390625" height="20.04296875" style="stroke:black;  stroke-width:0; fill:lightgray;" />
<rect x="172.4130859375" y="33.931857638888886" width="18.525390625" height="20.04296875" style="stroke:black;  stroke-width:1.4; fill:none;" />
<text x="177.984375" y="48.964084201388886">1</text>
<rect x="190.9384765625" y="33.931857638888886" width="18.525390625" height="20.04296875" style="stroke:black;  stroke-width:1.4; fill:none;" />
<text x="196.88232421875" y="48.964084201388886">2</text>
<rect x="209.4638671875" y="33.931857638888886" width="18.525390625" height="20.04296875" style="stroke:black;  stroke-width:1.4; fill:none;" />
<text x="215.4453125" y="48.964084201388886">3</text>
<rect x="227.9892578125" y="33.931857638888886" width="18.525390625" height="20.04296875" style="stroke:black;  stroke-width:1.4; fill:none;" />
<text x="233.7861328125" y="48.964084201388886">4</text>
<line x1="246.5146484375" y1="33.931857638888886" x2="252.68977864583334" y2="33.931857638888886" style="stroke:black; stroke-width:1.4; stroke-dasharray: 4.199999999999999 4.199999999999999" />
<line x1="246.5146484375" y1="53.974826388888886" x2="252.68977864583334" y2="53.974826388888886" style="stroke:black; stroke-width:1.4; stroke-dasharray: 4.199999999999999 4.199999999999999" />
<text x="249.60221354166666" y="48.964084201388886"></text>
<line x1="252.68977864583334" y1="33.931857638888886" x2="258.8649088541667" y2="33.931857638888886" style="stroke:black; stroke-width:1.4; stroke-dasharray: 4.199999999999999 4.199999999999999" />
<line x1="252.68977864583334" y1="53.974826388888886" x2="258.8649088541667" y2="53.974826388888886" style="stroke:black; stroke-width:1.4; stroke-dasharray: 4.199999999999999 4.199999999999999" />
<text x="255.77734375" y="48.964084201388886"></text>
<line x1="258.8649088541667" y1="33.931857638888886" x2="265.0400390625" y2="33.931857638888886" style="stroke:black; stroke-width:1.4; stroke-dasharray: 4.199999999999999 4.199999999999999" />
<line x1="258.8649088541667" y1="53.974826388888886" x2="265.0400390625" y2="53.974826388888886" style="stroke:black; stroke-width:1.4; stroke-dasharray: 4.199999999999999 4.199999999999999" />
<text x="261.95247395833337" y="48.964084201388886"></text>
<rect x="265.0400390625" y="33.931857638888886" width="18.525390625" height="20.04296875" style="stroke:black;  stroke-width:0; fill:lightgray;" />
<rect x="265.0400390625" y="33.931857638888886" width="18.525390625" height="20.04296875" style="stroke:black;  stroke-width:1.4; fill:none;" />
<text x="271.0009765625" y="48.964084201388886">8</text>
<line x1="283.5654296875" y1="43.953342013888886" x2="302.0908203125" y2="43.953342013888886" style="stroke:black; stroke-width:1.4; " />
<rect x="302.0908203125" y="33.931857638888886" width="18.525390625" height="20.04296875" style="stroke:black;  stroke-width:1.4; fill:none;" />
<text x="306.63671875" y="48.964084201388886">-1</text>
<rect x="320.6162109375" y="33.931857638888886" width="18.525390625" height="20.04296875" style="stroke:black;  stroke-width:0; fill:lightgray;" />
<rect x="320.6162109375" y="33.931857638888886" width="18.525390625" height="20.04296875" style="stroke:black;  stroke-width:1.4; fill:none;" />
<text x="326.1875" y="48.964084201388886">1</text>
<rect x="339.1416015625" y="33.931857638888886" width="18.525390625" height="20.04296875" style="stroke:black;  stroke-width:1.4; fill:none;" />
<text x="345.08544921875" y="48.964084201388886">2</text>
<rect x="357.6669921875" y="33.931857638888886" width="18.525390625" height="20.04296875" style="stroke:black;  stroke-width:1.4; fill:none;" />
<text x="363.6484375" y="48.964084201388886">3</text>
<rect x="376.1923828125" y="33.931857638888886" width="18.525390625" height="20.04296875" style="stroke:black;  stroke-width:1.4; fill:none;" />
<text x="381.9892578125" y="48.964084201388886">4</text>
<line x1="394.7177734375" y1="33.931857638888886" x2="400.8929036458333" y2="33.931857638888886" style="stroke:black; stroke-width:1.4; stroke-dasharray: 4.199999999999999 4.199999999999999" />
<line x1="394.7177734375" y1="53.974826388888886" x2="400.8929036458333" y2="53.974826388888886" style="stroke:black; stroke-width:1.4; stroke-dasharray: 4.199999999999999 4.199999999999999" />
<text x="397.8053385416667" y="48.964084201388886"></text>
<line x1="400.8929036458333" y1="33.931857638888886" x2="407.06803385416663" y2="33.931857638888886" style="stroke:black; stroke-width:1.4; stroke-dasharray: 4.199999999999999 4.199999999999999" />
<line x1="400.8929036458333" y1="53.974826388888886" x2="407.06803385416663" y2="53.974826388888886" style="stroke:black; stroke-width:1.4; stroke-dasharray: 4.199999999999999 4.199999999999999" />
<text x="403.98046875" y="48.964084201388886"></text>
<line x1="407.06803385416663" y1="33.931857638888886" x2="413.24316406249994" y2="33.931857638888886" style="stroke:black; stroke-width:1.4; stroke-dasharray: 4.199999999999999 4.199999999999999" />
<line x1="407.06803385416663" y1="53.974826388888886" x2="413.24316406249994" y2="53.974826388888886" style="stroke:black; stroke-width:1.4; stroke-dasharray: 4.199999999999999 4.199999999999999" />
<text x="410.1555989583333" y="48.964084201388886"></text>
<rect x="413.24316406249994" y="33.931857638888886" width="18.525390625" height="20.04296875" style="stroke:black;  stroke-width:0; fill:lightgray;" />
<rect x="413.24316406249994" y="33.931857638888886" width="18.525390625" height="20.04296875" style="stroke:black;  stroke-width:1.4; fill:none;" />
<text x="419.20410156249994" y="48.964084201388886">8</text>
<text x="5" y="84.67335069444444">hospitalization</text>
<rect x="153.8876953125" y="75.54327256944444" width="92.626953125" height="8.0171875" style="stroke:black;  stroke-width:1.4; fill:none;" />
<rect x="302.0908203125" y="75.54327256944444" width="92.626953125" height="8.0171875" style="stroke:black;  stroke-width:1.4; fill:none;" />
<text x="5" y="112.49409722222222">tepotinib</text>
<path d="M181.3150078125, 107.37261284722223 L181.3150078125, 101.35972222222223 L182.0365546875, 101.35972222222223 L182.0365546875, 107.37261284722223 L183.930615234375, 107.37261284722223 L181.67578125, 113.38550347222223 L179.420947265625, 107.37261284722223 L181.3150078125, 107.37261284722223 Z" style="stroke: black; fill: black; stroke-width:1.4; " /><path d="M329.5181328125, 107.37261284722223 L329.5181328125, 101.35972222222223 L330.2396796875, 101.35972222222223 L330.2396796875, 107.37261284722223 L332.133740234375, 107.37261284722223 L329.87890625, 113.38550347222223 L327.624072265625, 107.37261284722223 L329.5181328125, 107.37261284722223 Z" style="stroke: black; fill: black; stroke-width:1.4; " /><text x="5" y="139.338671875">ECG</text>
<path d="M159.64287109375, 135.193359375 L163.150390625, 128.1783203125 L166.65791015625, 135.193359375 L163.150390625, 142.2083984375 L159.64287109375, 135.193359375 Z" style="stroke: black; fill: none; stroke-width:1.4; " /><path d="M178.16826171875, 135.193359375 L181.67578125, 128.1783203125 L185.18330078125, 135.193359375 L181.67578125, 142.2083984375 L178.16826171875, 135.193359375 Z" style="stroke: black; fill: none; stroke-width:1.4; " /><path d="M196.69365234375, 135.193359375 L200.201171875, 128.1783203125 L203.70869140625, 135.193359375 L200.201171875, 142.2083984375 L196.69365234375, 135.193359375 Z" style="stroke: black; fill: none; stroke-width:1.4; " /><path d="M233.74443359375, 135.193359375 L237.251953125, 128.1783203125 L240.75947265625, 135.193359375 L237.251953125, 142.2083984375 L233.74443359375, 135.193359375 Z" style="stroke: black; fill: none; stroke-width:1.4; " /><path d="M307.84599609375, 135.193359375 L311.353515625, 128.1783203125 L314.86103515625, 135.193359375 L311.353515625, 142.2083984375 L307.84599609375, 135.193359375 Z" style="stroke: black; fill: none; stroke-width:1.4; " /><path d="M326.37138671875, 135.193359375 L329.87890625, 128.1783203125 L333.38642578125, 135.193359375 L329.87890625, 142.2083984375 L326.37138671875, 135.193359375 Z" style="stroke: black; fill: none; stroke-width:1.4; " /><path d="M344.89677734375, 135.193359375 L348.404296875, 128.1783203125 L351.91181640625, 135.193359375 L348.404296875, 142.2083984375 L344.89677734375, 135.193359375 Z" style="stroke: black; fill: none; stroke-width:1.4; " /><path d="M381.94755859375, 135.193359375 L385.455078125, 128.1783203125 L388.96259765625, 135.193359375 L385.455078125, 142.2083984375 L381.94755859375, 135.193359375 Z" style="stroke: black; fill: none; stroke-width:1.4; " /><text x="5" y="168.20121527777778">PK sampling</text>
<path d="M175.19189453125, 166.77216254340277 L175.19189453125, 159.25604926215277 L188.15966796875, 159.25604926215277 L188.15966796875, 166.77216254340277 L175.19189453125, 166.77216254340277 Z" style="stroke: black; fill: none; stroke-width:1.4; " /><path d="M196.69365234375, 163.01410590277777 L200.201171875, 155.99906684027778 L203.70869140625, 163.01410590277777 L200.201171875, 170.02914496527777 L196.69365234375, 163.01410590277777 Z" style="stroke: black; fill: none; stroke-width:1.4; " /><path d="M215.21904296875, 163.01410590277777 L218.7265625, 155.99906684027778 L222.23408203125, 163.01410590277777 L218.7265625, 170.02914496527777 L215.21904296875, 163.01410590277777 Z" style="stroke: black; fill: none; stroke-width:1.4; " /><path d="M233.74443359375, 163.01410590277777 L237.251953125, 155.99906684027778 L240.75947265625, 163.01410590277777 L237.251953125, 170.02914496527777 L233.74443359375, 163.01410590277777 Z" style="stroke: black; fill: none; stroke-width:1.4; " /><path d="M246.09469401041665, 163.01410590277777 L249.60221354166666, 155.99906684027778 L253.10973307291667, 163.01410590277777 L249.60221354166666, 170.02914496527777 L246.09469401041665, 163.01410590277777 Z" style="stroke: black; fill: none; stroke-width:1.4; " /><path d="M252.26982421875, 163.01410590277777 L255.77734375, 155.99906684027778 L259.28486328125, 163.01410590277777 L255.77734375, 170.02914496527777 L252.26982421875, 163.01410590277777 Z" style="stroke: black; fill: none; stroke-width:1.4; " /><path d="M258.44495442708336, 163.01410590277777 L261.95247395833337, 155.99906684027778 L265.4599934895834, 163.01410590277777 L261.95247395833337, 170.02914496527777 L258.44495442708336, 163.01410590277777 Z" style="stroke: black; fill: none; stroke-width:1.4; " /><path d="M270.79521484375, 163.01410590277777 L274.302734375, 155.99906684027778 L277.81025390625, 163.01410590277777 L274.302734375, 170.02914496527777 L270.79521484375, 163.01410590277777 Z" style="stroke: black; fill: none; stroke-width:1.4; " /><path d="M323.39501953125, 166.77216254340277 L323.39501953125, 159.25604926215277 L336.36279296875, 159.25604926215277 L336.36279296875, 166.77216254340277 L323.39501953125, 166.77216254340277 Z" style="stroke: black; fill: none; stroke-width:1.4; " /><path d="M344.89677734375, 163.01410590277777 L348.404296875, 155.99906684027778 L351.91181640625, 163.01410590277777 L348.404296875, 170.02914496527777 L344.89677734375, 163.01410590277777 Z" style="stroke: black; fill: none; stroke-width:1.4; " /><path d="M363.42216796875, 163.01410590277777 L366.9296875, 155.99906684027778 L370.43720703125, 163.01410590277777 L366.9296875, 170.02914496527777 L363.42216796875, 163.01410590277777 Z" style="stroke: black; fill: none; stroke-width:1.4; " /><path d="M381.94755859375, 163.01410590277777 L385.455078125, 155.99906684027778 L388.96259765625, 163.01410590277777 L385.455078125, 170.02914496527777 L381.94755859375, 163.01410590277777 Z" style="stroke: black; fill: none; stroke-width:1.4; " /><path d="M394.2978190104167, 163.01410590277777 L397.8053385416667, 155.99906684027778 L401.3128580729167, 163.01410590277777 L397.8053385416667, 170.02914496527777 L394.2978190104167, 163.01410590277777 Z" style="stroke: black; fill: none; stroke-width:1.4; " /><path d="M400.47294921875, 163.01410590277777 L403.98046875, 155.99906684027778 L407.48798828125, 163.01410590277777 L403.98046875, 170.02914496527777 L400.47294921875, 163.01410590277777 Z" style="stroke: black; fill: none; stroke-width:1.4; " /><path d="M406.6480794270833, 163.01410590277777 L410.1555989583333, 155.99906684027778 L413.6631184895833, 163.01410590277777 L410.1555989583333, 170.02914496527777 L406.6480794270833, 163.01410590277777 Z" style="stroke: black; fill: none; stroke-width:1.4; " /><path d="M418.99833984374993, 163.01410590277777 L422.50585937499994, 155.99906684027778 L426.01337890624995, 163.01410590277777 L422.50585937499994, 170.02914496527777 L418.99833984374993, 163.01410590277777 Z" style="stroke: black; fill: none; stroke-width:1.4; " /></svg>