<svg width="657.3294270833334" height="208.63411458333331" xmlns="http://www.w3.org/2000/svg">
<style>text {font-family: Arial; font-size: 14px ;}</style>
<desc>Trial design autogenerated by td.py V2.0 (Dec-2021), author: Rainer Strotmann</desc><title>ms100036-0020</title><text x="211.81884765625" y="25.0322265625">S</text>
<text x="274.9248046875" y="25.0322265625">Period 1</text>
<text x="462.3502604166667" y="25.0322265625">Period 2</text>
<text x="619.4036458333334" y="25.0322265625">F/U</text>
<rect x="206.544921875" y="33.931857638888886" width="18.525390625" height="20.04296875" style="stroke:black;  stroke-width:1.4; fill:none;" />
<text x="215.8076171875" y="48.964084201388886"></text>
<line x1="225.0703125" y1="43.953342013888886" x2="243.595703125" y2="43.953342013888886" style="stroke:black; stroke-width:1.4; " />
<rect x="243.595703125" y="33.931857638888886" width="18.525390625" height="20.04296875" style="stroke:black;  stroke-width:1.4; fill:none;" />
<text x="248.1416015625" y="48.964084201388886">-1</text>
<rect x="262.12109375" y="33.931857638888886" width="18.525390625" height="20.04296875" style="stroke:black;  stroke-width:0; fill:lightgray;" />
<rect x="262.12109375" y="33.931857638888886" width="18.525390625" height="20.04296875" style="stroke:black;  stroke-width:1.4; fill:none;" />
<text x="267.6923828125" y="48.964084201388886">1</text>
<line x1="280.646484375" y1="33.931857638888886" x2="286.8216145833333" y2="33.931857638888886" style="stroke:black; stroke-width:1.4; stroke-dasharray: 4.199999999999999 4.199999999999999" />
<line x1="280.646484375" y1="53.974826388888886" x2="286.8216145833333" y2="53.974826388888886" style="stroke:black; stroke-width:1.4; stroke-dasharray: 4.199999999999999 4.199999999999999" />
<rect x="286.8216145833333" y="33.931857638888886" width="18.525390625" height="20.04296875" style="stroke:black;  stroke-width:1.4; fill:none;" />
<text x="292.8030598958333" y="48.964084201388886">3</text>
<rect x="305.3470052083333" y="33.931857638888886" width="18.525390625" height="20.04296875" style="stroke:black;  stroke-width:1.4; fill:none;" />
<text x="311.1438802083333" y="48.964084201388886">4</text>
<line x1="323.8723958333333" y1="33.931857638888886" x2="330.04752604166663" y2="33.931857638888886" style="stroke:black; stroke-width:1.4; stroke-dasharray: 4.199999999999999 4.199999999999999" />
<line x1="323.8723958333333" y1="53.974826388888886" x2="330.04752604166663" y2="53.974826388888886" style="stroke:black; stroke-width:1.4; stroke-dasharray: 4.199999999999999 4.199999999999999" />
<text x="326.9599609375" y="48.964084201388886"></text>
<line x1="330.04752604166663" y1="33.931857638888886" x2="336.22265624999994" y2="33.931857638888886" style="stroke:black; stroke-width:1.4; stroke-dasharray: 4.199999999999999 4.199999999999999" />
<line x1="330.04752604166663" y1="53.974826388888886" x2="336.22265624999994" y2="53.974826388888886" style="stroke:black; stroke-width:1.4; stroke-dasharray: 4.199999999999999 4.199999999999999" />
<text x="333.1350911458333" y="48.964084201388886"></text>
<rect x="336.22265624999994" y="33.931857638888886" width="18.525390625" height="20.04296875" style="stroke:black;  stroke-width:1.4; fill:none;" />
<text x="342.24169921874994" y="48.964084201388886">7</text>
<line x1="354.748046875" y1="43.953342013888886" x2="373.2734375" y2="43.953342013888886" style="stroke:black; stroke-width:1.4; " />
<rect x="373.2734375" y="33.931857638888886" width="18.525390625" height="20.04296875" style="stroke:black;  stroke-width:0; fill:lightgray;" />
<rect x="373.2734375" y="33.931857638888886" width="18.525390625" height="20.04296875" style="stroke:black;  stroke-width:1.4; fill:none;" />
<text x="379.234375" y="48.964084201388886">8</text>
<line x1="391.798828125" y1="33.931857638888886" x2="397.9739583333333" y2="33.931857638888886" style="stroke:black; stroke-width:1.4; stroke-dasharray: 4.199999999999999 4.199999999999999" />
<line x1="391.798828125" y1="53.974826388888886" x2="397.9739583333333" y2="53.974826388888886" style="stroke:black; stroke-width:1.4; stroke-dasharray: 4.199999999999999 4.199999999999999" />
<text x="394.8863932291667" y="48.964084201388886"></text>
<line x1="397.9739583333333" y1="33.931857638888886" x2="404.14908854166663" y2="33.931857638888886" style="stroke:black; stroke-width:1.4; stroke-dasharray: 4.199999999999999 4.199999999999999" />
<line x1="397.9739583333333" y1="53.974826388888886" x2="404.14908854166663" y2="53.974826388888886" style="stroke:black; stroke-width:1.4; stroke-dasharray: 4.199999999999999 4.199999999999999" />
<text x="401.0615234375" y="48.964084201388886"></text>
<line x1="404.14908854166663" y1="33.931857638888886" x2="410.32421874999994" y2="33.931857638888886" style="stroke:black; stroke-width:1.4; stroke-dasharray: 4.199999999999999 4.199999999999999" />
<line x1="404.14908854166663" y1="53.974826388888886" x2="410.32421874999994" y2="53.974826388888886" style="stroke:black; stroke-width:1.4; stroke-dasharray: 4.199999999999999 4.199999999999999" />
<text x="407.2366536458333" y="48.964084201388886"></text>
<line x1="410.32421874999994" y1="33.931857638888886" x2="416.49934895833326" y2="33.931857638888886" style="stroke:black; stroke-width:1.4; stroke-dasharray: 4.199999999999999 4.199999999999999" />
<line x1="410.32421874999994" y1="53.974826388888886" x2="416.49934895833326" y2="53.974826388888886" style="stroke:black; stroke-width:1.4; stroke-dasharray: 4.199999999999999 4.199999999999999" />
<text x="413.41178385416663" y="48.964084201388886"></text>
<line x1="416.49934895833326" y1="33.931857638888886" x2="422.6744791666666" y2="33.931857638888886" style="stroke:black; stroke-width:1.4; stroke-dasharray: 4.199999999999999 4.199999999999999" />
<line x1="416.49934895833326" y1="53.974826388888886" x2="422.6744791666666" y2="53.974826388888886" style="stroke:black; stroke-width:1.4; stroke-dasharray: 4.199999999999999 4.199999999999999" />
<text x="419.58691406249994" y="48.964084201388886"></text>
<line x1="422.6744791666666" y1="33.931857638888886" x2="428.8496093749999" y2="33.931857638888886" style="stroke:black; stroke-width:1.4; stroke-dasharray: 4.199999999999999 4.199999999999999" />
<line x1="422.6744791666666" y1="53.974826388888886" x2="428.8496093749999" y2="53.974826388888886" style="stroke:black; stroke-width:1.4; stroke-dasharray: 4.199999999999999 4.199999999999999" />
<text x="425.76204427083326" y="48.964084201388886"></text>
<rect x="428.8496093749999" y="33.931857638888886" width="6.175130208333333" height="20.04296875" style="stroke:black;  stroke-width:0; fill:lightgray;" />
<line x1="428.8496093749999" y1="33.931857638888886" x2="435.0247395833332" y2="33.931857638888886" style="stroke:black; stroke-width:1.4; stroke-dasharray: 4.199999999999999 4.199999999999999" />
<line x1="428.8496093749999" y1="53.974826388888886" x2="435.0247395833332" y2="53.974826388888886" style="stroke:black; stroke-width:1.4; stroke-dasharray: 4.199999999999999 4.199999999999999" />
<line x1="435.0247395833332" y1="33.931857638888886" x2="441.1998697916665" y2="33.931857638888886" style="stroke:black; stroke-width:1.4; stroke-dasharray: 4.199999999999999 4.199999999999999" />
<line x1="435.0247395833332" y1="53.974826388888886" x2="441.1998697916665" y2="53.974826388888886" style="stroke:black; stroke-width:1.4; stroke-dasharray: 4.199999999999999 4.199999999999999" />
<text x="438.1123046874999" y="48.964084201388886"></text>
<line x1="441.1998697916665" y1="33.931857638888886" x2="447.37499999999983" y2="33.931857638888886" style="stroke:black; stroke-width:1.4; stroke-dasharray: 4.199999999999999 4.199999999999999" />
<line x1="441.1998697916665" y1="53.974826388888886" x2="447.37499999999983" y2="53.974826388888886" style="stroke:black; stroke-width:1.4; stroke-dasharray: 4.199999999999999 4.199999999999999" />
<text x="444.2874348958332" y="48.964084201388886"></text>
<line x1="447.37499999999983" y1="33.931857638888886" x2="453.55013020833314" y2="33.931857638888886" style="stroke:black; stroke-width:1.4; stroke-dasharray: 4.199999999999999 4.199999999999999" />
<line x1="447.37499999999983" y1="53.974826388888886" x2="453.55013020833314" y2="53.974826388888886" style="stroke:black; stroke-width:1.4; stroke-dasharray: 4.199999999999999 4.199999999999999" />
<text x="450.4625651041665" y="48.964084201388886"></text>
<line x1="453.55013020833314" y1="33.931857638888886" x2="459.72526041666646" y2="33.931857638888886" style="stroke:black; stroke-width:1.4; stroke-dasharray: 4.199999999999999 4.199999999999999" />
<line x1="453.55013020833314" y1="53.974826388888886" x2="459.72526041666646" y2="53.974826388888886" style="stroke:black; stroke-width:1.4; stroke-dasharray: 4.199999999999999 4.199999999999999" />
<text x="456.63769531249983" y="48.964084201388886"></text>
<line x1="459.72526041666646" y1="33.931857638888886" x2="465.9003906249998" y2="33.931857638888886" style="stroke:black; stroke-width:1.4; stroke-dasharray: 4.199999999999999 4.199999999999999" />
<line x1="459.72526041666646" y1="53.974826388888886" x2="465.9003906249998" y2="53.974826388888886" style="stroke:black; stroke-width:1.4; stroke-dasharray: 4.199999999999999 4.199999999999999" />
<text x="462.81282552083314" y="48.964084201388886"></text>
<line x1="465.9003906249998" y1="33.931857638888886" x2="472.0755208333331" y2="33.931857638888886" style="stroke:black; stroke-width:1.4; stroke-dasharray: 4.199999999999999 4.199999999999999" />
<line x1="465.9003906249998" y1="53.974826388888886" x2="472.0755208333331" y2="53.974826388888886" style="stroke:black; stroke-width:1.4; stroke-dasharray: 4.199999999999999 4.199999999999999" />
<text x="468.98795572916646" y="48.964084201388886"></text>
<rect x="472.0755208333331" y="33.931857638888886" width="6.175130208333333" height="20.04296875" style="stroke:black;  stroke-width:0; fill:lightgray;" />
<line x1="472.0755208333331" y1="33.931857638888886" x2="478.2506510416664" y2="33.931857638888886" style="stroke:black; stroke-width:1.4; stroke-dasharray: 4.199999999999999 4.199999999999999" />
<line x1="472.0755208333331" y1="53.974826388888886" x2="478.2506510416664" y2="53.974826388888886" style="stroke:black; stroke-width:1.4; stroke-dasharray: 4.199999999999999 4.199999999999999" />
<line x1="478.2506510416664" y1="33.931857638888886" x2="484.4257812499997" y2="33.931857638888886" style="stroke:black; stroke-width:1.4; stroke-dasharray: 4.199999999999999 4.199999999999999" />
<line x1="478.2506510416664" y1="53.974826388888886" x2="484.4257812499997" y2="53.974826388888886" style="stroke:black; stroke-width:1.4; stroke-dasharray: 4.199999999999999 4.199999999999999" />
<text x="481.3382161458331" y="48.964084201388886"></text>
<line x1="484.4257812499997" y1="33.931857638888886" x2="490.60091145833303" y2="33.931857638888886" style="stroke:black; stroke-width:1.4; stroke-dasharray: 4.199999999999999 4.199999999999999" />
<line x1="484.4257812499997" y1="53.974826388888886" x2="490.60091145833303" y2="53.974826388888886" style="stroke:black; stroke-width:1.4; stroke-dasharray: 4.199999999999999 4.199999999999999" />
<text x="487.5133463541664" y="48.964084201388886"></text>
<rect x="490.60091145833303" y="33.931857638888886" width="18.525390625" height="20.04296875" style="stroke:black;  stroke-width:1.4; fill:none;" />
<text x="492.56282552083303" y="48.964084201388886">25</text>
<rect x="509.12630208333303" y="33.931857638888886" width="18.525390625" height="20.04296875" style="stroke:black;  stroke-width:1.4; fill:none;" />
<text x="511.12923177083303" y="48.964084201388886">26</text>
<line x1="527.651692708333" y1="33.931857638888886" x2="533.8268229166664" y2="33.931857638888886" style="stroke:black; stroke-width:1.4; stroke-dasharray: 4.199999999999999 4.199999999999999" />
<line x1="527.651692708333" y1="53.974826388888886" x2="533.8268229166664" y2="53.974826388888886" style="stroke:black; stroke-width:1.4; stroke-dasharray: 4.199999999999999 4.199999999999999" />
<rect x="533.8268229166664" y="33.931857638888886" width="18.525390625" height="20.04296875" style="stroke:black;  stroke-width:1.4; fill:none;" />
<text x="535.8160807291664" y="48.964084201388886">28</text>
<rect x="552.3522135416664" y="33.931857638888886" width="18.525390625" height="20.04296875" style="stroke:black;  stroke-width:0; fill:lightgray;" />
<rect x="552.3522135416664" y="33.931857638888886" width="18.525390625" height="20.04296875" style="stroke:black;  stroke-width:1.4; fill:none;" />
<text x="554.3414713541664" y="48.964084201388886">29</text>
<line x1="570.8776041666664" y1="33.931857638888886" x2="577.0527343749998" y2="33.931857638888886" style="stroke:black; stroke-width:1.4; stroke-dasharray: 4.199999999999999 4.199999999999999" />
<line x1="570.8776041666664" y1="53.974826388888886" x2="577.0527343749998" y2="53.974826388888886" style="stroke:black; stroke-width:1.4; stroke-dasharray: 4.199999999999999 4.199999999999999" />
<text x="573.965169270833" y="48.964084201388886"></text>
<line x1="577.0527343749998" y1="33.931857638888886" x2="583.2278645833331" y2="33.931857638888886" style="stroke:black; stroke-width:1.4; stroke-dasharray: 4.199999999999999 4.199999999999999" />
<line x1="577.0527343749998" y1="53.974826388888886" x2="583.2278645833331" y2="53.974826388888886" style="stroke:black; stroke-width:1.4; stroke-dasharray: 4.199999999999999 4.199999999999999" />
<text x="580.1402994791664" y="48.964084201388886"></text>
<rect x="583.2278645833331" y="33.931857638888886" width="18.525390625" height="20.04296875" style="stroke:black;  stroke-width:1.4; fill:none;" />
<text x="585.3675130208331" y="48.964084201388886">32</text>
<line x1="601.7532552083334" y1="43.953342013888886" x2="620.2786458333334" y2="43.953342013888886" style="stroke:black; stroke-width:1.4; " />
<rect x="620.2786458333334" y="33.931857638888886" width="18.525390625" height="20.04296875" style="stroke:black;  stroke-width:1.4; fill:none;" />
<text x="622.3567708333334" y="48.964084201388886">39</text>
<text x="5" y="84.67335069444444">hospitalization</text>
<rect x="243.595703125" y="75.54327256944444" width="80.27669270833331" height="8.0171875" style="stroke:black;  stroke-width:1.4; fill:none;" />
<rect x="490.60091145833303" y="75.54327256944444" width="80.27669270833337" height="8.0171875" style="stroke:black;  stroke-width:1.4; fill:none;" />
<text x="5" y="112.49409722222222">tepotinib</text>
<path d="M271.023015625, 107.37261284722223 L271.023015625, 101.35972222222223 L271.7445625, 101.35972222222223 L271.7445625, 107.37261284722223 L273.638623046875, 107.37261284722223 L271.3837890625, 113.38550347222223 L269.128955078125, 107.37261284722223 L271.023015625, 107.37261284722223 Z" style="stroke: black; fill: black; stroke-width:1.4; " /><path d="M518.028223958333, 107.37261284722223 L518.028223958333, 101.35972222222223 L518.7497708333331, 101.35972222222223 L518.7497708333331, 107.37261284722223 L520.643831380208, 107.37261284722223 L518.388997395833, 113.38550347222223 L516.1341634114581, 107.37261284722223 L518.028223958333, 107.37261284722223 Z" style="stroke: black; fill: black; stroke-width:1.4; " /><text x="5" y="140.31484375">carbamazepine BID</text>
<path d="M382.175359375, 135.193359375 L382.175359375, 129.18046875 L382.89690625, 129.18046875 L382.89690625, 135.193359375 L384.790966796875, 135.193359375 L382.5361328125, 141.20625 L380.281298828125, 135.193359375 L382.175359375, 135.193359375 Z" style="stroke: black; fill: black; stroke-width:1.4; " /><path d="M394.5256197916667, 135.193359375 L394.5256197916667, 129.18046875 L395.24716666666666, 129.18046875 L395.24716666666666, 135.193359375 L397.1412272135417, 135.193359375 L394.8863932291667, 141.20625 L392.6315592447917, 135.193359375 L394.5256197916667, 135.193359375 Z" style="stroke: black; fill: black; stroke-width:1.4; " /><path d="M400.70075, 135.193359375 L400.70075, 129.18046875 L401.422296875, 129.18046875 L401.422296875, 135.193359375 L403.316357421875, 135.193359375 L401.0615234375, 141.20625 L398.806689453125, 135.193359375 L400.70075, 135.193359375 Z" style="stroke: black; fill: black; stroke-width:1.4; " /><path d="M406.87588020833334, 135.193359375 L406.87588020833334, 129.18046875 L407.5974270833333, 129.18046875 L407.5974270833333, 135.193359375 L409.4914876302083, 135.193359375 L407.2366536458333, 141.20625 L404.9818196614583, 135.193359375 L406.87588020833334, 135.193359375 Z" style="stroke: black; fill: black; stroke-width:1.4; " /><path d="M413.05101041666666, 135.193359375 L413.05101041666666, 129.18046875 L413.7725572916666, 129.18046875 L413.7725572916666, 135.193359375 L415.66661783854164, 135.193359375 L413.41178385416663, 141.20625 L411.1569498697916, 135.193359375 L413.05101041666666, 135.193359375 Z" style="stroke: black; fill: black; stroke-width:1.4; " /><path d="M419.22614062499997, 135.193359375 L419.22614062499997, 129.18046875 L419.9476874999999, 129.18046875 L419.9476874999999, 135.193359375 L421.84174804687495, 135.193359375 L419.58691406249994, 141.20625 L417.33208007812493, 135.193359375 L419.22614062499997, 135.193359375 Z" style="stroke: black; fill: black; stroke-width:1.4; " /><path d="M425.4012708333333, 135.193359375 L425.4012708333333, 129.18046875 L426.12281770833323, 129.18046875 L426.12281770833323, 135.193359375 L428.01687825520827, 135.193359375 L425.76204427083326, 141.20625 L423.50721028645825, 135.193359375 L425.4012708333333, 135.193359375 Z" style="stroke: black; fill: black; stroke-width:1.4; " /><path d="M431.5764010416666, 135.193359375 L431.5764010416666, 129.18046875 L432.29794791666654, 129.18046875 L432.29794791666654, 135.193359375 L434.1920084635416, 135.193359375 L431.9371744791666, 141.20625 L429.68234049479156, 135.193359375 L431.5764010416666, 135.193359375 Z" style="stroke: black; fill: black; stroke-width:1.4; " /><path d="M437.7515312499999, 135.193359375 L437.7515312499999, 129.18046875 L438.47307812499986, 129.18046875 L438.47307812499986, 135.193359375 L440.3671386718749, 135.193359375 L438.1123046874999, 141.20625 L435.8574707031249, 135.193359375 L437.7515312499999, 135.193359375 Z" style="stroke: black; fill: black; stroke-width:1.4; " /><path d="M443.92666145833323, 135.193359375 L443.92666145833323, 129.18046875 L444.6482083333332, 129.18046875 L444.6482083333332, 135.193359375 L446.5422688802082, 135.193359375 L444.2874348958332, 141.20625 L442.0326009114582, 135.193359375 L443.92666145833323, 135.193359375 Z" style="stroke: black; fill: black; stroke-width:1.4; " /><path d="M450.10179166666654, 135.193359375 L450.10179166666654, 129.18046875 L450.8233385416665, 129.18046875 L450.8233385416665, 135.193359375 L452.7173990885415, 135.193359375 L450.4625651041665, 141.20625 L448.2077311197915, 135.193359375 L450.10179166666654, 135.193359375 Z" style="stroke: black; fill: black; stroke-width:1.4; " /><path d="M456.27692187499986, 135.193359375 L456.27692187499986, 129.18046875 L456.9984687499998, 129.18046875 L456.9984687499998, 135.193359375 L458.89252929687484, 135.193359375 L456.63769531249983, 141.20625 L454.3828613281248, 135.193359375 L456.27692187499986, 135.193359375 Z" style="stroke: black; fill: black; stroke-width:1.4; " /><path d="M462.4520520833332, 135.193359375 L462.4520520833332, 129.18046875 L463.1735989583331, 129.18046875 L463.1735989583331, 135.193359375 L465.06765950520816, 135.193359375 L462.81282552083314, 141.20625 L460.55799153645813, 135.193359375 L462.4520520833332, 135.193359375 Z" style="stroke: black; fill: black; stroke-width:1.4; " /><path d="M468.6271822916665, 135.193359375 L468.6271822916665, 129.18046875 L469.34872916666643, 129.18046875 L469.34872916666643, 135.193359375 L471.24278971354147, 135.193359375 L468.98795572916646, 141.20625 L466.73312174479145, 135.193359375 L468.6271822916665, 135.193359375 Z" style="stroke: black; fill: black; stroke-width:1.4; " /><path d="M474.8023124999998, 135.193359375 L474.8023124999998, 129.18046875 L475.52385937499974, 129.18046875 L475.52385937499974, 135.193359375 L477.4179199218748, 135.193359375 L475.1630859374998, 141.20625 L472.90825195312476, 135.193359375 L474.8023124999998, 135.193359375 Z" style="stroke: black; fill: black; stroke-width:1.4; " /><path d="M480.9774427083331, 135.193359375 L480.9774427083331, 129.18046875 L481.69898958333306, 129.18046875 L481.69898958333306, 135.193359375 L483.5930501302081, 135.193359375 L481.3382161458331, 141.20625 L479.0833821614581, 135.193359375 L480.9774427083331, 135.193359375 Z" style="stroke: black; fill: black; stroke-width:1.4; " /><path d="M487.15257291666643, 135.193359375 L487.15257291666643, 129.18046875 L487.8741197916664, 129.18046875 L487.8741197916664, 135.193359375 L489.7681803385414, 135.193359375 L487.5133463541664, 141.20625 L485.2585123697914, 135.193359375 L487.15257291666643, 135.193359375 Z" style="stroke: black; fill: black; stroke-width:1.4; " /><path d="M499.50283333333306, 135.193359375 L499.50283333333306, 129.18046875 L500.224380208333, 129.18046875 L500.224380208333, 135.193359375 L502.11844075520804, 135.193359375 L499.86360677083303, 141.20625 L497.608772786458, 135.193359375 L499.50283333333306, 135.193359375 Z" style="stroke: black; fill: black; stroke-width:1.4; " /><path d="M518.028223958333, 135.193359375 L518.028223958333, 129.18046875 L518.7497708333331, 129.18046875 L518.7497708333331, 135.193359375 L520.643831380208, 135.193359375 L518.388997395833, 141.20625 L516.1341634114581, 135.193359375 L518.028223958333, 135.193359375 Z" style="stroke: black; fill: black; stroke-width:1.4; " /><path d="M530.3784843749996, 135.193359375 L530.3784843749996, 129.18046875 L531.1000312499997, 129.18046875 L531.1000312499997, 135.193359375 L532.9940917968746, 135.193359375 L530.7392578124997, 141.20625 L528.4844238281247, 135.193359375 L530.3784843749996, 135.193359375 Z" style="stroke: black; fill: black; stroke-width:1.4; " /><path d="M542.7287447916664, 135.193359375 L542.7287447916664, 129.18046875 L543.4502916666664, 129.18046875 L543.4502916666664, 135.193359375 L545.3443522135414, 135.193359375 L543.0895182291664, 141.20625 L540.8346842447914, 135.193359375 L542.7287447916664, 135.193359375 Z" style="stroke: black; fill: black; stroke-width:1.4; " /><path d="M561.2541354166664, 135.193359375 L561.2541354166664, 129.18046875 L561.9756822916664, 129.18046875 L561.9756822916664, 135.193359375 L563.8697428385414, 135.193359375 L561.6149088541664, 141.20625 L559.3600748697914, 135.193359375 L561.2541354166664, 135.193359375 Z" style="stroke: black; fill: black; stroke-width:1.4; " /><path d="M573.604395833333, 135.193359375 L573.604395833333, 129.18046875 L574.3259427083331, 129.18046875 L574.3259427083331, 135.193359375 L576.220003255208, 135.193359375 L573.965169270833, 141.20625 L571.7103352864581, 135.193359375 L573.604395833333, 135.193359375 Z" style="stroke: black; fill: black; stroke-width:1.4; " /><path d="M579.7795260416664, 135.193359375 L579.7795260416664, 129.18046875 L580.5010729166664, 129.18046875 L580.5010729166664, 135.193359375 L582.3951334635414, 135.193359375 L580.1402994791664, 141.20625 L577.8854654947914, 135.193359375 L579.7795260416664, 135.193359375 Z" style="stroke: black; fill: black; stroke-width:1.4; " /><path d="M592.1297864583331, 135.193359375 L592.1297864583331, 129.18046875 L592.8513333333332, 129.18046875 L592.8513333333332, 135.193359375 L594.7453938802081, 135.193359375 L592.4905598958331, 141.20625 L590.2357259114582, 135.193359375 L592.1297864583331, 135.193359375 Z" style="stroke: black; fill: black; stroke-width:1.4; " /><text x="5" y="168.20121527777778">PK sampling carbamazepine</text>
<path d="M496.356087239583, 163.01410590277777 L499.86360677083303, 155.99906684027778 L503.37112630208304, 163.01410590277777 L499.86360677083303, 170.02914496527777 L496.356087239583, 163.01410590277777 Z" style="stroke: black; fill: none; stroke-width:1.4; " /><path d="M514.8814778645831, 163.01410590277777 L518.388997395833, 155.99906684027778 L521.896516927083, 163.01410590277777 L518.388997395833, 170.02914496527777 L514.8814778645831, 163.01410590277777 Z" style="stroke: black; fill: none; stroke-width:1.4; " /><text x="5" y="196.02196180555555">PK sampling tepotinib</text>
<path d="M264.89990234375, 194.59290907118054 L264.89990234375, 187.07679578993054 L277.86767578125, 187.07679578993054 L277.86767578125, 194.59290907118054 L264.89990234375, 194.59290907118054 Z" style="stroke: black; fill: none; stroke-width:1.4; " /><path d="M281.57275390625, 194.59290907118054 L281.57275390625, 187.07679578993054 L285.89534505208337, 187.07679578993054 L285.89534505208337, 194.59290907118054 L281.57275390625, 194.59290907118054 Z" style="stroke: black; fill: none; stroke-width:1.4; " /><path d="M289.6004231770833, 194.59290907118054 L289.6004231770833, 187.07679578993054 L302.5681966145833, 187.07679578993054 L302.5681966145833, 194.59290907118054 L289.6004231770833, 194.59290907118054 Z" style="stroke: black; fill: none; stroke-width:1.4; " /><path d="M311.1021809895833, 190.83485243055554 L314.6097005208333, 183.81981336805555 L318.1172200520833, 190.83485243055554 L314.6097005208333, 197.84989149305554 L311.1021809895833, 190.83485243055554 Z" style="stroke: black; fill: none; stroke-width:1.4; " /><path d="M323.45244140625, 190.83485243055554 L326.9599609375, 183.81981336805555 L330.46748046875, 190.83485243055554 L326.9599609375, 197.84989149305554 L323.45244140625, 190.83485243055554 Z" style="stroke: black; fill: none; stroke-width:1.4; " /><path d="M329.6275716145833, 190.83485243055554 L333.1350911458333, 183.81981336805555 L336.6426106770833, 190.83485243055554 L333.1350911458333, 197.84989149305554 L329.6275716145833, 190.83485243055554 Z" style="stroke: black; fill: none; stroke-width:1.4; " /><path d="M341.97783203124993, 190.83485243055554 L345.48535156249994, 183.81981336805555 L348.99287109374995, 190.83485243055554 L345.48535156249994, 197.84989149305554 L341.97783203124993, 190.83485243055554 Z" style="stroke: black; fill: none; stroke-width:1.4; " /><path d="M511.90511067708303, 194.59290907118054 L511.90511067708303, 187.07679578993054 L524.872884114583, 187.07679578993054 L524.872884114583, 194.59290907118054 L511.90511067708303, 194.59290907118054 Z" style="stroke: black; fill: none; stroke-width:1.4; " /><path d="M528.577962239583, 194.59290907118054 L528.577962239583, 187.07679578993054 L532.9005533854163, 187.07679578993054 L532.9005533854163, 194.59290907118054 L528.577962239583, 194.59290907118054 Z" style="stroke: black; fill: none; stroke-width:1.4; " /><path d="M536.6056315104164, 194.59290907118054 L536.6056315104164, 187.07679578993054 L549.5734049479164, 187.07679578993054 L549.5734049479164, 194.59290907118054 L536.6056315104164, 194.59290907118054 Z" style="stroke: black; fill: none; stroke-width:1.4; " /><path d="M558.1073893229164, 190.83485243055554 L561.6149088541664, 183.81981336805555 L565.1224283854164, 190.83485243055554 L561.6149088541664, 197.84989149305554 L558.1073893229164, 190.83485243055554 Z" style="stroke: black; fill: none; stroke-width:1.4; " /><path d="M570.4576497395831, 190.83485243055554 L573.965169270833, 183.81981336805555 L577.472688802083, 190.83485243055554 L573.965169270833, 197.84989149305554 L570.4576497395831, 190.83485243055554 Z" style="stroke: black; fill: none; stroke-width:1.4; " /><path d="M576.6327799479164, 190.83485243055554 L580.1402994791664, 183.81981336805555 L583.6478190104164, 190.83485243055554 L580.1402994791664, 197.84989149305554 L576.6327799479164, 190.83485243055554 Z" style="stroke: black; fill: none; stroke-width:1.4; " /><path d="M588.9830403645832, 190.83485243055554 L592.4905598958331, 183.81981336805555 L595.9980794270831, 190.83485243055554 L592.4905598958331, 197.84989149305554 L588.9830403645832, 190.83485243055554 Z" style="stroke: black; fill: none; stroke-width:1.4; " /></svg>