<svg width="581.0836588541667" height="321.4954730902777" xmlns="http://www.w3.org/2000/svg">
<style>text {font-family: Arial; font-size: 14px ;}</style>
<desc>Trial design autogenerated by td.py V2.0 (Dec-2021), author: Rainer Strotmann</desc><title>ms201618-0003 early</title><text x="166.44873046875" y="25.0322265625">S</text>
<text x="309.40413411458337" y="25.0322265625">Treatment phase</text>
<text x="543.1578776041667" y="25.0322265625">F/U</text>
<rect x="161.1748046875" y="33.931857638888886" width="18.525390625" height="20.04296875" style="stroke:black;  stroke-width:1.4; fill:none;" />
<text x="170.4375" y="48.964084201388886"></text>
<line x1="179.7001953125" y1="43.953342013888886" x2="198.2255859375" y2="43.953342013888886" style="stroke:black; stroke-width:1.4; " />
<rect x="198.2255859375" y="33.931857638888886" width="18.525390625" height="20.04296875" style="stroke:black;  stroke-width:1.4; fill:none;" />
<text x="202.771484375" y="48.964084201388886">-1</text>
<rect x="216.7509765625" y="33.931857638888886" width="18.525390625" height="20.04296875" style="stroke:black;  stroke-width:1.4; fill:none;" />
<text x="222.322265625" y="48.964084201388886">1</text>
<rect x="235.2763671875" y="33.931857638888886" width="18.525390625" height="20.04296875" style="stroke:black;  stroke-width:1.4; fill:none;" />
<text x="241.22021484375" y="48.964084201388886">2</text>
<line x1="253.8017578125" y1="33.931857638888886" x2="259.9768880208333" y2="33.931857638888886" style="stroke:black; stroke-width:1.4; stroke-dasharray: 4.199999999999999 4.199999999999999" />
<line x1="253.8017578125" y1="53.974826388888886" x2="259.9768880208333" y2="53.974826388888886" style="stroke:black; stroke-width:1.4; stroke-dasharray: 4.199999999999999 4.199999999999999" />
<text x="256.8893229166667" y="48.964084201388886"></text>
<line x1="259.9768880208333" y1="33.931857638888886" x2="266.15201822916663" y2="33.931857638888886" style="stroke:black; stroke-width:1.4; stroke-dasharray: 4.199999999999999 4.199999999999999" />
<line x1="259.9768880208333" y1="53.974826388888886" x2="266.15201822916663" y2="53.974826388888886" style="stroke:black; stroke-width:1.4; stroke-dasharray: 4.199999999999999 4.199999999999999" />
<text x="263.064453125" y="48.964084201388886"></text>
<line x1="266.15201822916663" y1="33.931857638888886" x2="272.32714843749994" y2="33.931857638888886" style="stroke:black; stroke-width:1.4; stroke-dasharray: 4.199999999999999 4.199999999999999" />
<line x1="266.15201822916663" y1="53.974826388888886" x2="272.32714843749994" y2="53.974826388888886" style="stroke:black; stroke-width:1.4; stroke-dasharray: 4.199999999999999 4.199999999999999" />
<text x="269.2395833333333" y="48.964084201388886"></text>
<rect x="272.32714843749994" y="33.931857638888886" width="18.525390625" height="20.04296875" style="stroke:black;  stroke-width:1.4; fill:none;" />
<text x="278.28124999999994" y="48.964084201388886">6</text>
<rect x="290.85253906249994" y="33.931857638888886" width="18.525390625" height="20.04296875" style="stroke:black;  stroke-width:1.4; fill:none;" />
<text x="296.87158203124994" y="48.964084201388886">7</text>
<rect x="309.37792968749994" y="33.931857638888886" width="18.525390625" height="20.04296875" style="stroke:black;  stroke-width:0; fill:lightgray;" />
<rect x="309.37792968749994" y="33.931857638888886" width="18.525390625" height="20.04296875" style="stroke:black;  stroke-width:1.4; fill:none;" />
<text x="315.33886718749994" y="48.964084201388886">8</text>
<line x1="327.90332031249994" y1="33.931857638888886" x2="334.07845052083326" y2="33.931857638888886" style="stroke:black; stroke-width:1.4; stroke-dasharray: 4.199999999999999 4.199999999999999" />
<line x1="327.90332031249994" y1="53.974826388888886" x2="334.07845052083326" y2="53.974826388888886" style="stroke:black; stroke-width:1.4; stroke-dasharray: 4.199999999999999 4.199999999999999" />
<text x="330.99088541666663" y="48.964084201388886"></text>
<line x1="334.07845052083326" y1="33.931857638888886" x2="340.2535807291666" y2="33.931857638888886" style="stroke:black; stroke-width:1.4; stroke-dasharray: 4.199999999999999 4.199999999999999" />
<line x1="334.07845052083326" y1="53.974826388888886" x2="340.2535807291666" y2="53.974826388888886" style="stroke:black; stroke-width:1.4; stroke-dasharray: 4.199999999999999 4.199999999999999" />
<text x="337.16601562499994" y="48.964084201388886"></text>
<line x1="340.2535807291666" y1="33.931857638888886" x2="346.4287109374999" y2="33.931857638888886" style="stroke:black; stroke-width:1.4; stroke-dasharray: 4.199999999999999 4.199999999999999" />
<line x1="340.2535807291666" y1="53.974826388888886" x2="346.4287109374999" y2="53.974826388888886" style="stroke:black; stroke-width:1.4; stroke-dasharray: 4.199999999999999 4.199999999999999" />
<text x="343.34114583333326" y="48.964084201388886"></text>
<line x1="346.4287109374999" y1="33.931857638888886" x2="352.6038411458332" y2="33.931857638888886" style="stroke:black; stroke-width:1.4; stroke-dasharray: 4.199999999999999 4.199999999999999" />
<line x1="346.4287109374999" y1="53.974826388888886" x2="352.6038411458332" y2="53.974826388888886" style="stroke:black; stroke-width:1.4; stroke-dasharray: 4.199999999999999 4.199999999999999" />
<text x="349.5162760416666" y="48.964084201388886"></text>
<line x1="352.6038411458332" y1="33.931857638888886" x2="358.7789713541665" y2="33.931857638888886" style="stroke:black; stroke-width:1.4; stroke-dasharray: 4.199999999999999 4.199999999999999" />
<line x1="352.6038411458332" y1="53.974826388888886" x2="358.7789713541665" y2="53.974826388888886" style="stroke:black; stroke-width:1.4; stroke-dasharray: 4.199999999999999 4.199999999999999" />
<text x="355.6914062499999" y="48.964084201388886"></text>
<line x1="358.7789713541665" y1="33.931857638888886" x2="364.95410156249983" y2="33.931857638888886" style="stroke:black; stroke-width:1.4; stroke-dasharray: 4.199999999999999 4.199999999999999" />
<line x1="358.7789713541665" y1="53.974826388888886" x2="364.95410156249983" y2="53.974826388888886" style="stroke:black; stroke-width:1.4; stroke-dasharray: 4.199999999999999 4.199999999999999" />
<text x="361.8665364583332" y="48.964084201388886"></text>
<rect x="364.95410156249983" y="33.931857638888886" width="18.525390625" height="20.04296875" style="stroke:black;  stroke-width:0; fill:lightgray;" />
<rect x="364.95410156249983" y="33.931857638888886" width="18.525390625" height="20.04296875" style="stroke:black;  stroke-width:1.4; fill:none;" />
<text x="365.62744140624983" y="48.964084201388886">15</text>
<line x1="383.47949218749983" y1="33.931857638888886" x2="389.65462239583314" y2="33.931857638888886" style="stroke:black; stroke-width:1.4; stroke-dasharray: 4.199999999999999 4.199999999999999" />
<line x1="383.47949218749983" y1="53.974826388888886" x2="389.65462239583314" y2="53.974826388888886" style="stroke:black; stroke-width:1.4; stroke-dasharray: 4.199999999999999 4.199999999999999" />
<text x="386.5670572916665" y="48.964084201388886"></text>
<line x1="389.65462239583314" y1="33.931857638888886" x2="395.82975260416646" y2="33.931857638888886" style="stroke:black; stroke-width:1.4; stroke-dasharray: 4.199999999999999 4.199999999999999" />
<line x1="389.65462239583314" y1="53.974826388888886" x2="395.82975260416646" y2="53.974826388888886" style="stroke:black; stroke-width:1.4; stroke-dasharray: 4.199999999999999 4.199999999999999" />
<text x="392.74218749999983" y="48.964084201388886"></text>
<line x1="395.82975260416646" y1="33.931857638888886" x2="402.0048828124998" y2="33.931857638888886" style="stroke:black; stroke-width:1.4; stroke-dasharray: 4.199999999999999 4.199999999999999" />
<line x1="395.82975260416646" y1="53.974826388888886" x2="402.0048828124998" y2="53.974826388888886" style="stroke:black; stroke-width:1.4; stroke-dasharray: 4.199999999999999 4.199999999999999" />
<text x="398.91731770833314" y="48.964084201388886"></text>
<line x1="402.0048828124998" y1="33.931857638888886" x2="408.1800130208331" y2="33.931857638888886" style="stroke:black; stroke-width:1.4; stroke-dasharray: 4.199999999999999 4.199999999999999" />
<line x1="402.0048828124998" y1="53.974826388888886" x2="408.1800130208331" y2="53.974826388888886" style="stroke:black; stroke-width:1.4; stroke-dasharray: 4.199999999999999 4.199999999999999" />
<text x="405.09244791666646" y="48.964084201388886"></text>
<rect x="408.1800130208331" y="33.931857638888886" width="18.525390625" height="20.04296875" style="stroke:black;  stroke-width:1.4; fill:none;" />
<text x="410.1966145833331" y="48.964084201388886">20</text>
<line x1="426.7054036458331" y1="33.931857638888886" x2="432.8805338541664" y2="33.931857638888886" style="stroke:black; stroke-width:1.4; stroke-dasharray: 4.199999999999999 4.199999999999999" />
<line x1="426.7054036458331" y1="53.974826388888886" x2="432.8805338541664" y2="53.974826388888886" style="stroke:black; stroke-width:1.4; stroke-dasharray: 4.199999999999999 4.199999999999999" />
<text x="429.7929687499998" y="48.964084201388886"></text>
<rect x="432.8805338541664" y="33.931857638888886" width="18.525390625" height="20.04296875" style="stroke:black;  stroke-width:0; fill:lightgray;" />
<rect x="432.8805338541664" y="33.931857638888886" width="18.525390625" height="20.04296875" style="stroke:black;  stroke-width:1.4; fill:none;" />
<text x="434.9313151041664" y="48.964084201388886">22</text>
<line x1="451.4059244791664" y1="33.931857638888886" x2="457.5810546874997" y2="33.931857638888886" style="stroke:black; stroke-width:1.4; stroke-dasharray: 4.199999999999999 4.199999999999999" />
<line x1="451.4059244791664" y1="53.974826388888886" x2="457.5810546874997" y2="53.974826388888886" style="stroke:black; stroke-width:1.4; stroke-dasharray: 4.199999999999999 4.199999999999999" />
<text x="454.4934895833331" y="48.964084201388886"></text>
<rect x="457.5810546874997" y="33.931857638888886" width="18.525390625" height="20.04296875" style="stroke:black;  stroke-width:1.4; fill:none;" />
<text x="459.6010742187497" y="48.964084201388886">24</text>
<line x1="476.1064453124997" y1="33.931857638888886" x2="482.28157552083303" y2="33.931857638888886" style="stroke:black; stroke-width:1.4; stroke-dasharray: 4.199999999999999 4.199999999999999" />
<line x1="476.1064453124997" y1="53.974826388888886" x2="482.28157552083303" y2="53.974826388888886" style="stroke:black; stroke-width:1.4; stroke-dasharray: 4.199999999999999 4.199999999999999" />
<text x="479.1940104166664" y="48.964084201388886"></text>
<rect x="482.28157552083303" y="33.931857638888886" width="18.525390625" height="20.04296875" style="stroke:black;  stroke-width:1.4; fill:none;" />
<text x="484.28450520833303" y="48.964084201388886">26</text>
<line x1="500.80696614583303" y1="33.931857638888886" x2="506.98209635416634" y2="33.931857638888886" style="stroke:black; stroke-width:1.4; stroke-dasharray: 4.199999999999999 4.199999999999999" />
<line x1="500.80696614583303" y1="53.974826388888886" x2="506.98209635416634" y2="53.974826388888886" style="stroke:black; stroke-width:1.4; stroke-dasharray: 4.199999999999999 4.199999999999999" />
<text x="503.8945312499997" y="48.964084201388886"></text>
<rect x="506.98209635416634" y="33.931857638888886" width="18.525390625" height="20.04296875" style="stroke:black;  stroke-width:1.4; fill:none;" />
<text x="508.9713541666663" y="48.964084201388886">28</text>
<line x1="525.5074869791667" y1="43.953342013888886" x2="544.0328776041667" y2="43.953342013888886" style="stroke:black; stroke-width:1.4; " />
<rect x="544.0328776041667" y="33.931857638888886" width="18.525390625" height="20.04296875" style="stroke:black;  stroke-width:1.4; fill:none;" />
<text x="546.1212565104167" y="48.964084201388886">33</text>
<text x="5" y="84.67335069444444">hospitalization</text>
<rect x="198.2255859375" y="75.54327256944444" width="55.576171875" height="8.0171875" style="stroke:black;  stroke-width:1.4; fill:none;" />
<text x="5" y="111.51792534722223">DVI PfSPZ</text>
<path d="M225.6528984375, 107.37261284722223 L225.6528984375, 101.35972222222223 L226.3744453125, 101.35972222222223 L226.3744453125, 107.37261284722223 L228.268505859375, 107.37261284722223 L226.013671875, 113.38550347222223 L223.758837890625, 107.37261284722223 L225.6528984375, 107.37261284722223 Z" style="stroke: black; fill: black; stroke-width:1.4; " /><text x="5" y="139.28671875">M5717</text>
<path d="M225.6528984375, 135.193359375 L225.6528984375, 129.18046875 L226.3744453125, 129.18046875 L226.3744453125, 135.193359375 L228.268505859375, 135.193359375 L226.013671875, 141.20625 L223.758837890625, 135.193359375 L225.6528984375, 135.193359375 Z" style="stroke: black; fill: black; stroke-width:1.4; " /><text x="5" y="167.08832465277777">rescue medication</text>
<path d="M515.8840182291663, 163.01410590277777 L515.8840182291663, 157.00121527777776 L516.6055651041663, 157.00121527777776 L516.6055651041663, 163.01410590277777 L518.4996256510412, 163.01410590277777 L516.2447916666663, 169.02699652777778 L513.9899576822913, 163.01410590277777 L515.8840182291663, 163.01410590277777 Z" style="stroke: black; fill: black; stroke-width:1.4; " /><text x="5" y="196.09032118055555">parasitemia by qPCR</text>
<path d="M278.08232421874993, 190.83485243055554 L281.58984374999994, 183.81981336805555 L285.09736328124995, 190.83485243055554 L281.58984374999994, 197.84989149305554 L278.08232421874993, 190.83485243055554 Z" style="stroke: black; fill: none; stroke-width:1.4; " /><path d="M296.60771484374993, 190.83485243055554 L300.11523437499994, 183.81981336805555 L303.62275390624995, 190.83485243055554 L300.11523437499994, 197.84989149305554 L296.60771484374993, 190.83485243055554 Z" style="stroke: black; fill: none; stroke-width:1.4; " /><path d="M315.13310546874993, 190.83485243055554 L318.64062499999994, 183.81981336805555 L322.14814453124995, 190.83485243055554 L318.64062499999994, 197.84989149305554 L315.13310546874993, 190.83485243055554 Z" style="stroke: black; fill: none; stroke-width:1.4; " /><circle cx="330.99088541666663" cy="190.83485243055554" r="0.6680989583333333" style="stroke:black;  stroke-width:1.2; fill:black;"/>
<circle cx="337.16601562499994" cy="190.83485243055554" r="0.6680989583333333" style="stroke:black;  stroke-width:1.2; fill:black;"/>
<circle cx="343.34114583333326" cy="190.83485243055554" r="0.6680989583333333" style="stroke:black;  stroke-width:1.2; fill:black;"/>
<circle cx="349.5162760416666" cy="190.83485243055554" r="0.6680989583333333" style="stroke:black;  stroke-width:1.2; fill:black;"/>
<circle cx="355.6914062499999" cy="190.83485243055554" r="0.6680989583333333" style="stroke:black;  stroke-width:1.2; fill:black;"/>
<circle cx="361.8665364583332" cy="190.83485243055554" r="0.6680989583333333" style="stroke:black;  stroke-width:1.2; fill:black;"/>
<path d="M370.7092773437498, 190.83485243055554 L374.21679687499983, 183.81981336805555 L377.72431640624984, 190.83485243055554 L374.21679687499983, 197.84989149305554 L370.7092773437498, 190.83485243055554 Z" style="stroke: black; fill: none; stroke-width:1.4; " /><circle cx="386.5670572916665" cy="190.83485243055554" r="0.6680989583333333" style="stroke:black;  stroke-width:1.2; fill:black;"/>
<circle cx="392.74218749999983" cy="190.83485243055554" r="0.6680989583333333" style="stroke:black;  stroke-width:1.2; fill:black;"/>
<circle cx="398.91731770833314" cy="190.83485243055554" r="0.6680989583333333" style="stroke:black;  stroke-width:1.2; fill:black;"/>
<circle cx="405.09244791666646" cy="190.83485243055554" r="0.6680989583333333" style="stroke:black;  stroke-width:1.2; fill:black;"/>
<path d="M413.9351888020831, 190.83485243055554 L417.4427083333331, 183.81981336805555 L420.9502278645831, 190.83485243055554 L417.4427083333331, 197.84989149305554 L413.9351888020831, 190.83485243055554 Z" style="stroke: black; fill: none; stroke-width:1.4; " /><path d="M438.6357096354164, 190.83485243055554 L442.1432291666664, 183.81981336805555 L445.6507486979164, 190.83485243055554 L442.1432291666664, 197.84989149305554 L438.6357096354164, 190.83485243055554 Z" style="stroke: black; fill: none; stroke-width:1.4; " /><path d="M463.3362304687497, 190.83485243055554 L466.8437499999997, 183.81981336805555 L470.3512695312497, 190.83485243055554 L466.8437499999997, 197.84989149305554 L463.3362304687497, 190.83485243055554 Z" style="stroke: black; fill: none; stroke-width:1.4; " /><path d="M488.036751302083, 190.83485243055554 L491.54427083333303, 183.81981336805555 L495.05179036458304, 190.83485243055554 L491.54427083333303, 197.84989149305554 L488.036751302083, 190.83485243055554 Z" style="stroke: black; fill: none; stroke-width:1.4; " /><path d="M512.7372721354163, 190.83485243055554 L516.2447916666663, 183.81981336805555 L519.7523111979162, 190.83485243055554 L516.2447916666663, 197.84989149305554 L512.7372721354163, 190.83485243055554 Z" style="stroke: black; fill: none; stroke-width:1.4; " /><path d="M549.7880533854168, 190.83485243055554 L553.2955729166667, 183.81981336805555 L556.8030924479167, 190.83485243055554 L553.2955729166667, 197.84989149305554 L549.7880533854168, 190.83485243055554 Z" style="stroke: black; fill: none; stroke-width:1.4; " /><text x="5" y="223.84270833333332">PK sampling</text>
<path d="M219.52978515625, 222.41365559895831 L219.52978515625, 214.89754231770831 L232.49755859375, 214.89754231770831 L232.49755859375, 222.41365559895831 L219.52978515625, 222.41365559895831 Z" style="stroke: black; fill: none; stroke-width:1.4; " /><path d="M241.03154296875, 218.65559895833331 L244.5390625, 211.64055989583332 L248.04658203125, 218.65559895833331 L244.5390625, 225.6706380208333 L241.03154296875, 218.65559895833331 Z" style="stroke: black; fill: none; stroke-width:1.4; " /><path d="M278.08232421874993, 218.65559895833331 L281.58984374999994, 211.64055989583332 L285.09736328124995, 218.65559895833331 L281.58984374999994, 225.6706380208333 L278.08232421874993, 218.65559895833331 Z" style="stroke: black; fill: none; stroke-width:1.4; " /><path d="M296.60771484374993, 218.65559895833331 L300.11523437499994, 211.64055989583332 L303.62275390624995, 218.65559895833331 L300.11523437499994, 225.6706380208333 L296.60771484374993, 218.65559895833331 Z" style="stroke: black; fill: none; stroke-width:1.4; " /><path d="M315.13310546874993, 218.65559895833331 L318.64062499999994, 211.64055989583332 L322.14814453124995, 218.65559895833331 L318.64062499999994, 225.6706380208333 L315.13310546874993, 218.65559895833331 Z" style="stroke: black; fill: none; stroke-width:1.4; " /><path d="M549.7880533854168, 218.65559895833331 L553.2955729166667, 211.64055989583332 L556.8030924479167, 218.65559895833331 L553.2955729166667, 225.6706380208333 L549.7880533854168, 218.65559895833331 Z" style="stroke: black; fill: none; stroke-width:1.4; " /><path d="M216.7509765625, 236.4548611111111 A6.680989583333333, 6.680989583333333, 0, 0 0 223.43196614583334, 243.13585069444443 L265.6461588541667, 243.13585069444443 A6.680989583333333, 6.680989583333333 0, 0 1 272.3271484375, 249.81684027777774 A6.680989583333333, 6.680989583333333, 0, 0 1 279.0081380208333, 243.13585069444443 L321.22233072916663, 243.13585069444443 A6.680989583333333, 6.680989583333333 0, 0 0 327.90332031249994, 236.4548611111111 " style="stroke: black; stroke-width:1.4; fill:none" /><path d="M213.24345703125, 271.5049913194444 L216.7509765625, 264.4899522569444 L220.25849609375, 271.5049913194444 L216.7509765625, 278.5200303819444 L213.24345703125, 271.5049913194444 Z" style="stroke: black; fill: none; stroke-width:1.4; " /><path d="M217.8748046875, 271.5049913194444 L221.38232421875, 264.4899522569444 L224.88984375, 271.5049913194444 L221.38232421875, 278.5200303819444 L217.8748046875, 271.5049913194444 Z" style="stroke: black; fill: none; stroke-width:1.4; " /><path d="M222.50615234375, 271.5049913194444 L226.013671875, 264.4899522569444 L229.52119140625, 271.5049913194444 L226.013671875, 278.5200303819444 L222.50615234375, 271.5049913194444 Z" style="stroke: black; fill: none; stroke-width:1.4; " /><path d="M231.76884765625, 271.5049913194444 L235.2763671875, 264.4899522569444 L238.78388671875, 271.5049913194444 L235.2763671875, 278.5200303819444 L231.76884765625, 271.5049913194444 Z" style="stroke: black; fill: none; stroke-width:1.4; " /><path d="M241.03154296875, 271.5049913194444 L244.5390625, 264.4899522569444 L248.04658203125, 271.5049913194444 L244.5390625, 278.5200303819444 L241.03154296875, 271.5049913194444 Z" style="stroke: black; fill: none; stroke-width:1.4; " /><path d="M268.81962890625, 271.5049913194444 L272.3271484375, 264.4899522569444 L275.83466796875, 271.5049913194444 L272.3271484375, 278.5200303819444 L268.81962890625, 271.5049913194444 Z" style="stroke: black; fill: none; stroke-width:1.4; " /><path d="M324.39580078125, 271.5049913194444 L327.9033203125, 264.4899522569444 L331.41083984375, 271.5049913194444 L327.9033203125, 278.5200303819444 L324.39580078125, 271.5049913194444 Z" style="stroke: black; fill: none; stroke-width:1.4; " /><path d="M352.75810546875, 271.5049913194444 L356.265625, 264.4899522569444 L359.77314453125, 271.5049913194444 L356.265625, 278.5200303819444 L352.75810546875, 271.5049913194444 Z" style="stroke: black; fill: none; stroke-width:1.4; " /><path d="M395.6012044270833, 271.5049913194444 L399.1087239583333, 264.4899522569444 L402.6162434895833, 271.5049913194444 L399.1087239583333, 278.5200303819444 L395.6012044270833, 271.5049913194444 Z" style="stroke: black; fill: none; stroke-width:1.4; " /><path d="M406.3119791666667, 271.5049913194444 L409.8194986979167, 264.4899522569444 L413.3270182291667, 271.5049913194444 L409.8194986979167, 278.5200303819444 L406.3119791666667, 271.5049913194444 Z" style="stroke: black; fill: none; stroke-width:1.4; " /><path d="M417.02275390625, 271.5049913194444 L420.5302734375, 264.4899522569444 L424.03779296875, 271.5049913194444 L420.5302734375, 278.5200303819444 L417.02275390625, 271.5049913194444 Z" style="stroke: black; fill: none; stroke-width:1.4; " /><line x1="216.7509765625" y1="289.3042534722222" x2="346.4287109375" y2="289.3042534722222" style="stroke:black; stroke-width:1.4; " />
<line x1="216.7509765625" y1="285.9637586805555" x2="216.7509765625" y2="292.64474826388886" style="stroke:black; stroke-width:1.4; " />
<text x="213.4833984375" y="310.44401041666663">0</text>
<line x1="235.2763671875" y1="285.9637586805555" x2="235.2763671875" y2="292.64474826388886" style="stroke:black; stroke-width:1.4; " />
<text x="231.95751953125" y="310.44401041666663">2</text>
<line x1="253.8017578125" y1="285.9637586805555" x2="253.8017578125" y2="292.64474826388886" style="stroke:black; stroke-width:1.4; " />
<text x="250.3359375" y="310.44401041666663">4</text>
<line x1="272.3271484375" y1="285.9637586805555" x2="272.3271484375" y2="292.64474826388886" style="stroke:black; stroke-width:1.4; " />
<text x="269.0185546875" y="310.44401041666663">6</text>
<line x1="290.8525390625" y1="285.9637586805555" x2="290.8525390625" y2="292.64474826388886" style="stroke:black; stroke-width:1.4; " />
<text x="287.55078125" y="310.44401041666663">8</text>
<line x1="309.3779296875" y1="285.9637586805555" x2="309.3779296875" y2="292.64474826388886" style="stroke:black; stroke-width:1.4; " />
<text x="302.68896484375" y="310.44401041666663">10</text>
<line x1="327.9033203125" y1="285.9637586805555" x2="327.9033203125" y2="292.64474826388886" style="stroke:black; stroke-width:1.4; " />
<text x="321.24853515625" y="310.44401041666663">12</text>
<text x="321.24853515625" y="310.44401041666663">12</text>
<line x1="356.265625" y1="289.3042534722222" x2="420.5302734375" y2="289.3042534722222" style="stroke:black; stroke-width:1.4; " />
<line x1="356.265625" y1="285.9637586805555" x2="356.265625" y2="292.64474826388886" style="stroke:black; stroke-width:1.4; " />
<text x="349.02294921875" y="310.44401041666663">24</text>
<line x1="366.9763997395833" y1="285.9637586805555" x2="366.9763997395833" y2="292.64474826388886" style="stroke:black; stroke-width:1.4; " />
<line x1="377.6871744791667" y1="285.9637586805555" x2="377.6871744791667" y2="292.64474826388886" style="stroke:black; stroke-width:1.4; " />
<text x="370.6017252604167" y="310.44401041666663">72</text>
<line x1="388.39794921875" y1="285.9637586805555" x2="388.39794921875" y2="292.64474826388886" style="stroke:black; stroke-width:1.4; " />
<line x1="399.1087239583333" y1="285.9637586805555" x2="399.1087239583333" y2="292.64474826388886" style="stroke:black; stroke-width:1.4; " />
<line x1="409.8194986979167" y1="285.9637586805555" x2="409.8194986979167" y2="292.64474826388886" style="stroke:black; stroke-width:1.4; " />
<line x1="420.5302734375" y1="285.9637586805555" x2="420.5302734375" y2="292.64474826388886" style="stroke:black; stroke-width:1.4; " />
<text x="409.9208984375" y="310.44401041666663">168 h</text>
</svg>