<svg width="630.4847005208335" height="236.4548611111111" xmlns="http://www.w3.org/2000/svg">
<style>text {font-family: Arial; font-size: 14px ;}</style>
<desc>Trial design autogenerated by td.py V2.0 (Dec-2021), author: Rainer Strotmann</desc><title>ms201618-0003</title><text x="166.44873046875" y="25.0322265625">S</text>
<text x="334.10465494791674" y="25.0322265625">Treatment phase</text>
<text x="592.5589192708335" y="25.0322265625">F/U</text>
<rect x="161.1748046875" y="33.931857638888886" width="18.525390625" height="20.04296875" style="stroke:black;  stroke-width:1.4; fill:none;" />
<text x="170.4375" y="48.964084201388886"></text>
<line x1="179.7001953125" y1="43.953342013888886" x2="198.2255859375" y2="43.953342013888886" style="stroke:black; stroke-width:1.4; " />
<rect x="198.2255859375" y="33.931857638888886" width="18.525390625" height="20.04296875" style="stroke:black;  stroke-width:1.4; fill:none;" />
<text x="202.771484375" y="48.964084201388886">-1</text>
<rect x="216.7509765625" y="33.931857638888886" width="18.525390625" height="20.04296875" style="stroke:black;  stroke-width:0; fill:lightgray;" />
<rect x="216.7509765625" y="33.931857638888886" width="18.525390625" height="20.04296875" style="stroke:black;  stroke-width:1.4; fill:none;" />
<text x="222.322265625" y="48.964084201388886">1</text>
<rect x="235.2763671875" y="33.931857638888886" width="18.525390625" height="20.04296875" style="stroke:black;  stroke-width:1.4; fill:none;" />
<text x="241.22021484375" y="48.964084201388886">2</text>
<line x1="253.8017578125" y1="33.931857638888886" x2="259.9768880208333" y2="33.931857638888886" style="stroke:black; stroke-width:1.4; stroke-dasharray: 4.199999999999999 4.199999999999999" />
<line x1="253.8017578125" y1="53.974826388888886" x2="259.9768880208333" y2="53.974826388888886" style="stroke:black; stroke-width:1.4; stroke-dasharray: 4.199999999999999 4.199999999999999" />
<text x="256.8893229166667" y="48.964084201388886"></text>
<line x1="259.9768880208333" y1="33.931857638888886" x2="266.15201822916663" y2="33.931857638888886" style="stroke:black; stroke-width:1.4; stroke-dasharray: 4.199999999999999 4.199999999999999" />
<line x1="259.9768880208333" y1="53.974826388888886" x2="266.15201822916663" y2="53.974826388888886" style="stroke:black; stroke-width:1.4; stroke-dasharray: 4.199999999999999 4.199999999999999" />
<text x="263.064453125" y="48.964084201388886"></text>
<line x1="266.15201822916663" y1="33.931857638888886" x2="272.32714843749994" y2="33.931857638888886" style="stroke:black; stroke-width:1.4; stroke-dasharray: 4.199999999999999 4.199999999999999" />
<line x1="266.15201822916663" y1="53.974826388888886" x2="272.32714843749994" y2="53.974826388888886" style="stroke:black; stroke-width:1.4; stroke-dasharray: 4.199999999999999 4.199999999999999" />
<text x="269.2395833333333" y="48.964084201388886"></text>
<rect x="272.32714843749994" y="33.931857638888886" width="18.525390625" height="20.04296875" style="stroke:black;  stroke-width:1.4; fill:none;" />
<text x="278.28124999999994" y="48.964084201388886">6</text>
<rect x="290.85253906249994" y="33.931857638888886" width="18.525390625" height="20.04296875" style="stroke:black;  stroke-width:1.4; fill:none;" />
<text x="296.87158203124994" y="48.964084201388886">7</text>
<rect x="309.37792968749994" y="33.931857638888886" width="18.525390625" height="20.04296875" style="stroke:black;  stroke-width:0; fill:lightgray;" />
<rect x="309.37792968749994" y="33.931857638888886" width="18.525390625" height="20.04296875" style="stroke:black;  stroke-width:1.4; fill:none;" />
<text x="315.33886718749994" y="48.964084201388886">8</text>
<line x1="327.90332031249994" y1="33.931857638888886" x2="334.07845052083326" y2="33.931857638888886" style="stroke:black; stroke-width:1.4; stroke-dasharray: 4.199999999999999 4.199999999999999" />
<line x1="327.90332031249994" y1="53.974826388888886" x2="334.07845052083326" y2="53.974826388888886" style="stroke:black; stroke-width:1.4; stroke-dasharray: 4.199999999999999 4.199999999999999" />
<text x="330.99088541666663" y="48.964084201388886"></text>
<line x1="334.07845052083326" y1="33.931857638888886" x2="340.2535807291666" y2="33.931857638888886" style="stroke:black; stroke-width:1.4; stroke-dasharray: 4.199999999999999 4.199999999999999" />
<line x1="334.07845052083326" y1="53.974826388888886" x2="340.2535807291666" y2="53.974826388888886" style="stroke:black; stroke-width:1.4; stroke-dasharray: 4.199999999999999 4.199999999999999" />
<text x="337.16601562499994" y="48.964084201388886"></text>
<line x1="340.2535807291666" y1="33.931857638888886" x2="346.4287109374999" y2="33.931857638888886" style="stroke:black; stroke-width:1.4; stroke-dasharray: 4.199999999999999 4.199999999999999" />
<line x1="340.2535807291666" y1="53.974826388888886" x2="346.4287109374999" y2="53.974826388888886" style="stroke:black; stroke-width:1.4; stroke-dasharray: 4.199999999999999 4.199999999999999" />
<text x="343.34114583333326" y="48.964084201388886"></text>
<line x1="346.4287109374999" y1="33.931857638888886" x2="352.6038411458332" y2="33.931857638888886" style="stroke:black; stroke-width:1.4; stroke-dasharray: 4.199999999999999 4.199999999999999" />
<line x1="346.4287109374999" y1="53.974826388888886" x2="352.6038411458332" y2="53.974826388888886" style="stroke:black; stroke-width:1.4; stroke-dasharray: 4.199999999999999 4.199999999999999" />
<text x="349.5162760416666" y="48.964084201388886"></text>
<line x1="352.6038411458332" y1="33.931857638888886" x2="358.7789713541665" y2="33.931857638888886" style="stroke:black; stroke-width:1.4; stroke-dasharray: 4.199999999999999 4.199999999999999" />
<line x1="352.6038411458332" y1="53.974826388888886" x2="358.7789713541665" y2="53.974826388888886" style="stroke:black; stroke-width:1.4; stroke-dasharray: 4.199999999999999 4.199999999999999" />
<text x="355.6914062499999" y="48.964084201388886"></text>
<line x1="358.7789713541665" y1="33.931857638888886" x2="364.95410156249983" y2="33.931857638888886" style="stroke:black; stroke-width:1.4; stroke-dasharray: 4.199999999999999 4.199999999999999" />
<line x1="358.7789713541665" y1="53.974826388888886" x2="364.95410156249983" y2="53.974826388888886" style="stroke:black; stroke-width:1.4; stroke-dasharray: 4.199999999999999 4.199999999999999" />
<text x="361.8665364583332" y="48.964084201388886"></text>
<rect x="364.95410156249983" y="33.931857638888886" width="18.525390625" height="20.04296875" style="stroke:black;  stroke-width:0; fill:lightgray;" />
<rect x="364.95410156249983" y="33.931857638888886" width="18.525390625" height="20.04296875" style="stroke:black;  stroke-width:1.4; fill:none;" />
<text x="365.62744140624983" y="48.964084201388886">15</text>
<line x1="383.47949218749983" y1="33.931857638888886" x2="389.65462239583314" y2="33.931857638888886" style="stroke:black; stroke-width:1.4; stroke-dasharray: 4.199999999999999 4.199999999999999" />
<line x1="383.47949218749983" y1="53.974826388888886" x2="389.65462239583314" y2="53.974826388888886" style="stroke:black; stroke-width:1.4; stroke-dasharray: 4.199999999999999 4.199999999999999" />
<text x="386.5670572916665" y="48.964084201388886"></text>
<line x1="389.65462239583314" y1="33.931857638888886" x2="395.82975260416646" y2="33.931857638888886" style="stroke:black; stroke-width:1.4; stroke-dasharray: 4.199999999999999 4.199999999999999" />
<line x1="389.65462239583314" y1="53.974826388888886" x2="395.82975260416646" y2="53.974826388888886" style="stroke:black; stroke-width:1.4; stroke-dasharray: 4.199999999999999 4.199999999999999" />
<text x="392.74218749999983" y="48.964084201388886"></text>
<line x1="395.82975260416646" y1="33.931857638888886" x2="402.0048828124998" y2="33.931857638888886" style="stroke:black; stroke-width:1.4; stroke-dasharray: 4.199999999999999 4.199999999999999" />
<line x1="395.82975260416646" y1="53.974826388888886" x2="402.0048828124998" y2="53.974826388888886" style="stroke:black; stroke-width:1.4; stroke-dasharray: 4.199999999999999 4.199999999999999" />
<text x="398.91731770833314" y="48.964084201388886"></text>
<line x1="402.0048828124998" y1="33.931857638888886" x2="408.1800130208331" y2="33.931857638888886" style="stroke:black; stroke-width:1.4; stroke-dasharray: 4.199999999999999 4.199999999999999" />
<line x1="402.0048828124998" y1="53.974826388888886" x2="408.1800130208331" y2="53.974826388888886" style="stroke:black; stroke-width:1.4; stroke-dasharray: 4.199999999999999 4.199999999999999" />
<text x="405.09244791666646" y="48.964084201388886"></text>
<rect x="408.1800130208331" y="33.931857638888886" width="18.525390625" height="20.04296875" style="stroke:black;  stroke-width:1.4; fill:none;" />
<text x="410.1966145833331" y="48.964084201388886">20</text>
<rect x="426.7054036458331" y="33.931857638888886" width="18.525390625" height="20.04296875" style="stroke:black;  stroke-width:1.4; fill:none;" />
<text x="429.6722005208331" y="48.964084201388886">21</text>
<rect x="445.2307942708331" y="33.931857638888886" width="18.525390625" height="20.04296875" style="stroke:black;  stroke-width:0; fill:lightgray;" />
<rect x="445.2307942708331" y="33.931857638888886" width="18.525390625" height="20.04296875" style="stroke:black;  stroke-width:1.4; fill:none;" />
<text x="447.2815755208331" y="48.964084201388886">22</text>
<rect x="463.7561848958331" y="33.931857638888886" width="18.525390625" height="20.04296875" style="stroke:black;  stroke-width:1.4; fill:none;" />
<text x="465.7556966145831" y="48.964084201388886">23</text>
<rect x="482.2815755208331" y="33.931857638888886" width="18.525390625" height="20.04296875" style="stroke:black;  stroke-width:1.4; fill:none;" />
<text x="484.3015950520831" y="48.964084201388886">24</text>
<rect x="500.8069661458331" y="33.931857638888886" width="18.525390625" height="20.04296875" style="stroke:black;  stroke-width:1.4; fill:none;" />
<text x="502.7688802083331" y="48.964084201388886">25</text>
<rect x="519.332356770833" y="33.931857638888886" width="18.525390625" height="20.04296875" style="stroke:black;  stroke-width:1.4; fill:none;" />
<text x="521.335286458333" y="48.964084201388886">26</text>
<rect x="537.857747395833" y="33.931857638888886" width="18.525390625" height="20.04296875" style="stroke:black;  stroke-width:1.4; fill:none;" />
<text x="539.857259114583" y="48.964084201388886">27</text>
<rect x="556.383138020833" y="33.931857638888886" width="18.525390625" height="20.04296875" style="stroke:black;  stroke-width:1.4; fill:none;" />
<text x="558.372395833333" y="48.964084201388886">28</text>
<line x1="574.9085286458335" y1="43.953342013888886" x2="593.4339192708335" y2="43.953342013888886" style="stroke:black; stroke-width:1.4; " />
<rect x="593.4339192708335" y="33.931857638888886" width="18.525390625" height="20.04296875" style="stroke:black;  stroke-width:1.4; fill:none;" />
<text x="595.5222981770835" y="48.964084201388886">33</text>
<text x="5" y="84.67335069444444">hospitalization</text>
<rect x="198.2255859375" y="75.54327256944444" width="55.576171875" height="8.0171875" style="stroke:black;  stroke-width:1.4; fill:none;" />
<text x="5" y="111.51792534722223">DVI PfSPZ</text>
<path d="M225.6528984375, 107.37261284722223 L225.6528984375, 101.35972222222223 L226.3744453125, 101.35972222222223 L226.3744453125, 107.37261284722223 L228.268505859375, 107.37261284722223 L226.013671875, 113.38550347222223 L223.758837890625, 107.37261284722223 L225.6528984375, 107.37261284722223 Z" style="stroke: black; fill: black; stroke-width:1.4; " /><text x="5" y="139.28671875">M5717</text>
<path d="M225.6528984375, 135.193359375 L225.6528984375, 129.18046875 L226.3744453125, 129.18046875 L226.3744453125, 135.193359375 L228.268505859375, 135.193359375 L226.013671875, 141.20625 L223.758837890625, 135.193359375 L225.6528984375, 135.193359375 Z" style="stroke: black; fill: black; stroke-width:1.4; " /><text x="5" y="167.08832465277777">rescue medication</text>
<path d="M565.285059895833, 163.01410590277777 L565.285059895833, 157.00121527777776 L566.0066067708331, 157.00121527777776 L566.0066067708331, 163.01410590277777 L567.900667317708, 163.01410590277777 L565.645833333333, 169.02699652777778 L563.3909993489581, 163.01410590277777 L565.285059895833, 163.01410590277777 Z" style="stroke: black; fill: black; stroke-width:1.4; " /><text x="5" y="196.09032118055555">parasitemia by qPCR</text>
<path d="M278.08232421874993, 190.83485243055554 L281.58984374999994, 183.81981336805555 L285.09736328124995, 190.83485243055554 L281.58984374999994, 197.84989149305554 L278.08232421874993, 190.83485243055554 Z" style="stroke: black; fill: none; stroke-width:1.4; " /><path d="M296.60771484374993, 190.83485243055554 L300.11523437499994, 183.81981336805555 L303.62275390624995, 190.83485243055554 L300.11523437499994, 197.84989149305554 L296.60771484374993, 190.83485243055554 Z" style="stroke: black; fill: none; stroke-width:1.4; " /><path d="M315.13310546874993, 190.83485243055554 L318.64062499999994, 183.81981336805555 L322.14814453124995, 190.83485243055554 L318.64062499999994, 197.84989149305554 L315.13310546874993, 190.83485243055554 Z" style="stroke: black; fill: none; stroke-width:1.4; " /><path d="M327.4833658854166, 190.83485243055554 L330.99088541666663, 183.81981336805555 L334.49840494791664, 190.83485243055554 L330.99088541666663, 197.84989149305554 L327.4833658854166, 190.83485243055554 Z" style="stroke: black; fill: none; stroke-width:1.4; " /><path d="M333.65849609374993, 190.83485243055554 L337.16601562499994, 183.81981336805555 L340.67353515624995, 190.83485243055554 L337.16601562499994, 197.84989149305554 L333.65849609374993, 190.83485243055554 Z" style="stroke: black; fill: none; stroke-width:1.4; " /><path d="M339.83362630208325, 190.83485243055554 L343.34114583333326, 183.81981336805555 L346.84866536458327, 190.83485243055554 L343.34114583333326, 197.84989149305554 L339.83362630208325, 190.83485243055554 Z" style="stroke: black; fill: none; stroke-width:1.4; " /><path d="M346.00875651041656, 190.83485243055554 L349.5162760416666, 183.81981336805555 L353.0237955729166, 190.83485243055554 L349.5162760416666, 197.84989149305554 L346.00875651041656, 190.83485243055554 Z" style="stroke: black; fill: none; stroke-width:1.4; " /><path d="M352.1838867187499, 190.83485243055554 L355.6914062499999, 183.81981336805555 L359.1989257812499, 190.83485243055554 L355.6914062499999, 197.84989149305554 L352.1838867187499, 190.83485243055554 Z" style="stroke: black; fill: none; stroke-width:1.4; " /><path d="M358.3590169270832, 190.83485243055554 L361.8665364583332, 183.81981336805555 L365.3740559895832, 190.83485243055554 L361.8665364583332, 197.84989149305554 L358.3590169270832, 190.83485243055554 Z" style="stroke: black; fill: none; stroke-width:1.4; " /><path d="M370.7092773437498, 190.83485243055554 L374.21679687499983, 183.81981336805555 L377.72431640624984, 190.83485243055554 L374.21679687499983, 197.84989149305554 L370.7092773437498, 190.83485243055554 Z" style="stroke: black; fill: none; stroke-width:1.4; " /><path d="M383.0595377604165, 190.83485243055554 L386.5670572916665, 183.81981336805555 L390.0745768229165, 190.83485243055554 L386.5670572916665, 197.84989149305554 L383.0595377604165, 190.83485243055554 Z" style="stroke: black; fill: none; stroke-width:1.4; " /><path d="M389.2346679687498, 190.83485243055554 L392.74218749999983, 183.81981336805555 L396.24970703124984, 190.83485243055554 L392.74218749999983, 197.84989149305554 L389.2346679687498, 190.83485243055554 Z" style="stroke: black; fill: none; stroke-width:1.4; " /><path d="M395.40979817708313, 190.83485243055554 L398.91731770833314, 183.81981336805555 L402.42483723958316, 190.83485243055554 L398.91731770833314, 197.84989149305554 L395.40979817708313, 190.83485243055554 Z" style="stroke: black; fill: none; stroke-width:1.4; " /><path d="M401.58492838541645, 190.83485243055554 L405.09244791666646, 183.81981336805555 L408.59996744791647, 190.83485243055554 L405.09244791666646, 197.84989149305554 L401.58492838541645, 190.83485243055554 Z" style="stroke: black; fill: none; stroke-width:1.4; " /><path d="M413.9351888020831, 190.83485243055554 L417.4427083333331, 183.81981336805555 L420.9502278645831, 190.83485243055554 L417.4427083333331, 197.84989149305554 L413.9351888020831, 190.83485243055554 Z" style="stroke: black; fill: none; stroke-width:1.4; " /><path d="M450.9859700520831, 190.83485243055554 L454.4934895833331, 183.81981336805555 L458.0010091145831, 190.83485243055554 L454.4934895833331, 197.84989149305554 L450.9859700520831, 190.83485243055554 Z" style="stroke: black; fill: none; stroke-width:1.4; " /><path d="M488.0367513020831, 190.83485243055554 L491.5442708333331, 183.81981336805555 L495.0517903645831, 190.83485243055554 L491.5442708333331, 197.84989149305554 L488.0367513020831, 190.83485243055554 Z" style="stroke: black; fill: none; stroke-width:1.4; " /><path d="M525.0875325520831, 190.83485243055554 L528.595052083333, 183.81981336805555 L532.102571614583, 190.83485243055554 L528.595052083333, 197.84989149305554 L525.0875325520831, 190.83485243055554 Z" style="stroke: black; fill: none; stroke-width:1.4; " /><path d="M562.1383138020831, 190.83485243055554 L565.645833333333, 183.81981336805555 L569.153352864583, 190.83485243055554 L565.645833333333, 197.84989149305554 L562.1383138020831, 190.83485243055554 Z" style="stroke: black; fill: none; stroke-width:1.4; " /><path d="M599.1890950520835, 190.83485243055554 L602.6966145833335, 183.81981336805555 L606.2041341145834, 190.83485243055554 L602.6966145833335, 197.84989149305554 L599.1890950520835, 190.83485243055554 Z" style="stroke: black; fill: none; stroke-width:1.4; " /><text x="5" y="223.84270833333332">PK sampling</text>
<path d="M219.52978515625, 222.41365559895831 L219.52978515625, 214.89754231770831 L232.49755859375, 214.89754231770831 L232.49755859375, 222.41365559895831 L219.52978515625, 222.41365559895831 Z" style="stroke: black; fill: none; stroke-width:1.4; " /><path d="M241.03154296875, 218.65559895833331 L244.5390625, 211.64055989583332 L248.04658203125, 218.65559895833331 L244.5390625, 225.6706380208333 L241.03154296875, 218.65559895833331 Z" style="stroke: black; fill: none; stroke-width:1.4; " /><path d="M278.08232421874993, 218.65559895833331 L281.58984374999994, 211.64055989583332 L285.09736328124995, 218.65559895833331 L281.58984374999994, 225.6706380208333 L278.08232421874993, 218.65559895833331 Z" style="stroke: black; fill: none; stroke-width:1.4; " /><path d="M315.13310546874993, 218.65559895833331 L318.64062499999994, 211.64055989583332 L322.14814453124995, 218.65559895833331 L318.64062499999994, 225.6706380208333 L315.13310546874993, 218.65559895833331 Z" style="stroke: black; fill: none; stroke-width:1.4; " /><path d="M327.4833658854166, 218.65559895833331 L330.99088541666663, 211.64055989583332 L334.49840494791664, 218.65559895833331 L330.99088541666663, 225.6706380208333 L327.4833658854166, 218.65559895833331 Z" style="stroke: black; fill: none; stroke-width:1.4; " /><path d="M525.0875325520831, 218.65559895833331 L528.595052083333, 211.64055989583332 L532.102571614583, 218.65559895833331 L528.595052083333, 225.6706380208333 L525.0875325520831, 218.65559895833331 Z" style="stroke: black; fill: none; stroke-width:1.4; " /><path d="M599.1890950520835, 218.65559895833331 L602.6966145833335, 211.64055989583332 L606.2041341145834, 218.65559895833331 L602.6966145833335, 225.6706380208333 L599.1890950520835, 218.65559895833331 Z" style="stroke: black; fill: none; stroke-width:1.4; " /></svg>