<svg width="791.0380859375" height="236.4548611111111" xmlns="http://www.w3.org/2000/svg">
<style>text {font-family: Arial; font-size: 14px ;}</style>
<desc>Trial design autogenerated by td.py V2.0 (Jan-2022), author: Rainer Strotmann</desc><title>ms201618-0003</title><text x="166.44873046875" y="25.0322265625">S</text>
<text x="414.38134765625" y="25.0322265625">Treatment phase</text>
<text x="753.1123046875" y="25.0322265625">F/U</text>
<rect x="161.1748046875" y="33.931857638888886" width="18.525390625" height="20.04296875" style="stroke:black;  stroke-width:1.4; fill:none;" />
<text x="170.4375" y="48.964084201388886"></text>
<line x1="179.7001953125" y1="43.953342013888886" x2="198.2255859375" y2="43.953342013888886" style="stroke:black; stroke-width:1.4; " />
<rect x="198.2255859375" y="33.931857638888886" width="18.525390625" height="20.04296875" style="stroke:black;  stroke-width:1.4; fill:none;" />
<text x="202.771484375" y="48.964084201388886">-1</text>
<rect x="216.7509765625" y="33.931857638888886" width="18.525390625" height="20.04296875" style="stroke:black;  stroke-width:0; fill:lightgray;" />
<rect x="216.7509765625" y="33.931857638888886" width="18.525390625" height="20.04296875" style="stroke:black;  stroke-width:1.4; fill:none;" />
<text x="222.322265625" y="48.964084201388886">1</text>
<rect x="235.2763671875" y="33.931857638888886" width="18.525390625" height="20.04296875" style="stroke:black;  stroke-width:1.4; fill:none;" />
<text x="241.22021484375" y="48.964084201388886">2</text>
<rect x="253.8017578125" y="33.931857638888886" width="18.525390625" height="20.04296875" style="stroke:black;  stroke-width:1.4; fill:none;" />
<text x="263.064453125" y="48.964084201388886"></text>
<rect x="272.3271484375" y="33.931857638888886" width="18.525390625" height="20.04296875" style="stroke:black;  stroke-width:1.4; fill:none;" />
<text x="281.58984375" y="48.964084201388886"></text>
<rect x="290.8525390625" y="33.931857638888886" width="18.525390625" height="20.04296875" style="stroke:black;  stroke-width:1.4; fill:none;" />
<text x="300.115234375" y="48.964084201388886"></text>
<rect x="309.3779296875" y="33.931857638888886" width="18.525390625" height="20.04296875" style="stroke:black;  stroke-width:1.4; fill:none;" />
<text x="315.33203125" y="48.964084201388886">6</text>
<rect x="327.9033203125" y="33.931857638888886" width="18.525390625" height="20.04296875" style="stroke:black;  stroke-width:1.4; fill:none;" />
<text x="333.92236328125" y="48.964084201388886">7</text>
<rect x="346.4287109375" y="33.931857638888886" width="18.525390625" height="20.04296875" style="stroke:black;  stroke-width:0; fill:lightgray;" />
<rect x="346.4287109375" y="33.931857638888886" width="18.525390625" height="20.04296875" style="stroke:black;  stroke-width:1.4; fill:none;" />
<text x="352.3896484375" y="48.964084201388886">8</text>
<rect x="364.9541015625" y="33.931857638888886" width="18.525390625" height="20.04296875" style="stroke:black;  stroke-width:1.4; fill:none;" />
<text x="374.216796875" y="48.964084201388886"></text>
<rect x="383.4794921875" y="33.931857638888886" width="18.525390625" height="20.04296875" style="stroke:black;  stroke-width:1.4; fill:none;" />
<text x="392.7421875" y="48.964084201388886"></text>
<rect x="402.0048828125" y="33.931857638888886" width="18.525390625" height="20.04296875" style="stroke:black;  stroke-width:1.4; fill:none;" />
<text x="411.267578125" y="48.964084201388886"></text>
<rect x="420.5302734375" y="33.931857638888886" width="18.525390625" height="20.04296875" style="stroke:black;  stroke-width:1.4; fill:none;" />
<text x="429.79296875" y="48.964084201388886"></text>
<rect x="439.0556640625" y="33.931857638888886" width="18.525390625" height="20.04296875" style="stroke:black;  stroke-width:1.4; fill:none;" />
<text x="448.318359375" y="48.964084201388886"></text>
<rect x="457.5810546875" y="33.931857638888886" width="18.525390625" height="20.04296875" style="stroke:black;  stroke-width:1.4; fill:none;" />
<text x="466.84375" y="48.964084201388886"></text>
<rect x="476.1064453125" y="33.931857638888886" width="18.525390625" height="20.04296875" style="stroke:black;  stroke-width:0; fill:lightgray;" />
<rect x="476.1064453125" y="33.931857638888886" width="18.525390625" height="20.04296875" style="stroke:black;  stroke-width:1.4; fill:none;" />
<text x="476.77978515625" y="48.964084201388886">15</text>
<rect x="494.6318359375" y="33.931857638888886" width="18.525390625" height="20.04296875" style="stroke:black;  stroke-width:1.4; fill:none;" />
<text x="503.89453125" y="48.964084201388886"></text>
<rect x="513.1572265625" y="33.931857638888886" width="18.525390625" height="20.04296875" style="stroke:black;  stroke-width:1.4; fill:none;" />
<text x="522.419921875" y="48.964084201388886"></text>
<rect x="531.6826171875" y="33.931857638888886" width="18.525390625" height="20.04296875" style="stroke:black;  stroke-width:1.4; fill:none;" />
<text x="540.9453125" y="48.964084201388886"></text>
<rect x="550.2080078125" y="33.931857638888886" width="18.525390625" height="20.04296875" style="stroke:black;  stroke-width:1.4; fill:none;" />
<text x="559.470703125" y="48.964084201388886"></text>
<rect x="568.7333984375" y="33.931857638888886" width="18.525390625" height="20.04296875" style="stroke:black;  stroke-width:1.4; fill:none;" />
<text x="570.75" y="48.964084201388886">20</text>
<rect x="587.2587890625" y="33.931857638888886" width="18.525390625" height="20.04296875" style="stroke:black;  stroke-width:1.4; fill:none;" />
<text x="590.2255859375" y="48.964084201388886">21</text>
<rect x="605.7841796875" y="33.931857638888886" width="18.525390625" height="20.04296875" style="stroke:black;  stroke-width:0; fill:lightgray;" />
<rect x="605.7841796875" y="33.931857638888886" width="18.525390625" height="20.04296875" style="stroke:black;  stroke-width:1.4; fill:none;" />
<text x="607.8349609375" y="48.964084201388886">22</text>
<rect x="624.3095703125" y="33.931857638888886" width="18.525390625" height="20.04296875" style="stroke:black;  stroke-width:1.4; fill:none;" />
<text x="626.30908203125" y="48.964084201388886">23</text>
<rect x="642.8349609375" y="33.931857638888886" width="18.525390625" height="20.04296875" style="stroke:black;  stroke-width:1.4; fill:none;" />
<text x="644.85498046875" y="48.964084201388886">24</text>
<rect x="661.3603515625" y="33.931857638888886" width="18.525390625" height="20.04296875" style="stroke:black;  stroke-width:1.4; fill:none;" />
<text x="663.322265625" y="48.964084201388886">25</text>
<rect x="679.8857421875" y="33.931857638888886" width="18.525390625" height="20.04296875" style="stroke:black;  stroke-width:1.4; fill:none;" />
<text x="681.888671875" y="48.964084201388886">26</text>
<rect x="698.4111328125" y="33.931857638888886" width="18.525390625" height="20.04296875" style="stroke:black;  stroke-width:1.4; fill:none;" />
<text x="700.41064453125" y="48.964084201388886">27</text>
<rect x="716.9365234375" y="33.931857638888886" width="18.525390625" height="20.04296875" style="stroke:black;  stroke-width:1.4; fill:none;" />
<text x="718.92578125" y="48.964084201388886">28</text>
<line x1="735.4619140625" y1="43.953342013888886" x2="753.9873046875" y2="43.953342013888886" style="stroke:black; stroke-width:1.4; " />
<rect x="753.9873046875" y="33.931857638888886" width="18.525390625" height="20.04296875" style="stroke:black;  stroke-width:1.4; fill:none;" />
<text x="756.07568359375" y="48.964084201388886">33</text>
<text x="5" y="84.67335069444444">hospitalization</text>
<rect x="198.2255859375" y="75.54327256944444" width="55.576171875" height="8.0171875" style="stroke:black;  stroke-width:1.4; fill:none;" />
<text x="5" y="111.51792534722223">DVI PfSPZ</text>
<path d="M225.6528984375, 107.37261284722223 L225.6528984375, 101.35972222222223 L226.3744453125, 101.35972222222223 L226.3744453125, 107.37261284722223 L228.268505859375, 107.37261284722223 L226.013671875, 113.38550347222223 L223.758837890625, 107.37261284722223 L225.6528984375, 107.37261284722223 Z" style="stroke: black; fill: black; stroke-width:1.4; " /><text x="5" y="139.28671875">M5717</text>
<path d="M225.6528984375, 135.193359375 L225.6528984375, 129.18046875 L226.3744453125, 129.18046875 L226.3744453125, 135.193359375 L228.268505859375, 135.193359375 L226.013671875, 141.20625 L223.758837890625, 135.193359375 L225.6528984375, 135.193359375 Z" style="stroke: black; fill: black; stroke-width:1.4; " /><text x="5" y="167.08832465277777">rescue medication</text>
<path d="M725.8384453125, 163.01410590277777 L725.8384453125, 157.00121527777776 L726.5599921875, 157.00121527777776 L726.5599921875, 163.01410590277777 L728.454052734375, 163.01410590277777 L726.19921875, 169.02699652777778 L723.944384765625, 163.01410590277777 L725.8384453125, 163.01410590277777 Z" style="stroke: black; fill: black; stroke-width:1.4; " /><text x="5" y="196.09032118055555">parasitemia by qPCR</text>
<path d="M315.13310546875, 190.83485243055554 L318.640625, 183.81981336805555 L322.14814453125, 190.83485243055554 L318.640625, 197.84989149305554 L315.13310546875, 190.83485243055554 Z" style="stroke: black; fill: none; stroke-width:1.4; " /><path d="M333.65849609375, 190.83485243055554 L337.166015625, 183.81981336805555 L340.67353515625, 190.83485243055554 L337.166015625, 197.84989149305554 L333.65849609375, 190.83485243055554 Z" style="stroke: black; fill: none; stroke-width:1.4; " /><path d="M352.18388671875, 190.83485243055554 L355.69140625, 183.81981336805555 L359.19892578125, 190.83485243055554 L355.69140625, 197.84989149305554 L352.18388671875, 190.83485243055554 Z" style="stroke: black; fill: none; stroke-width:1.4; " /><path d="M370.70927734375, 190.83485243055554 L374.216796875, 183.81981336805555 L377.72431640625, 190.83485243055554 L374.216796875, 197.84989149305554 L370.70927734375, 190.83485243055554 Z" style="stroke: black; fill: none; stroke-width:1.4; " /><path d="M389.23466796875, 190.83485243055554 L392.7421875, 183.81981336805555 L396.24970703125, 190.83485243055554 L392.7421875, 197.84989149305554 L389.23466796875, 190.83485243055554 Z" style="stroke: black; fill: none; stroke-width:1.4; " /><path d="M407.76005859375, 190.83485243055554 L411.267578125, 183.81981336805555 L414.77509765625, 190.83485243055554 L411.267578125, 197.84989149305554 L407.76005859375, 190.83485243055554 Z" style="stroke: black; fill: none; stroke-width:1.4; " /><path d="M426.28544921875, 190.83485243055554 L429.79296875, 183.81981336805555 L433.30048828125, 190.83485243055554 L429.79296875, 197.84989149305554 L426.28544921875, 190.83485243055554 Z" style="stroke: black; fill: none; stroke-width:1.4; " /><path d="M444.81083984375, 190.83485243055554 L448.318359375, 183.81981336805555 L451.82587890625, 190.83485243055554 L448.318359375, 197.84989149305554 L444.81083984375, 190.83485243055554 Z" style="stroke: black; fill: none; stroke-width:1.4; " /><path d="M463.33623046875, 190.83485243055554 L466.84375, 183.81981336805555 L470.35126953125, 190.83485243055554 L466.84375, 197.84989149305554 L463.33623046875, 190.83485243055554 Z" style="stroke: black; fill: none; stroke-width:1.4; " /><path d="M481.86162109375, 190.83485243055554 L485.369140625, 183.81981336805555 L488.87666015625, 190.83485243055554 L485.369140625, 197.84989149305554 L481.86162109375, 190.83485243055554 Z" style="stroke: black; fill: none; stroke-width:1.4; " /><path d="M500.38701171875, 190.83485243055554 L503.89453125, 183.81981336805555 L507.40205078125, 190.83485243055554 L503.89453125, 197.84989149305554 L500.38701171875, 190.83485243055554 Z" style="stroke: black; fill: none; stroke-width:1.4; " /><path d="M518.91240234375, 190.83485243055554 L522.419921875, 183.81981336805555 L525.92744140625, 190.83485243055554 L522.419921875, 197.84989149305554 L518.91240234375, 190.83485243055554 Z" style="stroke: black; fill: none; stroke-width:1.4; " /><path d="M537.43779296875, 190.83485243055554 L540.9453125, 183.81981336805555 L544.45283203125, 190.83485243055554 L540.9453125, 197.84989149305554 L537.43779296875, 190.83485243055554 Z" style="stroke: black; fill: none; stroke-width:1.4; " /><path d="M555.96318359375, 190.83485243055554 L559.470703125, 183.81981336805555 L562.97822265625, 190.83485243055554 L559.470703125, 197.84989149305554 L555.96318359375, 190.83485243055554 Z" style="stroke: black; fill: none; stroke-width:1.4; " /><path d="M574.48857421875, 190.83485243055554 L577.99609375, 183.81981336805555 L581.50361328125, 190.83485243055554 L577.99609375, 197.84989149305554 L574.48857421875, 190.83485243055554 Z" style="stroke: black; fill: none; stroke-width:1.4; " /><path d="M611.53935546875, 190.83485243055554 L615.046875, 183.81981336805555 L618.55439453125, 190.83485243055554 L615.046875, 197.84989149305554 L611.53935546875, 190.83485243055554 Z" style="stroke: black; fill: none; stroke-width:1.4; " /><path d="M648.59013671875, 190.83485243055554 L652.09765625, 183.81981336805555 L655.60517578125, 190.83485243055554 L652.09765625, 197.84989149305554 L648.59013671875, 190.83485243055554 Z" style="stroke: black; fill: none; stroke-width:1.4; " /><path d="M685.64091796875, 190.83485243055554 L689.1484375, 183.81981336805555 L692.65595703125, 190.83485243055554 L689.1484375, 197.84989149305554 L685.64091796875, 190.83485243055554 Z" style="stroke: black; fill: none; stroke-width:1.4; " /><path d="M722.69169921875, 190.83485243055554 L726.19921875, 183.81981336805555 L729.70673828125, 190.83485243055554 L726.19921875, 197.84989149305554 L722.69169921875, 190.83485243055554 Z" style="stroke: black; fill: none; stroke-width:1.4; " /><path d="M759.74248046875, 190.83485243055554 L763.25, 183.81981336805555 L766.75751953125, 190.83485243055554 L763.25, 197.84989149305554 L759.74248046875, 190.83485243055554 Z" style="stroke: black; fill: none; stroke-width:1.4; " /><text x="5" y="223.84270833333332">PK sampling</text>
<path d="M219.52978515625, 222.41365559895831 L219.52978515625, 214.89754231770831 L232.49755859375, 214.89754231770831 L232.49755859375, 222.41365559895831 L219.52978515625, 222.41365559895831 Z" style="stroke: black; fill: none; stroke-width:1.4; " /><path d="M241.03154296875, 218.65559895833331 L244.5390625, 211.64055989583332 L248.04658203125, 218.65559895833331 L244.5390625, 225.6706380208333 L241.03154296875, 218.65559895833331 Z" style="stroke: black; fill: none; stroke-width:1.4; " /><path d="M315.13310546875, 218.65559895833331 L318.640625, 211.64055989583332 L322.14814453125, 218.65559895833331 L318.640625, 225.6706380208333 L315.13310546875, 218.65559895833331 Z" style="stroke: black; fill: none; stroke-width:1.4; " /><path d="M352.18388671875, 218.65559895833331 L355.69140625, 211.64055989583332 L359.19892578125, 218.65559895833331 L355.69140625, 225.6706380208333 L352.18388671875, 218.65559895833331 Z" style="stroke: black; fill: none; stroke-width:1.4; " /><path d="M370.70927734375, 218.65559895833331 L374.216796875, 211.64055989583332 L377.72431640625, 218.65559895833331 L374.216796875, 225.6706380208333 L370.70927734375, 218.65559895833331 Z" style="stroke: black; fill: none; stroke-width:1.4; " /><path d="M685.64091796875, 218.65559895833331 L689.1484375, 211.64055989583332 L692.65595703125, 218.65559895833331 L689.1484375, 225.6706380208333 L685.64091796875, 218.65559895833331 Z" style="stroke: black; fill: none; stroke-width:1.4; " /><path d="M759.74248046875, 218.65559895833331 L763.25, 211.64055989583332 L766.75751953125, 218.65559895833331 L763.25, 225.6706380208333 L759.74248046875, 218.65559895833331 Z" style="stroke: black; fill: none; stroke-width:1.4; " /></svg>