<svg width="932.9521484375002" height="264.27560763888886" xmlns="http://www.w3.org/2000/svg">
<style>text {font-family: Arial; font-size: 14px ;}</style>
<desc>Trial design autogenerated by td.py V2.0 (Dec-2021), author: Rainer Strotmann</desc><title>ms200527-0091</title><text x="141.63427734375" y="25.0322265625">S</text>
<text x="231.099609375" y="25.0322265625">Periods 1-3</text>
<text x="441.19873046875006" y="25.0322265625">Period 4 (optional)</text>
<text x="700.5541992187502" y="25.0322265625">Period 5 (optional)</text>
<text x="895.0263671875002" y="25.0322265625">F/U</text>
<rect x="136.3603515625" y="33.931857638888886" width="18.525390625" height="20.04296875" style="stroke:black;  stroke-width:1.4; fill:none;" />
<text x="145.623046875" y="48.964084201388886"></text>
<line x1="154.8857421875" y1="43.953342013888886" x2="173.4111328125" y2="43.953342013888886" style="stroke:black; stroke-width:1.4; " />
<rect x="173.4111328125" y="33.931857638888886" width="18.525390625" height="20.04296875" style="stroke:black;  stroke-width:1.4; fill:none;" />
<text x="177.95703125" y="48.964084201388886">-1</text>
<rect x="191.9365234375" y="33.931857638888886" width="18.525390625" height="20.04296875" style="stroke:black;  stroke-width:0; fill:lightgray;" />
<rect x="191.9365234375" y="33.931857638888886" width="18.525390625" height="20.04296875" style="stroke:black;  stroke-width:1.4; fill:none;" />
<text x="197.5078125" y="48.964084201388886">1</text>
<rect x="210.4619140625" y="33.931857638888886" width="18.525390625" height="20.04296875" style="stroke:black;  stroke-width:1.4; fill:none;" />
<text x="216.40576171875" y="48.964084201388886">2</text>
<rect x="228.9873046875" y="33.931857638888886" width="18.525390625" height="20.04296875" style="stroke:black;  stroke-width:1.4; fill:none;" />
<text x="234.96875" y="48.964084201388886">3</text>
<rect x="247.5126953125" y="33.931857638888886" width="18.525390625" height="20.04296875" style="stroke:black;  stroke-width:1.4; fill:none;" />
<text x="253.3095703125" y="48.964084201388886">4</text>
<rect x="266.0380859375" y="33.931857638888886" width="18.525390625" height="20.04296875" style="stroke:black;  stroke-width:1.4; fill:none;" />
<text x="271.978515625" y="48.964084201388886">5</text>
<rect x="284.5634765625" y="33.931857638888886" width="18.525390625" height="20.04296875" style="stroke:black;  stroke-width:1.4; fill:none;" />
<text x="290.517578125" y="48.964084201388886">6</text>
<rect x="303.0888671875" y="33.931857638888886" width="18.525390625" height="20.04296875" style="stroke:black;  stroke-width:1.4; fill:none;" />
<text x="309.10791015625" y="48.964084201388886">7</text>
<rect x="321.6142578125" y="33.931857638888886" width="18.525390625" height="20.04296875" style="stroke:black;  stroke-width:0; fill:lightgray;" />
<rect x="321.6142578125" y="33.931857638888886" width="18.525390625" height="20.04296875" style="stroke:black;  stroke-width:1.4; fill:none;" />
<text x="327.5751953125" y="48.964084201388886">8</text>
<rect x="340.1396484375" y="33.931857638888886" width="18.525390625" height="20.04296875" style="stroke:black;  stroke-width:1.4; fill:none;" />
<text x="346.107421875" y="48.964084201388886">9</text>
<line x1="358.6650390625" y1="43.953342013888886" x2="377.1904296875" y2="43.953342013888886" style="stroke:black; stroke-width:1.4; " />
<rect x="377.1904296875" y="33.931857638888886" width="18.525390625" height="20.04296875" style="stroke:black;  stroke-width:1.4; fill:none;" />
<text x="381.736328125" y="48.964084201388886">-1</text>
<rect x="395.7158203125" y="33.931857638888886" width="18.525390625" height="20.04296875" style="stroke:black;  stroke-width:1.4; fill:none;" />
<text x="401.287109375" y="48.964084201388886">1</text>
<rect x="414.2412109375" y="33.931857638888886" width="18.525390625" height="20.04296875" style="stroke:black;  stroke-width:1.4; fill:none;" />
<text x="420.18505859375" y="48.964084201388886">2</text>
<rect x="432.7666015625" y="33.931857638888886" width="18.525390625" height="20.04296875" style="stroke:black;  stroke-width:1.4; fill:none;" />
<text x="438.748046875" y="48.964084201388886">3</text>
<rect x="451.2919921875" y="33.931857638888886" width="18.525390625" height="20.04296875" style="stroke:black;  stroke-width:1.4; fill:none;" />
<text x="457.0888671875" y="48.964084201388886">4</text>
<line x1="469.8173828125" y1="33.931857638888886" x2="475.9925130208333" y2="33.931857638888886" style="stroke:black; stroke-width:1.4; stroke-dasharray: 4.199999999999999 4.199999999999999" />
<line x1="469.8173828125" y1="53.974826388888886" x2="475.9925130208333" y2="53.974826388888886" style="stroke:black; stroke-width:1.4; stroke-dasharray: 4.199999999999999 4.199999999999999" />
<text x="472.9049479166667" y="48.964084201388886"></text>
<line x1="475.9925130208333" y1="33.931857638888886" x2="482.16764322916663" y2="33.931857638888886" style="stroke:black; stroke-width:1.4; stroke-dasharray: 4.199999999999999 4.199999999999999" />
<line x1="475.9925130208333" y1="53.974826388888886" x2="482.16764322916663" y2="53.974826388888886" style="stroke:black; stroke-width:1.4; stroke-dasharray: 4.199999999999999 4.199999999999999" />
<text x="479.080078125" y="48.964084201388886"></text>
<line x1="482.16764322916663" y1="33.931857638888886" x2="488.34277343749994" y2="33.931857638888886" style="stroke:black; stroke-width:1.4; stroke-dasharray: 4.199999999999999 4.199999999999999" />
<line x1="482.16764322916663" y1="53.974826388888886" x2="488.34277343749994" y2="53.974826388888886" style="stroke:black; stroke-width:1.4; stroke-dasharray: 4.199999999999999 4.199999999999999" />
<text x="485.2552083333333" y="48.964084201388886"></text>
<rect x="488.34277343749994" y="33.931857638888886" width="18.525390625" height="20.04296875" style="stroke:black;  stroke-width:0; fill:lightgray;" />
<rect x="488.34277343749994" y="33.931857638888886" width="18.525390625" height="20.04296875" style="stroke:black;  stroke-width:1.4; fill:none;" />
<text x="494.30371093749994" y="48.964084201388886">8</text>
<line x1="506.86816406249994" y1="33.931857638888886" x2="513.0432942708333" y2="33.931857638888886" style="stroke:black; stroke-width:1.4; stroke-dasharray: 4.199999999999999 4.199999999999999" />
<line x1="506.86816406249994" y1="53.974826388888886" x2="513.0432942708333" y2="53.974826388888886" style="stroke:black; stroke-width:1.4; stroke-dasharray: 4.199999999999999 4.199999999999999" />
<text x="509.95572916666663" y="48.964084201388886"></text>
<line x1="513.0432942708333" y1="33.931857638888886" x2="519.2184244791666" y2="33.931857638888886" style="stroke:black; stroke-width:1.4; stroke-dasharray: 4.199999999999999 4.199999999999999" />
<line x1="513.0432942708333" y1="53.974826388888886" x2="519.2184244791666" y2="53.974826388888886" style="stroke:black; stroke-width:1.4; stroke-dasharray: 4.199999999999999 4.199999999999999" />
<text x="516.1308593749999" y="48.964084201388886"></text>
<line x1="519.2184244791666" y1="33.931857638888886" x2="525.3935546875" y2="33.931857638888886" style="stroke:black; stroke-width:1.4; stroke-dasharray: 4.199999999999999 4.199999999999999" />
<line x1="519.2184244791666" y1="53.974826388888886" x2="525.3935546875" y2="53.974826388888886" style="stroke:black; stroke-width:1.4; stroke-dasharray: 4.199999999999999 4.199999999999999" />
<text x="522.3059895833333" y="48.964084201388886"></text>
<line x1="525.3935546875" y1="33.931857638888886" x2="531.5686848958334" y2="33.931857638888886" style="stroke:black; stroke-width:1.4; stroke-dasharray: 4.199999999999999 4.199999999999999" />
<line x1="525.3935546875" y1="53.974826388888886" x2="531.5686848958334" y2="53.974826388888886" style="stroke:black; stroke-width:1.4; stroke-dasharray: 4.199999999999999 4.199999999999999" />
<text x="528.4811197916666" y="48.964084201388886"></text>
<line x1="531.5686848958334" y1="33.931857638888886" x2="537.7438151041667" y2="33.931857638888886" style="stroke:black; stroke-width:1.4; stroke-dasharray: 4.199999999999999 4.199999999999999" />
<line x1="531.5686848958334" y1="53.974826388888886" x2="537.7438151041667" y2="53.974826388888886" style="stroke:black; stroke-width:1.4; stroke-dasharray: 4.199999999999999 4.199999999999999" />
<text x="534.65625" y="48.964084201388886"></text>
<line x1="537.7438151041667" y1="33.931857638888886" x2="543.9189453125001" y2="33.931857638888886" style="stroke:black; stroke-width:1.4; stroke-dasharray: 4.199999999999999 4.199999999999999" />
<line x1="537.7438151041667" y1="53.974826388888886" x2="543.9189453125001" y2="53.974826388888886" style="stroke:black; stroke-width:1.4; stroke-dasharray: 4.199999999999999 4.199999999999999" />
<text x="540.8313802083334" y="48.964084201388886"></text>
<rect x="543.9189453125001" y="33.931857638888886" width="18.525390625" height="20.04296875" style="stroke:black;  stroke-width:0; fill:lightgray;" />
<rect x="543.9189453125001" y="33.931857638888886" width="18.525390625" height="20.04296875" style="stroke:black;  stroke-width:1.4; fill:none;" />
<text x="544.5922851562501" y="48.964084201388886">15</text>
<line x1="562.4443359375001" y1="33.931857638888886" x2="568.6194661458335" y2="33.931857638888886" style="stroke:black; stroke-width:1.4; stroke-dasharray: 4.199999999999999 4.199999999999999" />
<line x1="562.4443359375001" y1="53.974826388888886" x2="568.6194661458335" y2="53.974826388888886" style="stroke:black; stroke-width:1.4; stroke-dasharray: 4.199999999999999 4.199999999999999" />
<text x="565.5319010416667" y="48.964084201388886"></text>
<line x1="568.6194661458335" y1="33.931857638888886" x2="574.7945963541669" y2="33.931857638888886" style="stroke:black; stroke-width:1.4; stroke-dasharray: 4.199999999999999 4.199999999999999" />
<line x1="568.6194661458335" y1="53.974826388888886" x2="574.7945963541669" y2="53.974826388888886" style="stroke:black; stroke-width:1.4; stroke-dasharray: 4.199999999999999 4.199999999999999" />
<text x="571.7070312500001" y="48.964084201388886"></text>
<line x1="574.7945963541669" y1="33.931857638888886" x2="580.9697265625002" y2="33.931857638888886" style="stroke:black; stroke-width:1.4; stroke-dasharray: 4.199999999999999 4.199999999999999" />
<line x1="574.7945963541669" y1="53.974826388888886" x2="580.9697265625002" y2="53.974826388888886" style="stroke:black; stroke-width:1.4; stroke-dasharray: 4.199999999999999 4.199999999999999" />
<text x="577.8821614583335" y="48.964084201388886"></text>
<line x1="580.9697265625002" y1="33.931857638888886" x2="587.1448567708336" y2="33.931857638888886" style="stroke:black; stroke-width:1.4; stroke-dasharray: 4.199999999999999 4.199999999999999" />
<line x1="580.9697265625002" y1="53.974826388888886" x2="587.1448567708336" y2="53.974826388888886" style="stroke:black; stroke-width:1.4; stroke-dasharray: 4.199999999999999 4.199999999999999" />
<text x="584.0572916666669" y="48.964084201388886"></text>
<line x1="587.1448567708336" y1="33.931857638888886" x2="593.319986979167" y2="33.931857638888886" style="stroke:black; stroke-width:1.4; stroke-dasharray: 4.199999999999999 4.199999999999999" />
<line x1="587.1448567708336" y1="53.974826388888886" x2="593.319986979167" y2="53.974826388888886" style="stroke:black; stroke-width:1.4; stroke-dasharray: 4.199999999999999 4.199999999999999" />
<text x="590.2324218750002" y="48.964084201388886"></text>
<line x1="593.319986979167" y1="33.931857638888886" x2="599.4951171875003" y2="33.931857638888886" style="stroke:black; stroke-width:1.4; stroke-dasharray: 4.199999999999999 4.199999999999999" />
<line x1="593.319986979167" y1="53.974826388888886" x2="599.4951171875003" y2="53.974826388888886" style="stroke:black; stroke-width:1.4; stroke-dasharray: 4.199999999999999 4.199999999999999" />
<text x="596.4075520833336" y="48.964084201388886"></text>
<rect x="599.4951171875003" y="33.931857638888886" width="18.525390625" height="20.04296875" style="stroke:black;  stroke-width:0; fill:lightgray;" />
<rect x="599.4951171875003" y="33.931857638888886" width="18.525390625" height="20.04296875" style="stroke:black;  stroke-width:1.4; fill:none;" />
<text x="601.5458984375003" y="48.964084201388886">22</text>
<line x1="618.0205078125001" y1="43.953342013888886" x2="636.5458984375001" y2="43.953342013888886" style="stroke:black; stroke-width:1.4; " />
<rect x="636.5458984375001" y="33.931857638888886" width="18.525390625" height="20.04296875" style="stroke:black;  stroke-width:1.4; fill:none;" />
<text x="641.0917968750001" y="48.964084201388886">-1</text>
<rect x="655.0712890625001" y="33.931857638888886" width="18.525390625" height="20.04296875" style="stroke:black;  stroke-width:1.4; fill:none;" />
<text x="660.6425781250001" y="48.964084201388886">1</text>
<rect x="673.5966796875001" y="33.931857638888886" width="18.525390625" height="20.04296875" style="stroke:black;  stroke-width:1.4; fill:none;" />
<text x="679.5405273437501" y="48.964084201388886">2</text>
<rect x="692.1220703125001" y="33.931857638888886" width="18.525390625" height="20.04296875" style="stroke:black;  stroke-width:1.4; fill:none;" />
<text x="698.1035156250001" y="48.964084201388886">3</text>
<rect x="710.6474609375001" y="33.931857638888886" width="18.525390625" height="20.04296875" style="stroke:black;  stroke-width:1.4; fill:none;" />
<text x="716.4443359375001" y="48.964084201388886">4</text>
<line x1="729.1728515625001" y1="33.931857638888886" x2="735.3479817708335" y2="33.931857638888886" style="stroke:black; stroke-width:1.4; stroke-dasharray: 4.199999999999999 4.199999999999999" />
<line x1="729.1728515625001" y1="53.974826388888886" x2="735.3479817708335" y2="53.974826388888886" style="stroke:black; stroke-width:1.4; stroke-dasharray: 4.199999999999999 4.199999999999999" />
<text x="732.2604166666667" y="48.964084201388886"></text>
<line x1="735.3479817708335" y1="33.931857638888886" x2="741.5231119791669" y2="33.931857638888886" style="stroke:black; stroke-width:1.4; stroke-dasharray: 4.199999999999999 4.199999999999999" />
<line x1="735.3479817708335" y1="53.974826388888886" x2="741.5231119791669" y2="53.974826388888886" style="stroke:black; stroke-width:1.4; stroke-dasharray: 4.199999999999999 4.199999999999999" />
<text x="738.4355468750001" y="48.964084201388886"></text>
<line x1="741.5231119791669" y1="33.931857638888886" x2="747.6982421875002" y2="33.931857638888886" style="stroke:black; stroke-width:1.4; stroke-dasharray: 4.199999999999999 4.199999999999999" />
<line x1="741.5231119791669" y1="53.974826388888886" x2="747.6982421875002" y2="53.974826388888886" style="stroke:black; stroke-width:1.4; stroke-dasharray: 4.199999999999999 4.199999999999999" />
<text x="744.6106770833335" y="48.964084201388886"></text>
<rect x="747.6982421875002" y="33.931857638888886" width="18.525390625" height="20.04296875" style="stroke:black;  stroke-width:0; fill:lightgray;" />
<rect x="747.6982421875002" y="33.931857638888886" width="18.525390625" height="20.04296875" style="stroke:black;  stroke-width:1.4; fill:none;" />
<text x="753.6591796875002" y="48.964084201388886">8</text>
<line x1="766.2236328125002" y1="33.931857638888886" x2="772.3987630208336" y2="33.931857638888886" style="stroke:black; stroke-width:1.4; stroke-dasharray: 4.199999999999999 4.199999999999999" />
<line x1="766.2236328125002" y1="53.974826388888886" x2="772.3987630208336" y2="53.974826388888886" style="stroke:black; stroke-width:1.4; stroke-dasharray: 4.199999999999999 4.199999999999999" />
<text x="769.3111979166669" y="48.964084201388886"></text>
<line x1="772.3987630208336" y1="33.931857638888886" x2="778.573893229167" y2="33.931857638888886" style="stroke:black; stroke-width:1.4; stroke-dasharray: 4.199999999999999 4.199999999999999" />
<line x1="772.3987630208336" y1="53.974826388888886" x2="778.573893229167" y2="53.974826388888886" style="stroke:black; stroke-width:1.4; stroke-dasharray: 4.199999999999999 4.199999999999999" />
<text x="775.4863281250002" y="48.964084201388886"></text>
<line x1="778.573893229167" y1="33.931857638888886" x2="784.7490234375003" y2="33.931857638888886" style="stroke:black; stroke-width:1.4; stroke-dasharray: 4.199999999999999 4.199999999999999" />
<line x1="778.573893229167" y1="53.974826388888886" x2="784.7490234375003" y2="53.974826388888886" style="stroke:black; stroke-width:1.4; stroke-dasharray: 4.199999999999999 4.199999999999999" />
<text x="781.6614583333336" y="48.964084201388886"></text>
<line x1="784.7490234375003" y1="33.931857638888886" x2="790.9241536458337" y2="33.931857638888886" style="stroke:black; stroke-width:1.4; stroke-dasharray: 4.199999999999999 4.199999999999999" />
<line x1="784.7490234375003" y1="53.974826388888886" x2="790.9241536458337" y2="53.974826388888886" style="stroke:black; stroke-width:1.4; stroke-dasharray: 4.199999999999999 4.199999999999999" />
<text x="787.836588541667" y="48.964084201388886"></text>
<line x1="790.9241536458337" y1="33.931857638888886" x2="797.0992838541671" y2="33.931857638888886" style="stroke:black; stroke-width:1.4; stroke-dasharray: 4.199999999999999 4.199999999999999" />
<line x1="790.9241536458337" y1="53.974826388888886" x2="797.0992838541671" y2="53.974826388888886" style="stroke:black; stroke-width:1.4; stroke-dasharray: 4.199999999999999 4.199999999999999" />
<text x="794.0117187500003" y="48.964084201388886"></text>
<line x1="797.0992838541671" y1="33.931857638888886" x2="803.2744140625005" y2="33.931857638888886" style="stroke:black; stroke-width:1.4; stroke-dasharray: 4.199999999999999 4.199999999999999" />
<line x1="797.0992838541671" y1="53.974826388888886" x2="803.2744140625005" y2="53.974826388888886" style="stroke:black; stroke-width:1.4; stroke-dasharray: 4.199999999999999 4.199999999999999" />
<text x="800.1868489583337" y="48.964084201388886"></text>
<rect x="803.2744140625005" y="33.931857638888886" width="18.525390625" height="20.04296875" style="stroke:black;  stroke-width:0; fill:lightgray;" />
<rect x="803.2744140625005" y="33.931857638888886" width="18.525390625" height="20.04296875" style="stroke:black;  stroke-width:1.4; fill:none;" />
<text x="803.9477539062505" y="48.964084201388886">15</text>
<line x1="821.7998046875005" y1="33.931857638888886" x2="827.9749348958338" y2="33.931857638888886" style="stroke:black; stroke-width:1.4; stroke-dasharray: 4.199999999999999 4.199999999999999" />
<line x1="821.7998046875005" y1="53.974826388888886" x2="827.9749348958338" y2="53.974826388888886" style="stroke:black; stroke-width:1.4; stroke-dasharray: 4.199999999999999 4.199999999999999" />
<text x="824.8873697916671" y="48.964084201388886"></text>
<line x1="827.9749348958338" y1="33.931857638888886" x2="834.1500651041672" y2="33.931857638888886" style="stroke:black; stroke-width:1.4; stroke-dasharray: 4.199999999999999 4.199999999999999" />
<line x1="827.9749348958338" y1="53.974826388888886" x2="834.1500651041672" y2="53.974826388888886" style="stroke:black; stroke-width:1.4; stroke-dasharray: 4.199999999999999 4.199999999999999" />
<text x="831.0625000000005" y="48.964084201388886"></text>
<line x1="834.1500651041672" y1="33.931857638888886" x2="840.3251953125006" y2="33.931857638888886" style="stroke:black; stroke-width:1.4; stroke-dasharray: 4.199999999999999 4.199999999999999" />
<line x1="834.1500651041672" y1="53.974826388888886" x2="840.3251953125006" y2="53.974826388888886" style="stroke:black; stroke-width:1.4; stroke-dasharray: 4.199999999999999 4.199999999999999" />
<text x="837.2376302083338" y="48.964084201388886"></text>
<line x1="840.3251953125006" y1="33.931857638888886" x2="846.5003255208339" y2="33.931857638888886" style="stroke:black; stroke-width:1.4; stroke-dasharray: 4.199999999999999 4.199999999999999" />
<line x1="840.3251953125006" y1="53.974826388888886" x2="846.5003255208339" y2="53.974826388888886" style="stroke:black; stroke-width:1.4; stroke-dasharray: 4.199999999999999 4.199999999999999" />
<text x="843.4127604166672" y="48.964084201388886"></text>
<line x1="846.5003255208339" y1="33.931857638888886" x2="852.6754557291673" y2="33.931857638888886" style="stroke:black; stroke-width:1.4; stroke-dasharray: 4.199999999999999 4.199999999999999" />
<line x1="846.5003255208339" y1="53.974826388888886" x2="852.6754557291673" y2="53.974826388888886" style="stroke:black; stroke-width:1.4; stroke-dasharray: 4.199999999999999 4.199999999999999" />
<text x="849.5878906250006" y="48.964084201388886"></text>
<line x1="852.6754557291673" y1="33.931857638888886" x2="858.8505859375007" y2="33.931857638888886" style="stroke:black; stroke-width:1.4; stroke-dasharray: 4.199999999999999 4.199999999999999" />
<line x1="852.6754557291673" y1="53.974826388888886" x2="858.8505859375007" y2="53.974826388888886" style="stroke:black; stroke-width:1.4; stroke-dasharray: 4.199999999999999 4.199999999999999" />
<text x="855.7630208333339" y="48.964084201388886"></text>
<rect x="858.8505859375007" y="33.931857638888886" width="18.525390625" height="20.04296875" style="stroke:black;  stroke-width:0; fill:lightgray;" />
<rect x="858.8505859375007" y="33.931857638888886" width="18.525390625" height="20.04296875" style="stroke:black;  stroke-width:1.4; fill:none;" />
<text x="860.9013671875007" y="48.964084201388886">22</text>
<line x1="877.3759765625002" y1="43.953342013888886" x2="895.9013671875002" y2="43.953342013888886" style="stroke:black; stroke-width:1.4; " />
<rect x="895.9013671875002" y="33.931857638888886" width="18.525390625" height="20.04296875" style="stroke:black;  stroke-width:1.4; fill:none;" />
<text x="897.8906250000002" y="48.964084201388886">29</text>
<text x="5" y="84.67335069444444">hospitalization</text>
<rect x="173.4111328125" y="75.54327256944444" width="185.25390625" height="8.0171875" style="stroke:black;  stroke-width:1.4; fill:none;" />
<rect x="377.1904296875" y="75.54327256944444" width="92.626953125" height="8.0171875" style="stroke:black;  stroke-width:1.4; fill:none;" />
<rect x="636.5458984375001" y="75.54327256944444" width="92.626953125" height="8.0171875" style="stroke:black;  stroke-width:1.4; fill:none;" />
<text x="5" y="112.55972222222223">ambulatory visit</text>
<rect x="488.34277343749994" y="103.36401909722223" width="18.525390625" height="8.0171875" style="stroke:black;  stroke-width:1.4; fill:none;" />
<rect x="543.9189453125001" y="103.36401909722223" width="18.525390625" height="8.0171875" style="stroke:black;  stroke-width:1.4; fill:none;" />
<rect x="599.4951171875003" y="103.36401909722223" width="18.525390625" height="8.0171875" style="stroke:black;  stroke-width:1.4; fill:none;" />
<rect x="747.6982421875002" y="103.36401909722223" width="18.525390625" height="8.0171875" style="stroke:black;  stroke-width:1.4; fill:none;" />
<rect x="803.2744140625005" y="103.36401909722223" width="18.525390625" height="8.0171875" style="stroke:black;  stroke-width:1.4; fill:none;" />
<rect x="858.8505859375007" y="103.36401909722223" width="18.525390625" height="8.0171875" style="stroke:black;  stroke-width:1.4; fill:none;" />
<text x="5" y="140.448828125">evobrutinib BID (12 h apart)</text>
<path d="M200.8384453125, 135.193359375 L200.8384453125, 129.18046875 L201.5599921875, 129.18046875 L201.5599921875, 135.193359375 L203.454052734375, 135.193359375 L201.19921875, 141.20625 L198.944384765625, 135.193359375 L200.8384453125, 135.193359375 Z" style="stroke: black; fill: black; stroke-width:1.4; " /><path d="M256.4146171875, 135.193359375 L256.4146171875, 129.18046875 L257.1361640625, 129.18046875 L257.1361640625, 135.193359375 L259.030224609375, 135.193359375 L256.775390625, 141.20625 L254.520556640625, 135.193359375 L256.4146171875, 135.193359375 Z" style="stroke: black; fill: black; stroke-width:1.4; " /><path d="M311.9907890625, 135.193359375 L311.9907890625, 129.18046875 L312.7123359375, 129.18046875 L312.7123359375, 135.193359375 L314.606396484375, 135.193359375 L312.3515625, 141.20625 L310.096728515625, 135.193359375 L311.9907890625, 135.193359375 Z" style="stroke: black; fill: black; stroke-width:1.4; " /><path d="M404.6177421875, 135.193359375 L404.6177421875, 129.18046875 L405.3392890625, 129.18046875 L405.3392890625, 135.193359375 L407.233349609375, 135.193359375 L404.978515625, 141.20625 L402.723681640625, 135.193359375 L404.6177421875, 135.193359375 Z" style="stroke: black; fill: black; stroke-width:1.4; " /><path d="M663.9732109375001, 135.193359375 L663.9732109375001, 129.18046875 L664.6947578125001, 129.18046875 L664.6947578125001, 135.193359375 L666.5888183593751, 135.193359375 L664.3339843750001, 141.20625 L662.0791503906252, 135.193359375 L663.9732109375001, 135.193359375 Z" style="stroke: black; fill: black; stroke-width:1.4; " /><text x="5" y="167.15668402777777">informed consent</text>
<path d="M142.11552734375, 163.01410590277777 L145.623046875, 155.99906684027778 L149.13056640625, 163.01410590277777 L145.623046875, 170.02914496527777 L142.11552734375, 163.01410590277777 Z" style="stroke: black; fill: none; stroke-width:1.4; " /><text x="5" y="194.98016493055553">ECG</text>
<path d="M142.11552734375, 190.83485243055554 L145.623046875, 183.81981336805555 L149.13056640625, 190.83485243055554 L145.623046875, 197.84989149305554 L142.11552734375, 190.83485243055554 Z" style="stroke: black; fill: none; stroke-width:1.4; " /><path d="M197.69169921875, 190.83485243055554 L201.19921875, 183.81981336805555 L204.70673828125, 190.83485243055554 L201.19921875, 197.84989149305554 L197.69169921875, 190.83485243055554 Z" style="stroke: black; fill: none; stroke-width:1.4; " /><path d="M213.24072265625, 194.59290907118054 L213.24072265625, 187.07679578993054 L226.20849609375, 187.07679578993054 L226.20849609375, 194.59290907118054 L213.24072265625, 194.59290907118054 Z" style="stroke: black; fill: none; stroke-width:1.4; " /><path d="M253.26787109375, 190.83485243055554 L256.775390625, 183.81981336805555 L260.28291015625, 190.83485243055554 L256.775390625, 197.84989149305554 L253.26787109375, 190.83485243055554 Z" style="stroke: black; fill: none; stroke-width:1.4; " /><path d="M268.81689453125, 194.59290907118054 L268.81689453125, 187.07679578993054 L281.78466796875, 187.07679578993054 L281.78466796875, 194.59290907118054 L268.81689453125, 194.59290907118054 Z" style="stroke: black; fill: none; stroke-width:1.4; " /><path d="M308.84404296875, 190.83485243055554 L312.3515625, 183.81981336805555 L315.85908203125, 190.83485243055554 L312.3515625, 197.84989149305554 L308.84404296875, 190.83485243055554 Z" style="stroke: black; fill: none; stroke-width:1.4; " /><path d="M324.39306640625, 194.59290907118054 L324.39306640625, 187.07679578993054 L337.36083984375, 187.07679578993054 L337.36083984375, 194.59290907118054 L324.39306640625, 194.59290907118054 Z" style="stroke: black; fill: none; stroke-width:1.4; " /><path d="M382.94560546875, 190.83485243055554 L386.453125, 183.81981336805555 L389.96064453125, 190.83485243055554 L386.453125, 197.84989149305554 L382.94560546875, 190.83485243055554 Z" style="stroke: black; fill: none; stroke-width:1.4; " /><path d="M401.47099609375, 190.83485243055554 L404.978515625, 183.81981336805555 L408.48603515625, 190.83485243055554 L404.978515625, 197.84989149305554 L401.47099609375, 190.83485243055554 Z" style="stroke: black; fill: none; stroke-width:1.4; " /><path d="M417.02001953125, 194.59290907118054 L417.02001953125, 187.07679578993054 L429.98779296875, 187.07679578993054 L429.98779296875, 194.59290907118054 L417.02001953125, 194.59290907118054 Z" style="stroke: black; fill: none; stroke-width:1.4; " /><path d="M642.3010742187502, 190.83485243055554 L645.8085937500001, 183.81981336805555 L649.3161132812501, 190.83485243055554 L645.8085937500001, 197.84989149305554 L642.3010742187502, 190.83485243055554 Z" style="stroke: black; fill: none; stroke-width:1.4; " /><path d="M660.8264648437502, 190.83485243055554 L664.3339843750001, 183.81981336805555 L667.8415039062501, 190.83485243055554 L664.3339843750001, 197.84989149305554 L660.8264648437502, 190.83485243055554 Z" style="stroke: black; fill: none; stroke-width:1.4; " /><path d="M676.3754882812501, 194.59290907118054 L676.3754882812501, 187.07679578993054 L689.3432617187501, 187.07679578993054 L689.3432617187501, 194.59290907118054 L676.3754882812501, 194.59290907118054 Z" style="stroke: black; fill: none; stroke-width:1.4; " /><path d="M901.6565429687503, 190.83485243055554 L905.1640625000002, 183.81981336805555 L908.6715820312502, 190.83485243055554 L905.1640625000002, 197.84989149305554 L901.6565429687503, 190.83485243055554 Z" style="stroke: black; fill: none; stroke-width:1.4; " /><text x="5" y="223.9138020833333">BTKO assay</text>
<path d="M197.69169921875, 218.65559895833331 L201.19921875, 211.64055989583332 L204.70673828125, 218.65559895833331 L201.19921875, 225.6706380208333 L197.69169921875, 218.65559895833331 Z" style="stroke: black; fill: none; stroke-width:1.4; " /><path d="M216.21708984375, 218.65559895833331 L219.724609375, 211.64055989583332 L223.23212890625, 218.65559895833331 L219.724609375, 225.6706380208333 L216.21708984375, 218.65559895833331 Z" style="stroke: black; fill: none; stroke-width:1.4; " /><path d="M253.26787109375, 218.65559895833331 L256.775390625, 211.64055989583332 L260.28291015625, 218.65559895833331 L256.775390625, 225.6706380208333 L253.26787109375, 218.65559895833331 Z" style="stroke: black; fill: none; stroke-width:1.4; " /><path d="M271.79326171875, 218.65559895833331 L275.30078125, 211.64055989583332 L278.80830078125, 218.65559895833331 L275.30078125, 225.6706380208333 L271.79326171875, 218.65559895833331 Z" style="stroke: black; fill: none; stroke-width:1.4; " /><path d="M308.84404296875, 218.65559895833331 L312.3515625, 211.64055989583332 L315.85908203125, 218.65559895833331 L312.3515625, 225.6706380208333 L308.84404296875, 218.65559895833331 Z" style="stroke: black; fill: none; stroke-width:1.4; " /><path d="M327.36943359375, 218.65559895833331 L330.876953125, 211.64055989583332 L334.38447265625, 218.65559895833331 L330.876953125, 225.6706380208333 L327.36943359375, 218.65559895833331 Z" style="stroke: black; fill: none; stroke-width:1.4; " /><path d="M401.47099609375, 218.65559895833331 L404.978515625, 211.64055989583332 L408.48603515625, 218.65559895833331 L404.978515625, 225.6706380208333 L401.47099609375, 218.65559895833331 Z" style="stroke: black; fill: none; stroke-width:1.4; " /><path d="M419.99638671875, 218.65559895833331 L423.50390625, 211.64055989583332 L427.01142578125, 218.65559895833331 L423.50390625, 225.6706380208333 L419.99638671875, 218.65559895833331 Z" style="stroke: black; fill: none; stroke-width:1.4; " /><path d="M494.09794921874993, 218.65559895833331 L497.60546874999994, 211.64055989583332 L501.11298828124995, 218.65559895833331 L497.60546874999994, 225.6706380208333 L494.09794921874993, 218.65559895833331 Z" style="stroke: black; fill: none; stroke-width:1.4; " /><path d="M549.6741210937502, 218.65559895833331 L553.1816406250001, 211.64055989583332 L556.6891601562501, 218.65559895833331 L553.1816406250001, 225.6706380208333 L549.6741210937502, 218.65559895833331 Z" style="stroke: black; fill: none; stroke-width:1.4; " /><path d="M605.2502929687504, 218.65559895833331 L608.7578125000003, 211.64055989583332 L612.2653320312503, 218.65559895833331 L608.7578125000003, 225.6706380208333 L605.2502929687504, 218.65559895833331 Z" style="stroke: black; fill: none; stroke-width:1.4; " /><path d="M660.8264648437502, 218.65559895833331 L664.3339843750001, 211.64055989583332 L667.8415039062501, 218.65559895833331 L664.3339843750001, 225.6706380208333 L660.8264648437502, 218.65559895833331 Z" style="stroke: black; fill: none; stroke-width:1.4; " /><path d="M679.3518554687502, 218.65559895833331 L682.8593750000001, 211.64055989583332 L686.3668945312501, 218.65559895833331 L682.8593750000001, 225.6706380208333 L679.3518554687502, 218.65559895833331 Z" style="stroke: black; fill: none; stroke-width:1.4; " /><path d="M753.4534179687503, 218.65559895833331 L756.9609375000002, 211.64055989583332 L760.4684570312502, 218.65559895833331 L756.9609375000002, 225.6706380208333 L753.4534179687503, 218.65559895833331 Z" style="stroke: black; fill: none; stroke-width:1.4; " /><path d="M809.0295898437505, 218.65559895833331 L812.5371093750005, 211.64055989583332 L816.0446289062504, 218.65559895833331 L812.5371093750005, 225.6706380208333 L809.0295898437505, 218.65559895833331 Z" style="stroke: black; fill: none; stroke-width:1.4; " /><path d="M864.6057617187507, 218.65559895833331 L868.1132812500007, 211.64055989583332 L871.6208007812506, 218.65559895833331 L868.1132812500007, 225.6706380208333 L864.6057617187507, 218.65559895833331 Z" style="stroke: black; fill: none; stroke-width:1.4; " /><path d="M901.6565429687503, 218.65559895833331 L905.1640625000002, 211.64055989583332 L908.6715820312502, 218.65559895833331 L905.1640625000002, 225.6706380208333 L901.6565429687503, 218.65559895833331 Z" style="stroke: black; fill: none; stroke-width:1.4; " /><text x="5" y="251.6634548611111">PK sampling</text>
<path d="M194.71533203125, 250.2344021267361 L194.71533203125, 242.7182888454861 L207.68310546875, 242.7182888454861 L207.68310546875, 250.2344021267361 L194.71533203125, 250.2344021267361 Z" style="stroke: black; fill: none; stroke-width:1.4; " /><path d="M213.24072265625, 250.2344021267361 L213.24072265625, 242.7182888454861 L226.20849609375, 242.7182888454861 L226.20849609375, 250.2344021267361 L213.24072265625, 250.2344021267361 Z" style="stroke: black; fill: none; stroke-width:1.4; " /><path d="M231.76611328125, 250.2344021267361 L231.76611328125, 242.7182888454861 L244.73388671875, 242.7182888454861 L244.73388671875, 250.2344021267361 L231.76611328125, 250.2344021267361 Z" style="stroke: black; fill: none; stroke-width:1.4; " /><path d="M250.29150390625, 250.2344021267361 L250.29150390625, 242.7182888454861 L263.25927734375, 242.7182888454861 L263.25927734375, 250.2344021267361 L250.29150390625, 250.2344021267361 Z" style="stroke: black; fill: none; stroke-width:1.4; " /><path d="M268.81689453125, 250.2344021267361 L268.81689453125, 242.7182888454861 L281.78466796875, 242.7182888454861 L281.78466796875, 250.2344021267361 L268.81689453125, 250.2344021267361 Z" style="stroke: black; fill: none; stroke-width:1.4; " /><path d="M287.34228515625, 250.2344021267361 L287.34228515625, 242.7182888454861 L300.31005859375, 242.7182888454861 L300.31005859375, 250.2344021267361 L287.34228515625, 250.2344021267361 Z" style="stroke: black; fill: none; stroke-width:1.4; " /><path d="M305.86767578125, 250.2344021267361 L305.86767578125, 242.7182888454861 L318.83544921875, 242.7182888454861 L318.83544921875, 250.2344021267361 L305.86767578125, 250.2344021267361 Z" style="stroke: black; fill: none; stroke-width:1.4; " /><path d="M324.39306640625, 250.2344021267361 L324.39306640625, 242.7182888454861 L337.36083984375, 242.7182888454861 L337.36083984375, 250.2344021267361 L324.39306640625, 250.2344021267361 Z" style="stroke: black; fill: none; stroke-width:1.4; " /><path d="M342.91845703125, 250.2344021267361 L342.91845703125, 242.7182888454861 L355.88623046875, 242.7182888454861 L355.88623046875, 250.2344021267361 L342.91845703125, 250.2344021267361 Z" style="stroke: black; fill: none; stroke-width:1.4; " /><path d="M398.49462890625, 250.2344021267361 L398.49462890625, 242.7182888454861 L411.46240234375, 242.7182888454861 L411.46240234375, 250.2344021267361 L398.49462890625, 250.2344021267361 Z" style="stroke: black; fill: none; stroke-width:1.4; " /><path d="M417.02001953125, 250.2344021267361 L417.02001953125, 242.7182888454861 L429.98779296875, 242.7182888454861 L429.98779296875, 250.2344021267361 L417.02001953125, 250.2344021267361 Z" style="stroke: black; fill: none; stroke-width:1.4; " /><path d="M435.54541015625, 250.2344021267361 L435.54541015625, 242.7182888454861 L448.51318359375, 242.7182888454861 L448.51318359375, 250.2344021267361 L435.54541015625, 250.2344021267361 Z" style="stroke: black; fill: none; stroke-width:1.4; " /><path d="M457.04716796875, 246.4763454861111 L460.5546875, 239.4613064236111 L464.06220703125, 246.4763454861111 L460.5546875, 253.49138454861108 L457.04716796875, 246.4763454861111 Z" style="stroke: black; fill: none; stroke-width:1.4; " /><path d="M657.8500976562501, 250.2344021267361 L657.8500976562501, 242.7182888454861 L670.8178710937501, 242.7182888454861 L670.8178710937501, 250.2344021267361 L657.8500976562501, 250.2344021267361 Z" style="stroke: black; fill: none; stroke-width:1.4; " /><path d="M676.3754882812501, 250.2344021267361 L676.3754882812501, 242.7182888454861 L689.3432617187501, 242.7182888454861 L689.3432617187501, 250.2344021267361 L676.3754882812501, 250.2344021267361 Z" style="stroke: black; fill: none; stroke-width:1.4; " /><path d="M694.9008789062501, 250.2344021267361 L694.9008789062501, 242.7182888454861 L707.8686523437501, 242.7182888454861 L707.8686523437501, 250.2344021267361 L694.9008789062501, 250.2344021267361 Z" style="stroke: black; fill: none; stroke-width:1.4; " /><path d="M716.4026367187502, 246.4763454861111 L719.9101562500001, 239.4613064236111 L723.4176757812501, 246.4763454861111 L719.9101562500001, 253.49138454861108 L716.4026367187502, 246.4763454861111 Z" style="stroke: black; fill: none; stroke-width:1.4; " /></svg>