<svg width="788.7958984375" height="264.27560763888886" xmlns="http://www.w3.org/2000/svg">
<style>text {font-family: Arial; font-size: 14px ;}</style>
<desc>Trial design autogenerated by td.py V2.0 (Dec-2021), author: Rainer Strotmann</desc><title>ms201618-0033</title><text x="164.20654296875" y="25.0322265625">S</text>
<text x="412.13916015625" y="25.0322265625">Treatment phase</text>
<text x="750.8701171875" y="25.0322265625">F/U</text>
<rect x="158.9326171875" y="33.931857638888886" width="18.525390625" height="20.04296875" style="stroke:black;  stroke-width:1.4; fill:none;" />
<text x="168.1953125" y="48.964084201388886"></text>
<line x1="177.4580078125" y1="43.953342013888886" x2="195.9833984375" y2="43.953342013888886" style="stroke:black; stroke-width:1.4; " />
<rect x="195.9833984375" y="33.931857638888886" width="18.525390625" height="20.04296875" style="stroke:black;  stroke-width:0; fill:lightgray;" />
<rect x="195.9833984375" y="33.931857638888886" width="18.525390625" height="20.04296875" style="stroke:black;  stroke-width:1.4; fill:none;" />
<text x="201.5546875" y="48.964084201388886">1</text>
<rect x="214.5087890625" y="33.931857638888886" width="18.525390625" height="20.04296875" style="stroke:black;  stroke-width:1.4; fill:none;" />
<text x="220.45263671875" y="48.964084201388886">2</text>
<rect x="233.0341796875" y="33.931857638888886" width="18.525390625" height="20.04296875" style="stroke:black;  stroke-width:1.4; fill:none;" />
<text x="239.015625" y="48.964084201388886">3</text>
<rect x="251.5595703125" y="33.931857638888886" width="18.525390625" height="20.04296875" style="stroke:black;  stroke-width:1.4; fill:none;" />
<text x="257.3564453125" y="48.964084201388886">4</text>
<rect x="270.0849609375" y="33.931857638888886" width="18.525390625" height="20.04296875" style="stroke:black;  stroke-width:1.4; fill:none;" />
<text x="276.025390625" y="48.964084201388886">5</text>
<rect x="288.6103515625" y="33.931857638888886" width="18.525390625" height="20.04296875" style="stroke:black;  stroke-width:1.4; fill:none;" />
<text x="294.564453125" y="48.964084201388886">6</text>
<rect x="307.1357421875" y="33.931857638888886" width="18.525390625" height="20.04296875" style="stroke:black;  stroke-width:1.4; fill:none;" />
<text x="313.15478515625" y="48.964084201388886">7</text>
<rect x="325.6611328125" y="33.931857638888886" width="18.525390625" height="20.04296875" style="stroke:black;  stroke-width:0; fill:lightgray;" />
<rect x="325.6611328125" y="33.931857638888886" width="18.525390625" height="20.04296875" style="stroke:black;  stroke-width:1.4; fill:none;" />
<text x="331.6220703125" y="48.964084201388886">8</text>
<rect x="344.1865234375" y="33.931857638888886" width="18.525390625" height="20.04296875" style="stroke:black;  stroke-width:1.4; fill:none;" />
<text x="353.44921875" y="48.964084201388886"></text>
<rect x="362.7119140625" y="33.931857638888886" width="18.525390625" height="20.04296875" style="stroke:black;  stroke-width:1.4; fill:none;" />
<text x="371.974609375" y="48.964084201388886"></text>
<rect x="381.2373046875" y="33.931857638888886" width="18.525390625" height="20.04296875" style="stroke:black;  stroke-width:1.4; fill:none;" />
<text x="390.5" y="48.964084201388886"></text>
<rect x="399.7626953125" y="33.931857638888886" width="18.525390625" height="20.04296875" style="stroke:black;  stroke-width:1.4; fill:none;" />
<text x="409.025390625" y="48.964084201388886"></text>
<rect x="418.2880859375" y="33.931857638888886" width="18.525390625" height="20.04296875" style="stroke:black;  stroke-width:1.4; fill:none;" />
<text x="427.55078125" y="48.964084201388886"></text>
<rect x="436.8134765625" y="33.931857638888886" width="18.525390625" height="20.04296875" style="stroke:black;  stroke-width:1.4; fill:none;" />
<text x="446.076171875" y="48.964084201388886"></text>
<rect x="455.3388671875" y="33.931857638888886" width="18.525390625" height="20.04296875" style="stroke:black;  stroke-width:0; fill:lightgray;" />
<rect x="455.3388671875" y="33.931857638888886" width="18.525390625" height="20.04296875" style="stroke:black;  stroke-width:1.4; fill:none;" />
<text x="456.01220703125" y="48.964084201388886">15</text>
<rect x="473.8642578125" y="33.931857638888886" width="18.525390625" height="20.04296875" style="stroke:black;  stroke-width:1.4; fill:none;" />
<text x="483.126953125" y="48.964084201388886"></text>
<rect x="492.3896484375" y="33.931857638888886" width="18.525390625" height="20.04296875" style="stroke:black;  stroke-width:1.4; fill:none;" />
<text x="501.65234375" y="48.964084201388886"></text>
<rect x="510.9150390625" y="33.931857638888886" width="18.525390625" height="20.04296875" style="stroke:black;  stroke-width:1.4; fill:none;" />
<text x="520.177734375" y="48.964084201388886"></text>
<rect x="529.4404296875" y="33.931857638888886" width="18.525390625" height="20.04296875" style="stroke:black;  stroke-width:1.4; fill:none;" />
<text x="538.703125" y="48.964084201388886"></text>
<rect x="547.9658203125" y="33.931857638888886" width="18.525390625" height="20.04296875" style="stroke:black;  stroke-width:1.4; fill:none;" />
<text x="557.228515625" y="48.964084201388886"></text>
<rect x="566.4912109375" y="33.931857638888886" width="18.525390625" height="20.04296875" style="stroke:black;  stroke-width:1.4; fill:none;" />
<text x="575.75390625" y="48.964084201388886"></text>
<rect x="585.0166015625" y="33.931857638888886" width="18.525390625" height="20.04296875" style="stroke:black;  stroke-width:0; fill:lightgray;" />
<rect x="585.0166015625" y="33.931857638888886" width="18.525390625" height="20.04296875" style="stroke:black;  stroke-width:1.4; fill:none;" />
<text x="587.0673828125" y="48.964084201388886">22</text>
<rect x="603.5419921875" y="33.931857638888886" width="18.525390625" height="20.04296875" style="stroke:black;  stroke-width:1.4; fill:none;" />
<text x="612.8046875" y="48.964084201388886"></text>
<rect x="622.0673828125" y="33.931857638888886" width="18.525390625" height="20.04296875" style="stroke:black;  stroke-width:1.4; fill:none;" />
<text x="631.330078125" y="48.964084201388886"></text>
<rect x="640.5927734375" y="33.931857638888886" width="18.525390625" height="20.04296875" style="stroke:black;  stroke-width:1.4; fill:none;" />
<text x="649.85546875" y="48.964084201388886"></text>
<rect x="659.1181640625" y="33.931857638888886" width="18.525390625" height="20.04296875" style="stroke:black;  stroke-width:1.4; fill:none;" />
<text x="668.380859375" y="48.964084201388886"></text>
<rect x="677.6435546875" y="33.931857638888886" width="18.525390625" height="20.04296875" style="stroke:black;  stroke-width:1.4; fill:none;" />
<text x="686.90625" y="48.964084201388886"></text>
<rect x="696.1689453125" y="33.931857638888886" width="18.525390625" height="20.04296875" style="stroke:black;  stroke-width:1.4; fill:none;" />
<text x="705.431640625" y="48.964084201388886"></text>
<rect x="714.6943359375" y="33.931857638888886" width="18.525390625" height="20.04296875" style="stroke:black;  stroke-width:0; fill:lightgray;" />
<rect x="714.6943359375" y="33.931857638888886" width="18.525390625" height="20.04296875" style="stroke:black;  stroke-width:1.4; fill:none;" />
<text x="716.68359375" y="48.964084201388886">29</text>
<line x1="733.2197265625" y1="43.953342013888886" x2="751.7451171875" y2="43.953342013888886" style="stroke:black; stroke-width:1.4; " />
<rect x="751.7451171875" y="33.931857638888886" width="18.525390625" height="20.04296875" style="stroke:black;  stroke-width:1.4; fill:none;" />
<text x="753.62841796875" y="48.964084201388886">43</text>
<text x="5" y="84.67335069444444">hospitalization</text>
<rect x="195.9833984375" y="75.54327256944444" width="74.1015625" height="8.0171875" style="stroke:black;  stroke-width:1.4; fill:none;" />
<text x="5" y="112.57612847222222">M5717 + pyronaridine</text>
<path d="M204.8853203125, 107.37261284722223 L204.8853203125, 101.35972222222223 L205.6068671875, 101.35972222222223 L205.6068671875, 107.37261284722223 L207.500927734375, 107.37261284722223 L205.24609375, 113.38550347222223 L202.991259765625, 107.37261284722223 L204.8853203125, 107.37261284722223 Z" style="stroke: black; fill: black; stroke-width:1.4; " /><path d="M223.4107109375, 107.37261284722223 L223.4107109375, 101.35972222222223 L224.1322578125, 101.35972222222223 L224.1322578125, 107.37261284722223 L226.026318359375, 107.37261284722223 L223.771484375, 113.38550347222223 L221.516650390625, 107.37261284722223 L223.4107109375, 107.37261284722223 Z" style="stroke: black; fill: black; stroke-width:1.4; " /><path d="M218.86669921875, 97.35112847222223 A2.50537109375, 2.50537109375 0 0,0 216.361328125, 99.85649956597223L216.361328125, 114.88872612847223 A2.50537109375, 2.50537109375 0 0,0 218.86669921875 117.39409722222223" style="stroke: black; stroke-width:1.4; fill:none" /><path d="M228.67626953125, 97.35112847222223 A2.50537109375, 2.50537109375 0 0,1 231.181640625, 99.85649956597223L231.181640625, 114.88872612847223 A2.50537109375, 2.50537109375 0 0,1 228.67626953125 117.39409722222223" style="stroke: black; stroke-width:1.4; fill:none" /><path d="M241.9361015625, 107.37261284722223 L241.9361015625, 101.35972222222223 L242.6576484375, 101.35972222222223 L242.6576484375, 107.37261284722223 L244.551708984375, 107.37261284722223 L242.296875, 113.38550347222223 L240.042041015625, 107.37261284722223 L241.9361015625, 107.37261284722223 Z" style="stroke: black; fill: black; stroke-width:1.4; " /><path d="M237.39208984375, 97.35112847222223 A2.50537109375, 2.50537109375 0 0,0 234.88671875, 99.85649956597223L234.88671875, 114.88872612847223 A2.50537109375, 2.50537109375 0 0,0 237.39208984375 117.39409722222223" style="stroke: black; stroke-width:1.4; fill:none" /><path d="M247.20166015625, 97.35112847222223 A2.50537109375, 2.50537109375 0 0,1 249.70703125, 99.85649956597223L249.70703125, 114.88872612847223 A2.50537109375, 2.50537109375 0 0,1 247.20166015625 117.39409722222223" style="stroke: black; stroke-width:1.4; fill:none" /><text x="5" y="139.338671875">ECG</text>
<path d="M198.76220703125, 138.951416015625 L198.76220703125, 131.435302734375 L211.72998046875, 131.435302734375 L211.72998046875, 138.951416015625 L198.76220703125, 138.951416015625 Z" style="stroke: black; fill: none; stroke-width:1.4; " /><path d="M257.31474609375, 135.193359375 L260.822265625, 128.1783203125 L264.32978515625, 135.193359375 L260.822265625, 142.2083984375 L257.31474609375, 135.193359375 Z" style="stroke: black; fill: none; stroke-width:1.4; " /><path d="M720.44951171875, 135.193359375 L723.95703125, 128.1783203125 L727.46455078125, 135.193359375 L723.95703125, 142.2083984375 L720.44951171875, 135.193359375 Z" style="stroke: black; fill: none; stroke-width:1.4; " /><text x="5" y="168.26957465277778">qPCR (parasites)</text>
<path d="M201.73857421875, 163.01410590277777 L205.24609375, 155.99906684027778 L208.75361328125, 163.01410590277777 L205.24609375, 170.02914496527777 L201.73857421875, 163.01410590277777 Z" style="stroke: black; fill: none; stroke-width:1.4; " /><path d="M220.26396484375, 163.01410590277777 L223.771484375, 155.99906684027778 L227.27900390625, 163.01410590277777 L223.771484375, 170.02914496527777 L220.26396484375, 163.01410590277777 Z" style="stroke: black; fill: none; stroke-width:1.4; " /><path d="M238.78935546875, 163.01410590277777 L242.296875, 155.99906684027778 L245.80439453125, 163.01410590277777 L242.296875, 170.02914496527777 L238.78935546875, 163.01410590277777 Z" style="stroke: black; fill: none; stroke-width:1.4; " /><path d="M257.31474609375, 163.01410590277777 L260.822265625, 155.99906684027778 L264.32978515625, 163.01410590277777 L260.822265625, 170.02914496527777 L257.31474609375, 163.01410590277777 Z" style="stroke: black; fill: none; stroke-width:1.4; " /><path d="M331.41630859375, 163.01410590277777 L334.923828125, 155.99906684027778 L338.43134765625, 163.01410590277777 L334.923828125, 170.02914496527777 L331.41630859375, 163.01410590277777 Z" style="stroke: black; fill: none; stroke-width:1.4; " /><path d="M461.09404296875, 163.01410590277777 L464.6015625, 155.99906684027778 L468.10908203125, 163.01410590277777 L464.6015625, 170.02914496527777 L461.09404296875, 163.01410590277777 Z" style="stroke: black; fill: none; stroke-width:1.4; " /><path d="M590.77177734375, 163.01410590277777 L594.279296875, 155.99906684027778 L597.78681640625, 163.01410590277777 L594.279296875, 170.02914496527777 L590.77177734375, 163.01410590277777 Z" style="stroke: black; fill: none; stroke-width:1.4; " /><path d="M720.44951171875, 163.01410590277777 L723.95703125, 155.99906684027778 L727.46455078125, 163.01410590277777 L723.95703125, 170.02914496527777 L720.44951171875, 163.01410590277777 Z" style="stroke: black; fill: none; stroke-width:1.4; " /><path d="M757.50029296875, 163.01410590277777 L761.0078125, 155.99906684027778 L764.51533203125, 163.01410590277777 L761.0078125, 170.02914496527777 L757.50029296875, 163.01410590277777 Z" style="stroke: black; fill: none; stroke-width:1.4; " /><text x="5" y="196.09032118055555">qPCR (gametocytes)</text>
<path d="M461.09404296875, 190.83485243055554 L464.6015625, 183.81981336805555 L468.10908203125, 190.83485243055554 L464.6015625, 197.84989149305554 L461.09404296875, 190.83485243055554 Z" style="stroke: black; fill: none; stroke-width:1.4; " /><path d="M590.77177734375, 190.83485243055554 L594.279296875, 183.81981336805555 L597.78681640625, 190.83485243055554 L594.279296875, 197.84989149305554 L590.77177734375, 190.83485243055554 Z" style="stroke: black; fill: none; stroke-width:1.4; " /><path d="M720.44951171875, 190.83485243055554 L723.95703125, 183.81981336805555 L727.46455078125, 190.83485243055554 L723.95703125, 197.84989149305554 L720.44951171875, 190.83485243055554 Z" style="stroke: black; fill: none; stroke-width:1.4; " /><path d="M757.50029296875, 190.83485243055554 L761.0078125, 183.81981336805555 L764.51533203125, 190.83485243055554 L761.0078125, 197.84989149305554 L757.50029296875, 190.83485243055554 Z" style="stroke: black; fill: none; stroke-width:1.4; " /><text x="5" y="223.84270833333332">blood microscopy</text>
<path d="M198.76220703125, 222.41365559895831 L198.76220703125, 214.89754231770831 L211.72998046875, 214.89754231770831 L211.72998046875, 222.41365559895831 L198.76220703125, 222.41365559895831 Z" style="stroke: black; fill: none; stroke-width:1.4; " /><path d="M217.28759765625, 222.41365559895831 L217.28759765625, 214.89754231770831 L230.25537109375, 214.89754231770831 L230.25537109375, 222.41365559895831 L217.28759765625, 222.41365559895831 Z" style="stroke: black; fill: none; stroke-width:1.4; " /><path d="M235.81298828125, 222.41365559895831 L235.81298828125, 214.89754231770831 L248.78076171875, 214.89754231770831 L248.78076171875, 222.41365559895831 L235.81298828125, 222.41365559895831 Z" style="stroke: black; fill: none; stroke-width:1.4; " /><path d="M257.31474609375, 218.65559895833331 L260.822265625, 211.64055989583332 L264.32978515625, 218.65559895833331 L260.822265625, 225.6706380208333 L257.31474609375, 218.65559895833331 Z" style="stroke: black; fill: none; stroke-width:1.4; " /><path d="M757.50029296875, 218.65559895833331 L761.0078125, 211.64055989583332 L764.51533203125, 218.65559895833331 L761.0078125, 225.6706380208333 L757.50029296875, 218.65559895833331 Z" style="stroke: black; fill: none; stroke-width:1.4; " /><text x="5" y="251.6634548611111">PK sampling</text>
<path d="M198.76220703125, 250.2344021267361 L198.76220703125, 242.7182888454861 L211.72998046875, 242.7182888454861 L211.72998046875, 250.2344021267361 L198.76220703125, 250.2344021267361 Z" style="stroke: black; fill: none; stroke-width:1.4; " /><path d="M220.26396484375, 246.4763454861111 L223.771484375, 239.4613064236111 L227.27900390625, 246.4763454861111 L223.771484375, 253.49138454861108 L220.26396484375, 246.4763454861111 Z" style="stroke: black; fill: none; stroke-width:1.4; " /><path d="M238.78935546875, 246.4763454861111 L242.296875, 239.4613064236111 L245.80439453125, 246.4763454861111 L242.296875, 253.49138454861108 L238.78935546875, 246.4763454861111 Z" style="stroke: black; fill: none; stroke-width:1.4; " /><path d="M257.31474609375, 246.4763454861111 L260.822265625, 239.4613064236111 L264.32978515625, 246.4763454861111 L260.822265625, 253.49138454861108 L257.31474609375, 246.4763454861111 Z" style="stroke: black; fill: none; stroke-width:1.4; " /><path d="M331.41630859375, 246.4763454861111 L334.923828125, 239.4613064236111 L338.43134765625, 246.4763454861111 L334.923828125, 253.49138454861108 L331.41630859375, 246.4763454861111 Z" style="stroke: black; fill: none; stroke-width:1.4; " /><path d="M461.09404296875, 246.4763454861111 L464.6015625, 239.4613064236111 L468.10908203125, 246.4763454861111 L464.6015625, 253.49138454861108 L461.09404296875, 246.4763454861111 Z" style="stroke: black; fill: none; stroke-width:1.4; " /><path d="M590.77177734375, 246.4763454861111 L594.279296875, 239.4613064236111 L597.78681640625, 246.4763454861111 L594.279296875, 253.49138454861108 L590.77177734375, 246.4763454861111 Z" style="stroke: black; fill: none; stroke-width:1.4; " /><path d="M720.44951171875, 246.4763454861111 L723.95703125, 239.4613064236111 L727.46455078125, 246.4763454861111 L723.95703125, 253.49138454861108 L720.44951171875, 246.4763454861111 Z" style="stroke: black; fill: none; stroke-width:1.4; " /></svg>