<svg width="932.9521484375002" height="208.63411458333331" xmlns="http://www.w3.org/2000/svg">
<style>text {font-family: Arial; font-size: 14px ;}</style>
<desc>Trial design autogenerated by td.py V2.0 (Dec-2021), author: Rainer Strotmann</desc><title>ms200527-0091B</title><text x="141.63427734375" y="25.0322265625">S</text>
<text x="231.099609375" y="25.0322265625">Periods 1-3</text>
<text x="441.19873046875006" y="25.0322265625">Period 4 (optional)</text>
<text x="700.5541992187502" y="25.0322265625">Period 5 (optional)</text>
<text x="895.0263671875002" y="25.0322265625">F/U</text>
<rect x="136.3603515625" y="33.931857638888886" width="18.525390625" height="20.04296875" style="stroke:black;  stroke-width:1.4; fill:none;" />
<text x="145.623046875" y="48.964084201388886"></text>
<line x1="154.8857421875" y1="43.953342013888886" x2="173.4111328125" y2="43.953342013888886" style="stroke:black; stroke-width:1.4; " />
<rect x="173.4111328125" y="33.931857638888886" width="18.525390625" height="20.04296875" style="stroke:black;  stroke-width:1.4; fill:none;" />
<text x="177.95703125" y="48.964084201388886">-1</text>
<rect x="191.9365234375" y="33.931857638888886" width="18.525390625" height="20.04296875" style="stroke:black;  stroke-width:0; fill:lightgray;" />
<rect x="191.9365234375" y="33.931857638888886" width="18.525390625" height="20.04296875" style="stroke:black;  stroke-width:1.4; fill:none;" />
<text x="197.5078125" y="48.964084201388886">1</text>
<rect x="210.4619140625" y="33.931857638888886" width="18.525390625" height="20.04296875" style="stroke:black;  stroke-width:1.4; fill:none;" />
<text x="216.40576171875" y="48.964084201388886">2</text>
<rect x="228.9873046875" y="33.931857638888886" width="18.525390625" height="20.04296875" style="stroke:black;  stroke-width:1.4; fill:none;" />
<text x="234.96875" y="48.964084201388886">3</text>
<rect x="247.5126953125" y="33.931857638888886" width="18.525390625" height="20.04296875" style="stroke:black;  stroke-width:1.4; fill:none;" />
<text x="253.3095703125" y="48.964084201388886">4</text>
<rect x="266.0380859375" y="33.931857638888886" width="18.525390625" height="20.04296875" style="stroke:black;  stroke-width:1.4; fill:none;" />
<text x="271.978515625" y="48.964084201388886">5</text>
<rect x="284.5634765625" y="33.931857638888886" width="18.525390625" height="20.04296875" style="stroke:black;  stroke-width:1.4; fill:none;" />
<text x="290.517578125" y="48.964084201388886">6</text>
<rect x="303.0888671875" y="33.931857638888886" width="18.525390625" height="20.04296875" style="stroke:black;  stroke-width:1.4; fill:none;" />
<text x="309.10791015625" y="48.964084201388886">7</text>
<rect x="321.6142578125" y="33.931857638888886" width="18.525390625" height="20.04296875" style="stroke:black;  stroke-width:0; fill:lightgray;" />
<rect x="321.6142578125" y="33.931857638888886" width="18.525390625" height="20.04296875" style="stroke:black;  stroke-width:1.4; fill:none;" />
<text x="327.5751953125" y="48.964084201388886">8</text>
<rect x="340.1396484375" y="33.931857638888886" width="18.525390625" height="20.04296875" style="stroke:black;  stroke-width:1.4; fill:none;" />
<text x="346.107421875" y="48.964084201388886">9</text>
<line x1="358.6650390625" y1="43.953342013888886" x2="377.1904296875" y2="43.953342013888886" style="stroke:black; stroke-width:1.4; " />
<rect x="377.1904296875" y="33.931857638888886" width="18.525390625" height="20.04296875" style="stroke:black;  stroke-width:1.4; fill:none;" />
<text x="381.736328125" y="48.964084201388886">-1</text>
<rect x="395.7158203125" y="33.931857638888886" width="18.525390625" height="20.04296875" style="stroke:black;  stroke-width:1.4; fill:none;" />
<text x="401.287109375" y="48.964084201388886">1</text>
<rect x="414.2412109375" y="33.931857638888886" width="18.525390625" height="20.04296875" style="stroke:black;  stroke-width:1.4; fill:none;" />
<text x="420.18505859375" y="48.964084201388886">2</text>
<rect x="432.7666015625" y="33.931857638888886" width="18.525390625" height="20.04296875" style="stroke:black;  stroke-width:1.4; fill:none;" />
<text x="438.748046875" y="48.964084201388886">3</text>
<rect x="451.2919921875" y="33.931857638888886" width="18.525390625" height="20.04296875" style="stroke:black;  stroke-width:1.4; fill:none;" />
<text x="457.0888671875" y="48.964084201388886">4</text>
<line x1="469.8173828125" y1="33.931857638888886" x2="475.9925130208333" y2="33.931857638888886" style="stroke:black; stroke-width:1.4; stroke-dasharray: 4.199999999999999 4.199999999999999" />
<line x1="469.8173828125" y1="53.974826388888886" x2="475.9925130208333" y2="53.974826388888886" style="stroke:black; stroke-width:1.4; stroke-dasharray: 4.199999999999999 4.199999999999999" />
<text x="472.9049479166667" y="48.964084201388886"></text>
<line x1="475.9925130208333" y1="33.931857638888886" x2="482.16764322916663" y2="33.931857638888886" style="stroke:black; stroke-width:1.4; stroke-dasharray: 4.199999999999999 4.199999999999999" />
<line x1="475.9925130208333" y1="53.974826388888886" x2="482.16764322916663" y2="53.974826388888886" style="stroke:black; stroke-width:1.4; stroke-dasharray: 4.199999999999999 4.199999999999999" />
<text x="479.080078125" y="48.964084201388886"></text>
<line x1="482.16764322916663" y1="33.931857638888886" x2="488.34277343749994" y2="33.931857638888886" style="stroke:black; stroke-width:1.4; stroke-dasharray: 4.199999999999999 4.199999999999999" />
<line x1="482.16764322916663" y1="53.974826388888886" x2="488.34277343749994" y2="53.974826388888886" style="stroke:black; stroke-width:1.4; stroke-dasharray: 4.199999999999999 4.199999999999999" />
<text x="485.2552083333333" y="48.964084201388886"></text>
<rect x="488.34277343749994" y="33.931857638888886" width="18.525390625" height="20.04296875" style="stroke:black;  stroke-width:0; fill:lightgray;" />
<rect x="488.34277343749994" y="33.931857638888886" width="18.525390625" height="20.04296875" style="stroke:black;  stroke-width:1.4; fill:none;" />
<text x="494.30371093749994" y="48.964084201388886">8</text>
<line x1="506.86816406249994" y1="33.931857638888886" x2="513.0432942708333" y2="33.931857638888886" style="stroke:black; stroke-width:1.4; stroke-dasharray: 4.199999999999999 4.199999999999999" />
<line x1="506.86816406249994" y1="53.974826388888886" x2="513.0432942708333" y2="53.974826388888886" style="stroke:black; stroke-width:1.4; stroke-dasharray: 4.199999999999999 4.199999999999999" />
<text x="509.95572916666663" y="48.964084201388886"></text>
<line x1="513.0432942708333" y1="33.931857638888886" x2="519.2184244791666" y2="33.931857638888886" style="stroke:black; stroke-width:1.4; stroke-dasharray: 4.199999999999999 4.199999999999999" />
<line x1="513.0432942708333" y1="53.974826388888886" x2="519.2184244791666" y2="53.974826388888886" style="stroke:black; stroke-width:1.4; stroke-dasharray: 4.199999999999999 4.199999999999999" />
<text x="516.1308593749999" y="48.964084201388886"></text>
<line x1="519.2184244791666" y1="33.931857638888886" x2="525.3935546875" y2="33.931857638888886" style="stroke:black; stroke-width:1.4; stroke-dasharray: 4.199999999999999 4.199999999999999" />
<line x1="519.2184244791666" y1="53.974826388888886" x2="525.3935546875" y2="53.974826388888886" style="stroke:black; stroke-width:1.4; stroke-dasharray: 4.199999999999999 4.199999999999999" />
<text x="522.3059895833333" y="48.964084201388886"></text>
<line x1="525.3935546875" y1="33.931857638888886" x2="531.5686848958334" y2="33.931857638888886" style="stroke:black; stroke-width:1.4; stroke-dasharray: 4.199999999999999 4.199999999999999" />
<line x1="525.3935546875" y1="53.974826388888886" x2="531.5686848958334" y2="53.974826388888886" style="stroke:black; stroke-width:1.4; stroke-dasharray: 4.199999999999999 4.199999999999999" />
<text x="528.4811197916666" y="48.964084201388886"></text>
<line x1="531.5686848958334" y1="33.931857638888886" x2="537.7438151041667" y2="33.931857638888886" style="stroke:black; stroke-width:1.4; stroke-dasharray: 4.199999999999999 4.199999999999999" />
<line x1="531.5686848958334" y1="53.974826388888886" x2="537.7438151041667" y2="53.974826388888886" style="stroke:black; stroke-width:1.4; stroke-dasharray: 4.199999999999999 4.199999999999999" />
<text x="534.65625" y="48.964084201388886"></text>
<line x1="537.7438151041667" y1="33.931857638888886" x2="543.9189453125001" y2="33.931857638888886" style="stroke:black; stroke-width:1.4; stroke-dasharray: 4.199999999999999 4.199999999999999" />
<line x1="537.7438151041667" y1="53.974826388888886" x2="543.9189453125001" y2="53.974826388888886" style="stroke:black; stroke-width:1.4; stroke-dasharray: 4.199999999999999 4.199999999999999" />
<text x="540.8313802083334" y="48.964084201388886"></text>
<rect x="543.9189453125001" y="33.931857638888886" width="18.525390625" height="20.04296875" style="stroke:black;  stroke-width:0; fill:lightgray;" />
<rect x="543.9189453125001" y="33.931857638888886" width="18.525390625" height="20.04296875" style="stroke:black;  stroke-width:1.4; fill:none;" />
<text x="544.5922851562501" y="48.964084201388886">15</text>
<line x1="562.4443359375001" y1="33.931857638888886" x2="568.6194661458335" y2="33.931857638888886" style="stroke:black; stroke-width:1.4; stroke-dasharray: 4.199999999999999 4.199999999999999" />
<line x1="562.4443359375001" y1="53.974826388888886" x2="568.6194661458335" y2="53.974826388888886" style="stroke:black; stroke-width:1.4; stroke-dasharray: 4.199999999999999 4.199999999999999" />
<text x="565.5319010416667" y="48.964084201388886"></text>
<line x1="568.6194661458335" y1="33.931857638888886" x2="574.7945963541669" y2="33.931857638888886" style="stroke:black; stroke-width:1.4; stroke-dasharray: 4.199999999999999 4.199999999999999" />
<line x1="568.6194661458335" y1="53.974826388888886" x2="574.7945963541669" y2="53.974826388888886" style="stroke:black; stroke-width:1.4; stroke-dasharray: 4.199999999999999 4.199999999999999" />
<text x="571.7070312500001" y="48.964084201388886"></text>
<line x1="574.7945963541669" y1="33.931857638888886" x2="580.9697265625002" y2="33.931857638888886" style="stroke:black; stroke-width:1.4; stroke-dasharray: 4.199999999999999 4.199999999999999" />
<line x1="574.7945963541669" y1="53.974826388888886" x2="580.9697265625002" y2="53.974826388888886" style="stroke:black; stroke-width:1.4; stroke-dasharray: 4.199999999999999 4.199999999999999" />
<text x="577.8821614583335" y="48.964084201388886"></text>
<line x1="580.9697265625002" y1="33.931857638888886" x2="587.1448567708336" y2="33.931857638888886" style="stroke:black; stroke-width:1.4; stroke-dasharray: 4.199999999999999 4.199999999999999" />
<line x1="580.9697265625002" y1="53.974826388888886" x2="587.1448567708336" y2="53.974826388888886" style="stroke:black; stroke-width:1.4; stroke-dasharray: 4.199999999999999 4.199999999999999" />
<text x="584.0572916666669" y="48.964084201388886"></text>
<line x1="587.1448567708336" y1="33.931857638888886" x2="593.319986979167" y2="33.931857638888886" style="stroke:black; stroke-width:1.4; stroke-dasharray: 4.199999999999999 4.199999999999999" />
<line x1="587.1448567708336" y1="53.974826388888886" x2="593.319986979167" y2="53.974826388888886" style="stroke:black; stroke-width:1.4; stroke-dasharray: 4.199999999999999 4.199999999999999" />
<text x="590.2324218750002" y="48.964084201388886"></text>
<line x1="593.319986979167" y1="33.931857638888886" x2="599.4951171875003" y2="33.931857638888886" style="stroke:black; stroke-width:1.4; stroke-dasharray: 4.199999999999999 4.199999999999999" />
<line x1="593.319986979167" y1="53.974826388888886" x2="599.4951171875003" y2="53.974826388888886" style="stroke:black; stroke-width:1.4; stroke-dasharray: 4.199999999999999 4.199999999999999" />
<text x="596.4075520833336" y="48.964084201388886"></text>
<rect x="599.4951171875003" y="33.931857638888886" width="18.525390625" height="20.04296875" style="stroke:black;  stroke-width:0; fill:lightgray;" />
<rect x="599.4951171875003" y="33.931857638888886" width="18.525390625" height="20.04296875" style="stroke:black;  stroke-width:1.4; fill:none;" />
<text x="601.5458984375003" y="48.964084201388886">22</text>
<line x1="618.0205078125001" y1="43.953342013888886" x2="636.5458984375001" y2="43.953342013888886" style="stroke:black; stroke-width:1.4; " />
<rect x="636.5458984375001" y="33.931857638888886" width="18.525390625" height="20.04296875" style="stroke:black;  stroke-width:1.4; fill:none;" />
<text x="641.0917968750001" y="48.964084201388886">-1</text>
<rect x="655.0712890625001" y="33.931857638888886" width="18.525390625" height="20.04296875" style="stroke:black;  stroke-width:1.4; fill:none;" />
<text x="660.6425781250001" y="48.964084201388886">1</text>
<rect x="673.5966796875001" y="33.931857638888886" width="18.525390625" height="20.04296875" style="stroke:black;  stroke-width:1.4; fill:none;" />
<text x="679.5405273437501" y="48.964084201388886">2</text>
<rect x="692.1220703125001" y="33.931857638888886" width="18.525390625" height="20.04296875" style="stroke:black;  stroke-width:1.4; fill:none;" />
<text x="698.1035156250001" y="48.964084201388886">3</text>
<rect x="710.6474609375001" y="33.931857638888886" width="18.525390625" height="20.04296875" style="stroke:black;  stroke-width:1.4; fill:none;" />
<text x="716.4443359375001" y="48.964084201388886">4</text>
<line x1="729.1728515625001" y1="33.931857638888886" x2="735.3479817708335" y2="33.931857638888886" style="stroke:black; stroke-width:1.4; stroke-dasharray: 4.199999999999999 4.199999999999999" />
<line x1="729.1728515625001" y1="53.974826388888886" x2="735.3479817708335" y2="53.974826388888886" style="stroke:black; stroke-width:1.4; stroke-dasharray: 4.199999999999999 4.199999999999999" />
<text x="732.2604166666667" y="48.964084201388886"></text>
<line x1="735.3479817708335" y1="33.931857638888886" x2="741.5231119791669" y2="33.931857638888886" style="stroke:black; stroke-width:1.4; stroke-dasharray: 4.199999999999999 4.199999999999999" />
<line x1="735.3479817708335" y1="53.974826388888886" x2="741.5231119791669" y2="53.974826388888886" style="stroke:black; stroke-width:1.4; stroke-dasharray: 4.199999999999999 4.199999999999999" />
<text x="738.4355468750001" y="48.964084201388886"></text>
<line x1="741.5231119791669" y1="33.931857638888886" x2="747.6982421875002" y2="33.931857638888886" style="stroke:black; stroke-width:1.4; stroke-dasharray: 4.199999999999999 4.199999999999999" />
<line x1="741.5231119791669" y1="53.974826388888886" x2="747.6982421875002" y2="53.974826388888886" style="stroke:black; stroke-width:1.4; stroke-dasharray: 4.199999999999999 4.199999999999999" />
<text x="744.6106770833335" y="48.964084201388886"></text>
<rect x="747.6982421875002" y="33.931857638888886" width="18.525390625" height="20.04296875" style="stroke:black;  stroke-width:0; fill:lightgray;" />
<rect x="747.6982421875002" y="33.931857638888886" width="18.525390625" height="20.04296875" style="stroke:black;  stroke-width:1.4; fill:none;" />
<text x="753.6591796875002" y="48.964084201388886">8</text>
<line x1="766.2236328125002" y1="33.931857638888886" x2="772.3987630208336" y2="33.931857638888886" style="stroke:black; stroke-width:1.4; stroke-dasharray: 4.199999999999999 4.199999999999999" />
<line x1="766.2236328125002" y1="53.974826388888886" x2="772.3987630208336" y2="53.974826388888886" style="stroke:black; stroke-width:1.4; stroke-dasharray: 4.199999999999999 4.199999999999999" />
<text x="769.3111979166669" y="48.964084201388886"></text>
<line x1="772.3987630208336" y1="33.931857638888886" x2="778.573893229167" y2="33.931857638888886" style="stroke:black; stroke-width:1.4; stroke-dasharray: 4.199999999999999 4.199999999999999" />
<line x1="772.3987630208336" y1="53.974826388888886" x2="778.573893229167" y2="53.974826388888886" style="stroke:black; stroke-width:1.4; stroke-dasharray: 4.199999999999999 4.199999999999999" />
<text x="775.4863281250002" y="48.964084201388886"></text>
<line x1="778.573893229167" y1="33.931857638888886" x2="784.7490234375003" y2="33.931857638888886" style="stroke:black; stroke-width:1.4; stroke-dasharray: 4.199999999999999 4.199999999999999" />
<line x1="778.573893229167" y1="53.974826388888886" x2="784.7490234375003" y2="53.974826388888886" style="stroke:black; stroke-width:1.4; stroke-dasharray: 4.199999999999999 4.199999999999999" />
<text x="781.6614583333336" y="48.964084201388886"></text>
<line x1="784.7490234375003" y1="33.931857638888886" x2="790.9241536458337" y2="33.931857638888886" style="stroke:black; stroke-width:1.4; stroke-dasharray: 4.199999999999999 4.199999999999999" />
<line x1="784.7490234375003" y1="53.974826388888886" x2="790.9241536458337" y2="53.974826388888886" style="stroke:black; stroke-width:1.4; stroke-dasharray: 4.199999999999999 4.199999999999999" />
<text x="787.836588541667" y="48.964084201388886"></text>
<line x1="790.9241536458337" y1="33.931857638888886" x2="797.0992838541671" y2="33.931857638888886" style="stroke:black; stroke-width:1.4; stroke-dasharray: 4.199999999999999 4.199999999999999" />
<line x1="790.9241536458337" y1="53.974826388888886" x2="797.0992838541671" y2="53.974826388888886" style="stroke:black; stroke-width:1.4; stroke-dasharray: 4.199999999999999 4.199999999999999" />
<text x="794.0117187500003" y="48.964084201388886"></text>
<line x1="797.0992838541671" y1="33.931857638888886" x2="803.2744140625005" y2="33.931857638888886" style="stroke:black; stroke-width:1.4; stroke-dasharray: 4.199999999999999 4.199999999999999" />
<line x1="797.0992838541671" y1="53.974826388888886" x2="803.2744140625005" y2="53.974826388888886" style="stroke:black; stroke-width:1.4; stroke-dasharray: 4.199999999999999 4.199999999999999" />
<text x="800.1868489583337" y="48.964084201388886"></text>
<rect x="803.2744140625005" y="33.931857638888886" width="18.525390625" height="20.04296875" style="stroke:black;  stroke-width:0; fill:lightgray;" />
<rect x="803.2744140625005" y="33.931857638888886" width="18.525390625" height="20.04296875" style="stroke:black;  stroke-width:1.4; fill:none;" />
<text x="803.9477539062505" y="48.964084201388886">15</text>
<line x1="821.7998046875005" y1="33.931857638888886" x2="827.9749348958338" y2="33.931857638888886" style="stroke:black; stroke-width:1.4; stroke-dasharray: 4.199999999999999 4.199999999999999" />
<line x1="821.7998046875005" y1="53.974826388888886" x2="827.9749348958338" y2="53.974826388888886" style="stroke:black; stroke-width:1.4; stroke-dasharray: 4.199999999999999 4.199999999999999" />
<text x="824.8873697916671" y="48.964084201388886"></text>
<line x1="827.9749348958338" y1="33.931857638888886" x2="834.1500651041672" y2="33.931857638888886" style="stroke:black; stroke-width:1.4; stroke-dasharray: 4.199999999999999 4.199999999999999" />
<line x1="827.9749348958338" y1="53.974826388888886" x2="834.1500651041672" y2="53.974826388888886" style="stroke:black; stroke-width:1.4; stroke-dasharray: 4.199999999999999 4.199999999999999" />
<text x="831.0625000000005" y="48.964084201388886"></text>
<line x1="834.1500651041672" y1="33.931857638888886" x2="840.3251953125006" y2="33.931857638888886" style="stroke:black; stroke-width:1.4; stroke-dasharray: 4.199999999999999 4.199999999999999" />
<line x1="834.1500651041672" y1="53.974826388888886" x2="840.3251953125006" y2="53.974826388888886" style="stroke:black; stroke-width:1.4; stroke-dasharray: 4.199999999999999 4.199999999999999" />
<text x="837.2376302083338" y="48.964084201388886"></text>
<line x1="840.3251953125006" y1="33.931857638888886" x2="846.5003255208339" y2="33.931857638888886" style="stroke:black; stroke-width:1.4; stroke-dasharray: 4.199999999999999 4.199999999999999" />
<line x1="840.3251953125006" y1="53.974826388888886" x2="846.5003255208339" y2="53.974826388888886" style="stroke:black; stroke-width:1.4; stroke-dasharray: 4.199999999999999 4.199999999999999" />
<text x="843.4127604166672" y="48.964084201388886"></text>
<line x1="846.5003255208339" y1="33.931857638888886" x2="852.6754557291673" y2="33.931857638888886" style="stroke:black; stroke-width:1.4; stroke-dasharray: 4.199999999999999 4.199999999999999" />
<line x1="846.5003255208339" y1="53.974826388888886" x2="852.6754557291673" y2="53.974826388888886" style="stroke:black; stroke-width:1.4; stroke-dasharray: 4.199999999999999 4.199999999999999" />
<text x="849.5878906250006" y="48.964084201388886"></text>
<line x1="852.6754557291673" y1="33.931857638888886" x2="858.8505859375007" y2="33.931857638888886" style="stroke:black; stroke-width:1.4; stroke-dasharray: 4.199999999999999 4.199999999999999" />
<line x1="852.6754557291673" y1="53.974826388888886" x2="858.8505859375007" y2="53.974826388888886" style="stroke:black; stroke-width:1.4; stroke-dasharray: 4.199999999999999 4.199999999999999" />
<text x="855.7630208333339" y="48.964084201388886"></text>
<rect x="858.8505859375007" y="33.931857638888886" width="18.525390625" height="20.04296875" style="stroke:black;  stroke-width:0; fill:lightgray;" />
<rect x="858.8505859375007" y="33.931857638888886" width="18.525390625" height="20.04296875" style="stroke:black;  stroke-width:1.4; fill:none;" />
<text x="860.9013671875007" y="48.964084201388886">22</text>
<line x1="877.3759765625002" y1="43.953342013888886" x2="895.9013671875002" y2="43.953342013888886" style="stroke:black; stroke-width:1.4; " />
<rect x="895.9013671875002" y="33.931857638888886" width="18.525390625" height="20.04296875" style="stroke:black;  stroke-width:1.4; fill:none;" />
<text x="897.8906250000002" y="48.964084201388886">29</text>
<text x="5" y="84.67335069444444">hospitalization</text>
<rect x="173.4111328125" y="75.54327256944444" width="185.25390625" height="8.0171875" style="stroke:black;  stroke-width:1.4; fill:none;" />
<rect x="377.1904296875" y="75.54327256944444" width="92.626953125" height="8.0171875" style="stroke:black;  stroke-width:1.4; fill:none;" />
<rect x="636.5458984375001" y="75.54327256944444" width="92.626953125" height="8.0171875" style="stroke:black;  stroke-width:1.4; fill:none;" />
<text x="5" y="112.55972222222223">ambulatory visit</text>
<rect x="488.34277343749994" y="103.36401909722223" width="18.525390625" height="8.0171875" style="stroke:black;  stroke-width:1.4; fill:none;" />
<rect x="543.9189453125001" y="103.36401909722223" width="18.525390625" height="8.0171875" style="stroke:black;  stroke-width:1.4; fill:none;" />
<rect x="599.4951171875003" y="103.36401909722223" width="18.525390625" height="8.0171875" style="stroke:black;  stroke-width:1.4; fill:none;" />
<rect x="747.6982421875002" y="103.36401909722223" width="18.525390625" height="8.0171875" style="stroke:black;  stroke-width:1.4; fill:none;" />
<rect x="803.2744140625005" y="103.36401909722223" width="18.525390625" height="8.0171875" style="stroke:black;  stroke-width:1.4; fill:none;" />
<rect x="858.8505859375007" y="103.36401909722223" width="18.525390625" height="8.0171875" style="stroke:black;  stroke-width:1.4; fill:none;" />
<text x="5" y="140.448828125">evobrutinib BID (12 h apart)</text>
<path d="M200.8384453125, 135.193359375 L200.8384453125, 129.18046875 L201.5599921875, 129.18046875 L201.5599921875, 135.193359375 L203.454052734375, 135.193359375 L201.19921875, 141.20625 L198.944384765625, 135.193359375 L200.8384453125, 135.193359375 Z" style="stroke: black; fill: black; stroke-width:1.4; " /><path d="M256.4146171875, 135.193359375 L256.4146171875, 129.18046875 L257.1361640625, 129.18046875 L257.1361640625, 135.193359375 L259.030224609375, 135.193359375 L256.775390625, 141.20625 L254.520556640625, 135.193359375 L256.4146171875, 135.193359375 Z" style="stroke: black; fill: black; stroke-width:1.4; " /><path d="M311.9907890625, 135.193359375 L311.9907890625, 129.18046875 L312.7123359375, 129.18046875 L312.7123359375, 135.193359375 L314.606396484375, 135.193359375 L312.3515625, 141.20625 L310.096728515625, 135.193359375 L311.9907890625, 135.193359375 Z" style="stroke: black; fill: black; stroke-width:1.4; " /><path d="M404.6177421875, 135.193359375 L404.6177421875, 129.18046875 L405.3392890625, 129.18046875 L405.3392890625, 135.193359375 L407.233349609375, 135.193359375 L404.978515625, 141.20625 L402.723681640625, 135.193359375 L404.6177421875, 135.193359375 Z" style="stroke: black; fill: black; stroke-width:1.4; " /><path d="M663.9732109375001, 135.193359375 L663.9732109375001, 129.18046875 L664.6947578125001, 129.18046875 L664.6947578125001, 135.193359375 L666.5888183593751, 135.193359375 L664.3339843750001, 141.20625 L662.0791503906252, 135.193359375 L663.9732109375001, 135.193359375 Z" style="stroke: black; fill: black; stroke-width:1.4; " /><text x="5" y="167.15668402777777">informed consent</text>
<path d="M142.11552734375, 163.01410590277777 L145.623046875, 155.99906684027778 L149.13056640625, 163.01410590277777 L145.623046875, 170.02914496527777 L142.11552734375, 163.01410590277777 Z" style="stroke: black; fill: none; stroke-width:1.4; " /><text x="5" y="196.02196180555555">Blood sampling</text>
<path d="M197.69169921875, 190.83485243055554 L201.19921875, 183.81981336805555 L204.70673828125, 190.83485243055554 L201.19921875, 197.84989149305554 L197.69169921875, 190.83485243055554 Z" style="stroke: black; fill: none; stroke-width:1.4; " /><path d="M216.21708984375, 190.83485243055554 L219.724609375, 183.81981336805555 L223.23212890625, 190.83485243055554 L219.724609375, 197.84989149305554 L216.21708984375, 190.83485243055554 Z" style="stroke: black; fill: none; stroke-width:1.4; " /><path d="M234.74248046875, 190.83485243055554 L238.25, 183.81981336805555 L241.75751953125, 190.83485243055554 L238.25, 197.84989149305554 L234.74248046875, 190.83485243055554 Z" style="stroke: black; fill: none; stroke-width:1.4; " /><path d="M253.26787109375, 190.83485243055554 L256.775390625, 183.81981336805555 L260.28291015625, 190.83485243055554 L256.775390625, 197.84989149305554 L253.26787109375, 190.83485243055554 Z" style="stroke: black; fill: none; stroke-width:1.4; " /><path d="M271.79326171875, 190.83485243055554 L275.30078125, 183.81981336805555 L278.80830078125, 190.83485243055554 L275.30078125, 197.84989149305554 L271.79326171875, 190.83485243055554 Z" style="stroke: black; fill: none; stroke-width:1.4; " /><path d="M290.31865234375, 190.83485243055554 L293.826171875, 183.81981336805555 L297.33369140625, 190.83485243055554 L293.826171875, 197.84989149305554 L290.31865234375, 190.83485243055554 Z" style="stroke: black; fill: none; stroke-width:1.4; " /><path d="M308.84404296875, 190.83485243055554 L312.3515625, 183.81981336805555 L315.85908203125, 190.83485243055554 L312.3515625, 197.84989149305554 L308.84404296875, 190.83485243055554 Z" style="stroke: black; fill: none; stroke-width:1.4; " /><path d="M327.36943359375, 190.83485243055554 L330.876953125, 183.81981336805555 L334.38447265625, 190.83485243055554 L330.876953125, 197.84989149305554 L327.36943359375, 190.83485243055554 Z" style="stroke: black; fill: none; stroke-width:1.4; " /><path d="M345.89482421875, 190.83485243055554 L349.40234375, 183.81981336805555 L352.90986328125, 190.83485243055554 L349.40234375, 197.84989149305554 L345.89482421875, 190.83485243055554 Z" style="stroke: black; fill: none; stroke-width:1.4; " /><path d="M401.47099609375, 190.83485243055554 L404.978515625, 183.81981336805555 L408.48603515625, 190.83485243055554 L404.978515625, 197.84989149305554 L401.47099609375, 190.83485243055554 Z" style="stroke: black; fill: none; stroke-width:1.4; " /><path d="M419.99638671875, 190.83485243055554 L423.50390625, 183.81981336805555 L427.01142578125, 190.83485243055554 L423.50390625, 197.84989149305554 L419.99638671875, 190.83485243055554 Z" style="stroke: black; fill: none; stroke-width:1.4; " /><path d="M438.52177734375, 190.83485243055554 L442.029296875, 183.81981336805555 L445.53681640625, 190.83485243055554 L442.029296875, 197.84989149305554 L438.52177734375, 190.83485243055554 Z" style="stroke: black; fill: none; stroke-width:1.4; " /><path d="M457.04716796875, 190.83485243055554 L460.5546875, 183.81981336805555 L464.06220703125, 190.83485243055554 L460.5546875, 197.84989149305554 L457.04716796875, 190.83485243055554 Z" style="stroke: black; fill: none; stroke-width:1.4; " /><path d="M660.8264648437502, 190.83485243055554 L664.3339843750001, 183.81981336805555 L667.8415039062501, 190.83485243055554 L664.3339843750001, 197.84989149305554 L660.8264648437502, 190.83485243055554 Z" style="stroke: black; fill: none; stroke-width:1.4; " /><path d="M679.3518554687502, 190.83485243055554 L682.8593750000001, 183.81981336805555 L686.3668945312501, 190.83485243055554 L682.8593750000001, 197.84989149305554 L679.3518554687502, 190.83485243055554 Z" style="stroke: black; fill: none; stroke-width:1.4; " /><path d="M697.8772460937502, 190.83485243055554 L701.3847656250001, 183.81981336805555 L704.8922851562501, 190.83485243055554 L701.3847656250001, 197.84989149305554 L697.8772460937502, 190.83485243055554 Z" style="stroke: black; fill: none; stroke-width:1.4; " /><path d="M716.4026367187502, 190.83485243055554 L719.9101562500001, 183.81981336805555 L723.4176757812501, 190.83485243055554 L719.9101562500001, 197.84989149305554 L716.4026367187502, 190.83485243055554 Z" style="stroke: black; fill: none; stroke-width:1.4; " /></svg>