<svg width="630.4345703125" height="349.31621961805547" xmlns="http://www.w3.org/2000/svg">
<style>text {font-family: Arial; font-size: 14px ;}</style>
<desc>Trial design autogenerated by td.py V2.0 (Dec-2021), author: Rainer Strotmann</desc><title>ms200527-0078</title><text x="320.77685546875" y="25.0322265625">S</text>
<text x="424.6318359375" y="25.0322265625">Intervention Period</text>
<rect x="315.5029296875" y="33.931857638888886" width="18.525390625" height="20.04296875" style="stroke:black;  stroke-width:1.4; fill:none;" />
<text x="324.765625" y="48.964084201388886"></text>
<line x1="334.0283203125" y1="43.953342013888886" x2="352.5537109375" y2="43.953342013888886" style="stroke:black; stroke-width:1.4; " />
<rect x="352.5537109375" y="33.931857638888886" width="18.525390625" height="20.04296875" style="stroke:black;  stroke-width:1.4; fill:none;" />
<text x="357.099609375" y="48.964084201388886">-1</text>
<rect x="371.0791015625" y="33.931857638888886" width="18.525390625" height="20.04296875" style="stroke:black;  stroke-width:0; fill:lightgray;" />
<rect x="371.0791015625" y="33.931857638888886" width="18.525390625" height="20.04296875" style="stroke:black;  stroke-width:1.4; fill:none;" />
<text x="376.650390625" y="48.964084201388886">1</text>
<rect x="389.6044921875" y="33.931857638888886" width="18.525390625" height="20.04296875" style="stroke:black;  stroke-width:1.4; fill:none;" />
<text x="395.54833984375" y="48.964084201388886">2</text>
<rect x="408.1298828125" y="33.931857638888886" width="18.525390625" height="20.04296875" style="stroke:black;  stroke-width:1.4; fill:none;" />
<text x="414.111328125" y="48.964084201388886">3</text>
<rect x="426.6552734375" y="33.931857638888886" width="18.525390625" height="20.04296875" style="stroke:black;  stroke-width:1.4; fill:none;" />
<text x="432.4521484375" y="48.964084201388886">4</text>
<rect x="445.1806640625" y="33.931857638888886" width="18.525390625" height="20.04296875" style="stroke:black;  stroke-width:1.4; fill:none;" />
<text x="454.443359375" y="48.964084201388886"></text>
<rect x="463.7060546875" y="33.931857638888886" width="18.525390625" height="20.04296875" style="stroke:black;  stroke-width:1.4; fill:none;" />
<text x="472.96875" y="48.964084201388886"></text>
<rect x="482.2314453125" y="33.931857638888886" width="18.525390625" height="20.04296875" style="stroke:black;  stroke-width:1.4; fill:none;" />
<text x="491.494140625" y="48.964084201388886"></text>
<rect x="500.7568359375" y="33.931857638888886" width="18.525390625" height="20.04296875" style="stroke:black;  stroke-width:0; fill:lightgray;" />
<rect x="500.7568359375" y="33.931857638888886" width="18.525390625" height="20.04296875" style="stroke:black;  stroke-width:1.4; fill:none;" />
<text x="506.7177734375" y="48.964084201388886">8</text>
<rect x="519.2822265625" y="33.931857638888886" width="18.525390625" height="20.04296875" style="stroke:black;  stroke-width:1.4; fill:none;" />
<text x="525.25" y="48.964084201388886">9</text>
<rect x="537.8076171875" y="33.931857638888886" width="18.525390625" height="20.04296875" style="stroke:black;  stroke-width:1.4; fill:none;" />
<text x="538.53564453125" y="48.964084201388886">10</text>
<rect x="556.3330078125" y="33.931857638888886" width="18.525390625" height="20.04296875" style="stroke:black;  stroke-width:1.4; fill:none;" />
<text x="558.01123046875" y="48.964084201388886">11</text>
<rect x="574.8583984375" y="33.931857638888886" width="18.525390625" height="20.04296875" style="stroke:black;  stroke-width:1.4; fill:none;" />
<text x="575.62060546875" y="48.964084201388886">12</text>
<rect x="593.3837890625" y="33.931857638888886" width="18.525390625" height="20.04296875" style="stroke:black;  stroke-width:1.4; fill:none;" />
<text x="594.0947265625" y="48.964084201388886">13</text>
<text x="5" y="84.67335069444444">hospitalization</text>
<rect x="352.5537109375" y="75.54327256944444" width="259.35546875" height="8.0171875" style="stroke:black;  stroke-width:1.4; fill:none;" />
<text x="5" y="111.44683159722223">evobrutinib BID</text>
<path d="M435.5571953125, 107.37261284722223 L435.5571953125, 101.35972222222223 L436.2787421875, 101.35972222222223 L436.2787421875, 107.37261284722223 L438.172802734375, 107.37261284722223 L435.91796875, 113.38550347222223 L433.663134765625, 107.37261284722223 L435.5571953125, 107.37261284722223 Z" style="stroke: black; fill: black; stroke-width:1.4; " /><path d="M454.0825859375, 107.37261284722223 L454.0825859375, 101.35972222222223 L454.8041328125, 101.35972222222223 L454.8041328125, 107.37261284722223 L456.698193359375, 107.37261284722223 L454.443359375, 113.38550347222223 L452.188525390625, 107.37261284722223 L454.0825859375, 107.37261284722223 Z" style="stroke: black; fill: black; stroke-width:1.4; " /><path d="M472.6079765625, 107.37261284722223 L472.6079765625, 101.35972222222223 L473.3295234375, 101.35972222222223 L473.3295234375, 107.37261284722223 L475.223583984375, 107.37261284722223 L472.96875, 113.38550347222223 L470.713916015625, 107.37261284722223 L472.6079765625, 107.37261284722223 Z" style="stroke: black; fill: black; stroke-width:1.4; " /><path d="M491.1333671875, 107.37261284722223 L491.1333671875, 101.35972222222223 L491.8549140625, 101.35972222222223 L491.8549140625, 107.37261284722223 L493.748974609375, 107.37261284722223 L491.494140625, 113.38550347222223 L489.239306640625, 107.37261284722223 L491.1333671875, 107.37261284722223 Z" style="stroke: black; fill: black; stroke-width:1.4; " /><path d="M509.6587578125, 107.37261284722223 L509.6587578125, 101.35972222222223 L510.3803046875, 101.35972222222223 L510.3803046875, 107.37261284722223 L512.274365234375, 107.37261284722223 L510.01953125, 113.38550347222223 L507.764697265625, 107.37261284722223 L509.6587578125, 107.37261284722223 Z" style="stroke: black; fill: black; stroke-width:1.4; " /><path d="M528.1841484375, 107.37261284722223 L528.1841484375, 101.35972222222223 L528.9056953125, 101.35972222222223 L528.9056953125, 107.37261284722223 L530.799755859375, 107.37261284722223 L528.544921875, 113.38550347222223 L526.290087890625, 107.37261284722223 L528.1841484375, 107.37261284722223 Z" style="stroke: black; fill: black; stroke-width:1.4; " /><path d="M546.7095390625, 107.37261284722223 L546.7095390625, 101.35972222222223 L547.4310859375, 101.35972222222223 L547.4310859375, 107.37261284722223 L549.325146484375, 107.37261284722223 L547.0703125, 113.38550347222223 L544.815478515625, 107.37261284722223 L546.7095390625, 107.37261284722223 Z" style="stroke: black; fill: black; stroke-width:1.4; " /><path d="M565.2349296875, 107.37261284722223 L565.2349296875, 101.35972222222223 L565.9564765625, 101.35972222222223 L565.9564765625, 107.37261284722223 L567.850537109375, 107.37261284722223 L565.595703125, 113.38550347222223 L563.340869140625, 107.37261284722223 L565.2349296875, 107.37261284722223 Z" style="stroke: black; fill: black; stroke-width:1.4; " /><path d="M583.7603203125, 107.37261284722223 L583.7603203125, 101.35972222222223 L584.4818671875, 101.35972222222223 L584.4818671875, 107.37261284722223 L586.375927734375, 107.37261284722223 L584.12109375, 113.38550347222223 L581.866259765625, 107.37261284722223 L583.7603203125, 107.37261284722223 Z" style="stroke: black; fill: black; stroke-width:1.4; " /><text x="5" y="140.448828125">digoxin, metformin, rosuvastatin</text>
<path d="M379.9810234375, 135.193359375 L379.9810234375, 129.18046875 L380.7025703125, 129.18046875 L380.7025703125, 135.193359375 L382.596630859375, 135.193359375 L380.341796875, 141.20625 L378.086962890625, 135.193359375 L379.9810234375, 135.193359375 Z" style="stroke: black; fill: black; stroke-width:1.4; " /><path d="M546.7095390625, 135.193359375 L546.7095390625, 129.18046875 L547.4310859375, 129.18046875 L547.4310859375, 135.193359375 L549.325146484375, 135.193359375 L547.0703125, 141.20625 L544.815478515625, 135.193359375 L546.7095390625, 135.193359375 Z" style="stroke: black; fill: black; stroke-width:1.4; " /><text x="5" y="168.26957465277778">Safety lab</text>
<path d="M321.25810546875, 163.01410590277777 L324.765625, 155.99906684027778 L328.27314453125, 163.01410590277777 L324.765625, 170.02914496527777 L321.25810546875, 163.01410590277777 Z" style="stroke: black; fill: none; stroke-width:1.4; " /><path d="M358.30888671875, 163.01410590277777 L361.81640625, 155.99906684027778 L365.32392578125, 163.01410590277777 L361.81640625, 170.02914496527777 L358.30888671875, 163.01410590277777 Z" style="stroke: black; fill: none; stroke-width:1.4; " /><path d="M543.56279296875, 163.01410590277777 L547.0703125, 155.99906684027778 L550.57783203125, 163.01410590277777 L547.0703125, 170.02914496527777 L543.56279296875, 163.01410590277777 Z" style="stroke: black; fill: none; stroke-width:1.4; " /><text x="5" y="194.98016493055553">ECG</text>
<path d="M321.25810546875, 190.83485243055554 L324.765625, 183.81981336805555 L328.27314453125, 190.83485243055554 L324.765625, 197.84989149305554 L321.25810546875, 190.83485243055554 Z" style="stroke: black; fill: none; stroke-width:1.4; " /><path d="M358.30888671875, 190.83485243055554 L361.81640625, 183.81981336805555 L365.32392578125, 190.83485243055554 L361.81640625, 197.84989149305554 L358.30888671875, 190.83485243055554 Z" style="stroke: black; fill: none; stroke-width:1.4; " /><path d="M376.83427734375, 190.83485243055554 L380.341796875, 183.81981336805555 L383.84931640625, 190.83485243055554 L380.341796875, 197.84989149305554 L376.83427734375, 190.83485243055554 Z" style="stroke: black; fill: none; stroke-width:1.4; " /><path d="M543.56279296875, 190.83485243055554 L547.0703125, 183.81981336805555 L550.57783203125, 190.83485243055554 L547.0703125, 197.84989149305554 L543.56279296875, 190.83485243055554 Z" style="stroke: black; fill: none; stroke-width:1.4; " /><text x="5" y="223.84270833333332">PK sampling evobrutinib</text>
<path d="M543.56279296875, 218.65559895833331 L547.0703125, 211.64055989583332 L550.57783203125, 218.65559895833331 L547.0703125, 225.6706380208333 L543.56279296875, 218.65559895833331 Z" style="stroke: black; fill: none; stroke-width:1.4; " /><path d="M562.08818359375, 218.65559895833331 L565.595703125, 211.64055989583332 L569.10322265625, 218.65559895833331 L565.595703125, 225.6706380208333 L562.08818359375, 218.65559895833331 Z" style="stroke: black; fill: none; stroke-width:1.4; " /><path d="M580.61357421875, 218.65559895833331 L584.12109375, 211.64055989583332 L587.62861328125, 218.65559895833331 L584.12109375, 225.6706380208333 L580.61357421875, 218.65559895833331 Z" style="stroke: black; fill: none; stroke-width:1.4; " /><text x="5" y="251.7318142361111">PK sampling digoxin, metformin, rosuvastatins</text>
<path d="M373.85791015625, 250.2344021267361 L373.85791015625, 242.7182888454861 L386.82568359375, 242.7182888454861 L386.82568359375, 250.2344021267361 L373.85791015625, 250.2344021267361 Z" style="stroke: black; fill: none; stroke-width:1.4; " /><path d="M392.38330078125, 250.2344021267361 L392.38330078125, 242.7182888454861 L405.35107421875, 242.7182888454861 L405.35107421875, 250.2344021267361 L392.38330078125, 250.2344021267361 Z" style="stroke: black; fill: none; stroke-width:1.4; " /><path d="M410.90869140625, 250.2344021267361 L410.90869140625, 242.7182888454861 L423.87646484375, 242.7182888454861 L423.87646484375, 250.2344021267361 L410.90869140625, 250.2344021267361 Z" style="stroke: black; fill: none; stroke-width:1.4; " /><path d="M432.41044921875, 246.4763454861111 L435.91796875, 239.4613064236111 L439.42548828125, 246.4763454861111 L435.91796875, 253.49138454861108 L432.41044921875, 246.4763454861111 Z" style="stroke: black; fill: none; stroke-width:1.4; " /><path d="M540.58642578125, 250.2344021267361 L540.58642578125, 242.7182888454861 L553.55419921875, 242.7182888454861 L553.55419921875, 250.2344021267361 L540.58642578125, 250.2344021267361 Z" style="stroke: black; fill: none; stroke-width:1.4; " /><path d="M559.11181640625, 250.2344021267361 L559.11181640625, 242.7182888454861 L572.07958984375, 242.7182888454861 L572.07958984375, 250.2344021267361 L559.11181640625, 250.2344021267361 Z" style="stroke: black; fill: none; stroke-width:1.4; " /><path d="M577.63720703125, 250.2344021267361 L577.63720703125, 242.7182888454861 L590.60498046875, 242.7182888454861 L590.60498046875, 250.2344021267361 L577.63720703125, 250.2344021267361 Z" style="stroke: black; fill: none; stroke-width:1.4; " /><path d="M599.13896484375, 246.4763454861111 L602.646484375, 239.4613064236111 L606.15400390625, 246.4763454861111 L602.646484375, 253.49138454861108 L599.13896484375, 246.4763454861111 Z" style="stroke: black; fill: none; stroke-width:1.4; " /><path d="M371.0791015625, 264.27560763888886 A6.680989583333333, 6.680989583333333, 0, 0 0 377.7600911458333, 270.9565972222222 L401.4488932291667, 270.9565972222222 A6.680989583333333, 6.680989583333333 0, 0 1 408.1298828125, 277.63758680555554 A6.680989583333333, 6.680989583333333, 0, 0 1 414.8108723958333, 270.9565972222222 L438.4996744791667, 270.9565972222222 A6.680989583333333, 6.680989583333333 0, 0 0 445.1806640625, 264.27560763888886 " style="stroke: black; stroke-width:1.4; fill:none" /><path d="M349.04619140625, 299.3257378472222 L352.5537109375, 292.31069878472215 L356.06123046875, 299.3257378472222 L352.5537109375, 306.3407769097222 L349.04619140625, 299.3257378472222 Z" style="stroke: black; fill: none; stroke-width:1.4; " /><path d="M352.54976528234647, 299.3257378472222 L356.0572848135965, 292.31069878472215 L359.5648043448465, 299.3257378472222 L356.0572848135965, 306.3407769097222 L352.54976528234647, 299.3257378472222 Z" style="stroke: black; fill: none; stroke-width:1.4; " /><path d="M356.15950806377924, 299.3257378472222 L359.66702759502925, 292.31069878472215 L363.17454712627926, 299.3257378472222 L359.66702759502925, 306.3407769097222 L356.15950806377924, 299.3257378472222 Z" style="stroke: black; fill: none; stroke-width:1.4; " /><path d="M359.6630819398757, 299.3257378472222 L363.17060147112574, 292.31069878472215 L366.67812100237575, 299.3257378472222 L363.17060147112574, 306.3407769097222 L359.6630819398757, 299.3257378472222 Z" style="stroke: black; fill: none; stroke-width:1.4; " /><path d="M364.97152720668856, 299.3257378472222 L368.4790467379386, 292.31069878472215 L371.9865662691886, 299.3257378472222 L368.4790467379386, 306.3407769097222 L364.97152720668856, 299.3257378472222 Z" style="stroke: black; fill: none; stroke-width:1.4; " /><path d="M370.27997247350146, 299.3257378472222 L373.78749200475147, 292.31069878472215 L377.2950115360015, 299.3257378472222 L373.78749200475147, 306.3407769097222 L370.27997247350146, 299.3257378472222 Z" style="stroke: black; fill: none; stroke-width:1.4; " /><path d="M380.8968630071272, 299.3257378472222 L384.4043825383772, 292.31069878472215 L387.9119020696272, 299.3257378472222 L384.4043825383772, 306.3407769097222 L380.8968630071272, 299.3257378472222 Z" style="stroke: black; fill: none; stroke-width:1.4; " /><path d="M380.8968630071272, 299.3257378472222 L384.4043825383772, 292.31069878472215 L387.9119020696272, 299.3257378472222 L384.4043825383772, 306.3407769097222 L380.8968630071272, 299.3257378472222 Z" style="stroke: black; fill: none; stroke-width:1.4; " /><path d="M391.51375354075293, 299.3257378472222 L395.02127307200294, 292.31069878472215 L398.52879260325295, 299.3257378472222 L395.02127307200294, 306.3407769097222 L391.51375354075293, 299.3257378472222 Z" style="stroke: black; fill: none; stroke-width:1.4; " /><path d="M412.7475346080044, 299.3257378472222 L416.2550541392544, 292.31069878472215 L419.7625736705044, 299.3257378472222 L416.2550541392544, 306.3407769097222 L412.7475346080044, 299.3257378472222 Z" style="stroke: black; fill: none; stroke-width:1.4; " /><path d="M433.9813156752558, 299.3257378472222 L437.4888352065058, 292.31069878472215 L440.99635473775584, 299.3257378472222 L437.4888352065058, 306.3407769097222 L433.9813156752558, 299.3257378472222 Z" style="stroke: black; fill: none; stroke-width:1.4; " /><path d="M455.2150967425073, 299.3257378472222 L458.7226162737573, 292.31069878472215 L462.2301358050073, 299.3257378472222 L458.7226162737573, 306.3407769097222 L455.2150967425073, 299.3257378472222 Z" style="stroke: black; fill: none; stroke-width:1.4; " /><path d="M476.44887780975876, 299.3257378472222 L479.95639734100877, 292.31069878472215 L483.4639168722588, 299.3257378472222 L479.95639734100877, 306.3407769097222 L476.44887780975876, 299.3257378472222 Z" style="stroke: black; fill: none; stroke-width:1.4; " /><path d="M518.9164399442617, 299.3257378472222 L522.4239594755117, 292.31069878472215 L525.9314790067616, 299.3257378472222 L522.4239594755117, 306.3407769097222 L518.9164399442617, 299.3257378472222 Z" style="stroke: black; fill: none; stroke-width:1.4; " /><path d="M549.9871350740132, 299.3257378472222 L553.4946546052631, 292.31069878472215 L557.0021741365131, 299.3257378472222 L553.4946546052631, 306.3407769097222 L549.9871350740132, 299.3257378472222 Z" style="stroke: black; fill: none; stroke-width:1.4; " /><path d="M564.5907663445723, 299.3257378472222 L568.0982858758223, 292.31069878472215 L571.6058054070722, 299.3257378472222 L568.0982858758223, 306.3407769097222 L564.5907663445723, 299.3257378472222 Z" style="stroke: black; fill: none; stroke-width:1.4; " /><path d="M579.1943976151316, 299.3257378472222 L582.7019171463816, 292.31069878472215 L586.2094366776315, 299.3257378472222 L582.7019171463816, 306.3407769097222 L579.1943976151316, 299.3257378472222 Z" style="stroke: black; fill: none; stroke-width:1.4; " /><path d="M593.7980288856908, 299.3257378472222 L597.3055484169407, 292.31069878472215 L600.8130679481907, 299.3257378472222 L597.3055484169407, 306.3407769097222 L593.7980288856908, 299.3257378472222 Z" style="stroke: black; fill: none; stroke-width:1.4; " /><path d="M608.40166015625, 299.3257378472222 L611.9091796875, 292.31069878472215 L615.41669921875, 299.3257378472222 L611.9091796875, 306.3407769097222 L608.40166015625, 299.3257378472222 Z" style="stroke: black; fill: none; stroke-width:1.4; " /><line x1="352.5537109375" y1="317.12499999999994" x2="543.6577405427631" y2="317.12499999999994" style="stroke:black; stroke-width:1.4; " />
<line x1="352.5537109375" y1="313.78450520833326" x2="352.5537109375" y2="320.46549479166663" style="stroke:black; stroke-width:1.4; " />
<text x="349.2861328125" y="338.2647569444444">0</text>
<line x1="373.78749200475147" y1="313.78450520833326" x2="373.78749200475147" y2="320.46549479166663" style="stroke:black; stroke-width:1.4; " />
<text x="370.46864434850147" y="338.2647569444444">2</text>
<line x1="395.02127307200294" y1="313.78450520833326" x2="395.02127307200294" y2="320.46549479166663" style="stroke:black; stroke-width:1.4; " />
<text x="391.55545275950294" y="338.2647569444444">4</text>
<line x1="416.2550541392544" y1="313.78450520833326" x2="416.2550541392544" y2="320.46549479166663" style="stroke:black; stroke-width:1.4; " />
<text x="412.9464603892544" y="338.2647569444444">6</text>
<line x1="437.4888352065058" y1="313.78450520833326" x2="437.4888352065058" y2="320.46549479166663" style="stroke:black; stroke-width:1.4; " />
<text x="434.1870773940058" y="338.2647569444444">8</text>
<line x1="458.7226162737573" y1="313.78450520833326" x2="458.7226162737573" y2="320.46549479166663" style="stroke:black; stroke-width:1.4; " />
<text x="452.0336514300073" y="338.2647569444444">10</text>
<line x1="479.95639734100877" y1="313.78450520833326" x2="479.95639734100877" y2="320.46549479166663" style="stroke:black; stroke-width:1.4; " />
<text x="473.30161218475877" y="338.2647569444444">12</text>
<line x1="501.19017840826024" y1="313.78450520833326" x2="501.19017840826024" y2="320.46549479166663" style="stroke:black; stroke-width:1.4; " />
<text x="494.50463153326024" y="338.2647569444444">14</text>
<line x1="522.4239594755117" y1="313.78450520833326" x2="522.4239594755117" y2="320.46549479166663" style="stroke:black; stroke-width:1.4; " />
<text x="515.7213227567617" y="338.2647569444444">16</text>
<line x1="553.4946546052631" y1="317.12499999999994" x2="611.9091796875" y2="317.12499999999994" style="stroke:black; stroke-width:1.4; " />
<line x1="553.4946546052631" y1="313.78450520833326" x2="553.4946546052631" y2="320.46549479166663" style="stroke:black; stroke-width:1.4; " />
<text x="546.2519788240131" y="338.2647569444444">24</text>
<line x1="582.7019171463816" y1="313.78450520833326" x2="582.7019171463816" y2="320.46549479166663" style="stroke:black; stroke-width:1.4; " />
<text x="575.3122687088816" y="338.2647569444444">48</text>
<line x1="611.9091796875" y1="313.78450520833326" x2="611.9091796875" y2="320.46549479166663" style="stroke:black; stroke-width:1.4; " />
<text x="604.82373046875" y="338.2647569444444">72</text>
</svg>