<svg width="780.83203125" height="264.27560763888886" xmlns="http://www.w3.org/2000/svg">
<style>text {font-family: Arial; font-size: 14px ;}</style>
<desc>Trial design autogenerated by td.py V2.0 (Dec-2021), author: Rainer Strotmann</desc><title>ms200527-0108</title><text x="211.81884765625" y="25.0322265625">S</text>
<text x="426.826171875" y="25.0322265625">Intervention Period</text>
<text x="742.90625" y="25.0322265625">F/U</text>
<rect x="206.544921875" y="33.931857638888886" width="18.525390625" height="20.04296875" style="stroke:black;  stroke-width:1.4; fill:none;" />
<text x="215.8076171875" y="48.964084201388886"></text>
<line x1="225.0703125" y1="43.953342013888886" x2="243.595703125" y2="43.953342013888886" style="stroke:black; stroke-width:1.4; " />
<rect x="243.595703125" y="33.931857638888886" width="18.525390625" height="20.04296875" style="stroke:black;  stroke-width:1.4; fill:none;" />
<text x="248.1416015625" y="48.964084201388886">-1</text>
<rect x="262.12109375" y="33.931857638888886" width="18.525390625" height="20.04296875" style="stroke:black;  stroke-width:0; fill:lightgray;" />
<rect x="262.12109375" y="33.931857638888886" width="18.525390625" height="20.04296875" style="stroke:black;  stroke-width:1.4; fill:none;" />
<text x="267.6923828125" y="48.964084201388886">1</text>
<rect x="280.646484375" y="33.931857638888886" width="18.525390625" height="20.04296875" style="stroke:black;  stroke-width:1.4; fill:none;" />
<text x="286.59033203125" y="48.964084201388886">2</text>
<rect x="299.171875" y="33.931857638888886" width="18.525390625" height="20.04296875" style="stroke:black;  stroke-width:1.4; fill:none;" />
<text x="305.1533203125" y="48.964084201388886">3</text>
<rect x="317.697265625" y="33.931857638888886" width="18.525390625" height="20.04296875" style="stroke:black;  stroke-width:1.4; fill:none;" />
<text x="323.494140625" y="48.964084201388886">4</text>
<rect x="336.22265625" y="33.931857638888886" width="18.525390625" height="20.04296875" style="stroke:black;  stroke-width:1.4; fill:none;" />
<text x="342.1630859375" y="48.964084201388886">5</text>
<rect x="354.748046875" y="33.931857638888886" width="18.525390625" height="20.04296875" style="stroke:black;  stroke-width:1.4; fill:none;" />
<text x="360.7021484375" y="48.964084201388886">6</text>
<rect x="373.2734375" y="33.931857638888886" width="18.525390625" height="20.04296875" style="stroke:black;  stroke-width:1.4; fill:none;" />
<text x="379.29248046875" y="48.964084201388886">7</text>
<rect x="391.798828125" y="33.931857638888886" width="18.525390625" height="20.04296875" style="stroke:black;  stroke-width:0; fill:lightgray;" />
<rect x="391.798828125" y="33.931857638888886" width="18.525390625" height="20.04296875" style="stroke:black;  stroke-width:1.4; fill:none;" />
<text x="397.759765625" y="48.964084201388886">8</text>
<rect x="410.32421875" y="33.931857638888886" width="18.525390625" height="20.04296875" style="stroke:black;  stroke-width:1.4; fill:none;" />
<text x="416.2919921875" y="48.964084201388886">9</text>
<rect x="428.849609375" y="33.931857638888886" width="18.525390625" height="20.04296875" style="stroke:black;  stroke-width:1.4; fill:none;" />
<text x="429.57763671875" y="48.964084201388886">10</text>
<rect x="447.375" y="33.931857638888886" width="18.525390625" height="20.04296875" style="stroke:black;  stroke-width:1.4; fill:none;" />
<text x="449.05322265625" y="48.964084201388886">11</text>
<rect x="465.900390625" y="33.931857638888886" width="18.525390625" height="20.04296875" style="stroke:black;  stroke-width:1.4; fill:none;" />
<text x="466.66259765625" y="48.964084201388886">12</text>
<rect x="484.42578125" y="33.931857638888886" width="18.525390625" height="20.04296875" style="stroke:black;  stroke-width:1.4; fill:none;" />
<text x="485.13671875" y="48.964084201388886">13</text>
<rect x="502.951171875" y="33.931857638888886" width="18.525390625" height="20.04296875" style="stroke:black;  stroke-width:1.4; fill:none;" />
<text x="503.6826171875" y="48.964084201388886">14</text>
<rect x="521.4765625" y="33.931857638888886" width="18.525390625" height="20.04296875" style="stroke:black;  stroke-width:0; fill:lightgray;" />
<rect x="521.4765625" y="33.931857638888886" width="18.525390625" height="20.04296875" style="stroke:black;  stroke-width:1.4; fill:none;" />
<text x="522.14990234375" y="48.964084201388886">15</text>
<rect x="540.001953125" y="33.931857638888886" width="18.525390625" height="20.04296875" style="stroke:black;  stroke-width:1.4; fill:none;" />
<text x="540.71630859375" y="48.964084201388886">16</text>
<rect x="558.52734375" y="33.931857638888886" width="18.525390625" height="20.04296875" style="stroke:black;  stroke-width:1.4; fill:none;" />
<text x="559.23828125" y="48.964084201388886">17</text>
<rect x="577.052734375" y="33.931857638888886" width="18.525390625" height="20.04296875" style="stroke:black;  stroke-width:1.4; fill:none;" />
<text x="577.75341796875" y="48.964084201388886">18</text>
<rect x="595.578125" y="33.931857638888886" width="18.525390625" height="20.04296875" style="stroke:black;  stroke-width:1.4; fill:none;" />
<text x="596.27880859375" y="48.964084201388886">19</text>
<rect x="614.103515625" y="33.931857638888886" width="18.525390625" height="20.04296875" style="stroke:black;  stroke-width:1.4; fill:none;" />
<text x="616.1201171875" y="48.964084201388886">20</text>
<rect x="632.62890625" y="33.931857638888886" width="18.525390625" height="20.04296875" style="stroke:black;  stroke-width:1.4; fill:none;" />
<text x="635.595703125" y="48.964084201388886">21</text>
<rect x="651.154296875" y="33.931857638888886" width="18.525390625" height="20.04296875" style="stroke:black;  stroke-width:0; fill:lightgray;" />
<rect x="651.154296875" y="33.931857638888886" width="18.525390625" height="20.04296875" style="stroke:black;  stroke-width:1.4; fill:none;" />
<text x="653.205078125" y="48.964084201388886">22</text>
<rect x="669.6796875" y="33.931857638888886" width="18.525390625" height="20.04296875" style="stroke:black;  stroke-width:1.4; fill:none;" />
<text x="671.67919921875" y="48.964084201388886">23</text>
<rect x="688.205078125" y="33.931857638888886" width="18.525390625" height="20.04296875" style="stroke:black;  stroke-width:1.4; fill:none;" />
<text x="690.22509765625" y="48.964084201388886">24</text>
<rect x="706.73046875" y="33.931857638888886" width="18.525390625" height="20.04296875" style="stroke:black;  stroke-width:1.4; fill:none;" />
<text x="708.6923828125" y="48.964084201388886">25</text>
<line x1="725.255859375" y1="43.953342013888886" x2="743.78125" y2="43.953342013888886" style="stroke:black; stroke-width:1.4; " />
<rect x="743.78125" y="33.931857638888886" width="18.525390625" height="20.04296875" style="stroke:black;  stroke-width:1.4; fill:none;" />
<text x="745.7841796875" y="48.964084201388886">26</text>
<text x="5" y="84.67335069444444">hospitalization</text>
<rect x="243.595703125" y="75.54327256944444" width="389.033203125" height="8.0171875" style="stroke:black;  stroke-width:1.4; fill:none;" />
<text x="5" y="111.76401909722223">evobrutinib QD</text>
<path d="M271.023015625, 107.37261284722223 L271.023015625, 101.35972222222223 L271.7445625, 101.35972222222223 L271.7445625, 107.37261284722223 L273.638623046875, 107.37261284722223 L271.3837890625, 113.38550347222223 L269.128955078125, 107.37261284722223 L271.023015625, 107.37261284722223 Z" style="stroke: black; fill: black; stroke-width:1.4; " /><path d="M604.480046875, 107.37261284722223 L604.480046875, 101.35972222222223 L605.20159375, 101.35972222222223 L605.20159375, 107.37261284722223 L607.095654296875, 107.37261284722223 L604.8408203125, 113.38550347222223 L602.585986328125, 107.37261284722223 L604.480046875, 107.37261284722223 Z" style="stroke: black; fill: black; stroke-width:1.4; " /><text x="5" y="140.31484375">carbamazepine BID</text>
<path d="M289.54840625, 135.193359375 L289.54840625, 129.18046875 L290.269953125, 129.18046875 L290.269953125, 135.193359375 L292.164013671875, 135.193359375 L289.9091796875, 141.20625 L287.654345703125, 135.193359375 L289.54840625, 135.193359375 Z" style="stroke: black; fill: black; stroke-width:1.4; " /><path d="M308.073796875, 135.193359375 L308.073796875, 129.18046875 L308.79534375, 129.18046875 L308.79534375, 135.193359375 L310.689404296875, 135.193359375 L308.4345703125, 141.20625 L306.179736328125, 135.193359375 L308.073796875, 135.193359375 Z" style="stroke: black; fill: black; stroke-width:1.4; " /><path d="M326.5991875, 135.193359375 L326.5991875, 129.18046875 L327.320734375, 129.18046875 L327.320734375, 135.193359375 L329.214794921875, 135.193359375 L326.9599609375, 141.20625 L324.705126953125, 135.193359375 L326.5991875, 135.193359375 Z" style="stroke: black; fill: black; stroke-width:1.4; " /><path d="M345.124578125, 135.193359375 L345.124578125, 129.18046875 L345.846125, 129.18046875 L345.846125, 135.193359375 L347.740185546875, 135.193359375 L345.4853515625, 141.20625 L343.230517578125, 135.193359375 L345.124578125, 135.193359375 Z" style="stroke: black; fill: black; stroke-width:1.4; " /><path d="M363.64996875, 135.193359375 L363.64996875, 129.18046875 L364.371515625, 129.18046875 L364.371515625, 135.193359375 L366.265576171875, 135.193359375 L364.0107421875, 141.20625 L361.755908203125, 135.193359375 L363.64996875, 135.193359375 Z" style="stroke: black; fill: black; stroke-width:1.4; " /><path d="M382.175359375, 135.193359375 L382.175359375, 129.18046875 L382.89690625, 129.18046875 L382.89690625, 135.193359375 L384.790966796875, 135.193359375 L382.5361328125, 141.20625 L380.281298828125, 135.193359375 L382.175359375, 135.193359375 Z" style="stroke: black; fill: black; stroke-width:1.4; " /><path d="M400.70075, 135.193359375 L400.70075, 129.18046875 L401.422296875, 129.18046875 L401.422296875, 135.193359375 L403.316357421875, 135.193359375 L401.0615234375, 141.20625 L398.806689453125, 135.193359375 L400.70075, 135.193359375 Z" style="stroke: black; fill: black; stroke-width:1.4; " /><path d="M419.226140625, 135.193359375 L419.226140625, 129.18046875 L419.9476875, 129.18046875 L419.9476875, 135.193359375 L421.841748046875, 135.193359375 L419.5869140625, 141.20625 L417.332080078125, 135.193359375 L419.226140625, 135.193359375 Z" style="stroke: black; fill: black; stroke-width:1.4; " /><path d="M437.75153125, 135.193359375 L437.75153125, 129.18046875 L438.473078125, 129.18046875 L438.473078125, 135.193359375 L440.367138671875, 135.193359375 L438.1123046875, 141.20625 L435.857470703125, 135.193359375 L437.75153125, 135.193359375 Z" style="stroke: black; fill: black; stroke-width:1.4; " /><path d="M456.276921875, 135.193359375 L456.276921875, 129.18046875 L456.99846875, 129.18046875 L456.99846875, 135.193359375 L458.892529296875, 135.193359375 L456.6376953125, 141.20625 L454.382861328125, 135.193359375 L456.276921875, 135.193359375 Z" style="stroke: black; fill: black; stroke-width:1.4; " /><path d="M474.8023125, 135.193359375 L474.8023125, 129.18046875 L475.523859375, 129.18046875 L475.523859375, 135.193359375 L477.417919921875, 135.193359375 L475.1630859375, 141.20625 L472.908251953125, 135.193359375 L474.8023125, 135.193359375 Z" style="stroke: black; fill: black; stroke-width:1.4; " /><path d="M493.327703125, 135.193359375 L493.327703125, 129.18046875 L494.04925, 129.18046875 L494.04925, 135.193359375 L495.943310546875, 135.193359375 L493.6884765625, 141.20625 L491.433642578125, 135.193359375 L493.327703125, 135.193359375 Z" style="stroke: black; fill: black; stroke-width:1.4; " /><path d="M511.85309375, 135.193359375 L511.85309375, 129.18046875 L512.574640625, 129.18046875 L512.574640625, 135.193359375 L514.468701171875, 135.193359375 L512.2138671875, 141.20625 L509.959033203125, 135.193359375 L511.85309375, 135.193359375 Z" style="stroke: black; fill: black; stroke-width:1.4; " /><path d="M530.378484375, 135.193359375 L530.378484375, 129.18046875 L531.10003125, 129.18046875 L531.10003125, 135.193359375 L532.994091796875, 135.193359375 L530.7392578125, 141.20625 L528.484423828125, 135.193359375 L530.378484375, 135.193359375 Z" style="stroke: black; fill: black; stroke-width:1.4; " /><path d="M548.903875, 135.193359375 L548.903875, 129.18046875 L549.625421875, 129.18046875 L549.625421875, 135.193359375 L551.519482421875, 135.193359375 L549.2646484375, 141.20625 L547.009814453125, 135.193359375 L548.903875, 135.193359375 Z" style="stroke: black; fill: black; stroke-width:1.4; " /><path d="M567.429265625, 135.193359375 L567.429265625, 129.18046875 L568.1508125, 129.18046875 L568.1508125, 135.193359375 L570.044873046875, 135.193359375 L567.7900390625, 141.20625 L565.535205078125, 135.193359375 L567.429265625, 135.193359375 Z" style="stroke: black; fill: black; stroke-width:1.4; " /><path d="M585.95465625, 135.193359375 L585.95465625, 129.18046875 L586.676203125, 129.18046875 L586.676203125, 135.193359375 L588.570263671875, 135.193359375 L586.3154296875, 141.20625 L584.060595703125, 135.193359375 L585.95465625, 135.193359375 Z" style="stroke: black; fill: black; stroke-width:1.4; " /><path d="M604.480046875, 135.193359375 L604.480046875, 129.18046875 L605.20159375, 129.18046875 L605.20159375, 135.193359375 L607.095654296875, 135.193359375 L604.8408203125, 141.20625 L602.585986328125, 135.193359375 L604.480046875, 135.193359375 Z" style="stroke: black; fill: black; stroke-width:1.4; " /><path d="M623.0054375, 135.193359375 L623.0054375, 129.18046875 L623.726984375, 129.18046875 L623.726984375, 135.193359375 L625.621044921875, 135.193359375 L623.3662109375, 141.20625 L621.111376953125, 135.193359375 L623.0054375, 135.193359375 Z" style="stroke: black; fill: black; stroke-width:1.4; " /><path d="M641.530828125, 135.193359375 L641.530828125, 129.18046875 L642.252375, 129.18046875 L642.252375, 135.193359375 L644.146435546875, 135.193359375 L641.8916015625, 141.20625 L639.636767578125, 135.193359375 L641.530828125, 135.193359375 Z" style="stroke: black; fill: black; stroke-width:1.4; " /><path d="M660.05621875, 135.193359375 L660.05621875, 129.18046875 L660.777765625, 129.18046875 L660.777765625, 135.193359375 L662.671826171875, 135.193359375 L660.4169921875, 141.20625 L658.162158203125, 135.193359375 L660.05621875, 135.193359375 Z" style="stroke: black; fill: black; stroke-width:1.4; " /><path d="M678.581609375, 135.193359375 L678.581609375, 129.18046875 L679.30315625, 129.18046875 L679.30315625, 135.193359375 L681.197216796875, 135.193359375 L678.9423828125, 141.20625 L676.687548828125, 135.193359375 L678.581609375, 135.193359375 Z" style="stroke: black; fill: black; stroke-width:1.4; " /><path d="M697.107, 135.193359375 L697.107, 129.18046875 L697.828546875, 129.18046875 L697.828546875, 135.193359375 L699.722607421875, 135.193359375 L697.4677734375, 141.20625 L695.212939453125, 135.193359375 L697.107, 135.193359375 Z" style="stroke: black; fill: black; stroke-width:1.4; " /><path d="M715.632390625, 135.193359375 L715.632390625, 129.18046875 L716.3539375, 129.18046875 L716.3539375, 135.193359375 L718.247998046875, 135.193359375 L715.9931640625, 141.20625 L713.738330078125, 135.193359375 L715.632390625, 135.193359375 Z" style="stroke: black; fill: black; stroke-width:1.4; " /><text x="5" y="168.26957465277778">Safety lab</text>
<path d="M212.30009765625, 163.01410590277777 L215.8076171875, 155.99906684027778 L219.31513671875, 163.01410590277777 L215.8076171875, 170.02914496527777 L212.30009765625, 163.01410590277777 Z" style="stroke: black; fill: none; stroke-width:1.4; " /><path d="M249.35087890625, 163.01410590277777 L252.8583984375, 155.99906684027778 L256.36591796875, 163.01410590277777 L252.8583984375, 170.02914496527777 L249.35087890625, 163.01410590277777 Z" style="stroke: black; fill: none; stroke-width:1.4; " /><path d="M434.60478515625, 163.01410590277777 L438.1123046875, 155.99906684027778 L441.61982421875, 163.01410590277777 L438.1123046875, 170.02914496527777 L434.60478515625, 163.01410590277777 Z" style="stroke: black; fill: none; stroke-width:1.4; " /><path d="M453.13017578125, 163.01410590277777 L456.6376953125, 155.99906684027778 L460.14521484375, 163.01410590277777 L456.6376953125, 170.02914496527777 L453.13017578125, 163.01410590277777 Z" style="stroke: black; fill: none; stroke-width:1.4; " /><path d="M471.65556640625, 163.01410590277777 L475.1630859375, 155.99906684027778 L478.67060546875, 163.01410590277777 L475.1630859375, 170.02914496527777 L471.65556640625, 163.01410590277777 Z" style="stroke: black; fill: none; stroke-width:1.4; " /><path d="M490.18095703125, 163.01410590277777 L493.6884765625, 155.99906684027778 L497.19599609375, 163.01410590277777 L493.6884765625, 170.02914496527777 L490.18095703125, 163.01410590277777 Z" style="stroke: black; fill: none; stroke-width:1.4; " /><path d="M508.70634765625, 163.01410590277777 L512.2138671875, 155.99906684027778 L515.72138671875, 163.01410590277777 L512.2138671875, 170.02914496527777 L508.70634765625, 163.01410590277777 Z" style="stroke: black; fill: none; stroke-width:1.4; " /><path d="M582.80791015625, 163.01410590277777 L586.3154296875, 155.99906684027778 L589.82294921875, 163.01410590277777 L586.3154296875, 170.02914496527777 L582.80791015625, 163.01410590277777 Z" style="stroke: black; fill: none; stroke-width:1.4; " /><path d="M749.53642578125, 163.01410590277777 L753.0439453125, 155.99906684027778 L756.55146484375, 163.01410590277777 L753.0439453125, 170.02914496527777 L749.53642578125, 163.01410590277777 Z" style="stroke: black; fill: none; stroke-width:1.4; " /><text x="5" y="194.98016493055553">ECG</text>
<path d="M212.30009765625, 190.83485243055554 L215.8076171875, 183.81981336805555 L219.31513671875, 190.83485243055554 L215.8076171875, 197.84989149305554 L212.30009765625, 190.83485243055554 Z" style="stroke: black; fill: none; stroke-width:1.4; " /><path d="M249.35087890625, 190.83485243055554 L252.8583984375, 183.81981336805555 L256.36591796875, 190.83485243055554 L252.8583984375, 197.84989149305554 L249.35087890625, 190.83485243055554 Z" style="stroke: black; fill: none; stroke-width:1.4; " /><path d="M267.87626953125, 190.83485243055554 L271.3837890625, 183.81981336805555 L274.89130859375, 190.83485243055554 L271.3837890625, 197.84989149305554 L267.87626953125, 190.83485243055554 Z" style="stroke: black; fill: none; stroke-width:1.4; " /><path d="M286.40166015625, 190.83485243055554 L289.9091796875, 183.81981336805555 L293.41669921875, 190.83485243055554 L289.9091796875, 197.84989149305554 L286.40166015625, 190.83485243055554 Z" style="stroke: black; fill: none; stroke-width:1.4; " /><path d="M582.80791015625, 190.83485243055554 L586.3154296875, 183.81981336805555 L589.82294921875, 190.83485243055554 L586.3154296875, 197.84989149305554 L582.80791015625, 190.83485243055554 Z" style="stroke: black; fill: none; stroke-width:1.4; " /><path d="M601.33330078125, 190.83485243055554 L604.8408203125, 183.81981336805555 L608.34833984375, 190.83485243055554 L604.8408203125, 197.84989149305554 L601.33330078125, 190.83485243055554 Z" style="stroke: black; fill: none; stroke-width:1.4; " /><path d="M619.85869140625, 190.83485243055554 L623.3662109375, 183.81981336805555 L626.87373046875, 190.83485243055554 L623.3662109375, 197.84989149305554 L619.85869140625, 190.83485243055554 Z" style="stroke: black; fill: none; stroke-width:1.4; " /><path d="M749.53642578125, 190.83485243055554 L753.0439453125, 183.81981336805555 L756.55146484375, 190.83485243055554 L753.0439453125, 197.84989149305554 L749.53642578125, 190.83485243055554 Z" style="stroke: black; fill: none; stroke-width:1.4; " /><text x="5" y="223.84270833333332">PK sampling carbamazepine</text>
<path d="M582.80791015625, 218.65559895833331 L586.3154296875, 211.64055989583332 L589.82294921875, 218.65559895833331 L586.3154296875, 225.6706380208333 L582.80791015625, 218.65559895833331 Z" style="stroke: black; fill: none; stroke-width:1.4; " /><path d="M598.35693359375, 222.41365559895831 L598.35693359375, 214.89754231770831 L611.32470703125, 214.89754231770831 L611.32470703125, 222.41365559895831 L598.35693359375, 222.41365559895831 Z" style="stroke: black; fill: none; stroke-width:1.4; " /><text x="5" y="251.6634548611111">PK sampling evobrutinib</text>
<path d="M264.89990234375, 250.2344021267361 L264.89990234375, 242.7182888454861 L277.86767578125, 242.7182888454861 L277.86767578125, 250.2344021267361 L264.89990234375, 250.2344021267361 Z" style="stroke: black; fill: none; stroke-width:1.4; " /><path d="M286.40166015625, 246.4763454861111 L289.9091796875, 239.4613064236111 L293.41669921875, 246.4763454861111 L289.9091796875, 253.49138454861108 L286.40166015625, 246.4763454861111 Z" style="stroke: black; fill: none; stroke-width:1.4; " /><path d="M598.35693359375, 250.2344021267361 L598.35693359375, 242.7182888454861 L611.32470703125, 242.7182888454861 L611.32470703125, 250.2344021267361 L598.35693359375, 250.2344021267361 Z" style="stroke: black; fill: none; stroke-width:1.4; " /><path d="M619.85869140625, 246.4763454861111 L623.3662109375, 239.4613064236111 L626.87373046875, 246.4763454861111 L623.3662109375, 253.49138454861108 L619.85869140625, 246.4763454861111 Z" style="stroke: black; fill: none; stroke-width:1.4; " /></svg>