<svg width="378.38671875" height="321.4954730902777" xmlns="http://www.w3.org/2000/svg">
<style>text {font-family: Arial; font-size: 14px ;}</style>
<desc>Trial design autogenerated by td.py V2.0 (Jan-2022), author: Rainer Strotmann</desc><title>ms200661-0003</title><path d="M339.2099609375, 10.0 A5.0107421875, 5.0107421875 0 0,0 334.19921875, 15.0107421875L334.19921875, 229.79893663194434 A5.0107421875, 5.0107421875 0 0,0 339.2099609375 234.80967881944434" style="stroke: black; stroke-width:1.4; fill:none" /><path d="M361.9873046875, 10.0 A5.0107421875, 5.0107421875 0 0,1 366.998046875, 15.0107421875L366.998046875, 229.79893663194434 A5.0107421875, 5.0107421875 0 0,1 361.9873046875 234.80967881944434" style="stroke: black; stroke-width:1.4; fill:none" /><text x="142.99462890625" y="25.0322265625">P</text>
<text x="179.88134765625" y="25.0322265625">S</text>
<text x="217.0244140625" y="25.0322265625">Treatment</text>
<text x="301.236328125" y="25.0322265625">EoS</text>
<text x="340.4609375" y="25.0322265625">F/U</text>
<rect x="137.556640625" y="33.931857638888886" width="18.525390625" height="20.04296875" style="stroke:black;  stroke-width:1.4; fill:none;" />
<text x="146.8193359375" y="48.964084201388886"></text>
<line x1="156.08203125" y1="43.953342013888886" x2="174.607421875" y2="43.953342013888886" style="stroke:black; stroke-width:1.4; " />
<rect x="174.607421875" y="33.931857638888886" width="18.525390625" height="20.04296875" style="stroke:black;  stroke-width:1.4; fill:none;" />
<text x="183.8701171875" y="48.964084201388886"></text>
<line x1="193.1328125" y1="43.953342013888886" x2="211.658203125" y2="43.953342013888886" style="stroke:black; stroke-width:1.4; " />
<rect x="211.658203125" y="33.931857638888886" width="18.525390625" height="20.04296875" style="stroke:black;  stroke-width:0; fill:lightgray;" />
<rect x="211.658203125" y="33.931857638888886" width="18.525390625" height="20.04296875" style="stroke:black;  stroke-width:1.4; fill:none;" />
<text x="217.2294921875" y="48.964084201388886">1</text>
<rect x="230.18359375" y="33.931857638888886" width="18.525390625" height="20.04296875" style="stroke:black;  stroke-width:1.4; fill:none;" />
<text x="236.12744140625" y="48.964084201388886">2</text>
<rect x="248.708984375" y="33.931857638888886" width="18.525390625" height="20.04296875" style="stroke:black;  stroke-width:1.4; fill:none;" />
<text x="254.6904296875" y="48.964084201388886">3</text>
<rect x="267.234375" y="33.931857638888886" width="18.525390625" height="20.04296875" style="stroke:black;  stroke-width:1.4; fill:none;" />
<text x="273.03125" y="48.964084201388886">4</text>
<line x1="285.759765625" y1="43.953342013888886" x2="304.28515625" y2="43.953342013888886" style="stroke:black; stroke-width:1.4; " />
<rect x="304.28515625" y="33.931857638888886" width="18.525390625" height="20.04296875" style="stroke:black;  stroke-width:1.4; fill:none;" />
<text x="304.99609375" y="48.964084201388886">17</text>
<line x1="322.810546875" y1="43.953342013888886" x2="341.3359375" y2="43.953342013888886" style="stroke:black; stroke-width:1.4; " />
<rect x="341.3359375" y="33.931857638888886" width="18.525390625" height="20.04296875" style="stroke:black;  stroke-width:1.4; fill:none;" />
<text x="343.38671875" y="48.964084201388886">35</text>
<text x="5" y="83.69444444444444">confinement visit</text>
<rect x="211.658203125" y="75.54327256944444" width="18.525390625" height="8.0171875" style="stroke:black;  stroke-width:1.4; fill:none;" />
<text x="5" y="112.49409722222222">praziquantel</text>
<path d="M220.560125, 107.37261284722223 L220.560125, 101.35972222222223 L221.281671875, 101.35972222222223 L221.281671875, 107.37261284722223 L223.175732421875, 107.37261284722223 L220.9208984375, 113.38550347222223 L218.666064453125, 107.37261284722223 L220.560125, 107.37261284722223 Z" style="stroke: black; fill: black; stroke-width:1.4; " /><text x="5" y="139.3359375">urine filtration</text>
<path d="M143.31181640625, 135.193359375 L146.8193359375, 128.1783203125 L150.32685546875, 135.193359375 L146.8193359375, 142.2083984375 L143.31181640625, 135.193359375 Z" style="stroke: black; fill: none; stroke-width:1.4; " /><path d="M310.04033203125, 135.193359375 L313.5478515625, 128.1783203125 L317.05537109375, 135.193359375 L313.5478515625, 142.2083984375 L310.04033203125, 135.193359375 Z" style="stroke: black; fill: none; stroke-width:1.4; " /><path d="M347.09111328125, 135.193359375 L350.5986328125, 128.1783203125 L354.10615234375, 135.193359375 L350.5986328125, 142.2083984375 L347.09111328125, 135.193359375 Z" style="stroke: black; fill: none; stroke-width:1.4; " /><text x="5" y="167.08832465277777">stool examination</text>
<path d="M143.31181640625, 163.01410590277777 L146.8193359375, 155.99906684027778 L150.32685546875, 163.01410590277777 L146.8193359375, 170.02914496527777 L143.31181640625, 163.01410590277777 Z" style="stroke: black; fill: none; stroke-width:1.4; " /><path d="M310.04033203125, 163.01410590277777 L313.5478515625, 155.99906684027778 L317.05537109375, 163.01410590277777 L313.5478515625, 170.02914496527777 L310.04033203125, 163.01410590277777 Z" style="stroke: black; fill: none; stroke-width:1.4; " /><text x="5" y="196.02196180555555">vital signs</text>
<path d="M214.43701171875, 194.59290907118054 L214.43701171875, 187.07679578993054 L227.40478515625, 187.07679578993054 L227.40478515625, 194.59290907118054 L214.43701171875, 194.59290907118054 Z" style="stroke: black; fill: none; stroke-width:1.4; " /><path d="M310.04033203125, 190.83485243055554 L313.5478515625, 183.81981336805555 L317.05537109375, 190.83485243055554 L313.5478515625, 197.84989149305554 L310.04033203125, 190.83485243055554 Z" style="stroke: black; fill: none; stroke-width:1.4; " /><text x="5" y="223.84270833333332">PK sampling</text>
<path d="M214.43701171875, 222.41365559895831 L214.43701171875, 214.89754231770831 L227.40478515625, 214.89754231770831 L227.40478515625, 222.41365559895831 L214.43701171875, 222.41365559895831 Z" style="stroke: black; fill: none; stroke-width:1.4; " /><path d="M208.31770833333334, 236.4548611111111 A5.041276041666663, 5.041276041666663, 0, 0 0 213.358984375, 241.49613715277775 L215.87962239583334, 241.49613715277775 A5.041276041666663, 5.041276041666663 0, 0 1 220.9208984375, 246.5374131944444 A5.041276041666663, 5.041276041666663, 0, 0 1 225.96217447916666, 241.49613715277775 L228.4828125, 241.49613715277775 A5.041276041666663, 5.041276041666663 0, 0 0 233.52408854166666, 236.4548611111111 " style="stroke: black; stroke-width:1.4; fill:none" /><path d="M208.15068359375, 271.5049913194444 L211.658203125, 264.4899522569444 L215.16572265625, 271.5049913194444 L211.658203125, 278.5200303819444 L208.15068359375, 271.5049913194444 Z" style="stroke: black; fill: none; stroke-width:1.4; " /><path d="M213.44365234375, 271.5049913194444 L216.951171875, 264.4899522569444 L220.45869140625, 271.5049913194444 L216.951171875, 278.5200303819444 L213.44365234375, 271.5049913194444 Z" style="stroke: black; fill: none; stroke-width:1.4; " /><path d="M218.73662109375, 271.5049913194444 L222.244140625, 264.4899522569444 L225.75166015625, 271.5049913194444 L222.244140625, 278.5200303819444 L218.73662109375, 271.5049913194444 Z" style="stroke: black; fill: none; stroke-width:1.4; " /><path d="M229.32255859375, 271.5049913194444 L232.830078125, 264.4899522569444 L236.33759765625, 271.5049913194444 L232.830078125, 278.5200303819444 L229.32255859375, 271.5049913194444 Z" style="stroke: black; fill: none; stroke-width:1.4; " /><path d="M239.90849609375, 271.5049913194444 L243.416015625, 264.4899522569444 L246.92353515625, 271.5049913194444 L243.416015625, 278.5200303819444 L239.90849609375, 271.5049913194444 Z" style="stroke: black; fill: none; stroke-width:1.4; " /><path d="M250.49443359375, 271.5049913194444 L254.001953125, 264.4899522569444 L257.50947265625, 271.5049913194444 L254.001953125, 278.5200303819444 L250.49443359375, 271.5049913194444 Z" style="stroke: black; fill: none; stroke-width:1.4; " /><path d="M271.66630859375, 271.5049913194444 L275.173828125, 264.4899522569444 L278.68134765625, 271.5049913194444 L275.173828125, 278.5200303819444 L271.66630859375, 271.5049913194444 Z" style="stroke: black; fill: none; stroke-width:1.4; " /><path d="M335.18193359375, 271.5049913194444 L338.689453125, 264.4899522569444 L342.19697265625, 271.5049913194444 L338.689453125, 278.5200303819444 L335.18193359375, 271.5049913194444 Z" style="stroke: black; fill: none; stroke-width:1.4; " /><line x1="211.658203125" y1="289.3042534722222" x2="359.861328125" y2="289.3042534722222" style="stroke:black; stroke-width:1.4; " />
<line x1="211.658203125" y1="285.9637586805555" x2="211.658203125" y2="292.64474826388886" style="stroke:black; stroke-width:1.4; " />
<text x="208.390625" y="310.44401041666663">0</text>
<line x1="232.830078125" y1="285.9637586805555" x2="232.830078125" y2="292.64474826388886" style="stroke:black; stroke-width:1.4; " />
<text x="229.51123046875" y="310.44401041666663">2</text>
<line x1="254.001953125" y1="285.9637586805555" x2="254.001953125" y2="292.64474826388886" style="stroke:black; stroke-width:1.4; " />
<text x="250.5361328125" y="310.44401041666663">4</text>
<line x1="275.173828125" y1="285.9637586805555" x2="275.173828125" y2="292.64474826388886" style="stroke:black; stroke-width:1.4; " />
<text x="271.865234375" y="310.44401041666663">6</text>
<line x1="296.345703125" y1="285.9637586805555" x2="296.345703125" y2="292.64474826388886" style="stroke:black; stroke-width:1.4; " />
<text x="293.0439453125" y="310.44401041666663">8</text>
<line x1="317.517578125" y1="285.9637586805555" x2="317.517578125" y2="292.64474826388886" style="stroke:black; stroke-width:1.4; " />
<text x="310.82861328125" y="310.44401041666663">10</text>
<line x1="338.689453125" y1="285.9637586805555" x2="338.689453125" y2="292.64474826388886" style="stroke:black; stroke-width:1.4; " />
<text x="332.03466796875" y="310.44401041666663">12</text>
<text x="332.03466796875" y="310.44401041666663">12</text>
</svg>