<svg width="865.1396484375" height="349.31621961805547" xmlns="http://www.w3.org/2000/svg">
<style>text {font-family: Arial; font-size: 14px ;}</style>
<desc>Trial design autogenerated by td.py V2.0 (Jan-2022), author: Rainer Strotmann</desc><title>ms201618-0003 late</title><text x="166.44873046875" y="25.0322265625">S</text>
<text x="451.43212890625" y="25.0322265625">Treatment phase</text>
<text x="827.2138671875" y="25.0322265625">F/U</text>
<rect x="161.1748046875" y="33.931857638888886" width="18.525390625" height="20.04296875" style="stroke:black;  stroke-width:1.4; fill:none;" />
<text x="170.4375" y="48.964084201388886"></text>
<line x1="179.7001953125" y1="43.953342013888886" x2="198.2255859375" y2="43.953342013888886" style="stroke:black; stroke-width:1.4; " />
<rect x="198.2255859375" y="33.931857638888886" width="18.525390625" height="20.04296875" style="stroke:black;  stroke-width:1.4; fill:none;" />
<text x="202.771484375" y="48.964084201388886">-1</text>
<rect x="216.7509765625" y="33.931857638888886" width="18.525390625" height="20.04296875" style="stroke:black;  stroke-width:0; fill:lightgray;" />
<rect x="216.7509765625" y="33.931857638888886" width="18.525390625" height="20.04296875" style="stroke:black;  stroke-width:1.4; fill:none;" />
<text x="222.322265625" y="48.964084201388886">1</text>
<rect x="235.2763671875" y="33.931857638888886" width="18.525390625" height="20.04296875" style="stroke:black;  stroke-width:1.4; fill:none;" />
<text x="241.22021484375" y="48.964084201388886">2</text>
<rect x="253.8017578125" y="33.931857638888886" width="18.525390625" height="20.04296875" style="stroke:black;  stroke-width:1.4; fill:none;" />
<text x="259.783203125" y="48.964084201388886">3</text>
<rect x="272.3271484375" y="33.931857638888886" width="18.525390625" height="20.04296875" style="stroke:black;  stroke-width:1.4; fill:none;" />
<text x="278.1240234375" y="48.964084201388886">4</text>
<rect x="290.8525390625" y="33.931857638888886" width="18.525390625" height="20.04296875" style="stroke:black;  stroke-width:1.4; fill:none;" />
<text x="296.79296875" y="48.964084201388886">5</text>
<rect x="309.3779296875" y="33.931857638888886" width="18.525390625" height="20.04296875" style="stroke:black;  stroke-width:1.4; fill:none;" />
<text x="315.33203125" y="48.964084201388886">6</text>
<rect x="327.9033203125" y="33.931857638888886" width="18.525390625" height="20.04296875" style="stroke:black;  stroke-width:1.4; fill:none;" />
<text x="333.92236328125" y="48.964084201388886">7</text>
<rect x="346.4287109375" y="33.931857638888886" width="18.525390625" height="20.04296875" style="stroke:black;  stroke-width:0; fill:lightgray;" />
<rect x="346.4287109375" y="33.931857638888886" width="18.525390625" height="20.04296875" style="stroke:black;  stroke-width:1.4; fill:none;" />
<text x="352.3896484375" y="48.964084201388886">8</text>
<rect x="364.9541015625" y="33.931857638888886" width="18.525390625" height="20.04296875" style="stroke:black;  stroke-width:1.4; fill:none;" />
<text x="370.921875" y="48.964084201388886">9</text>
<rect x="383.4794921875" y="33.931857638888886" width="18.525390625" height="20.04296875" style="stroke:black;  stroke-width:1.4; fill:none;" />
<text x="384.20751953125" y="48.964084201388886">10</text>
<rect x="402.0048828125" y="33.931857638888886" width="18.525390625" height="20.04296875" style="stroke:black;  stroke-width:1.4; fill:none;" />
<text x="403.68310546875" y="48.964084201388886">11</text>
<rect x="420.5302734375" y="33.931857638888886" width="18.525390625" height="20.04296875" style="stroke:black;  stroke-width:1.4; fill:none;" />
<text x="421.29248046875" y="48.964084201388886">12</text>
<rect x="439.0556640625" y="33.931857638888886" width="18.525390625" height="20.04296875" style="stroke:black;  stroke-width:1.4; fill:none;" />
<text x="439.7666015625" y="48.964084201388886">13</text>
<rect x="457.5810546875" y="33.931857638888886" width="18.525390625" height="20.04296875" style="stroke:black;  stroke-width:1.4; fill:none;" />
<text x="458.3125" y="48.964084201388886">14</text>
<rect x="476.1064453125" y="33.931857638888886" width="18.525390625" height="20.04296875" style="stroke:black;  stroke-width:0; fill:lightgray;" />
<rect x="476.1064453125" y="33.931857638888886" width="18.525390625" height="20.04296875" style="stroke:black;  stroke-width:1.4; fill:none;" />
<text x="476.77978515625" y="48.964084201388886">15</text>
<rect x="494.6318359375" y="33.931857638888886" width="18.525390625" height="20.04296875" style="stroke:black;  stroke-width:1.4; fill:none;" />
<text x="495.34619140625" y="48.964084201388886">16</text>
<rect x="513.1572265625" y="33.931857638888886" width="18.525390625" height="20.04296875" style="stroke:black;  stroke-width:1.4; fill:none;" />
<text x="513.8681640625" y="48.964084201388886">17</text>
<rect x="531.6826171875" y="33.931857638888886" width="18.525390625" height="20.04296875" style="stroke:black;  stroke-width:1.4; fill:none;" />
<text x="532.38330078125" y="48.964084201388886">18</text>
<rect x="550.2080078125" y="33.931857638888886" width="18.525390625" height="20.04296875" style="stroke:black;  stroke-width:1.4; fill:none;" />
<text x="550.90869140625" y="48.964084201388886">19</text>
<rect x="568.7333984375" y="33.931857638888886" width="18.525390625" height="20.04296875" style="stroke:black;  stroke-width:1.4; fill:none;" />
<text x="570.75" y="48.964084201388886">20</text>
<rect x="587.2587890625" y="33.931857638888886" width="18.525390625" height="20.04296875" style="stroke:black;  stroke-width:1.4; fill:none;" />
<text x="590.2255859375" y="48.964084201388886">21</text>
<rect x="605.7841796875" y="33.931857638888886" width="18.525390625" height="20.04296875" style="stroke:black;  stroke-width:0; fill:lightgray;" />
<rect x="605.7841796875" y="33.931857638888886" width="18.525390625" height="20.04296875" style="stroke:black;  stroke-width:1.4; fill:none;" />
<text x="607.8349609375" y="48.964084201388886">22</text>
<rect x="624.3095703125" y="33.931857638888886" width="18.525390625" height="20.04296875" style="stroke:black;  stroke-width:1.4; fill:none;" />
<text x="626.30908203125" y="48.964084201388886">23</text>
<rect x="642.8349609375" y="33.931857638888886" width="18.525390625" height="20.04296875" style="stroke:black;  stroke-width:1.4; fill:none;" />
<text x="644.85498046875" y="48.964084201388886">24</text>
<rect x="661.3603515625" y="33.931857638888886" width="18.525390625" height="20.04296875" style="stroke:black;  stroke-width:1.4; fill:none;" />
<text x="663.322265625" y="48.964084201388886">25</text>
<rect x="679.8857421875" y="33.931857638888886" width="18.525390625" height="20.04296875" style="stroke:black;  stroke-width:1.4; fill:none;" />
<text x="681.888671875" y="48.964084201388886">26</text>
<rect x="698.4111328125" y="33.931857638888886" width="18.525390625" height="20.04296875" style="stroke:black;  stroke-width:1.4; fill:none;" />
<text x="700.41064453125" y="48.964084201388886">27</text>
<rect x="716.9365234375" y="33.931857638888886" width="18.525390625" height="20.04296875" style="stroke:black;  stroke-width:1.4; fill:none;" />
<text x="718.92578125" y="48.964084201388886">28</text>
<rect x="735.4619140625" y="33.931857638888886" width="18.525390625" height="20.04296875" style="stroke:black;  stroke-width:0; fill:lightgray;" />
<rect x="735.4619140625" y="33.931857638888886" width="18.525390625" height="20.04296875" style="stroke:black;  stroke-width:1.4; fill:none;" />
<text x="737.451171875" y="48.964084201388886">29</text>
<rect x="753.9873046875" y="33.931857638888886" width="18.525390625" height="20.04296875" style="stroke:black;  stroke-width:1.4; fill:none;" />
<text x="756.0927734375" y="48.964084201388886">30</text>
<rect x="772.5126953125" y="33.931857638888886" width="18.525390625" height="20.04296875" style="stroke:black;  stroke-width:1.4; fill:none;" />
<text x="775.568359375" y="48.964084201388886">31</text>
<rect x="791.0380859375" y="33.931857638888886" width="18.525390625" height="20.04296875" style="stroke:black;  stroke-width:1.4; fill:none;" />
<text x="793.177734375" y="48.964084201388886">32</text>
<line x1="809.5634765625" y1="43.953342013888886" x2="828.0888671875" y2="43.953342013888886" style="stroke:black; stroke-width:1.4; " />
<rect x="828.0888671875" y="33.931857638888886" width="18.525390625" height="20.04296875" style="stroke:black;  stroke-width:1.4; fill:none;" />
<text x="830.1806640625" y="48.964084201388886">36</text>
<text x="5" y="84.67335069444444">hospitalization</text>
<rect x="272.3271484375" y="75.54327256944444" width="55.576171875" height="8.0171875" style="stroke:black;  stroke-width:1.4; fill:none;" />
<text x="5" y="112.55972222222223">ambulatory visit</text>
<rect x="198.2255859375" y="103.36401909722223" width="18.525390625" height="8.0171875" style="stroke:black;  stroke-width:1.4; fill:none;" />
<rect x="216.7509765625" y="103.36401909722223" width="18.525390625" height="8.0171875" style="stroke:black;  stroke-width:1.4; fill:none;" />
<rect x="383.4794921875" y="103.36401909722223" width="18.525390625" height="8.0171875" style="stroke:black;  stroke-width:1.4; fill:none;" />
<rect x="402.0048828125" y="103.36401909722223" width="18.525390625" height="8.0171875" style="stroke:black;  stroke-width:1.4; fill:none;" />
<rect x="420.5302734375" y="103.36401909722223" width="18.525390625" height="8.0171875" style="stroke:black;  stroke-width:1.4; fill:none;" />
<rect x="439.0556640625" y="103.36401909722223" width="18.525390625" height="8.0171875" style="stroke:black;  stroke-width:1.4; fill:none;" />
<rect x="457.5810546875" y="103.36401909722223" width="18.525390625" height="8.0171875" style="stroke:black;  stroke-width:1.4; fill:none;" />
<rect x="476.1064453125" y="103.36401909722223" width="18.525390625" height="8.0171875" style="stroke:black;  stroke-width:1.4; fill:none;" />
<rect x="513.1572265625" y="103.36401909722223" width="18.525390625" height="8.0171875" style="stroke:black;  stroke-width:1.4; fill:none;" />
<rect x="531.6826171875" y="103.36401909722223" width="18.525390625" height="8.0171875" style="stroke:black;  stroke-width:1.4; fill:none;" />
<rect x="550.2080078125" y="103.36401909722223" width="18.525390625" height="8.0171875" style="stroke:black;  stroke-width:1.4; fill:none;" />
<rect x="568.7333984375" y="103.36401909722223" width="18.525390625" height="8.0171875" style="stroke:black;  stroke-width:1.4; fill:none;" />
<rect x="587.2587890625" y="103.36401909722223" width="18.525390625" height="8.0171875" style="stroke:black;  stroke-width:1.4; fill:none;" />
<rect x="624.3095703125" y="103.36401909722223" width="18.525390625" height="8.0171875" style="stroke:black;  stroke-width:1.4; fill:none;" />
<rect x="642.8349609375" y="103.36401909722223" width="18.525390625" height="8.0171875" style="stroke:black;  stroke-width:1.4; fill:none;" />
<rect x="679.8857421875" y="103.36401909722223" width="18.525390625" height="8.0171875" style="stroke:black;  stroke-width:1.4; fill:none;" />
<rect x="716.9365234375" y="103.36401909722223" width="18.525390625" height="8.0171875" style="stroke:black;  stroke-width:1.4; fill:none;" />
<rect x="753.9873046875" y="103.36401909722223" width="18.525390625" height="8.0171875" style="stroke:black;  stroke-width:1.4; fill:none;" />
<rect x="791.0380859375" y="103.36401909722223" width="18.525390625" height="8.0171875" style="stroke:black;  stroke-width:1.4; fill:none;" />
<text x="5" y="139.338671875">DVI PfSPZ</text>
<path d="M225.6528984375, 135.193359375 L225.6528984375, 129.18046875 L226.3744453125, 129.18046875 L226.3744453125, 135.193359375 L228.268505859375, 135.193359375 L226.013671875, 141.20625 L223.758837890625, 135.193359375 L225.6528984375, 135.193359375 Z" style="stroke: black; fill: black; stroke-width:1.4; " /><text x="5" y="167.10746527777778">M5717</text>
<path d="M299.7544609375, 163.01410590277777 L299.7544609375, 157.00121527777776 L300.4760078125, 157.00121527777776 L300.4760078125, 163.01410590277777 L302.370068359375, 163.01410590277777 L300.115234375, 169.02699652777778 L297.860400390625, 163.01410590277777 L299.7544609375, 163.01410590277777 Z" style="stroke: black; fill: black; stroke-width:1.4; " /><text x="5" y="194.90907118055554">rescue medication</text>
<path d="M799.9400078125, 190.83485243055554 L799.9400078125, 184.82196180555553 L800.6615546875, 184.82196180555553 L800.6615546875, 190.83485243055554 L802.555615234375, 190.83485243055554 L800.30078125, 196.84774305555555 L798.045947265625, 190.83485243055554 L799.9400078125, 190.83485243055554 Z" style="stroke: black; fill: black; stroke-width:1.4; " /><text x="5" y="223.91106770833332">parasitemia by qPCR</text>
<path d="M222.50615234375, 218.65559895833331 L226.013671875, 211.64055989583332 L229.52119140625, 218.65559895833331 L226.013671875, 225.6706380208333 L222.50615234375, 218.65559895833331 Z" style="stroke: black; fill: none; stroke-width:1.4; " /><path d="M315.13310546875, 218.65559895833331 L318.640625, 211.64055989583332 L322.14814453125, 218.65559895833331 L318.640625, 225.6706380208333 L315.13310546875, 218.65559895833331 Z" style="stroke: black; fill: none; stroke-width:1.4; " /><path d="M333.65849609375, 218.65559895833331 L337.166015625, 211.64055989583332 L340.67353515625, 218.65559895833331 L337.166015625, 225.6706380208333 L333.65849609375, 218.65559895833331 Z" style="stroke: black; fill: none; stroke-width:1.4; " /><path d="M352.18388671875, 218.65559895833331 L355.69140625, 211.64055989583332 L359.19892578125, 218.65559895833331 L355.69140625, 225.6706380208333 L352.18388671875, 218.65559895833331 Z" style="stroke: black; fill: none; stroke-width:1.4; " /><path d="M370.70927734375, 218.65559895833331 L374.216796875, 211.64055989583332 L377.72431640625, 218.65559895833331 L374.216796875, 225.6706380208333 L370.70927734375, 218.65559895833331 Z" style="stroke: black; fill: none; stroke-width:1.4; " /><path d="M389.23466796875, 218.65559895833331 L392.7421875, 211.64055989583332 L396.24970703125, 218.65559895833331 L392.7421875, 225.6706380208333 L389.23466796875, 218.65559895833331 Z" style="stroke: black; fill: none; stroke-width:1.4; " /><path d="M407.76005859375, 218.65559895833331 L411.267578125, 211.64055989583332 L414.77509765625, 218.65559895833331 L411.267578125, 225.6706380208333 L407.76005859375, 218.65559895833331 Z" style="stroke: black; fill: none; stroke-width:1.4; " /><path d="M426.28544921875, 218.65559895833331 L429.79296875, 211.64055989583332 L433.30048828125, 218.65559895833331 L429.79296875, 225.6706380208333 L426.28544921875, 218.65559895833331 Z" style="stroke: black; fill: none; stroke-width:1.4; " /><path d="M444.81083984375, 218.65559895833331 L448.318359375, 211.64055989583332 L451.82587890625, 218.65559895833331 L448.318359375, 225.6706380208333 L444.81083984375, 218.65559895833331 Z" style="stroke: black; fill: none; stroke-width:1.4; " /><path d="M463.33623046875, 218.65559895833331 L466.84375, 211.64055989583332 L470.35126953125, 218.65559895833331 L466.84375, 225.6706380208333 L463.33623046875, 218.65559895833331 Z" style="stroke: black; fill: none; stroke-width:1.4; " /><path d="M481.86162109375, 218.65559895833331 L485.369140625, 211.64055989583332 L488.87666015625, 218.65559895833331 L485.369140625, 225.6706380208333 L481.86162109375, 218.65559895833331 Z" style="stroke: black; fill: none; stroke-width:1.4; " /><path d="M500.38701171875, 218.65559895833331 L503.89453125, 211.64055989583332 L507.40205078125, 218.65559895833331 L503.89453125, 225.6706380208333 L500.38701171875, 218.65559895833331 Z" style="stroke: black; fill: none; stroke-width:1.4; " /><path d="M518.91240234375, 218.65559895833331 L522.419921875, 211.64055989583332 L525.92744140625, 218.65559895833331 L522.419921875, 225.6706380208333 L518.91240234375, 218.65559895833331 Z" style="stroke: black; fill: none; stroke-width:1.4; " /><path d="M537.43779296875, 218.65559895833331 L540.9453125, 211.64055989583332 L544.45283203125, 218.65559895833331 L540.9453125, 225.6706380208333 L537.43779296875, 218.65559895833331 Z" style="stroke: black; fill: none; stroke-width:1.4; " /><path d="M555.96318359375, 218.65559895833331 L559.470703125, 211.64055989583332 L562.97822265625, 218.65559895833331 L559.470703125, 225.6706380208333 L555.96318359375, 218.65559895833331 Z" style="stroke: black; fill: none; stroke-width:1.4; " /><path d="M574.48857421875, 218.65559895833331 L577.99609375, 211.64055989583332 L581.50361328125, 218.65559895833331 L577.99609375, 225.6706380208333 L574.48857421875, 218.65559895833331 Z" style="stroke: black; fill: none; stroke-width:1.4; " /><path d="M593.01396484375, 218.65559895833331 L596.521484375, 211.64055989583332 L600.02900390625, 218.65559895833331 L596.521484375, 225.6706380208333 L593.01396484375, 218.65559895833331 Z" style="stroke: black; fill: none; stroke-width:1.4; " /><path d="M611.53935546875, 218.65559895833331 L615.046875, 211.64055989583332 L618.55439453125, 218.65559895833331 L615.046875, 225.6706380208333 L611.53935546875, 218.65559895833331 Z" style="stroke: black; fill: none; stroke-width:1.4; " /><path d="M630.06474609375, 218.65559895833331 L633.572265625, 211.64055989583332 L637.07978515625, 218.65559895833331 L633.572265625, 225.6706380208333 L630.06474609375, 218.65559895833331 Z" style="stroke: black; fill: none; stroke-width:1.4; " /><path d="M648.59013671875, 218.65559895833331 L652.09765625, 211.64055989583332 L655.60517578125, 218.65559895833331 L652.09765625, 225.6706380208333 L648.59013671875, 218.65559895833331 Z" style="stroke: black; fill: none; stroke-width:1.4; " /><path d="M685.64091796875, 218.65559895833331 L689.1484375, 211.64055989583332 L692.65595703125, 218.65559895833331 L689.1484375, 225.6706380208333 L685.64091796875, 218.65559895833331 Z" style="stroke: black; fill: none; stroke-width:1.4; " /><path d="M722.69169921875, 218.65559895833331 L726.19921875, 211.64055989583332 L729.70673828125, 218.65559895833331 L726.19921875, 225.6706380208333 L722.69169921875, 218.65559895833331 Z" style="stroke: black; fill: none; stroke-width:1.4; " /><path d="M759.74248046875, 218.65559895833331 L763.25, 211.64055989583332 L766.75751953125, 218.65559895833331 L763.25, 225.6706380208333 L759.74248046875, 218.65559895833331 Z" style="stroke: black; fill: none; stroke-width:1.4; " /><path d="M796.79326171875, 218.65559895833331 L800.30078125, 211.64055989583332 L803.80830078125, 218.65559895833331 L800.30078125, 225.6706380208333 L796.79326171875, 218.65559895833331 Z" style="stroke: black; fill: none; stroke-width:1.4; " /><path d="M833.84404296875, 218.65559895833331 L837.3515625, 211.64055989583332 L840.85908203125, 218.65559895833331 L837.3515625, 225.6706380208333 L833.84404296875, 218.65559895833331 Z" style="stroke: black; fill: none; stroke-width:1.4; " /><text x="5" y="251.6634548611111">PK sampling</text>
<path d="M293.63134765625, 250.2344021267361 L293.63134765625, 242.7182888454861 L306.59912109375, 242.7182888454861 L306.59912109375, 250.2344021267361 L293.63134765625, 250.2344021267361 Z" style="stroke: black; fill: none; stroke-width:1.4; " /><path d="M315.13310546875, 246.4763454861111 L318.640625, 239.4613064236111 L322.14814453125, 246.4763454861111 L318.640625, 253.49138454861108 L315.13310546875, 246.4763454861111 Z" style="stroke: black; fill: none; stroke-width:1.4; " /><path d="M389.23466796875, 246.4763454861111 L392.7421875, 239.4613064236111 L396.24970703125, 246.4763454861111 L392.7421875, 253.49138454861108 L389.23466796875, 246.4763454861111 Z" style="stroke: black; fill: none; stroke-width:1.4; " /><path d="M426.28544921875, 246.4763454861111 L429.79296875, 239.4613064236111 L433.30048828125, 246.4763454861111 L429.79296875, 253.49138454861108 L426.28544921875, 246.4763454861111 Z" style="stroke: black; fill: none; stroke-width:1.4; " /><path d="M444.81083984375, 246.4763454861111 L448.318359375, 239.4613064236111 L451.82587890625, 246.4763454861111 L448.318359375, 253.49138454861108 L444.81083984375, 246.4763454861111 Z" style="stroke: black; fill: none; stroke-width:1.4; " /><path d="M759.74248046875, 246.4763454861111 L763.25, 239.4613064236111 L766.75751953125, 246.4763454861111 L763.25, 253.49138454861108 L759.74248046875, 246.4763454861111 Z" style="stroke: black; fill: none; stroke-width:1.4; " /><path d="M758.34521484375, 236.4548611111111 A2.50537109375, 2.50537109375 0 0,0 755.83984375, 238.9602322048611L755.83984375, 253.9924587673611 A2.50537109375, 2.50537109375 0 0,0 758.34521484375 256.4978298611111" style="stroke: black; stroke-width:1.4; fill:none" /><path d="M768.15478515625, 236.4548611111111 A2.50537109375, 2.50537109375 0 0,1 770.66015625, 238.9602322048611L770.66015625, 253.9924587673611 A2.50537109375, 2.50537109375 0 0,1 768.15478515625 256.4978298611111" style="stroke: black; stroke-width:1.4; fill:none" /><path d="M833.84404296875, 246.4763454861111 L837.3515625, 239.4613064236111 L840.85908203125, 246.4763454861111 L837.3515625, 253.49138454861108 L833.84404296875, 246.4763454861111 Z" style="stroke: black; fill: none; stroke-width:1.4; " /><path d="M290.8525390625, 264.27560763888886 A6.680989583333333, 6.680989583333333, 0, 0 0 297.5335286458333, 270.9565972222222 L367.5358072916667, 270.9565972222222 A6.680989583333333, 6.680989583333333 0, 0 1 374.216796875, 277.63758680555554 A6.680989583333333, 6.680989583333333, 0, 0 1 380.8977864583333, 270.9565972222222 L450.9000651041667, 270.9565972222222 A6.680989583333333, 6.680989583333333 0, 0 0 457.5810546875, 264.27560763888886 " style="stroke: black; stroke-width:1.4; fill:none" /><path d="M287.34501953125, 299.3257378472222 L290.8525390625, 292.31069878472215 L294.36005859375, 299.3257378472222 L290.8525390625, 306.3407769097222 L287.34501953125, 299.3257378472222 Z" style="stroke: black; fill: none; stroke-width:1.4; " /><path d="M291.9763671875, 299.3257378472222 L295.48388671875, 292.31069878472215 L298.99140625, 299.3257378472222 L295.48388671875, 306.3407769097222 L291.9763671875, 299.3257378472222 Z" style="stroke: black; fill: none; stroke-width:1.4; " /><path d="M296.60771484375, 299.3257378472222 L300.115234375, 292.31069878472215 L303.62275390625, 299.3257378472222 L300.115234375, 306.3407769097222 L296.60771484375, 299.3257378472222 Z" style="stroke: black; fill: none; stroke-width:1.4; " /><path d="M305.87041015625, 299.3257378472222 L309.3779296875, 292.31069878472215 L312.88544921875, 299.3257378472222 L309.3779296875, 306.3407769097222 L305.87041015625, 299.3257378472222 Z" style="stroke: black; fill: none; stroke-width:1.4; " /><path d="M315.13310546875, 299.3257378472222 L318.640625, 292.31069878472215 L322.14814453125, 299.3257378472222 L318.640625, 306.3407769097222 L315.13310546875, 299.3257378472222 Z" style="stroke: black; fill: none; stroke-width:1.4; " /><path d="M342.92119140625, 299.3257378472222 L346.4287109375, 292.31069878472215 L349.93623046875, 299.3257378472222 L346.4287109375, 306.3407769097222 L342.92119140625, 299.3257378472222 Z" style="stroke: black; fill: none; stroke-width:1.4; " /><path d="M398.49736328125, 299.3257378472222 L402.0048828125, 292.31069878472215 L405.51240234375, 299.3257378472222 L402.0048828125, 306.3407769097222 L398.49736328125, 299.3257378472222 Z" style="stroke: black; fill: none; stroke-width:1.4; " /><path d="M426.85966796875, 299.3257378472222 L430.3671875, 292.31069878472215 L433.87470703125, 299.3257378472222 L430.3671875, 306.3407769097222 L426.85966796875, 299.3257378472222 Z" style="stroke: black; fill: none; stroke-width:1.4; " /><path d="M463.58232421875, 299.3257378472222 L467.08984375, 292.31069878472215 L470.59736328125, 299.3257378472222 L467.08984375, 306.3407769097222 L463.58232421875, 299.3257378472222 Z" style="stroke: black; fill: none; stroke-width:1.4; " /><path d="M481.94365234375, 299.3257378472222 L485.451171875, 292.31069878472215 L488.95869140625, 299.3257378472222 L485.451171875, 306.3407769097222 L481.94365234375, 299.3257378472222 Z" style="stroke: black; fill: none; stroke-width:1.4; " /><path d="M491.12431640625, 299.3257378472222 L494.6318359375, 292.31069878472215 L498.13935546875, 299.3257378472222 L494.6318359375, 306.3407769097222 L491.12431640625, 299.3257378472222 Z" style="stroke: black; fill: none; stroke-width:1.4; " /><line x1="290.8525390625" y1="317.12499999999994" x2="420.5302734375" y2="317.12499999999994" style="stroke:black; stroke-width:1.4; " />
<line x1="290.8525390625" y1="313.78450520833326" x2="290.8525390625" y2="320.46549479166663" style="stroke:black; stroke-width:1.4; " />
<text x="287.5849609375" y="338.2647569444444">0</text>
<line x1="309.3779296875" y1="313.78450520833326" x2="309.3779296875" y2="320.46549479166663" style="stroke:black; stroke-width:1.4; " />
<text x="306.05908203125" y="338.2647569444444">2</text>
<line x1="327.9033203125" y1="313.78450520833326" x2="327.9033203125" y2="320.46549479166663" style="stroke:black; stroke-width:1.4; " />
<text x="324.4375" y="338.2647569444444">4</text>
<line x1="346.4287109375" y1="313.78450520833326" x2="346.4287109375" y2="320.46549479166663" style="stroke:black; stroke-width:1.4; " />
<text x="343.1201171875" y="338.2647569444444">6</text>
<line x1="364.9541015625" y1="313.78450520833326" x2="364.9541015625" y2="320.46549479166663" style="stroke:black; stroke-width:1.4; " />
<text x="361.65234375" y="338.2647569444444">8</text>
<line x1="383.4794921875" y1="313.78450520833326" x2="383.4794921875" y2="320.46549479166663" style="stroke:black; stroke-width:1.4; " />
<text x="376.79052734375" y="338.2647569444444">10</text>
<line x1="402.0048828125" y1="313.78450520833326" x2="402.0048828125" y2="320.46549479166663" style="stroke:black; stroke-width:1.4; " />
<text x="395.35009765625" y="338.2647569444444">12</text>
<text x="395.35009765625" y="338.2647569444444">12</text>
<line x1="430.3671875" y1="317.12499999999994" x2="494.6318359375" y2="317.12499999999994" style="stroke:black; stroke-width:1.4; " />
<line x1="430.3671875" y1="313.78450520833326" x2="430.3671875" y2="320.46549479166663" style="stroke:black; stroke-width:1.4; " />
<text x="423.12451171875" y="338.2647569444444">24</text>
<line x1="439.5478515625" y1="313.78450520833326" x2="439.5478515625" y2="320.46549479166663" style="stroke:black; stroke-width:1.4; " />
<line x1="448.728515625" y1="313.78450520833326" x2="448.728515625" y2="320.46549479166663" style="stroke:black; stroke-width:1.4; " />
<text x="441.64306640625" y="338.2647569444444">72</text>
<line x1="457.9091796875" y1="313.78450520833326" x2="457.9091796875" y2="320.46549479166663" style="stroke:black; stroke-width:1.4; " />
<line x1="467.08984375" y1="313.78450520833326" x2="467.08984375" y2="320.46549479166663" style="stroke:black; stroke-width:1.4; " />
<line x1="476.2705078125" y1="313.78450520833326" x2="476.2705078125" y2="320.46549479166663" style="stroke:black; stroke-width:1.4; " />
<line x1="485.451171875" y1="313.78450520833326" x2="485.451171875" y2="320.46549479166663" style="stroke:black; stroke-width:1.4; " />
<line x1="494.6318359375" y1="313.78450520833326" x2="494.6318359375" y2="320.46549479166663" style="stroke:black; stroke-width:1.4; " />
<text x="484.083984375" y="338.2647569444444">192 h</text>
</svg>