<svg width="534.6972656250001" height="264.27560763888886" xmlns="http://www.w3.org/2000/svg">
<style>text {font-family: Arial; font-size: 14px ;}</style>
<desc>Trial design autogenerated by td.py V2.0 (Dec-2021), author: Rainer Strotmann</desc><title>ms201618-0033</title><text x="169.46337890625" y="25.0322265625">S</text>
<text x="287.71826171875006" y="25.0322265625">Treatment phase</text>
<text x="496.7714843750001" y="25.0322265625">F/U</text>
<rect x="164.189453125" y="33.931857638888886" width="18.525390625" height="20.04296875" style="stroke:black;  stroke-width:1.4; fill:none;" />
<text x="173.4521484375" y="48.964084201388886"></text>
<line x1="182.71484375" y1="43.953342013888886" x2="201.240234375" y2="43.953342013888886" style="stroke:black; stroke-width:1.4; " />
<rect x="201.240234375" y="33.931857638888886" width="18.525390625" height="20.04296875" style="stroke:black;  stroke-width:0; fill:lightgray;" />
<rect x="201.240234375" y="33.931857638888886" width="18.525390625" height="20.04296875" style="stroke:black;  stroke-width:1.4; fill:none;" />
<text x="206.8115234375" y="48.964084201388886">1</text>
<rect x="219.765625" y="33.931857638888886" width="18.525390625" height="20.04296875" style="stroke:black;  stroke-width:1.4; fill:none;" />
<text x="225.70947265625" y="48.964084201388886">2</text>
<rect x="238.291015625" y="33.931857638888886" width="18.525390625" height="20.04296875" style="stroke:black;  stroke-width:1.4; fill:none;" />
<text x="244.2724609375" y="48.964084201388886">3</text>
<rect x="256.81640625" y="33.931857638888886" width="18.525390625" height="20.04296875" style="stroke:black;  stroke-width:1.4; fill:none;" />
<text x="262.61328125" y="48.964084201388886">4</text>
<line x1="275.341796875" y1="33.931857638888886" x2="281.5169270833333" y2="33.931857638888886" style="stroke:black; stroke-width:1.4; stroke-dasharray: 4.199999999999999 4.199999999999999" />
<line x1="275.341796875" y1="53.974826388888886" x2="281.5169270833333" y2="53.974826388888886" style="stroke:black; stroke-width:1.4; stroke-dasharray: 4.199999999999999 4.199999999999999" />
<line x1="281.5169270833333" y1="33.931857638888886" x2="287.69205729166663" y2="33.931857638888886" style="stroke:black; stroke-width:1.4; stroke-dasharray: 4.199999999999999 4.199999999999999" />
<line x1="281.5169270833333" y1="53.974826388888886" x2="287.69205729166663" y2="53.974826388888886" style="stroke:black; stroke-width:1.4; stroke-dasharray: 4.199999999999999 4.199999999999999" />
<line x1="287.69205729166663" y1="33.931857638888886" x2="293.86718749999994" y2="33.931857638888886" style="stroke:black; stroke-width:1.4; stroke-dasharray: 4.199999999999999 4.199999999999999" />
<line x1="287.69205729166663" y1="53.974826388888886" x2="293.86718749999994" y2="53.974826388888886" style="stroke:black; stroke-width:1.4; stroke-dasharray: 4.199999999999999 4.199999999999999" />
<rect x="293.86718749999994" y="33.931857638888886" width="18.525390625" height="20.04296875" style="stroke:black;  stroke-width:0; fill:lightgray;" />
<rect x="293.86718749999994" y="33.931857638888886" width="18.525390625" height="20.04296875" style="stroke:black;  stroke-width:1.4; fill:none;" />
<text x="299.82812499999994" y="48.964084201388886">8</text>
<line x1="312.39257812499994" y1="33.931857638888886" x2="318.56770833333326" y2="33.931857638888886" style="stroke:black; stroke-width:1.4; stroke-dasharray: 4.199999999999999 4.199999999999999" />
<line x1="312.39257812499994" y1="53.974826388888886" x2="318.56770833333326" y2="53.974826388888886" style="stroke:black; stroke-width:1.4; stroke-dasharray: 4.199999999999999 4.199999999999999" />
<text x="315.48014322916663" y="48.964084201388886"></text>
<line x1="318.56770833333326" y1="33.931857638888886" x2="324.7428385416666" y2="33.931857638888886" style="stroke:black; stroke-width:1.4; stroke-dasharray: 4.199999999999999 4.199999999999999" />
<line x1="318.56770833333326" y1="53.974826388888886" x2="324.7428385416666" y2="53.974826388888886" style="stroke:black; stroke-width:1.4; stroke-dasharray: 4.199999999999999 4.199999999999999" />
<text x="321.65527343749994" y="48.964084201388886"></text>
<line x1="324.7428385416666" y1="33.931857638888886" x2="330.9179687499999" y2="33.931857638888886" style="stroke:black; stroke-width:1.4; stroke-dasharray: 4.199999999999999 4.199999999999999" />
<line x1="324.7428385416666" y1="53.974826388888886" x2="330.9179687499999" y2="53.974826388888886" style="stroke:black; stroke-width:1.4; stroke-dasharray: 4.199999999999999 4.199999999999999" />
<text x="327.83040364583326" y="48.964084201388886"></text>
<line x1="330.9179687499999" y1="33.931857638888886" x2="337.0930989583332" y2="33.931857638888886" style="stroke:black; stroke-width:1.4; stroke-dasharray: 4.199999999999999 4.199999999999999" />
<line x1="330.9179687499999" y1="53.974826388888886" x2="337.0930989583332" y2="53.974826388888886" style="stroke:black; stroke-width:1.4; stroke-dasharray: 4.199999999999999 4.199999999999999" />
<text x="334.0055338541666" y="48.964084201388886"></text>
<line x1="337.0930989583332" y1="33.931857638888886" x2="343.2682291666665" y2="33.931857638888886" style="stroke:black; stroke-width:1.4; stroke-dasharray: 4.199999999999999 4.199999999999999" />
<line x1="337.0930989583332" y1="53.974826388888886" x2="343.2682291666665" y2="53.974826388888886" style="stroke:black; stroke-width:1.4; stroke-dasharray: 4.199999999999999 4.199999999999999" />
<text x="340.1806640624999" y="48.964084201388886"></text>
<line x1="343.2682291666665" y1="33.931857638888886" x2="349.44335937499983" y2="33.931857638888886" style="stroke:black; stroke-width:1.4; stroke-dasharray: 4.199999999999999 4.199999999999999" />
<line x1="343.2682291666665" y1="53.974826388888886" x2="349.44335937499983" y2="53.974826388888886" style="stroke:black; stroke-width:1.4; stroke-dasharray: 4.199999999999999 4.199999999999999" />
<text x="346.3557942708332" y="48.964084201388886"></text>
<rect x="349.44335937499983" y="33.931857638888886" width="18.525390625" height="20.04296875" style="stroke:black;  stroke-width:0; fill:lightgray;" />
<rect x="349.44335937499983" y="33.931857638888886" width="18.525390625" height="20.04296875" style="stroke:black;  stroke-width:1.4; fill:none;" />
<text x="350.11669921874983" y="48.964084201388886">15</text>
<line x1="367.96874999999983" y1="33.931857638888886" x2="374.14388020833314" y2="33.931857638888886" style="stroke:black; stroke-width:1.4; stroke-dasharray: 4.199999999999999 4.199999999999999" />
<line x1="367.96874999999983" y1="53.974826388888886" x2="374.14388020833314" y2="53.974826388888886" style="stroke:black; stroke-width:1.4; stroke-dasharray: 4.199999999999999 4.199999999999999" />
<text x="371.0563151041665" y="48.964084201388886"></text>
<line x1="374.14388020833314" y1="33.931857638888886" x2="380.31901041666646" y2="33.931857638888886" style="stroke:black; stroke-width:1.4; stroke-dasharray: 4.199999999999999 4.199999999999999" />
<line x1="374.14388020833314" y1="53.974826388888886" x2="380.31901041666646" y2="53.974826388888886" style="stroke:black; stroke-width:1.4; stroke-dasharray: 4.199999999999999 4.199999999999999" />
<text x="377.23144531249983" y="48.964084201388886"></text>
<line x1="380.31901041666646" y1="33.931857638888886" x2="386.4941406249998" y2="33.931857638888886" style="stroke:black; stroke-width:1.4; stroke-dasharray: 4.199999999999999 4.199999999999999" />
<line x1="380.31901041666646" y1="53.974826388888886" x2="386.4941406249998" y2="53.974826388888886" style="stroke:black; stroke-width:1.4; stroke-dasharray: 4.199999999999999 4.199999999999999" />
<text x="383.40657552083314" y="48.964084201388886"></text>
<line x1="386.4941406249998" y1="33.931857638888886" x2="392.6692708333331" y2="33.931857638888886" style="stroke:black; stroke-width:1.4; stroke-dasharray: 4.199999999999999 4.199999999999999" />
<line x1="386.4941406249998" y1="53.974826388888886" x2="392.6692708333331" y2="53.974826388888886" style="stroke:black; stroke-width:1.4; stroke-dasharray: 4.199999999999999 4.199999999999999" />
<text x="389.58170572916646" y="48.964084201388886"></text>
<line x1="392.6692708333331" y1="33.931857638888886" x2="398.8444010416664" y2="33.931857638888886" style="stroke:black; stroke-width:1.4; stroke-dasharray: 4.199999999999999 4.199999999999999" />
<line x1="392.6692708333331" y1="53.974826388888886" x2="398.8444010416664" y2="53.974826388888886" style="stroke:black; stroke-width:1.4; stroke-dasharray: 4.199999999999999 4.199999999999999" />
<text x="395.7568359374998" y="48.964084201388886"></text>
<line x1="398.8444010416664" y1="33.931857638888886" x2="405.0195312499997" y2="33.931857638888886" style="stroke:black; stroke-width:1.4; stroke-dasharray: 4.199999999999999 4.199999999999999" />
<line x1="398.8444010416664" y1="53.974826388888886" x2="405.0195312499997" y2="53.974826388888886" style="stroke:black; stroke-width:1.4; stroke-dasharray: 4.199999999999999 4.199999999999999" />
<text x="401.9319661458331" y="48.964084201388886"></text>
<rect x="405.0195312499997" y="33.931857638888886" width="18.525390625" height="20.04296875" style="stroke:black;  stroke-width:0; fill:lightgray;" />
<rect x="405.0195312499997" y="33.931857638888886" width="18.525390625" height="20.04296875" style="stroke:black;  stroke-width:1.4; fill:none;" />
<text x="407.0703124999997" y="48.964084201388886">22</text>
<line x1="423.5449218749997" y1="33.931857638888886" x2="429.72005208333303" y2="33.931857638888886" style="stroke:black; stroke-width:1.4; stroke-dasharray: 4.199999999999999 4.199999999999999" />
<line x1="423.5449218749997" y1="53.974826388888886" x2="429.72005208333303" y2="53.974826388888886" style="stroke:black; stroke-width:1.4; stroke-dasharray: 4.199999999999999 4.199999999999999" />
<text x="426.6324869791664" y="48.964084201388886"></text>
<line x1="429.72005208333303" y1="33.931857638888886" x2="435.89518229166634" y2="33.931857638888886" style="stroke:black; stroke-width:1.4; stroke-dasharray: 4.199999999999999 4.199999999999999" />
<line x1="429.72005208333303" y1="53.974826388888886" x2="435.89518229166634" y2="53.974826388888886" style="stroke:black; stroke-width:1.4; stroke-dasharray: 4.199999999999999 4.199999999999999" />
<text x="432.8076171874997" y="48.964084201388886"></text>
<line x1="435.89518229166634" y1="33.931857638888886" x2="442.07031249999966" y2="33.931857638888886" style="stroke:black; stroke-width:1.4; stroke-dasharray: 4.199999999999999 4.199999999999999" />
<line x1="435.89518229166634" y1="53.974826388888886" x2="442.07031249999966" y2="53.974826388888886" style="stroke:black; stroke-width:1.4; stroke-dasharray: 4.199999999999999 4.199999999999999" />
<text x="438.98274739583303" y="48.964084201388886"></text>
<line x1="442.07031249999966" y1="33.931857638888886" x2="448.245442708333" y2="33.931857638888886" style="stroke:black; stroke-width:1.4; stroke-dasharray: 4.199999999999999 4.199999999999999" />
<line x1="442.07031249999966" y1="53.974826388888886" x2="448.245442708333" y2="53.974826388888886" style="stroke:black; stroke-width:1.4; stroke-dasharray: 4.199999999999999 4.199999999999999" />
<text x="445.15787760416634" y="48.964084201388886"></text>
<line x1="448.245442708333" y1="33.931857638888886" x2="454.4205729166663" y2="33.931857638888886" style="stroke:black; stroke-width:1.4; stroke-dasharray: 4.199999999999999 4.199999999999999" />
<line x1="448.245442708333" y1="53.974826388888886" x2="454.4205729166663" y2="53.974826388888886" style="stroke:black; stroke-width:1.4; stroke-dasharray: 4.199999999999999 4.199999999999999" />
<text x="451.33300781249966" y="48.964084201388886"></text>
<line x1="454.4205729166663" y1="33.931857638888886" x2="460.5957031249996" y2="33.931857638888886" style="stroke:black; stroke-width:1.4; stroke-dasharray: 4.199999999999999 4.199999999999999" />
<line x1="454.4205729166663" y1="53.974826388888886" x2="460.5957031249996" y2="53.974826388888886" style="stroke:black; stroke-width:1.4; stroke-dasharray: 4.199999999999999 4.199999999999999" />
<text x="457.508138020833" y="48.964084201388886"></text>
<rect x="460.5957031249996" y="33.931857638888886" width="18.525390625" height="20.04296875" style="stroke:black;  stroke-width:0; fill:lightgray;" />
<rect x="460.5957031249996" y="33.931857638888886" width="18.525390625" height="20.04296875" style="stroke:black;  stroke-width:1.4; fill:none;" />
<text x="462.5849609374996" y="48.964084201388886">29</text>
<line x1="479.1210937500001" y1="43.953342013888886" x2="497.6464843750001" y2="43.953342013888886" style="stroke:black; stroke-width:1.4; " />
<rect x="497.6464843750001" y="33.931857638888886" width="18.525390625" height="20.04296875" style="stroke:black;  stroke-width:1.4; fill:none;" />
<text x="499.5297851562501" y="48.964084201388886">43</text>
<text x="5" y="84.67335069444444">hospitalization</text>
<rect x="201.240234375" y="75.54327256944444" width="74.1015625" height="8.0171875" style="stroke:black;  stroke-width:1.4; fill:none;" />
<text x="5" y="112.57612847222222">M5717 + pyronaridine</text>
<path d="M210.14215625, 107.37261284722223 L210.14215625, 101.35972222222223 L210.863703125, 101.35972222222223 L210.863703125, 107.37261284722223 L212.757763671875, 107.37261284722223 L210.5029296875, 113.38550347222223 L208.248095703125, 107.37261284722223 L210.14215625, 107.37261284722223 Z" style="stroke: black; fill: black; stroke-width:1.4; " /><path d="M228.667546875, 107.37261284722223 L228.667546875, 101.35972222222223 L229.38909375, 101.35972222222223 L229.38909375, 107.37261284722223 L231.283154296875, 107.37261284722223 L229.0283203125, 113.38550347222223 L226.773486328125, 107.37261284722223 L228.667546875, 107.37261284722223 Z" style="stroke: black; fill: black; stroke-width:1.4; " /><path d="M224.12353515625, 97.35112847222223 A2.50537109375, 2.50537109375 0 0,0 221.6181640625, 99.85649956597223L221.6181640625, 114.88872612847223 A2.50537109375, 2.50537109375 0 0,0 224.12353515625 117.39409722222223" style="stroke: black; stroke-width:1.4; fill:none" /><path d="M233.93310546875, 97.35112847222223 A2.50537109375, 2.50537109375 0 0,1 236.4384765625, 99.85649956597223L236.4384765625, 114.88872612847223 A2.50537109375, 2.50537109375 0 0,1 233.93310546875 117.39409722222223" style="stroke: black; stroke-width:1.4; fill:none" /><path d="M247.1929375, 107.37261284722223 L247.1929375, 101.35972222222223 L247.914484375, 101.35972222222223 L247.914484375, 107.37261284722223 L249.808544921875, 107.37261284722223 L247.5537109375, 113.38550347222223 L245.298876953125, 107.37261284722223 L247.1929375, 107.37261284722223 Z" style="stroke: black; fill: black; stroke-width:1.4; " /><path d="M242.64892578125, 97.35112847222223 A2.50537109375, 2.50537109375 0 0,0 240.1435546875, 99.85649956597223L240.1435546875, 114.88872612847223 A2.50537109375, 2.50537109375 0 0,0 242.64892578125 117.39409722222223" style="stroke: black; stroke-width:1.4; fill:none" /><path d="M252.45849609375, 97.35112847222223 A2.50537109375, 2.50537109375 0 0,1 254.9638671875, 99.85649956597223L254.9638671875, 114.88872612847223 A2.50537109375, 2.50537109375 0 0,1 252.45849609375 117.39409722222223" style="stroke: black; stroke-width:1.4; fill:none" /><text x="5" y="139.338671875">ECG</text>
<path d="M204.01904296875, 138.951416015625 L204.01904296875, 131.435302734375 L216.98681640625, 131.435302734375 L216.98681640625, 138.951416015625 L204.01904296875, 138.951416015625 Z" style="stroke: black; fill: none; stroke-width:1.4; " /><path d="M262.57158203125, 135.193359375 L266.0791015625, 128.1783203125 L269.58662109375, 135.193359375 L266.0791015625, 142.2083984375 L262.57158203125, 135.193359375 Z" style="stroke: black; fill: none; stroke-width:1.4; " /><path d="M466.3508789062496, 135.193359375 L469.8583984374996, 128.1783203125 L473.3659179687496, 135.193359375 L469.8583984374996, 142.2083984375 L466.3508789062496, 135.193359375 Z" style="stroke: black; fill: none; stroke-width:1.4; " /><text x="5" y="168.26957465277778">qPCR (parasites)</text>
<path d="M206.99541015625, 163.01410590277777 L210.5029296875, 155.99906684027778 L214.01044921875, 163.01410590277777 L210.5029296875, 170.02914496527777 L206.99541015625, 163.01410590277777 Z" style="stroke: black; fill: none; stroke-width:1.4; " /><path d="M225.52080078125, 163.01410590277777 L229.0283203125, 155.99906684027778 L232.53583984375, 163.01410590277777 L229.0283203125, 170.02914496527777 L225.52080078125, 163.01410590277777 Z" style="stroke: black; fill: none; stroke-width:1.4; " /><path d="M244.04619140625, 163.01410590277777 L247.5537109375, 155.99906684027778 L251.06123046875, 163.01410590277777 L247.5537109375, 170.02914496527777 L244.04619140625, 163.01410590277777 Z" style="stroke: black; fill: none; stroke-width:1.4; " /><path d="M262.57158203125, 163.01410590277777 L266.0791015625, 155.99906684027778 L269.58662109375, 163.01410590277777 L266.0791015625, 170.02914496527777 L262.57158203125, 163.01410590277777 Z" style="stroke: black; fill: none; stroke-width:1.4; " /><path d="M299.62236328124993, 163.01410590277777 L303.12988281249994, 155.99906684027778 L306.63740234374995, 163.01410590277777 L303.12988281249994, 170.02914496527777 L299.62236328124993, 163.01410590277777 Z" style="stroke: black; fill: none; stroke-width:1.4; " /><path d="M355.1985351562498, 163.01410590277777 L358.70605468749983, 155.99906684027778 L362.21357421874984, 163.01410590277777 L358.70605468749983, 170.02914496527777 L355.1985351562498, 163.01410590277777 Z" style="stroke: black; fill: none; stroke-width:1.4; " /><path d="M410.7747070312497, 163.01410590277777 L414.2822265624997, 155.99906684027778 L417.7897460937497, 163.01410590277777 L414.2822265624997, 170.02914496527777 L410.7747070312497, 163.01410590277777 Z" style="stroke: black; fill: none; stroke-width:1.4; " /><path d="M466.3508789062496, 163.01410590277777 L469.8583984374996, 155.99906684027778 L473.3659179687496, 163.01410590277777 L469.8583984374996, 170.02914496527777 L466.3508789062496, 163.01410590277777 Z" style="stroke: black; fill: none; stroke-width:1.4; " /><path d="M503.4016601562501, 163.01410590277777 L506.9091796875001, 155.99906684027778 L510.4166992187501, 163.01410590277777 L506.9091796875001, 170.02914496527777 L503.4016601562501, 163.01410590277777 Z" style="stroke: black; fill: none; stroke-width:1.4; " /><text x="5" y="196.09032118055555">qPCR (gametocytes)</text>
<path d="M355.1985351562498, 190.83485243055554 L358.70605468749983, 183.81981336805555 L362.21357421874984, 190.83485243055554 L358.70605468749983, 197.84989149305554 L355.1985351562498, 190.83485243055554 Z" style="stroke: black; fill: none; stroke-width:1.4; " /><path d="M410.7747070312497, 190.83485243055554 L414.2822265624997, 183.81981336805555 L417.7897460937497, 190.83485243055554 L414.2822265624997, 197.84989149305554 L410.7747070312497, 190.83485243055554 Z" style="stroke: black; fill: none; stroke-width:1.4; " /><path d="M466.3508789062496, 190.83485243055554 L469.8583984374996, 183.81981336805555 L473.3659179687496, 190.83485243055554 L469.8583984374996, 197.84989149305554 L466.3508789062496, 190.83485243055554 Z" style="stroke: black; fill: none; stroke-width:1.4; " /><path d="M503.4016601562501, 190.83485243055554 L506.9091796875001, 183.81981336805555 L510.4166992187501, 190.83485243055554 L506.9091796875001, 197.84989149305554 L503.4016601562501, 190.83485243055554 Z" style="stroke: black; fill: none; stroke-width:1.4; " /><text x="5" y="223.84270833333332">blood microscopy</text>
<path d="M204.01904296875, 222.41365559895831 L204.01904296875, 214.89754231770831 L216.98681640625, 214.89754231770831 L216.98681640625, 222.41365559895831 L204.01904296875, 222.41365559895831 Z" style="stroke: black; fill: none; stroke-width:1.4; " /><path d="M222.54443359375, 222.41365559895831 L222.54443359375, 214.89754231770831 L235.51220703125, 214.89754231770831 L235.51220703125, 222.41365559895831 L222.54443359375, 222.41365559895831 Z" style="stroke: black; fill: none; stroke-width:1.4; " /><path d="M241.06982421875, 222.41365559895831 L241.06982421875, 214.89754231770831 L254.03759765625, 214.89754231770831 L254.03759765625, 222.41365559895831 L241.06982421875, 222.41365559895831 Z" style="stroke: black; fill: none; stroke-width:1.4; " /><path d="M262.57158203125, 218.65559895833331 L266.0791015625, 211.64055989583332 L269.58662109375, 218.65559895833331 L266.0791015625, 225.6706380208333 L262.57158203125, 218.65559895833331 Z" style="stroke: black; fill: none; stroke-width:1.4; " /><path d="M503.4016601562501, 218.65559895833331 L506.9091796875001, 211.64055989583332 L510.4166992187501, 218.65559895833331 L506.9091796875001, 225.6706380208333 L503.4016601562501, 218.65559895833331 Z" style="stroke: black; fill: none; stroke-width:1.4; " /><text x="5" y="251.6634548611111">PK sampling</text>
<path d="M204.01904296875, 250.2344021267361 L204.01904296875, 242.7182888454861 L216.98681640625, 242.7182888454861 L216.98681640625, 250.2344021267361 L204.01904296875, 250.2344021267361 Z" style="stroke: black; fill: none; stroke-width:1.4; " /><path d="M225.52080078125, 246.4763454861111 L229.0283203125, 239.4613064236111 L232.53583984375, 246.4763454861111 L229.0283203125, 253.49138454861108 L225.52080078125, 246.4763454861111 Z" style="stroke: black; fill: none; stroke-width:1.4; " /><path d="M244.04619140625, 246.4763454861111 L247.5537109375, 239.4613064236111 L251.06123046875, 246.4763454861111 L247.5537109375, 253.49138454861108 L244.04619140625, 246.4763454861111 Z" style="stroke: black; fill: none; stroke-width:1.4; " /><path d="M262.57158203125, 246.4763454861111 L266.0791015625, 239.4613064236111 L269.58662109375, 246.4763454861111 L266.0791015625, 253.49138454861108 L262.57158203125, 246.4763454861111 Z" style="stroke: black; fill: none; stroke-width:1.4; " /><path d="M299.62236328124993, 246.4763454861111 L303.12988281249994, 239.4613064236111 L306.63740234374995, 246.4763454861111 L303.12988281249994, 253.49138454861108 L299.62236328124993, 246.4763454861111 Z" style="stroke: black; fill: none; stroke-width:1.4; " /><path d="M355.1985351562498, 246.4763454861111 L358.70605468749983, 239.4613064236111 L362.21357421874984, 246.4763454861111 L358.70605468749983, 253.49138454861108 L355.1985351562498, 246.4763454861111 Z" style="stroke: black; fill: none; stroke-width:1.4; " /><path d="M410.7747070312497, 246.4763454861111 L414.2822265624997, 239.4613064236111 L417.7897460937497, 246.4763454861111 L414.2822265624997, 253.49138454861108 L410.7747070312497, 246.4763454861111 Z" style="stroke: black; fill: none; stroke-width:1.4; " /><path d="M466.3508789062496, 246.4763454861111 L469.8583984374996, 239.4613064236111 L473.3659179687496, 246.4763454861111 L469.8583984374996, 253.49138454861108 L466.3508789062496, 246.4763454861111 Z" style="stroke: black; fill: none; stroke-width:1.4; " /></svg>