<svg width="581.0836588541667" height="236.4548611111111" xmlns="http://www.w3.org/2000/svg">
<style>text {font-family: Arial; font-size: 14px ;}</style>
<desc>Trial design autogenerated by td.py V2.0 (Dec-2021), author: Rainer Strotmann</desc><title>ms201618-0003 late</title><text x="166.44873046875" y="25.0322265625">S</text>
<text x="309.40413411458337" y="25.0322265625">Treatment phase</text>
<text x="543.1578776041667" y="25.0322265625">F/U</text>
<rect x="161.1748046875" y="33.931857638888886" width="18.525390625" height="20.04296875" style="stroke:black;  stroke-width:1.4; fill:none;" />
<text x="170.4375" y="48.964084201388886"></text>
<line x1="179.7001953125" y1="43.953342013888886" x2="198.2255859375" y2="43.953342013888886" style="stroke:black; stroke-width:1.4; " />
<rect x="198.2255859375" y="33.931857638888886" width="18.525390625" height="20.04296875" style="stroke:black;  stroke-width:1.4; fill:none;" />
<text x="202.771484375" y="48.964084201388886">-1</text>
<rect x="216.7509765625" y="33.931857638888886" width="18.525390625" height="20.04296875" style="stroke:black;  stroke-width:1.4; fill:none;" />
<text x="222.322265625" y="48.964084201388886">1</text>
<line x1="235.2763671875" y1="33.931857638888886" x2="241.45149739583334" y2="33.931857638888886" style="stroke:black; stroke-width:1.4; stroke-dasharray: 4.199999999999999 4.199999999999999" />
<line x1="235.2763671875" y1="53.974826388888886" x2="241.45149739583334" y2="53.974826388888886" style="stroke:black; stroke-width:1.4; stroke-dasharray: 4.199999999999999 4.199999999999999" />
<text x="238.36393229166666" y="48.964084201388886"></text>
<line x1="241.45149739583334" y1="33.931857638888886" x2="247.62662760416669" y2="33.931857638888886" style="stroke:black; stroke-width:1.4; stroke-dasharray: 4.199999999999999 4.199999999999999" />
<line x1="241.45149739583334" y1="53.974826388888886" x2="247.62662760416669" y2="53.974826388888886" style="stroke:black; stroke-width:1.4; stroke-dasharray: 4.199999999999999 4.199999999999999" />
<text x="244.5390625" y="48.964084201388886"></text>
<rect x="247.62662760416669" y="33.931857638888886" width="18.525390625" height="20.04296875" style="stroke:black;  stroke-width:1.4; fill:none;" />
<text x="253.42350260416669" y="48.964084201388886">4</text>
<rect x="266.1520182291667" y="33.931857638888886" width="18.525390625" height="20.04296875" style="stroke:black;  stroke-width:1.4; fill:none;" />
<text x="272.0924479166667" y="48.964084201388886">5</text>
<rect x="284.6774088541667" y="33.931857638888886" width="18.525390625" height="20.04296875" style="stroke:black;  stroke-width:1.4; fill:none;" />
<text x="290.6315104166667" y="48.964084201388886">6</text>
<line x1="303.2027994791667" y1="33.931857638888886" x2="309.3779296875" y2="33.931857638888886" style="stroke:black; stroke-width:1.4; stroke-dasharray: 4.199999999999999 4.199999999999999" />
<line x1="303.2027994791667" y1="53.974826388888886" x2="309.3779296875" y2="53.974826388888886" style="stroke:black; stroke-width:1.4; stroke-dasharray: 4.199999999999999 4.199999999999999" />
<text x="306.29036458333337" y="48.964084201388886"></text>
<rect x="309.3779296875" y="33.931857638888886" width="18.525390625" height="20.04296875" style="stroke:black;  stroke-width:1.4; fill:none;" />
<text x="315.3388671875" y="48.964084201388886">8</text>
<line x1="327.9033203125" y1="33.931857638888886" x2="334.0784505208333" y2="33.931857638888886" style="stroke:black; stroke-width:1.4; stroke-dasharray: 4.199999999999999 4.199999999999999" />
<line x1="327.9033203125" y1="53.974826388888886" x2="334.0784505208333" y2="53.974826388888886" style="stroke:black; stroke-width:1.4; stroke-dasharray: 4.199999999999999 4.199999999999999" />
<text x="330.9908854166667" y="48.964084201388886"></text>
<line x1="334.0784505208333" y1="33.931857638888886" x2="340.25358072916663" y2="33.931857638888886" style="stroke:black; stroke-width:1.4; stroke-dasharray: 4.199999999999999 4.199999999999999" />
<line x1="334.0784505208333" y1="53.974826388888886" x2="340.25358072916663" y2="53.974826388888886" style="stroke:black; stroke-width:1.4; stroke-dasharray: 4.199999999999999 4.199999999999999" />
<text x="337.166015625" y="48.964084201388886"></text>
<line x1="340.25358072916663" y1="33.931857638888886" x2="346.42871093749994" y2="33.931857638888886" style="stroke:black; stroke-width:1.4; stroke-dasharray: 4.199999999999999 4.199999999999999" />
<line x1="340.25358072916663" y1="53.974826388888886" x2="346.42871093749994" y2="53.974826388888886" style="stroke:black; stroke-width:1.4; stroke-dasharray: 4.199999999999999 4.199999999999999" />
<text x="343.3411458333333" y="48.964084201388886"></text>
<line x1="346.42871093749994" y1="33.931857638888886" x2="352.60384114583326" y2="33.931857638888886" style="stroke:black; stroke-width:1.4; stroke-dasharray: 4.199999999999999 4.199999999999999" />
<line x1="346.42871093749994" y1="53.974826388888886" x2="352.60384114583326" y2="53.974826388888886" style="stroke:black; stroke-width:1.4; stroke-dasharray: 4.199999999999999 4.199999999999999" />
<text x="349.51627604166663" y="48.964084201388886"></text>
<line x1="352.60384114583326" y1="33.931857638888886" x2="358.7789713541666" y2="33.931857638888886" style="stroke:black; stroke-width:1.4; stroke-dasharray: 4.199999999999999 4.199999999999999" />
<line x1="352.60384114583326" y1="53.974826388888886" x2="358.7789713541666" y2="53.974826388888886" style="stroke:black; stroke-width:1.4; stroke-dasharray: 4.199999999999999 4.199999999999999" />
<text x="355.69140624999994" y="48.964084201388886"></text>
<line x1="358.7789713541666" y1="33.931857638888886" x2="364.9541015624999" y2="33.931857638888886" style="stroke:black; stroke-width:1.4; stroke-dasharray: 4.199999999999999 4.199999999999999" />
<line x1="358.7789713541666" y1="53.974826388888886" x2="364.9541015624999" y2="53.974826388888886" style="stroke:black; stroke-width:1.4; stroke-dasharray: 4.199999999999999 4.199999999999999" />
<text x="361.86653645833326" y="48.964084201388886"></text>
<rect x="364.9541015624999" y="33.931857638888886" width="18.525390625" height="20.04296875" style="stroke:black;  stroke-width:1.4; fill:none;" />
<text x="365.6274414062499" y="48.964084201388886">15</text>
<line x1="383.4794921874999" y1="33.931857638888886" x2="389.6546223958332" y2="33.931857638888886" style="stroke:black; stroke-width:1.4; stroke-dasharray: 4.199999999999999 4.199999999999999" />
<line x1="383.4794921874999" y1="53.974826388888886" x2="389.6546223958332" y2="53.974826388888886" style="stroke:black; stroke-width:1.4; stroke-dasharray: 4.199999999999999 4.199999999999999" />
<text x="386.5670572916666" y="48.964084201388886"></text>
<line x1="389.6546223958332" y1="33.931857638888886" x2="395.8297526041665" y2="33.931857638888886" style="stroke:black; stroke-width:1.4; stroke-dasharray: 4.199999999999999 4.199999999999999" />
<line x1="389.6546223958332" y1="53.974826388888886" x2="395.8297526041665" y2="53.974826388888886" style="stroke:black; stroke-width:1.4; stroke-dasharray: 4.199999999999999 4.199999999999999" />
<text x="392.7421874999999" y="48.964084201388886"></text>
<line x1="395.8297526041665" y1="33.931857638888886" x2="402.00488281249983" y2="33.931857638888886" style="stroke:black; stroke-width:1.4; stroke-dasharray: 4.199999999999999 4.199999999999999" />
<line x1="395.8297526041665" y1="53.974826388888886" x2="402.00488281249983" y2="53.974826388888886" style="stroke:black; stroke-width:1.4; stroke-dasharray: 4.199999999999999 4.199999999999999" />
<text x="398.9173177083332" y="48.964084201388886"></text>
<line x1="402.00488281249983" y1="33.931857638888886" x2="408.18001302083314" y2="33.931857638888886" style="stroke:black; stroke-width:1.4; stroke-dasharray: 4.199999999999999 4.199999999999999" />
<line x1="402.00488281249983" y1="53.974826388888886" x2="408.18001302083314" y2="53.974826388888886" style="stroke:black; stroke-width:1.4; stroke-dasharray: 4.199999999999999 4.199999999999999" />
<text x="405.0924479166665" y="48.964084201388886"></text>
<line x1="408.18001302083314" y1="33.931857638888886" x2="414.35514322916646" y2="33.931857638888886" style="stroke:black; stroke-width:1.4; stroke-dasharray: 4.199999999999999 4.199999999999999" />
<line x1="408.18001302083314" y1="53.974826388888886" x2="414.35514322916646" y2="53.974826388888886" style="stroke:black; stroke-width:1.4; stroke-dasharray: 4.199999999999999 4.199999999999999" />
<text x="411.26757812499983" y="48.964084201388886"></text>
<line x1="414.35514322916646" y1="33.931857638888886" x2="420.5302734374998" y2="33.931857638888886" style="stroke:black; stroke-width:1.4; stroke-dasharray: 4.199999999999999 4.199999999999999" />
<line x1="414.35514322916646" y1="53.974826388888886" x2="420.5302734374998" y2="53.974826388888886" style="stroke:black; stroke-width:1.4; stroke-dasharray: 4.199999999999999 4.199999999999999" />
<text x="417.44270833333314" y="48.964084201388886"></text>
<rect x="420.5302734374998" y="33.931857638888886" width="18.525390625" height="20.04296875" style="stroke:black;  stroke-width:1.4; fill:none;" />
<text x="422.5810546874998" y="48.964084201388886">22</text>
<line x1="439.0556640624998" y1="33.931857638888886" x2="445.2307942708331" y2="33.931857638888886" style="stroke:black; stroke-width:1.4; stroke-dasharray: 4.199999999999999 4.199999999999999" />
<line x1="439.0556640624998" y1="53.974826388888886" x2="445.2307942708331" y2="53.974826388888886" style="stroke:black; stroke-width:1.4; stroke-dasharray: 4.199999999999999 4.199999999999999" />
<text x="442.14322916666646" y="48.964084201388886"></text>
<line x1="445.2307942708331" y1="33.931857638888886" x2="451.4059244791664" y2="33.931857638888886" style="stroke:black; stroke-width:1.4; stroke-dasharray: 4.199999999999999 4.199999999999999" />
<line x1="445.2307942708331" y1="53.974826388888886" x2="451.4059244791664" y2="53.974826388888886" style="stroke:black; stroke-width:1.4; stroke-dasharray: 4.199999999999999 4.199999999999999" />
<text x="448.3183593749998" y="48.964084201388886"></text>
<line x1="451.4059244791664" y1="33.931857638888886" x2="457.5810546874997" y2="33.931857638888886" style="stroke:black; stroke-width:1.4; stroke-dasharray: 4.199999999999999 4.199999999999999" />
<line x1="451.4059244791664" y1="53.974826388888886" x2="457.5810546874997" y2="53.974826388888886" style="stroke:black; stroke-width:1.4; stroke-dasharray: 4.199999999999999 4.199999999999999" />
<text x="454.4934895833331" y="48.964084201388886"></text>
<line x1="457.5810546874997" y1="33.931857638888886" x2="463.75618489583303" y2="33.931857638888886" style="stroke:black; stroke-width:1.4; stroke-dasharray: 4.199999999999999 4.199999999999999" />
<line x1="457.5810546874997" y1="53.974826388888886" x2="463.75618489583303" y2="53.974826388888886" style="stroke:black; stroke-width:1.4; stroke-dasharray: 4.199999999999999 4.199999999999999" />
<text x="460.6686197916664" y="48.964084201388886"></text>
<line x1="463.75618489583303" y1="33.931857638888886" x2="469.93131510416634" y2="33.931857638888886" style="stroke:black; stroke-width:1.4; stroke-dasharray: 4.199999999999999 4.199999999999999" />
<line x1="463.75618489583303" y1="53.974826388888886" x2="469.93131510416634" y2="53.974826388888886" style="stroke:black; stroke-width:1.4; stroke-dasharray: 4.199999999999999 4.199999999999999" />
<text x="466.8437499999997" y="48.964084201388886"></text>
<rect x="469.93131510416634" y="33.931857638888886" width="18.525390625" height="20.04296875" style="stroke:black;  stroke-width:1.4; fill:none;" />
<text x="471.92057291666634" y="48.964084201388886">28</text>
<line x1="488.45670572916634" y1="33.931857638888886" x2="494.63183593749966" y2="33.931857638888886" style="stroke:black; stroke-width:1.4; stroke-dasharray: 4.199999999999999 4.199999999999999" />
<line x1="488.45670572916634" y1="53.974826388888886" x2="494.63183593749966" y2="53.974826388888886" style="stroke:black; stroke-width:1.4; stroke-dasharray: 4.199999999999999 4.199999999999999" />
<text x="491.54427083333303" y="48.964084201388886"></text>
<line x1="494.63183593749966" y1="33.931857638888886" x2="500.806966145833" y2="33.931857638888886" style="stroke:black; stroke-width:1.4; stroke-dasharray: 4.199999999999999 4.199999999999999" />
<line x1="494.63183593749966" y1="53.974826388888886" x2="500.806966145833" y2="53.974826388888886" style="stroke:black; stroke-width:1.4; stroke-dasharray: 4.199999999999999 4.199999999999999" />
<text x="497.71940104166634" y="48.964084201388886"></text>
<line x1="500.806966145833" y1="33.931857638888886" x2="506.9820963541663" y2="33.931857638888886" style="stroke:black; stroke-width:1.4; stroke-dasharray: 4.199999999999999 4.199999999999999" />
<line x1="500.806966145833" y1="53.974826388888886" x2="506.9820963541663" y2="53.974826388888886" style="stroke:black; stroke-width:1.4; stroke-dasharray: 4.199999999999999 4.199999999999999" />
<text x="503.89453124999966" y="48.964084201388886"></text>
<rect x="506.9820963541663" y="33.931857638888886" width="18.525390625" height="20.04296875" style="stroke:black;  stroke-width:1.4; fill:none;" />
<text x="509.1217447916663" y="48.964084201388886">32</text>
<line x1="525.5074869791667" y1="43.953342013888886" x2="544.0328776041667" y2="43.953342013888886" style="stroke:black; stroke-width:1.4; " />
<rect x="544.0328776041667" y="33.931857638888886" width="18.525390625" height="20.04296875" style="stroke:black;  stroke-width:1.4; fill:none;" />
<text x="546.1246744791667" y="48.964084201388886">36</text>
<text x="5" y="84.67335069444444">hospitalization</text>
<rect x="247.62662760416669" y="75.54327256944444" width="55.576171875" height="8.0171875" style="stroke:black;  stroke-width:1.4; fill:none;" />
<text x="5" y="111.51792534722223">DVI PfSPZ</text>
<path d="M225.6528984375, 107.37261284722223 L225.6528984375, 101.35972222222223 L226.3744453125, 101.35972222222223 L226.3744453125, 107.37261284722223 L228.268505859375, 107.37261284722223 L226.013671875, 113.38550347222223 L223.758837890625, 107.37261284722223 L225.6528984375, 107.37261284722223 Z" style="stroke: black; fill: black; stroke-width:1.4; " /><text x="5" y="139.28671875">M5717</text>
<path d="M275.0539401041667, 135.193359375 L275.0539401041667, 129.18046875 L275.77548697916666, 129.18046875 L275.77548697916666, 135.193359375 L277.6695475260417, 135.193359375 L275.4147135416667, 141.20625 L273.1598795572917, 135.193359375 L275.0539401041667, 135.193359375 Z" style="stroke: black; fill: black; stroke-width:1.4; " /><text x="5" y="167.08832465277777">rescue medication</text>
<path d="M515.8840182291663, 163.01410590277777 L515.8840182291663, 157.00121527777776 L516.6055651041663, 157.00121527777776 L516.6055651041663, 163.01410590277777 L518.4996256510412, 163.01410590277777 L516.2447916666663, 169.02699652777778 L513.9899576822913, 163.01410590277777 L515.8840182291663, 163.01410590277777 Z" style="stroke: black; fill: black; stroke-width:1.4; " /><text x="5" y="196.09032118055555">parasitemia by qPCR</text>
<path d="M222.50615234375, 190.83485243055554 L226.013671875, 183.81981336805555 L229.52119140625, 190.83485243055554 L226.013671875, 197.84989149305554 L222.50615234375, 190.83485243055554 Z" style="stroke: black; fill: none; stroke-width:1.4; " /><path d="M290.4325846354167, 190.83485243055554 L293.9401041666667, 183.81981336805555 L297.4476236979167, 190.83485243055554 L293.9401041666667, 197.84989149305554 L290.4325846354167, 190.83485243055554 Z" style="stroke: black; fill: none; stroke-width:1.4; " /><path d="M302.78284505208336, 190.83485243055554 L306.29036458333337, 183.81981336805555 L309.7978841145834, 190.83485243055554 L306.29036458333337, 197.84989149305554 L302.78284505208336, 190.83485243055554 Z" style="stroke: black; fill: none; stroke-width:1.4; " /><path d="M315.13310546875, 190.83485243055554 L318.640625, 183.81981336805555 L322.14814453125, 190.83485243055554 L318.640625, 197.84989149305554 L315.13310546875, 190.83485243055554 Z" style="stroke: black; fill: none; stroke-width:1.4; " /><path d="M327.4833658854167, 190.83485243055554 L330.9908854166667, 183.81981336805555 L334.4984049479167, 190.83485243055554 L330.9908854166667, 197.84989149305554 L327.4833658854167, 190.83485243055554 Z" style="stroke: black; fill: none; stroke-width:1.4; " /><path d="M333.65849609375, 190.83485243055554 L337.166015625, 183.81981336805555 L340.67353515625, 190.83485243055554 L337.166015625, 197.84989149305554 L333.65849609375, 190.83485243055554 Z" style="stroke: black; fill: none; stroke-width:1.4; " /><path d="M339.8336263020833, 190.83485243055554 L343.3411458333333, 183.81981336805555 L346.8486653645833, 190.83485243055554 L343.3411458333333, 197.84989149305554 L339.8336263020833, 190.83485243055554 Z" style="stroke: black; fill: none; stroke-width:1.4; " /><path d="M346.0087565104166, 190.83485243055554 L349.51627604166663, 183.81981336805555 L353.02379557291664, 190.83485243055554 L349.51627604166663, 197.84989149305554 L346.0087565104166, 190.83485243055554 Z" style="stroke: black; fill: none; stroke-width:1.4; " /><path d="M352.18388671874993, 190.83485243055554 L355.69140624999994, 183.81981336805555 L359.19892578124995, 190.83485243055554 L355.69140624999994, 197.84989149305554 L352.18388671874993, 190.83485243055554 Z" style="stroke: black; fill: none; stroke-width:1.4; " /><path d="M358.35901692708325, 190.83485243055554 L361.86653645833326, 183.81981336805555 L365.37405598958327, 190.83485243055554 L361.86653645833326, 197.84989149305554 L358.35901692708325, 190.83485243055554 Z" style="stroke: black; fill: none; stroke-width:1.4; " /><path d="M370.7092773437499, 190.83485243055554 L374.2167968749999, 183.81981336805555 L377.7243164062499, 190.83485243055554 L374.2167968749999, 197.84989149305554 L370.7092773437499, 190.83485243055554 Z" style="stroke: black; fill: none; stroke-width:1.4; " /><path d="M383.05953776041656, 190.83485243055554 L386.5670572916666, 183.81981336805555 L390.0745768229166, 190.83485243055554 L386.5670572916666, 197.84989149305554 L383.05953776041656, 190.83485243055554 Z" style="stroke: black; fill: none; stroke-width:1.4; " /><path d="M389.2346679687499, 190.83485243055554 L392.7421874999999, 183.81981336805555 L396.2497070312499, 190.83485243055554 L392.7421874999999, 197.84989149305554 L389.2346679687499, 190.83485243055554 Z" style="stroke: black; fill: none; stroke-width:1.4; " /><path d="M395.4097981770832, 190.83485243055554 L398.9173177083332, 183.81981336805555 L402.4248372395832, 190.83485243055554 L398.9173177083332, 197.84989149305554 L395.4097981770832, 190.83485243055554 Z" style="stroke: black; fill: none; stroke-width:1.4; " /><path d="M401.5849283854165, 190.83485243055554 L405.0924479166665, 183.81981336805555 L408.5999674479165, 190.83485243055554 L405.0924479166665, 197.84989149305554 L401.5849283854165, 190.83485243055554 Z" style="stroke: black; fill: none; stroke-width:1.4; " /><path d="M407.7600585937498, 190.83485243055554 L411.26757812499983, 183.81981336805555 L414.77509765624984, 190.83485243055554 L411.26757812499983, 197.84989149305554 L407.7600585937498, 190.83485243055554 Z" style="stroke: black; fill: none; stroke-width:1.4; " /><path d="M413.93518880208313, 190.83485243055554 L417.44270833333314, 183.81981336805555 L420.95022786458316, 190.83485243055554 L417.44270833333314, 197.84989149305554 L413.93518880208313, 190.83485243055554 Z" style="stroke: black; fill: none; stroke-width:1.4; " /><path d="M426.28544921874976, 190.83485243055554 L429.7929687499998, 183.81981336805555 L433.3004882812498, 190.83485243055554 L429.7929687499998, 197.84989149305554 L426.28544921874976, 190.83485243055554 Z" style="stroke: black; fill: none; stroke-width:1.4; " /><path d="M438.63570963541645, 190.83485243055554 L442.14322916666646, 183.81981336805555 L445.65074869791647, 190.83485243055554 L442.14322916666646, 197.84989149305554 L438.63570963541645, 190.83485243055554 Z" style="stroke: black; fill: none; stroke-width:1.4; " /><path d="M444.81083984374976, 190.83485243055554 L448.3183593749998, 183.81981336805555 L451.8258789062498, 190.83485243055554 L448.3183593749998, 197.84989149305554 L444.81083984374976, 190.83485243055554 Z" style="stroke: black; fill: none; stroke-width:1.4; " /><path d="M457.1611002604164, 190.83485243055554 L460.6686197916664, 183.81981336805555 L464.1761393229164, 190.83485243055554 L460.6686197916664, 197.84989149305554 L457.1611002604164, 190.83485243055554 Z" style="stroke: black; fill: none; stroke-width:1.4; " /><path d="M475.68649088541633, 190.83485243055554 L479.19401041666634, 183.81981336805555 L482.70152994791636, 190.83485243055554 L479.19401041666634, 197.84989149305554 L475.68649088541633, 190.83485243055554 Z" style="stroke: black; fill: none; stroke-width:1.4; " /><path d="M494.21188151041633, 190.83485243055554 L497.71940104166634, 183.81981336805555 L501.22692057291636, 190.83485243055554 L497.71940104166634, 197.84989149305554 L494.21188151041633, 190.83485243055554 Z" style="stroke: black; fill: none; stroke-width:1.4; " /><path d="M512.7372721354163, 190.83485243055554 L516.2447916666663, 183.81981336805555 L519.7523111979162, 190.83485243055554 L516.2447916666663, 197.84989149305554 L512.7372721354163, 190.83485243055554 Z" style="stroke: black; fill: none; stroke-width:1.4; " /><path d="M549.7880533854168, 190.83485243055554 L553.2955729166667, 183.81981336805555 L556.8030924479167, 190.83485243055554 L553.2955729166667, 197.84989149305554 L549.7880533854168, 190.83485243055554 Z" style="stroke: black; fill: none; stroke-width:1.4; " /><text x="5" y="223.84270833333332">PK sampling</text>
<path d="M269.8570963541667, 222.41365559895831 L269.8570963541667, 214.89754231770831 L280.9723307291667, 214.89754231770831 L280.9723307291667, 222.41365559895831 L269.8570963541667, 222.41365559895831 Z" style="stroke: black; fill: none; stroke-width:1.4; " /><path d="M290.4325846354167, 218.65559895833331 L293.9401041666667, 211.64055989583332 L297.4476236979167, 218.65559895833331 L293.9401041666667, 225.6706380208333 L290.4325846354167, 218.65559895833331 Z" style="stroke: black; fill: none; stroke-width:1.4; " /><path d="M333.65849609375, 218.65559895833331 L337.166015625, 211.64055989583332 L340.67353515625, 218.65559895833331 L337.166015625, 225.6706380208333 L333.65849609375, 218.65559895833331 Z" style="stroke: black; fill: none; stroke-width:1.4; " /><path d="M346.0087565104166, 218.65559895833331 L349.51627604166663, 211.64055989583332 L353.02379557291664, 218.65559895833331 L349.51627604166663, 225.6706380208333 L346.0087565104166, 218.65559895833331 Z" style="stroke: black; fill: none; stroke-width:1.4; " /><path d="M352.18388671874993, 218.65559895833331 L355.69140624999994, 211.64055989583332 L359.19892578124995, 218.65559895833331 L355.69140624999994, 225.6706380208333 L352.18388671874993, 218.65559895833331 Z" style="stroke: black; fill: none; stroke-width:1.4; " /><path d="M494.21188151041633, 218.65559895833331 L497.71940104166634, 211.64055989583332 L501.22692057291636, 218.65559895833331 L497.71940104166634, 225.6706380208333 L494.21188151041633, 218.65559895833331 Z" style="stroke: black; fill: none; stroke-width:1.4; " /><path d="M549.7880533854168, 218.65559895833331 L553.2955729166667, 211.64055989583332 L556.8030924479167, 218.65559895833331 L553.2955729166667, 225.6706380208333 L549.7880533854168, 218.65559895833331 Z" style="stroke: black; fill: none; stroke-width:1.4; " /></svg>