<svg width="1368.0595703125" height="248.72005208333331" xmlns="http://www.w3.org/2000/svg">
<style>text {font-family: Arial; font-size: 14px ;}</style>
<desc>Trial design autogenerated by td.py V2.0 (Dec-2021), author: Rainer Strotmann</desc><title>ms200527-0091B</title><path d="M884.2734375, 10.0 A5.0107421875, 5.0107421875 0 0,0 879.2626953125, 15.0107421875L879.2626953125, 239.82042100694443 A5.0107421875, 5.0107421875 0 0,0 884.2734375 244.83116319444443" style="stroke: black; stroke-width:1.4; fill:none" /><path d="M1314.609375, 10.0 A5.0107421875, 5.0107421875 0 0,1 1319.6201171875, 15.0107421875L1319.6201171875, 239.82042100694443 A5.0107421875, 5.0107421875 0 0,1 1314.609375 244.83116319444443" style="stroke: black; stroke-width:1.4; fill:none" /><path d="M439.6640625, 10.0 A5.0107421875, 5.0107421875 0 0,0 434.6533203125, 15.0107421875L434.6533203125, 239.82042100694443 A5.0107421875, 5.0107421875 0 0,0 439.6640625 244.83116319444443" style="stroke: black; stroke-width:1.4; fill:none" /><path d="M870.0, 10.0 A5.0107421875, 5.0107421875 0 0,1 875.0107421875, 15.0107421875L875.0107421875, 239.82042100694443 A5.0107421875, 5.0107421875 0 0,1 870.0 244.83116319444443" style="stroke: black; stroke-width:1.4; fill:none" /><text x="206.23388671875" y="25.0322265625">S</text>
<text x="295.69921875" y="25.0322265625">Periods 1-3</text>
<text x="598.42529296875" y="25.0322265625">Period 4 (optional)</text>
<text x="1043.03466796875" y="25.0322265625">Period 5 (optional)</text>
<text x="1330.1337890625" y="25.0322265625">F/U</text>
<rect x="200.9599609375" y="33.931857638888886" width="18.525390625" height="20.04296875" style="stroke:black;  stroke-width:1.4; fill:none;" />
<text x="210.22265625" y="48.964084201388886"></text>
<line x1="219.4853515625" y1="43.953342013888886" x2="238.0107421875" y2="43.953342013888886" style="stroke:black; stroke-width:1.4; " />
<rect x="238.0107421875" y="33.931857638888886" width="18.525390625" height="20.04296875" style="stroke:black;  stroke-width:1.4; fill:none;" />
<text x="242.556640625" y="48.964084201388886">-1</text>
<rect x="256.5361328125" y="33.931857638888886" width="18.525390625" height="20.04296875" style="stroke:black;  stroke-width:0; fill:lightgray;" />
<rect x="256.5361328125" y="33.931857638888886" width="18.525390625" height="20.04296875" style="stroke:black;  stroke-width:1.4; fill:none;" />
<text x="262.107421875" y="48.964084201388886">1</text>
<rect x="275.0615234375" y="33.931857638888886" width="18.525390625" height="20.04296875" style="stroke:black;  stroke-width:1.4; fill:none;" />
<text x="281.00537109375" y="48.964084201388886">2</text>
<rect x="293.5869140625" y="33.931857638888886" width="18.525390625" height="20.04296875" style="stroke:black;  stroke-width:1.4; fill:none;" />
<text x="299.568359375" y="48.964084201388886">3</text>
<rect x="312.1123046875" y="33.931857638888886" width="18.525390625" height="20.04296875" style="stroke:black;  stroke-width:1.4; fill:none;" />
<text x="317.9091796875" y="48.964084201388886">4</text>
<rect x="330.6376953125" y="33.931857638888886" width="18.525390625" height="20.04296875" style="stroke:black;  stroke-width:1.4; fill:none;" />
<text x="336.578125" y="48.964084201388886">5</text>
<rect x="349.1630859375" y="33.931857638888886" width="18.525390625" height="20.04296875" style="stroke:black;  stroke-width:1.4; fill:none;" />
<text x="355.1171875" y="48.964084201388886">6</text>
<rect x="367.6884765625" y="33.931857638888886" width="18.525390625" height="20.04296875" style="stroke:black;  stroke-width:1.4; fill:none;" />
<text x="373.70751953125" y="48.964084201388886">7</text>
<rect x="386.2138671875" y="33.931857638888886" width="18.525390625" height="20.04296875" style="stroke:black;  stroke-width:0; fill:lightgray;" />
<rect x="386.2138671875" y="33.931857638888886" width="18.525390625" height="20.04296875" style="stroke:black;  stroke-width:1.4; fill:none;" />
<text x="392.1748046875" y="48.964084201388886">8</text>
<rect x="404.7392578125" y="33.931857638888886" width="18.525390625" height="20.04296875" style="stroke:black;  stroke-width:1.4; fill:none;" />
<text x="410.70703125" y="48.964084201388886">9</text>
<line x1="423.2646484375" y1="43.953342013888886" x2="441.7900390625" y2="43.953342013888886" style="stroke:black; stroke-width:1.4; " />
<rect x="441.7900390625" y="33.931857638888886" width="18.525390625" height="20.04296875" style="stroke:black;  stroke-width:1.4; fill:none;" />
<text x="446.3359375" y="48.964084201388886">-1</text>
<rect x="460.3154296875" y="33.931857638888886" width="18.525390625" height="20.04296875" style="stroke:black;  stroke-width:1.4; fill:none;" />
<text x="465.88671875" y="48.964084201388886">1</text>
<rect x="478.8408203125" y="33.931857638888886" width="18.525390625" height="20.04296875" style="stroke:black;  stroke-width:1.4; fill:none;" />
<text x="484.78466796875" y="48.964084201388886">2</text>
<rect x="497.3662109375" y="33.931857638888886" width="18.525390625" height="20.04296875" style="stroke:black;  stroke-width:1.4; fill:none;" />
<text x="503.34765625" y="48.964084201388886">3</text>
<rect x="515.8916015625" y="33.931857638888886" width="18.525390625" height="20.04296875" style="stroke:black;  stroke-width:1.4; fill:none;" />
<text x="521.6884765625" y="48.964084201388886">4</text>
<rect x="534.4169921875" y="33.931857638888886" width="18.525390625" height="20.04296875" style="stroke:black;  stroke-width:1.4; fill:none;" />
<text x="543.6796875" y="48.964084201388886"></text>
<rect x="552.9423828125" y="33.931857638888886" width="18.525390625" height="20.04296875" style="stroke:black;  stroke-width:1.4; fill:none;" />
<text x="562.205078125" y="48.964084201388886"></text>
<rect x="571.4677734375" y="33.931857638888886" width="18.525390625" height="20.04296875" style="stroke:black;  stroke-width:1.4; fill:none;" />
<text x="580.73046875" y="48.964084201388886"></text>
<rect x="589.9931640625" y="33.931857638888886" width="18.525390625" height="20.04296875" style="stroke:black;  stroke-width:0; fill:lightgray;" />
<rect x="589.9931640625" y="33.931857638888886" width="18.525390625" height="20.04296875" style="stroke:black;  stroke-width:1.4; fill:none;" />
<text x="595.9541015625" y="48.964084201388886">8</text>
<rect x="608.5185546875" y="33.931857638888886" width="18.525390625" height="20.04296875" style="stroke:black;  stroke-width:1.4; fill:none;" />
<text x="617.78125" y="48.964084201388886"></text>
<rect x="627.0439453125" y="33.931857638888886" width="18.525390625" height="20.04296875" style="stroke:black;  stroke-width:1.4; fill:none;" />
<text x="636.306640625" y="48.964084201388886"></text>
<rect x="645.5693359375" y="33.931857638888886" width="18.525390625" height="20.04296875" style="stroke:black;  stroke-width:1.4; fill:none;" />
<text x="654.83203125" y="48.964084201388886"></text>
<rect x="664.0947265625" y="33.931857638888886" width="18.525390625" height="20.04296875" style="stroke:black;  stroke-width:1.4; fill:none;" />
<text x="673.357421875" y="48.964084201388886"></text>
<rect x="682.6201171875" y="33.931857638888886" width="18.525390625" height="20.04296875" style="stroke:black;  stroke-width:1.4; fill:none;" />
<text x="691.8828125" y="48.964084201388886"></text>
<rect x="701.1455078125" y="33.931857638888886" width="18.525390625" height="20.04296875" style="stroke:black;  stroke-width:1.4; fill:none;" />
<text x="710.408203125" y="48.964084201388886"></text>
<rect x="719.6708984375" y="33.931857638888886" width="18.525390625" height="20.04296875" style="stroke:black;  stroke-width:0; fill:lightgray;" />
<rect x="719.6708984375" y="33.931857638888886" width="18.525390625" height="20.04296875" style="stroke:black;  stroke-width:1.4; fill:none;" />
<text x="720.34423828125" y="48.964084201388886">15</text>
<rect x="738.1962890625" y="33.931857638888886" width="18.525390625" height="20.04296875" style="stroke:black;  stroke-width:1.4; fill:none;" />
<text x="747.458984375" y="48.964084201388886"></text>
<rect x="756.7216796875" y="33.931857638888886" width="18.525390625" height="20.04296875" style="stroke:black;  stroke-width:1.4; fill:none;" />
<text x="765.984375" y="48.964084201388886"></text>
<rect x="775.2470703125" y="33.931857638888886" width="18.525390625" height="20.04296875" style="stroke:black;  stroke-width:1.4; fill:none;" />
<text x="784.509765625" y="48.964084201388886"></text>
<rect x="793.7724609375" y="33.931857638888886" width="18.525390625" height="20.04296875" style="stroke:black;  stroke-width:1.4; fill:none;" />
<text x="803.03515625" y="48.964084201388886"></text>
<rect x="812.2978515625" y="33.931857638888886" width="18.525390625" height="20.04296875" style="stroke:black;  stroke-width:1.4; fill:none;" />
<text x="821.560546875" y="48.964084201388886"></text>
<rect x="830.8232421875" y="33.931857638888886" width="18.525390625" height="20.04296875" style="stroke:black;  stroke-width:1.4; fill:none;" />
<text x="840.0859375" y="48.964084201388886"></text>
<rect x="849.3486328125" y="33.931857638888886" width="18.525390625" height="20.04296875" style="stroke:black;  stroke-width:0; fill:lightgray;" />
<rect x="849.3486328125" y="33.931857638888886" width="18.525390625" height="20.04296875" style="stroke:black;  stroke-width:1.4; fill:none;" />
<text x="851.3994140625" y="48.964084201388886">22</text>
<line x1="867.8740234375" y1="43.953342013888886" x2="886.3994140625" y2="43.953342013888886" style="stroke:black; stroke-width:1.4; " />
<rect x="886.3994140625" y="33.931857638888886" width="18.525390625" height="20.04296875" style="stroke:black;  stroke-width:1.4; fill:none;" />
<text x="890.9453125" y="48.964084201388886">-1</text>
<rect x="904.9248046875" y="33.931857638888886" width="18.525390625" height="20.04296875" style="stroke:black;  stroke-width:1.4; fill:none;" />
<text x="910.49609375" y="48.964084201388886">1</text>
<rect x="923.4501953125" y="33.931857638888886" width="18.525390625" height="20.04296875" style="stroke:black;  stroke-width:1.4; fill:none;" />
<text x="929.39404296875" y="48.964084201388886">2</text>
<rect x="941.9755859375" y="33.931857638888886" width="18.525390625" height="20.04296875" style="stroke:black;  stroke-width:1.4; fill:none;" />
<text x="947.95703125" y="48.964084201388886">3</text>
<rect x="960.5009765625" y="33.931857638888886" width="18.525390625" height="20.04296875" style="stroke:black;  stroke-width:1.4; fill:none;" />
<text x="966.2978515625" y="48.964084201388886">4</text>
<rect x="979.0263671875" y="33.931857638888886" width="18.525390625" height="20.04296875" style="stroke:black;  stroke-width:1.4; fill:none;" />
<text x="988.2890625" y="48.964084201388886"></text>
<rect x="997.5517578125" y="33.931857638888886" width="18.525390625" height="20.04296875" style="stroke:black;  stroke-width:1.4; fill:none;" />
<text x="1006.814453125" y="48.964084201388886"></text>
<rect x="1016.0771484375" y="33.931857638888886" width="18.525390625" height="20.04296875" style="stroke:black;  stroke-width:1.4; fill:none;" />
<text x="1025.33984375" y="48.964084201388886"></text>
<rect x="1034.6025390625" y="33.931857638888886" width="18.525390625" height="20.04296875" style="stroke:black;  stroke-width:0; fill:lightgray;" />
<rect x="1034.6025390625" y="33.931857638888886" width="18.525390625" height="20.04296875" style="stroke:black;  stroke-width:1.4; fill:none;" />
<text x="1040.5634765625" y="48.964084201388886">8</text>
<rect x="1053.1279296875" y="33.931857638888886" width="18.525390625" height="20.04296875" style="stroke:black;  stroke-width:1.4; fill:none;" />
<text x="1062.390625" y="48.964084201388886"></text>
<rect x="1071.6533203125" y="33.931857638888886" width="18.525390625" height="20.04296875" style="stroke:black;  stroke-width:1.4; fill:none;" />
<text x="1080.916015625" y="48.964084201388886"></text>
<rect x="1090.1787109375" y="33.931857638888886" width="18.525390625" height="20.04296875" style="stroke:black;  stroke-width:1.4; fill:none;" />
<text x="1099.44140625" y="48.964084201388886"></text>
<rect x="1108.7041015625" y="33.931857638888886" width="18.525390625" height="20.04296875" style="stroke:black;  stroke-width:1.4; fill:none;" />
<text x="1117.966796875" y="48.964084201388886"></text>
<rect x="1127.2294921875" y="33.931857638888886" width="18.525390625" height="20.04296875" style="stroke:black;  stroke-width:1.4; fill:none;" />
<text x="1136.4921875" y="48.964084201388886"></text>
<rect x="1145.7548828125" y="33.931857638888886" width="18.525390625" height="20.04296875" style="stroke:black;  stroke-width:1.4; fill:none;" />
<text x="1155.017578125" y="48.964084201388886"></text>
<rect x="1164.2802734375" y="33.931857638888886" width="18.525390625" height="20.04296875" style="stroke:black;  stroke-width:0; fill:lightgray;" />
<rect x="1164.2802734375" y="33.931857638888886" width="18.525390625" height="20.04296875" style="stroke:black;  stroke-width:1.4; fill:none;" />
<text x="1164.95361328125" y="48.964084201388886">15</text>
<rect x="1182.8056640625" y="33.931857638888886" width="18.525390625" height="20.04296875" style="stroke:black;  stroke-width:1.4; fill:none;" />
<text x="1192.068359375" y="48.964084201388886"></text>
<rect x="1201.3310546875" y="33.931857638888886" width="18.525390625" height="20.04296875" style="stroke:black;  stroke-width:1.4; fill:none;" />
<text x="1210.59375" y="48.964084201388886"></text>
<rect x="1219.8564453125" y="33.931857638888886" width="18.525390625" height="20.04296875" style="stroke:black;  stroke-width:1.4; fill:none;" />
<text x="1229.119140625" y="48.964084201388886"></text>
<rect x="1238.3818359375" y="33.931857638888886" width="18.525390625" height="20.04296875" style="stroke:black;  stroke-width:1.4; fill:none;" />
<text x="1247.64453125" y="48.964084201388886"></text>
<rect x="1256.9072265625" y="33.931857638888886" width="18.525390625" height="20.04296875" style="stroke:black;  stroke-width:1.4; fill:none;" />
<text x="1266.169921875" y="48.964084201388886"></text>
<rect x="1275.4326171875" y="33.931857638888886" width="18.525390625" height="20.04296875" style="stroke:black;  stroke-width:1.4; fill:none;" />
<text x="1284.6953125" y="48.964084201388886"></text>
<rect x="1293.9580078125" y="33.931857638888886" width="18.525390625" height="20.04296875" style="stroke:black;  stroke-width:0; fill:lightgray;" />
<rect x="1293.9580078125" y="33.931857638888886" width="18.525390625" height="20.04296875" style="stroke:black;  stroke-width:1.4; fill:none;" />
<text x="1296.0087890625" y="48.964084201388886">22</text>
<line x1="1312.4833984375" y1="43.953342013888886" x2="1331.0087890625" y2="43.953342013888886" style="stroke:black; stroke-width:1.4; " />
<rect x="1331.0087890625" y="33.931857638888886" width="18.525390625" height="20.04296875" style="stroke:black;  stroke-width:1.4; fill:none;" />
<text x="1332.998046875" y="48.964084201388886">29</text>
<text x="442.890625" y="84.56260850694444">V2</text>
<text x="469.578125" y="84.56260850694444"></text>
<text x="488.103515625" y="84.56260850694444"></text>
<text x="506.62890625" y="84.56260850694444"></text>
<text x="525.154296875" y="84.56260850694444"></text>
<text x="543.6796875" y="84.56260850694444"></text>
<text x="562.205078125" y="84.56260850694444"></text>
<text x="580.73046875" y="84.56260850694444"></text>
<text x="599.255859375" y="84.56260850694444"></text>
<text x="617.78125" y="84.56260850694444"></text>
<text x="636.306640625" y="84.56260850694444"></text>
<text x="654.83203125" y="84.56260850694444"></text>
<text x="673.357421875" y="84.56260850694444"></text>
<text x="691.8828125" y="84.56260850694444"></text>
<text x="710.408203125" y="84.56260850694444"></text>
<text x="728.93359375" y="84.56260850694444"></text>
<text x="747.458984375" y="84.56260850694444"></text>
<text x="765.984375" y="84.56260850694444"></text>
<text x="784.509765625" y="84.56260850694444"></text>
<text x="803.03515625" y="84.56260850694444"></text>
<text x="821.560546875" y="84.56260850694444"></text>
<text x="840.0859375" y="84.56260850694444"></text>
<text x="858.611328125" y="84.56260850694444"></text>
<text x="5" y="104.71631944444444">hospitalization</text>
<rect x="238.0107421875" y="95.58624131944444" width="185.25390625" height="8.0171875" style="stroke:black;  stroke-width:1.4; fill:none;" />
<rect x="441.7900390625" y="95.58624131944444" width="92.626953125" height="8.0171875" style="stroke:black;  stroke-width:1.4; fill:none;" />
<rect x="886.3994140625" y="95.58624131944444" width="92.626953125" height="8.0171875" style="stroke:black;  stroke-width:1.4; fill:none;" />
<text x="451.052734375" y="132.42632378472223"></text>
<text x="469.578125" y="132.42632378472223"></text>
<text x="488.103515625" y="132.42632378472223"></text>
<text x="506.62890625" y="132.42632378472223"></text>
<text x="525.154296875" y="132.42632378472223"></text>
<text x="543.6796875" y="132.42632378472223"></text>
<text x="562.205078125" y="132.42632378472223"></text>
<text x="580.73046875" y="132.42632378472223"></text>
<text x="591.04248046875" y="132.42632378472223">V3</text>
<text x="617.78125" y="132.42632378472223"></text>
<text x="636.306640625" y="132.42632378472223"></text>
<text x="654.83203125" y="132.42632378472223"></text>
<text x="673.357421875" y="132.42632378472223"></text>
<text x="691.8828125" y="132.42632378472223"></text>
<text x="710.408203125" y="132.42632378472223"></text>
<text x="720.74072265625" y="132.42632378472223">V4</text>
<text x="747.458984375" y="132.42632378472223"></text>
<text x="765.984375" y="132.42632378472223"></text>
<text x="784.509765625" y="132.42632378472223"></text>
<text x="803.03515625" y="132.42632378472223"></text>
<text x="821.560546875" y="132.42632378472223"></text>
<text x="840.0859375" y="132.42632378472223"></text>
<text x="850.3603515625" y="132.42632378472223">V5</text>
<text x="5" y="152.64565972222223">ambulatory visit</text>
<rect x="589.9931640625" y="143.44995659722224" width="18.525390625" height="8.0171875" style="stroke:black;  stroke-width:1.4; fill:none;" />
<rect x="719.6708984375" y="143.44995659722224" width="18.525390625" height="8.0171875" style="stroke:black;  stroke-width:1.4; fill:none;" />
<rect x="849.3486328125" y="143.44995659722224" width="18.525390625" height="8.0171875" style="stroke:black;  stroke-width:1.4; fill:none;" />
<rect x="1034.6025390625" y="143.44995659722224" width="18.525390625" height="8.0171875" style="stroke:black;  stroke-width:1.4; fill:none;" />
<rect x="1164.2802734375" y="143.44995659722224" width="18.525390625" height="8.0171875" style="stroke:black;  stroke-width:1.4; fill:none;" />
<rect x="1293.9580078125" y="143.44995659722224" width="18.525390625" height="8.0171875" style="stroke:black;  stroke-width:1.4; fill:none;" />
<text x="5" y="180.534765625">evobrutinib BID (12 h apart)</text>
<path d="M265.4380546875, 175.279296875 L265.4380546875, 169.26640625 L266.1596015625, 169.26640625 L266.1596015625, 175.279296875 L268.053662109375, 175.279296875 L265.798828125, 181.2921875 L263.543994140625, 175.279296875 L265.4380546875, 175.279296875 Z" style="stroke: black; fill: black; stroke-width:1.4; " /><path d="M321.0142265625, 175.279296875 L321.0142265625, 169.26640625 L321.7357734375, 169.26640625 L321.7357734375, 175.279296875 L323.629833984375, 175.279296875 L321.375, 181.2921875 L319.120166015625, 175.279296875 L321.0142265625, 175.279296875 Z" style="stroke: black; fill: black; stroke-width:1.4; " /><path d="M376.5903984375, 175.279296875 L376.5903984375, 169.26640625 L377.3119453125, 169.26640625 L377.3119453125, 175.279296875 L379.206005859375, 175.279296875 L376.951171875, 181.2921875 L374.696337890625, 175.279296875 L376.5903984375, 175.279296875 Z" style="stroke: black; fill: black; stroke-width:1.4; " /><path d="M469.2173515625, 175.279296875 L469.2173515625, 169.26640625 L469.9388984375, 169.26640625 L469.9388984375, 175.279296875 L471.832958984375, 175.279296875 L469.578125, 181.2921875 L467.323291015625, 175.279296875 L469.2173515625, 175.279296875 Z" style="stroke: black; fill: black; stroke-width:1.4; " /><path d="M913.8267265625, 175.279296875 L913.8267265625, 169.26640625 L914.5482734375, 169.26640625 L914.5482734375, 175.279296875 L916.442333984375, 175.279296875 L914.1875, 181.2921875 L911.932666015625, 175.279296875 L913.8267265625, 175.279296875 Z" style="stroke: black; fill: black; stroke-width:1.4; " /><text x="5" y="207.24262152777777">informed consent</text>
<path d="M206.71513671875, 203.10004340277777 L210.22265625, 196.08500434027778 L213.73017578125, 203.10004340277777 L210.22265625, 210.11508246527777 L206.71513671875, 203.10004340277777 Z" style="stroke: black; fill: none; stroke-width:1.4; " /><text x="5" y="236.10789930555555">Blood sampling</text>
<path d="M262.29130859375, 230.92078993055554 L265.798828125, 223.90575086805555 L269.30634765625, 230.92078993055554 L265.798828125, 237.93582899305554 L262.29130859375, 230.92078993055554 Z" style="stroke: black; fill: none; stroke-width:1.4; " /><path d="M280.81669921875, 230.92078993055554 L284.32421875, 223.90575086805555 L287.83173828125, 230.92078993055554 L284.32421875, 237.93582899305554 L280.81669921875, 230.92078993055554 Z" style="stroke: black; fill: none; stroke-width:1.4; " /><path d="M299.34208984375, 230.92078993055554 L302.849609375, 223.90575086805555 L306.35712890625, 230.92078993055554 L302.849609375, 237.93582899305554 L299.34208984375, 230.92078993055554 Z" style="stroke: black; fill: none; stroke-width:1.4; " /><path d="M317.86748046875, 230.92078993055554 L321.375, 223.90575086805555 L324.88251953125, 230.92078993055554 L321.375, 237.93582899305554 L317.86748046875, 230.92078993055554 Z" style="stroke: black; fill: none; stroke-width:1.4; " /><path d="M336.39287109375, 230.92078993055554 L339.900390625, 223.90575086805555 L343.40791015625, 230.92078993055554 L339.900390625, 237.93582899305554 L336.39287109375, 230.92078993055554 Z" style="stroke: black; fill: none; stroke-width:1.4; " /><path d="M354.91826171875, 230.92078993055554 L358.42578125, 223.90575086805555 L361.93330078125, 230.92078993055554 L358.42578125, 237.93582899305554 L354.91826171875, 230.92078993055554 Z" style="stroke: black; fill: none; stroke-width:1.4; " /><path d="M373.44365234375, 230.92078993055554 L376.951171875, 223.90575086805555 L380.45869140625, 230.92078993055554 L376.951171875, 237.93582899305554 L373.44365234375, 230.92078993055554 Z" style="stroke: black; fill: none; stroke-width:1.4; " /><path d="M391.96904296875, 230.92078993055554 L395.4765625, 223.90575086805555 L398.98408203125, 230.92078993055554 L395.4765625, 237.93582899305554 L391.96904296875, 230.92078993055554 Z" style="stroke: black; fill: none; stroke-width:1.4; " /><path d="M410.49443359375, 230.92078993055554 L414.001953125, 223.90575086805555 L417.50947265625, 230.92078993055554 L414.001953125, 237.93582899305554 L410.49443359375, 230.92078993055554 Z" style="stroke: black; fill: none; stroke-width:1.4; " /><path d="M466.07060546875, 230.92078993055554 L469.578125, 223.90575086805555 L473.08564453125, 230.92078993055554 L469.578125, 237.93582899305554 L466.07060546875, 230.92078993055554 Z" style="stroke: black; fill: none; stroke-width:1.4; " /><path d="M484.59599609375, 230.92078993055554 L488.103515625, 223.90575086805555 L491.61103515625, 230.92078993055554 L488.103515625, 237.93582899305554 L484.59599609375, 230.92078993055554 Z" style="stroke: black; fill: none; stroke-width:1.4; " /><path d="M503.12138671875, 230.92078993055554 L506.62890625, 223.90575086805555 L510.13642578125, 230.92078993055554 L506.62890625, 237.93582899305554 L503.12138671875, 230.92078993055554 Z" style="stroke: black; fill: none; stroke-width:1.4; " /><path d="M521.64677734375, 230.92078993055554 L525.154296875, 223.90575086805555 L528.66181640625, 230.92078993055554 L525.154296875, 237.93582899305554 L521.64677734375, 230.92078993055554 Z" style="stroke: black; fill: none; stroke-width:1.4; " /><path d="M910.67998046875, 230.92078993055554 L914.1875, 223.90575086805555 L917.69501953125, 230.92078993055554 L914.1875, 237.93582899305554 L910.67998046875, 230.92078993055554 Z" style="stroke: black; fill: none; stroke-width:1.4; " /><path d="M929.20537109375, 230.92078993055554 L932.712890625, 223.90575086805555 L936.22041015625, 230.92078993055554 L932.712890625, 237.93582899305554 L929.20537109375, 230.92078993055554 Z" style="stroke: black; fill: none; stroke-width:1.4; " /><path d="M947.73076171875, 230.92078993055554 L951.23828125, 223.90575086805555 L954.74580078125, 230.92078993055554 L951.23828125, 237.93582899305554 L947.73076171875, 230.92078993055554 Z" style="stroke: black; fill: none; stroke-width:1.4; " /><path d="M966.25615234375, 230.92078993055554 L969.763671875, 223.90575086805555 L973.27119140625, 230.92078993055554 L969.763671875, 237.93582899305554 L966.25615234375, 230.92078993055554 Z" style="stroke: black; fill: none; stroke-width:1.4; " /></svg>