<svg width="330.42578125" height="125.171875" xmlns="http://www.w3.org/2000/svg">
<style>text {font-family: Arial; font-size: 14px ;}</style>
<desc>Trial design autogenerated by td.py V2.0 (Dec-2021), author: Rainer Strotmann</desc><title>sample4</title><text x="195.0263671875" y="25.0322265625">Period 1</text>
<rect x="126.646484375" y="33.931857638888886" width="18.525390625" height="20.04296875" style="stroke:black;  stroke-width:1.4; fill:none;" />
<text x="131.1923828125" y="48.964084201388886">-1</text>
<rect x="145.171875" y="33.931857638888886" width="18.525390625" height="20.04296875" style="stroke:black;  stroke-width:1.4; fill:none;" />
<text x="150.7431640625" y="48.964084201388886">1</text>
<rect x="163.697265625" y="33.931857638888886" width="18.525390625" height="20.04296875" style="stroke:black;  stroke-width:1.4; fill:none;" />
<text x="169.64111328125" y="48.964084201388886">2</text>
<rect x="182.22265625" y="33.931857638888886" width="18.525390625" height="20.04296875" style="stroke:black;  stroke-width:1.4; fill:none;" />
<text x="188.2041015625" y="48.964084201388886">3</text>
<rect x="200.748046875" y="33.931857638888886" width="18.525390625" height="20.04296875" style="stroke:black;  stroke-width:1.4; fill:none;" />
<text x="206.544921875" y="48.964084201388886">4</text>
<rect x="219.2734375" y="33.931857638888886" width="18.525390625" height="20.04296875" style="stroke:black;  stroke-width:1.4; fill:none;" />
<text x="225.2138671875" y="48.964084201388886">5</text>
<rect x="237.798828125" y="33.931857638888886" width="18.525390625" height="20.04296875" style="stroke:black;  stroke-width:1.4; fill:none;" />
<text x="243.7529296875" y="48.964084201388886">6</text>
<rect x="256.32421875" y="33.931857638888886" width="18.525390625" height="20.04296875" style="stroke:black;  stroke-width:1.4; fill:none;" />
<text x="262.34326171875" y="48.964084201388886">7</text>
<rect x="274.849609375" y="33.931857638888886" width="18.525390625" height="20.04296875" style="stroke:black;  stroke-width:1.4; fill:none;" />
<text x="280.810546875" y="48.964084201388886">8</text>
<rect x="293.375" y="33.931857638888886" width="18.525390625" height="20.04296875" style="stroke:black;  stroke-width:1.4; fill:none;" />
<text x="299.3427734375" y="48.964084201388886">9</text>
<text x="5" y="84.67335069444444">hospitalization</text>
<rect x="126.646484375" y="75.54327256944444" width="74.1015625" height="8.0171875" style="stroke:black;  stroke-width:1.4; fill:none;" />
<text x="5" y="112.55972222222223">ambulatory visit</text>
<rect x="219.2734375" y="103.36401909722223" width="18.525390625" height="8.0171875" style="stroke:black;  stroke-width:1.4; fill:none;" />
<rect x="256.32421875" y="103.36401909722223" width="18.525390625" height="8.0171875" style="stroke:black;  stroke-width:1.4; fill:none;" />
<rect x="293.375" y="103.36401909722223" width="18.525390625" height="8.0171875" style="stroke:black;  stroke-width:1.4; fill:none;" />
</svg>