<svg width="474.3359375" height="97.35112847222223" xmlns="http://www.w3.org/2000/svg">
<style>text {font-family: Arial; font-size: 14px ;}</style>
<desc>Trial design autogenerated by td.py version 2.1 (Jan-2022), author: Rainer Strotmann</desc><title>sample11</title><path d="M457.9365234375, 10.0 A5.0107421875, 5.0107421875 0 0,1 462.947265625, 15.0107421875L462.947265625, 88.45149739583334 A5.0107421875, 5.0107421875 0 0,1 457.9365234375 93.46223958333334" style="stroke: black; stroke-width:1.4; fill:none" /><rect x="377.07763671875" y="10" width="83.3642578125" height="83.46223958333334" style="stroke:black;  stroke-width:0; fill:#eee;" />
<path d="M286.9560546875, 10.0 A5.0107421875, 5.0107421875 0 0,0 281.9453125, 15.0107421875L281.9453125, 88.45149739583334 A5.0107421875, 5.0107421875 0 0,0 286.9560546875 93.46223958333334" style="stroke: black; stroke-width:1.4; fill:none" /><rect x="80.67138671875" y="10" width="101.8896484375" height="83.46223958333334" style="stroke:black;  stroke-width:0; fill:#eee;" />
<text x="107.369140625" y="25.0322265625">Period 1</text>
<text x="208.3427734375" y="25.0322265625">Period 2</text>
<text x="300.91845703125" y="25.0322265625">Period 3</text>
<text x="393.56591796875" y="25.0322265625">Period 4</text>
<rect x="85.302734375" y="33.931857638888886" width="18.525390625" height="20.04296875" style="stroke:black;  stroke-width:1.4; fill:none;" />
<text x="89.8486328125" y="48.964084201388886">-1</text>
<rect x="103.828125" y="33.931857638888886" width="18.525390625" height="20.04296875" style="stroke:black;  stroke-width:1.4; fill:none;" />
<text x="109.3994140625" y="48.964084201388886">1</text>
<rect x="122.353515625" y="33.931857638888886" width="18.525390625" height="20.04296875" style="stroke:black;  stroke-width:1.4; fill:none;" />
<text x="128.29736328125" y="48.964084201388886">2</text>
<rect x="140.87890625" y="33.931857638888886" width="18.525390625" height="20.04296875" style="stroke:black;  stroke-width:1.4; fill:none;" />
<text x="146.8603515625" y="48.964084201388886">3</text>
<rect x="159.404296875" y="33.931857638888886" width="18.525390625" height="20.04296875" style="stroke:black;  stroke-width:1.4; fill:none;" />
<text x="165.201171875" y="48.964084201388886">4</text>
<line x1="177.9296875" y1="43.953342013888886" x2="196.455078125" y2="43.953342013888886" style="stroke:black; stroke-width:1.4; " />
<rect x="196.455078125" y="33.931857638888886" width="18.525390625" height="20.04296875" style="stroke:black;  stroke-width:1.4; fill:none;" />
<text x="202.0263671875" y="48.964084201388886">1</text>
<rect x="214.98046875" y="33.931857638888886" width="18.525390625" height="20.04296875" style="stroke:black;  stroke-width:1.4; fill:none;" />
<text x="220.92431640625" y="48.964084201388886">2</text>
<rect x="233.505859375" y="33.931857638888886" width="18.525390625" height="20.04296875" style="stroke:black;  stroke-width:1.4; fill:none;" />
<text x="239.4873046875" y="48.964084201388886">3</text>
<rect x="252.03125" y="33.931857638888886" width="18.525390625" height="20.04296875" style="stroke:black;  stroke-width:1.4; fill:none;" />
<text x="257.828125" y="48.964084201388886">4</text>
<line x1="270.556640625" y1="43.953342013888886" x2="289.08203125" y2="43.953342013888886" style="stroke:black; stroke-width:1.4; " />
<rect x="289.08203125" y="33.931857638888886" width="18.525390625" height="20.04296875" style="stroke:black;  stroke-width:1.4; fill:none;" />
<text x="294.6533203125" y="48.964084201388886">1</text>
<rect x="307.607421875" y="33.931857638888886" width="18.525390625" height="20.04296875" style="stroke:black;  stroke-width:1.4; fill:none;" />
<text x="313.55126953125" y="48.964084201388886">2</text>
<rect x="326.1328125" y="33.931857638888886" width="18.525390625" height="20.04296875" style="stroke:black;  stroke-width:1.4; fill:none;" />
<text x="332.1142578125" y="48.964084201388886">3</text>
<rect x="344.658203125" y="33.931857638888886" width="18.525390625" height="20.04296875" style="stroke:black;  stroke-width:1.4; fill:none;" />
<text x="350.455078125" y="48.964084201388886">4</text>
<line x1="363.18359375" y1="43.953342013888886" x2="381.708984375" y2="43.953342013888886" style="stroke:black; stroke-width:1.4; " />
<rect x="381.708984375" y="33.931857638888886" width="18.525390625" height="20.04296875" style="stroke:black;  stroke-width:1.4; fill:none;" />
<text x="387.2802734375" y="48.964084201388886">1</text>
<rect x="400.234375" y="33.931857638888886" width="18.525390625" height="20.04296875" style="stroke:black;  stroke-width:1.4; fill:none;" />
<text x="406.17822265625" y="48.964084201388886">2</text>
<rect x="418.759765625" y="33.931857638888886" width="18.525390625" height="20.04296875" style="stroke:black;  stroke-width:1.4; fill:none;" />
<text x="424.7412109375" y="48.964084201388886">3</text>
<rect x="437.28515625" y="33.931857638888886" width="18.525390625" height="20.04296875" style="stroke:black;  stroke-width:1.4; fill:none;" />
<text x="443.08203125" y="48.964084201388886">4</text>
<text x="5" y="83.69991319444445">massage</text>
<path d="M109.58330078125, 79.55186631944444 L113.0908203125, 72.53682725694445 L116.59833984375, 79.55186631944444 L113.0908203125, 86.56690538194444 L109.58330078125, 79.55186631944444 Z" style="stroke: black; fill: none; stroke-width:1.4; " /><path d="M128.10869140625, 79.55186631944444 L131.6162109375, 72.53682725694445 L135.12373046875, 79.55186631944444 L131.6162109375, 86.56690538194444 L128.10869140625, 79.55186631944444 Z" style="stroke: black; fill: none; stroke-width:1.4; " /><path d="M202.21025390625, 79.55186631944444 L205.7177734375, 72.53682725694445 L209.22529296875, 79.55186631944444 L205.7177734375, 86.56690538194444 L202.21025390625, 79.55186631944444 Z" style="stroke: black; fill: none; stroke-width:1.4; " /><path d="M220.73564453125, 79.55186631944444 L224.2431640625, 72.53682725694445 L227.75068359375, 79.55186631944444 L224.2431640625, 86.56690538194444 L220.73564453125, 79.55186631944444 Z" style="stroke: black; fill: none; stroke-width:1.4; " /><path d="M294.83720703125, 79.55186631944444 L298.3447265625, 72.53682725694445 L301.85224609375, 79.55186631944444 L298.3447265625, 86.56690538194444 L294.83720703125, 79.55186631944444 Z" style="stroke: black; fill: none; stroke-width:1.4; " /><path d="M313.36259765625, 79.55186631944444 L316.8701171875, 72.53682725694445 L320.37763671875, 79.55186631944444 L316.8701171875, 86.56690538194444 L313.36259765625, 79.55186631944444 Z" style="stroke: black; fill: none; stroke-width:1.4; " /><path d="M387.46416015625, 79.55186631944444 L390.9716796875, 72.53682725694445 L394.47919921875, 79.55186631944444 L390.9716796875, 86.56690538194444 L387.46416015625, 79.55186631944444 Z" style="stroke: black; fill: none; stroke-width:1.4; " /><path d="M405.98955078125, 79.55186631944444 L409.4970703125, 72.53682725694445 L413.00458984375, 79.55186631944444 L409.4970703125, 86.56690538194444 L405.98955078125, 79.55186631944444 Z" style="stroke: black; fill: none; stroke-width:1.4; " /></svg>