<svg width="409.7294921875" height="125.171875" xmlns="http://www.w3.org/2000/svg">
<style>text {font-family: Arial; font-size: 14px ;}</style>
<desc>Trial design autogenerated by td.py V2.0 (Dec-2021), author: Rainer Strotmann</desc><title>sample5</title><text x="181.703125" y="25.0322265625">Period 1</text>
<text x="328.990234375" y="25.0322265625">Period 2</text>
<rect x="113.3232421875" y="33.931857638888886" width="18.525390625" height="20.04296875" style="stroke:black;  stroke-width:1.4; fill:none;" />
<text x="117.869140625" y="48.964084201388886">-1</text>
<rect x="131.8486328125" y="33.931857638888886" width="18.525390625" height="20.04296875" style="stroke:black;  stroke-width:1.4; fill:none;" />
<text x="137.419921875" y="48.964084201388886">1</text>
<rect x="150.3740234375" y="33.931857638888886" width="18.525390625" height="20.04296875" style="stroke:black;  stroke-width:1.4; fill:none;" />
<text x="156.31787109375" y="48.964084201388886">2</text>
<rect x="168.8994140625" y="33.931857638888886" width="18.525390625" height="20.04296875" style="stroke:black;  stroke-width:1.4; fill:none;" />
<text x="174.880859375" y="48.964084201388886">3</text>
<rect x="187.4248046875" y="33.931857638888886" width="18.525390625" height="20.04296875" style="stroke:black;  stroke-width:1.4; fill:none;" />
<text x="193.2216796875" y="48.964084201388886">4</text>
<rect x="205.9501953125" y="33.931857638888886" width="18.525390625" height="20.04296875" style="stroke:black;  stroke-width:1.4; fill:none;" />
<text x="211.890625" y="48.964084201388886">5</text>
<rect x="224.4755859375" y="33.931857638888886" width="18.525390625" height="20.04296875" style="stroke:black;  stroke-width:1.4; fill:none;" />
<text x="230.4296875" y="48.964084201388886">6</text>
<rect x="243.0009765625" y="33.931857638888886" width="18.525390625" height="20.04296875" style="stroke:black;  stroke-width:1.4; fill:none;" />
<text x="249.02001953125" y="48.964084201388886">7</text>
<rect x="261.5263671875" y="33.931857638888886" width="18.525390625" height="20.04296875" style="stroke:black;  stroke-width:1.4; fill:none;" />
<text x="267.4873046875" y="48.964084201388886">8</text>
<rect x="280.0517578125" y="33.931857638888886" width="18.525390625" height="20.04296875" style="stroke:black;  stroke-width:1.4; fill:none;" />
<text x="286.01953125" y="48.964084201388886">9</text>
<line x1="298.5771484375" y1="43.953342013888886" x2="317.1025390625" y2="43.953342013888886" style="stroke:black; stroke-width:1.4; " />
<rect x="317.1025390625" y="33.931857638888886" width="18.525390625" height="20.04296875" style="stroke:black;  stroke-width:1.4; fill:none;" />
<text x="317.83056640625" y="48.964084201388886">10</text>
<rect x="335.6279296875" y="33.931857638888886" width="18.525390625" height="20.04296875" style="stroke:black;  stroke-width:1.4; fill:none;" />
<text x="337.30615234375" y="48.964084201388886">11</text>
<rect x="354.1533203125" y="33.931857638888886" width="18.525390625" height="20.04296875" style="stroke:black;  stroke-width:1.4; fill:none;" />
<text x="354.91552734375" y="48.964084201388886">12</text>
<rect x="372.6787109375" y="33.931857638888886" width="18.525390625" height="20.04296875" style="stroke:black;  stroke-width:1.4; fill:none;" />
<text x="373.3896484375" y="48.964084201388886">13</text>
<text x="5" y="84.67335069444444">aspirin</text>
<path d="M140.7505546875, 79.55186631944444 L140.7505546875, 73.53897569444445 L141.4721015625, 73.53897569444445 L141.4721015625, 79.55186631944444 L143.366162109375, 79.55186631944444 L141.111328125, 85.56475694444444 L138.856494140625, 79.55186631944444 L140.7505546875, 79.55186631944444 Z" style="stroke: black; fill: black; stroke-width:1.4; " /><path d="M344.5298515625, 79.55186631944444 L344.5298515625, 73.53897569444445 L345.2513984375, 73.53897569444445 L345.2513984375, 79.55186631944444 L347.145458984375, 79.55186631944444 L344.890625, 85.56475694444444 L342.635791015625, 79.55186631944444 L344.5298515625, 79.55186631944444 Z" style="stroke: black; fill: black; stroke-width:1.4; " /><text x="5" y="112.49409722222222">paracetamole</text>
<path d="M214.8521171875, 107.37261284722223 L214.8521171875, 101.35972222222223 L215.5736640625, 101.35972222222223 L215.5736640625, 107.37261284722223 L217.467724609375, 107.37261284722223 L215.212890625, 113.38550347222223 L212.958056640625, 107.37261284722223 L214.8521171875, 107.37261284722223 Z" style="stroke: black; fill: black; stroke-width:1.4; " /><path d="M233.3775078125, 107.37261284722223 L233.3775078125, 101.35972222222223 L234.0990546875, 101.35972222222223 L234.0990546875, 107.37261284722223 L235.993115234375, 107.37261284722223 L233.73828125, 113.38550347222223 L231.483447265625, 107.37261284722223 L233.3775078125, 107.37261284722223 Z" style="stroke: black; fill: black; stroke-width:1.4; " /><path d="M251.9028984375, 107.37261284722223 L251.9028984375, 101.35972222222223 L252.6244453125, 101.35972222222223 L252.6244453125, 107.37261284722223 L254.518505859375, 107.37261284722223 L252.263671875, 113.38550347222223 L250.008837890625, 107.37261284722223 L251.9028984375, 107.37261284722223 Z" style="stroke: black; fill: black; stroke-width:1.4; " /></svg>