<svg width="805.5325520833334" height="331.5169574652777" xmlns="http://www.w3.org/2000/svg">
<style>text {font-family: Arial; font-size: 14px ;}</style>
<desc>Trial design autogenerated by td.py V2.0 (Dec-2021), author: Rainer Strotmann</desc><title>Test</title><text x="211.81884765625" y="25.0322265625">S</text>
<text x="293.4501953125" y="25.0322265625">Period 1</text>
<text x="554.9772135416667" y="25.0322265625">Period 2</text>
<text x="767.6067708333334" y="25.0322265625">F/U</text>
<rect x="206.544921875" y="33.931857638888886" width="18.525390625" height="20.04296875" style="stroke:black;  stroke-width:1.4; fill:none;" />
<text x="215.8076171875" y="48.964084201388886"></text>
<line x1="225.0703125" y1="43.953342013888886" x2="243.595703125" y2="43.953342013888886" style="stroke:black; stroke-width:1.4; " />
<rect x="243.595703125" y="33.931857638888886" width="18.525390625" height="20.04296875" style="stroke:black;  stroke-width:1.4; fill:none;" />
<text x="248.1416015625" y="48.964084201388886">-1</text>
<rect x="262.12109375" y="33.931857638888886" width="18.525390625" height="20.04296875" style="stroke:black;  stroke-width:0; fill:lightgray;" />
<rect x="262.12109375" y="33.931857638888886" width="18.525390625" height="20.04296875" style="stroke:black;  stroke-width:1.4; fill:none;" />
<text x="267.6923828125" y="48.964084201388886">1</text>
<rect x="280.646484375" y="33.931857638888886" width="18.525390625" height="20.04296875" style="stroke:black;  stroke-width:1.4; fill:none;" />
<text x="286.59033203125" y="48.964084201388886">2</text>
<rect x="299.171875" y="33.931857638888886" width="18.525390625" height="20.04296875" style="stroke:black;  stroke-width:1.4; fill:none;" />
<text x="305.1533203125" y="48.964084201388886">3</text>
<rect x="317.697265625" y="33.931857638888886" width="18.525390625" height="20.04296875" style="stroke:black;  stroke-width:1.4; fill:none;" />
<text x="323.494140625" y="48.964084201388886">4</text>
<rect x="336.22265625" y="33.931857638888886" width="18.525390625" height="20.04296875" style="stroke:black;  stroke-width:1.4; fill:none;" />
<text x="342.1630859375" y="48.964084201388886">5</text>
<rect x="354.748046875" y="33.931857638888886" width="18.525390625" height="20.04296875" style="stroke:black;  stroke-width:1.4; fill:none;" />
<text x="360.7021484375" y="48.964084201388886">6</text>
<rect x="373.2734375" y="33.931857638888886" width="18.525390625" height="20.04296875" style="stroke:black;  stroke-width:1.4; fill:none;" />
<text x="379.29248046875" y="48.964084201388886">7</text>
<line x1="391.798828125" y1="43.953342013888886" x2="410.32421875" y2="43.953342013888886" style="stroke:black; stroke-width:1.4; " />
<rect x="410.32421875" y="33.931857638888886" width="18.525390625" height="20.04296875" style="stroke:black;  stroke-width:0; fill:lightgray;" />
<rect x="410.32421875" y="33.931857638888886" width="18.525390625" height="20.04296875" style="stroke:black;  stroke-width:1.4; fill:none;" />
<text x="416.28515625" y="48.964084201388886">8</text>
<rect x="428.849609375" y="33.931857638888886" width="18.525390625" height="20.04296875" style="stroke:black;  stroke-width:1.4; fill:none;" />
<text x="434.8173828125" y="48.964084201388886">9</text>
<rect x="447.375" y="33.931857638888886" width="18.525390625" height="20.04296875" style="stroke:black;  stroke-width:1.4; fill:none;" />
<text x="448.10302734375" y="48.964084201388886">10</text>
<rect x="465.900390625" y="33.931857638888886" width="18.525390625" height="20.04296875" style="stroke:black;  stroke-width:1.4; fill:none;" />
<text x="467.57861328125" y="48.964084201388886">11</text>
<rect x="484.42578125" y="33.931857638888886" width="18.525390625" height="20.04296875" style="stroke:black;  stroke-width:1.4; fill:none;" />
<text x="485.18798828125" y="48.964084201388886">12</text>
<line x1="502.951171875" y1="33.931857638888886" x2="509.1263020833333" y2="33.931857638888886" style="stroke:black; stroke-width:1.4; stroke-dasharray: 4.199999999999999 4.199999999999999" />
<line x1="502.951171875" y1="53.974826388888886" x2="509.1263020833333" y2="53.974826388888886" style="stroke:black; stroke-width:1.4; stroke-dasharray: 4.199999999999999 4.199999999999999" />
<text x="506.0387369791667" y="48.964084201388886"></text>
<line x1="509.1263020833333" y1="33.931857638888886" x2="515.3014322916666" y2="33.931857638888886" style="stroke:black; stroke-width:1.4; stroke-dasharray: 4.199999999999999 4.199999999999999" />
<line x1="509.1263020833333" y1="53.974826388888886" x2="515.3014322916666" y2="53.974826388888886" style="stroke:black; stroke-width:1.4; stroke-dasharray: 4.199999999999999 4.199999999999999" />
<text x="512.2138671875" y="48.964084201388886"></text>
<rect x="515.3014322916666" y="33.931857638888886" width="18.525390625" height="20.04296875" style="stroke:black;  stroke-width:0; fill:lightgray;" />
<rect x="515.3014322916666" y="33.931857638888886" width="18.525390625" height="20.04296875" style="stroke:black;  stroke-width:1.4; fill:none;" />
<text x="515.9747721354166" y="48.964084201388886">15</text>
<line x1="533.8268229166666" y1="33.931857638888886" x2="540.001953125" y2="33.931857638888886" style="stroke:black; stroke-width:1.4; stroke-dasharray: 4.199999999999999 4.199999999999999" />
<line x1="533.8268229166666" y1="53.974826388888886" x2="540.001953125" y2="53.974826388888886" style="stroke:black; stroke-width:1.4; stroke-dasharray: 4.199999999999999 4.199999999999999" />
<text x="536.9143880208333" y="48.964084201388886"></text>
<line x1="540.001953125" y1="33.931857638888886" x2="546.1770833333334" y2="33.931857638888886" style="stroke:black; stroke-width:1.4; stroke-dasharray: 4.199999999999999 4.199999999999999" />
<line x1="540.001953125" y1="53.974826388888886" x2="546.1770833333334" y2="53.974826388888886" style="stroke:black; stroke-width:1.4; stroke-dasharray: 4.199999999999999 4.199999999999999" />
<text x="543.0895182291666" y="48.964084201388886"></text>
<line x1="546.1770833333334" y1="33.931857638888886" x2="552.3522135416667" y2="33.931857638888886" style="stroke:black; stroke-width:1.4; stroke-dasharray: 4.199999999999999 4.199999999999999" />
<line x1="546.1770833333334" y1="53.974826388888886" x2="552.3522135416667" y2="53.974826388888886" style="stroke:black; stroke-width:1.4; stroke-dasharray: 4.199999999999999 4.199999999999999" />
<text x="549.2646484375" y="48.964084201388886"></text>
<line x1="552.3522135416667" y1="33.931857638888886" x2="558.5273437500001" y2="33.931857638888886" style="stroke:black; stroke-width:1.4; stroke-dasharray: 4.199999999999999 4.199999999999999" />
<line x1="552.3522135416667" y1="53.974826388888886" x2="558.5273437500001" y2="53.974826388888886" style="stroke:black; stroke-width:1.4; stroke-dasharray: 4.199999999999999 4.199999999999999" />
<text x="555.4397786458334" y="48.964084201388886"></text>
<line x1="558.5273437500001" y1="33.931857638888886" x2="564.7024739583335" y2="33.931857638888886" style="stroke:black; stroke-width:1.4; stroke-dasharray: 4.199999999999999 4.199999999999999" />
<line x1="558.5273437500001" y1="53.974826388888886" x2="564.7024739583335" y2="53.974826388888886" style="stroke:black; stroke-width:1.4; stroke-dasharray: 4.199999999999999 4.199999999999999" />
<text x="561.6149088541667" y="48.964084201388886"></text>
<line x1="564.7024739583335" y1="33.931857638888886" x2="570.8776041666669" y2="33.931857638888886" style="stroke:black; stroke-width:1.4; stroke-dasharray: 4.199999999999999 4.199999999999999" />
<line x1="564.7024739583335" y1="53.974826388888886" x2="570.8776041666669" y2="53.974826388888886" style="stroke:black; stroke-width:1.4; stroke-dasharray: 4.199999999999999 4.199999999999999" />
<text x="567.7900390625001" y="48.964084201388886"></text>
<rect x="570.8776041666669" y="33.931857638888886" width="18.525390625" height="20.04296875" style="stroke:black;  stroke-width:0; fill:lightgray;" />
<rect x="570.8776041666669" y="33.931857638888886" width="18.525390625" height="20.04296875" style="stroke:black;  stroke-width:1.4; fill:none;" />
<text x="572.9283854166669" y="48.964084201388886">22</text>
<line x1="589.4029947916669" y1="33.931857638888886" x2="595.5781250000002" y2="33.931857638888886" style="stroke:black; stroke-width:1.4; stroke-dasharray: 4.199999999999999 4.199999999999999" />
<line x1="589.4029947916669" y1="53.974826388888886" x2="595.5781250000002" y2="53.974826388888886" style="stroke:black; stroke-width:1.4; stroke-dasharray: 4.199999999999999 4.199999999999999" />
<text x="592.4905598958335" y="48.964084201388886"></text>
<line x1="595.5781250000002" y1="33.931857638888886" x2="601.7532552083336" y2="33.931857638888886" style="stroke:black; stroke-width:1.4; stroke-dasharray: 4.199999999999999 4.199999999999999" />
<line x1="595.5781250000002" y1="53.974826388888886" x2="601.7532552083336" y2="53.974826388888886" style="stroke:black; stroke-width:1.4; stroke-dasharray: 4.199999999999999 4.199999999999999" />
<text x="598.6656901041669" y="48.964084201388886"></text>
<rect x="601.7532552083336" y="33.931857638888886" width="18.525390625" height="20.04296875" style="stroke:black;  stroke-width:1.4; fill:none;" />
<text x="603.7151692708336" y="48.964084201388886">25</text>
<rect x="620.2786458333336" y="33.931857638888886" width="18.525390625" height="20.04296875" style="stroke:black;  stroke-width:1.4; fill:none;" />
<text x="622.2815755208336" y="48.964084201388886">26</text>
<rect x="638.8040364583336" y="33.931857638888886" width="18.525390625" height="20.04296875" style="stroke:black;  stroke-width:1.4; fill:none;" />
<text x="640.8035481770836" y="48.964084201388886">27</text>
<rect x="657.3294270833336" y="33.931857638888886" width="18.525390625" height="20.04296875" style="stroke:black;  stroke-width:1.4; fill:none;" />
<text x="659.3186848958336" y="48.964084201388886">28</text>
<rect x="675.8548177083336" y="33.931857638888886" width="18.525390625" height="20.04296875" style="stroke:black;  stroke-width:0; fill:lightgray;" />
<rect x="675.8548177083336" y="33.931857638888886" width="18.525390625" height="20.04296875" style="stroke:black;  stroke-width:1.4; fill:none;" />
<text x="677.8440755208336" y="48.964084201388886">29</text>
<rect x="694.3802083333336" y="33.931857638888886" width="18.525390625" height="20.04296875" style="stroke:black;  stroke-width:1.4; fill:none;" />
<text x="696.4856770833336" y="48.964084201388886">30</text>
<rect x="712.9055989583336" y="33.931857638888886" width="18.525390625" height="20.04296875" style="stroke:black;  stroke-width:1.4; fill:none;" />
<text x="715.9612630208336" y="48.964084201388886">31</text>
<rect x="731.4309895833336" y="33.931857638888886" width="18.525390625" height="20.04296875" style="stroke:black;  stroke-width:1.4; fill:none;" />
<text x="733.5706380208336" y="48.964084201388886">32</text>
<line x1="749.9563802083334" y1="43.953342013888886" x2="768.4817708333334" y2="43.953342013888886" style="stroke:black; stroke-width:1.4; " />
<rect x="768.4817708333334" y="33.931857638888886" width="18.525390625" height="20.04296875" style="stroke:black;  stroke-width:1.4; fill:none;" />
<text x="770.5598958333334" y="48.964084201388886">39</text>
<text x="5" y="84.67335069444444">hospitalization</text>
<rect x="243.595703125" y="75.54327256944444" width="92.626953125" height="8.0171875" style="stroke:black;  stroke-width:1.4; fill:none;" />
<rect x="601.7532552083336" y="75.54327256944444" width="92.626953125" height="8.0171875" style="stroke:black;  stroke-width:1.4; fill:none;" />
<text x="5" y="112.49409722222222">test drug</text>
<path d="M271.023015625, 107.37261284722223 L271.023015625, 101.35972222222223 L271.7445625, 101.35972222222223 L271.7445625, 107.37261284722223 L273.638623046875, 107.37261284722223 L271.3837890625, 113.38550347222223 L269.128955078125, 107.37261284722223 L271.023015625, 107.37261284722223 Z" style="stroke: black; fill: black; stroke-width:1.4; " /><path d="M629.1805677083336, 107.37261284722223 L629.1805677083336, 101.35972222222223 L629.9021145833336, 101.35972222222223 L629.9021145833336, 107.37261284722223 L631.7961751302086, 107.37261284722223 L629.5413411458336, 113.38550347222223 L627.2865071614586, 107.37261284722223 L629.1805677083336, 107.37261284722223 Z" style="stroke: black; fill: black; stroke-width:1.4; " /><text x="5" y="140.31484375">challenge drug BID</text>
<path d="M419.226140625, 135.193359375 L419.226140625, 129.18046875 L419.9476875, 129.18046875 L419.9476875, 135.193359375 L421.841748046875, 135.193359375 L419.5869140625, 141.20625 L417.332080078125, 135.193359375 L419.226140625, 135.193359375 Z" style="stroke: black; fill: black; stroke-width:1.4; " /><path d="M437.75153125, 135.193359375 L437.75153125, 129.18046875 L438.473078125, 129.18046875 L438.473078125, 135.193359375 L440.367138671875, 135.193359375 L438.1123046875, 141.20625 L435.857470703125, 135.193359375 L437.75153125, 135.193359375 Z" style="stroke: black; fill: black; stroke-width:1.4; " /><path d="M456.276921875, 135.193359375 L456.276921875, 129.18046875 L456.99846875, 129.18046875 L456.99846875, 135.193359375 L458.892529296875, 135.193359375 L456.6376953125, 141.20625 L454.382861328125, 135.193359375 L456.276921875, 135.193359375 Z" style="stroke: black; fill: black; stroke-width:1.4; " /><path d="M474.8023125, 135.193359375 L474.8023125, 129.18046875 L475.523859375, 129.18046875 L475.523859375, 135.193359375 L477.417919921875, 135.193359375 L475.1630859375, 141.20625 L472.908251953125, 135.193359375 L474.8023125, 135.193359375 Z" style="stroke: black; fill: black; stroke-width:1.4; " /><path d="M493.327703125, 135.193359375 L493.327703125, 129.18046875 L494.04925, 129.18046875 L494.04925, 135.193359375 L495.943310546875, 135.193359375 L493.6884765625, 141.20625 L491.433642578125, 135.193359375 L493.327703125, 135.193359375 Z" style="stroke: black; fill: black; stroke-width:1.4; " /><circle cx="506.0387369791667" cy="135.193359375" r="0.6680989583333333" style="stroke:black;  stroke-width:1.2; fill:black;"/>
<circle cx="512.2138671875" cy="135.193359375" r="0.6680989583333333" style="stroke:black;  stroke-width:1.2; fill:black;"/>
<path d="M524.2033541666666, 135.193359375 L524.2033541666666, 129.18046875 L524.9249010416667, 129.18046875 L524.9249010416667, 135.193359375 L526.8189615885416, 135.193359375 L524.5641276041666, 141.20625 L522.3092936197917, 135.193359375 L524.2033541666666, 135.193359375 Z" style="stroke: black; fill: black; stroke-width:1.4; " /><circle cx="536.9143880208333" cy="135.193359375" r="0.6680989583333333" style="stroke:black;  stroke-width:1.2; fill:black;"/>
<circle cx="543.0895182291666" cy="135.193359375" r="0.6680989583333333" style="stroke:black;  stroke-width:1.2; fill:black;"/>
<circle cx="549.2646484375" cy="135.193359375" r="0.6680989583333333" style="stroke:black;  stroke-width:1.2; fill:black;"/>
<circle cx="555.4397786458334" cy="135.193359375" r="0.6680989583333333" style="stroke:black;  stroke-width:1.2; fill:black;"/>
<circle cx="561.6149088541667" cy="135.193359375" r="0.6680989583333333" style="stroke:black;  stroke-width:1.2; fill:black;"/>
<circle cx="567.7900390625001" cy="135.193359375" r="0.6680989583333333" style="stroke:black;  stroke-width:1.2; fill:black;"/>
<path d="M579.7795260416668, 135.193359375 L579.7795260416668, 129.18046875 L580.5010729166669, 129.18046875 L580.5010729166669, 135.193359375 L582.3951334635418, 135.193359375 L580.1402994791669, 141.20625 L577.8854654947919, 135.193359375 L579.7795260416668, 135.193359375 Z" style="stroke: black; fill: black; stroke-width:1.4; " /><circle cx="592.4905598958335" cy="135.193359375" r="0.6680989583333333" style="stroke:black;  stroke-width:1.2; fill:black;"/>
<circle cx="598.6656901041669" cy="135.193359375" r="0.6680989583333333" style="stroke:black;  stroke-width:1.2; fill:black;"/>
<path d="M610.6551770833336, 135.193359375 L610.6551770833336, 129.18046875 L611.3767239583336, 129.18046875 L611.3767239583336, 135.193359375 L613.2707845052086, 135.193359375 L611.0159505208336, 141.20625 L608.7611165364586, 135.193359375 L610.6551770833336, 135.193359375 Z" style="stroke: black; fill: black; stroke-width:1.4; " /><path d="M629.1805677083336, 135.193359375 L629.1805677083336, 129.18046875 L629.9021145833336, 129.18046875 L629.9021145833336, 135.193359375 L631.7961751302086, 135.193359375 L629.5413411458336, 141.20625 L627.2865071614586, 135.193359375 L629.1805677083336, 135.193359375 Z" style="stroke: black; fill: black; stroke-width:1.4; " /><path d="M647.7059583333336, 135.193359375 L647.7059583333336, 129.18046875 L648.4275052083336, 129.18046875 L648.4275052083336, 135.193359375 L650.3215657552086, 135.193359375 L648.0667317708336, 141.20625 L645.8118977864586, 135.193359375 L647.7059583333336, 135.193359375 Z" style="stroke: black; fill: black; stroke-width:1.4; " /><path d="M666.2313489583336, 135.193359375 L666.2313489583336, 129.18046875 L666.9528958333336, 129.18046875 L666.9528958333336, 135.193359375 L668.8469563802086, 135.193359375 L666.5921223958336, 141.20625 L664.3372884114586, 135.193359375 L666.2313489583336, 135.193359375 Z" style="stroke: black; fill: black; stroke-width:1.4; " /><path d="M684.7567395833336, 135.193359375 L684.7567395833336, 129.18046875 L685.4782864583336, 129.18046875 L685.4782864583336, 135.193359375 L687.3723470052086, 135.193359375 L685.1175130208336, 141.20625 L682.8626790364586, 135.193359375 L684.7567395833336, 135.193359375 Z" style="stroke: black; fill: black; stroke-width:1.4; " /><path d="M703.2821302083336, 135.193359375 L703.2821302083336, 129.18046875 L704.0036770833336, 129.18046875 L704.0036770833336, 135.193359375 L705.8977376302086, 135.193359375 L703.6429036458336, 141.20625 L701.3880696614586, 135.193359375 L703.2821302083336, 135.193359375 Z" style="stroke: black; fill: black; stroke-width:1.4; " /><path d="M721.8075208333336, 135.193359375 L721.8075208333336, 129.18046875 L722.5290677083336, 129.18046875 L722.5290677083336, 135.193359375 L724.4231282552086, 135.193359375 L722.1682942708336, 141.20625 L719.9134602864586, 135.193359375 L721.8075208333336, 135.193359375 Z" style="stroke: black; fill: black; stroke-width:1.4; " /><path d="M740.3329114583336, 135.193359375 L740.3329114583336, 129.18046875 L741.0544583333336, 129.18046875 L741.0544583333336, 135.193359375 L742.9485188802086, 135.193359375 L740.6936848958336, 141.20625 L738.4388509114586, 135.193359375 L740.3329114583336, 135.193359375 Z" style="stroke: black; fill: black; stroke-width:1.4; " /><line x1="410.32421875" y1="165.01840277777777" x2="428.849609375" y2="165.01840277777777" style="stroke:black; stroke-width:1.4; " />
<text x="410.32421875" y="183.05707465277777">100</text>
<line x1="428.849609375" y1="165.01840277777777" x2="447.375" y2="165.01840277777777" style="stroke:black; stroke-width:1.4; " />
<line x1="428.849609375" y1="165.01840277777777" x2="428.849609375" y2="165.01840277777777" style="stroke:black; stroke-width:1.4; " />
<line x1="447.375" y1="159.00551215277775" x2="465.900390625" y2="159.00551215277775" style="stroke:black; stroke-width:1.4; " />
<line x1="447.375" y1="165.01840277777777" x2="447.375" y2="159.00551215277775" style="stroke:black; stroke-width:1.4; " />
<text x="447.375" y="183.05707465277777">200</text>
<line x1="465.900390625" y1="159.00551215277775" x2="484.42578125" y2="159.00551215277775" style="stroke:black; stroke-width:1.4; " />
<line x1="465.900390625" y1="159.00551215277775" x2="465.900390625" y2="159.00551215277775" style="stroke:black; stroke-width:1.4; " />
<line x1="484.42578125" y1="152.99262152777777" x2="502.951171875" y2="152.99262152777777" style="stroke:black; stroke-width:1.4; " />
<line x1="484.42578125" y1="159.00551215277775" x2="484.42578125" y2="152.99262152777777" style="stroke:black; stroke-width:1.4; " />
<text x="484.42578125" y="183.05707465277777">300</text>
<line x1="502.951171875" y1="152.99262152777777" x2="509.1263020833333" y2="152.99262152777777" style="stroke:black; stroke-width:1.4; " />
<line x1="502.951171875" y1="152.99262152777777" x2="502.951171875" y2="152.99262152777777" style="stroke:black; stroke-width:1.4; " />
<line x1="509.1263020833333" y1="152.99262152777777" x2="515.3014322916666" y2="152.99262152777777" style="stroke:black; stroke-width:1.4; " />
<line x1="509.1263020833333" y1="152.99262152777777" x2="509.1263020833333" y2="152.99262152777777" style="stroke:black; stroke-width:1.4; " />
<line x1="515.3014322916666" y1="152.99262152777777" x2="533.8268229166666" y2="152.99262152777777" style="stroke:black; stroke-width:1.4; " />
<line x1="515.3014322916666" y1="152.99262152777777" x2="515.3014322916666" y2="152.99262152777777" style="stroke:black; stroke-width:1.4; " />
<line x1="533.8268229166666" y1="152.99262152777777" x2="540.001953125" y2="152.99262152777777" style="stroke:black; stroke-width:1.4; " />
<line x1="533.8268229166666" y1="152.99262152777777" x2="533.8268229166666" y2="152.99262152777777" style="stroke:black; stroke-width:1.4; " />
<line x1="540.001953125" y1="152.99262152777777" x2="546.1770833333334" y2="152.99262152777777" style="stroke:black; stroke-width:1.4; " />
<line x1="540.001953125" y1="152.99262152777777" x2="540.001953125" y2="152.99262152777777" style="stroke:black; stroke-width:1.4; " />
<line x1="546.1770833333334" y1="152.99262152777777" x2="552.3522135416667" y2="152.99262152777777" style="stroke:black; stroke-width:1.4; " />
<line x1="546.1770833333334" y1="152.99262152777777" x2="546.1770833333334" y2="152.99262152777777" style="stroke:black; stroke-width:1.4; " />
<line x1="552.3522135416667" y1="152.99262152777777" x2="558.5273437500001" y2="152.99262152777777" style="stroke:black; stroke-width:1.4; " />
<line x1="552.3522135416667" y1="152.99262152777777" x2="552.3522135416667" y2="152.99262152777777" style="stroke:black; stroke-width:1.4; " />
<line x1="558.5273437500001" y1="152.99262152777777" x2="564.7024739583335" y2="152.99262152777777" style="stroke:black; stroke-width:1.4; " />
<line x1="558.5273437500001" y1="152.99262152777777" x2="558.5273437500001" y2="152.99262152777777" style="stroke:black; stroke-width:1.4; " />
<line x1="564.7024739583335" y1="152.99262152777777" x2="570.8776041666669" y2="152.99262152777777" style="stroke:black; stroke-width:1.4; " />
<line x1="564.7024739583335" y1="152.99262152777777" x2="564.7024739583335" y2="152.99262152777777" style="stroke:black; stroke-width:1.4; " />
<line x1="570.8776041666669" y1="152.99262152777777" x2="589.4029947916669" y2="152.99262152777777" style="stroke:black; stroke-width:1.4; " />
<line x1="570.8776041666669" y1="152.99262152777777" x2="570.8776041666669" y2="152.99262152777777" style="stroke:black; stroke-width:1.4; " />
<line x1="589.4029947916669" y1="152.99262152777777" x2="595.5781250000002" y2="152.99262152777777" style="stroke:black; stroke-width:1.4; " />
<line x1="589.4029947916669" y1="152.99262152777777" x2="589.4029947916669" y2="152.99262152777777" style="stroke:black; stroke-width:1.4; " />
<line x1="595.5781250000002" y1="152.99262152777777" x2="601.7532552083336" y2="152.99262152777777" style="stroke:black; stroke-width:1.4; " />
<line x1="595.5781250000002" y1="152.99262152777777" x2="595.5781250000002" y2="152.99262152777777" style="stroke:black; stroke-width:1.4; " />
<line x1="601.7532552083336" y1="152.99262152777777" x2="620.2786458333336" y2="152.99262152777777" style="stroke:black; stroke-width:1.4; " />
<line x1="601.7532552083336" y1="152.99262152777777" x2="601.7532552083336" y2="152.99262152777777" style="stroke:black; stroke-width:1.4; " />
<line x1="620.2786458333336" y1="152.99262152777777" x2="638.8040364583336" y2="152.99262152777777" style="stroke:black; stroke-width:1.4; " />
<line x1="620.2786458333336" y1="152.99262152777777" x2="620.2786458333336" y2="152.99262152777777" style="stroke:black; stroke-width:1.4; " />
<line x1="638.8040364583336" y1="152.99262152777777" x2="657.3294270833336" y2="152.99262152777777" style="stroke:black; stroke-width:1.4; " />
<line x1="638.8040364583336" y1="152.99262152777777" x2="638.8040364583336" y2="152.99262152777777" style="stroke:black; stroke-width:1.4; " />
<line x1="657.3294270833336" y1="152.99262152777777" x2="675.8548177083336" y2="152.99262152777777" style="stroke:black; stroke-width:1.4; " />
<line x1="657.3294270833336" y1="152.99262152777777" x2="657.3294270833336" y2="152.99262152777777" style="stroke:black; stroke-width:1.4; " />
<line x1="675.8548177083336" y1="152.99262152777777" x2="694.3802083333336" y2="152.99262152777777" style="stroke:black; stroke-width:1.4; " />
<line x1="675.8548177083336" y1="152.99262152777777" x2="675.8548177083336" y2="152.99262152777777" style="stroke:black; stroke-width:1.4; " />
<line x1="694.3802083333336" y1="152.99262152777777" x2="712.9055989583336" y2="152.99262152777777" style="stroke:black; stroke-width:1.4; " />
<line x1="694.3802083333336" y1="152.99262152777777" x2="694.3802083333336" y2="152.99262152777777" style="stroke:black; stroke-width:1.4; " />
<line x1="712.9055989583336" y1="152.99262152777777" x2="731.4309895833336" y2="152.99262152777777" style="stroke:black; stroke-width:1.4; " />
<line x1="712.9055989583336" y1="152.99262152777777" x2="712.9055989583336" y2="152.99262152777777" style="stroke:black; stroke-width:1.4; " />
<line x1="731.4309895833336" y1="152.99262152777777" x2="749.9563802083336" y2="152.99262152777777" style="stroke:black; stroke-width:1.4; " />
<line x1="731.4309895833336" y1="152.99262152777777" x2="731.4309895833336" y2="152.99262152777777" style="stroke:black; stroke-width:1.4; " />
<text x="5" y="206.04344618055555">PK sampling challenge drug</text>
<path d="M607.5084309895836, 200.85633680555554 L611.0159505208336, 193.84129774305555 L614.5234700520836, 200.85633680555554 L611.0159505208336, 207.87137586805554 L607.5084309895836, 200.85633680555554 Z" style="stroke: black; fill: none; stroke-width:1.4; " /><path d="M623.0574544270836, 204.61439344618054 L623.0574544270836, 197.09828016493054 L636.0252278645836, 197.09828016493054 L636.0252278645836, 204.61439344618054 L623.0574544270836, 204.61439344618054 Z" style="stroke: black; fill: none; stroke-width:1.4; " /><text x="5" y="233.86419270833332">PK sampling test drug</text>
<path d="M264.89990234375, 232.43513997395831 L264.89990234375, 224.91902669270831 L277.86767578125, 224.91902669270831 L277.86767578125, 232.43513997395831 L264.89990234375, 232.43513997395831 Z" style="stroke: black; fill: none; stroke-width:1.4; " /><path d="M283.42529296875, 232.43513997395831 L283.42529296875, 224.91902669270831 L296.39306640625, 224.91902669270831 L296.39306640625, 232.43513997395831 L283.42529296875, 232.43513997395831 Z" style="stroke: black; fill: none; stroke-width:1.4; " /><path d="M301.95068359375, 232.43513997395831 L301.95068359375, 224.91902669270831 L314.91845703125, 224.91902669270831 L314.91845703125, 232.43513997395831 L301.95068359375, 232.43513997395831 Z" style="stroke: black; fill: none; stroke-width:1.4; " /><path d="M323.45244140625, 228.67708333333331 L326.9599609375, 221.66204427083332 L330.46748046875, 228.67708333333331 L326.9599609375, 235.6921223958333 L323.45244140625, 228.67708333333331 Z" style="stroke: black; fill: none; stroke-width:1.4; " /><path d="M341.97783203125, 228.67708333333331 L345.4853515625, 221.66204427083332 L348.99287109375, 228.67708333333331 L345.4853515625, 235.6921223958333 L341.97783203125, 228.67708333333331 Z" style="stroke: black; fill: none; stroke-width:1.4; " /><path d="M360.50322265625, 228.67708333333331 L364.0107421875, 221.66204427083332 L367.51826171875, 228.67708333333331 L364.0107421875, 235.6921223958333 L360.50322265625, 228.67708333333331 Z" style="stroke: black; fill: none; stroke-width:1.4; " /><path d="M379.02861328125, 228.67708333333331 L382.5361328125, 221.66204427083332 L386.04365234375, 228.67708333333331 L382.5361328125, 235.6921223958333 L379.02861328125, 228.67708333333331 Z" style="stroke: black; fill: none; stroke-width:1.4; " /><path d="M623.0574544270836, 232.43513997395831 L623.0574544270836, 224.91902669270831 L636.0252278645836, 224.91902669270831 L636.0252278645836, 232.43513997395831 L623.0574544270836, 232.43513997395831 Z" style="stroke: black; fill: none; stroke-width:1.4; " /><path d="M641.5828450520836, 232.43513997395831 L641.5828450520836, 224.91902669270831 L654.5506184895836, 224.91902669270831 L654.5506184895836, 232.43513997395831 L641.5828450520836, 232.43513997395831 Z" style="stroke: black; fill: none; stroke-width:1.4; " /><path d="M660.1082356770836, 232.43513997395831 L660.1082356770836, 224.91902669270831 L673.0760091145836, 224.91902669270831 L673.0760091145836, 232.43513997395831 L660.1082356770836, 232.43513997395831 Z" style="stroke: black; fill: none; stroke-width:1.4; " /><path d="M681.6099934895836, 228.67708333333331 L685.1175130208336, 221.66204427083332 L688.6250325520836, 228.67708333333331 L685.1175130208336, 235.6921223958333 L681.6099934895836, 228.67708333333331 Z" style="stroke: black; fill: none; stroke-width:1.4; " /><path d="M700.1353841145836, 228.67708333333331 L703.6429036458336, 221.66204427083332 L707.1504231770836, 228.67708333333331 L703.6429036458336, 235.6921223958333 L700.1353841145836, 228.67708333333331 Z" style="stroke: black; fill: none; stroke-width:1.4; " /><path d="M718.6607747395836, 228.67708333333331 L722.1682942708336, 221.66204427083332 L725.6758138020836, 228.67708333333331 L722.1682942708336, 235.6921223958333 L718.6607747395836, 228.67708333333331 Z" style="stroke: black; fill: none; stroke-width:1.4; " /><path d="M737.1861653645836, 228.67708333333331 L740.6936848958336, 221.66204427083332 L744.2012044270836, 228.67708333333331 L740.6936848958336, 235.6921223958333 L737.1861653645836, 228.67708333333331 Z" style="stroke: black; fill: none; stroke-width:1.4; " /><path d="M262.12109375, 246.4763454861111 A6.680989583333333, 6.680989583333333, 0, 0 0 268.8020833333333, 253.15733506944443 L320.2789713541667, 253.15733506944443 A6.680989583333333, 6.680989583333333 0, 0 1 326.9599609375, 259.83832465277777 A6.680989583333333, 6.680989583333333, 0, 0 1 333.6409505208333, 253.15733506944443 L385.1178385416667, 253.15733506944443 A6.680989583333333, 6.680989583333333 0, 0 0 391.798828125, 246.4763454861111 " style="stroke: black; stroke-width:1.4; fill:none" /><path d="M240.08818359375, 281.5264756944444 L243.595703125, 274.5114366319444 L247.10322265625, 281.5264756944444 L243.595703125, 288.5415147569444 L240.08818359375, 281.5264756944444 Z" style="stroke: black; fill: none; stroke-width:1.4; " /><path d="M250.38006727430553, 281.5264756944444 L253.88758680555554, 274.5114366319444 L257.39510633680555, 281.5264756944444 L253.88758680555554, 288.5415147569444 L250.38006727430553, 281.5264756944444 Z" style="stroke: black; fill: none; stroke-width:1.4; " /><path d="M255.5260091145833, 281.5264756944444 L259.0335286458333, 274.5114366319444 L262.5410481770833, 281.5264756944444 L259.0335286458333, 288.5415147569444 L255.5260091145833, 281.5264756944444 Z" style="stroke: black; fill: none; stroke-width:1.4; " /><path d="M260.6719509548611, 281.5264756944444 L264.1794704861111, 274.5114366319444 L267.6869900173611, 281.5264756944444 L264.1794704861111, 288.5415147569444 L260.6719509548611, 281.5264756944444 Z" style="stroke: black; fill: none; stroke-width:1.4; " /><path d="M270.9638346354167, 281.5264756944444 L274.4713541666667, 274.5114366319444 L277.9788736979167, 281.5264756944444 L274.4713541666667, 288.5415147569444 L270.9638346354167, 281.5264756944444 Z" style="stroke: black; fill: none; stroke-width:1.4; " /><path d="M281.2557183159722, 281.5264756944444 L284.76323784722223, 274.5114366319444 L288.27075737847224, 281.5264756944444 L284.76323784722223, 288.5415147569444 L281.2557183159722, 281.5264756944444 Z" style="stroke: black; fill: none; stroke-width:1.4; " /><path d="M301.8394856770833, 281.5264756944444 L305.3470052083333, 274.5114366319444 L308.8545247395833, 281.5264756944444 L305.3470052083333, 288.5415147569444 L301.8394856770833, 281.5264756944444 Z" style="stroke: black; fill: none; stroke-width:1.4; " /><path d="M322.42325303819445, 281.5264756944444 L325.93077256944446, 274.5114366319444 L329.43829210069447, 281.5264756944444 L325.93077256944446, 288.5415147569444 L322.42325303819445, 281.5264756944444 Z" style="stroke: black; fill: none; stroke-width:1.4; " /><path d="M363.5907877604167, 281.5264756944444 L367.0983072916667, 274.5114366319444 L370.6058268229167, 281.5264756944444 L367.0983072916667, 288.5415147569444 L363.5907877604167, 281.5264756944444 Z" style="stroke: black; fill: none; stroke-width:1.4; " /><path d="M404.7583224826389, 281.5264756944444 L408.2658420138889, 274.5114366319444 L411.7733615451389, 281.5264756944444 L408.2658420138889, 288.5415147569444 L404.7583224826389, 281.5264756944444 Z" style="stroke: black; fill: none; stroke-width:1.4; " /><path d="M435.17900390625, 281.5264756944444 L438.6865234375, 274.5114366319444 L442.19404296875, 281.5264756944444 L438.6865234375, 288.5415147569444 L435.17900390625, 281.5264756944444 Z" style="stroke: black; fill: none; stroke-width:1.4; " /><path d="M443.02358398437497, 281.5264756944444 L446.531103515625, 274.5114366319444 L450.038623046875, 281.5264756944444 L446.531103515625, 288.5415147569444 L443.02358398437497, 281.5264756944444 Z" style="stroke: black; fill: none; stroke-width:1.4; " /><path d="M453.48302408854164, 281.5264756944444 L456.99054361979165, 274.5114366319444 L460.49806315104166, 281.5264756944444 L456.99054361979165, 288.5415147569444 L453.48302408854164, 281.5264756944444 Z" style="stroke: black; fill: none; stroke-width:1.4; " /><path d="M466.55732421875, 281.5264756944444 L470.06484375, 274.5114366319444 L473.57236328125003, 281.5264756944444 L470.06484375, 288.5415147569444 L466.55732421875, 281.5264756944444 Z" style="stroke: black; fill: none; stroke-width:1.4; " /><path d="M482.24648437499997, 281.5264756944444 L485.75400390625, 274.5114366319444 L489.2615234375, 281.5264756944444 L485.75400390625, 288.5415147569444 L482.24648437499997, 281.5264756944444 Z" style="stroke: black; fill: none; stroke-width:1.4; " /><path d="M497.93564453125, 281.5264756944444 L501.4431640625, 274.5114366319444 L504.95068359375, 281.5264756944444 L501.4431640625, 288.5415147569444 L497.93564453125, 281.5264756944444 Z" style="stroke: black; fill: none; stroke-width:1.4; " /><path d="M529.31396484375, 281.5264756944444 L532.821484375, 274.5114366319444 L536.3290039062499, 281.5264756944444 L532.821484375, 288.5415147569444 L529.31396484375, 281.5264756944444 Z" style="stroke: black; fill: none; stroke-width:1.4; " /><path d="M560.69228515625, 281.5264756944444 L564.1998046875, 274.5114366319444 L567.7073242187499, 281.5264756944444 L564.1998046875, 288.5415147569444 L560.69228515625, 281.5264756944444 Z" style="stroke: black; fill: none; stroke-width:1.4; " /><path d="M592.07060546875, 281.5264756944444 L595.578125, 274.5114366319444 L599.08564453125, 281.5264756944444 L595.578125, 288.5415147569444 L592.07060546875, 281.5264756944444 Z" style="stroke: black; fill: none; stroke-width:1.4; " /><line x1="243.595703125" y1="299.3257378472222" x2="428.849609375" y2="299.3257378472222" style="stroke:black; stroke-width:1.4; " />
<line x1="243.595703125" y1="295.9852430555555" x2="243.595703125" y2="302.66623263888886" style="stroke:black; stroke-width:1.4; " />
<text x="240.328125" y="320.46549479166663">0</text>
<line x1="264.1794704861111" y1="295.9852430555555" x2="264.1794704861111" y2="302.66623263888886" style="stroke:black; stroke-width:1.4; " />
<text x="260.8606228298611" y="320.46549479166663">2</text>
<line x1="284.76323784722223" y1="295.9852430555555" x2="284.76323784722223" y2="302.66623263888886" style="stroke:black; stroke-width:1.4; " />
<text x="281.29741753472223" y="320.46549479166663">4</text>
<line x1="305.3470052083333" y1="295.9852430555555" x2="305.3470052083333" y2="302.66623263888886" style="stroke:black; stroke-width:1.4; " />
<text x="302.0384114583333" y="320.46549479166663">6</text>
<line x1="325.93077256944446" y1="295.9852430555555" x2="325.93077256944446" y2="302.66623263888886" style="stroke:black; stroke-width:1.4; " />
<text x="322.62901475694446" y="320.46549479166663">8</text>
<line x1="346.51453993055554" y1="295.9852430555555" x2="346.51453993055554" y2="302.66623263888886" style="stroke:black; stroke-width:1.4; " />
<text x="339.82557508680554" y="320.46549479166663">10</text>
<line x1="367.0983072916667" y1="295.9852430555555" x2="367.0983072916667" y2="302.66623263888886" style="stroke:black; stroke-width:1.4; " />
<text x="360.4435221354167" y="320.46549479166663">12</text>
<line x1="387.68207465277777" y1="295.9852430555555" x2="387.68207465277777" y2="302.66623263888886" style="stroke:black; stroke-width:1.4; " />
<text x="380.99652777777777" y="320.46549479166663">14</text>
<line x1="408.2658420138889" y1="295.9852430555555" x2="408.2658420138889" y2="302.66623263888886" style="stroke:black; stroke-width:1.4; " />
<text x="401.5632052951389" y="320.46549479166663">16</text>
<text x="401.5632052951389" y="320.46549479166663">16</text>
<line x1="438.6865234375" y1="299.3257378472222" x2="595.578125" y2="299.3257378472222" style="stroke:black; stroke-width:1.4; " />
<line x1="438.6865234375" y1="295.9852430555555" x2="438.6865234375" y2="302.66623263888886" style="stroke:black; stroke-width:1.4; " />
<text x="431.44384765625" y="320.46549479166663">24</text>
<line x1="470.06484375" y1="295.9852430555555" x2="470.06484375" y2="302.66623263888886" style="stroke:black; stroke-width:1.4; " />
<text x="462.6751953125" y="320.46549479166663">48</text>
<line x1="501.4431640625" y1="295.9852430555555" x2="501.4431640625" y2="302.66623263888886" style="stroke:black; stroke-width:1.4; " />
<text x="494.35771484375" y="320.46549479166663">72</text>
<line x1="532.821484375" y1="295.9852430555555" x2="532.821484375" y2="302.66623263888886" style="stroke:black; stroke-width:1.4; " />
<text x="525.64716796875" y="320.46549479166663">96</text>
<line x1="564.1998046875" y1="295.9852430555555" x2="564.1998046875" y2="302.66623263888886" style="stroke:black; stroke-width:1.4; " />
<text x="553.6177734375" y="320.46549479166663">120</text>
<line x1="595.578125" y1="295.9852430555555" x2="595.578125" y2="302.66623263888886" style="stroke:black; stroke-width:1.4; " />
<text x="584.99951171875" y="320.46549479166663">144 h</text>
</svg>