<svg width="805.5325520833334" height="293.6747265625" xmlns="http://www.w3.org/2000/svg">
<style>text {font-family: Arial; font-size: 14px ;}</style>
<desc>Trial design autogenerated by td.py V2.0 (Dec-2021), author: Rainer Strotmann</desc><title>ms0051</title><text x="211.81884765625" y="25.0322265625">S</text>
<text x="293.4501953125" y="25.0322265625">Period 1</text>
<text x="554.9772135416667" y="25.0322265625">Period 2</text>
<text x="767.6067708333334" y="25.0322265625">F/U</text>
<rect x="206.544921875" y="33.931857638888886" width="18.525390625" height="20.04296875" style="stroke:black;  stroke-width:1.4; fill:none;" />
<text x="215.8076171875" y="48.964084201388886"></text>
<line x1="225.0703125" y1="43.953342013888886" x2="243.595703125" y2="43.953342013888886" style="stroke:black; stroke-width:1.4; " />
<rect x="243.595703125" y="33.931857638888886" width="18.525390625" height="20.04296875" style="stroke:black;  stroke-width:1.4; fill:none;" />
<text x="248.1416015625" y="48.964084201388886">-1</text>
<rect x="262.12109375" y="33.931857638888886" width="18.525390625" height="20.04296875" style="stroke:black;  stroke-width:0; fill:lightgray;" />
<rect x="262.12109375" y="33.931857638888886" width="18.525390625" height="20.04296875" style="stroke:black;  stroke-width:1.4; fill:none;" />
<text x="267.6923828125" y="48.964084201388886">1</text>
<rect x="280.646484375" y="33.931857638888886" width="18.525390625" height="20.04296875" style="stroke:black;  stroke-width:1.4; fill:none;" />
<text x="286.59033203125" y="48.964084201388886">2</text>
<rect x="299.171875" y="33.931857638888886" width="18.525390625" height="20.04296875" style="stroke:black;  stroke-width:1.4; fill:none;" />
<text x="305.1533203125" y="48.964084201388886">3</text>
<rect x="317.697265625" y="33.931857638888886" width="18.525390625" height="20.04296875" style="stroke:black;  stroke-width:1.4; fill:none;" />
<text x="323.494140625" y="48.964084201388886">4</text>
<rect x="336.22265625" y="33.931857638888886" width="18.525390625" height="20.04296875" style="stroke:black;  stroke-width:1.4; fill:none;" />
<text x="342.1630859375" y="48.964084201388886">5</text>
<rect x="354.748046875" y="33.931857638888886" width="18.525390625" height="20.04296875" style="stroke:black;  stroke-width:1.4; fill:none;" />
<text x="360.7021484375" y="48.964084201388886">6</text>
<rect x="373.2734375" y="33.931857638888886" width="18.525390625" height="20.04296875" style="stroke:black;  stroke-width:1.4; fill:none;" />
<text x="379.29248046875" y="48.964084201388886">7</text>
<line x1="391.798828125" y1="43.953342013888886" x2="410.32421875" y2="43.953342013888886" style="stroke:black; stroke-width:1.4; " />
<rect x="410.32421875" y="33.931857638888886" width="18.525390625" height="20.04296875" style="stroke:black;  stroke-width:0; fill:lightgray;" />
<rect x="410.32421875" y="33.931857638888886" width="18.525390625" height="20.04296875" style="stroke:black;  stroke-width:1.4; fill:none;" />
<text x="416.28515625" y="48.964084201388886">8</text>
<rect x="428.849609375" y="33.931857638888886" width="18.525390625" height="20.04296875" style="stroke:black;  stroke-width:1.4; fill:none;" />
<text x="434.8173828125" y="48.964084201388886">9</text>
<rect x="447.375" y="33.931857638888886" width="18.525390625" height="20.04296875" style="stroke:black;  stroke-width:1.4; fill:none;" />
<text x="448.10302734375" y="48.964084201388886">10</text>
<rect x="465.900390625" y="33.931857638888886" width="18.525390625" height="20.04296875" style="stroke:black;  stroke-width:1.4; fill:none;" />
<text x="467.57861328125" y="48.964084201388886">11</text>
<rect x="484.42578125" y="33.931857638888886" width="18.525390625" height="20.04296875" style="stroke:black;  stroke-width:1.4; fill:none;" />
<text x="485.18798828125" y="48.964084201388886">12</text>
<line x1="502.951171875" y1="33.931857638888886" x2="509.1263020833333" y2="33.931857638888886" style="stroke:black; stroke-width:1.4; stroke-dasharray: 4.199999999999999 4.199999999999999" />
<line x1="502.951171875" y1="53.974826388888886" x2="509.1263020833333" y2="53.974826388888886" style="stroke:black; stroke-width:1.4; stroke-dasharray: 4.199999999999999 4.199999999999999" />
<text x="506.0387369791667" y="48.964084201388886"></text>
<line x1="509.1263020833333" y1="33.931857638888886" x2="515.3014322916666" y2="33.931857638888886" style="stroke:black; stroke-width:1.4; stroke-dasharray: 4.199999999999999 4.199999999999999" />
<line x1="509.1263020833333" y1="53.974826388888886" x2="515.3014322916666" y2="53.974826388888886" style="stroke:black; stroke-width:1.4; stroke-dasharray: 4.199999999999999 4.199999999999999" />
<text x="512.2138671875" y="48.964084201388886"></text>
<rect x="515.3014322916666" y="33.931857638888886" width="18.525390625" height="20.04296875" style="stroke:black;  stroke-width:0; fill:lightgray;" />
<rect x="515.3014322916666" y="33.931857638888886" width="18.525390625" height="20.04296875" style="stroke:black;  stroke-width:1.4; fill:none;" />
<text x="515.9747721354166" y="48.964084201388886">15</text>
<line x1="533.8268229166666" y1="33.931857638888886" x2="540.001953125" y2="33.931857638888886" style="stroke:black; stroke-width:1.4; stroke-dasharray: 4.199999999999999 4.199999999999999" />
<line x1="533.8268229166666" y1="53.974826388888886" x2="540.001953125" y2="53.974826388888886" style="stroke:black; stroke-width:1.4; stroke-dasharray: 4.199999999999999 4.199999999999999" />
<text x="536.9143880208333" y="48.964084201388886"></text>
<line x1="540.001953125" y1="33.931857638888886" x2="546.1770833333334" y2="33.931857638888886" style="stroke:black; stroke-width:1.4; stroke-dasharray: 4.199999999999999 4.199999999999999" />
<line x1="540.001953125" y1="53.974826388888886" x2="546.1770833333334" y2="53.974826388888886" style="stroke:black; stroke-width:1.4; stroke-dasharray: 4.199999999999999 4.199999999999999" />
<text x="543.0895182291666" y="48.964084201388886"></text>
<line x1="546.1770833333334" y1="33.931857638888886" x2="552.3522135416667" y2="33.931857638888886" style="stroke:black; stroke-width:1.4; stroke-dasharray: 4.199999999999999 4.199999999999999" />
<line x1="546.1770833333334" y1="53.974826388888886" x2="552.3522135416667" y2="53.974826388888886" style="stroke:black; stroke-width:1.4; stroke-dasharray: 4.199999999999999 4.199999999999999" />
<text x="549.2646484375" y="48.964084201388886"></text>
<line x1="552.3522135416667" y1="33.931857638888886" x2="558.5273437500001" y2="33.931857638888886" style="stroke:black; stroke-width:1.4; stroke-dasharray: 4.199999999999999 4.199999999999999" />
<line x1="552.3522135416667" y1="53.974826388888886" x2="558.5273437500001" y2="53.974826388888886" style="stroke:black; stroke-width:1.4; stroke-dasharray: 4.199999999999999 4.199999999999999" />
<text x="555.4397786458334" y="48.964084201388886"></text>
<line x1="558.5273437500001" y1="33.931857638888886" x2="564.7024739583335" y2="33.931857638888886" style="stroke:black; stroke-width:1.4; stroke-dasharray: 4.199999999999999 4.199999999999999" />
<line x1="558.5273437500001" y1="53.974826388888886" x2="564.7024739583335" y2="53.974826388888886" style="stroke:black; stroke-width:1.4; stroke-dasharray: 4.199999999999999 4.199999999999999" />
<text x="561.6149088541667" y="48.964084201388886"></text>
<line x1="564.7024739583335" y1="33.931857638888886" x2="570.8776041666669" y2="33.931857638888886" style="stroke:black; stroke-width:1.4; stroke-dasharray: 4.199999999999999 4.199999999999999" />
<line x1="564.7024739583335" y1="53.974826388888886" x2="570.8776041666669" y2="53.974826388888886" style="stroke:black; stroke-width:1.4; stroke-dasharray: 4.199999999999999 4.199999999999999" />
<text x="567.7900390625001" y="48.964084201388886"></text>
<rect x="570.8776041666669" y="33.931857638888886" width="18.525390625" height="20.04296875" style="stroke:black;  stroke-width:0; fill:lightgray;" />
<rect x="570.8776041666669" y="33.931857638888886" width="18.525390625" height="20.04296875" style="stroke:black;  stroke-width:1.4; fill:none;" />
<text x="572.9283854166669" y="48.964084201388886">22</text>
<line x1="589.4029947916669" y1="33.931857638888886" x2="595.5781250000002" y2="33.931857638888886" style="stroke:black; stroke-width:1.4; stroke-dasharray: 4.199999999999999 4.199999999999999" />
<line x1="589.4029947916669" y1="53.974826388888886" x2="595.5781250000002" y2="53.974826388888886" style="stroke:black; stroke-width:1.4; stroke-dasharray: 4.199999999999999 4.199999999999999" />
<text x="592.4905598958335" y="48.964084201388886"></text>
<line x1="595.5781250000002" y1="33.931857638888886" x2="601.7532552083336" y2="33.931857638888886" style="stroke:black; stroke-width:1.4; stroke-dasharray: 4.199999999999999 4.199999999999999" />
<line x1="595.5781250000002" y1="53.974826388888886" x2="601.7532552083336" y2="53.974826388888886" style="stroke:black; stroke-width:1.4; stroke-dasharray: 4.199999999999999 4.199999999999999" />
<text x="598.6656901041669" y="48.964084201388886"></text>
<rect x="601.7532552083336" y="33.931857638888886" width="18.525390625" height="20.04296875" style="stroke:black;  stroke-width:1.4; fill:none;" />
<text x="603.7151692708336" y="48.964084201388886">25</text>
<rect x="620.2786458333336" y="33.931857638888886" width="18.525390625" height="20.04296875" style="stroke:black;  stroke-width:1.4; fill:none;" />
<text x="622.2815755208336" y="48.964084201388886">26</text>
<rect x="638.8040364583336" y="33.931857638888886" width="18.525390625" height="20.04296875" style="stroke:black;  stroke-width:1.4; fill:none;" />
<text x="640.8035481770836" y="48.964084201388886">27</text>
<rect x="657.3294270833336" y="33.931857638888886" width="18.525390625" height="20.04296875" style="stroke:black;  stroke-width:1.4; fill:none;" />
<text x="659.3186848958336" y="48.964084201388886">28</text>
<rect x="675.8548177083336" y="33.931857638888886" width="18.525390625" height="20.04296875" style="stroke:black;  stroke-width:0; fill:lightgray;" />
<rect x="675.8548177083336" y="33.931857638888886" width="18.525390625" height="20.04296875" style="stroke:black;  stroke-width:1.4; fill:none;" />
<text x="677.8440755208336" y="48.964084201388886">29</text>
<rect x="694.3802083333336" y="33.931857638888886" width="18.525390625" height="20.04296875" style="stroke:black;  stroke-width:1.4; fill:none;" />
<text x="696.4856770833336" y="48.964084201388886">30</text>
<rect x="712.9055989583336" y="33.931857638888886" width="18.525390625" height="20.04296875" style="stroke:black;  stroke-width:1.4; fill:none;" />
<text x="715.9612630208336" y="48.964084201388886">31</text>
<rect x="731.4309895833336" y="33.931857638888886" width="18.525390625" height="20.04296875" style="stroke:black;  stroke-width:1.4; fill:none;" />
<text x="733.5706380208336" y="48.964084201388886">32</text>
<line x1="749.9563802083334" y1="43.953342013888886" x2="768.4817708333334" y2="43.953342013888886" style="stroke:black; stroke-width:1.4; " />
<rect x="768.4817708333334" y="33.931857638888886" width="18.525390625" height="20.04296875" style="stroke:black;  stroke-width:1.4; fill:none;" />
<text x="770.5598958333334" y="48.964084201388886">39</text>
<text x="5" y="84.67335069444444">hospitalization</text>
<rect x="243.595703125" y="75.54327256944444" width="92.626953125" height="8.0171875" style="stroke:black;  stroke-width:1.4; fill:none;" />
<rect x="601.7532552083336" y="75.54327256944444" width="92.626953125" height="8.0171875" style="stroke:black;  stroke-width:1.4; fill:none;" />
<text x="5" y="112.49409722222222">tepotinib</text>
<path d="M271.023015625, 107.37261284722223 L271.023015625, 101.35972222222223 L271.7445625, 101.35972222222223 L271.7445625, 107.37261284722223 L273.638623046875, 107.37261284722223 L271.3837890625, 113.38550347222223 L269.128955078125, 107.37261284722223 L271.023015625, 107.37261284722223 Z" style="stroke: black; fill: black; stroke-width:1.4; " /><path d="M629.1805677083336, 107.37261284722223 L629.1805677083336, 101.35972222222223 L629.9021145833336, 101.35972222222223 L629.9021145833336, 107.37261284722223 L631.7961751302086, 107.37261284722223 L629.5413411458336, 113.38550347222223 L627.2865071614586, 107.37261284722223 L629.1805677083336, 107.37261284722223 Z" style="stroke: black; fill: black; stroke-width:1.4; " /><text x="5" y="140.31484375">carbamazepine BID</text>
<path d="M419.226140625, 135.193359375 L419.226140625, 129.18046875 L419.9476875, 129.18046875 L419.9476875, 135.193359375 L421.841748046875, 135.193359375 L419.5869140625, 141.20625 L417.332080078125, 135.193359375 L419.226140625, 135.193359375 Z" style="stroke: black; fill: black; stroke-width:1.4; " /><path d="M437.75153125, 135.193359375 L437.75153125, 129.18046875 L438.473078125, 129.18046875 L438.473078125, 135.193359375 L440.367138671875, 135.193359375 L438.1123046875, 141.20625 L435.857470703125, 135.193359375 L437.75153125, 135.193359375 Z" style="stroke: black; fill: black; stroke-width:1.4; " /><path d="M456.276921875, 135.193359375 L456.276921875, 129.18046875 L456.99846875, 129.18046875 L456.99846875, 135.193359375 L458.892529296875, 135.193359375 L456.6376953125, 141.20625 L454.382861328125, 135.193359375 L456.276921875, 135.193359375 Z" style="stroke: black; fill: black; stroke-width:1.4; " /><path d="M474.8023125, 135.193359375 L474.8023125, 129.18046875 L475.523859375, 129.18046875 L475.523859375, 135.193359375 L477.417919921875, 135.193359375 L475.1630859375, 141.20625 L472.908251953125, 135.193359375 L474.8023125, 135.193359375 Z" style="stroke: black; fill: black; stroke-width:1.4; " /><path d="M493.327703125, 135.193359375 L493.327703125, 129.18046875 L494.04925, 129.18046875 L494.04925, 135.193359375 L495.943310546875, 135.193359375 L493.6884765625, 141.20625 L491.433642578125, 135.193359375 L493.327703125, 135.193359375 Z" style="stroke: black; fill: black; stroke-width:1.4; " /><path d="M505.6779635416667, 135.193359375 L505.6779635416667, 129.18046875 L506.39951041666666, 129.18046875 L506.39951041666666, 135.193359375 L508.2935709635417, 135.193359375 L506.0387369791667, 141.20625 L503.7839029947917, 135.193359375 L505.6779635416667, 135.193359375 Z" style="stroke: black; fill: black; stroke-width:1.4; " /><path d="M511.85309375, 135.193359375 L511.85309375, 129.18046875 L512.574640625, 129.18046875 L512.574640625, 135.193359375 L514.468701171875, 135.193359375 L512.2138671875, 141.20625 L509.959033203125, 135.193359375 L511.85309375, 135.193359375 Z" style="stroke: black; fill: black; stroke-width:1.4; " /><path d="M524.2033541666666, 135.193359375 L524.2033541666666, 129.18046875 L524.9249010416667, 129.18046875 L524.9249010416667, 135.193359375 L526.8189615885416, 135.193359375 L524.5641276041666, 141.20625 L522.3092936197917, 135.193359375 L524.2033541666666, 135.193359375 Z" style="stroke: black; fill: black; stroke-width:1.4; " /><path d="M536.5536145833332, 135.193359375 L536.5536145833332, 129.18046875 L537.2751614583333, 129.18046875 L537.2751614583333, 135.193359375 L539.1692220052082, 135.193359375 L536.9143880208333, 141.20625 L534.6595540364583, 135.193359375 L536.5536145833332, 135.193359375 Z" style="stroke: black; fill: black; stroke-width:1.4; " /><path d="M542.7287447916666, 135.193359375 L542.7287447916666, 129.18046875 L543.4502916666667, 129.18046875 L543.4502916666667, 135.193359375 L545.3443522135416, 135.193359375 L543.0895182291666, 141.20625 L540.8346842447917, 135.193359375 L542.7287447916666, 135.193359375 Z" style="stroke: black; fill: black; stroke-width:1.4; " /><path d="M548.903875, 135.193359375 L548.903875, 129.18046875 L549.625421875, 129.18046875 L549.625421875, 135.193359375 L551.519482421875, 135.193359375 L549.2646484375, 141.20625 L547.009814453125, 135.193359375 L548.903875, 135.193359375 Z" style="stroke: black; fill: black; stroke-width:1.4; " /><path d="M555.0790052083333, 135.193359375 L555.0790052083333, 129.18046875 L555.8005520833334, 129.18046875 L555.8005520833334, 135.193359375 L557.6946126302083, 135.193359375 L555.4397786458334, 141.20625 L553.1849446614584, 135.193359375 L555.0790052083333, 135.193359375 Z" style="stroke: black; fill: black; stroke-width:1.4; " /><path d="M561.2541354166667, 135.193359375 L561.2541354166667, 129.18046875 L561.9756822916668, 129.18046875 L561.9756822916668, 135.193359375 L563.8697428385417, 135.193359375 L561.6149088541667, 141.20625 L559.3600748697918, 135.193359375 L561.2541354166667, 135.193359375 Z" style="stroke: black; fill: black; stroke-width:1.4; " /><path d="M567.4292656250001, 135.193359375 L567.4292656250001, 129.18046875 L568.1508125000001, 129.18046875 L568.1508125000001, 135.193359375 L570.0448730468751, 135.193359375 L567.7900390625001, 141.20625 L565.5352050781252, 135.193359375 L567.4292656250001, 135.193359375 Z" style="stroke: black; fill: black; stroke-width:1.4; " /><path d="M579.7795260416668, 135.193359375 L579.7795260416668, 129.18046875 L580.5010729166669, 129.18046875 L580.5010729166669, 135.193359375 L582.3951334635418, 135.193359375 L580.1402994791669, 141.20625 L577.8854654947919, 135.193359375 L579.7795260416668, 135.193359375 Z" style="stroke: black; fill: black; stroke-width:1.4; " /><path d="M592.1297864583335, 135.193359375 L592.1297864583335, 129.18046875 L592.8513333333335, 129.18046875 L592.8513333333335, 135.193359375 L594.7453938802084, 135.193359375 L592.4905598958335, 141.20625 L590.2357259114585, 135.193359375 L592.1297864583335, 135.193359375 Z" style="stroke: black; fill: black; stroke-width:1.4; " /><path d="M598.3049166666668, 135.193359375 L598.3049166666668, 129.18046875 L599.0264635416669, 129.18046875 L599.0264635416669, 135.193359375 L600.9205240885418, 135.193359375 L598.6656901041669, 141.20625 L596.4108561197919, 135.193359375 L598.3049166666668, 135.193359375 Z" style="stroke: black; fill: black; stroke-width:1.4; " /><path d="M610.6551770833336, 135.193359375 L610.6551770833336, 129.18046875 L611.3767239583336, 129.18046875 L611.3767239583336, 135.193359375 L613.2707845052086, 135.193359375 L611.0159505208336, 141.20625 L608.7611165364586, 135.193359375 L610.6551770833336, 135.193359375 Z" style="stroke: black; fill: black; stroke-width:1.4; " /><path d="M629.1805677083336, 135.193359375 L629.1805677083336, 129.18046875 L629.9021145833336, 129.18046875 L629.9021145833336, 135.193359375 L631.7961751302086, 135.193359375 L629.5413411458336, 141.20625 L627.2865071614586, 135.193359375 L629.1805677083336, 135.193359375 Z" style="stroke: black; fill: black; stroke-width:1.4; " /><path d="M647.7059583333336, 135.193359375 L647.7059583333336, 129.18046875 L648.4275052083336, 129.18046875 L648.4275052083336, 135.193359375 L650.3215657552086, 135.193359375 L648.0667317708336, 141.20625 L645.8118977864586, 135.193359375 L647.7059583333336, 135.193359375 Z" style="stroke: black; fill: black; stroke-width:1.4; " /><path d="M666.2313489583336, 135.193359375 L666.2313489583336, 129.18046875 L666.9528958333336, 129.18046875 L666.9528958333336, 135.193359375 L668.8469563802086, 135.193359375 L666.5921223958336, 141.20625 L664.3372884114586, 135.193359375 L666.2313489583336, 135.193359375 Z" style="stroke: black; fill: black; stroke-width:1.4; " /><path d="M684.7567395833336, 135.193359375 L684.7567395833336, 129.18046875 L685.4782864583336, 129.18046875 L685.4782864583336, 135.193359375 L687.3723470052086, 135.193359375 L685.1175130208336, 141.20625 L682.8626790364586, 135.193359375 L684.7567395833336, 135.193359375 Z" style="stroke: black; fill: black; stroke-width:1.4; " /><path d="M703.2821302083336, 135.193359375 L703.2821302083336, 129.18046875 L704.0036770833336, 129.18046875 L704.0036770833336, 135.193359375 L705.8977376302086, 135.193359375 L703.6429036458336, 141.20625 L701.3880696614586, 135.193359375 L703.2821302083336, 135.193359375 Z" style="stroke: black; fill: black; stroke-width:1.4; " /><path d="M721.8075208333336, 135.193359375 L721.8075208333336, 129.18046875 L722.5290677083336, 129.18046875 L722.5290677083336, 135.193359375 L724.4231282552086, 135.193359375 L722.1682942708336, 141.20625 L719.9134602864586, 135.193359375 L721.8075208333336, 135.193359375 Z" style="stroke: black; fill: black; stroke-width:1.4; " /><path d="M740.3329114583336, 135.193359375 L740.3329114583336, 129.18046875 L741.0544583333336, 129.18046875 L741.0544583333336, 135.193359375 L742.9485188802086, 135.193359375 L740.6936848958336, 141.20625 L738.4388509114586, 135.193359375 L740.3329114583336, 135.193359375 Z" style="stroke: black; fill: black; stroke-width:1.4; " /><text x="5" y="168.20121527777778">PK sampling carbamazepine</text>
<path d="M607.5084309895836, 163.01410590277777 L611.0159505208336, 155.99906684027778 L614.5234700520836, 163.01410590277777 L611.0159505208336, 170.02914496527777 L607.5084309895836, 163.01410590277777 Z" style="stroke: black; fill: none; stroke-width:1.4; " /><path d="M623.0574544270836, 166.77216254340277 L623.0574544270836, 159.25604926215277 L636.0252278645836, 159.25604926215277 L636.0252278645836, 166.77216254340277 L623.0574544270836, 166.77216254340277 Z" style="stroke: black; fill: none; stroke-width:1.4; " /><text x="5" y="196.02196180555555">PK sampling tepotinib</text>
<path d="M264.89990234375, 194.59290907118054 L264.89990234375, 187.07679578993054 L277.86767578125, 187.07679578993054 L277.86767578125, 194.59290907118054 L264.89990234375, 194.59290907118054 Z" style="stroke: black; fill: none; stroke-width:1.4; " /><path d="M283.42529296875, 194.59290907118054 L283.42529296875, 187.07679578993054 L296.39306640625, 187.07679578993054 L296.39306640625, 194.59290907118054 L283.42529296875, 194.59290907118054 Z" style="stroke: black; fill: none; stroke-width:1.4; " /><path d="M301.95068359375, 194.59290907118054 L301.95068359375, 187.07679578993054 L314.91845703125, 187.07679578993054 L314.91845703125, 194.59290907118054 L301.95068359375, 194.59290907118054 Z" style="stroke: black; fill: none; stroke-width:1.4; " /><path d="M323.45244140625, 190.83485243055554 L326.9599609375, 183.81981336805555 L330.46748046875, 190.83485243055554 L326.9599609375, 197.84989149305554 L323.45244140625, 190.83485243055554 Z" style="stroke: black; fill: none; stroke-width:1.4; " /><path d="M341.97783203125, 190.83485243055554 L345.4853515625, 183.81981336805555 L348.99287109375, 190.83485243055554 L345.4853515625, 197.84989149305554 L341.97783203125, 190.83485243055554 Z" style="stroke: black; fill: none; stroke-width:1.4; " /><path d="M360.50322265625, 190.83485243055554 L364.0107421875, 183.81981336805555 L367.51826171875, 190.83485243055554 L364.0107421875, 197.84989149305554 L360.50322265625, 190.83485243055554 Z" style="stroke: black; fill: none; stroke-width:1.4; " /><path d="M379.02861328125, 190.83485243055554 L382.5361328125, 183.81981336805555 L386.04365234375, 190.83485243055554 L382.5361328125, 197.84989149305554 L379.02861328125, 190.83485243055554 Z" style="stroke: black; fill: none; stroke-width:1.4; " /><path d="M623.0574544270836, 194.59290907118054 L623.0574544270836, 187.07679578993054 L636.0252278645836, 187.07679578993054 L636.0252278645836, 194.59290907118054 L623.0574544270836, 194.59290907118054 Z" style="stroke: black; fill: none; stroke-width:1.4; " /><path d="M641.5828450520836, 194.59290907118054 L641.5828450520836, 187.07679578993054 L654.5506184895836, 187.07679578993054 L654.5506184895836, 194.59290907118054 L641.5828450520836, 194.59290907118054 Z" style="stroke: black; fill: none; stroke-width:1.4; " /><path d="M660.1082356770836, 194.59290907118054 L660.1082356770836, 187.07679578993054 L673.0760091145836, 187.07679578993054 L673.0760091145836, 194.59290907118054 L660.1082356770836, 194.59290907118054 Z" style="stroke: black; fill: none; stroke-width:1.4; " /><path d="M681.6099934895836, 190.83485243055554 L685.1175130208336, 183.81981336805555 L688.6250325520836, 190.83485243055554 L685.1175130208336, 197.84989149305554 L681.6099934895836, 190.83485243055554 Z" style="stroke: black; fill: none; stroke-width:1.4; " /><path d="M700.1353841145836, 190.83485243055554 L703.6429036458336, 183.81981336805555 L707.1504231770836, 190.83485243055554 L703.6429036458336, 197.84989149305554 L700.1353841145836, 190.83485243055554 Z" style="stroke: black; fill: none; stroke-width:1.4; " /><path d="M718.6607747395836, 190.83485243055554 L722.1682942708336, 183.81981336805555 L725.6758138020836, 190.83485243055554 L722.1682942708336, 197.84989149305554 L718.6607747395836, 190.83485243055554 Z" style="stroke: black; fill: none; stroke-width:1.4; " /><path d="M737.1861653645836, 190.83485243055554 L740.6936848958336, 183.81981336805555 L744.2012044270836, 190.83485243055554 L740.6936848958336, 197.84989149305554 L737.1861653645836, 190.83485243055554 Z" style="stroke: black; fill: none; stroke-width:1.4; " /><path d="M262.12109375, 208.63411458333331 A6.680989583333333, 6.680989583333333, 0, 0 0 268.8020833333333, 215.31510416666666 L320.2789713541667, 215.31510416666666 A6.680989583333333, 6.680989583333333 0, 0 1 326.9599609375, 221.99609374999997 A6.680989583333333, 6.680989583333333, 0, 0 1 333.6409505208333, 215.31510416666666 L385.1178385416667, 215.31510416666666 A6.680989583333333, 6.680989583333333 0, 0 0 391.798828125, 208.63411458333331 " style="stroke: black; stroke-width:1.4; fill:none" /><path d="M240.08818359375, 243.68424479166666 L243.595703125, 236.66920572916666 L247.10322265625, 243.68424479166666 L243.595703125, 250.69928385416665 L240.08818359375, 243.68424479166666 Z" style="stroke: black; fill: none; stroke-width:1.4; " /><path d="M250.38006727430553, 243.68424479166666 L253.88758680555554, 236.66920572916666 L257.39510633680555, 243.68424479166666 L253.88758680555554, 250.69928385416665 L250.38006727430553, 243.68424479166666 Z" style="stroke: black; fill: none; stroke-width:1.4; " /><path d="M255.5260091145833, 243.68424479166666 L259.0335286458333, 236.66920572916666 L262.5410481770833, 243.68424479166666 L259.0335286458333, 250.69928385416665 L255.5260091145833, 243.68424479166666 Z" style="stroke: black; fill: none; stroke-width:1.4; " /><path d="M260.6719509548611, 243.68424479166666 L264.1794704861111, 236.66920572916666 L267.6869900173611, 243.68424479166666 L264.1794704861111, 250.69928385416665 L260.6719509548611, 243.68424479166666 Z" style="stroke: black; fill: none; stroke-width:1.4; " /><path d="M270.9638346354167, 243.68424479166666 L274.4713541666667, 236.66920572916666 L277.9788736979167, 243.68424479166666 L274.4713541666667, 250.69928385416665 L270.9638346354167, 243.68424479166666 Z" style="stroke: black; fill: none; stroke-width:1.4; " /><path d="M281.2557183159722, 243.68424479166666 L284.76323784722223, 236.66920572916666 L288.27075737847224, 243.68424479166666 L284.76323784722223, 250.69928385416665 L281.2557183159722, 243.68424479166666 Z" style="stroke: black; fill: none; stroke-width:1.4; " /><path d="M301.8394856770833, 243.68424479166666 L305.3470052083333, 236.66920572916666 L308.8545247395833, 243.68424479166666 L305.3470052083333, 250.69928385416665 L301.8394856770833, 243.68424479166666 Z" style="stroke: black; fill: none; stroke-width:1.4; " /><path d="M322.42325303819445, 243.68424479166666 L325.93077256944446, 236.66920572916666 L329.43829210069447, 243.68424479166666 L325.93077256944446, 250.69928385416665 L322.42325303819445, 243.68424479166666 Z" style="stroke: black; fill: none; stroke-width:1.4; " /><path d="M363.5907877604167, 243.68424479166666 L367.0983072916667, 236.66920572916666 L370.6058268229167, 243.68424479166666 L367.0983072916667, 250.69928385416665 L363.5907877604167, 243.68424479166666 Z" style="stroke: black; fill: none; stroke-width:1.4; " /><path d="M404.7583224826389, 243.68424479166666 L408.2658420138889, 236.66920572916666 L411.7733615451389, 243.68424479166666 L408.2658420138889, 250.69928385416665 L404.7583224826389, 243.68424479166666 Z" style="stroke: black; fill: none; stroke-width:1.4; " /><path d="M435.17900390625, 243.68424479166666 L438.6865234375, 236.66920572916666 L442.19404296875, 243.68424479166666 L438.6865234375, 250.69928385416665 L435.17900390625, 243.68424479166666 Z" style="stroke: black; fill: none; stroke-width:1.4; " /><path d="M443.02358398437497, 243.68424479166666 L446.531103515625, 236.66920572916666 L450.038623046875, 243.68424479166666 L446.531103515625, 250.69928385416665 L443.02358398437497, 243.68424479166666 Z" style="stroke: black; fill: none; stroke-width:1.4; " /><path d="M453.48302408854164, 243.68424479166666 L456.99054361979165, 236.66920572916666 L460.49806315104166, 243.68424479166666 L456.99054361979165, 250.69928385416665 L453.48302408854164, 243.68424479166666 Z" style="stroke: black; fill: none; stroke-width:1.4; " /><path d="M466.55732421875, 243.68424479166666 L470.06484375, 236.66920572916666 L473.57236328125003, 243.68424479166666 L470.06484375, 250.69928385416665 L466.55732421875, 243.68424479166666 Z" style="stroke: black; fill: none; stroke-width:1.4; " /><path d="M482.24648437499997, 243.68424479166666 L485.75400390625, 236.66920572916666 L489.2615234375, 243.68424479166666 L485.75400390625, 250.69928385416665 L482.24648437499997, 243.68424479166666 Z" style="stroke: black; fill: none; stroke-width:1.4; " /><path d="M497.93564453125, 243.68424479166666 L501.4431640625, 236.66920572916666 L504.95068359375, 243.68424479166666 L501.4431640625, 250.69928385416665 L497.93564453125, 243.68424479166666 Z" style="stroke: black; fill: none; stroke-width:1.4; " /><path d="M529.31396484375, 243.68424479166666 L532.821484375, 236.66920572916666 L536.3290039062499, 243.68424479166666 L532.821484375, 250.69928385416665 L529.31396484375, 243.68424479166666 Z" style="stroke: black; fill: none; stroke-width:1.4; " /><path d="M560.69228515625, 243.68424479166666 L564.1998046875, 236.66920572916666 L567.7073242187499, 243.68424479166666 L564.1998046875, 250.69928385416665 L560.69228515625, 243.68424479166666 Z" style="stroke: black; fill: none; stroke-width:1.4; " /><path d="M592.07060546875, 243.68424479166666 L595.578125, 236.66920572916666 L599.08564453125, 243.68424479166666 L595.578125, 250.69928385416665 L592.07060546875, 243.68424479166666 Z" style="stroke: black; fill: none; stroke-width:1.4; " /><line x1="243.595703125" y1="261.48350694444446" x2="428.849609375" y2="261.48350694444446" style="stroke:black; stroke-width:1.4; " />
<line x1="243.595703125" y1="258.14301215277777" x2="243.595703125" y2="264.82400173611114" style="stroke:black; stroke-width:1.4; " />
<text x="240.328125" y="282.6232638888889">0</text>
<line x1="264.1794704861111" y1="258.14301215277777" x2="264.1794704861111" y2="264.82400173611114" style="stroke:black; stroke-width:1.4; " />
<text x="260.8606228298611" y="282.6232638888889">2</text>
<line x1="284.76323784722223" y1="258.14301215277777" x2="284.76323784722223" y2="264.82400173611114" style="stroke:black; stroke-width:1.4; " />
<text x="281.29741753472223" y="282.6232638888889">4</text>
<line x1="305.3470052083333" y1="258.14301215277777" x2="305.3470052083333" y2="264.82400173611114" style="stroke:black; stroke-width:1.4; " />
<text x="302.0384114583333" y="282.6232638888889">6</text>
<line x1="325.93077256944446" y1="258.14301215277777" x2="325.93077256944446" y2="264.82400173611114" style="stroke:black; stroke-width:1.4; " />
<text x="322.62901475694446" y="282.6232638888889">8</text>
<line x1="346.51453993055554" y1="258.14301215277777" x2="346.51453993055554" y2="264.82400173611114" style="stroke:black; stroke-width:1.4; " />
<text x="339.82557508680554" y="282.6232638888889">10</text>
<line x1="367.0983072916667" y1="258.14301215277777" x2="367.0983072916667" y2="264.82400173611114" style="stroke:black; stroke-width:1.4; " />
<text x="360.4435221354167" y="282.6232638888889">12</text>
<line x1="387.68207465277777" y1="258.14301215277777" x2="387.68207465277777" y2="264.82400173611114" style="stroke:black; stroke-width:1.4; " />
<text x="380.99652777777777" y="282.6232638888889">14</text>
<line x1="408.2658420138889" y1="258.14301215277777" x2="408.2658420138889" y2="264.82400173611114" style="stroke:black; stroke-width:1.4; " />
<text x="401.5632052951389" y="282.6232638888889">16</text>
<text x="401.5632052951389" y="282.6232638888889">16</text>
<line x1="438.6865234375" y1="261.48350694444446" x2="595.578125" y2="261.48350694444446" style="stroke:black; stroke-width:1.4; " />
<line x1="438.6865234375" y1="258.14301215277777" x2="438.6865234375" y2="264.82400173611114" style="stroke:black; stroke-width:1.4; " />
<text x="431.44384765625" y="282.6232638888889">24</text>
<line x1="470.06484375" y1="258.14301215277777" x2="470.06484375" y2="264.82400173611114" style="stroke:black; stroke-width:1.4; " />
<text x="462.6751953125" y="282.6232638888889">48</text>
<line x1="501.4431640625" y1="258.14301215277777" x2="501.4431640625" y2="264.82400173611114" style="stroke:black; stroke-width:1.4; " />
<text x="494.35771484375" y="282.6232638888889">72</text>
<line x1="532.821484375" y1="258.14301215277777" x2="532.821484375" y2="264.82400173611114" style="stroke:black; stroke-width:1.4; " />
<text x="525.64716796875" y="282.6232638888889">96</text>
<line x1="564.1998046875" y1="258.14301215277777" x2="564.1998046875" y2="264.82400173611114" style="stroke:black; stroke-width:1.4; " />
<text x="553.6177734375" y="282.6232638888889">120</text>
<line x1="595.578125" y1="258.14301215277777" x2="595.578125" y2="264.82400173611114" style="stroke:black; stroke-width:1.4; " />
<text x="584.99951171875" y="282.6232638888889">144 h</text>
</svg>