<svg width="222.8349609375" height="97.35112847222223" xmlns="http://www.w3.org/2000/svg">
<style>text {font-family: Arial; font-size: 14px ;}</style>
<desc>Trial design autogenerated by td.py V2.0 (Dec-2021), author: Rainer Strotmann</desc><title>sample9</title><text x="105.9609375" y="25.0322265625">Period 1</text>
<rect x="56.1064453125" y="33.931857638888886" width="18.525390625" height="20.04296875" style="stroke:black;  stroke-width:1.4; fill:none;" />
<text x="60.65234375" y="48.964084201388886">-1</text>
<rect x="74.6318359375" y="33.931857638888886" width="18.525390625" height="20.04296875" style="stroke:black;  stroke-width:1.4; fill:none;" />
<text x="80.203125" y="48.964084201388886">1</text>
<rect x="93.1572265625" y="33.931857638888886" width="18.525390625" height="20.04296875" style="stroke:black;  stroke-width:1.4; fill:none;" />
<text x="99.10107421875" y="48.964084201388886">2</text>
<rect x="111.6826171875" y="33.931857638888886" width="18.525390625" height="20.04296875" style="stroke:black;  stroke-width:1.4; fill:none;" />
<text x="117.6640625" y="48.964084201388886">3</text>
<rect x="130.2080078125" y="33.931857638888886" width="18.525390625" height="20.04296875" style="stroke:black;  stroke-width:1.4; fill:none;" />
<text x="136.0048828125" y="48.964084201388886">4</text>
<rect x="148.7333984375" y="33.931857638888886" width="18.525390625" height="20.04296875" style="stroke:black;  stroke-width:1.4; fill:none;" />
<text x="154.673828125" y="48.964084201388886">5</text>
<rect x="167.2587890625" y="33.931857638888886" width="18.525390625" height="20.04296875" style="stroke:black;  stroke-width:1.4; fill:none;" />
<text x="173.212890625" y="48.964084201388886">6</text>
<rect x="185.7841796875" y="33.931857638888886" width="18.525390625" height="20.04296875" style="stroke:black;  stroke-width:1.4; fill:none;" />
<text x="191.80322265625" y="48.964084201388886">7</text>
<text x="5" y="83.69444444444444">food</text>
<circle cx="83.89453125" cy="79.55186631944444" r="4.63134765625" style="stroke:black;  stroke-width:1.4; fill:none;"/>
<circle cx="157.99609375" cy="79.55186631944444" r="4.63134765625" style="stroke:black;  stroke-width:1.2; fill:black;"/>
</svg>