<svg width="225.083984375" height="97.35112847222223" xmlns="http://www.w3.org/2000/svg">
<style>text {font-family: Arial; font-size: 14px ;}</style>
<desc>Trial design autogenerated by td.py V2.0 (Dec-2021), author: Rainer Strotmann</desc><title>sample7</title><text x="108.2099609375" y="25.0322265625">Period 1</text>
<rect x="58.35546875" y="33.931857638888886" width="18.525390625" height="20.04296875" style="stroke:black;  stroke-width:1.4; fill:none;" />
<text x="62.9013671875" y="48.964084201388886">-1</text>
<rect x="76.880859375" y="33.931857638888886" width="18.525390625" height="20.04296875" style="stroke:black;  stroke-width:1.4; fill:none;" />
<text x="82.4521484375" y="48.964084201388886">1</text>
<rect x="95.40625" y="33.931857638888886" width="18.525390625" height="20.04296875" style="stroke:black;  stroke-width:1.4; fill:none;" />
<text x="101.35009765625" y="48.964084201388886">2</text>
<rect x="113.931640625" y="33.931857638888886" width="18.525390625" height="20.04296875" style="stroke:black;  stroke-width:1.4; fill:none;" />
<text x="119.9130859375" y="48.964084201388886">3</text>
<rect x="132.45703125" y="33.931857638888886" width="18.525390625" height="20.04296875" style="stroke:black;  stroke-width:1.4; fill:none;" />
<text x="138.25390625" y="48.964084201388886">4</text>
<rect x="150.982421875" y="33.931857638888886" width="18.525390625" height="20.04296875" style="stroke:black;  stroke-width:1.4; fill:none;" />
<text x="156.9228515625" y="48.964084201388886">5</text>
<rect x="169.5078125" y="33.931857638888886" width="18.525390625" height="20.04296875" style="stroke:black;  stroke-width:1.4; fill:none;" />
<text x="175.4619140625" y="48.964084201388886">6</text>
<rect x="188.033203125" y="33.931857638888886" width="18.525390625" height="20.04296875" style="stroke:black;  stroke-width:1.4; fill:none;" />
<text x="194.05224609375" y="48.964084201388886">7</text>
<text x="5" y="83.69717881944445">ECG</text>
<path d="M79.65966796875, 83.30992296006944 L79.65966796875, 75.79380967881944 L92.62744140625, 75.79380967881944 L92.62744140625, 83.30992296006944 L79.65966796875, 83.30992296006944 Z" style="stroke: black; fill: none; stroke-width:1.4; " /><path d="M98.18505859375, 83.30992296006944 L98.18505859375, 75.79380967881944 L111.15283203125, 75.79380967881944 L111.15283203125, 83.30992296006944 L98.18505859375, 83.30992296006944 Z" style="stroke: black; fill: none; stroke-width:1.4; " /><path d="M119.68681640625, 79.55186631944444 L123.1943359375, 72.53682725694445 L126.70185546875, 79.55186631944444 L123.1943359375, 86.56690538194444 L119.68681640625, 79.55186631944444 Z" style="stroke: black; fill: none; stroke-width:1.4; " /></svg>