<svg width="330.42578125" height="165.2578125" xmlns="http://www.w3.org/2000/svg">
<style>text {font-family: Arial; font-size: 14px ;}</style>
<desc>Trial design autogenerated by td.py V2.0 (Dec-2021), author: Rainer Strotmann</desc><title>sample12</title><text x="195.0263671875" y="25.0322265625">Period 1</text>
<rect x="126.646484375" y="33.931857638888886" width="18.525390625" height="20.04296875" style="stroke:black;  stroke-width:1.4; fill:none;" />
<text x="131.1923828125" y="48.964084201388886">-1</text>
<rect x="145.171875" y="33.931857638888886" width="18.525390625" height="20.04296875" style="stroke:black;  stroke-width:1.4; fill:none;" />
<text x="150.7431640625" y="48.964084201388886">1</text>
<rect x="163.697265625" y="33.931857638888886" width="18.525390625" height="20.04296875" style="stroke:black;  stroke-width:1.4; fill:none;" />
<text x="169.64111328125" y="48.964084201388886">2</text>
<rect x="182.22265625" y="33.931857638888886" width="18.525390625" height="20.04296875" style="stroke:black;  stroke-width:1.4; fill:none;" />
<text x="188.2041015625" y="48.964084201388886">3</text>
<rect x="200.748046875" y="33.931857638888886" width="18.525390625" height="20.04296875" style="stroke:black;  stroke-width:1.4; fill:none;" />
<text x="206.544921875" y="48.964084201388886">4</text>
<rect x="219.2734375" y="33.931857638888886" width="18.525390625" height="20.04296875" style="stroke:black;  stroke-width:1.4; fill:none;" />
<text x="225.2138671875" y="48.964084201388886">5</text>
<rect x="237.798828125" y="33.931857638888886" width="18.525390625" height="20.04296875" style="stroke:black;  stroke-width:1.4; fill:none;" />
<text x="243.7529296875" y="48.964084201388886">6</text>
<rect x="256.32421875" y="33.931857638888886" width="18.525390625" height="20.04296875" style="stroke:black;  stroke-width:1.4; fill:none;" />
<text x="262.34326171875" y="48.964084201388886">7</text>
<rect x="274.849609375" y="33.931857638888886" width="18.525390625" height="20.04296875" style="stroke:black;  stroke-width:1.4; fill:none;" />
<text x="280.810546875" y="48.964084201388886">8</text>
<rect x="293.375" y="33.931857638888886" width="18.525390625" height="20.04296875" style="stroke:black;  stroke-width:1.4; fill:none;" />
<text x="299.3427734375" y="48.964084201388886">9</text>
<text x="128.6630859375" y="84.56260850694444">V1</text>
<text x="154.4345703125" y="84.56260850694444"></text>
<text x="172.9599609375" y="84.56260850694444"></text>
<text x="191.4853515625" y="84.56260850694444"></text>
<text x="210.0107421875" y="84.56260850694444"></text>
<text x="228.5361328125" y="84.56260850694444"></text>
<text x="247.0615234375" y="84.56260850694444"></text>
<text x="265.5869140625" y="84.56260850694444"></text>
<text x="284.1123046875" y="84.56260850694444"></text>
<text x="302.6376953125" y="84.56260850694444"></text>
<text x="5" y="104.71631944444444">hospitalization</text>
<rect x="126.646484375" y="95.58624131944444" width="74.1015625" height="8.0171875" style="stroke:black;  stroke-width:1.4; fill:none;" />
<text x="135.9091796875" y="132.42632378472223"></text>
<text x="154.4345703125" y="132.42632378472223"></text>
<text x="172.9599609375" y="132.42632378472223"></text>
<text x="191.4853515625" y="132.42632378472223"></text>
<text x="210.0107421875" y="132.42632378472223"></text>
<text x="220.3740234375" y="132.42632378472223">V2</text>
<text x="247.0615234375" y="132.42632378472223"></text>
<text x="257.37353515625" y="132.42632378472223">V3</text>
<text x="284.1123046875" y="132.42632378472223"></text>
<text x="294.44482421875" y="132.42632378472223">V4</text>
<text x="5" y="152.64565972222223">ambulatory visit</text>
<rect x="219.2734375" y="143.44995659722224" width="18.525390625" height="8.0171875" style="stroke:black;  stroke-width:1.4; fill:none;" />
<rect x="256.32421875" y="143.44995659722224" width="18.525390625" height="8.0171875" style="stroke:black;  stroke-width:1.4; fill:none;" />
<rect x="293.375" y="143.44995659722224" width="18.525390625" height="8.0171875" style="stroke:black;  stroke-width:1.4; fill:none;" />
</svg>