<svg width="326.40625" height="69.53038194444444" xmlns="http://www.w3.org/2000/svg">
<style>text {font-family: Arial; font-size: 14px ;}</style>
<desc>Trial design autogenerated by td.py version 2.1 (Jan-2022), author: Rainer Strotmann</desc><title>sample2</title><text x="70.591796875" y="25.0322265625">Period 1</text>
<text x="217.87890625" y="25.0322265625">Period 2</text>
<rect x="30" y="33.931857638888886" width="18.525390625" height="20.04296875" style="stroke:black;  stroke-width:1.4; fill:none;" />
<text x="35.5712890625" y="48.964084201388886">1</text>
<rect x="48.525390625" y="33.931857638888886" width="18.525390625" height="20.04296875" style="stroke:black;  stroke-width:1.4; fill:none;" />
<text x="54.46923828125" y="48.964084201388886">2</text>
<rect x="67.05078125" y="33.931857638888886" width="18.525390625" height="20.04296875" style="stroke:black;  stroke-width:1.4; fill:none;" />
<text x="73.0322265625" y="48.964084201388886">3</text>
<rect x="85.576171875" y="33.931857638888886" width="18.525390625" height="20.04296875" style="stroke:black;  stroke-width:1.4; fill:none;" />
<text x="91.373046875" y="48.964084201388886">4</text>
<rect x="104.1015625" y="33.931857638888886" width="18.525390625" height="20.04296875" style="stroke:black;  stroke-width:1.4; fill:none;" />
<text x="110.0419921875" y="48.964084201388886">5</text>
<rect x="122.626953125" y="33.931857638888886" width="18.525390625" height="20.04296875" style="stroke:black;  stroke-width:1.4; fill:none;" />
<text x="128.5810546875" y="48.964084201388886">6</text>
<rect x="141.15234375" y="33.931857638888886" width="18.525390625" height="20.04296875" style="stroke:black;  stroke-width:1.4; fill:none;" />
<text x="147.17138671875" y="48.964084201388886">7</text>
<line x1="159.677734375" y1="43.953342013888886" x2="178.203125" y2="43.953342013888886" style="stroke:black; stroke-width:1.4; " />
<rect x="178.203125" y="33.931857638888886" width="18.525390625" height="20.04296875" style="stroke:black;  stroke-width:1.4; fill:none;" />
<text x="183.7744140625" y="48.964084201388886">1</text>
<rect x="196.728515625" y="33.931857638888886" width="18.525390625" height="20.04296875" style="stroke:black;  stroke-width:1.4; fill:none;" />
<text x="202.67236328125" y="48.964084201388886">2</text>
<rect x="215.25390625" y="33.931857638888886" width="18.525390625" height="20.04296875" style="stroke:black;  stroke-width:1.4; fill:none;" />
<text x="221.2353515625" y="48.964084201388886">3</text>
<rect x="233.779296875" y="33.931857638888886" width="18.525390625" height="20.04296875" style="stroke:black;  stroke-width:1.4; fill:none;" />
<text x="239.576171875" y="48.964084201388886">4</text>
<rect x="252.3046875" y="33.931857638888886" width="18.525390625" height="20.04296875" style="stroke:black;  stroke-width:1.4; fill:none;" />
<text x="258.2451171875" y="48.964084201388886">5</text>
<rect x="270.830078125" y="33.931857638888886" width="18.525390625" height="20.04296875" style="stroke:black;  stroke-width:1.4; fill:none;" />
<text x="276.7841796875" y="48.964084201388886">6</text>
<rect x="289.35546875" y="33.931857638888886" width="18.525390625" height="20.04296875" style="stroke:black;  stroke-width:1.4; fill:none;" />
<text x="295.37451171875" y="48.964084201388886">7</text>
</svg>