<svg width="257.4794921875" height="231.96744791666666" xmlns="http://www.w3.org/2000/svg">
<style>text {font-family: Arial; font-size: 14px ;}</style>
<desc>Trial design autogenerated by td.py V2.0 (Jan-2022), author: Rainer Strotmann</desc><title>sample13</title><text x="129.9140625" y="25.0322265625">Periods 1-3</text>
<rect x="90.7509765625" y="33.931857638888886" width="18.525390625" height="20.04296875" style="stroke:black;  stroke-width:1.4; fill:none;" />
<text x="95.296875" y="48.964084201388886">-1</text>
<rect x="109.2763671875" y="33.931857638888886" width="18.525390625" height="20.04296875" style="stroke:black;  stroke-width:1.4; fill:none;" />
<text x="114.84765625" y="48.964084201388886">1</text>
<rect x="127.8017578125" y="33.931857638888886" width="18.525390625" height="20.04296875" style="stroke:black;  stroke-width:1.4; fill:none;" />
<text x="133.74560546875" y="48.964084201388886">2</text>
<rect x="146.3271484375" y="33.931857638888886" width="18.525390625" height="20.04296875" style="stroke:black;  stroke-width:1.4; fill:none;" />
<text x="152.30859375" y="48.964084201388886">3</text>
<rect x="164.8525390625" y="33.931857638888886" width="18.525390625" height="20.04296875" style="stroke:black;  stroke-width:1.4; fill:none;" />
<text x="170.6494140625" y="48.964084201388886">4</text>
<rect x="183.3779296875" y="33.931857638888886" width="18.525390625" height="20.04296875" style="stroke:black;  stroke-width:1.4; fill:none;" />
<text x="189.318359375" y="48.964084201388886">5</text>
<rect x="201.9033203125" y="33.931857638888886" width="18.525390625" height="20.04296875" style="stroke:black;  stroke-width:1.4; fill:none;" />
<text x="207.857421875" y="48.964084201388886">6</text>
<rect x="220.4287109375" y="33.931857638888886" width="18.525390625" height="20.04296875" style="stroke:black;  stroke-width:1.4; fill:none;" />
<text x="226.44775390625" y="48.964084201388886">7</text>
<text x="100.013671875" y="84.56260850694444"></text>
<text x="118.5390625" y="84.56260850694444"></text>
<text x="129.18603515625" y="84.56260850694444"> (a)</text>
<text x="155.58984375" y="84.56260850694444"></text>
<text x="174.115234375" y="84.56260850694444"></text>
<text x="192.640625" y="84.56260850694444"></text>
<text x="211.166015625" y="84.56260850694444"></text>
<text x="221.81298828125" y="84.56260850694444"> (b)</text>
<text x="5" y="103.74014756944445">ECG</text>
<path d="M115.03154296875, 99.59483506944444 L118.5390625, 92.57979600694445 L122.04658203125, 99.59483506944444 L118.5390625, 106.60987413194444 L115.03154296875, 99.59483506944444 Z" style="stroke: black; fill: none; stroke-width:1.4; " /><path d="M133.55693359375, 99.59483506944444 L137.064453125, 92.57979600694445 L140.57197265625, 99.59483506944444 L137.064453125, 106.60987413194444 L133.55693359375, 99.59483506944444 Z" style="stroke: black; fill: none; stroke-width:1.4; " /><path d="M152.08232421875, 99.59483506944444 L155.58984375, 92.57979600694445 L159.09736328125, 99.59483506944444 L155.58984375, 106.60987413194444 L152.08232421875, 99.59483506944444 Z" style="stroke: black; fill: none; stroke-width:1.4; " /><path d="M226.18388671875, 99.59483506944444 L229.69140625, 92.57979600694445 L233.19892578125, 99.59483506944444 L229.69140625, 106.60987413194444 L226.18388671875, 99.59483506944444 Z" style="stroke: black; fill: none; stroke-width:1.4; " /><text x="100.013671875" y="132.42632378472223"></text>
<text x="118.5390625" y="132.42632378472223"></text>
<text x="137.064453125" y="132.42632378472223"></text>
<text x="155.58984375" y="132.42632378472223"></text>
<text x="174.115234375" y="132.42632378472223"></text>
<text x="184.76220703125" y="132.42632378472223"> (a)</text>
<text x="211.166015625" y="132.42632378472223"></text>
<text x="229.69140625" y="132.42632378472223"></text>
<text x="5" y="152.64565972222223">vital signs</text>
<path d="M96.50615234375, 147.45855034722223 L100.013671875, 140.44351128472223 L103.52119140625, 147.45855034722223 L100.013671875, 154.47358940972222 L96.50615234375, 147.45855034722223 Z" style="stroke: black; fill: none; stroke-width:1.4; " /><path d="M189.13310546875, 147.45855034722223 L192.640625, 140.44351128472223 L196.14814453125, 147.45855034722223 L192.640625, 154.47358940972222 L189.13310546875, 147.45855034722223 Z" style="stroke: black; fill: none; stroke-width:1.4; " /><path d="M226.18388671875, 147.45855034722223 L229.69140625, 140.44351128472223 L233.19892578125, 147.45855034722223 L229.69140625, 154.47358940972222 L226.18388671875, 147.45855034722223 Z" style="stroke: black; fill: none; stroke-width:1.4; " /><text x="90.7509765625" y="196.36892361111111">(a)	Period 1 only</text>
<text x="90.7509765625" y="214.16818576388889">(b)	Before discharge</text>
</svg>