<svg width="326.40625" height="69.53038194444444" xmlns="http://www.w3.org/2000/svg">
<style>text {font-family: Arial; font-size: 14px ;}</style>
<desc>Trial design autogenerated by td.py V2.0 (Dec-2021), author: Rainer Strotmann</desc><title>sample2</title><text x="70.591796875" y="25.0322265625">Period 1</text>
<text x="217.87890625" y="25.0322265625">Period 2</text>
<rect x="30" y="33.931857638888886" width="18.525390625" height="20.04296875" style="stroke:black;  stroke-width:1.4; fill:none;" />
<text x="39.2626953125" y="48.964084201388886"></text>
<rect x="48.525390625" y="33.931857638888886" width="18.525390625" height="20.04296875" style="stroke:black;  stroke-width:1.4; fill:none;" />
<text x="57.7880859375" y="48.964084201388886"></text>
<rect x="67.05078125" y="33.931857638888886" width="18.525390625" height="20.04296875" style="stroke:black;  stroke-width:1.4; fill:none;" />
<text x="76.3134765625" y="48.964084201388886"></text>
<rect x="85.576171875" y="33.931857638888886" width="18.525390625" height="20.04296875" style="stroke:black;  stroke-width:1.4; fill:none;" />
<text x="94.8388671875" y="48.964084201388886"></text>
<rect x="104.1015625" y="33.931857638888886" width="18.525390625" height="20.04296875" style="stroke:black;  stroke-width:1.4; fill:none;" />
<text x="113.3642578125" y="48.964084201388886"></text>
<rect x="122.626953125" y="33.931857638888886" width="18.525390625" height="20.04296875" style="stroke:black;  stroke-width:1.4; fill:none;" />
<text x="131.8896484375" y="48.964084201388886"></text>
<rect x="141.15234375" y="33.931857638888886" width="18.525390625" height="20.04296875" style="stroke:black;  stroke-width:1.4; fill:none;" />
<text x="150.4150390625" y="48.964084201388886"></text>
<line x1="159.677734375" y1="43.953342013888886" x2="178.203125" y2="43.953342013888886" style="stroke:black; stroke-width:1.4; " />
<rect x="178.203125" y="33.931857638888886" width="18.525390625" height="20.04296875" style="stroke:black;  stroke-width:1.4; fill:none;" />
<text x="187.4658203125" y="48.964084201388886"></text>
<rect x="196.728515625" y="33.931857638888886" width="18.525390625" height="20.04296875" style="stroke:black;  stroke-width:1.4; fill:none;" />
<text x="205.9912109375" y="48.964084201388886"></text>
<rect x="215.25390625" y="33.931857638888886" width="18.525390625" height="20.04296875" style="stroke:black;  stroke-width:1.4; fill:none;" />
<text x="224.5166015625" y="48.964084201388886"></text>
<rect x="233.779296875" y="33.931857638888886" width="18.525390625" height="20.04296875" style="stroke:black;  stroke-width:1.4; fill:none;" />
<text x="243.0419921875" y="48.964084201388886"></text>
<rect x="252.3046875" y="33.931857638888886" width="18.525390625" height="20.04296875" style="stroke:black;  stroke-width:1.4; fill:none;" />
<text x="261.5673828125" y="48.964084201388886"></text>
<rect x="270.830078125" y="33.931857638888886" width="18.525390625" height="20.04296875" style="stroke:black;  stroke-width:1.4; fill:none;" />
<text x="280.0927734375" y="48.964084201388886"></text>
<rect x="289.35546875" y="33.931857638888886" width="18.525390625" height="20.04296875" style="stroke:black;  stroke-width:1.4; fill:none;" />
<text x="298.6181640625" y="48.964084201388886"></text>
</svg>