<svg width="929.03515625" height="208.63411458333331" xmlns="http://www.w3.org/2000/svg">
<style>text {font-family: Arial; font-size: 14px ;}</style>
<desc>Trial design autogenerated by td.py V2.0 (Dec-2021), author: Rainer Strotmann</desc><title>ms0051</title><text x="211.81884765625" y="25.0322265625">S</text>
<text x="293.4501953125" y="25.0322265625">Period 1</text>
<text x="616.728515625" y="25.0322265625">Period 2</text>
<text x="891.109375" y="25.0322265625">F/U</text>
<rect x="206.544921875" y="33.931857638888886" width="18.525390625" height="20.04296875" style="stroke:black;  stroke-width:1.4; fill:none;" />
<text x="215.8076171875" y="48.964084201388886"></text>
<line x1="225.0703125" y1="43.953342013888886" x2="243.595703125" y2="43.953342013888886" style="stroke:black; stroke-width:1.4; " />
<rect x="243.595703125" y="33.931857638888886" width="18.525390625" height="20.04296875" style="stroke:black;  stroke-width:1.4; fill:none;" />
<text x="248.1416015625" y="48.964084201388886">-1</text>
<rect x="262.12109375" y="33.931857638888886" width="18.525390625" height="20.04296875" style="stroke:black;  stroke-width:0; fill:lightgray;" />
<rect x="262.12109375" y="33.931857638888886" width="18.525390625" height="20.04296875" style="stroke:black;  stroke-width:1.4; fill:none;" />
<text x="267.6923828125" y="48.964084201388886">1</text>
<rect x="280.646484375" y="33.931857638888886" width="18.525390625" height="20.04296875" style="stroke:black;  stroke-width:1.4; fill:none;" />
<text x="286.59033203125" y="48.964084201388886">2</text>
<rect x="299.171875" y="33.931857638888886" width="18.525390625" height="20.04296875" style="stroke:black;  stroke-width:1.4; fill:none;" />
<text x="305.1533203125" y="48.964084201388886">3</text>
<rect x="317.697265625" y="33.931857638888886" width="18.525390625" height="20.04296875" style="stroke:black;  stroke-width:1.4; fill:none;" />
<text x="323.494140625" y="48.964084201388886">4</text>
<rect x="336.22265625" y="33.931857638888886" width="18.525390625" height="20.04296875" style="stroke:black;  stroke-width:1.4; fill:none;" />
<text x="342.1630859375" y="48.964084201388886">5</text>
<rect x="354.748046875" y="33.931857638888886" width="18.525390625" height="20.04296875" style="stroke:black;  stroke-width:1.4; fill:none;" />
<text x="360.7021484375" y="48.964084201388886">6</text>
<rect x="373.2734375" y="33.931857638888886" width="18.525390625" height="20.04296875" style="stroke:black;  stroke-width:1.4; fill:none;" />
<text x="379.29248046875" y="48.964084201388886">7</text>
<line x1="391.798828125" y1="43.953342013888886" x2="410.32421875" y2="43.953342013888886" style="stroke:black; stroke-width:1.4; " />
<rect x="410.32421875" y="33.931857638888886" width="18.525390625" height="20.04296875" style="stroke:black;  stroke-width:0; fill:lightgray;" />
<rect x="410.32421875" y="33.931857638888886" width="18.525390625" height="20.04296875" style="stroke:black;  stroke-width:1.4; fill:none;" />
<text x="416.28515625" y="48.964084201388886">8</text>
<rect x="428.849609375" y="33.931857638888886" width="18.525390625" height="20.04296875" style="stroke:black;  stroke-width:1.4; fill:none;" />
<text x="434.8173828125" y="48.964084201388886">9</text>
<rect x="447.375" y="33.931857638888886" width="18.525390625" height="20.04296875" style="stroke:black;  stroke-width:1.4; fill:none;" />
<text x="448.10302734375" y="48.964084201388886">10</text>
<rect x="465.900390625" y="33.931857638888886" width="18.525390625" height="20.04296875" style="stroke:black;  stroke-width:1.4; fill:none;" />
<text x="467.57861328125" y="48.964084201388886">11</text>
<rect x="484.42578125" y="33.931857638888886" width="18.525390625" height="20.04296875" style="stroke:black;  stroke-width:1.4; fill:none;" />
<text x="485.18798828125" y="48.964084201388886">12</text>
<rect x="502.951171875" y="33.931857638888886" width="18.525390625" height="20.04296875" style="stroke:black;  stroke-width:1.4; fill:none;" />
<text x="512.2138671875" y="48.964084201388886"></text>
<rect x="521.4765625" y="33.931857638888886" width="18.525390625" height="20.04296875" style="stroke:black;  stroke-width:1.4; fill:none;" />
<text x="530.7392578125" y="48.964084201388886"></text>
<rect x="540.001953125" y="33.931857638888886" width="18.525390625" height="20.04296875" style="stroke:black;  stroke-width:0; fill:lightgray;" />
<rect x="540.001953125" y="33.931857638888886" width="18.525390625" height="20.04296875" style="stroke:black;  stroke-width:1.4; fill:none;" />
<text x="540.67529296875" y="48.964084201388886">15</text>
<rect x="558.52734375" y="33.931857638888886" width="18.525390625" height="20.04296875" style="stroke:black;  stroke-width:1.4; fill:none;" />
<text x="567.7900390625" y="48.964084201388886"></text>
<rect x="577.052734375" y="33.931857638888886" width="18.525390625" height="20.04296875" style="stroke:black;  stroke-width:1.4; fill:none;" />
<text x="586.3154296875" y="48.964084201388886"></text>
<rect x="595.578125" y="33.931857638888886" width="18.525390625" height="20.04296875" style="stroke:black;  stroke-width:1.4; fill:none;" />
<text x="604.8408203125" y="48.964084201388886"></text>
<rect x="614.103515625" y="33.931857638888886" width="18.525390625" height="20.04296875" style="stroke:black;  stroke-width:1.4; fill:none;" />
<text x="623.3662109375" y="48.964084201388886"></text>
<rect x="632.62890625" y="33.931857638888886" width="18.525390625" height="20.04296875" style="stroke:black;  stroke-width:1.4; fill:none;" />
<text x="641.8916015625" y="48.964084201388886"></text>
<rect x="651.154296875" y="33.931857638888886" width="18.525390625" height="20.04296875" style="stroke:black;  stroke-width:1.4; fill:none;" />
<text x="660.4169921875" y="48.964084201388886"></text>
<rect x="669.6796875" y="33.931857638888886" width="18.525390625" height="20.04296875" style="stroke:black;  stroke-width:0; fill:lightgray;" />
<rect x="669.6796875" y="33.931857638888886" width="18.525390625" height="20.04296875" style="stroke:black;  stroke-width:1.4; fill:none;" />
<text x="671.73046875" y="48.964084201388886">22</text>
<rect x="688.205078125" y="33.931857638888886" width="18.525390625" height="20.04296875" style="stroke:black;  stroke-width:1.4; fill:none;" />
<text x="697.4677734375" y="48.964084201388886"></text>
<rect x="706.73046875" y="33.931857638888886" width="18.525390625" height="20.04296875" style="stroke:black;  stroke-width:1.4; fill:none;" />
<text x="715.9931640625" y="48.964084201388886"></text>
<rect x="725.255859375" y="33.931857638888886" width="18.525390625" height="20.04296875" style="stroke:black;  stroke-width:1.4; fill:none;" />
<text x="727.2177734375" y="48.964084201388886">25</text>
<rect x="743.78125" y="33.931857638888886" width="18.525390625" height="20.04296875" style="stroke:black;  stroke-width:1.4; fill:none;" />
<text x="745.7841796875" y="48.964084201388886">26</text>
<rect x="762.306640625" y="33.931857638888886" width="18.525390625" height="20.04296875" style="stroke:black;  stroke-width:1.4; fill:none;" />
<text x="764.30615234375" y="48.964084201388886">27</text>
<rect x="780.83203125" y="33.931857638888886" width="18.525390625" height="20.04296875" style="stroke:black;  stroke-width:1.4; fill:none;" />
<text x="782.8212890625" y="48.964084201388886">28</text>
<rect x="799.357421875" y="33.931857638888886" width="18.525390625" height="20.04296875" style="stroke:black;  stroke-width:0; fill:lightgray;" />
<rect x="799.357421875" y="33.931857638888886" width="18.525390625" height="20.04296875" style="stroke:black;  stroke-width:1.4; fill:none;" />
<text x="801.3466796875" y="48.964084201388886">29</text>
<rect x="817.8828125" y="33.931857638888886" width="18.525390625" height="20.04296875" style="stroke:black;  stroke-width:1.4; fill:none;" />
<text x="819.98828125" y="48.964084201388886">30</text>
<rect x="836.408203125" y="33.931857638888886" width="18.525390625" height="20.04296875" style="stroke:black;  stroke-width:1.4; fill:none;" />
<text x="839.4638671875" y="48.964084201388886">31</text>
<rect x="854.93359375" y="33.931857638888886" width="18.525390625" height="20.04296875" style="stroke:black;  stroke-width:1.4; fill:none;" />
<text x="857.0732421875" y="48.964084201388886">32</text>
<line x1="873.458984375" y1="43.953342013888886" x2="891.984375" y2="43.953342013888886" style="stroke:black; stroke-width:1.4; " />
<rect x="891.984375" y="33.931857638888886" width="18.525390625" height="20.04296875" style="stroke:black;  stroke-width:1.4; fill:none;" />
<text x="894.0625" y="48.964084201388886">39</text>
<text x="5" y="84.67335069444444">hospitalization</text>
<rect x="243.595703125" y="75.54327256944444" width="92.626953125" height="8.0171875" style="stroke:black;  stroke-width:1.4; fill:none;" />
<rect x="725.255859375" y="75.54327256944444" width="92.626953125" height="8.0171875" style="stroke:black;  stroke-width:1.4; fill:none;" />
<text x="5" y="112.49409722222222">tepotinib</text>
<path d="M271.023015625, 107.37261284722223 L271.023015625, 101.35972222222223 L271.7445625, 101.35972222222223 L271.7445625, 107.37261284722223 L273.638623046875, 107.37261284722223 L271.3837890625, 113.38550347222223 L269.128955078125, 107.37261284722223 L271.023015625, 107.37261284722223 Z" style="stroke: black; fill: black; stroke-width:1.4; " /><path d="M752.683171875, 107.37261284722223 L752.683171875, 101.35972222222223 L753.40471875, 101.35972222222223 L753.40471875, 107.37261284722223 L755.298779296875, 107.37261284722223 L753.0439453125, 113.38550347222223 L750.789111328125, 107.37261284722223 L752.683171875, 107.37261284722223 Z" style="stroke: black; fill: black; stroke-width:1.4; " /><text x="5" y="140.31484375">carbamazepine BID</text>
<path d="M419.226140625, 135.193359375 L419.226140625, 129.18046875 L419.9476875, 129.18046875 L419.9476875, 135.193359375 L421.841748046875, 135.193359375 L419.5869140625, 141.20625 L417.332080078125, 135.193359375 L419.226140625, 135.193359375 Z" style="stroke: black; fill: black; stroke-width:1.4; " /><path d="M437.75153125, 135.193359375 L437.75153125, 129.18046875 L438.473078125, 129.18046875 L438.473078125, 135.193359375 L440.367138671875, 135.193359375 L438.1123046875, 141.20625 L435.857470703125, 135.193359375 L437.75153125, 135.193359375 Z" style="stroke: black; fill: black; stroke-width:1.4; " /><path d="M456.276921875, 135.193359375 L456.276921875, 129.18046875 L456.99846875, 129.18046875 L456.99846875, 135.193359375 L458.892529296875, 135.193359375 L456.6376953125, 141.20625 L454.382861328125, 135.193359375 L456.276921875, 135.193359375 Z" style="stroke: black; fill: black; stroke-width:1.4; " /><path d="M474.8023125, 135.193359375 L474.8023125, 129.18046875 L475.523859375, 129.18046875 L475.523859375, 135.193359375 L477.417919921875, 135.193359375 L475.1630859375, 141.20625 L472.908251953125, 135.193359375 L474.8023125, 135.193359375 Z" style="stroke: black; fill: black; stroke-width:1.4; " /><path d="M493.327703125, 135.193359375 L493.327703125, 129.18046875 L494.04925, 129.18046875 L494.04925, 135.193359375 L495.943310546875, 135.193359375 L493.6884765625, 141.20625 L491.433642578125, 135.193359375 L493.327703125, 135.193359375 Z" style="stroke: black; fill: black; stroke-width:1.4; " /><path d="M511.85309375, 135.193359375 L511.85309375, 129.18046875 L512.574640625, 129.18046875 L512.574640625, 135.193359375 L514.468701171875, 135.193359375 L512.2138671875, 141.20625 L509.959033203125, 135.193359375 L511.85309375, 135.193359375 Z" style="stroke: black; fill: black; stroke-width:1.4; " /><path d="M530.378484375, 135.193359375 L530.378484375, 129.18046875 L531.10003125, 129.18046875 L531.10003125, 135.193359375 L532.994091796875, 135.193359375 L530.7392578125, 141.20625 L528.484423828125, 135.193359375 L530.378484375, 135.193359375 Z" style="stroke: black; fill: black; stroke-width:1.4; " /><path d="M548.903875, 135.193359375 L548.903875, 129.18046875 L549.625421875, 129.18046875 L549.625421875, 135.193359375 L551.519482421875, 135.193359375 L549.2646484375, 141.20625 L547.009814453125, 135.193359375 L548.903875, 135.193359375 Z" style="stroke: black; fill: black; stroke-width:1.4; " /><path d="M567.429265625, 135.193359375 L567.429265625, 129.18046875 L568.1508125, 129.18046875 L568.1508125, 135.193359375 L570.044873046875, 135.193359375 L567.7900390625, 141.20625 L565.535205078125, 135.193359375 L567.429265625, 135.193359375 Z" style="stroke: black; fill: black; stroke-width:1.4; " /><path d="M585.95465625, 135.193359375 L585.95465625, 129.18046875 L586.676203125, 129.18046875 L586.676203125, 135.193359375 L588.570263671875, 135.193359375 L586.3154296875, 141.20625 L584.060595703125, 135.193359375 L585.95465625, 135.193359375 Z" style="stroke: black; fill: black; stroke-width:1.4; " /><path d="M604.480046875, 135.193359375 L604.480046875, 129.18046875 L605.20159375, 129.18046875 L605.20159375, 135.193359375 L607.095654296875, 135.193359375 L604.8408203125, 141.20625 L602.585986328125, 135.193359375 L604.480046875, 135.193359375 Z" style="stroke: black; fill: black; stroke-width:1.4; " /><path d="M623.0054375, 135.193359375 L623.0054375, 129.18046875 L623.726984375, 129.18046875 L623.726984375, 135.193359375 L625.621044921875, 135.193359375 L623.3662109375, 141.20625 L621.111376953125, 135.193359375 L623.0054375, 135.193359375 Z" style="stroke: black; fill: black; stroke-width:1.4; " /><path d="M641.530828125, 135.193359375 L641.530828125, 129.18046875 L642.252375, 129.18046875 L642.252375, 135.193359375 L644.146435546875, 135.193359375 L641.8916015625, 141.20625 L639.636767578125, 135.193359375 L641.530828125, 135.193359375 Z" style="stroke: black; fill: black; stroke-width:1.4; " /><path d="M660.05621875, 135.193359375 L660.05621875, 129.18046875 L660.777765625, 129.18046875 L660.777765625, 135.193359375 L662.671826171875, 135.193359375 L660.4169921875, 141.20625 L658.162158203125, 135.193359375 L660.05621875, 135.193359375 Z" style="stroke: black; fill: black; stroke-width:1.4; " /><path d="M678.581609375, 135.193359375 L678.581609375, 129.18046875 L679.30315625, 129.18046875 L679.30315625, 135.193359375 L681.197216796875, 135.193359375 L678.9423828125, 141.20625 L676.687548828125, 135.193359375 L678.581609375, 135.193359375 Z" style="stroke: black; fill: black; stroke-width:1.4; " /><path d="M697.107, 135.193359375 L697.107, 129.18046875 L697.828546875, 129.18046875 L697.828546875, 135.193359375 L699.722607421875, 135.193359375 L697.4677734375, 141.20625 L695.212939453125, 135.193359375 L697.107, 135.193359375 Z" style="stroke: black; fill: black; stroke-width:1.4; " /><path d="M715.632390625, 135.193359375 L715.632390625, 129.18046875 L716.3539375, 129.18046875 L716.3539375, 135.193359375 L718.247998046875, 135.193359375 L715.9931640625, 141.20625 L713.738330078125, 135.193359375 L715.632390625, 135.193359375 Z" style="stroke: black; fill: black; stroke-width:1.4; " /><path d="M734.15778125, 135.193359375 L734.15778125, 129.18046875 L734.879328125, 129.18046875 L734.879328125, 135.193359375 L736.773388671875, 135.193359375 L734.5185546875, 141.20625 L732.263720703125, 135.193359375 L734.15778125, 135.193359375 Z" style="stroke: black; fill: black; stroke-width:1.4; " /><path d="M752.683171875, 135.193359375 L752.683171875, 129.18046875 L753.40471875, 129.18046875 L753.40471875, 135.193359375 L755.298779296875, 135.193359375 L753.0439453125, 141.20625 L750.789111328125, 135.193359375 L752.683171875, 135.193359375 Z" style="stroke: black; fill: black; stroke-width:1.4; " /><path d="M771.2085625, 135.193359375 L771.2085625, 129.18046875 L771.930109375, 129.18046875 L771.930109375, 135.193359375 L773.824169921875, 135.193359375 L771.5693359375, 141.20625 L769.314501953125, 135.193359375 L771.2085625, 135.193359375 Z" style="stroke: black; fill: black; stroke-width:1.4; " /><path d="M789.733953125, 135.193359375 L789.733953125, 129.18046875 L790.4555, 129.18046875 L790.4555, 135.193359375 L792.349560546875, 135.193359375 L790.0947265625, 141.20625 L787.839892578125, 135.193359375 L789.733953125, 135.193359375 Z" style="stroke: black; fill: black; stroke-width:1.4; " /><path d="M808.25934375, 135.193359375 L808.25934375, 129.18046875 L808.980890625, 129.18046875 L808.980890625, 135.193359375 L810.874951171875, 135.193359375 L808.6201171875, 141.20625 L806.365283203125, 135.193359375 L808.25934375, 135.193359375 Z" style="stroke: black; fill: black; stroke-width:1.4; " /><path d="M826.784734375, 135.193359375 L826.784734375, 129.18046875 L827.50628125, 129.18046875 L827.50628125, 135.193359375 L829.400341796875, 135.193359375 L827.1455078125, 141.20625 L824.890673828125, 135.193359375 L826.784734375, 135.193359375 Z" style="stroke: black; fill: black; stroke-width:1.4; " /><path d="M845.310125, 135.193359375 L845.310125, 129.18046875 L846.031671875, 129.18046875 L846.031671875, 135.193359375 L847.925732421875, 135.193359375 L845.6708984375, 141.20625 L843.416064453125, 135.193359375 L845.310125, 135.193359375 Z" style="stroke: black; fill: black; stroke-width:1.4; " /><path d="M863.835515625, 135.193359375 L863.835515625, 129.18046875 L864.5570625, 129.18046875 L864.5570625, 135.193359375 L866.451123046875, 135.193359375 L864.1962890625, 141.20625 L861.941455078125, 135.193359375 L863.835515625, 135.193359375 Z" style="stroke: black; fill: black; stroke-width:1.4; " /><text x="5" y="168.20121527777778">PK sampling carbamazepine</text>
<path d="M731.01103515625, 163.01410590277777 L734.5185546875, 155.99906684027778 L738.02607421875, 163.01410590277777 L734.5185546875, 170.02914496527777 L731.01103515625, 163.01410590277777 Z" style="stroke: black; fill: none; stroke-width:1.4; " /><path d="M746.56005859375, 166.77216254340277 L746.56005859375, 159.25604926215277 L759.52783203125, 159.25604926215277 L759.52783203125, 166.77216254340277 L746.56005859375, 166.77216254340277 Z" style="stroke: black; fill: none; stroke-width:1.4; " /><text x="5" y="196.02196180555555">PK sampling tepotinib</text>
<path d="M264.89990234375, 194.59290907118054 L264.89990234375, 187.07679578993054 L277.86767578125, 187.07679578993054 L277.86767578125, 194.59290907118054 L264.89990234375, 194.59290907118054 Z" style="stroke: black; fill: none; stroke-width:1.4; " /><path d="M283.42529296875, 194.59290907118054 L283.42529296875, 187.07679578993054 L296.39306640625, 187.07679578993054 L296.39306640625, 194.59290907118054 L283.42529296875, 194.59290907118054 Z" style="stroke: black; fill: none; stroke-width:1.4; " /><path d="M301.95068359375, 194.59290907118054 L301.95068359375, 187.07679578993054 L314.91845703125, 187.07679578993054 L314.91845703125, 194.59290907118054 L301.95068359375, 194.59290907118054 Z" style="stroke: black; fill: none; stroke-width:1.4; " /><path d="M323.45244140625, 190.83485243055554 L326.9599609375, 183.81981336805555 L330.46748046875, 190.83485243055554 L326.9599609375, 197.84989149305554 L323.45244140625, 190.83485243055554 Z" style="stroke: black; fill: none; stroke-width:1.4; " /><path d="M341.97783203125, 190.83485243055554 L345.4853515625, 183.81981336805555 L348.99287109375, 190.83485243055554 L345.4853515625, 197.84989149305554 L341.97783203125, 190.83485243055554 Z" style="stroke: black; fill: none; stroke-width:1.4; " /><path d="M360.50322265625, 190.83485243055554 L364.0107421875, 183.81981336805555 L367.51826171875, 190.83485243055554 L364.0107421875, 197.84989149305554 L360.50322265625, 190.83485243055554 Z" style="stroke: black; fill: none; stroke-width:1.4; " /><path d="M379.02861328125, 190.83485243055554 L382.5361328125, 183.81981336805555 L386.04365234375, 190.83485243055554 L382.5361328125, 197.84989149305554 L379.02861328125, 190.83485243055554 Z" style="stroke: black; fill: none; stroke-width:1.4; " /><path d="M746.56005859375, 194.59290907118054 L746.56005859375, 187.07679578993054 L759.52783203125, 187.07679578993054 L759.52783203125, 194.59290907118054 L746.56005859375, 194.59290907118054 Z" style="stroke: black; fill: none; stroke-width:1.4; " /><path d="M765.08544921875, 194.59290907118054 L765.08544921875, 187.07679578993054 L778.05322265625, 187.07679578993054 L778.05322265625, 194.59290907118054 L765.08544921875, 194.59290907118054 Z" style="stroke: black; fill: none; stroke-width:1.4; " /><path d="M783.61083984375, 194.59290907118054 L783.61083984375, 187.07679578993054 L796.57861328125, 187.07679578993054 L796.57861328125, 194.59290907118054 L783.61083984375, 194.59290907118054 Z" style="stroke: black; fill: none; stroke-width:1.4; " /><path d="M805.11259765625, 190.83485243055554 L808.6201171875, 183.81981336805555 L812.12763671875, 190.83485243055554 L808.6201171875, 197.84989149305554 L805.11259765625, 190.83485243055554 Z" style="stroke: black; fill: none; stroke-width:1.4; " /><path d="M823.63798828125, 190.83485243055554 L827.1455078125, 183.81981336805555 L830.65302734375, 190.83485243055554 L827.1455078125, 197.84989149305554 L823.63798828125, 190.83485243055554 Z" style="stroke: black; fill: none; stroke-width:1.4; " /><path d="M842.16337890625, 190.83485243055554 L845.6708984375, 183.81981336805555 L849.17841796875, 190.83485243055554 L845.6708984375, 197.84989149305554 L842.16337890625, 190.83485243055554 Z" style="stroke: black; fill: none; stroke-width:1.4; " /><path d="M860.68876953125, 190.83485243055554 L864.1962890625, 183.81981336805555 L867.70380859375, 190.83485243055554 L864.1962890625, 197.84989149305554 L860.68876953125, 190.83485243055554 Z" style="stroke: black; fill: none; stroke-width:1.4; " /></svg>