<svg width="289.08203125" height="97.35112847222223" xmlns="http://www.w3.org/2000/svg">
<style>text {font-family: Arial; font-size: 14px ;}</style>
<desc>Trial design autogenerated by td.py V2.0 (Dec-2021), author: Rainer Strotmann</desc><title>sample10</title><rect x="191.82373046875" y="10" width="83.3642578125" height="83.46223958333334" style="stroke:black;  stroke-width:0; fill:#eee;" />
<text x="107.369140625" y="25.0322265625">Period 1</text>
<text x="208.3427734375" y="25.0322265625">Period 2</text>
<rect x="85.302734375" y="33.931857638888886" width="18.525390625" height="20.04296875" style="stroke:black;  stroke-width:1.4; fill:none;" />
<text x="89.8486328125" y="48.964084201388886">-1</text>
<rect x="103.828125" y="33.931857638888886" width="18.525390625" height="20.04296875" style="stroke:black;  stroke-width:1.4; fill:none;" />
<text x="109.3994140625" y="48.964084201388886">1</text>
<rect x="122.353515625" y="33.931857638888886" width="18.525390625" height="20.04296875" style="stroke:black;  stroke-width:1.4; fill:none;" />
<text x="128.29736328125" y="48.964084201388886">2</text>
<rect x="140.87890625" y="33.931857638888886" width="18.525390625" height="20.04296875" style="stroke:black;  stroke-width:1.4; fill:none;" />
<text x="146.8603515625" y="48.964084201388886">3</text>
<rect x="159.404296875" y="33.931857638888886" width="18.525390625" height="20.04296875" style="stroke:black;  stroke-width:1.4; fill:none;" />
<text x="165.201171875" y="48.964084201388886">4</text>
<line x1="177.9296875" y1="43.953342013888886" x2="196.455078125" y2="43.953342013888886" style="stroke:black; stroke-width:1.4; " />
<rect x="196.455078125" y="33.931857638888886" width="18.525390625" height="20.04296875" style="stroke:black;  stroke-width:1.4; fill:none;" />
<text x="202.0263671875" y="48.964084201388886">1</text>
<rect x="214.98046875" y="33.931857638888886" width="18.525390625" height="20.04296875" style="stroke:black;  stroke-width:1.4; fill:none;" />
<text x="220.92431640625" y="48.964084201388886">2</text>
<rect x="233.505859375" y="33.931857638888886" width="18.525390625" height="20.04296875" style="stroke:black;  stroke-width:1.4; fill:none;" />
<text x="239.4873046875" y="48.964084201388886">3</text>
<rect x="252.03125" y="33.931857638888886" width="18.525390625" height="20.04296875" style="stroke:black;  stroke-width:1.4; fill:none;" />
<text x="257.828125" y="48.964084201388886">4</text>
<text x="5" y="83.69991319444445">massage</text>
<path d="M109.58330078125, 79.55186631944444 L113.0908203125, 72.53682725694445 L116.59833984375, 79.55186631944444 L113.0908203125, 86.56690538194444 L109.58330078125, 79.55186631944444 Z" style="stroke: black; fill: none; stroke-width:1.4; " /><path d="M128.10869140625, 79.55186631944444 L131.6162109375, 72.53682725694445 L135.12373046875, 79.55186631944444 L131.6162109375, 86.56690538194444 L128.10869140625, 79.55186631944444 Z" style="stroke: black; fill: none; stroke-width:1.4; " /><path d="M202.21025390625, 79.55186631944444 L205.7177734375, 72.53682725694445 L209.22529296875, 79.55186631944444 L205.7177734375, 86.56690538194444 L202.21025390625, 79.55186631944444 Z" style="stroke: black; fill: none; stroke-width:1.4; " /><path d="M220.73564453125, 79.55186631944444 L224.2431640625, 72.53682725694445 L227.75068359375, 79.55186631944444 L224.2431640625, 86.56690538194444 L220.73564453125, 79.55186631944444 Z" style="stroke: black; fill: none; stroke-width:1.4; " /></svg>