<svg width="225.083984375" height="184.10373263888889" xmlns="http://www.w3.org/2000/svg">
<style>text {font-family: Arial; font-size: 14px ;}</style>
<desc>Trial design autogenerated by td.py V2.0 (Jan-2022), author: Rainer Strotmann</desc><title>sample13</title><text x="97.5185546875" y="25.0322265625">Periods 1-3</text>
<rect x="58.35546875" y="33.931857638888886" width="18.525390625" height="20.04296875" style="stroke:black;  stroke-width:1.4; fill:none;" />
<text x="62.9013671875" y="48.964084201388886">-1</text>
<rect x="76.880859375" y="33.931857638888886" width="18.525390625" height="20.04296875" style="stroke:black;  stroke-width:1.4; fill:none;" />
<text x="82.4521484375" y="48.964084201388886">1</text>
<rect x="95.40625" y="33.931857638888886" width="18.525390625" height="20.04296875" style="stroke:black;  stroke-width:1.4; fill:none;" />
<text x="101.35009765625" y="48.964084201388886">2</text>
<rect x="113.931640625" y="33.931857638888886" width="18.525390625" height="20.04296875" style="stroke:black;  stroke-width:1.4; fill:none;" />
<text x="119.9130859375" y="48.964084201388886">3</text>
<rect x="132.45703125" y="33.931857638888886" width="18.525390625" height="20.04296875" style="stroke:black;  stroke-width:1.4; fill:none;" />
<text x="138.25390625" y="48.964084201388886">4</text>
<rect x="150.982421875" y="33.931857638888886" width="18.525390625" height="20.04296875" style="stroke:black;  stroke-width:1.4; fill:none;" />
<text x="156.9228515625" y="48.964084201388886">5</text>
<rect x="169.5078125" y="33.931857638888886" width="18.525390625" height="20.04296875" style="stroke:black;  stroke-width:1.4; fill:none;" />
<text x="175.4619140625" y="48.964084201388886">6</text>
<rect x="188.033203125" y="33.931857638888886" width="18.525390625" height="20.04296875" style="stroke:black;  stroke-width:1.4; fill:none;" />
<text x="194.05224609375" y="48.964084201388886">7</text>
<text x="67.6181640625" y="84.56260850694444"></text>
<text x="86.1435546875" y="84.56260850694444"></text>
<text x="96.79052734375" y="84.56260850694444"> (a)</text>
<text x="123.1943359375" y="84.56260850694444"></text>
<text x="141.7197265625" y="84.56260850694444"></text>
<text x="160.2451171875" y="84.56260850694444"></text>
<text x="178.7705078125" y="84.56260850694444"></text>
<text x="189.41748046875" y="84.56260850694444"> (b)</text>
<text x="5" y="103.74014756944445">ECG</text>
<path d="M82.63603515625, 99.59483506944444 L86.1435546875, 92.57979600694445 L89.65107421875, 99.59483506944444 L86.1435546875, 106.60987413194444 L82.63603515625, 99.59483506944444 Z" style="stroke: black; fill: none; stroke-width:1.4; " /><path d="M101.16142578125, 99.59483506944444 L104.6689453125, 92.57979600694445 L108.17646484375, 99.59483506944444 L104.6689453125, 106.60987413194444 L101.16142578125, 99.59483506944444 Z" style="stroke: black; fill: none; stroke-width:1.4; " /><path d="M119.68681640625, 99.59483506944444 L123.1943359375, 92.57979600694445 L126.70185546875, 99.59483506944444 L123.1943359375, 106.60987413194444 L119.68681640625, 99.59483506944444 Z" style="stroke: black; fill: none; stroke-width:1.4; " /><path d="M193.78837890625, 99.59483506944444 L197.2958984375, 92.57979600694445 L200.80341796875, 99.59483506944444 L197.2958984375, 106.60987413194444 L193.78837890625, 99.59483506944444 Z" style="stroke: black; fill: none; stroke-width:1.4; " /><text x="58.35546875" y="148.50520833333334">(a)	Period 1 only</text>
<text x="58.35546875" y="166.30447048611111">(b)	Before discharge</text>
</svg>