<svg width="196.728515625" height="69.53038194444444" xmlns="http://www.w3.org/2000/svg">
<style>text {font-family: Arial; font-size: 14px ;}</style>
<desc>Trial design autogenerated by td.py V2.0 (Dec-2021), author: Rainer Strotmann</desc><title>sample3</title><text x="79.8544921875" y="25.0322265625">Period 1</text>
<rect x="30" y="33.931857638888886" width="18.525390625" height="20.04296875" style="stroke:black;  stroke-width:1.4; fill:none;" />
<text x="34.5458984375" y="48.964084201388886">-1</text>
<rect x="48.525390625" y="33.931857638888886" width="18.525390625" height="20.04296875" style="stroke:black;  stroke-width:0; fill:lightgray;" />
<rect x="48.525390625" y="33.931857638888886" width="18.525390625" height="20.04296875" style="stroke:black;  stroke-width:1.4; fill:none;" />
<text x="54.0966796875" y="48.964084201388886">1</text>
<rect x="67.05078125" y="33.931857638888886" width="18.525390625" height="20.04296875" style="stroke:black;  stroke-width:1.4; fill:none;" />
<text x="72.99462890625" y="48.964084201388886">2</text>
<rect x="85.576171875" y="33.931857638888886" width="18.525390625" height="20.04296875" style="stroke:black;  stroke-width:1.4; fill:none;" />
<text x="91.5576171875" y="48.964084201388886">3</text>
<rect x="104.1015625" y="33.931857638888886" width="18.525390625" height="20.04296875" style="stroke:black;  stroke-width:1.4; fill:none;" />
<text x="113.3642578125" y="48.964084201388886"></text>
<rect x="122.626953125" y="33.931857638888886" width="18.525390625" height="20.04296875" style="stroke:black;  stroke-width:1.4; fill:none;" />
<text x="131.8896484375" y="48.964084201388886"></text>
<rect x="141.15234375" y="33.931857638888886" width="18.525390625" height="20.04296875" style="stroke:black;  stroke-width:1.4; fill:none;" />
<text x="147.1064453125" y="48.964084201388886">6</text>
<rect x="159.677734375" y="33.931857638888886" width="18.525390625" height="20.04296875" style="stroke:black;  stroke-width:0; fill:lightgray;" />
<rect x="159.677734375" y="33.931857638888886" width="18.525390625" height="20.04296875" style="stroke:black;  stroke-width:1.4; fill:none;" />
<text x="165.69677734375" y="48.964084201388886">7</text>
</svg>