<svg width="273.3046875" height="182.3917404513889" xmlns="http://www.w3.org/2000/svg">
<style>text {font-family: Arial; font-size: 14px ;}</style>
<desc>Trial design autogenerated by td.py V2.0 (Dec-2021), author: Rainer Strotmann</desc><title>sample8</title><text x="156.4306640625" y="25.0322265625">Period 1</text>
<rect x="106.576171875" y="33.931857638888886" width="18.525390625" height="20.04296875" style="stroke:black;  stroke-width:1.4; fill:none;" />
<text x="111.1220703125" y="48.964084201388886">-1</text>
<rect x="125.1015625" y="33.931857638888886" width="18.525390625" height="20.04296875" style="stroke:black;  stroke-width:1.4; fill:none;" />
<text x="130.6728515625" y="48.964084201388886">1</text>
<rect x="143.626953125" y="33.931857638888886" width="18.525390625" height="20.04296875" style="stroke:black;  stroke-width:1.4; fill:none;" />
<text x="149.57080078125" y="48.964084201388886">2</text>
<rect x="162.15234375" y="33.931857638888886" width="18.525390625" height="20.04296875" style="stroke:black;  stroke-width:1.4; fill:none;" />
<text x="168.1337890625" y="48.964084201388886">3</text>
<rect x="180.677734375" y="33.931857638888886" width="18.525390625" height="20.04296875" style="stroke:black;  stroke-width:1.4; fill:none;" />
<text x="186.474609375" y="48.964084201388886">4</text>
<rect x="199.203125" y="33.931857638888886" width="18.525390625" height="20.04296875" style="stroke:black;  stroke-width:1.4; fill:none;" />
<text x="205.1435546875" y="48.964084201388886">5</text>
<rect x="217.728515625" y="33.931857638888886" width="18.525390625" height="20.04296875" style="stroke:black;  stroke-width:1.4; fill:none;" />
<text x="223.6826171875" y="48.964084201388886">6</text>
<rect x="236.25390625" y="33.931857638888886" width="18.525390625" height="20.04296875" style="stroke:black;  stroke-width:1.4; fill:none;" />
<text x="242.27294921875" y="48.964084201388886">7</text>
<text x="5" y="84.73897569444445">PK sampling</text>
<path d="M127.88037109375, 83.30992296006944 L127.88037109375, 75.79380967881944 L140.84814453125, 75.79380967881944 L140.84814453125, 83.30992296006944 L127.88037109375, 83.30992296006944 Z" style="stroke: black; fill: none; stroke-width:1.4; " /><path d="M146.40576171875, 83.30992296006944 L146.40576171875, 75.79380967881944 L159.37353515625, 75.79380967881944 L159.37353515625, 83.30992296006944 L146.40576171875, 83.30992296006944 Z" style="stroke: black; fill: none; stroke-width:1.4; " /><path d="M167.90751953125, 79.55186631944444 L171.4150390625, 72.53682725694445 L174.92255859375, 79.55186631944444 L171.4150390625, 86.56690538194444 L167.90751953125, 79.55186631944444 Z" style="stroke: black; fill: none; stroke-width:1.4; " /><path d="M125.1015625, 97.35112847222223 A6.680989583333333, 6.680989583333333, 0, 0 0 131.78255208333334, 104.03211805555556 L146.20865885416666, 104.03211805555556 A6.680989583333333, 6.680989583333333 0, 0 1 152.8896484375, 110.7131076388889 A6.680989583333333, 6.680989583333333, 0, 0 1 159.57063802083334, 104.03211805555556 L173.99674479166666, 104.03211805555556 A6.680989583333333, 6.680989583333333 0, 0 0 180.677734375, 97.35112847222223 " style="stroke: black; stroke-width:1.4; fill:none" /><path d="M103.06865234375, 132.40125868055554 L106.576171875, 125.38621961805555 L110.08369140625, 132.40125868055554 L106.576171875, 139.41629774305554 L103.06865234375, 132.40125868055554 Z" style="stroke: black; fill: none; stroke-width:1.4; " /><path d="M106.91808416193182, 132.40125868055554 L110.42560369318181, 125.38621961805555 L113.93312322443181, 132.40125868055554 L110.42560369318181, 139.41629774305554 L106.91808416193182, 132.40125868055554 Z" style="stroke: black; fill: none; stroke-width:1.4; " /><path d="M110.76751598011364, 132.40125868055554 L114.27503551136364, 125.38621961805555 L117.78255504261364, 132.40125868055554 L114.27503551136364, 139.41629774305554 L110.76751598011364, 132.40125868055554 Z" style="stroke: black; fill: none; stroke-width:1.4; " /><path d="M118.46637961647727, 132.40125868055554 L121.97389914772727, 125.38621961805555 L125.48141867897726, 132.40125868055554 L121.97389914772727, 139.41629774305554 L118.46637961647727, 132.40125868055554 Z" style="stroke: black; fill: none; stroke-width:1.4; " /><path d="M133.86410688920452, 132.40125868055554 L137.37162642045453, 125.38621961805555 L140.87914595170454, 132.40125868055554 L137.37162642045453, 139.41629774305554 L133.86410688920452, 132.40125868055554 Z" style="stroke: black; fill: none; stroke-width:1.4; " /><path d="M149.2618341619318, 132.40125868055554 L152.7693536931818, 125.38621961805555 L156.27687322443182, 132.40125868055554 L152.7693536931818, 139.41629774305554 L149.2618341619318, 132.40125868055554 Z" style="stroke: black; fill: none; stroke-width:1.4; " /><path d="M164.65956143465908, 132.40125868055554 L168.1670809659091, 125.38621961805555 L171.6746004971591, 132.40125868055554 L168.1670809659091, 139.41629774305554 L164.65956143465908, 132.40125868055554 Z" style="stroke: black; fill: none; stroke-width:1.4; " /><path d="M195.45501598011361, 132.40125868055554 L198.96253551136363, 125.38621961805555 L202.47005504261364, 132.40125868055554 L198.96253551136363, 139.41629774305554 L195.45501598011361, 132.40125868055554 Z" style="stroke: black; fill: none; stroke-width:1.4; " /><path d="M220.6896573153409, 132.40125868055554 L224.1971768465909, 125.38621961805555 L227.70469637784092, 132.40125868055554 L224.1971768465909, 139.41629774305554 L220.6896573153409, 132.40125868055554 Z" style="stroke: black; fill: none; stroke-width:1.4; " /><path d="M235.98071732954543, 132.40125868055554 L239.48823686079544, 125.38621961805555 L242.99575639204545, 132.40125868055554 L239.48823686079544, 139.41629774305554 L235.98071732954543, 132.40125868055554 Z" style="stroke: black; fill: none; stroke-width:1.4; " /><path d="M251.27177734375, 132.40125868055554 L254.779296875, 125.38621961805555 L258.28681640625, 132.40125868055554 L254.779296875, 139.41629774305554 L251.27177734375, 132.40125868055554 Z" style="stroke: black; fill: none; stroke-width:1.4; " /><line x1="106.576171875" y1="150.20052083333331" x2="214.3602627840909" y2="150.20052083333331" style="stroke:black; stroke-width:1.4; " />
<line x1="106.576171875" y1="146.86002604166666" x2="106.576171875" y2="153.54101562499997" style="stroke:black; stroke-width:1.4; " />
<text x="103.30859375" y="171.34027777777774">0</text>
<line x1="121.97389914772727" y1="146.86002604166666" x2="121.97389914772727" y2="153.54101562499997" style="stroke:black; stroke-width:1.4; " />
<text x="118.65505149147727" y="171.34027777777774">2</text>
<line x1="137.37162642045453" y1="146.86002604166666" x2="137.37162642045453" y2="153.54101562499997" style="stroke:black; stroke-width:1.4; " />
<text x="133.90580610795453" y="171.34027777777774">4</text>
<line x1="152.7693536931818" y1="146.86002604166666" x2="152.7693536931818" y2="153.54101562499997" style="stroke:black; stroke-width:1.4; " />
<text x="149.4607599431818" y="171.34027777777774">6</text>
<line x1="168.1670809659091" y1="146.86002604166666" x2="168.1670809659091" y2="153.54101562499997" style="stroke:black; stroke-width:1.4; " />
<text x="164.8653231534091" y="171.34027777777774">8</text>
<line x1="183.56480823863637" y1="146.86002604166666" x2="183.56480823863637" y2="153.54101562499997" style="stroke:black; stroke-width:1.4; " />
<text x="176.87584339488637" y="171.34027777777774">10</text>
<line x1="198.96253551136363" y1="146.86002604166666" x2="198.96253551136363" y2="153.54101562499997" style="stroke:black; stroke-width:1.4; " />
<text x="192.30775035511363" y="171.34027777777774">12</text>
<text x="192.30775035511363" y="171.34027777777774">12</text>
<line x1="224.1971768465909" y1="150.20052083333331" x2="254.779296875" y2="150.20052083333331" style="stroke:black; stroke-width:1.4; " />
<line x1="224.1971768465909" y1="146.86002604166666" x2="224.1971768465909" y2="153.54101562499997" style="stroke:black; stroke-width:1.4; " />
<text x="216.9545010653409" y="171.34027777777774">24</text>
<line x1="254.779296875" y1="146.86002604166666" x2="254.779296875" y2="153.54101562499997" style="stroke:black; stroke-width:1.4; " />
<text x="247.3896484375" y="171.34027777777774">48 h</text>
</svg>